M48
;DRILL file {KiCad (5.0.2)-1} date 2019/03/22 22:16:05
;FORMAT={-:-/ absolute / metric / decimal}
FMAT,2
METRIC,TZ
T1C0.400
T2C0.500
T3C1.000
T4C1.100
T5C1.200
T6C1.700
T7C1.900
T8C3.000
T9C4.000
%
G90
G05
T1
X58.255Y-66.9
X58.985Y-82.14
X58.985Y-85.95
X58.985Y-88.49
X58.985Y-90.395
X63.43Y-92.3
X65.335Y-99.285
X93.815Y-59.915
X95.72Y-100.555
X97.085Y-57.375
X97.085Y-76.425
X97.625Y-97.38
X98.26Y-64.995
X100.165Y-71.345
X103.975Y-85.315
X105.88Y-90.94
X105.975Y-59.915
X105.975Y-78.965
X106.Y-72.5
X109.15Y-64.995
X113.5Y-64.995
X113.5Y-83.41
X113.595Y-73.25
X114.77Y-62.455
X114.77Y-81.505
X115.5Y-69.44
X116.135Y-57.375
X116.135Y-76.425
X117.945Y-91.665
X117.945Y-97.38
X125.Y-72.5
X125.025Y-59.915
X125.025Y-78.965
X132.55Y-64.36
X132.55Y-84.045
X133.88Y-81.5
X134.Y-62.5
T2
X69.5Y-62.84
X69.5Y-66.65
T3
X83.025Y-54.835
X90.825Y-54.835
X69.5Y-94.1
X69.5Y-101.9
X83.025Y-62.455
X90.825Y-62.455
X83.025Y-66.265
X90.825Y-66.265
X56.81Y-77.06
X56.81Y-79.6
X56.81Y-82.14
X56.81Y-84.68
X56.81Y-87.22
X56.81Y-89.76
X56.81Y-92.3
X56.81Y-94.84
X83.025Y-58.645
X90.825Y-58.645
X82.385Y-94.115
X82.385Y-101.915
T4
X61.88Y-56.49
X61.88Y-59.03
X61.88Y-61.57
X61.88Y-64.11
X61.88Y-66.65
X61.88Y-69.19
X61.88Y-71.73
X61.88Y-74.27
X61.88Y-76.81
X61.88Y-79.35
X61.88Y-81.89
X61.88Y-84.43
X61.88Y-86.97
X61.88Y-89.51
X64.42Y-89.51
X66.96Y-89.51
X69.5Y-71.73
X69.5Y-74.27
X69.5Y-76.81
X69.5Y-79.35
X69.5Y-81.89
X69.5Y-84.43
X69.5Y-86.97
X69.5Y-89.51
X72.04Y-71.73
X72.04Y-74.27
X72.04Y-76.81
X72.04Y-79.35
X72.04Y-81.89
X72.04Y-84.43
X72.04Y-86.97
X72.04Y-89.51
X74.58Y-59.03
X74.58Y-64.11
X74.58Y-66.65
X74.58Y-69.19
X74.58Y-89.51
X77.12Y-56.49
X77.12Y-59.03
X77.12Y-61.57
X77.12Y-64.11
X77.12Y-66.65
X77.12Y-69.19
X77.12Y-71.73
X77.12Y-74.27
X77.12Y-76.81
X77.12Y-79.35
X77.12Y-81.89
X77.12Y-84.43
X77.12Y-86.97
X77.12Y-89.51
T5
X63.5Y-96.5
X63.5Y-103.5
X75.5Y-96.5
X75.5Y-103.5
T6
X119.92Y-63.5
X130.08Y-63.5
X100.87Y-63.5
X111.03Y-63.5
X119.92Y-82.55
X130.08Y-82.55
X100.87Y-82.55
X111.03Y-82.55
T7
X119.5Y-63.5
X130.5Y-63.5
X100.45Y-63.5
X111.45Y-63.5
X119.5Y-82.55
X130.5Y-82.55
X100.45Y-82.55
X111.45Y-82.55
T8
X120.Y-67.2
X121.19Y-60.96
X122.46Y-58.42
X125.Y-69.4
X127.54Y-58.42
X128.81Y-60.96
X130.Y-67.2
X100.95Y-67.2
X102.14Y-60.96
X103.41Y-58.42
X105.95Y-69.4
X108.49Y-58.42
X109.76Y-60.96
X110.95Y-67.2
X120.Y-86.25
X121.19Y-80.01
X122.46Y-77.47
X125.Y-88.45
X127.54Y-77.47
X128.81Y-80.01
X130.Y-86.25
X100.95Y-86.25
X102.14Y-80.01
X103.41Y-77.47
X105.95Y-88.45
X108.49Y-77.47
X109.76Y-80.01
X110.95Y-86.25
T9
X125.Y-63.5
X105.95Y-63.5
X125.Y-82.55
X105.95Y-82.55
T3
X61.4Y-94.95G85X61.4Y-94.45
G05
X61.4Y-98.95G85X61.4Y-98.45
G05
X61.4Y-101.95G85X61.4Y-101.45
G05
X65.6Y-93.45G85X65.6Y-92.95
G05
X73.4Y-94.95G85X73.4Y-94.45
G05
X73.4Y-98.95G85X73.4Y-98.45
G05
X73.4Y-101.95G85X73.4Y-101.45
G05
X77.6Y-93.45G85X77.6Y-92.95
G05
T0
M30
