G04 #@! TF.GenerationSoftware,KiCad,Pcbnew,(5.0.2)-1*
G04 #@! TF.CreationDate,2019-03-22T22:15:34+09:00*
G04 #@! TF.ProjectId,mitcard,6d697463-6172-4642-9e6b-696361645f70,rev?*
G04 #@! TF.SameCoordinates,Original*
G04 #@! TF.FileFunction,Copper,L1,Top*
G04 #@! TF.FilePolarity,Positive*
%FSLAX46Y46*%
G04 Gerber Fmt 4.6, Leading zero omitted, Abs format (unit mm)*
G04 Created by KiCad (PCBNEW (5.0.2)-1) date 2019/03/22 22:15:34*
%MOMM*%
%LPD*%
G01*
G04 APERTURE LIST*
G04 #@! TA.AperFunction,SMDPad,CuDef*
%ADD10R,2.000000X2.000000*%
G04 #@! TD*
G04 #@! TA.AperFunction,SMDPad,CuDef*
%ADD11R,1.800000X2.000000*%
G04 #@! TD*
G04 #@! TA.AperFunction,ComponentPad*
%ADD12C,1.600000*%
G04 #@! TD*
G04 #@! TA.AperFunction,ComponentPad*
%ADD13R,1.600000X1.600000*%
G04 #@! TD*
G04 #@! TA.AperFunction,ComponentPad*
%ADD14C,1.900000*%
G04 #@! TD*
G04 #@! TA.AperFunction,SMDPad,CuDef*
%ADD15R,1.600000X1.200000*%
G04 #@! TD*
G04 #@! TA.AperFunction,Conductor*
%ADD16R,2.900000X0.500000*%
G04 #@! TD*
G04 #@! TA.AperFunction,ComponentPad*
%ADD17O,1.700000X2.500000*%
G04 #@! TD*
G04 #@! TA.AperFunction,SMDPad,CuDef*
%ADD18R,1.200000X1.500000*%
G04 #@! TD*
G04 #@! TA.AperFunction,Conductor*
%ADD19R,0.500000X2.900000*%
G04 #@! TD*
G04 #@! TA.AperFunction,ComponentPad*
%ADD20R,1.700000X1.700000*%
G04 #@! TD*
G04 #@! TA.AperFunction,ComponentPad*
%ADD21O,1.700000X1.700000*%
G04 #@! TD*
G04 #@! TA.AperFunction,ViaPad*
%ADD22C,0.800000*%
G04 #@! TD*
G04 #@! TA.AperFunction,Conductor*
%ADD23C,0.250000*%
G04 #@! TD*
G04 #@! TA.AperFunction,Conductor*
%ADD24C,0.750000*%
G04 #@! TD*
G04 #@! TA.AperFunction,Conductor*
%ADD25C,0.254000*%
G04 #@! TD*
G04 APERTURE END LIST*
D10*
G04 #@! TO.P,SW1,1*
G04 #@! TO.N,col0*
X114050000Y-67200000D03*
D11*
G04 #@! TO.P,SW1,2*
G04 #@! TO.N,Net-(D1-Pad2)*
X103150000Y-69400000D03*
D10*
X112850000Y-60960000D03*
G04 #@! TO.P,SW1,1*
G04 #@! TO.N,col0*
X100350000Y-58420000D03*
G04 #@! TD*
G04 #@! TO.P,SW4,1*
G04 #@! TO.N,col1*
X119400000Y-77470000D03*
G04 #@! TO.P,SW4,2*
G04 #@! TO.N,Net-(D4-Pad2)*
X131900000Y-80010000D03*
D11*
X122200000Y-88450000D03*
D10*
G04 #@! TO.P,SW4,1*
G04 #@! TO.N,col1*
X133100000Y-86250000D03*
G04 #@! TD*
G04 #@! TO.P,SW2,1*
G04 #@! TO.N,col0*
X100350000Y-77470000D03*
G04 #@! TO.P,SW2,2*
G04 #@! TO.N,Net-(D2-Pad2)*
X112850000Y-80010000D03*
D11*
X103150000Y-88450000D03*
D10*
G04 #@! TO.P,SW2,1*
G04 #@! TO.N,col0*
X114050000Y-86250000D03*
G04 #@! TD*
D12*
G04 #@! TO.P,U1,17*
G04 #@! TO.N,GND*
X69500000Y-89510000D03*
G04 #@! TO.P,U1,18*
G04 #@! TO.N,Net-(U1-Pad18)*
X72040000Y-89510000D03*
G04 #@! TO.P,U1,19*
G04 #@! TO.N,Net-(U1-Pad19)*
X74580000Y-89510000D03*
G04 #@! TO.P,U1,20*
G04 #@! TO.N,SCK*
X77120000Y-89510000D03*
G04 #@! TO.P,U1,16*
G04 #@! TO.N,/3.3V*
X66960000Y-89510000D03*
G04 #@! TO.P,U1,15*
G04 #@! TO.N,Net-(U1-Pad15)*
X64420000Y-89510000D03*
G04 #@! TO.P,U1,14*
G04 #@! TO.N,MISO*
X61880000Y-89510000D03*
G04 #@! TO.P,U1,21*
G04 #@! TO.N,Net-(U1-Pad21)*
X77120000Y-86970000D03*
G04 #@! TO.P,U1,22*
G04 #@! TO.N,Net-(U1-Pad22)*
X77120000Y-84430000D03*
G04 #@! TO.P,U1,23*
G04 #@! TO.N,Net-(U1-Pad23)*
X77120000Y-81890000D03*
G04 #@! TO.P,U1,24*
G04 #@! TO.N,Net-(U1-Pad24)*
X77120000Y-79350000D03*
G04 #@! TO.P,U1,25*
G04 #@! TO.N,/SDA*
X77120000Y-76810000D03*
G04 #@! TO.P,U1,26*
G04 #@! TO.N,/SCL*
X77120000Y-74270000D03*
G04 #@! TO.P,U1,27*
G04 #@! TO.N,Net-(U1-Pad27)*
X77120000Y-71730000D03*
G04 #@! TO.P,U1,28*
G04 #@! TO.N,Net-(U1-Pad28)*
X77120000Y-69190000D03*
G04 #@! TO.P,U1,29*
G04 #@! TO.N,Net-(U1-Pad29)*
X77120000Y-66650000D03*
G04 #@! TO.P,U1,30*
G04 #@! TO.N,Net-(U1-Pad30)*
X77120000Y-64110000D03*
G04 #@! TO.P,U1,31*
G04 #@! TO.N,Net-(U1-Pad31)*
X77120000Y-61570000D03*
G04 #@! TO.P,U1,32*
G04 #@! TO.N,GND*
X77120000Y-59030000D03*
G04 #@! TO.P,U1,33*
G04 #@! TO.N,Net-(U1-Pad33)*
X77120000Y-56490000D03*
G04 #@! TO.P,U1,34*
G04 #@! TO.N,Net-(U1-Pad34)*
X74580000Y-59030000D03*
G04 #@! TO.P,U1,35*
G04 #@! TO.N,Net-(U1-Pad35)*
X74580000Y-64110000D03*
G04 #@! TO.P,U1,36*
G04 #@! TO.N,Net-(U1-Pad36)*
X74580000Y-66650000D03*
G04 #@! TO.P,U1,37*
G04 #@! TO.N,Net-(U1-Pad37)*
X74580000Y-69190000D03*
G04 #@! TO.P,U1,13*
G04 #@! TO.N,MOSI*
X61880000Y-86970000D03*
G04 #@! TO.P,U1,12*
G04 #@! TO.N,CS*
X61880000Y-84430000D03*
G04 #@! TO.P,U1,11*
G04 #@! TO.N,/INT*
X61880000Y-81890000D03*
G04 #@! TO.P,U1,10*
G04 #@! TO.N,TX*
X61880000Y-79350000D03*
G04 #@! TO.P,U1,9*
G04 #@! TO.N,RX*
X61880000Y-76810000D03*
G04 #@! TO.P,U1,8*
G04 #@! TO.N,Net-(U1-Pad8)*
X61880000Y-74270000D03*
G04 #@! TO.P,U1,7*
G04 #@! TO.N,col1*
X61880000Y-71730000D03*
G04 #@! TO.P,U1,6*
G04 #@! TO.N,col0*
X61880000Y-69190000D03*
G04 #@! TO.P,U1,5*
G04 #@! TO.N,row0*
X61880000Y-66650000D03*
G04 #@! TO.P,U1,4*
G04 #@! TO.N,row1*
X61880000Y-64110000D03*
G04 #@! TO.P,U1,3*
G04 #@! TO.N,Net-(U1-Pad3)*
X61880000Y-61570000D03*
G04 #@! TO.P,U1,2*
G04 #@! TO.N,Net-(U1-Pad2)*
X61880000Y-59030000D03*
D13*
G04 #@! TO.P,U1,1*
G04 #@! TO.N,GND*
X61880000Y-56490000D03*
D12*
G04 #@! TO.P,U1,38*
G04 #@! TO.N,Net-(U1-Pad38)*
X69500000Y-71730000D03*
G04 #@! TO.P,U1,39*
G04 #@! TO.N,Net-(U1-Pad39)*
X69500000Y-74270000D03*
G04 #@! TO.P,U1,40*
G04 #@! TO.N,N/C*
X69500000Y-76810000D03*
G04 #@! TO.P,U1,41*
X69500000Y-79350000D03*
G04 #@! TO.P,U1,42*
X69500000Y-81890000D03*
G04 #@! TO.P,U1,43*
X69500000Y-84430000D03*
G04 #@! TO.P,U1,44*
X69500000Y-86970000D03*
G04 #@! TO.P,U1,45*
X72040000Y-86970000D03*
G04 #@! TO.P,U1,46*
X72040000Y-84430000D03*
G04 #@! TO.P,U1,47*
X72040000Y-81890000D03*
G04 #@! TO.P,U1,48*
X72040000Y-79350000D03*
G04 #@! TO.P,U1,49*
X72040000Y-76810000D03*
G04 #@! TO.P,U1,50*
X72040000Y-74270000D03*
G04 #@! TO.P,U1,51*
X72040000Y-71730000D03*
D14*
G04 #@! TO.P,U1,52*
X69500000Y-66650000D03*
X69500000Y-62840000D03*
G04 #@! TD*
D10*
G04 #@! TO.P,SW3,1*
G04 #@! TO.N,col1*
X133100000Y-67200000D03*
D11*
G04 #@! TO.P,SW3,2*
G04 #@! TO.N,/col1row0*
X122200000Y-69400000D03*
D10*
X131900000Y-60960000D03*
G04 #@! TO.P,SW3,1*
G04 #@! TO.N,col1*
X119400000Y-58420000D03*
G04 #@! TD*
D15*
G04 #@! TO.P,D1,1*
G04 #@! TO.N,row0*
X85525000Y-58645000D03*
G04 #@! TO.P,D1,2*
G04 #@! TO.N,Net-(D1-Pad2)*
X88325000Y-58645000D03*
D12*
X90825000Y-58645000D03*
D13*
G04 #@! TO.P,D1,1*
G04 #@! TO.N,row0*
X83025000Y-58645000D03*
D16*
G04 #@! TD*
G04 #@! TO.N,Net-(D1-Pad2)*
G04 #@! TO.C,D1*
X89425000Y-58645000D03*
G04 #@! TO.N,row0*
G04 #@! TO.C,D1*
X84425000Y-58645000D03*
G04 #@! TD*
D15*
G04 #@! TO.P,D2,1*
G04 #@! TO.N,row1*
X85525000Y-62455000D03*
G04 #@! TO.P,D2,2*
G04 #@! TO.N,Net-(D2-Pad2)*
X88325000Y-62455000D03*
D12*
X90825000Y-62455000D03*
D13*
G04 #@! TO.P,D2,1*
G04 #@! TO.N,row1*
X83025000Y-62455000D03*
D16*
G04 #@! TD*
G04 #@! TO.N,Net-(D2-Pad2)*
G04 #@! TO.C,D2*
X89425000Y-62455000D03*
G04 #@! TO.N,row1*
G04 #@! TO.C,D2*
X84425000Y-62455000D03*
G04 #@! TD*
G04 #@! TO.N,row0*
G04 #@! TO.C,D3*
X84425000Y-54835000D03*
G04 #@! TO.N,/col1row0*
X89425000Y-54835000D03*
D13*
G04 #@! TD*
G04 #@! TO.P,D3,1*
G04 #@! TO.N,row0*
X83025000Y-54835000D03*
D12*
G04 #@! TO.P,D3,2*
G04 #@! TO.N,/col1row0*
X90825000Y-54835000D03*
D15*
X88325000Y-54835000D03*
G04 #@! TO.P,D3,1*
G04 #@! TO.N,row0*
X85525000Y-54835000D03*
G04 #@! TD*
D16*
G04 #@! TO.N,row1*
G04 #@! TO.C,D4*
X84425000Y-66265000D03*
G04 #@! TO.N,Net-(D4-Pad2)*
X89425000Y-66265000D03*
D13*
G04 #@! TD*
G04 #@! TO.P,D4,1*
G04 #@! TO.N,row1*
X83025000Y-66265000D03*
D12*
G04 #@! TO.P,D4,2*
G04 #@! TO.N,Net-(D4-Pad2)*
X90825000Y-66265000D03*
D15*
X88325000Y-66265000D03*
G04 #@! TO.P,D4,1*
G04 #@! TO.N,row1*
X85525000Y-66265000D03*
G04 #@! TD*
D17*
G04 #@! TO.P,J1,B*
G04 #@! TO.N,/SDA*
X73400000Y-101700000D03*
G04 #@! TO.P,J1,C*
G04 #@! TO.N,/SCL*
X73400000Y-98700000D03*
G04 #@! TO.P,J1,D*
G04 #@! TO.N,/3.3V*
X73400000Y-94700000D03*
G04 #@! TO.P,J1,A*
G04 #@! TO.N,GND*
X77600000Y-93200000D03*
G04 #@! TD*
G04 #@! TO.P,J2,A*
G04 #@! TO.N,Net-(J2-PadA)*
X65600000Y-93200000D03*
G04 #@! TO.P,J2,D*
G04 #@! TO.N,Net-(J2-PadD)*
X61400000Y-94700000D03*
G04 #@! TO.P,J2,C*
G04 #@! TO.N,/INT*
X61400000Y-98700000D03*
G04 #@! TO.P,J2,B*
G04 #@! TO.N,Net-(J2-PadB)*
X61400000Y-101700000D03*
G04 #@! TD*
D18*
G04 #@! TO.P,R1,1*
G04 #@! TO.N,/3.3V*
X82385000Y-96665000D03*
G04 #@! TO.P,R1,2*
G04 #@! TO.N,/SCL*
X82385000Y-99365000D03*
D12*
X82385000Y-101915000D03*
G04 #@! TO.P,R1,1*
G04 #@! TO.N,/3.3V*
X82385000Y-94115000D03*
D19*
G04 #@! TD*
G04 #@! TO.N,/SCL*
G04 #@! TO.C,R1*
X82385000Y-100515000D03*
G04 #@! TO.N,/3.3V*
G04 #@! TO.C,R1*
X82385000Y-95515000D03*
G04 #@! TD*
G04 #@! TO.N,/3.3V*
G04 #@! TO.C,R2*
X69500000Y-95500000D03*
G04 #@! TO.N,/SDA*
X69500000Y-100500000D03*
D12*
G04 #@! TD*
G04 #@! TO.P,R2,1*
G04 #@! TO.N,/3.3V*
X69500000Y-94100000D03*
G04 #@! TO.P,R2,2*
G04 #@! TO.N,/SDA*
X69500000Y-101900000D03*
D18*
X69500000Y-99350000D03*
G04 #@! TO.P,R2,1*
G04 #@! TO.N,/3.3V*
X69500000Y-96650000D03*
G04 #@! TD*
D20*
G04 #@! TO.P,J3,1*
G04 #@! TO.N,/3.3V*
X56810000Y-94840000D03*
D21*
G04 #@! TO.P,J3,2*
G04 #@! TO.N,SCK*
X56810000Y-92300000D03*
G04 #@! TO.P,J3,3*
G04 #@! TO.N,MISO*
X56810000Y-89760000D03*
G04 #@! TO.P,J3,4*
G04 #@! TO.N,MOSI*
X56810000Y-87220000D03*
G04 #@! TO.P,J3,5*
G04 #@! TO.N,CS*
X56810000Y-84680000D03*
G04 #@! TO.P,J3,6*
G04 #@! TO.N,TX*
X56810000Y-82140000D03*
G04 #@! TO.P,J3,7*
G04 #@! TO.N,RX*
X56810000Y-79600000D03*
G04 #@! TO.P,J3,8*
G04 #@! TO.N,GND*
X56810000Y-77060000D03*
G04 #@! TD*
D22*
G04 #@! TO.N,Net-(D1-Pad2)*
X105999994Y-72500000D03*
X114770000Y-62454998D03*
G04 #@! TO.N,Net-(D2-Pad2)*
X105880000Y-90939990D03*
X114770000Y-81505000D03*
G04 #@! TO.N,Net-(D4-Pad2)*
X133879990Y-81500000D03*
X117945000Y-91664996D03*
G04 #@! TO.N,GND*
X105975000Y-78965000D03*
X105975000Y-59915000D03*
X125025000Y-59915000D03*
X125025000Y-78965000D03*
X113595000Y-73250000D03*
X109150000Y-64995000D03*
X115500000Y-69440000D03*
X58985000Y-82140000D03*
X58985000Y-88490000D03*
X58985000Y-90395000D03*
X65335000Y-99285000D03*
X58985000Y-85949998D03*
X63430000Y-92300000D03*
X100165000Y-71345000D03*
X132550000Y-64360000D03*
X58255000Y-66900000D03*
X93815000Y-59915000D03*
X113500000Y-64995000D03*
X132550000Y-84045000D03*
X113500000Y-83410000D03*
X103975000Y-85315000D03*
X98260000Y-64995000D03*
G04 #@! TO.N,col0*
X97085000Y-57375034D03*
X97085018Y-76425000D03*
G04 #@! TO.N,col1*
X116135000Y-57375000D03*
X116135000Y-76425000D03*
G04 #@! TO.N,Net-(U1-Pad23)*
X95720000Y-100555000D03*
G04 #@! TO.N,Net-(U1-Pad29)*
X97625000Y-97380000D03*
G04 #@! TO.N,Net-(U1-Pad30)*
X117945000Y-97380000D03*
G04 #@! TO.N,/col1row0*
X134000000Y-62500042D03*
X125000012Y-72500000D03*
G04 #@! TD*
D23*
G04 #@! TO.N,Net-(D1-Pad2)*
X104590000Y-72500000D02*
X105999994Y-72500000D01*
X103150000Y-69400000D02*
X103150000Y-71060000D01*
X103150000Y-71060000D02*
X104590000Y-72500000D01*
X90825000Y-58010000D02*
X90825000Y-58100000D01*
X114770000Y-61820000D02*
X114770000Y-62454998D01*
X112850000Y-60960000D02*
X113910000Y-60960000D01*
X113910000Y-60960000D02*
X114770000Y-61820000D01*
X90625000Y-58645000D02*
X95720000Y-63740000D01*
X89425000Y-58645000D02*
X90625000Y-58645000D01*
X95720000Y-63740000D02*
X95720000Y-67440000D01*
X95720000Y-67440000D02*
X97680000Y-69400000D01*
X97680000Y-69400000D02*
X102000000Y-69400000D01*
X102000000Y-69400000D02*
X103150000Y-69400000D01*
G04 #@! TO.N,row0*
X83025000Y-54835000D02*
X83025000Y-58645000D01*
G04 #@! TO.N,Net-(D2-Pad2)*
X90825000Y-61820000D02*
X90825000Y-61910000D01*
X104519990Y-90939990D02*
X105880000Y-90939990D01*
X103150000Y-88450000D02*
X103150000Y-89570000D01*
X103150000Y-89570000D02*
X104519990Y-90939990D01*
X89425000Y-62455000D02*
X90625000Y-62455000D01*
X114770000Y-80939315D02*
X114770000Y-81505000D01*
X112850000Y-80010000D02*
X114100000Y-80010000D01*
X114770000Y-80680000D02*
X114770000Y-80939315D01*
X114100000Y-80010000D02*
X114770000Y-80680000D01*
X93815000Y-65630000D02*
X93815000Y-83950000D01*
X91275000Y-63090000D02*
X93815000Y-65630000D01*
X93815000Y-83950000D02*
X98315000Y-88450000D01*
X98315000Y-88450000D02*
X102000000Y-88450000D01*
X102000000Y-88450000D02*
X103150000Y-88450000D01*
G04 #@! TO.N,row1*
X59620000Y-61850000D02*
X59620000Y-54740000D01*
X59620000Y-54740000D02*
X60160000Y-54200000D01*
X60160000Y-54200000D02*
X78670000Y-54200000D01*
X78670000Y-54200000D02*
X80575000Y-56105000D01*
X61880000Y-64110000D02*
X59620000Y-61850000D01*
X83225000Y-62455000D02*
X84425000Y-62455000D01*
X80575000Y-60440000D02*
X83225000Y-63090000D01*
X80575000Y-56740000D02*
X80575000Y-60440000D01*
X80575000Y-56105000D02*
X80575000Y-56740000D01*
G04 #@! TO.N,Net-(D4-Pad2)*
X133879990Y-80934315D02*
X133879990Y-81500000D01*
X133879990Y-80834990D02*
X133879990Y-80934315D01*
X131900000Y-80010000D02*
X133055000Y-80010000D01*
X133055000Y-80010000D02*
X133879990Y-80834990D01*
X122200000Y-88550000D02*
X119085004Y-91664996D01*
X118510685Y-91664996D02*
X117945000Y-91664996D01*
X122200000Y-88450000D02*
X122200000Y-88550000D01*
X119085004Y-91664996D02*
X118510685Y-91664996D01*
X98989996Y-91664996D02*
X117379315Y-91664996D01*
X117379315Y-91664996D02*
X117945000Y-91664996D01*
X90825000Y-83500000D02*
X98989996Y-91664996D01*
X90825000Y-66900000D02*
X90825000Y-69440000D01*
X90825000Y-69440000D02*
X90825000Y-83500000D01*
G04 #@! TO.N,/SDA*
X79500000Y-79190000D02*
X77120000Y-76810000D01*
X73200000Y-101900000D02*
X73400000Y-101700000D01*
X79500000Y-96700000D02*
X79500000Y-94500000D01*
X74500000Y-101700000D02*
X79500000Y-96700000D01*
X73400000Y-101700000D02*
X74500000Y-101700000D01*
X79500000Y-95200000D02*
X79500000Y-94500000D01*
X79500000Y-94500000D02*
X79500000Y-79190000D01*
G04 #@! TO.N,/SCL*
X82385000Y-101915000D02*
X82385000Y-99920000D01*
X82385000Y-99215000D02*
X82385000Y-99365000D01*
X84925000Y-96675000D02*
X82385000Y-99215000D01*
X84925000Y-92300000D02*
X84925000Y-96675000D01*
X81750000Y-89125000D02*
X84925000Y-92300000D01*
X77120000Y-74270000D02*
X81750000Y-78900000D01*
X81750000Y-78900000D02*
X81750000Y-89125000D01*
D24*
G04 #@! TO.N,/3.3V*
X69500000Y-94100000D02*
X72800000Y-94100000D01*
X68368630Y-94100000D02*
X69500000Y-94100000D01*
X56910000Y-94840000D02*
X59250000Y-92500000D01*
X56810000Y-94840000D02*
X56910000Y-94840000D01*
X59250000Y-92500000D02*
X62250000Y-92500000D01*
X62250000Y-92500000D02*
X65250000Y-95500000D01*
X65250000Y-95500000D02*
X66968630Y-95500000D01*
X66968630Y-95500000D02*
X68368630Y-94100000D01*
D23*
G04 #@! TO.N,GND*
X98895000Y-94205000D02*
X100800000Y-92300000D01*
X100800000Y-92300000D02*
X102705000Y-94205000D01*
X102705000Y-94205000D02*
X104610000Y-92300000D01*
X104610000Y-92300000D02*
X106515000Y-94205000D01*
X106515000Y-94205000D02*
X108420000Y-92300000D01*
X108420000Y-92300000D02*
X110325000Y-94205000D01*
X110325000Y-94205000D02*
X112230000Y-92300000D01*
X93180000Y-89760000D02*
X96355000Y-92935000D01*
X96355000Y-92935000D02*
X95720000Y-93570000D01*
X95720000Y-93570000D02*
X91910000Y-89760000D01*
X96355000Y-91665000D02*
X98895000Y-94205000D01*
X94450000Y-89760000D02*
X96355000Y-91665000D01*
X90640000Y-89760000D02*
X95085000Y-94205000D01*
X90640000Y-89760000D02*
X91275000Y-89125000D01*
X91275000Y-89125000D02*
X91910000Y-89760000D01*
X91910000Y-89760000D02*
X92545000Y-89125000D01*
X92545000Y-89125000D02*
X93180000Y-89760000D01*
X93180000Y-89760000D02*
X93815000Y-89125000D01*
X93815000Y-89125000D02*
X94450000Y-89760000D01*
X95720000Y-93570000D02*
X96355000Y-94205000D01*
X96355000Y-94205000D02*
X98260000Y-92300000D01*
X98260000Y-92300000D02*
X100165000Y-94205000D01*
X100165000Y-94205000D02*
X102070000Y-92300000D01*
X102070000Y-92300000D02*
X103975000Y-94205000D01*
X103975000Y-94205000D02*
X105880000Y-92300000D01*
X105880000Y-92300000D02*
X107785000Y-94205000D01*
X107785000Y-94205000D02*
X109690000Y-92300000D01*
X109690000Y-92300000D02*
X111595000Y-94205000D01*
X111595000Y-94205000D02*
X113500000Y-92300000D01*
X113500000Y-92300000D02*
X115405000Y-94205000D01*
X115405000Y-94205000D02*
X117310000Y-92300000D01*
X117310000Y-92300000D02*
X119215000Y-94205000D01*
X119215000Y-94205000D02*
X121120000Y-92300000D01*
X121120000Y-92300000D02*
X123025000Y-94205000D01*
X128105000Y-89125000D02*
X133185000Y-94205000D01*
X133185000Y-94205000D02*
X138265000Y-89125000D01*
X138265000Y-89125000D02*
X140170000Y-91030000D01*
X140170000Y-91030000D02*
X136995000Y-94205000D01*
X136995000Y-94205000D02*
X140170000Y-97380000D01*
X140170000Y-97380000D02*
X136995000Y-100555000D01*
X136995000Y-100555000D02*
X139459231Y-103019231D01*
X137630000Y-103730000D02*
X140170000Y-101190000D01*
X140170000Y-101190000D02*
X136995000Y-98015000D01*
X136995000Y-98015000D02*
X140170000Y-94840000D01*
X140170000Y-94840000D02*
X134455000Y-89125000D01*
X129375000Y-94205000D02*
X126200000Y-91030000D01*
X124295000Y-94205000D02*
X129375000Y-89125000D01*
X134455000Y-94205000D02*
X139535000Y-89125000D01*
X130010000Y-89760000D02*
X134455000Y-94205000D01*
X140170000Y-89760000D02*
X135725000Y-94205000D01*
X139535000Y-89125000D02*
X140170000Y-89760000D01*
X136995000Y-103095000D02*
X140170000Y-99920000D01*
X140170000Y-99920000D02*
X136995000Y-96745000D01*
X136995000Y-89125000D02*
X140170000Y-92300000D01*
X140170000Y-92300000D02*
X136995000Y-95475000D01*
X138900000Y-94840000D02*
X140170000Y-96110000D01*
X136995000Y-96745000D02*
X138900000Y-94840000D01*
X140170000Y-96110000D02*
X136995000Y-99285000D01*
X136995000Y-99285000D02*
X139535000Y-101825000D01*
X120485000Y-94205000D02*
X118580000Y-92300000D01*
X118580000Y-92300000D02*
X116675000Y-94205000D01*
X116675000Y-94205000D02*
X114770000Y-92300000D01*
X114770000Y-92300000D02*
X112865000Y-94205000D01*
X112865000Y-94205000D02*
X110960000Y-92300000D01*
X110960000Y-92300000D02*
X109055000Y-94205000D01*
X109055000Y-94205000D02*
X107150000Y-92300000D01*
X107150000Y-92300000D02*
X105245000Y-94205000D01*
X105245000Y-94205000D02*
X103340000Y-92300000D01*
X103340000Y-92300000D02*
X101435000Y-94205000D01*
X101435000Y-94205000D02*
X99530000Y-92300000D01*
X99530000Y-92300000D02*
X97625000Y-94205000D01*
X97625000Y-94205000D02*
X96355000Y-92935000D01*
X112230000Y-92300000D02*
X114135000Y-94205000D01*
X114135000Y-94205000D02*
X116040000Y-92300000D01*
X116040000Y-92300000D02*
X117945000Y-94205000D01*
X117945000Y-94205000D02*
X119850000Y-92300000D01*
X119850000Y-92300000D02*
X121755000Y-94205000D01*
X121755000Y-94205000D02*
X124295000Y-91665000D01*
X123660000Y-91030000D02*
X123025000Y-91665000D01*
X122390000Y-92300000D02*
X124295000Y-94205000D01*
X122390000Y-92300000D02*
X120485000Y-94205000D01*
X123025000Y-91665000D02*
X122390000Y-92300000D01*
X125565000Y-91665000D02*
X127470000Y-93570000D01*
X127470000Y-93570000D02*
X126835000Y-94205000D01*
X125565000Y-91665000D02*
X126200000Y-91030000D01*
X123025000Y-94205000D02*
X125565000Y-91665000D01*
X127470000Y-89760000D02*
X131280000Y-93570000D01*
X127470000Y-89760000D02*
X128105000Y-89125000D01*
X126200000Y-91030000D02*
X127470000Y-89760000D01*
X131280000Y-89760000D02*
X135725000Y-94205000D01*
X131280000Y-89760000D02*
X127470000Y-93570000D01*
X131915000Y-89125000D02*
X131280000Y-89760000D01*
X132550000Y-89760000D02*
X128740000Y-93570000D01*
X132550000Y-89760000D02*
X131915000Y-89125000D01*
X136995000Y-94205000D02*
X132550000Y-89760000D01*
X130010000Y-89760000D02*
X126200000Y-93570000D01*
X126200000Y-93570000D02*
X123660000Y-91030000D01*
X126835000Y-94205000D02*
X126200000Y-93570000D01*
X129375000Y-89125000D02*
X130010000Y-89760000D01*
X133820000Y-89760000D02*
X138900000Y-94840000D01*
X133820000Y-89760000D02*
X129375000Y-94205000D01*
X134455000Y-89125000D02*
X133820000Y-89760000D01*
X130010000Y-89760000D02*
X130645000Y-89125000D01*
X130645000Y-89125000D02*
X131280000Y-89760000D01*
X132550000Y-89760000D02*
X133185000Y-89125000D01*
X133185000Y-89125000D02*
X133820000Y-89760000D01*
X124295000Y-91665000D02*
X124930000Y-91030000D01*
X124930000Y-91030000D02*
X125565000Y-91665000D01*
X122390000Y-92300000D02*
X121120000Y-91030000D01*
X121120000Y-91030000D02*
X121755000Y-90395000D01*
X121755000Y-90395000D02*
X123025000Y-91665000D01*
X121120000Y-92300000D02*
X123025000Y-90395000D01*
X123025000Y-90395000D02*
X123660000Y-91030000D01*
X123660000Y-91030000D02*
X124295000Y-90395000D01*
X124295000Y-90395000D02*
X124930000Y-91030000D01*
X124930000Y-91030000D02*
X125565000Y-90395000D01*
X125565000Y-90395000D02*
X126200000Y-91030000D01*
X130645000Y-94205000D02*
X126835000Y-90395000D01*
X135725000Y-89125000D02*
X130645000Y-94205000D01*
X125565000Y-94205000D02*
X126200000Y-93570000D01*
X123025000Y-91665000D02*
X125565000Y-94205000D01*
X127470000Y-93570000D02*
X128105000Y-94205000D01*
X128105000Y-94205000D02*
X128740000Y-93570000D01*
X131280000Y-93570000D02*
X131915000Y-94205000D01*
X131915000Y-94205000D02*
X132231795Y-93888205D01*
X138900000Y-94840000D02*
X140170000Y-93570000D01*
X140170000Y-93570000D02*
X135725000Y-89125000D01*
X136995000Y-89125000D02*
X132231795Y-93888205D01*
X132231795Y-93888205D02*
X132550000Y-93570000D01*
X138801025Y-103631025D02*
X139337050Y-103095000D01*
X136995000Y-101825000D02*
X138801025Y-103631025D01*
X140170000Y-98650000D02*
X136995000Y-101825000D01*
X136995000Y-95475000D02*
X140170000Y-98650000D01*
X89370000Y-93570000D02*
X93815000Y-98015000D01*
X93180000Y-89760000D02*
X89370000Y-93570000D01*
X93815000Y-98015000D02*
X89370000Y-102460000D01*
X90005000Y-103095000D02*
X93815000Y-99285000D01*
X89370000Y-102460000D02*
X90005000Y-103095000D01*
X89370000Y-94840000D02*
X94450000Y-89760000D01*
X93815000Y-99285000D02*
X89370000Y-94840000D01*
X90005000Y-103095000D02*
X90640000Y-103730000D01*
X90640000Y-103730000D02*
X93815000Y-100555000D01*
X89370000Y-96110000D02*
X95085000Y-90395000D01*
X93815000Y-100555000D02*
X89370000Y-96110000D01*
X89370000Y-102460000D02*
X91275000Y-104365000D01*
X91275000Y-104365000D02*
X93815000Y-101825000D01*
X89370000Y-92300000D02*
X91910000Y-89760000D01*
X93815000Y-96745000D02*
X89370000Y-92300000D01*
X89370000Y-97380000D02*
X93815000Y-101825000D01*
X95720000Y-91030000D02*
X89370000Y-97380000D01*
X92545000Y-104365000D02*
X89370000Y-101190000D01*
X89370000Y-101190000D02*
X93815000Y-96745000D01*
X95720000Y-92300000D02*
X96355000Y-91665000D01*
X89370000Y-98650000D02*
X95720000Y-92300000D01*
X93815000Y-103095000D02*
X89370000Y-98650000D01*
X92545000Y-104365000D02*
X93815000Y-103095000D01*
X90005000Y-89125000D02*
X90640000Y-89760000D01*
X89370000Y-89760000D02*
X90005000Y-89125000D01*
X90005000Y-90395000D02*
X89370000Y-89760000D01*
X96990000Y-92300000D02*
X95085000Y-94205000D01*
X93815000Y-94205000D02*
X89370000Y-89760000D01*
X89370000Y-91030000D02*
X90640000Y-89760000D01*
X93815000Y-95475000D02*
X89370000Y-91030000D01*
X89370000Y-99920000D02*
X93815000Y-95475000D01*
X91275000Y-104365000D02*
X93815000Y-104365000D01*
X93815000Y-104365000D02*
X89370000Y-99920000D01*
X93815000Y-104365000D02*
X93815000Y-94205000D01*
X93815000Y-94205000D02*
X136995000Y-94205000D01*
X136995000Y-104365000D02*
X137630000Y-103730000D01*
X136995000Y-94205000D02*
X136995000Y-104365000D01*
X139535000Y-101825000D02*
X139535000Y-102938165D01*
X137728975Y-103631025D02*
X137630000Y-103730000D01*
X138801025Y-103631025D02*
X137728975Y-103631025D01*
X136995000Y-103095000D02*
X137630000Y-103730000D01*
G04 #@! TO.N,col0*
X100350000Y-58420000D02*
X98129966Y-58420000D01*
X97484999Y-57775033D02*
X97085000Y-57375034D01*
X98129966Y-58420000D02*
X97484999Y-57775033D01*
X100350000Y-77470000D02*
X98130018Y-77470000D01*
X98130018Y-77470000D02*
X97485017Y-76824999D01*
X97485017Y-76824999D02*
X97085018Y-76425000D01*
X96449966Y-56740000D02*
X97085000Y-57375034D01*
X92004966Y-52295000D02*
X96449966Y-56740000D01*
X58890000Y-52295000D02*
X92004966Y-52295000D01*
X57080000Y-54105000D02*
X58890000Y-52295000D01*
X61880000Y-69190000D02*
X57080000Y-64390000D01*
X57080000Y-64390000D02*
X57080000Y-54105000D01*
X114050000Y-67080000D02*
X114050000Y-67200000D01*
X100350000Y-57170000D02*
X102685000Y-54835000D01*
X100350000Y-58420000D02*
X100350000Y-57170000D01*
X102685000Y-54835000D02*
X111690000Y-54835000D01*
X111690000Y-54835000D02*
X116770000Y-59915000D01*
X116770000Y-59915000D02*
X116770000Y-64360000D01*
X116770000Y-64360000D02*
X114050000Y-67080000D01*
X100350000Y-75700000D02*
X101530000Y-74520000D01*
X100350000Y-77470000D02*
X100350000Y-75700000D01*
X101530000Y-74520000D02*
X112325000Y-74520000D01*
X114050000Y-86130000D02*
X114050000Y-86250000D01*
X112325000Y-74520000D02*
X116675000Y-78870000D01*
X116675000Y-78870000D02*
X116675000Y-83505000D01*
X116675000Y-83505000D02*
X114050000Y-86130000D01*
G04 #@! TO.N,col1*
X117180000Y-58420000D02*
X116534999Y-57774999D01*
X119400000Y-58420000D02*
X117180000Y-58420000D01*
X116534999Y-57774999D02*
X116135000Y-57375000D01*
X117180000Y-77470000D02*
X116135000Y-76425000D01*
X119400000Y-77470000D02*
X117180000Y-77470000D01*
X119400000Y-57170000D02*
X121100000Y-55470000D01*
X119400000Y-58420000D02*
X119400000Y-57170000D01*
X121100000Y-55470000D02*
X131915000Y-55470000D01*
X133615000Y-67200000D02*
X133100000Y-67200000D01*
X131915000Y-55470000D02*
X136360000Y-59915000D01*
X136360000Y-59915000D02*
X136360000Y-64455000D01*
X136360000Y-64455000D02*
X133615000Y-67200000D01*
X133100000Y-86130000D02*
X133100000Y-86250000D01*
X119400000Y-76220000D02*
X121100000Y-74520000D01*
X119400000Y-77470000D02*
X119400000Y-76220000D01*
X121100000Y-74520000D02*
X131915000Y-74520000D01*
X131915000Y-74520000D02*
X136360000Y-78965000D01*
X136360000Y-78965000D02*
X136360000Y-82870000D01*
X136360000Y-82870000D02*
X133100000Y-86130000D01*
G04 #@! TO.N,/col1row0*
X123640000Y-72500000D02*
X125000012Y-72500000D01*
X122200000Y-69400000D02*
X122200000Y-71060000D01*
X122200000Y-71060000D02*
X123640000Y-72500000D01*
X134000000Y-61905000D02*
X134000000Y-62500042D01*
X131900000Y-60960000D02*
X133055000Y-60960000D01*
X133055000Y-60960000D02*
X134000000Y-61905000D01*
X90825000Y-54835000D02*
X91370000Y-54835000D01*
X95720000Y-61090000D02*
X99625000Y-64995000D01*
X95720000Y-59915000D02*
X95720000Y-61090000D01*
X107245000Y-66900000D02*
X111055000Y-70710000D01*
X92545000Y-56740000D02*
X95720000Y-59915000D01*
X117405000Y-70710000D02*
X118715000Y-69400000D01*
X92530000Y-56740000D02*
X92545000Y-56740000D01*
X89425000Y-54835000D02*
X90625000Y-54835000D01*
X90625000Y-54835000D02*
X92530000Y-56740000D01*
X102070000Y-64995000D02*
X103975000Y-66900000D01*
X99625000Y-64995000D02*
X102070000Y-64995000D01*
X103975000Y-66900000D02*
X107245000Y-66900000D01*
X111055000Y-70710000D02*
X117405000Y-70710000D01*
X118715000Y-69400000D02*
X122200000Y-69400000D01*
G04 #@! TO.N,SCK*
X58650000Y-92000000D02*
X56810000Y-92000000D01*
X59650000Y-91000000D02*
X58650000Y-92000000D01*
X75600000Y-91000000D02*
X59650000Y-91000000D01*
X76290001Y-90309999D02*
X75600000Y-91000000D01*
X77120000Y-89510000D02*
X76320001Y-90309999D01*
X76320001Y-90309999D02*
X76290001Y-90309999D01*
G04 #@! TO.N,MISO*
X61830000Y-89460000D02*
X61880000Y-89510000D01*
X56810000Y-89460000D02*
X61830000Y-89460000D01*
G04 #@! TO.N,MOSI*
X61830000Y-86920000D02*
X61880000Y-86970000D01*
X56810000Y-86920000D02*
X61830000Y-86920000D01*
G04 #@! TO.N,CS*
X61830000Y-84380000D02*
X61880000Y-84430000D01*
X56810000Y-84380000D02*
X61830000Y-84380000D01*
G04 #@! TO.N,TX*
X59300000Y-79350000D02*
X61880000Y-79350000D01*
X56810000Y-81840000D02*
X59300000Y-79350000D01*
G04 #@! TD*
D25*
G04 #@! TO.N,Net-(U1-Pad29)*
G36*
X114135000Y-98018819D02*
X97621124Y-98523059D01*
X97572841Y-98534205D01*
X97532498Y-98562980D01*
X97506239Y-98605003D01*
X97498000Y-98650000D01*
X97498000Y-100555000D01*
X97507667Y-100603601D01*
X97535197Y-100644803D01*
X97576399Y-100672333D01*
X97621124Y-100681941D01*
X114135000Y-101186181D01*
X114135000Y-102460000D01*
X96990000Y-102460000D01*
X96990000Y-96745000D01*
X114135000Y-96745000D01*
X114135000Y-98018819D01*
X114135000Y-98018819D01*
G37*
X114135000Y-98018819D02*
X97621124Y-98523059D01*
X97572841Y-98534205D01*
X97532498Y-98562980D01*
X97506239Y-98605003D01*
X97498000Y-98650000D01*
X97498000Y-100555000D01*
X97507667Y-100603601D01*
X97535197Y-100644803D01*
X97576399Y-100672333D01*
X97621124Y-100681941D01*
X114135000Y-101186181D01*
X114135000Y-102460000D01*
X96990000Y-102460000D01*
X96990000Y-96745000D01*
X114135000Y-96745000D01*
X114135000Y-98018819D01*
G04 #@! TO.N,Net-(U1-Pad30)*
G36*
X133820000Y-102460000D02*
X116675000Y-102460000D01*
X116675000Y-101186181D01*
X133188876Y-100681941D01*
X133237159Y-100670795D01*
X133277502Y-100642020D01*
X133303761Y-100599997D01*
X133312000Y-100555000D01*
X133312000Y-98650000D01*
X133302333Y-98601399D01*
X133274803Y-98560197D01*
X133233601Y-98532667D01*
X133188876Y-98523059D01*
X116675000Y-98018819D01*
X116675000Y-96745000D01*
X133820000Y-96745000D01*
X133820000Y-102460000D01*
X133820000Y-102460000D01*
G37*
X133820000Y-102460000D02*
X116675000Y-102460000D01*
X116675000Y-101186181D01*
X133188876Y-100681941D01*
X133237159Y-100670795D01*
X133277502Y-100642020D01*
X133303761Y-100599997D01*
X133312000Y-100555000D01*
X133312000Y-98650000D01*
X133302333Y-98601399D01*
X133274803Y-98560197D01*
X133233601Y-98532667D01*
X133188876Y-98523059D01*
X116675000Y-98018819D01*
X116675000Y-96745000D01*
X133820000Y-96745000D01*
X133820000Y-102460000D01*
G04 #@! TO.N,GND*
G36*
X79815000Y-56419802D02*
X79815000Y-56665149D01*
X79815001Y-60365148D01*
X79800112Y-60440000D01*
X79815001Y-60514852D01*
X79859097Y-60736537D01*
X80027072Y-60987929D01*
X80090528Y-61030329D01*
X81577560Y-62517362D01*
X81577560Y-63255000D01*
X81626843Y-63502765D01*
X81767191Y-63712809D01*
X81977235Y-63853157D01*
X82225000Y-63902440D01*
X83825000Y-63902440D01*
X84072765Y-63853157D01*
X84282809Y-63712809D01*
X84370377Y-63581756D01*
X84477235Y-63653157D01*
X84725000Y-63702440D01*
X86325000Y-63702440D01*
X86572765Y-63653157D01*
X86782809Y-63512809D01*
X86923157Y-63302765D01*
X86925000Y-63293500D01*
X86926843Y-63302765D01*
X87067191Y-63512809D01*
X87277235Y-63653157D01*
X87525000Y-63702440D01*
X89125000Y-63702440D01*
X89372765Y-63653157D01*
X89582809Y-63512809D01*
X89689965Y-63352440D01*
X89693044Y-63352440D01*
X90012138Y-63671534D01*
X90539561Y-63890000D01*
X91000199Y-63890000D01*
X93055000Y-65944803D01*
X93055001Y-83875148D01*
X93040112Y-83950000D01*
X93055001Y-84024852D01*
X93099097Y-84246537D01*
X93267072Y-84497929D01*
X93330528Y-84540329D01*
X97724671Y-88934473D01*
X97767071Y-88997929D01*
X98018463Y-89165904D01*
X98240148Y-89210000D01*
X98240152Y-89210000D01*
X98314999Y-89224888D01*
X98389846Y-89210000D01*
X101602560Y-89210000D01*
X101602560Y-89450000D01*
X101651843Y-89697765D01*
X101792191Y-89907809D01*
X102002235Y-90048157D01*
X102250000Y-90097440D01*
X102588382Y-90097440D01*
X102602072Y-90117929D01*
X102665528Y-90160329D01*
X103410194Y-90904996D01*
X99304798Y-90904996D01*
X91585000Y-83185199D01*
X91585000Y-67503430D01*
X91637862Y-67481534D01*
X92041534Y-67077862D01*
X92260000Y-66550439D01*
X92260000Y-65979561D01*
X92041534Y-65452138D01*
X91637862Y-65048466D01*
X91110439Y-64830000D01*
X90539561Y-64830000D01*
X90012138Y-65048466D01*
X89693044Y-65367560D01*
X89689965Y-65367560D01*
X89582809Y-65207191D01*
X89372765Y-65066843D01*
X89125000Y-65017560D01*
X87525000Y-65017560D01*
X87277235Y-65066843D01*
X87067191Y-65207191D01*
X86926843Y-65417235D01*
X86925000Y-65426500D01*
X86923157Y-65417235D01*
X86782809Y-65207191D01*
X86572765Y-65066843D01*
X86325000Y-65017560D01*
X84725000Y-65017560D01*
X84477235Y-65066843D01*
X84370377Y-65138244D01*
X84282809Y-65007191D01*
X84072765Y-64866843D01*
X83825000Y-64817560D01*
X82225000Y-64817560D01*
X81977235Y-64866843D01*
X81767191Y-65007191D01*
X81626843Y-65217235D01*
X81577560Y-65465000D01*
X81577560Y-67065000D01*
X81626843Y-67312765D01*
X81767191Y-67522809D01*
X81977235Y-67663157D01*
X82225000Y-67712440D01*
X83825000Y-67712440D01*
X84072765Y-67663157D01*
X84282809Y-67522809D01*
X84370377Y-67391756D01*
X84477235Y-67463157D01*
X84725000Y-67512440D01*
X86325000Y-67512440D01*
X86572765Y-67463157D01*
X86782809Y-67322809D01*
X86923157Y-67112765D01*
X86925000Y-67103500D01*
X86926843Y-67112765D01*
X87067191Y-67322809D01*
X87277235Y-67463157D01*
X87525000Y-67512440D01*
X89125000Y-67512440D01*
X89372765Y-67463157D01*
X89582809Y-67322809D01*
X89689965Y-67162440D01*
X89693044Y-67162440D01*
X90012138Y-67481534D01*
X90065000Y-67503430D01*
X90065001Y-69365144D01*
X90065000Y-69365149D01*
X90065001Y-83425148D01*
X90050112Y-83500000D01*
X90109097Y-83796537D01*
X90208650Y-83945528D01*
X90277072Y-84047929D01*
X90340528Y-84090329D01*
X98399667Y-92149469D01*
X98415390Y-92173000D01*
X91275000Y-92173000D01*
X91226399Y-92182667D01*
X91185197Y-92210197D01*
X91157667Y-92251399D01*
X91148000Y-92300000D01*
X91148000Y-104290000D01*
X76456553Y-104290000D01*
X76546982Y-104199571D01*
X76735000Y-103745657D01*
X76735000Y-103254343D01*
X76546982Y-102800429D01*
X76199571Y-102453018D01*
X75745657Y-102265000D01*
X75254343Y-102265000D01*
X74847773Y-102433407D01*
X74859642Y-102373738D01*
X75047929Y-102247929D01*
X75090331Y-102184470D01*
X79984473Y-97290329D01*
X80047929Y-97247929D01*
X80107033Y-97159474D01*
X80215904Y-96996538D01*
X80225480Y-96948395D01*
X80260000Y-96774852D01*
X80260000Y-96774848D01*
X80274888Y-96700000D01*
X80260000Y-96625152D01*
X80260000Y-79264846D01*
X80274888Y-79189999D01*
X80260000Y-79115152D01*
X80260000Y-79115148D01*
X80215904Y-78893463D01*
X80047929Y-78642071D01*
X79984473Y-78599671D01*
X78533103Y-77148302D01*
X78555000Y-77095439D01*
X78555000Y-76779801D01*
X80990000Y-79214802D01*
X80990001Y-89050148D01*
X80975112Y-89125000D01*
X81034097Y-89421537D01*
X81149397Y-89594095D01*
X81202072Y-89672929D01*
X81265528Y-89715329D01*
X84165000Y-92614802D01*
X84165001Y-96360196D01*
X83632440Y-96892758D01*
X83632440Y-95915000D01*
X83583157Y-95667235D01*
X83442809Y-95457191D01*
X83282440Y-95350035D01*
X83282440Y-95246956D01*
X83601534Y-94927862D01*
X83820000Y-94400439D01*
X83820000Y-93829561D01*
X83601534Y-93302138D01*
X83197862Y-92898466D01*
X82670439Y-92680000D01*
X82099561Y-92680000D01*
X81572138Y-92898466D01*
X81168466Y-93302138D01*
X80950000Y-93829561D01*
X80950000Y-94400439D01*
X81168466Y-94927862D01*
X81487560Y-95246956D01*
X81487560Y-95350035D01*
X81327191Y-95457191D01*
X81186843Y-95667235D01*
X81137560Y-95915000D01*
X81137560Y-97415000D01*
X81186843Y-97662765D01*
X81327191Y-97872809D01*
X81537235Y-98013157D01*
X81546500Y-98015000D01*
X81537235Y-98016843D01*
X81327191Y-98157191D01*
X81186843Y-98367235D01*
X81137560Y-98615000D01*
X81137560Y-100115000D01*
X81186843Y-100362765D01*
X81327191Y-100572809D01*
X81487560Y-100679965D01*
X81487560Y-100783044D01*
X81168466Y-101102138D01*
X80950000Y-101629561D01*
X80950000Y-102200439D01*
X81168466Y-102727862D01*
X81572138Y-103131534D01*
X82099561Y-103350000D01*
X82670439Y-103350000D01*
X83197862Y-103131534D01*
X83601534Y-102727862D01*
X83820000Y-102200439D01*
X83820000Y-101629561D01*
X83601534Y-101102138D01*
X83282440Y-100783044D01*
X83282440Y-100679965D01*
X83442809Y-100572809D01*
X83583157Y-100362765D01*
X83632440Y-100115000D01*
X83632440Y-99042362D01*
X85409476Y-97265327D01*
X85472929Y-97222929D01*
X85515327Y-97159476D01*
X85515329Y-97159474D01*
X85624199Y-96996538D01*
X85640904Y-96971537D01*
X85685000Y-96749852D01*
X85685000Y-96749848D01*
X85699888Y-96675001D01*
X85685000Y-96600154D01*
X85685000Y-92374846D01*
X85699888Y-92299999D01*
X85685000Y-92225152D01*
X85685000Y-92225148D01*
X85640904Y-92003463D01*
X85472929Y-91752071D01*
X85409473Y-91709671D01*
X82510000Y-88810199D01*
X82510000Y-78974848D01*
X82524888Y-78900000D01*
X82510000Y-78825152D01*
X82510000Y-78825148D01*
X82465904Y-78603463D01*
X82465904Y-78603462D01*
X82340329Y-78415527D01*
X82297929Y-78352071D01*
X82234473Y-78309671D01*
X78533103Y-74608302D01*
X78555000Y-74555439D01*
X78555000Y-73984561D01*
X78336534Y-73457138D01*
X77932862Y-73053466D01*
X77803784Y-73000000D01*
X77932862Y-72946534D01*
X78336534Y-72542862D01*
X78555000Y-72015439D01*
X78555000Y-71444561D01*
X78336534Y-70917138D01*
X77932862Y-70513466D01*
X77803784Y-70460000D01*
X77932862Y-70406534D01*
X78336534Y-70002862D01*
X78555000Y-69475439D01*
X78555000Y-68904561D01*
X78336534Y-68377138D01*
X77932862Y-67973466D01*
X77803784Y-67920000D01*
X77932862Y-67866534D01*
X78336534Y-67462862D01*
X78555000Y-66935439D01*
X78555000Y-66364561D01*
X78336534Y-65837138D01*
X77932862Y-65433466D01*
X77803784Y-65380000D01*
X77932862Y-65326534D01*
X78336534Y-64922862D01*
X78555000Y-64395439D01*
X78555000Y-63824561D01*
X78336534Y-63297138D01*
X77932862Y-62893466D01*
X77803784Y-62840000D01*
X77932862Y-62786534D01*
X78336534Y-62382862D01*
X78555000Y-61855439D01*
X78555000Y-61284561D01*
X78336534Y-60757138D01*
X77932862Y-60353466D01*
X77819417Y-60306475D01*
X77874005Y-60283864D01*
X77948139Y-60037745D01*
X77120000Y-59209605D01*
X76291861Y-60037745D01*
X76365995Y-60283864D01*
X76424448Y-60304874D01*
X76307138Y-60353466D01*
X75903466Y-60757138D01*
X75685000Y-61284561D01*
X75685000Y-61855439D01*
X75903466Y-62382862D01*
X76307138Y-62786534D01*
X76436216Y-62840000D01*
X76307138Y-62893466D01*
X75903466Y-63297138D01*
X75850000Y-63426216D01*
X75796534Y-63297138D01*
X75392862Y-62893466D01*
X74865439Y-62675000D01*
X74294561Y-62675000D01*
X73767138Y-62893466D01*
X73363466Y-63297138D01*
X73145000Y-63824561D01*
X73145000Y-64395439D01*
X73363466Y-64922862D01*
X73767138Y-65326534D01*
X73896216Y-65380000D01*
X73767138Y-65433466D01*
X73363466Y-65837138D01*
X73145000Y-66364561D01*
X73145000Y-66935439D01*
X73363466Y-67462862D01*
X73767138Y-67866534D01*
X73896216Y-67920000D01*
X73767138Y-67973466D01*
X73363466Y-68377138D01*
X73145000Y-68904561D01*
X73145000Y-69475439D01*
X73363466Y-70002862D01*
X73767138Y-70406534D01*
X74294561Y-70625000D01*
X74865439Y-70625000D01*
X75392862Y-70406534D01*
X75796534Y-70002862D01*
X75850000Y-69873784D01*
X75903466Y-70002862D01*
X76307138Y-70406534D01*
X76436216Y-70460000D01*
X76307138Y-70513466D01*
X75903466Y-70917138D01*
X75685000Y-71444561D01*
X75685000Y-72015439D01*
X75903466Y-72542862D01*
X76307138Y-72946534D01*
X76436216Y-73000000D01*
X76307138Y-73053466D01*
X75903466Y-73457138D01*
X75685000Y-73984561D01*
X75685000Y-74555439D01*
X75903466Y-75082862D01*
X76307138Y-75486534D01*
X76436216Y-75540000D01*
X76307138Y-75593466D01*
X75903466Y-75997138D01*
X75685000Y-76524561D01*
X75685000Y-77095439D01*
X75903466Y-77622862D01*
X76307138Y-78026534D01*
X76436216Y-78080000D01*
X76307138Y-78133466D01*
X75903466Y-78537138D01*
X75685000Y-79064561D01*
X75685000Y-79635439D01*
X75903466Y-80162862D01*
X76307138Y-80566534D01*
X76436216Y-80620000D01*
X76307138Y-80673466D01*
X75903466Y-81077138D01*
X75685000Y-81604561D01*
X75685000Y-82175439D01*
X75903466Y-82702862D01*
X76307138Y-83106534D01*
X76436216Y-83160000D01*
X76307138Y-83213466D01*
X75903466Y-83617138D01*
X75685000Y-84144561D01*
X75685000Y-84715439D01*
X75903466Y-85242862D01*
X76307138Y-85646534D01*
X76436216Y-85700000D01*
X76307138Y-85753466D01*
X75903466Y-86157138D01*
X75685000Y-86684561D01*
X75685000Y-87255439D01*
X75903466Y-87782862D01*
X76307138Y-88186534D01*
X76436216Y-88240000D01*
X76307138Y-88293466D01*
X75903466Y-88697138D01*
X75850000Y-88826216D01*
X75796534Y-88697138D01*
X75392862Y-88293466D01*
X74865439Y-88075000D01*
X74294561Y-88075000D01*
X73767138Y-88293466D01*
X73363466Y-88697138D01*
X73310000Y-88826216D01*
X73256534Y-88697138D01*
X72852862Y-88293466D01*
X72723784Y-88240000D01*
X72852862Y-88186534D01*
X73256534Y-87782862D01*
X73475000Y-87255439D01*
X73475000Y-86684561D01*
X73256534Y-86157138D01*
X72852862Y-85753466D01*
X72723784Y-85700000D01*
X72852862Y-85646534D01*
X73256534Y-85242862D01*
X73475000Y-84715439D01*
X73475000Y-84144561D01*
X73256534Y-83617138D01*
X72852862Y-83213466D01*
X72723784Y-83160000D01*
X72852862Y-83106534D01*
X73256534Y-82702862D01*
X73475000Y-82175439D01*
X73475000Y-81604561D01*
X73256534Y-81077138D01*
X72852862Y-80673466D01*
X72723784Y-80620000D01*
X72852862Y-80566534D01*
X73256534Y-80162862D01*
X73475000Y-79635439D01*
X73475000Y-79064561D01*
X73256534Y-78537138D01*
X72852862Y-78133466D01*
X72723784Y-78080000D01*
X72852862Y-78026534D01*
X73256534Y-77622862D01*
X73475000Y-77095439D01*
X73475000Y-76524561D01*
X73256534Y-75997138D01*
X72852862Y-75593466D01*
X72723784Y-75540000D01*
X72852862Y-75486534D01*
X73256534Y-75082862D01*
X73475000Y-74555439D01*
X73475000Y-73984561D01*
X73256534Y-73457138D01*
X72852862Y-73053466D01*
X72723784Y-73000000D01*
X72852862Y-72946534D01*
X73256534Y-72542862D01*
X73475000Y-72015439D01*
X73475000Y-71444561D01*
X73256534Y-70917138D01*
X72852862Y-70513466D01*
X72325439Y-70295000D01*
X71754561Y-70295000D01*
X71227138Y-70513466D01*
X70823466Y-70917138D01*
X70770000Y-71046216D01*
X70716534Y-70917138D01*
X70312862Y-70513466D01*
X69785439Y-70295000D01*
X69214561Y-70295000D01*
X68687138Y-70513466D01*
X68283466Y-70917138D01*
X68065000Y-71444561D01*
X68065000Y-72015439D01*
X68283466Y-72542862D01*
X68687138Y-72946534D01*
X68816216Y-73000000D01*
X68687138Y-73053466D01*
X68283466Y-73457138D01*
X68065000Y-73984561D01*
X68065000Y-74555439D01*
X68283466Y-75082862D01*
X68687138Y-75486534D01*
X68816216Y-75540000D01*
X68687138Y-75593466D01*
X68283466Y-75997138D01*
X68065000Y-76524561D01*
X68065000Y-77095439D01*
X68283466Y-77622862D01*
X68687138Y-78026534D01*
X68816216Y-78080000D01*
X68687138Y-78133466D01*
X68283466Y-78537138D01*
X68065000Y-79064561D01*
X68065000Y-79635439D01*
X68283466Y-80162862D01*
X68687138Y-80566534D01*
X68816216Y-80620000D01*
X68687138Y-80673466D01*
X68283466Y-81077138D01*
X68065000Y-81604561D01*
X68065000Y-82175439D01*
X68283466Y-82702862D01*
X68687138Y-83106534D01*
X68816216Y-83160000D01*
X68687138Y-83213466D01*
X68283466Y-83617138D01*
X68065000Y-84144561D01*
X68065000Y-84715439D01*
X68283466Y-85242862D01*
X68687138Y-85646534D01*
X68816216Y-85700000D01*
X68687138Y-85753466D01*
X68283466Y-86157138D01*
X68065000Y-86684561D01*
X68065000Y-87255439D01*
X68283466Y-87782862D01*
X68687138Y-88186534D01*
X68800583Y-88233525D01*
X68745995Y-88256136D01*
X68671861Y-88502255D01*
X69500000Y-89330395D01*
X70328139Y-88502255D01*
X70254005Y-88256136D01*
X70195552Y-88235126D01*
X70312862Y-88186534D01*
X70716534Y-87782862D01*
X70770000Y-87653784D01*
X70823466Y-87782862D01*
X71227138Y-88186534D01*
X71356216Y-88240000D01*
X71227138Y-88293466D01*
X70823466Y-88697138D01*
X70776475Y-88810583D01*
X70753864Y-88755995D01*
X70507745Y-88681861D01*
X69679605Y-89510000D01*
X69693748Y-89524142D01*
X69514142Y-89703748D01*
X69500000Y-89689605D01*
X69485858Y-89703748D01*
X69306252Y-89524142D01*
X69320395Y-89510000D01*
X68492255Y-88681861D01*
X68246136Y-88755995D01*
X68225126Y-88814448D01*
X68176534Y-88697138D01*
X67772862Y-88293466D01*
X67245439Y-88075000D01*
X66674561Y-88075000D01*
X66147138Y-88293466D01*
X65743466Y-88697138D01*
X65690000Y-88826216D01*
X65636534Y-88697138D01*
X65232862Y-88293466D01*
X64705439Y-88075000D01*
X64134561Y-88075000D01*
X63607138Y-88293466D01*
X63203466Y-88697138D01*
X63150000Y-88826216D01*
X63096534Y-88697138D01*
X62692862Y-88293466D01*
X62563784Y-88240000D01*
X62692862Y-88186534D01*
X63096534Y-87782862D01*
X63315000Y-87255439D01*
X63315000Y-86684561D01*
X63096534Y-86157138D01*
X62692862Y-85753466D01*
X62563784Y-85700000D01*
X62692862Y-85646534D01*
X63096534Y-85242862D01*
X63315000Y-84715439D01*
X63315000Y-84144561D01*
X63096534Y-83617138D01*
X62692862Y-83213466D01*
X62563784Y-83160000D01*
X62692862Y-83106534D01*
X63096534Y-82702862D01*
X63315000Y-82175439D01*
X63315000Y-81604561D01*
X63096534Y-81077138D01*
X62692862Y-80673466D01*
X62563784Y-80620000D01*
X62692862Y-80566534D01*
X63096534Y-80162862D01*
X63315000Y-79635439D01*
X63315000Y-79064561D01*
X63096534Y-78537138D01*
X62692862Y-78133466D01*
X62563784Y-78080000D01*
X62692862Y-78026534D01*
X63096534Y-77622862D01*
X63315000Y-77095439D01*
X63315000Y-76524561D01*
X63096534Y-75997138D01*
X62692862Y-75593466D01*
X62563784Y-75540000D01*
X62692862Y-75486534D01*
X63096534Y-75082862D01*
X63315000Y-74555439D01*
X63315000Y-73984561D01*
X63096534Y-73457138D01*
X62692862Y-73053466D01*
X62563784Y-73000000D01*
X62692862Y-72946534D01*
X63096534Y-72542862D01*
X63315000Y-72015439D01*
X63315000Y-71444561D01*
X63096534Y-70917138D01*
X62692862Y-70513466D01*
X62563784Y-70460000D01*
X62692862Y-70406534D01*
X63096534Y-70002862D01*
X63315000Y-69475439D01*
X63315000Y-68904561D01*
X63096534Y-68377138D01*
X62692862Y-67973466D01*
X62563784Y-67920000D01*
X62692862Y-67866534D01*
X63096534Y-67462862D01*
X63315000Y-66935439D01*
X63315000Y-66364561D01*
X63302642Y-66334724D01*
X67915000Y-66334724D01*
X67915000Y-66965276D01*
X68156302Y-67547830D01*
X68602170Y-67993698D01*
X69184724Y-68235000D01*
X69815276Y-68235000D01*
X70397830Y-67993698D01*
X70843698Y-67547830D01*
X71085000Y-66965276D01*
X71085000Y-66334724D01*
X70843698Y-65752170D01*
X70397830Y-65306302D01*
X69815276Y-65065000D01*
X69184724Y-65065000D01*
X68602170Y-65306302D01*
X68156302Y-65752170D01*
X67915000Y-66334724D01*
X63302642Y-66334724D01*
X63096534Y-65837138D01*
X62692862Y-65433466D01*
X62563784Y-65380000D01*
X62692862Y-65326534D01*
X63096534Y-64922862D01*
X63315000Y-64395439D01*
X63315000Y-63824561D01*
X63096534Y-63297138D01*
X62692862Y-62893466D01*
X62563784Y-62840000D01*
X62692862Y-62786534D01*
X62954672Y-62524724D01*
X67915000Y-62524724D01*
X67915000Y-63155276D01*
X68156302Y-63737830D01*
X68602170Y-64183698D01*
X69184724Y-64425000D01*
X69815276Y-64425000D01*
X70397830Y-64183698D01*
X70843698Y-63737830D01*
X71085000Y-63155276D01*
X71085000Y-62524724D01*
X70843698Y-61942170D01*
X70397830Y-61496302D01*
X69815276Y-61255000D01*
X69184724Y-61255000D01*
X68602170Y-61496302D01*
X68156302Y-61942170D01*
X67915000Y-62524724D01*
X62954672Y-62524724D01*
X63096534Y-62382862D01*
X63315000Y-61855439D01*
X63315000Y-61284561D01*
X63096534Y-60757138D01*
X62692862Y-60353466D01*
X62563784Y-60300000D01*
X62692862Y-60246534D01*
X63096534Y-59842862D01*
X63315000Y-59315439D01*
X63315000Y-58744561D01*
X73145000Y-58744561D01*
X73145000Y-59315439D01*
X73363466Y-59842862D01*
X73767138Y-60246534D01*
X74294561Y-60465000D01*
X74865439Y-60465000D01*
X75392862Y-60246534D01*
X75796534Y-59842862D01*
X75843525Y-59729417D01*
X75866136Y-59784005D01*
X76112255Y-59858139D01*
X76940395Y-59030000D01*
X77299605Y-59030000D01*
X78127745Y-59858139D01*
X78373864Y-59784005D01*
X78566965Y-59246777D01*
X78539778Y-58676546D01*
X78373864Y-58275995D01*
X78127745Y-58201861D01*
X77299605Y-59030000D01*
X76940395Y-59030000D01*
X76112255Y-58201861D01*
X75866136Y-58275995D01*
X75845126Y-58334448D01*
X75796534Y-58217138D01*
X75392862Y-57813466D01*
X74865439Y-57595000D01*
X74294561Y-57595000D01*
X73767138Y-57813466D01*
X73363466Y-58217138D01*
X73145000Y-58744561D01*
X63315000Y-58744561D01*
X63096534Y-58217138D01*
X62804396Y-57925000D01*
X62806310Y-57925000D01*
X63039699Y-57828327D01*
X63218327Y-57649698D01*
X63315000Y-57416309D01*
X63315000Y-56775750D01*
X63156250Y-56617000D01*
X62007000Y-56617000D01*
X62007000Y-56637000D01*
X61753000Y-56637000D01*
X61753000Y-56617000D01*
X60603750Y-56617000D01*
X60445000Y-56775750D01*
X60445000Y-57416309D01*
X60541673Y-57649698D01*
X60720301Y-57828327D01*
X60953690Y-57925000D01*
X60955604Y-57925000D01*
X60663466Y-58217138D01*
X60445000Y-58744561D01*
X60445000Y-59315439D01*
X60663466Y-59842862D01*
X61067138Y-60246534D01*
X61196216Y-60300000D01*
X61067138Y-60353466D01*
X60663466Y-60757138D01*
X60445000Y-61284561D01*
X60445000Y-61600199D01*
X60380000Y-61535199D01*
X60380000Y-55563691D01*
X60445000Y-55563691D01*
X60445000Y-56204250D01*
X60603750Y-56363000D01*
X61753000Y-56363000D01*
X61753000Y-55213750D01*
X62007000Y-55213750D01*
X62007000Y-56363000D01*
X63156250Y-56363000D01*
X63314689Y-56204561D01*
X75685000Y-56204561D01*
X75685000Y-56775439D01*
X75903466Y-57302862D01*
X76307138Y-57706534D01*
X76420583Y-57753525D01*
X76365995Y-57776136D01*
X76291861Y-58022255D01*
X77120000Y-58850395D01*
X77948139Y-58022255D01*
X77874005Y-57776136D01*
X77815552Y-57755126D01*
X77932862Y-57706534D01*
X78336534Y-57302862D01*
X78555000Y-56775439D01*
X78555000Y-56204561D01*
X78336534Y-55677138D01*
X77932862Y-55273466D01*
X77405439Y-55055000D01*
X76834561Y-55055000D01*
X76307138Y-55273466D01*
X75903466Y-55677138D01*
X75685000Y-56204561D01*
X63314689Y-56204561D01*
X63315000Y-56204250D01*
X63315000Y-55563691D01*
X63218327Y-55330302D01*
X63039699Y-55151673D01*
X62806310Y-55055000D01*
X62165750Y-55055000D01*
X62007000Y-55213750D01*
X61753000Y-55213750D01*
X61594250Y-55055000D01*
X60953690Y-55055000D01*
X60720301Y-55151673D01*
X60541673Y-55330302D01*
X60445000Y-55563691D01*
X60380000Y-55563691D01*
X60380000Y-55054802D01*
X60474802Y-54960000D01*
X78355199Y-54960000D01*
X79815000Y-56419802D01*
X79815000Y-56419802D01*
G37*
X79815000Y-56419802D02*
X79815000Y-56665149D01*
X79815001Y-60365148D01*
X79800112Y-60440000D01*
X79815001Y-60514852D01*
X79859097Y-60736537D01*
X80027072Y-60987929D01*
X80090528Y-61030329D01*
X81577560Y-62517362D01*
X81577560Y-63255000D01*
X81626843Y-63502765D01*
X81767191Y-63712809D01*
X81977235Y-63853157D01*
X82225000Y-63902440D01*
X83825000Y-63902440D01*
X84072765Y-63853157D01*
X84282809Y-63712809D01*
X84370377Y-63581756D01*
X84477235Y-63653157D01*
X84725000Y-63702440D01*
X86325000Y-63702440D01*
X86572765Y-63653157D01*
X86782809Y-63512809D01*
X86923157Y-63302765D01*
X86925000Y-63293500D01*
X86926843Y-63302765D01*
X87067191Y-63512809D01*
X87277235Y-63653157D01*
X87525000Y-63702440D01*
X89125000Y-63702440D01*
X89372765Y-63653157D01*
X89582809Y-63512809D01*
X89689965Y-63352440D01*
X89693044Y-63352440D01*
X90012138Y-63671534D01*
X90539561Y-63890000D01*
X91000199Y-63890000D01*
X93055000Y-65944803D01*
X93055001Y-83875148D01*
X93040112Y-83950000D01*
X93055001Y-84024852D01*
X93099097Y-84246537D01*
X93267072Y-84497929D01*
X93330528Y-84540329D01*
X97724671Y-88934473D01*
X97767071Y-88997929D01*
X98018463Y-89165904D01*
X98240148Y-89210000D01*
X98240152Y-89210000D01*
X98314999Y-89224888D01*
X98389846Y-89210000D01*
X101602560Y-89210000D01*
X101602560Y-89450000D01*
X101651843Y-89697765D01*
X101792191Y-89907809D01*
X102002235Y-90048157D01*
X102250000Y-90097440D01*
X102588382Y-90097440D01*
X102602072Y-90117929D01*
X102665528Y-90160329D01*
X103410194Y-90904996D01*
X99304798Y-90904996D01*
X91585000Y-83185199D01*
X91585000Y-67503430D01*
X91637862Y-67481534D01*
X92041534Y-67077862D01*
X92260000Y-66550439D01*
X92260000Y-65979561D01*
X92041534Y-65452138D01*
X91637862Y-65048466D01*
X91110439Y-64830000D01*
X90539561Y-64830000D01*
X90012138Y-65048466D01*
X89693044Y-65367560D01*
X89689965Y-65367560D01*
X89582809Y-65207191D01*
X89372765Y-65066843D01*
X89125000Y-65017560D01*
X87525000Y-65017560D01*
X87277235Y-65066843D01*
X87067191Y-65207191D01*
X86926843Y-65417235D01*
X86925000Y-65426500D01*
X86923157Y-65417235D01*
X86782809Y-65207191D01*
X86572765Y-65066843D01*
X86325000Y-65017560D01*
X84725000Y-65017560D01*
X84477235Y-65066843D01*
X84370377Y-65138244D01*
X84282809Y-65007191D01*
X84072765Y-64866843D01*
X83825000Y-64817560D01*
X82225000Y-64817560D01*
X81977235Y-64866843D01*
X81767191Y-65007191D01*
X81626843Y-65217235D01*
X81577560Y-65465000D01*
X81577560Y-67065000D01*
X81626843Y-67312765D01*
X81767191Y-67522809D01*
X81977235Y-67663157D01*
X82225000Y-67712440D01*
X83825000Y-67712440D01*
X84072765Y-67663157D01*
X84282809Y-67522809D01*
X84370377Y-67391756D01*
X84477235Y-67463157D01*
X84725000Y-67512440D01*
X86325000Y-67512440D01*
X86572765Y-67463157D01*
X86782809Y-67322809D01*
X86923157Y-67112765D01*
X86925000Y-67103500D01*
X86926843Y-67112765D01*
X87067191Y-67322809D01*
X87277235Y-67463157D01*
X87525000Y-67512440D01*
X89125000Y-67512440D01*
X89372765Y-67463157D01*
X89582809Y-67322809D01*
X89689965Y-67162440D01*
X89693044Y-67162440D01*
X90012138Y-67481534D01*
X90065000Y-67503430D01*
X90065001Y-69365144D01*
X90065000Y-69365149D01*
X90065001Y-83425148D01*
X90050112Y-83500000D01*
X90109097Y-83796537D01*
X90208650Y-83945528D01*
X90277072Y-84047929D01*
X90340528Y-84090329D01*
X98399667Y-92149469D01*
X98415390Y-92173000D01*
X91275000Y-92173000D01*
X91226399Y-92182667D01*
X91185197Y-92210197D01*
X91157667Y-92251399D01*
X91148000Y-92300000D01*
X91148000Y-104290000D01*
X76456553Y-104290000D01*
X76546982Y-104199571D01*
X76735000Y-103745657D01*
X76735000Y-103254343D01*
X76546982Y-102800429D01*
X76199571Y-102453018D01*
X75745657Y-102265000D01*
X75254343Y-102265000D01*
X74847773Y-102433407D01*
X74859642Y-102373738D01*
X75047929Y-102247929D01*
X75090331Y-102184470D01*
X79984473Y-97290329D01*
X80047929Y-97247929D01*
X80107033Y-97159474D01*
X80215904Y-96996538D01*
X80225480Y-96948395D01*
X80260000Y-96774852D01*
X80260000Y-96774848D01*
X80274888Y-96700000D01*
X80260000Y-96625152D01*
X80260000Y-79264846D01*
X80274888Y-79189999D01*
X80260000Y-79115152D01*
X80260000Y-79115148D01*
X80215904Y-78893463D01*
X80047929Y-78642071D01*
X79984473Y-78599671D01*
X78533103Y-77148302D01*
X78555000Y-77095439D01*
X78555000Y-76779801D01*
X80990000Y-79214802D01*
X80990001Y-89050148D01*
X80975112Y-89125000D01*
X81034097Y-89421537D01*
X81149397Y-89594095D01*
X81202072Y-89672929D01*
X81265528Y-89715329D01*
X84165000Y-92614802D01*
X84165001Y-96360196D01*
X83632440Y-96892758D01*
X83632440Y-95915000D01*
X83583157Y-95667235D01*
X83442809Y-95457191D01*
X83282440Y-95350035D01*
X83282440Y-95246956D01*
X83601534Y-94927862D01*
X83820000Y-94400439D01*
X83820000Y-93829561D01*
X83601534Y-93302138D01*
X83197862Y-92898466D01*
X82670439Y-92680000D01*
X82099561Y-92680000D01*
X81572138Y-92898466D01*
X81168466Y-93302138D01*
X80950000Y-93829561D01*
X80950000Y-94400439D01*
X81168466Y-94927862D01*
X81487560Y-95246956D01*
X81487560Y-95350035D01*
X81327191Y-95457191D01*
X81186843Y-95667235D01*
X81137560Y-95915000D01*
X81137560Y-97415000D01*
X81186843Y-97662765D01*
X81327191Y-97872809D01*
X81537235Y-98013157D01*
X81546500Y-98015000D01*
X81537235Y-98016843D01*
X81327191Y-98157191D01*
X81186843Y-98367235D01*
X81137560Y-98615000D01*
X81137560Y-100115000D01*
X81186843Y-100362765D01*
X81327191Y-100572809D01*
X81487560Y-100679965D01*
X81487560Y-100783044D01*
X81168466Y-101102138D01*
X80950000Y-101629561D01*
X80950000Y-102200439D01*
X81168466Y-102727862D01*
X81572138Y-103131534D01*
X82099561Y-103350000D01*
X82670439Y-103350000D01*
X83197862Y-103131534D01*
X83601534Y-102727862D01*
X83820000Y-102200439D01*
X83820000Y-101629561D01*
X83601534Y-101102138D01*
X83282440Y-100783044D01*
X83282440Y-100679965D01*
X83442809Y-100572809D01*
X83583157Y-100362765D01*
X83632440Y-100115000D01*
X83632440Y-99042362D01*
X85409476Y-97265327D01*
X85472929Y-97222929D01*
X85515327Y-97159476D01*
X85515329Y-97159474D01*
X85624199Y-96996538D01*
X85640904Y-96971537D01*
X85685000Y-96749852D01*
X85685000Y-96749848D01*
X85699888Y-96675001D01*
X85685000Y-96600154D01*
X85685000Y-92374846D01*
X85699888Y-92299999D01*
X85685000Y-92225152D01*
X85685000Y-92225148D01*
X85640904Y-92003463D01*
X85472929Y-91752071D01*
X85409473Y-91709671D01*
X82510000Y-88810199D01*
X82510000Y-78974848D01*
X82524888Y-78900000D01*
X82510000Y-78825152D01*
X82510000Y-78825148D01*
X82465904Y-78603463D01*
X82465904Y-78603462D01*
X82340329Y-78415527D01*
X82297929Y-78352071D01*
X82234473Y-78309671D01*
X78533103Y-74608302D01*
X78555000Y-74555439D01*
X78555000Y-73984561D01*
X78336534Y-73457138D01*
X77932862Y-73053466D01*
X77803784Y-73000000D01*
X77932862Y-72946534D01*
X78336534Y-72542862D01*
X78555000Y-72015439D01*
X78555000Y-71444561D01*
X78336534Y-70917138D01*
X77932862Y-70513466D01*
X77803784Y-70460000D01*
X77932862Y-70406534D01*
X78336534Y-70002862D01*
X78555000Y-69475439D01*
X78555000Y-68904561D01*
X78336534Y-68377138D01*
X77932862Y-67973466D01*
X77803784Y-67920000D01*
X77932862Y-67866534D01*
X78336534Y-67462862D01*
X78555000Y-66935439D01*
X78555000Y-66364561D01*
X78336534Y-65837138D01*
X77932862Y-65433466D01*
X77803784Y-65380000D01*
X77932862Y-65326534D01*
X78336534Y-64922862D01*
X78555000Y-64395439D01*
X78555000Y-63824561D01*
X78336534Y-63297138D01*
X77932862Y-62893466D01*
X77803784Y-62840000D01*
X77932862Y-62786534D01*
X78336534Y-62382862D01*
X78555000Y-61855439D01*
X78555000Y-61284561D01*
X78336534Y-60757138D01*
X77932862Y-60353466D01*
X77819417Y-60306475D01*
X77874005Y-60283864D01*
X77948139Y-60037745D01*
X77120000Y-59209605D01*
X76291861Y-60037745D01*
X76365995Y-60283864D01*
X76424448Y-60304874D01*
X76307138Y-60353466D01*
X75903466Y-60757138D01*
X75685000Y-61284561D01*
X75685000Y-61855439D01*
X75903466Y-62382862D01*
X76307138Y-62786534D01*
X76436216Y-62840000D01*
X76307138Y-62893466D01*
X75903466Y-63297138D01*
X75850000Y-63426216D01*
X75796534Y-63297138D01*
X75392862Y-62893466D01*
X74865439Y-62675000D01*
X74294561Y-62675000D01*
X73767138Y-62893466D01*
X73363466Y-63297138D01*
X73145000Y-63824561D01*
X73145000Y-64395439D01*
X73363466Y-64922862D01*
X73767138Y-65326534D01*
X73896216Y-65380000D01*
X73767138Y-65433466D01*
X73363466Y-65837138D01*
X73145000Y-66364561D01*
X73145000Y-66935439D01*
X73363466Y-67462862D01*
X73767138Y-67866534D01*
X73896216Y-67920000D01*
X73767138Y-67973466D01*
X73363466Y-68377138D01*
X73145000Y-68904561D01*
X73145000Y-69475439D01*
X73363466Y-70002862D01*
X73767138Y-70406534D01*
X74294561Y-70625000D01*
X74865439Y-70625000D01*
X75392862Y-70406534D01*
X75796534Y-70002862D01*
X75850000Y-69873784D01*
X75903466Y-70002862D01*
X76307138Y-70406534D01*
X76436216Y-70460000D01*
X76307138Y-70513466D01*
X75903466Y-70917138D01*
X75685000Y-71444561D01*
X75685000Y-72015439D01*
X75903466Y-72542862D01*
X76307138Y-72946534D01*
X76436216Y-73000000D01*
X76307138Y-73053466D01*
X75903466Y-73457138D01*
X75685000Y-73984561D01*
X75685000Y-74555439D01*
X75903466Y-75082862D01*
X76307138Y-75486534D01*
X76436216Y-75540000D01*
X76307138Y-75593466D01*
X75903466Y-75997138D01*
X75685000Y-76524561D01*
X75685000Y-77095439D01*
X75903466Y-77622862D01*
X76307138Y-78026534D01*
X76436216Y-78080000D01*
X76307138Y-78133466D01*
X75903466Y-78537138D01*
X75685000Y-79064561D01*
X75685000Y-79635439D01*
X75903466Y-80162862D01*
X76307138Y-80566534D01*
X76436216Y-80620000D01*
X76307138Y-80673466D01*
X75903466Y-81077138D01*
X75685000Y-81604561D01*
X75685000Y-82175439D01*
X75903466Y-82702862D01*
X76307138Y-83106534D01*
X76436216Y-83160000D01*
X76307138Y-83213466D01*
X75903466Y-83617138D01*
X75685000Y-84144561D01*
X75685000Y-84715439D01*
X75903466Y-85242862D01*
X76307138Y-85646534D01*
X76436216Y-85700000D01*
X76307138Y-85753466D01*
X75903466Y-86157138D01*
X75685000Y-86684561D01*
X75685000Y-87255439D01*
X75903466Y-87782862D01*
X76307138Y-88186534D01*
X76436216Y-88240000D01*
X76307138Y-88293466D01*
X75903466Y-88697138D01*
X75850000Y-88826216D01*
X75796534Y-88697138D01*
X75392862Y-88293466D01*
X74865439Y-88075000D01*
X74294561Y-88075000D01*
X73767138Y-88293466D01*
X73363466Y-88697138D01*
X73310000Y-88826216D01*
X73256534Y-88697138D01*
X72852862Y-88293466D01*
X72723784Y-88240000D01*
X72852862Y-88186534D01*
X73256534Y-87782862D01*
X73475000Y-87255439D01*
X73475000Y-86684561D01*
X73256534Y-86157138D01*
X72852862Y-85753466D01*
X72723784Y-85700000D01*
X72852862Y-85646534D01*
X73256534Y-85242862D01*
X73475000Y-84715439D01*
X73475000Y-84144561D01*
X73256534Y-83617138D01*
X72852862Y-83213466D01*
X72723784Y-83160000D01*
X72852862Y-83106534D01*
X73256534Y-82702862D01*
X73475000Y-82175439D01*
X73475000Y-81604561D01*
X73256534Y-81077138D01*
X72852862Y-80673466D01*
X72723784Y-80620000D01*
X72852862Y-80566534D01*
X73256534Y-80162862D01*
X73475000Y-79635439D01*
X73475000Y-79064561D01*
X73256534Y-78537138D01*
X72852862Y-78133466D01*
X72723784Y-78080000D01*
X72852862Y-78026534D01*
X73256534Y-77622862D01*
X73475000Y-77095439D01*
X73475000Y-76524561D01*
X73256534Y-75997138D01*
X72852862Y-75593466D01*
X72723784Y-75540000D01*
X72852862Y-75486534D01*
X73256534Y-75082862D01*
X73475000Y-74555439D01*
X73475000Y-73984561D01*
X73256534Y-73457138D01*
X72852862Y-73053466D01*
X72723784Y-73000000D01*
X72852862Y-72946534D01*
X73256534Y-72542862D01*
X73475000Y-72015439D01*
X73475000Y-71444561D01*
X73256534Y-70917138D01*
X72852862Y-70513466D01*
X72325439Y-70295000D01*
X71754561Y-70295000D01*
X71227138Y-70513466D01*
X70823466Y-70917138D01*
X70770000Y-71046216D01*
X70716534Y-70917138D01*
X70312862Y-70513466D01*
X69785439Y-70295000D01*
X69214561Y-70295000D01*
X68687138Y-70513466D01*
X68283466Y-70917138D01*
X68065000Y-71444561D01*
X68065000Y-72015439D01*
X68283466Y-72542862D01*
X68687138Y-72946534D01*
X68816216Y-73000000D01*
X68687138Y-73053466D01*
X68283466Y-73457138D01*
X68065000Y-73984561D01*
X68065000Y-74555439D01*
X68283466Y-75082862D01*
X68687138Y-75486534D01*
X68816216Y-75540000D01*
X68687138Y-75593466D01*
X68283466Y-75997138D01*
X68065000Y-76524561D01*
X68065000Y-77095439D01*
X68283466Y-77622862D01*
X68687138Y-78026534D01*
X68816216Y-78080000D01*
X68687138Y-78133466D01*
X68283466Y-78537138D01*
X68065000Y-79064561D01*
X68065000Y-79635439D01*
X68283466Y-80162862D01*
X68687138Y-80566534D01*
X68816216Y-80620000D01*
X68687138Y-80673466D01*
X68283466Y-81077138D01*
X68065000Y-81604561D01*
X68065000Y-82175439D01*
X68283466Y-82702862D01*
X68687138Y-83106534D01*
X68816216Y-83160000D01*
X68687138Y-83213466D01*
X68283466Y-83617138D01*
X68065000Y-84144561D01*
X68065000Y-84715439D01*
X68283466Y-85242862D01*
X68687138Y-85646534D01*
X68816216Y-85700000D01*
X68687138Y-85753466D01*
X68283466Y-86157138D01*
X68065000Y-86684561D01*
X68065000Y-87255439D01*
X68283466Y-87782862D01*
X68687138Y-88186534D01*
X68800583Y-88233525D01*
X68745995Y-88256136D01*
X68671861Y-88502255D01*
X69500000Y-89330395D01*
X70328139Y-88502255D01*
X70254005Y-88256136D01*
X70195552Y-88235126D01*
X70312862Y-88186534D01*
X70716534Y-87782862D01*
X70770000Y-87653784D01*
X70823466Y-87782862D01*
X71227138Y-88186534D01*
X71356216Y-88240000D01*
X71227138Y-88293466D01*
X70823466Y-88697138D01*
X70776475Y-88810583D01*
X70753864Y-88755995D01*
X70507745Y-88681861D01*
X69679605Y-89510000D01*
X69693748Y-89524142D01*
X69514142Y-89703748D01*
X69500000Y-89689605D01*
X69485858Y-89703748D01*
X69306252Y-89524142D01*
X69320395Y-89510000D01*
X68492255Y-88681861D01*
X68246136Y-88755995D01*
X68225126Y-88814448D01*
X68176534Y-88697138D01*
X67772862Y-88293466D01*
X67245439Y-88075000D01*
X66674561Y-88075000D01*
X66147138Y-88293466D01*
X65743466Y-88697138D01*
X65690000Y-88826216D01*
X65636534Y-88697138D01*
X65232862Y-88293466D01*
X64705439Y-88075000D01*
X64134561Y-88075000D01*
X63607138Y-88293466D01*
X63203466Y-88697138D01*
X63150000Y-88826216D01*
X63096534Y-88697138D01*
X62692862Y-88293466D01*
X62563784Y-88240000D01*
X62692862Y-88186534D01*
X63096534Y-87782862D01*
X63315000Y-87255439D01*
X63315000Y-86684561D01*
X63096534Y-86157138D01*
X62692862Y-85753466D01*
X62563784Y-85700000D01*
X62692862Y-85646534D01*
X63096534Y-85242862D01*
X63315000Y-84715439D01*
X63315000Y-84144561D01*
X63096534Y-83617138D01*
X62692862Y-83213466D01*
X62563784Y-83160000D01*
X62692862Y-83106534D01*
X63096534Y-82702862D01*
X63315000Y-82175439D01*
X63315000Y-81604561D01*
X63096534Y-81077138D01*
X62692862Y-80673466D01*
X62563784Y-80620000D01*
X62692862Y-80566534D01*
X63096534Y-80162862D01*
X63315000Y-79635439D01*
X63315000Y-79064561D01*
X63096534Y-78537138D01*
X62692862Y-78133466D01*
X62563784Y-78080000D01*
X62692862Y-78026534D01*
X63096534Y-77622862D01*
X63315000Y-77095439D01*
X63315000Y-76524561D01*
X63096534Y-75997138D01*
X62692862Y-75593466D01*
X62563784Y-75540000D01*
X62692862Y-75486534D01*
X63096534Y-75082862D01*
X63315000Y-74555439D01*
X63315000Y-73984561D01*
X63096534Y-73457138D01*
X62692862Y-73053466D01*
X62563784Y-73000000D01*
X62692862Y-72946534D01*
X63096534Y-72542862D01*
X63315000Y-72015439D01*
X63315000Y-71444561D01*
X63096534Y-70917138D01*
X62692862Y-70513466D01*
X62563784Y-70460000D01*
X62692862Y-70406534D01*
X63096534Y-70002862D01*
X63315000Y-69475439D01*
X63315000Y-68904561D01*
X63096534Y-68377138D01*
X62692862Y-67973466D01*
X62563784Y-67920000D01*
X62692862Y-67866534D01*
X63096534Y-67462862D01*
X63315000Y-66935439D01*
X63315000Y-66364561D01*
X63302642Y-66334724D01*
X67915000Y-66334724D01*
X67915000Y-66965276D01*
X68156302Y-67547830D01*
X68602170Y-67993698D01*
X69184724Y-68235000D01*
X69815276Y-68235000D01*
X70397830Y-67993698D01*
X70843698Y-67547830D01*
X71085000Y-66965276D01*
X71085000Y-66334724D01*
X70843698Y-65752170D01*
X70397830Y-65306302D01*
X69815276Y-65065000D01*
X69184724Y-65065000D01*
X68602170Y-65306302D01*
X68156302Y-65752170D01*
X67915000Y-66334724D01*
X63302642Y-66334724D01*
X63096534Y-65837138D01*
X62692862Y-65433466D01*
X62563784Y-65380000D01*
X62692862Y-65326534D01*
X63096534Y-64922862D01*
X63315000Y-64395439D01*
X63315000Y-63824561D01*
X63096534Y-63297138D01*
X62692862Y-62893466D01*
X62563784Y-62840000D01*
X62692862Y-62786534D01*
X62954672Y-62524724D01*
X67915000Y-62524724D01*
X67915000Y-63155276D01*
X68156302Y-63737830D01*
X68602170Y-64183698D01*
X69184724Y-64425000D01*
X69815276Y-64425000D01*
X70397830Y-64183698D01*
X70843698Y-63737830D01*
X71085000Y-63155276D01*
X71085000Y-62524724D01*
X70843698Y-61942170D01*
X70397830Y-61496302D01*
X69815276Y-61255000D01*
X69184724Y-61255000D01*
X68602170Y-61496302D01*
X68156302Y-61942170D01*
X67915000Y-62524724D01*
X62954672Y-62524724D01*
X63096534Y-62382862D01*
X63315000Y-61855439D01*
X63315000Y-61284561D01*
X63096534Y-60757138D01*
X62692862Y-60353466D01*
X62563784Y-60300000D01*
X62692862Y-60246534D01*
X63096534Y-59842862D01*
X63315000Y-59315439D01*
X63315000Y-58744561D01*
X73145000Y-58744561D01*
X73145000Y-59315439D01*
X73363466Y-59842862D01*
X73767138Y-60246534D01*
X74294561Y-60465000D01*
X74865439Y-60465000D01*
X75392862Y-60246534D01*
X75796534Y-59842862D01*
X75843525Y-59729417D01*
X75866136Y-59784005D01*
X76112255Y-59858139D01*
X76940395Y-59030000D01*
X77299605Y-59030000D01*
X78127745Y-59858139D01*
X78373864Y-59784005D01*
X78566965Y-59246777D01*
X78539778Y-58676546D01*
X78373864Y-58275995D01*
X78127745Y-58201861D01*
X77299605Y-59030000D01*
X76940395Y-59030000D01*
X76112255Y-58201861D01*
X75866136Y-58275995D01*
X75845126Y-58334448D01*
X75796534Y-58217138D01*
X75392862Y-57813466D01*
X74865439Y-57595000D01*
X74294561Y-57595000D01*
X73767138Y-57813466D01*
X73363466Y-58217138D01*
X73145000Y-58744561D01*
X63315000Y-58744561D01*
X63096534Y-58217138D01*
X62804396Y-57925000D01*
X62806310Y-57925000D01*
X63039699Y-57828327D01*
X63218327Y-57649698D01*
X63315000Y-57416309D01*
X63315000Y-56775750D01*
X63156250Y-56617000D01*
X62007000Y-56617000D01*
X62007000Y-56637000D01*
X61753000Y-56637000D01*
X61753000Y-56617000D01*
X60603750Y-56617000D01*
X60445000Y-56775750D01*
X60445000Y-57416309D01*
X60541673Y-57649698D01*
X60720301Y-57828327D01*
X60953690Y-57925000D01*
X60955604Y-57925000D01*
X60663466Y-58217138D01*
X60445000Y-58744561D01*
X60445000Y-59315439D01*
X60663466Y-59842862D01*
X61067138Y-60246534D01*
X61196216Y-60300000D01*
X61067138Y-60353466D01*
X60663466Y-60757138D01*
X60445000Y-61284561D01*
X60445000Y-61600199D01*
X60380000Y-61535199D01*
X60380000Y-55563691D01*
X60445000Y-55563691D01*
X60445000Y-56204250D01*
X60603750Y-56363000D01*
X61753000Y-56363000D01*
X61753000Y-55213750D01*
X62007000Y-55213750D01*
X62007000Y-56363000D01*
X63156250Y-56363000D01*
X63314689Y-56204561D01*
X75685000Y-56204561D01*
X75685000Y-56775439D01*
X75903466Y-57302862D01*
X76307138Y-57706534D01*
X76420583Y-57753525D01*
X76365995Y-57776136D01*
X76291861Y-58022255D01*
X77120000Y-58850395D01*
X77948139Y-58022255D01*
X77874005Y-57776136D01*
X77815552Y-57755126D01*
X77932862Y-57706534D01*
X78336534Y-57302862D01*
X78555000Y-56775439D01*
X78555000Y-56204561D01*
X78336534Y-55677138D01*
X77932862Y-55273466D01*
X77405439Y-55055000D01*
X76834561Y-55055000D01*
X76307138Y-55273466D01*
X75903466Y-55677138D01*
X75685000Y-56204561D01*
X63314689Y-56204561D01*
X63315000Y-56204250D01*
X63315000Y-55563691D01*
X63218327Y-55330302D01*
X63039699Y-55151673D01*
X62806310Y-55055000D01*
X62165750Y-55055000D01*
X62007000Y-55213750D01*
X61753000Y-55213750D01*
X61594250Y-55055000D01*
X60953690Y-55055000D01*
X60720301Y-55151673D01*
X60541673Y-55330302D01*
X60445000Y-55563691D01*
X60380000Y-55563691D01*
X60380000Y-55054802D01*
X60474802Y-54960000D01*
X78355199Y-54960000D01*
X79815000Y-56419802D01*
G36*
X136759192Y-50780578D02*
X137494389Y-50981705D01*
X138182351Y-51309846D01*
X138801331Y-51754628D01*
X139331761Y-52301988D01*
X139756884Y-52934639D01*
X140063251Y-53632561D01*
X140242499Y-54379183D01*
X140290001Y-55026044D01*
X140290000Y-99968382D01*
X140219422Y-100759193D01*
X140018295Y-101494389D01*
X139690152Y-102182355D01*
X139662000Y-102221533D01*
X139662000Y-92300000D01*
X139652333Y-92251399D01*
X139624803Y-92210197D01*
X139583601Y-92182667D01*
X139535000Y-92173000D01*
X119659610Y-92173000D01*
X119675335Y-92149466D01*
X121727362Y-90097440D01*
X123100000Y-90097440D01*
X123347765Y-90048157D01*
X123486267Y-89955613D01*
X123790620Y-90259966D01*
X124575322Y-90585000D01*
X125424678Y-90585000D01*
X126209380Y-90259966D01*
X126809966Y-89659380D01*
X127135000Y-88874678D01*
X127135000Y-88025322D01*
X126809966Y-87240620D01*
X126209380Y-86640034D01*
X125424678Y-86315000D01*
X124575322Y-86315000D01*
X123790620Y-86640034D01*
X123486267Y-86944387D01*
X123347765Y-86851843D01*
X123100000Y-86802560D01*
X122082030Y-86802560D01*
X122135000Y-86674678D01*
X122135000Y-85825322D01*
X121809966Y-85040620D01*
X121209380Y-84440034D01*
X120424678Y-84115000D01*
X119863560Y-84115000D01*
X120056697Y-84035000D01*
X120215385Y-84035000D01*
X120761185Y-83808922D01*
X121178922Y-83391185D01*
X121405000Y-82845385D01*
X121405000Y-82254615D01*
X121359596Y-82145000D01*
X121614678Y-82145000D01*
X122399380Y-81819966D01*
X122486283Y-81733063D01*
X122365000Y-82025866D01*
X122365000Y-83074134D01*
X122766155Y-84042608D01*
X123507392Y-84783845D01*
X124475866Y-85185000D01*
X125524134Y-85185000D01*
X126492608Y-84783845D01*
X127233845Y-84042608D01*
X127635000Y-83074134D01*
X127635000Y-82025866D01*
X127513717Y-81733063D01*
X127600620Y-81819966D01*
X128385322Y-82145000D01*
X128640404Y-82145000D01*
X128595000Y-82254615D01*
X128595000Y-82845385D01*
X128821078Y-83391185D01*
X129238815Y-83808922D01*
X129784615Y-84035000D01*
X129943303Y-84035000D01*
X130136440Y-84115000D01*
X129575322Y-84115000D01*
X128790620Y-84440034D01*
X128190034Y-85040620D01*
X127865000Y-85825322D01*
X127865000Y-86674678D01*
X128190034Y-87459380D01*
X128790620Y-88059966D01*
X129575322Y-88385000D01*
X130424678Y-88385000D01*
X131209380Y-88059966D01*
X131609885Y-87659461D01*
X131642191Y-87707809D01*
X131852235Y-87848157D01*
X132100000Y-87897440D01*
X134100000Y-87897440D01*
X134347765Y-87848157D01*
X134557809Y-87707809D01*
X134698157Y-87497765D01*
X134747440Y-87250000D01*
X134747440Y-85557361D01*
X136844473Y-83460329D01*
X136907929Y-83417929D01*
X137075904Y-83166537D01*
X137120000Y-82944852D01*
X137120000Y-82944848D01*
X137134888Y-82870001D01*
X137120000Y-82795154D01*
X137120000Y-79039846D01*
X137134888Y-78964999D01*
X137120000Y-78890152D01*
X137120000Y-78890148D01*
X137075904Y-78668463D01*
X136907929Y-78417071D01*
X136844473Y-78374671D01*
X132505331Y-74035530D01*
X132462929Y-73972071D01*
X132211537Y-73804096D01*
X131989852Y-73760000D01*
X131989847Y-73760000D01*
X131915000Y-73745112D01*
X131840153Y-73760000D01*
X121174846Y-73760000D01*
X121099999Y-73745112D01*
X121025152Y-73760000D01*
X121025148Y-73760000D01*
X120803463Y-73804096D01*
X120552071Y-73972071D01*
X120509671Y-74035527D01*
X118915528Y-75629671D01*
X118852072Y-75672071D01*
X118809672Y-75735527D01*
X118809671Y-75735528D01*
X118751518Y-75822560D01*
X118400000Y-75822560D01*
X118152235Y-75871843D01*
X117942191Y-76012191D01*
X117801843Y-76222235D01*
X117752560Y-76470000D01*
X117752560Y-76710000D01*
X117494802Y-76710000D01*
X117170000Y-76385199D01*
X117170000Y-76219126D01*
X117012431Y-75838720D01*
X116721280Y-75547569D01*
X116340874Y-75390000D01*
X115929126Y-75390000D01*
X115548720Y-75547569D01*
X115257569Y-75838720D01*
X115100000Y-76219126D01*
X115100000Y-76220198D01*
X112915331Y-74035530D01*
X112872929Y-73972071D01*
X112621537Y-73804096D01*
X112399852Y-73760000D01*
X112399847Y-73760000D01*
X112325000Y-73745112D01*
X112250153Y-73760000D01*
X101604846Y-73760000D01*
X101529999Y-73745112D01*
X101455152Y-73760000D01*
X101455148Y-73760000D01*
X101233463Y-73804096D01*
X100982071Y-73972071D01*
X100939671Y-74035527D01*
X99865528Y-75109671D01*
X99802072Y-75152071D01*
X99759672Y-75215527D01*
X99759671Y-75215528D01*
X99634097Y-75403463D01*
X99575112Y-75700000D01*
X99590001Y-75774852D01*
X99590001Y-75822560D01*
X99350000Y-75822560D01*
X99102235Y-75871843D01*
X98892191Y-76012191D01*
X98751843Y-76222235D01*
X98702560Y-76470000D01*
X98702560Y-76710000D01*
X98444820Y-76710000D01*
X98120018Y-76385199D01*
X98120018Y-76219126D01*
X97962449Y-75838720D01*
X97671298Y-75547569D01*
X97290892Y-75390000D01*
X96879144Y-75390000D01*
X96498738Y-75547569D01*
X96207587Y-75838720D01*
X96050018Y-76219126D01*
X96050018Y-76630874D01*
X96207587Y-77011280D01*
X96498738Y-77302431D01*
X96879144Y-77460000D01*
X97045217Y-77460000D01*
X97539689Y-77954473D01*
X97582089Y-78017929D01*
X97833481Y-78185904D01*
X98055166Y-78230000D01*
X98055170Y-78230000D01*
X98130017Y-78244888D01*
X98204864Y-78230000D01*
X98702560Y-78230000D01*
X98702560Y-78470000D01*
X98751843Y-78717765D01*
X98892191Y-78927809D01*
X99102235Y-79068157D01*
X99350000Y-79117440D01*
X100198803Y-79117440D01*
X100005000Y-79585322D01*
X100005000Y-80434678D01*
X100224666Y-80965000D01*
X100134724Y-80965000D01*
X99552170Y-81206302D01*
X99106302Y-81652170D01*
X98865000Y-82234724D01*
X98865000Y-82865276D01*
X99106302Y-83447830D01*
X99552170Y-83893698D01*
X100134724Y-84135000D01*
X100477038Y-84135000D01*
X99740620Y-84440034D01*
X99140034Y-85040620D01*
X98815000Y-85825322D01*
X98815000Y-86674678D01*
X99140034Y-87459380D01*
X99370654Y-87690000D01*
X98629802Y-87690000D01*
X94575000Y-83635199D01*
X94575000Y-65704846D01*
X94589888Y-65629999D01*
X94575000Y-65555152D01*
X94575000Y-65555148D01*
X94530904Y-65333463D01*
X94453243Y-65217235D01*
X94405329Y-65145526D01*
X94405327Y-65145524D01*
X94362929Y-65082071D01*
X94299476Y-65039673D01*
X92183918Y-62924117D01*
X92260000Y-62740439D01*
X92260000Y-62169561D01*
X92041534Y-61642138D01*
X91637862Y-61238466D01*
X91110439Y-61020000D01*
X90539561Y-61020000D01*
X90012138Y-61238466D01*
X89693044Y-61557560D01*
X89689965Y-61557560D01*
X89582809Y-61397191D01*
X89372765Y-61256843D01*
X89125000Y-61207560D01*
X87525000Y-61207560D01*
X87277235Y-61256843D01*
X87067191Y-61397191D01*
X86926843Y-61607235D01*
X86925000Y-61616500D01*
X86923157Y-61607235D01*
X86782809Y-61397191D01*
X86572765Y-61256843D01*
X86325000Y-61207560D01*
X84725000Y-61207560D01*
X84477235Y-61256843D01*
X84370377Y-61328244D01*
X84282809Y-61197191D01*
X84072765Y-61056843D01*
X83825000Y-61007560D01*
X82225000Y-61007560D01*
X82218629Y-61008827D01*
X81335000Y-60125199D01*
X81335000Y-56179848D01*
X81349888Y-56105000D01*
X81335000Y-56030152D01*
X81335000Y-56030148D01*
X81290904Y-55808463D01*
X81290904Y-55808462D01*
X81165329Y-55620527D01*
X81122929Y-55557071D01*
X81059473Y-55514671D01*
X79260331Y-53715530D01*
X79217929Y-53652071D01*
X78966537Y-53484096D01*
X78744852Y-53440000D01*
X78744847Y-53440000D01*
X78670000Y-53425112D01*
X78595153Y-53440000D01*
X60234846Y-53440000D01*
X60159999Y-53425112D01*
X60085152Y-53440000D01*
X60085148Y-53440000D01*
X59863463Y-53484096D01*
X59801846Y-53525267D01*
X59675526Y-53609671D01*
X59675524Y-53609673D01*
X59612071Y-53652071D01*
X59569672Y-53715525D01*
X59135527Y-54149672D01*
X59072072Y-54192071D01*
X59029672Y-54255527D01*
X59029671Y-54255528D01*
X58904097Y-54443463D01*
X58845112Y-54740000D01*
X58860001Y-54814852D01*
X58860000Y-61775153D01*
X58845112Y-61850000D01*
X58860000Y-61924847D01*
X58860000Y-61924851D01*
X58904096Y-62146536D01*
X59072071Y-62397929D01*
X59135530Y-62440331D01*
X60466897Y-63771698D01*
X60445000Y-63824561D01*
X60445000Y-64395439D01*
X60663466Y-64922862D01*
X61067138Y-65326534D01*
X61196216Y-65380000D01*
X61067138Y-65433466D01*
X60663466Y-65837138D01*
X60445000Y-66364561D01*
X60445000Y-66680198D01*
X57840000Y-64075199D01*
X57840000Y-54419801D01*
X59204802Y-53055000D01*
X91690165Y-53055000D01*
X95965493Y-57330329D01*
X95965496Y-57330331D01*
X96050000Y-57414835D01*
X96050000Y-57580908D01*
X96207569Y-57961314D01*
X96498720Y-58252465D01*
X96879126Y-58410034D01*
X97045199Y-58410034D01*
X97539637Y-58904473D01*
X97582037Y-58967929D01*
X97833429Y-59135904D01*
X98055114Y-59180000D01*
X98055118Y-59180000D01*
X98129965Y-59194888D01*
X98204812Y-59180000D01*
X98702560Y-59180000D01*
X98702560Y-59420000D01*
X98751843Y-59667765D01*
X98892191Y-59877809D01*
X99102235Y-60018157D01*
X99350000Y-60067440D01*
X100198803Y-60067440D01*
X100005000Y-60535322D01*
X100005000Y-61384678D01*
X100224666Y-61915000D01*
X100134724Y-61915000D01*
X99552170Y-62156302D01*
X99106302Y-62602170D01*
X98872183Y-63167382D01*
X96480000Y-60775199D01*
X96480000Y-59989846D01*
X96494888Y-59914999D01*
X96480000Y-59840152D01*
X96480000Y-59840148D01*
X96435904Y-59618463D01*
X96267929Y-59367071D01*
X96204473Y-59324671D01*
X93135331Y-56255530D01*
X93092929Y-56192071D01*
X92984268Y-56119466D01*
X92179525Y-55314723D01*
X92260000Y-55120439D01*
X92260000Y-54549561D01*
X92041534Y-54022138D01*
X91637862Y-53618466D01*
X91110439Y-53400000D01*
X90539561Y-53400000D01*
X90012138Y-53618466D01*
X89693044Y-53937560D01*
X89689965Y-53937560D01*
X89582809Y-53777191D01*
X89372765Y-53636843D01*
X89125000Y-53587560D01*
X87525000Y-53587560D01*
X87277235Y-53636843D01*
X87067191Y-53777191D01*
X86926843Y-53987235D01*
X86925000Y-53996500D01*
X86923157Y-53987235D01*
X86782809Y-53777191D01*
X86572765Y-53636843D01*
X86325000Y-53587560D01*
X84725000Y-53587560D01*
X84477235Y-53636843D01*
X84370377Y-53708244D01*
X84282809Y-53577191D01*
X84072765Y-53436843D01*
X83825000Y-53387560D01*
X82225000Y-53387560D01*
X81977235Y-53436843D01*
X81767191Y-53577191D01*
X81626843Y-53787235D01*
X81577560Y-54035000D01*
X81577560Y-55635000D01*
X81626843Y-55882765D01*
X81767191Y-56092809D01*
X81977235Y-56233157D01*
X82225000Y-56282440D01*
X82265000Y-56282440D01*
X82265001Y-57197560D01*
X82225000Y-57197560D01*
X81977235Y-57246843D01*
X81767191Y-57387191D01*
X81626843Y-57597235D01*
X81577560Y-57845000D01*
X81577560Y-59445000D01*
X81626843Y-59692765D01*
X81767191Y-59902809D01*
X81977235Y-60043157D01*
X82225000Y-60092440D01*
X83825000Y-60092440D01*
X84072765Y-60043157D01*
X84282809Y-59902809D01*
X84370377Y-59771756D01*
X84477235Y-59843157D01*
X84725000Y-59892440D01*
X86325000Y-59892440D01*
X86572765Y-59843157D01*
X86782809Y-59702809D01*
X86923157Y-59492765D01*
X86925000Y-59483500D01*
X86926843Y-59492765D01*
X87067191Y-59702809D01*
X87277235Y-59843157D01*
X87525000Y-59892440D01*
X89125000Y-59892440D01*
X89372765Y-59843157D01*
X89582809Y-59702809D01*
X89689965Y-59542440D01*
X89693044Y-59542440D01*
X90012138Y-59861534D01*
X90539561Y-60080000D01*
X90985199Y-60080000D01*
X94960000Y-64054802D01*
X94960001Y-67365148D01*
X94945112Y-67440000D01*
X95004097Y-67736537D01*
X95123946Y-67915903D01*
X95172072Y-67987929D01*
X95235528Y-68030329D01*
X97089671Y-69884473D01*
X97132071Y-69947929D01*
X97383463Y-70115904D01*
X97605148Y-70160000D01*
X97605152Y-70160000D01*
X97680000Y-70174888D01*
X97754848Y-70160000D01*
X101602560Y-70160000D01*
X101602560Y-70400000D01*
X101651843Y-70647765D01*
X101792191Y-70857809D01*
X102002235Y-70998157D01*
X102250000Y-71047440D01*
X102377610Y-71047440D01*
X102375112Y-71060000D01*
X102434097Y-71356537D01*
X102519859Y-71484888D01*
X102602072Y-71607929D01*
X102665528Y-71650329D01*
X103999671Y-72984473D01*
X104042071Y-73047929D01*
X104293463Y-73215904D01*
X104515148Y-73260000D01*
X104515152Y-73260000D01*
X104590000Y-73274888D01*
X104664848Y-73260000D01*
X105296283Y-73260000D01*
X105413714Y-73377431D01*
X105794120Y-73535000D01*
X106205868Y-73535000D01*
X106586274Y-73377431D01*
X106877425Y-73086280D01*
X107034994Y-72705874D01*
X107034994Y-72294126D01*
X106877425Y-71913720D01*
X106586274Y-71622569D01*
X106374771Y-71534962D01*
X107159380Y-71209966D01*
X107759966Y-70609380D01*
X108085000Y-69824678D01*
X108085000Y-68975322D01*
X107971495Y-68701296D01*
X110464671Y-71194473D01*
X110507071Y-71257929D01*
X110570527Y-71300329D01*
X110758462Y-71425904D01*
X110806605Y-71435480D01*
X110980148Y-71470000D01*
X110980152Y-71470000D01*
X111055000Y-71484888D01*
X111129848Y-71470000D01*
X117330153Y-71470000D01*
X117405000Y-71484888D01*
X117479847Y-71470000D01*
X117479852Y-71470000D01*
X117701537Y-71425904D01*
X117952929Y-71257929D01*
X117995331Y-71194470D01*
X119029802Y-70160000D01*
X120652560Y-70160000D01*
X120652560Y-70400000D01*
X120701843Y-70647765D01*
X120842191Y-70857809D01*
X121052235Y-70998157D01*
X121300000Y-71047440D01*
X121427610Y-71047440D01*
X121425112Y-71060000D01*
X121484097Y-71356537D01*
X121569859Y-71484888D01*
X121652072Y-71607929D01*
X121715528Y-71650329D01*
X123049671Y-72984473D01*
X123092071Y-73047929D01*
X123343463Y-73215904D01*
X123565148Y-73260000D01*
X123565152Y-73260000D01*
X123640000Y-73274888D01*
X123714848Y-73260000D01*
X124296301Y-73260000D01*
X124413732Y-73377431D01*
X124794138Y-73535000D01*
X125205886Y-73535000D01*
X125586292Y-73377431D01*
X125877443Y-73086280D01*
X126035012Y-72705874D01*
X126035012Y-72294126D01*
X125877443Y-71913720D01*
X125586292Y-71622569D01*
X125374881Y-71535000D01*
X125424678Y-71535000D01*
X126209380Y-71209966D01*
X126809966Y-70609380D01*
X127135000Y-69824678D01*
X127135000Y-68975322D01*
X126809966Y-68190620D01*
X126209380Y-67590034D01*
X125424678Y-67265000D01*
X124575322Y-67265000D01*
X123790620Y-67590034D01*
X123486267Y-67894387D01*
X123347765Y-67801843D01*
X123100000Y-67752560D01*
X122082030Y-67752560D01*
X122135000Y-67624678D01*
X122135000Y-66775322D01*
X121809966Y-65990620D01*
X121209380Y-65390034D01*
X120424678Y-65065000D01*
X119863560Y-65065000D01*
X120056697Y-64985000D01*
X120215385Y-64985000D01*
X120761185Y-64758922D01*
X121178922Y-64341185D01*
X121405000Y-63795385D01*
X121405000Y-63204615D01*
X121359596Y-63095000D01*
X121614678Y-63095000D01*
X122399380Y-62769966D01*
X122486283Y-62683063D01*
X122365000Y-62975866D01*
X122365000Y-64024134D01*
X122766155Y-64992608D01*
X123507392Y-65733845D01*
X124475866Y-66135000D01*
X125524134Y-66135000D01*
X126492608Y-65733845D01*
X127233845Y-64992608D01*
X127635000Y-64024134D01*
X127635000Y-62975866D01*
X127513717Y-62683063D01*
X127600620Y-62769966D01*
X128385322Y-63095000D01*
X128640404Y-63095000D01*
X128595000Y-63204615D01*
X128595000Y-63795385D01*
X128821078Y-64341185D01*
X129238815Y-64758922D01*
X129784615Y-64985000D01*
X129943303Y-64985000D01*
X130136440Y-65065000D01*
X129575322Y-65065000D01*
X128790620Y-65390034D01*
X128190034Y-65990620D01*
X127865000Y-66775322D01*
X127865000Y-67624678D01*
X128190034Y-68409380D01*
X128790620Y-69009966D01*
X129575322Y-69335000D01*
X130424678Y-69335000D01*
X131209380Y-69009966D01*
X131609885Y-68609461D01*
X131642191Y-68657809D01*
X131852235Y-68798157D01*
X132100000Y-68847440D01*
X134100000Y-68847440D01*
X134347765Y-68798157D01*
X134557809Y-68657809D01*
X134698157Y-68447765D01*
X134747440Y-68200000D01*
X134747440Y-67142361D01*
X136844473Y-65045329D01*
X136907929Y-65002929D01*
X137075904Y-64751537D01*
X137120000Y-64529852D01*
X137120000Y-64529848D01*
X137134888Y-64455001D01*
X137120000Y-64380154D01*
X137120000Y-59989846D01*
X137134888Y-59914999D01*
X137120000Y-59840152D01*
X137120000Y-59840148D01*
X137075904Y-59618463D01*
X136907929Y-59367071D01*
X136844473Y-59324671D01*
X132505331Y-54985530D01*
X132462929Y-54922071D01*
X132211537Y-54754096D01*
X131989852Y-54710000D01*
X131989847Y-54710000D01*
X131915000Y-54695112D01*
X131840153Y-54710000D01*
X121174846Y-54710000D01*
X121099999Y-54695112D01*
X121025152Y-54710000D01*
X121025148Y-54710000D01*
X120803463Y-54754096D01*
X120552071Y-54922071D01*
X120509671Y-54985527D01*
X118915528Y-56579671D01*
X118852072Y-56622071D01*
X118809672Y-56685527D01*
X118809671Y-56685528D01*
X118751518Y-56772560D01*
X118400000Y-56772560D01*
X118152235Y-56821843D01*
X117942191Y-56962191D01*
X117801843Y-57172235D01*
X117752560Y-57420000D01*
X117752560Y-57660000D01*
X117494802Y-57660000D01*
X117170000Y-57335199D01*
X117170000Y-57169126D01*
X117012431Y-56788720D01*
X116721280Y-56497569D01*
X116340874Y-56340000D01*
X115929126Y-56340000D01*
X115548720Y-56497569D01*
X115257569Y-56788720D01*
X115100000Y-57169126D01*
X115100000Y-57170198D01*
X112280331Y-54350530D01*
X112237929Y-54287071D01*
X111986537Y-54119096D01*
X111764852Y-54075000D01*
X111764847Y-54075000D01*
X111690000Y-54060112D01*
X111615153Y-54075000D01*
X102759848Y-54075000D01*
X102685000Y-54060112D01*
X102610152Y-54075000D01*
X102610148Y-54075000D01*
X102436605Y-54109520D01*
X102388462Y-54119096D01*
X102215001Y-54235000D01*
X102137071Y-54287071D01*
X102094671Y-54350527D01*
X99865528Y-56579671D01*
X99802072Y-56622071D01*
X99759672Y-56685527D01*
X99759671Y-56685528D01*
X99701518Y-56772560D01*
X99350000Y-56772560D01*
X99102235Y-56821843D01*
X98892191Y-56962191D01*
X98751843Y-57172235D01*
X98702560Y-57420000D01*
X98702560Y-57660000D01*
X98444768Y-57660000D01*
X98120000Y-57335233D01*
X98120000Y-57169160D01*
X97962431Y-56788754D01*
X97671280Y-56497603D01*
X97290874Y-56340034D01*
X97124801Y-56340034D01*
X97040297Y-56255530D01*
X97040295Y-56255527D01*
X92595297Y-51810530D01*
X92552895Y-51747071D01*
X92301503Y-51579096D01*
X92079818Y-51535000D01*
X92079813Y-51535000D01*
X92004966Y-51520112D01*
X91930119Y-51535000D01*
X58964848Y-51535000D01*
X58890000Y-51520112D01*
X58815152Y-51535000D01*
X58815148Y-51535000D01*
X58593463Y-51579096D01*
X58342071Y-51747071D01*
X58299671Y-51810527D01*
X56595528Y-53514671D01*
X56532072Y-53557071D01*
X56489672Y-53620527D01*
X56489671Y-53620528D01*
X56364097Y-53808463D01*
X56305112Y-54105000D01*
X56320001Y-54179852D01*
X56320000Y-64315153D01*
X56305112Y-64390000D01*
X56320000Y-64464847D01*
X56320000Y-64464851D01*
X56364096Y-64686536D01*
X56532071Y-64937929D01*
X56595530Y-64980331D01*
X60466896Y-68851698D01*
X60445000Y-68904561D01*
X60445000Y-69475439D01*
X60663466Y-70002862D01*
X61067138Y-70406534D01*
X61196216Y-70460000D01*
X61067138Y-70513466D01*
X60663466Y-70917138D01*
X60445000Y-71444561D01*
X60445000Y-72015439D01*
X60663466Y-72542862D01*
X61067138Y-72946534D01*
X61196216Y-73000000D01*
X61067138Y-73053466D01*
X60663466Y-73457138D01*
X60445000Y-73984561D01*
X60445000Y-74555439D01*
X60663466Y-75082862D01*
X61067138Y-75486534D01*
X61196216Y-75540000D01*
X61067138Y-75593466D01*
X60663466Y-75997138D01*
X60445000Y-76524561D01*
X60445000Y-77095439D01*
X60663466Y-77622862D01*
X61067138Y-78026534D01*
X61196216Y-78080000D01*
X61067138Y-78133466D01*
X60663466Y-78537138D01*
X60641570Y-78590000D01*
X59374848Y-78590000D01*
X59300000Y-78575112D01*
X59225152Y-78590000D01*
X59225148Y-78590000D01*
X59051605Y-78624520D01*
X59003462Y-78634096D01*
X58816418Y-78759076D01*
X58752071Y-78802071D01*
X58709671Y-78865527D01*
X58266207Y-79308991D01*
X58208839Y-79020582D01*
X57880625Y-78529375D01*
X57561522Y-78316157D01*
X57691358Y-78255183D01*
X58081645Y-77826924D01*
X58251476Y-77416890D01*
X58130155Y-77187000D01*
X56937000Y-77187000D01*
X56937000Y-77207000D01*
X56683000Y-77207000D01*
X56683000Y-77187000D01*
X55489845Y-77187000D01*
X55368524Y-77416890D01*
X55538355Y-77826924D01*
X55928642Y-78255183D01*
X56058478Y-78316157D01*
X55739375Y-78529375D01*
X55411161Y-79020582D01*
X55295908Y-79600000D01*
X55411161Y-80179418D01*
X55739375Y-80670625D01*
X56037761Y-80870000D01*
X55739375Y-81069375D01*
X55411161Y-81560582D01*
X55295908Y-82140000D01*
X55411161Y-82719418D01*
X55739375Y-83210625D01*
X56037761Y-83410000D01*
X55739375Y-83609375D01*
X55411161Y-84100582D01*
X55295908Y-84680000D01*
X55411161Y-85259418D01*
X55739375Y-85750625D01*
X56037761Y-85950000D01*
X55739375Y-86149375D01*
X55411161Y-86640582D01*
X55295908Y-87220000D01*
X55411161Y-87799418D01*
X55739375Y-88290625D01*
X56037761Y-88490000D01*
X55739375Y-88689375D01*
X55411161Y-89180582D01*
X55295908Y-89760000D01*
X55411161Y-90339418D01*
X55739375Y-90830625D01*
X56037761Y-91030000D01*
X55739375Y-91229375D01*
X55411161Y-91720582D01*
X55295908Y-92300000D01*
X55411161Y-92879418D01*
X55739375Y-93370625D01*
X55757619Y-93382816D01*
X55712235Y-93391843D01*
X55502191Y-93532191D01*
X55361843Y-93742235D01*
X55312560Y-93990000D01*
X55312560Y-95690000D01*
X55361843Y-95937765D01*
X55502191Y-96147809D01*
X55712235Y-96288157D01*
X55960000Y-96337440D01*
X57660000Y-96337440D01*
X57907765Y-96288157D01*
X58117809Y-96147809D01*
X58258157Y-95937765D01*
X58307440Y-95690000D01*
X58307440Y-94870915D01*
X59668356Y-93510000D01*
X60141867Y-93510000D01*
X60001161Y-93720582D01*
X59915000Y-94153744D01*
X59915000Y-95246255D01*
X60001161Y-95679417D01*
X60329375Y-96170625D01*
X60820582Y-96498839D01*
X61400000Y-96614092D01*
X61979417Y-96498839D01*
X62265000Y-96308019D01*
X62265000Y-96745657D01*
X62453018Y-97199571D01*
X62800429Y-97546982D01*
X63254343Y-97735000D01*
X63745657Y-97735000D01*
X64199571Y-97546982D01*
X64546982Y-97199571D01*
X64735000Y-96745657D01*
X64735000Y-96370604D01*
X64746763Y-96378464D01*
X64855918Y-96451399D01*
X65150524Y-96510000D01*
X65150529Y-96510000D01*
X65250000Y-96529786D01*
X65349471Y-96510000D01*
X66869159Y-96510000D01*
X66968630Y-96529786D01*
X67068101Y-96510000D01*
X67068106Y-96510000D01*
X67362712Y-96451399D01*
X67696799Y-96228169D01*
X67753147Y-96143838D01*
X68416811Y-95480174D01*
X68301843Y-95652235D01*
X68252560Y-95900000D01*
X68252560Y-97400000D01*
X68301843Y-97647765D01*
X68442191Y-97857809D01*
X68652235Y-97998157D01*
X68661500Y-98000000D01*
X68652235Y-98001843D01*
X68442191Y-98142191D01*
X68301843Y-98352235D01*
X68252560Y-98600000D01*
X68252560Y-100100000D01*
X68301843Y-100347765D01*
X68442191Y-100557809D01*
X68602560Y-100664965D01*
X68602560Y-100768044D01*
X68283466Y-101087138D01*
X68065000Y-101614561D01*
X68065000Y-102185439D01*
X68283466Y-102712862D01*
X68687138Y-103116534D01*
X69214561Y-103335000D01*
X69785439Y-103335000D01*
X70312862Y-103116534D01*
X70716534Y-102712862D01*
X70935000Y-102185439D01*
X70935000Y-101614561D01*
X70716534Y-101087138D01*
X70397440Y-100768044D01*
X70397440Y-100664965D01*
X70557809Y-100557809D01*
X70698157Y-100347765D01*
X70747440Y-100100000D01*
X70747440Y-98600000D01*
X70698157Y-98352235D01*
X70557809Y-98142191D01*
X70347765Y-98001843D01*
X70338500Y-98000000D01*
X70347765Y-97998157D01*
X70557809Y-97857809D01*
X70698157Y-97647765D01*
X70747440Y-97400000D01*
X70747440Y-95900000D01*
X70698157Y-95652235D01*
X70557809Y-95442191D01*
X70397440Y-95335035D01*
X70397440Y-95231956D01*
X70519396Y-95110000D01*
X71915000Y-95110000D01*
X71915000Y-95246255D01*
X72001161Y-95679417D01*
X72329375Y-96170625D01*
X72820582Y-96498839D01*
X73400000Y-96614092D01*
X73979417Y-96498839D01*
X74265000Y-96308019D01*
X74265000Y-96745657D01*
X74453018Y-97199571D01*
X74800429Y-97546982D01*
X75254343Y-97735000D01*
X75745657Y-97735000D01*
X76199571Y-97546982D01*
X76546982Y-97199571D01*
X76735000Y-96745657D01*
X76735000Y-96254343D01*
X76546982Y-95800429D01*
X76199571Y-95453018D01*
X75745657Y-95265000D01*
X75254343Y-95265000D01*
X74847773Y-95433407D01*
X74885000Y-95246256D01*
X74885000Y-94153745D01*
X74798839Y-93720582D01*
X74535856Y-93327000D01*
X76115000Y-93327000D01*
X76115000Y-93727000D01*
X76276640Y-94285618D01*
X76639749Y-94739856D01*
X77149048Y-95020562D01*
X77243110Y-95041476D01*
X77473000Y-94920155D01*
X77473000Y-93327000D01*
X76115000Y-93327000D01*
X74535856Y-93327000D01*
X74470625Y-93229375D01*
X73979418Y-92901161D01*
X73400000Y-92785908D01*
X72820583Y-92901161D01*
X72537965Y-93090000D01*
X70519396Y-93090000D01*
X70312862Y-92883466D01*
X69804753Y-92673000D01*
X76115000Y-92673000D01*
X76115000Y-93073000D01*
X77473000Y-93073000D01*
X77473000Y-91479845D01*
X77243110Y-91358524D01*
X77149048Y-91379438D01*
X76639749Y-91660144D01*
X76276640Y-92114382D01*
X76115000Y-92673000D01*
X69804753Y-92673000D01*
X69785439Y-92665000D01*
X69214561Y-92665000D01*
X68687138Y-92883466D01*
X68480604Y-93090000D01*
X68468101Y-93090000D01*
X68368630Y-93070214D01*
X68269159Y-93090000D01*
X68269154Y-93090000D01*
X67974548Y-93148601D01*
X67974546Y-93148602D01*
X67974547Y-93148602D01*
X67724792Y-93315482D01*
X67724790Y-93315484D01*
X67640461Y-93371831D01*
X67584114Y-93456160D01*
X67033100Y-94007174D01*
X67085000Y-93746256D01*
X67085000Y-92653745D01*
X66998839Y-92220582D01*
X66691088Y-91760000D01*
X75525153Y-91760000D01*
X75600000Y-91774888D01*
X75674847Y-91760000D01*
X75674852Y-91760000D01*
X75896537Y-91715904D01*
X76147929Y-91547929D01*
X76190331Y-91484470D01*
X76714063Y-90960739D01*
X76774716Y-90920211D01*
X76834561Y-90945000D01*
X77405439Y-90945000D01*
X77932862Y-90726534D01*
X78336534Y-90322862D01*
X78555000Y-89795439D01*
X78555000Y-89224561D01*
X78336534Y-88697138D01*
X77932862Y-88293466D01*
X77803784Y-88240000D01*
X77932862Y-88186534D01*
X78336534Y-87782862D01*
X78555000Y-87255439D01*
X78555000Y-86684561D01*
X78336534Y-86157138D01*
X77932862Y-85753466D01*
X77803784Y-85700000D01*
X77932862Y-85646534D01*
X78336534Y-85242862D01*
X78555000Y-84715439D01*
X78555000Y-84144561D01*
X78336534Y-83617138D01*
X77932862Y-83213466D01*
X77803784Y-83160000D01*
X77932862Y-83106534D01*
X78336534Y-82702862D01*
X78555000Y-82175439D01*
X78555000Y-81604561D01*
X78336534Y-81077138D01*
X77932862Y-80673466D01*
X77803784Y-80620000D01*
X77932862Y-80566534D01*
X78336534Y-80162862D01*
X78555000Y-79635439D01*
X78555000Y-79319802D01*
X78740001Y-79504803D01*
X78740000Y-91885005D01*
X78560251Y-91660144D01*
X78050952Y-91379438D01*
X77956890Y-91358524D01*
X77727000Y-91479845D01*
X77727000Y-93073000D01*
X77747000Y-93073000D01*
X77747000Y-93327000D01*
X77727000Y-93327000D01*
X77727000Y-94920155D01*
X77956890Y-95041476D01*
X78050952Y-95020562D01*
X78560251Y-94739856D01*
X78740000Y-94514996D01*
X78740000Y-95274851D01*
X78740001Y-95274854D01*
X78740000Y-96385198D01*
X74640936Y-100484263D01*
X74470625Y-100229375D01*
X74426662Y-100200000D01*
X74470625Y-100170625D01*
X74798839Y-99679418D01*
X74885000Y-99246256D01*
X74885000Y-98153745D01*
X74798839Y-97720582D01*
X74470625Y-97229375D01*
X73979418Y-96901161D01*
X73400000Y-96785908D01*
X72820583Y-96901161D01*
X72329375Y-97229375D01*
X72001161Y-97720582D01*
X71915000Y-98153744D01*
X71915000Y-99246255D01*
X72001161Y-99679417D01*
X72329375Y-100170625D01*
X72373338Y-100200000D01*
X72329375Y-100229375D01*
X72001161Y-100720582D01*
X71915000Y-101153744D01*
X71915000Y-102246255D01*
X72001161Y-102679417D01*
X72329375Y-103170625D01*
X72820582Y-103498839D01*
X73400000Y-103614092D01*
X73979417Y-103498839D01*
X74265000Y-103308019D01*
X74265000Y-103745657D01*
X74453018Y-104199571D01*
X74543447Y-104290000D01*
X64456553Y-104290000D01*
X64546982Y-104199571D01*
X64735000Y-103745657D01*
X64735000Y-103254343D01*
X64546982Y-102800429D01*
X64199571Y-102453018D01*
X63745657Y-102265000D01*
X63254343Y-102265000D01*
X62847773Y-102433407D01*
X62885000Y-102246256D01*
X62885000Y-101153745D01*
X62798839Y-100720582D01*
X62470625Y-100229375D01*
X62426662Y-100200000D01*
X62470625Y-100170625D01*
X62798839Y-99679418D01*
X62885000Y-99246256D01*
X62885000Y-98153745D01*
X62798839Y-97720582D01*
X62470625Y-97229375D01*
X61979418Y-96901161D01*
X61400000Y-96785908D01*
X60820583Y-96901161D01*
X60329375Y-97229375D01*
X60001161Y-97720582D01*
X59915000Y-98153744D01*
X59915000Y-99246255D01*
X60001161Y-99679417D01*
X60329375Y-100170625D01*
X60373338Y-100200000D01*
X60329375Y-100229375D01*
X60001161Y-100720582D01*
X59915000Y-101153744D01*
X59915000Y-102246255D01*
X60001161Y-102679417D01*
X60329375Y-103170625D01*
X60820582Y-103498839D01*
X61400000Y-103614092D01*
X61979417Y-103498839D01*
X62265000Y-103308019D01*
X62265000Y-103745657D01*
X62453018Y-104199571D01*
X62543447Y-104290000D01*
X55031618Y-104290000D01*
X54240807Y-104219422D01*
X53505611Y-104018295D01*
X52817645Y-103690152D01*
X52198672Y-103245374D01*
X51668239Y-102698012D01*
X51243117Y-102065362D01*
X50936749Y-101367439D01*
X50757501Y-100620819D01*
X50710000Y-99973970D01*
X50710000Y-76703110D01*
X55368524Y-76703110D01*
X55489845Y-76933000D01*
X56683000Y-76933000D01*
X56683000Y-75739181D01*
X56937000Y-75739181D01*
X56937000Y-76933000D01*
X58130155Y-76933000D01*
X58251476Y-76703110D01*
X58081645Y-76293076D01*
X57691358Y-75864817D01*
X57166892Y-75618514D01*
X56937000Y-75739181D01*
X56683000Y-75739181D01*
X56453108Y-75618514D01*
X55928642Y-75864817D01*
X55538355Y-76293076D01*
X55368524Y-76703110D01*
X50710000Y-76703110D01*
X50710000Y-55031618D01*
X50780578Y-54240808D01*
X50981705Y-53505611D01*
X51309846Y-52817649D01*
X51754628Y-52198669D01*
X52301988Y-51668239D01*
X52934639Y-51243116D01*
X53632561Y-50936749D01*
X54379183Y-50757501D01*
X55026030Y-50710000D01*
X135968382Y-50710000D01*
X136759192Y-50780578D01*
X136759192Y-50780578D01*
G37*
X136759192Y-50780578D02*
X137494389Y-50981705D01*
X138182351Y-51309846D01*
X138801331Y-51754628D01*
X139331761Y-52301988D01*
X139756884Y-52934639D01*
X140063251Y-53632561D01*
X140242499Y-54379183D01*
X140290001Y-55026044D01*
X140290000Y-99968382D01*
X140219422Y-100759193D01*
X140018295Y-101494389D01*
X139690152Y-102182355D01*
X139662000Y-102221533D01*
X139662000Y-92300000D01*
X139652333Y-92251399D01*
X139624803Y-92210197D01*
X139583601Y-92182667D01*
X139535000Y-92173000D01*
X119659610Y-92173000D01*
X119675335Y-92149466D01*
X121727362Y-90097440D01*
X123100000Y-90097440D01*
X123347765Y-90048157D01*
X123486267Y-89955613D01*
X123790620Y-90259966D01*
X124575322Y-90585000D01*
X125424678Y-90585000D01*
X126209380Y-90259966D01*
X126809966Y-89659380D01*
X127135000Y-88874678D01*
X127135000Y-88025322D01*
X126809966Y-87240620D01*
X126209380Y-86640034D01*
X125424678Y-86315000D01*
X124575322Y-86315000D01*
X123790620Y-86640034D01*
X123486267Y-86944387D01*
X123347765Y-86851843D01*
X123100000Y-86802560D01*
X122082030Y-86802560D01*
X122135000Y-86674678D01*
X122135000Y-85825322D01*
X121809966Y-85040620D01*
X121209380Y-84440034D01*
X120424678Y-84115000D01*
X119863560Y-84115000D01*
X120056697Y-84035000D01*
X120215385Y-84035000D01*
X120761185Y-83808922D01*
X121178922Y-83391185D01*
X121405000Y-82845385D01*
X121405000Y-82254615D01*
X121359596Y-82145000D01*
X121614678Y-82145000D01*
X122399380Y-81819966D01*
X122486283Y-81733063D01*
X122365000Y-82025866D01*
X122365000Y-83074134D01*
X122766155Y-84042608D01*
X123507392Y-84783845D01*
X124475866Y-85185000D01*
X125524134Y-85185000D01*
X126492608Y-84783845D01*
X127233845Y-84042608D01*
X127635000Y-83074134D01*
X127635000Y-82025866D01*
X127513717Y-81733063D01*
X127600620Y-81819966D01*
X128385322Y-82145000D01*
X128640404Y-82145000D01*
X128595000Y-82254615D01*
X128595000Y-82845385D01*
X128821078Y-83391185D01*
X129238815Y-83808922D01*
X129784615Y-84035000D01*
X129943303Y-84035000D01*
X130136440Y-84115000D01*
X129575322Y-84115000D01*
X128790620Y-84440034D01*
X128190034Y-85040620D01*
X127865000Y-85825322D01*
X127865000Y-86674678D01*
X128190034Y-87459380D01*
X128790620Y-88059966D01*
X129575322Y-88385000D01*
X130424678Y-88385000D01*
X131209380Y-88059966D01*
X131609885Y-87659461D01*
X131642191Y-87707809D01*
X131852235Y-87848157D01*
X132100000Y-87897440D01*
X134100000Y-87897440D01*
X134347765Y-87848157D01*
X134557809Y-87707809D01*
X134698157Y-87497765D01*
X134747440Y-87250000D01*
X134747440Y-85557361D01*
X136844473Y-83460329D01*
X136907929Y-83417929D01*
X137075904Y-83166537D01*
X137120000Y-82944852D01*
X137120000Y-82944848D01*
X137134888Y-82870001D01*
X137120000Y-82795154D01*
X137120000Y-79039846D01*
X137134888Y-78964999D01*
X137120000Y-78890152D01*
X137120000Y-78890148D01*
X137075904Y-78668463D01*
X136907929Y-78417071D01*
X136844473Y-78374671D01*
X132505331Y-74035530D01*
X132462929Y-73972071D01*
X132211537Y-73804096D01*
X131989852Y-73760000D01*
X131989847Y-73760000D01*
X131915000Y-73745112D01*
X131840153Y-73760000D01*
X121174846Y-73760000D01*
X121099999Y-73745112D01*
X121025152Y-73760000D01*
X121025148Y-73760000D01*
X120803463Y-73804096D01*
X120552071Y-73972071D01*
X120509671Y-74035527D01*
X118915528Y-75629671D01*
X118852072Y-75672071D01*
X118809672Y-75735527D01*
X118809671Y-75735528D01*
X118751518Y-75822560D01*
X118400000Y-75822560D01*
X118152235Y-75871843D01*
X117942191Y-76012191D01*
X117801843Y-76222235D01*
X117752560Y-76470000D01*
X117752560Y-76710000D01*
X117494802Y-76710000D01*
X117170000Y-76385199D01*
X117170000Y-76219126D01*
X117012431Y-75838720D01*
X116721280Y-75547569D01*
X116340874Y-75390000D01*
X115929126Y-75390000D01*
X115548720Y-75547569D01*
X115257569Y-75838720D01*
X115100000Y-76219126D01*
X115100000Y-76220198D01*
X112915331Y-74035530D01*
X112872929Y-73972071D01*
X112621537Y-73804096D01*
X112399852Y-73760000D01*
X112399847Y-73760000D01*
X112325000Y-73745112D01*
X112250153Y-73760000D01*
X101604846Y-73760000D01*
X101529999Y-73745112D01*
X101455152Y-73760000D01*
X101455148Y-73760000D01*
X101233463Y-73804096D01*
X100982071Y-73972071D01*
X100939671Y-74035527D01*
X99865528Y-75109671D01*
X99802072Y-75152071D01*
X99759672Y-75215527D01*
X99759671Y-75215528D01*
X99634097Y-75403463D01*
X99575112Y-75700000D01*
X99590001Y-75774852D01*
X99590001Y-75822560D01*
X99350000Y-75822560D01*
X99102235Y-75871843D01*
X98892191Y-76012191D01*
X98751843Y-76222235D01*
X98702560Y-76470000D01*
X98702560Y-76710000D01*
X98444820Y-76710000D01*
X98120018Y-76385199D01*
X98120018Y-76219126D01*
X97962449Y-75838720D01*
X97671298Y-75547569D01*
X97290892Y-75390000D01*
X96879144Y-75390000D01*
X96498738Y-75547569D01*
X96207587Y-75838720D01*
X96050018Y-76219126D01*
X96050018Y-76630874D01*
X96207587Y-77011280D01*
X96498738Y-77302431D01*
X96879144Y-77460000D01*
X97045217Y-77460000D01*
X97539689Y-77954473D01*
X97582089Y-78017929D01*
X97833481Y-78185904D01*
X98055166Y-78230000D01*
X98055170Y-78230000D01*
X98130017Y-78244888D01*
X98204864Y-78230000D01*
X98702560Y-78230000D01*
X98702560Y-78470000D01*
X98751843Y-78717765D01*
X98892191Y-78927809D01*
X99102235Y-79068157D01*
X99350000Y-79117440D01*
X100198803Y-79117440D01*
X100005000Y-79585322D01*
X100005000Y-80434678D01*
X100224666Y-80965000D01*
X100134724Y-80965000D01*
X99552170Y-81206302D01*
X99106302Y-81652170D01*
X98865000Y-82234724D01*
X98865000Y-82865276D01*
X99106302Y-83447830D01*
X99552170Y-83893698D01*
X100134724Y-84135000D01*
X100477038Y-84135000D01*
X99740620Y-84440034D01*
X99140034Y-85040620D01*
X98815000Y-85825322D01*
X98815000Y-86674678D01*
X99140034Y-87459380D01*
X99370654Y-87690000D01*
X98629802Y-87690000D01*
X94575000Y-83635199D01*
X94575000Y-65704846D01*
X94589888Y-65629999D01*
X94575000Y-65555152D01*
X94575000Y-65555148D01*
X94530904Y-65333463D01*
X94453243Y-65217235D01*
X94405329Y-65145526D01*
X94405327Y-65145524D01*
X94362929Y-65082071D01*
X94299476Y-65039673D01*
X92183918Y-62924117D01*
X92260000Y-62740439D01*
X92260000Y-62169561D01*
X92041534Y-61642138D01*
X91637862Y-61238466D01*
X91110439Y-61020000D01*
X90539561Y-61020000D01*
X90012138Y-61238466D01*
X89693044Y-61557560D01*
X89689965Y-61557560D01*
X89582809Y-61397191D01*
X89372765Y-61256843D01*
X89125000Y-61207560D01*
X87525000Y-61207560D01*
X87277235Y-61256843D01*
X87067191Y-61397191D01*
X86926843Y-61607235D01*
X86925000Y-61616500D01*
X86923157Y-61607235D01*
X86782809Y-61397191D01*
X86572765Y-61256843D01*
X86325000Y-61207560D01*
X84725000Y-61207560D01*
X84477235Y-61256843D01*
X84370377Y-61328244D01*
X84282809Y-61197191D01*
X84072765Y-61056843D01*
X83825000Y-61007560D01*
X82225000Y-61007560D01*
X82218629Y-61008827D01*
X81335000Y-60125199D01*
X81335000Y-56179848D01*
X81349888Y-56105000D01*
X81335000Y-56030152D01*
X81335000Y-56030148D01*
X81290904Y-55808463D01*
X81290904Y-55808462D01*
X81165329Y-55620527D01*
X81122929Y-55557071D01*
X81059473Y-55514671D01*
X79260331Y-53715530D01*
X79217929Y-53652071D01*
X78966537Y-53484096D01*
X78744852Y-53440000D01*
X78744847Y-53440000D01*
X78670000Y-53425112D01*
X78595153Y-53440000D01*
X60234846Y-53440000D01*
X60159999Y-53425112D01*
X60085152Y-53440000D01*
X60085148Y-53440000D01*
X59863463Y-53484096D01*
X59801846Y-53525267D01*
X59675526Y-53609671D01*
X59675524Y-53609673D01*
X59612071Y-53652071D01*
X59569672Y-53715525D01*
X59135527Y-54149672D01*
X59072072Y-54192071D01*
X59029672Y-54255527D01*
X59029671Y-54255528D01*
X58904097Y-54443463D01*
X58845112Y-54740000D01*
X58860001Y-54814852D01*
X58860000Y-61775153D01*
X58845112Y-61850000D01*
X58860000Y-61924847D01*
X58860000Y-61924851D01*
X58904096Y-62146536D01*
X59072071Y-62397929D01*
X59135530Y-62440331D01*
X60466897Y-63771698D01*
X60445000Y-63824561D01*
X60445000Y-64395439D01*
X60663466Y-64922862D01*
X61067138Y-65326534D01*
X61196216Y-65380000D01*
X61067138Y-65433466D01*
X60663466Y-65837138D01*
X60445000Y-66364561D01*
X60445000Y-66680198D01*
X57840000Y-64075199D01*
X57840000Y-54419801D01*
X59204802Y-53055000D01*
X91690165Y-53055000D01*
X95965493Y-57330329D01*
X95965496Y-57330331D01*
X96050000Y-57414835D01*
X96050000Y-57580908D01*
X96207569Y-57961314D01*
X96498720Y-58252465D01*
X96879126Y-58410034D01*
X97045199Y-58410034D01*
X97539637Y-58904473D01*
X97582037Y-58967929D01*
X97833429Y-59135904D01*
X98055114Y-59180000D01*
X98055118Y-59180000D01*
X98129965Y-59194888D01*
X98204812Y-59180000D01*
X98702560Y-59180000D01*
X98702560Y-59420000D01*
X98751843Y-59667765D01*
X98892191Y-59877809D01*
X99102235Y-60018157D01*
X99350000Y-60067440D01*
X100198803Y-60067440D01*
X100005000Y-60535322D01*
X100005000Y-61384678D01*
X100224666Y-61915000D01*
X100134724Y-61915000D01*
X99552170Y-62156302D01*
X99106302Y-62602170D01*
X98872183Y-63167382D01*
X96480000Y-60775199D01*
X96480000Y-59989846D01*
X96494888Y-59914999D01*
X96480000Y-59840152D01*
X96480000Y-59840148D01*
X96435904Y-59618463D01*
X96267929Y-59367071D01*
X96204473Y-59324671D01*
X93135331Y-56255530D01*
X93092929Y-56192071D01*
X92984268Y-56119466D01*
X92179525Y-55314723D01*
X92260000Y-55120439D01*
X92260000Y-54549561D01*
X92041534Y-54022138D01*
X91637862Y-53618466D01*
X91110439Y-53400000D01*
X90539561Y-53400000D01*
X90012138Y-53618466D01*
X89693044Y-53937560D01*
X89689965Y-53937560D01*
X89582809Y-53777191D01*
X89372765Y-53636843D01*
X89125000Y-53587560D01*
X87525000Y-53587560D01*
X87277235Y-53636843D01*
X87067191Y-53777191D01*
X86926843Y-53987235D01*
X86925000Y-53996500D01*
X86923157Y-53987235D01*
X86782809Y-53777191D01*
X86572765Y-53636843D01*
X86325000Y-53587560D01*
X84725000Y-53587560D01*
X84477235Y-53636843D01*
X84370377Y-53708244D01*
X84282809Y-53577191D01*
X84072765Y-53436843D01*
X83825000Y-53387560D01*
X82225000Y-53387560D01*
X81977235Y-53436843D01*
X81767191Y-53577191D01*
X81626843Y-53787235D01*
X81577560Y-54035000D01*
X81577560Y-55635000D01*
X81626843Y-55882765D01*
X81767191Y-56092809D01*
X81977235Y-56233157D01*
X82225000Y-56282440D01*
X82265000Y-56282440D01*
X82265001Y-57197560D01*
X82225000Y-57197560D01*
X81977235Y-57246843D01*
X81767191Y-57387191D01*
X81626843Y-57597235D01*
X81577560Y-57845000D01*
X81577560Y-59445000D01*
X81626843Y-59692765D01*
X81767191Y-59902809D01*
X81977235Y-60043157D01*
X82225000Y-60092440D01*
X83825000Y-60092440D01*
X84072765Y-60043157D01*
X84282809Y-59902809D01*
X84370377Y-59771756D01*
X84477235Y-59843157D01*
X84725000Y-59892440D01*
X86325000Y-59892440D01*
X86572765Y-59843157D01*
X86782809Y-59702809D01*
X86923157Y-59492765D01*
X86925000Y-59483500D01*
X86926843Y-59492765D01*
X87067191Y-59702809D01*
X87277235Y-59843157D01*
X87525000Y-59892440D01*
X89125000Y-59892440D01*
X89372765Y-59843157D01*
X89582809Y-59702809D01*
X89689965Y-59542440D01*
X89693044Y-59542440D01*
X90012138Y-59861534D01*
X90539561Y-60080000D01*
X90985199Y-60080000D01*
X94960000Y-64054802D01*
X94960001Y-67365148D01*
X94945112Y-67440000D01*
X95004097Y-67736537D01*
X95123946Y-67915903D01*
X95172072Y-67987929D01*
X95235528Y-68030329D01*
X97089671Y-69884473D01*
X97132071Y-69947929D01*
X97383463Y-70115904D01*
X97605148Y-70160000D01*
X97605152Y-70160000D01*
X97680000Y-70174888D01*
X97754848Y-70160000D01*
X101602560Y-70160000D01*
X101602560Y-70400000D01*
X101651843Y-70647765D01*
X101792191Y-70857809D01*
X102002235Y-70998157D01*
X102250000Y-71047440D01*
X102377610Y-71047440D01*
X102375112Y-71060000D01*
X102434097Y-71356537D01*
X102519859Y-71484888D01*
X102602072Y-71607929D01*
X102665528Y-71650329D01*
X103999671Y-72984473D01*
X104042071Y-73047929D01*
X104293463Y-73215904D01*
X104515148Y-73260000D01*
X104515152Y-73260000D01*
X104590000Y-73274888D01*
X104664848Y-73260000D01*
X105296283Y-73260000D01*
X105413714Y-73377431D01*
X105794120Y-73535000D01*
X106205868Y-73535000D01*
X106586274Y-73377431D01*
X106877425Y-73086280D01*
X107034994Y-72705874D01*
X107034994Y-72294126D01*
X106877425Y-71913720D01*
X106586274Y-71622569D01*
X106374771Y-71534962D01*
X107159380Y-71209966D01*
X107759966Y-70609380D01*
X108085000Y-69824678D01*
X108085000Y-68975322D01*
X107971495Y-68701296D01*
X110464671Y-71194473D01*
X110507071Y-71257929D01*
X110570527Y-71300329D01*
X110758462Y-71425904D01*
X110806605Y-71435480D01*
X110980148Y-71470000D01*
X110980152Y-71470000D01*
X111055000Y-71484888D01*
X111129848Y-71470000D01*
X117330153Y-71470000D01*
X117405000Y-71484888D01*
X117479847Y-71470000D01*
X117479852Y-71470000D01*
X117701537Y-71425904D01*
X117952929Y-71257929D01*
X117995331Y-71194470D01*
X119029802Y-70160000D01*
X120652560Y-70160000D01*
X120652560Y-70400000D01*
X120701843Y-70647765D01*
X120842191Y-70857809D01*
X121052235Y-70998157D01*
X121300000Y-71047440D01*
X121427610Y-71047440D01*
X121425112Y-71060000D01*
X121484097Y-71356537D01*
X121569859Y-71484888D01*
X121652072Y-71607929D01*
X121715528Y-71650329D01*
X123049671Y-72984473D01*
X123092071Y-73047929D01*
X123343463Y-73215904D01*
X123565148Y-73260000D01*
X123565152Y-73260000D01*
X123640000Y-73274888D01*
X123714848Y-73260000D01*
X124296301Y-73260000D01*
X124413732Y-73377431D01*
X124794138Y-73535000D01*
X125205886Y-73535000D01*
X125586292Y-73377431D01*
X125877443Y-73086280D01*
X126035012Y-72705874D01*
X126035012Y-72294126D01*
X125877443Y-71913720D01*
X125586292Y-71622569D01*
X125374881Y-71535000D01*
X125424678Y-71535000D01*
X126209380Y-71209966D01*
X126809966Y-70609380D01*
X127135000Y-69824678D01*
X127135000Y-68975322D01*
X126809966Y-68190620D01*
X126209380Y-67590034D01*
X125424678Y-67265000D01*
X124575322Y-67265000D01*
X123790620Y-67590034D01*
X123486267Y-67894387D01*
X123347765Y-67801843D01*
X123100000Y-67752560D01*
X122082030Y-67752560D01*
X122135000Y-67624678D01*
X122135000Y-66775322D01*
X121809966Y-65990620D01*
X121209380Y-65390034D01*
X120424678Y-65065000D01*
X119863560Y-65065000D01*
X120056697Y-64985000D01*
X120215385Y-64985000D01*
X120761185Y-64758922D01*
X121178922Y-64341185D01*
X121405000Y-63795385D01*
X121405000Y-63204615D01*
X121359596Y-63095000D01*
X121614678Y-63095000D01*
X122399380Y-62769966D01*
X122486283Y-62683063D01*
X122365000Y-62975866D01*
X122365000Y-64024134D01*
X122766155Y-64992608D01*
X123507392Y-65733845D01*
X124475866Y-66135000D01*
X125524134Y-66135000D01*
X126492608Y-65733845D01*
X127233845Y-64992608D01*
X127635000Y-64024134D01*
X127635000Y-62975866D01*
X127513717Y-62683063D01*
X127600620Y-62769966D01*
X128385322Y-63095000D01*
X128640404Y-63095000D01*
X128595000Y-63204615D01*
X128595000Y-63795385D01*
X128821078Y-64341185D01*
X129238815Y-64758922D01*
X129784615Y-64985000D01*
X129943303Y-64985000D01*
X130136440Y-65065000D01*
X129575322Y-65065000D01*
X128790620Y-65390034D01*
X128190034Y-65990620D01*
X127865000Y-66775322D01*
X127865000Y-67624678D01*
X128190034Y-68409380D01*
X128790620Y-69009966D01*
X129575322Y-69335000D01*
X130424678Y-69335000D01*
X131209380Y-69009966D01*
X131609885Y-68609461D01*
X131642191Y-68657809D01*
X131852235Y-68798157D01*
X132100000Y-68847440D01*
X134100000Y-68847440D01*
X134347765Y-68798157D01*
X134557809Y-68657809D01*
X134698157Y-68447765D01*
X134747440Y-68200000D01*
X134747440Y-67142361D01*
X136844473Y-65045329D01*
X136907929Y-65002929D01*
X137075904Y-64751537D01*
X137120000Y-64529852D01*
X137120000Y-64529848D01*
X137134888Y-64455001D01*
X137120000Y-64380154D01*
X137120000Y-59989846D01*
X137134888Y-59914999D01*
X137120000Y-59840152D01*
X137120000Y-59840148D01*
X137075904Y-59618463D01*
X136907929Y-59367071D01*
X136844473Y-59324671D01*
X132505331Y-54985530D01*
X132462929Y-54922071D01*
X132211537Y-54754096D01*
X131989852Y-54710000D01*
X131989847Y-54710000D01*
X131915000Y-54695112D01*
X131840153Y-54710000D01*
X121174846Y-54710000D01*
X121099999Y-54695112D01*
X121025152Y-54710000D01*
X121025148Y-54710000D01*
X120803463Y-54754096D01*
X120552071Y-54922071D01*
X120509671Y-54985527D01*
X118915528Y-56579671D01*
X118852072Y-56622071D01*
X118809672Y-56685527D01*
X118809671Y-56685528D01*
X118751518Y-56772560D01*
X118400000Y-56772560D01*
X118152235Y-56821843D01*
X117942191Y-56962191D01*
X117801843Y-57172235D01*
X117752560Y-57420000D01*
X117752560Y-57660000D01*
X117494802Y-57660000D01*
X117170000Y-57335199D01*
X117170000Y-57169126D01*
X117012431Y-56788720D01*
X116721280Y-56497569D01*
X116340874Y-56340000D01*
X115929126Y-56340000D01*
X115548720Y-56497569D01*
X115257569Y-56788720D01*
X115100000Y-57169126D01*
X115100000Y-57170198D01*
X112280331Y-54350530D01*
X112237929Y-54287071D01*
X111986537Y-54119096D01*
X111764852Y-54075000D01*
X111764847Y-54075000D01*
X111690000Y-54060112D01*
X111615153Y-54075000D01*
X102759848Y-54075000D01*
X102685000Y-54060112D01*
X102610152Y-54075000D01*
X102610148Y-54075000D01*
X102436605Y-54109520D01*
X102388462Y-54119096D01*
X102215001Y-54235000D01*
X102137071Y-54287071D01*
X102094671Y-54350527D01*
X99865528Y-56579671D01*
X99802072Y-56622071D01*
X99759672Y-56685527D01*
X99759671Y-56685528D01*
X99701518Y-56772560D01*
X99350000Y-56772560D01*
X99102235Y-56821843D01*
X98892191Y-56962191D01*
X98751843Y-57172235D01*
X98702560Y-57420000D01*
X98702560Y-57660000D01*
X98444768Y-57660000D01*
X98120000Y-57335233D01*
X98120000Y-57169160D01*
X97962431Y-56788754D01*
X97671280Y-56497603D01*
X97290874Y-56340034D01*
X97124801Y-56340034D01*
X97040297Y-56255530D01*
X97040295Y-56255527D01*
X92595297Y-51810530D01*
X92552895Y-51747071D01*
X92301503Y-51579096D01*
X92079818Y-51535000D01*
X92079813Y-51535000D01*
X92004966Y-51520112D01*
X91930119Y-51535000D01*
X58964848Y-51535000D01*
X58890000Y-51520112D01*
X58815152Y-51535000D01*
X58815148Y-51535000D01*
X58593463Y-51579096D01*
X58342071Y-51747071D01*
X58299671Y-51810527D01*
X56595528Y-53514671D01*
X56532072Y-53557071D01*
X56489672Y-53620527D01*
X56489671Y-53620528D01*
X56364097Y-53808463D01*
X56305112Y-54105000D01*
X56320001Y-54179852D01*
X56320000Y-64315153D01*
X56305112Y-64390000D01*
X56320000Y-64464847D01*
X56320000Y-64464851D01*
X56364096Y-64686536D01*
X56532071Y-64937929D01*
X56595530Y-64980331D01*
X60466896Y-68851698D01*
X60445000Y-68904561D01*
X60445000Y-69475439D01*
X60663466Y-70002862D01*
X61067138Y-70406534D01*
X61196216Y-70460000D01*
X61067138Y-70513466D01*
X60663466Y-70917138D01*
X60445000Y-71444561D01*
X60445000Y-72015439D01*
X60663466Y-72542862D01*
X61067138Y-72946534D01*
X61196216Y-73000000D01*
X61067138Y-73053466D01*
X60663466Y-73457138D01*
X60445000Y-73984561D01*
X60445000Y-74555439D01*
X60663466Y-75082862D01*
X61067138Y-75486534D01*
X61196216Y-75540000D01*
X61067138Y-75593466D01*
X60663466Y-75997138D01*
X60445000Y-76524561D01*
X60445000Y-77095439D01*
X60663466Y-77622862D01*
X61067138Y-78026534D01*
X61196216Y-78080000D01*
X61067138Y-78133466D01*
X60663466Y-78537138D01*
X60641570Y-78590000D01*
X59374848Y-78590000D01*
X59300000Y-78575112D01*
X59225152Y-78590000D01*
X59225148Y-78590000D01*
X59051605Y-78624520D01*
X59003462Y-78634096D01*
X58816418Y-78759076D01*
X58752071Y-78802071D01*
X58709671Y-78865527D01*
X58266207Y-79308991D01*
X58208839Y-79020582D01*
X57880625Y-78529375D01*
X57561522Y-78316157D01*
X57691358Y-78255183D01*
X58081645Y-77826924D01*
X58251476Y-77416890D01*
X58130155Y-77187000D01*
X56937000Y-77187000D01*
X56937000Y-77207000D01*
X56683000Y-77207000D01*
X56683000Y-77187000D01*
X55489845Y-77187000D01*
X55368524Y-77416890D01*
X55538355Y-77826924D01*
X55928642Y-78255183D01*
X56058478Y-78316157D01*
X55739375Y-78529375D01*
X55411161Y-79020582D01*
X55295908Y-79600000D01*
X55411161Y-80179418D01*
X55739375Y-80670625D01*
X56037761Y-80870000D01*
X55739375Y-81069375D01*
X55411161Y-81560582D01*
X55295908Y-82140000D01*
X55411161Y-82719418D01*
X55739375Y-83210625D01*
X56037761Y-83410000D01*
X55739375Y-83609375D01*
X55411161Y-84100582D01*
X55295908Y-84680000D01*
X55411161Y-85259418D01*
X55739375Y-85750625D01*
X56037761Y-85950000D01*
X55739375Y-86149375D01*
X55411161Y-86640582D01*
X55295908Y-87220000D01*
X55411161Y-87799418D01*
X55739375Y-88290625D01*
X56037761Y-88490000D01*
X55739375Y-88689375D01*
X55411161Y-89180582D01*
X55295908Y-89760000D01*
X55411161Y-90339418D01*
X55739375Y-90830625D01*
X56037761Y-91030000D01*
X55739375Y-91229375D01*
X55411161Y-91720582D01*
X55295908Y-92300000D01*
X55411161Y-92879418D01*
X55739375Y-93370625D01*
X55757619Y-93382816D01*
X55712235Y-93391843D01*
X55502191Y-93532191D01*
X55361843Y-93742235D01*
X55312560Y-93990000D01*
X55312560Y-95690000D01*
X55361843Y-95937765D01*
X55502191Y-96147809D01*
X55712235Y-96288157D01*
X55960000Y-96337440D01*
X57660000Y-96337440D01*
X57907765Y-96288157D01*
X58117809Y-96147809D01*
X58258157Y-95937765D01*
X58307440Y-95690000D01*
X58307440Y-94870915D01*
X59668356Y-93510000D01*
X60141867Y-93510000D01*
X60001161Y-93720582D01*
X59915000Y-94153744D01*
X59915000Y-95246255D01*
X60001161Y-95679417D01*
X60329375Y-96170625D01*
X60820582Y-96498839D01*
X61400000Y-96614092D01*
X61979417Y-96498839D01*
X62265000Y-96308019D01*
X62265000Y-96745657D01*
X62453018Y-97199571D01*
X62800429Y-97546982D01*
X63254343Y-97735000D01*
X63745657Y-97735000D01*
X64199571Y-97546982D01*
X64546982Y-97199571D01*
X64735000Y-96745657D01*
X64735000Y-96370604D01*
X64746763Y-96378464D01*
X64855918Y-96451399D01*
X65150524Y-96510000D01*
X65150529Y-96510000D01*
X65250000Y-96529786D01*
X65349471Y-96510000D01*
X66869159Y-96510000D01*
X66968630Y-96529786D01*
X67068101Y-96510000D01*
X67068106Y-96510000D01*
X67362712Y-96451399D01*
X67696799Y-96228169D01*
X67753147Y-96143838D01*
X68416811Y-95480174D01*
X68301843Y-95652235D01*
X68252560Y-95900000D01*
X68252560Y-97400000D01*
X68301843Y-97647765D01*
X68442191Y-97857809D01*
X68652235Y-97998157D01*
X68661500Y-98000000D01*
X68652235Y-98001843D01*
X68442191Y-98142191D01*
X68301843Y-98352235D01*
X68252560Y-98600000D01*
X68252560Y-100100000D01*
X68301843Y-100347765D01*
X68442191Y-100557809D01*
X68602560Y-100664965D01*
X68602560Y-100768044D01*
X68283466Y-101087138D01*
X68065000Y-101614561D01*
X68065000Y-102185439D01*
X68283466Y-102712862D01*
X68687138Y-103116534D01*
X69214561Y-103335000D01*
X69785439Y-103335000D01*
X70312862Y-103116534D01*
X70716534Y-102712862D01*
X70935000Y-102185439D01*
X70935000Y-101614561D01*
X70716534Y-101087138D01*
X70397440Y-100768044D01*
X70397440Y-100664965D01*
X70557809Y-100557809D01*
X70698157Y-100347765D01*
X70747440Y-100100000D01*
X70747440Y-98600000D01*
X70698157Y-98352235D01*
X70557809Y-98142191D01*
X70347765Y-98001843D01*
X70338500Y-98000000D01*
X70347765Y-97998157D01*
X70557809Y-97857809D01*
X70698157Y-97647765D01*
X70747440Y-97400000D01*
X70747440Y-95900000D01*
X70698157Y-95652235D01*
X70557809Y-95442191D01*
X70397440Y-95335035D01*
X70397440Y-95231956D01*
X70519396Y-95110000D01*
X71915000Y-95110000D01*
X71915000Y-95246255D01*
X72001161Y-95679417D01*
X72329375Y-96170625D01*
X72820582Y-96498839D01*
X73400000Y-96614092D01*
X73979417Y-96498839D01*
X74265000Y-96308019D01*
X74265000Y-96745657D01*
X74453018Y-97199571D01*
X74800429Y-97546982D01*
X75254343Y-97735000D01*
X75745657Y-97735000D01*
X76199571Y-97546982D01*
X76546982Y-97199571D01*
X76735000Y-96745657D01*
X76735000Y-96254343D01*
X76546982Y-95800429D01*
X76199571Y-95453018D01*
X75745657Y-95265000D01*
X75254343Y-95265000D01*
X74847773Y-95433407D01*
X74885000Y-95246256D01*
X74885000Y-94153745D01*
X74798839Y-93720582D01*
X74535856Y-93327000D01*
X76115000Y-93327000D01*
X76115000Y-93727000D01*
X76276640Y-94285618D01*
X76639749Y-94739856D01*
X77149048Y-95020562D01*
X77243110Y-95041476D01*
X77473000Y-94920155D01*
X77473000Y-93327000D01*
X76115000Y-93327000D01*
X74535856Y-93327000D01*
X74470625Y-93229375D01*
X73979418Y-92901161D01*
X73400000Y-92785908D01*
X72820583Y-92901161D01*
X72537965Y-93090000D01*
X70519396Y-93090000D01*
X70312862Y-92883466D01*
X69804753Y-92673000D01*
X76115000Y-92673000D01*
X76115000Y-93073000D01*
X77473000Y-93073000D01*
X77473000Y-91479845D01*
X77243110Y-91358524D01*
X77149048Y-91379438D01*
X76639749Y-91660144D01*
X76276640Y-92114382D01*
X76115000Y-92673000D01*
X69804753Y-92673000D01*
X69785439Y-92665000D01*
X69214561Y-92665000D01*
X68687138Y-92883466D01*
X68480604Y-93090000D01*
X68468101Y-93090000D01*
X68368630Y-93070214D01*
X68269159Y-93090000D01*
X68269154Y-93090000D01*
X67974548Y-93148601D01*
X67974546Y-93148602D01*
X67974547Y-93148602D01*
X67724792Y-93315482D01*
X67724790Y-93315484D01*
X67640461Y-93371831D01*
X67584114Y-93456160D01*
X67033100Y-94007174D01*
X67085000Y-93746256D01*
X67085000Y-92653745D01*
X66998839Y-92220582D01*
X66691088Y-91760000D01*
X75525153Y-91760000D01*
X75600000Y-91774888D01*
X75674847Y-91760000D01*
X75674852Y-91760000D01*
X75896537Y-91715904D01*
X76147929Y-91547929D01*
X76190331Y-91484470D01*
X76714063Y-90960739D01*
X76774716Y-90920211D01*
X76834561Y-90945000D01*
X77405439Y-90945000D01*
X77932862Y-90726534D01*
X78336534Y-90322862D01*
X78555000Y-89795439D01*
X78555000Y-89224561D01*
X78336534Y-88697138D01*
X77932862Y-88293466D01*
X77803784Y-88240000D01*
X77932862Y-88186534D01*
X78336534Y-87782862D01*
X78555000Y-87255439D01*
X78555000Y-86684561D01*
X78336534Y-86157138D01*
X77932862Y-85753466D01*
X77803784Y-85700000D01*
X77932862Y-85646534D01*
X78336534Y-85242862D01*
X78555000Y-84715439D01*
X78555000Y-84144561D01*
X78336534Y-83617138D01*
X77932862Y-83213466D01*
X77803784Y-83160000D01*
X77932862Y-83106534D01*
X78336534Y-82702862D01*
X78555000Y-82175439D01*
X78555000Y-81604561D01*
X78336534Y-81077138D01*
X77932862Y-80673466D01*
X77803784Y-80620000D01*
X77932862Y-80566534D01*
X78336534Y-80162862D01*
X78555000Y-79635439D01*
X78555000Y-79319802D01*
X78740001Y-79504803D01*
X78740000Y-91885005D01*
X78560251Y-91660144D01*
X78050952Y-91379438D01*
X77956890Y-91358524D01*
X77727000Y-91479845D01*
X77727000Y-93073000D01*
X77747000Y-93073000D01*
X77747000Y-93327000D01*
X77727000Y-93327000D01*
X77727000Y-94920155D01*
X77956890Y-95041476D01*
X78050952Y-95020562D01*
X78560251Y-94739856D01*
X78740000Y-94514996D01*
X78740000Y-95274851D01*
X78740001Y-95274854D01*
X78740000Y-96385198D01*
X74640936Y-100484263D01*
X74470625Y-100229375D01*
X74426662Y-100200000D01*
X74470625Y-100170625D01*
X74798839Y-99679418D01*
X74885000Y-99246256D01*
X74885000Y-98153745D01*
X74798839Y-97720582D01*
X74470625Y-97229375D01*
X73979418Y-96901161D01*
X73400000Y-96785908D01*
X72820583Y-96901161D01*
X72329375Y-97229375D01*
X72001161Y-97720582D01*
X71915000Y-98153744D01*
X71915000Y-99246255D01*
X72001161Y-99679417D01*
X72329375Y-100170625D01*
X72373338Y-100200000D01*
X72329375Y-100229375D01*
X72001161Y-100720582D01*
X71915000Y-101153744D01*
X71915000Y-102246255D01*
X72001161Y-102679417D01*
X72329375Y-103170625D01*
X72820582Y-103498839D01*
X73400000Y-103614092D01*
X73979417Y-103498839D01*
X74265000Y-103308019D01*
X74265000Y-103745657D01*
X74453018Y-104199571D01*
X74543447Y-104290000D01*
X64456553Y-104290000D01*
X64546982Y-104199571D01*
X64735000Y-103745657D01*
X64735000Y-103254343D01*
X64546982Y-102800429D01*
X64199571Y-102453018D01*
X63745657Y-102265000D01*
X63254343Y-102265000D01*
X62847773Y-102433407D01*
X62885000Y-102246256D01*
X62885000Y-101153745D01*
X62798839Y-100720582D01*
X62470625Y-100229375D01*
X62426662Y-100200000D01*
X62470625Y-100170625D01*
X62798839Y-99679418D01*
X62885000Y-99246256D01*
X62885000Y-98153745D01*
X62798839Y-97720582D01*
X62470625Y-97229375D01*
X61979418Y-96901161D01*
X61400000Y-96785908D01*
X60820583Y-96901161D01*
X60329375Y-97229375D01*
X60001161Y-97720582D01*
X59915000Y-98153744D01*
X59915000Y-99246255D01*
X60001161Y-99679417D01*
X60329375Y-100170625D01*
X60373338Y-100200000D01*
X60329375Y-100229375D01*
X60001161Y-100720582D01*
X59915000Y-101153744D01*
X59915000Y-102246255D01*
X60001161Y-102679417D01*
X60329375Y-103170625D01*
X60820582Y-103498839D01*
X61400000Y-103614092D01*
X61979417Y-103498839D01*
X62265000Y-103308019D01*
X62265000Y-103745657D01*
X62453018Y-104199571D01*
X62543447Y-104290000D01*
X55031618Y-104290000D01*
X54240807Y-104219422D01*
X53505611Y-104018295D01*
X52817645Y-103690152D01*
X52198672Y-103245374D01*
X51668239Y-102698012D01*
X51243117Y-102065362D01*
X50936749Y-101367439D01*
X50757501Y-100620819D01*
X50710000Y-99973970D01*
X50710000Y-76703110D01*
X55368524Y-76703110D01*
X55489845Y-76933000D01*
X56683000Y-76933000D01*
X56683000Y-75739181D01*
X56937000Y-75739181D01*
X56937000Y-76933000D01*
X58130155Y-76933000D01*
X58251476Y-76703110D01*
X58081645Y-76293076D01*
X57691358Y-75864817D01*
X57166892Y-75618514D01*
X56937000Y-75739181D01*
X56683000Y-75739181D01*
X56453108Y-75618514D01*
X55928642Y-75864817D01*
X55538355Y-76293076D01*
X55368524Y-76703110D01*
X50710000Y-76703110D01*
X50710000Y-55031618D01*
X50780578Y-54240808D01*
X50981705Y-53505611D01*
X51309846Y-52817649D01*
X51754628Y-52198669D01*
X52301988Y-51668239D01*
X52934639Y-51243116D01*
X53632561Y-50936749D01*
X54379183Y-50757501D01*
X55026030Y-50710000D01*
X135968382Y-50710000D01*
X136759192Y-50780578D01*
G36*
X64201161Y-92220582D02*
X64115000Y-92653744D01*
X64115000Y-92936645D01*
X63034518Y-91856163D01*
X62978169Y-91771831D01*
X62960463Y-91760000D01*
X64508912Y-91760000D01*
X64201161Y-92220582D01*
X64201161Y-92220582D01*
G37*
X64201161Y-92220582D02*
X64115000Y-92653744D01*
X64115000Y-92936645D01*
X63034518Y-91856163D01*
X62978169Y-91771831D01*
X62960463Y-91760000D01*
X64508912Y-91760000D01*
X64201161Y-92220582D01*
G36*
X60629143Y-90240000D02*
X59724848Y-90240000D01*
X59650000Y-90225112D01*
X59575152Y-90240000D01*
X59575148Y-90240000D01*
X59353463Y-90284096D01*
X59102071Y-90452071D01*
X59059671Y-90515527D01*
X58335199Y-91240000D01*
X57887724Y-91240000D01*
X57880625Y-91229375D01*
X57582239Y-91030000D01*
X57880625Y-90830625D01*
X58208839Y-90339418D01*
X58232593Y-90220000D01*
X60620859Y-90220000D01*
X60629143Y-90240000D01*
X60629143Y-90240000D01*
G37*
X60629143Y-90240000D02*
X59724848Y-90240000D01*
X59650000Y-90225112D01*
X59575152Y-90240000D01*
X59575148Y-90240000D01*
X59353463Y-90284096D01*
X59102071Y-90452071D01*
X59059671Y-90515527D01*
X58335199Y-91240000D01*
X57887724Y-91240000D01*
X57880625Y-91229375D01*
X57582239Y-91030000D01*
X57880625Y-90830625D01*
X58208839Y-90339418D01*
X58232593Y-90220000D01*
X60620859Y-90220000D01*
X60629143Y-90240000D01*
G36*
X117752560Y-78470000D02*
X117801843Y-78717765D01*
X117942191Y-78927809D01*
X118152235Y-79068157D01*
X118400000Y-79117440D01*
X119248803Y-79117440D01*
X119055000Y-79585322D01*
X119055000Y-80434678D01*
X119274666Y-80965000D01*
X119184724Y-80965000D01*
X118602170Y-81206302D01*
X118156302Y-81652170D01*
X117915000Y-82234724D01*
X117915000Y-82865276D01*
X118156302Y-83447830D01*
X118602170Y-83893698D01*
X119184724Y-84135000D01*
X119527038Y-84135000D01*
X118790620Y-84440034D01*
X118190034Y-85040620D01*
X117865000Y-85825322D01*
X117865000Y-86674678D01*
X118190034Y-87459380D01*
X118790620Y-88059966D01*
X119575322Y-88385000D01*
X120424678Y-88385000D01*
X120652560Y-88290608D01*
X120652560Y-89022638D01*
X118770203Y-90904996D01*
X118648711Y-90904996D01*
X118531280Y-90787565D01*
X118150874Y-90629996D01*
X117739126Y-90629996D01*
X117358720Y-90787565D01*
X117241289Y-90904996D01*
X106915000Y-90904996D01*
X106915000Y-90734116D01*
X106783151Y-90415805D01*
X107159380Y-90259966D01*
X107759966Y-89659380D01*
X108085000Y-88874678D01*
X108085000Y-88025322D01*
X107759966Y-87240620D01*
X107159380Y-86640034D01*
X106374678Y-86315000D01*
X105525322Y-86315000D01*
X104740620Y-86640034D01*
X104436267Y-86944387D01*
X104297765Y-86851843D01*
X104050000Y-86802560D01*
X103032030Y-86802560D01*
X103085000Y-86674678D01*
X103085000Y-85825322D01*
X102759966Y-85040620D01*
X102159380Y-84440034D01*
X101374678Y-84115000D01*
X100813560Y-84115000D01*
X101006697Y-84035000D01*
X101165385Y-84035000D01*
X101711185Y-83808922D01*
X102128922Y-83391185D01*
X102355000Y-82845385D01*
X102355000Y-82254615D01*
X102309596Y-82145000D01*
X102564678Y-82145000D01*
X103349380Y-81819966D01*
X103436283Y-81733063D01*
X103315000Y-82025866D01*
X103315000Y-83074134D01*
X103716155Y-84042608D01*
X104457392Y-84783845D01*
X105425866Y-85185000D01*
X106474134Y-85185000D01*
X107442608Y-84783845D01*
X108183845Y-84042608D01*
X108585000Y-83074134D01*
X108585000Y-82025866D01*
X108463717Y-81733063D01*
X108550620Y-81819966D01*
X109335322Y-82145000D01*
X109590404Y-82145000D01*
X109545000Y-82254615D01*
X109545000Y-82845385D01*
X109771078Y-83391185D01*
X110188815Y-83808922D01*
X110734615Y-84035000D01*
X110893303Y-84035000D01*
X111086440Y-84115000D01*
X110525322Y-84115000D01*
X109740620Y-84440034D01*
X109140034Y-85040620D01*
X108815000Y-85825322D01*
X108815000Y-86674678D01*
X109140034Y-87459380D01*
X109740620Y-88059966D01*
X110525322Y-88385000D01*
X111374678Y-88385000D01*
X112159380Y-88059966D01*
X112559885Y-87659461D01*
X112592191Y-87707809D01*
X112802235Y-87848157D01*
X113050000Y-87897440D01*
X115050000Y-87897440D01*
X115297765Y-87848157D01*
X115507809Y-87707809D01*
X115648157Y-87497765D01*
X115697440Y-87250000D01*
X115697440Y-85557361D01*
X117159473Y-84095329D01*
X117222929Y-84052929D01*
X117390904Y-83801537D01*
X117435000Y-83579852D01*
X117435000Y-83579848D01*
X117449888Y-83505000D01*
X117435000Y-83430152D01*
X117435000Y-78944847D01*
X117449888Y-78870000D01*
X117435000Y-78795153D01*
X117435000Y-78795148D01*
X117390904Y-78573463D01*
X117222929Y-78322071D01*
X117159473Y-78279671D01*
X117110957Y-78231155D01*
X117179999Y-78244888D01*
X117254846Y-78230000D01*
X117752560Y-78230000D01*
X117752560Y-78470000D01*
X117752560Y-78470000D01*
G37*
X117752560Y-78470000D02*
X117801843Y-78717765D01*
X117942191Y-78927809D01*
X118152235Y-79068157D01*
X118400000Y-79117440D01*
X119248803Y-79117440D01*
X119055000Y-79585322D01*
X119055000Y-80434678D01*
X119274666Y-80965000D01*
X119184724Y-80965000D01*
X118602170Y-81206302D01*
X118156302Y-81652170D01*
X117915000Y-82234724D01*
X117915000Y-82865276D01*
X118156302Y-83447830D01*
X118602170Y-83893698D01*
X119184724Y-84135000D01*
X119527038Y-84135000D01*
X118790620Y-84440034D01*
X118190034Y-85040620D01*
X117865000Y-85825322D01*
X117865000Y-86674678D01*
X118190034Y-87459380D01*
X118790620Y-88059966D01*
X119575322Y-88385000D01*
X120424678Y-88385000D01*
X120652560Y-88290608D01*
X120652560Y-89022638D01*
X118770203Y-90904996D01*
X118648711Y-90904996D01*
X118531280Y-90787565D01*
X118150874Y-90629996D01*
X117739126Y-90629996D01*
X117358720Y-90787565D01*
X117241289Y-90904996D01*
X106915000Y-90904996D01*
X106915000Y-90734116D01*
X106783151Y-90415805D01*
X107159380Y-90259966D01*
X107759966Y-89659380D01*
X108085000Y-88874678D01*
X108085000Y-88025322D01*
X107759966Y-87240620D01*
X107159380Y-86640034D01*
X106374678Y-86315000D01*
X105525322Y-86315000D01*
X104740620Y-86640034D01*
X104436267Y-86944387D01*
X104297765Y-86851843D01*
X104050000Y-86802560D01*
X103032030Y-86802560D01*
X103085000Y-86674678D01*
X103085000Y-85825322D01*
X102759966Y-85040620D01*
X102159380Y-84440034D01*
X101374678Y-84115000D01*
X100813560Y-84115000D01*
X101006697Y-84035000D01*
X101165385Y-84035000D01*
X101711185Y-83808922D01*
X102128922Y-83391185D01*
X102355000Y-82845385D01*
X102355000Y-82254615D01*
X102309596Y-82145000D01*
X102564678Y-82145000D01*
X103349380Y-81819966D01*
X103436283Y-81733063D01*
X103315000Y-82025866D01*
X103315000Y-83074134D01*
X103716155Y-84042608D01*
X104457392Y-84783845D01*
X105425866Y-85185000D01*
X106474134Y-85185000D01*
X107442608Y-84783845D01*
X108183845Y-84042608D01*
X108585000Y-83074134D01*
X108585000Y-82025866D01*
X108463717Y-81733063D01*
X108550620Y-81819966D01*
X109335322Y-82145000D01*
X109590404Y-82145000D01*
X109545000Y-82254615D01*
X109545000Y-82845385D01*
X109771078Y-83391185D01*
X110188815Y-83808922D01*
X110734615Y-84035000D01*
X110893303Y-84035000D01*
X111086440Y-84115000D01*
X110525322Y-84115000D01*
X109740620Y-84440034D01*
X109140034Y-85040620D01*
X108815000Y-85825322D01*
X108815000Y-86674678D01*
X109140034Y-87459380D01*
X109740620Y-88059966D01*
X110525322Y-88385000D01*
X111374678Y-88385000D01*
X112159380Y-88059966D01*
X112559885Y-87659461D01*
X112592191Y-87707809D01*
X112802235Y-87848157D01*
X113050000Y-87897440D01*
X115050000Y-87897440D01*
X115297765Y-87848157D01*
X115507809Y-87707809D01*
X115648157Y-87497765D01*
X115697440Y-87250000D01*
X115697440Y-85557361D01*
X117159473Y-84095329D01*
X117222929Y-84052929D01*
X117390904Y-83801537D01*
X117435000Y-83579852D01*
X117435000Y-83579848D01*
X117449888Y-83505000D01*
X117435000Y-83430152D01*
X117435000Y-78944847D01*
X117449888Y-78870000D01*
X117435000Y-78795153D01*
X117435000Y-78795148D01*
X117390904Y-78573463D01*
X117222929Y-78322071D01*
X117159473Y-78279671D01*
X117110957Y-78231155D01*
X117179999Y-78244888D01*
X117254846Y-78230000D01*
X117752560Y-78230000D01*
X117752560Y-78470000D01*
G36*
X60663466Y-87782862D02*
X61067138Y-88186534D01*
X61196216Y-88240000D01*
X61067138Y-88293466D01*
X60663466Y-88697138D01*
X60662281Y-88700000D01*
X57887724Y-88700000D01*
X57880625Y-88689375D01*
X57582239Y-88490000D01*
X57880625Y-88290625D01*
X58208839Y-87799418D01*
X58232593Y-87680000D01*
X60620859Y-87680000D01*
X60663466Y-87782862D01*
X60663466Y-87782862D01*
G37*
X60663466Y-87782862D02*
X61067138Y-88186534D01*
X61196216Y-88240000D01*
X61067138Y-88293466D01*
X60663466Y-88697138D01*
X60662281Y-88700000D01*
X57887724Y-88700000D01*
X57880625Y-88689375D01*
X57582239Y-88490000D01*
X57880625Y-88290625D01*
X58208839Y-87799418D01*
X58232593Y-87680000D01*
X60620859Y-87680000D01*
X60663466Y-87782862D01*
G36*
X60663466Y-85242862D02*
X61067138Y-85646534D01*
X61196216Y-85700000D01*
X61067138Y-85753466D01*
X60663466Y-86157138D01*
X60662281Y-86160000D01*
X57887724Y-86160000D01*
X57880625Y-86149375D01*
X57582239Y-85950000D01*
X57880625Y-85750625D01*
X58208839Y-85259418D01*
X58232593Y-85140000D01*
X60620859Y-85140000D01*
X60663466Y-85242862D01*
X60663466Y-85242862D01*
G37*
X60663466Y-85242862D02*
X61067138Y-85646534D01*
X61196216Y-85700000D01*
X61067138Y-85753466D01*
X60663466Y-86157138D01*
X60662281Y-86160000D01*
X57887724Y-86160000D01*
X57880625Y-86149375D01*
X57582239Y-85950000D01*
X57880625Y-85750625D01*
X58208839Y-85259418D01*
X58232593Y-85140000D01*
X60620859Y-85140000D01*
X60663466Y-85242862D01*
G36*
X115915000Y-79184802D02*
X115915001Y-83190197D01*
X114502639Y-84602560D01*
X113050000Y-84602560D01*
X112802235Y-84651843D01*
X112592191Y-84792191D01*
X112559885Y-84840539D01*
X112159380Y-84440034D01*
X111422962Y-84135000D01*
X111765276Y-84135000D01*
X112347830Y-83893698D01*
X112793698Y-83447830D01*
X113035000Y-82865276D01*
X113035000Y-82234724D01*
X112795881Y-81657440D01*
X113735000Y-81657440D01*
X113735000Y-81710874D01*
X113892569Y-82091280D01*
X114183720Y-82382431D01*
X114564126Y-82540000D01*
X114975874Y-82540000D01*
X115356280Y-82382431D01*
X115647431Y-82091280D01*
X115805000Y-81710874D01*
X115805000Y-81299126D01*
X115647431Y-80918720D01*
X115530000Y-80801289D01*
X115530000Y-80754846D01*
X115544888Y-80679999D01*
X115530000Y-80605152D01*
X115530000Y-80605148D01*
X115485904Y-80383463D01*
X115317929Y-80132071D01*
X115254473Y-80089671D01*
X114690331Y-79525530D01*
X114647929Y-79462071D01*
X114497440Y-79361517D01*
X114497440Y-79010000D01*
X114448157Y-78762235D01*
X114307809Y-78552191D01*
X114097765Y-78411843D01*
X113850000Y-78362560D01*
X111850000Y-78362560D01*
X111602235Y-78411843D01*
X111392191Y-78552191D01*
X111363891Y-78594545D01*
X110969380Y-78200034D01*
X110567474Y-78033559D01*
X110625000Y-77894678D01*
X110625000Y-77045322D01*
X110299966Y-76260620D01*
X109699380Y-75660034D01*
X108914678Y-75335000D01*
X108065322Y-75335000D01*
X107280620Y-75660034D01*
X106680034Y-76260620D01*
X106355000Y-77045322D01*
X106355000Y-77894678D01*
X106680034Y-78679380D01*
X107280620Y-79279966D01*
X107682526Y-79446441D01*
X107625000Y-79585322D01*
X107625000Y-80434678D01*
X107670162Y-80543709D01*
X107442608Y-80316155D01*
X106474134Y-79915000D01*
X105425866Y-79915000D01*
X104457392Y-80316155D01*
X104229838Y-80543709D01*
X104275000Y-80434678D01*
X104275000Y-79585322D01*
X104217474Y-79446441D01*
X104619380Y-79279966D01*
X105219966Y-78679380D01*
X105545000Y-77894678D01*
X105545000Y-77045322D01*
X105219966Y-76260620D01*
X104619380Y-75660034D01*
X103834678Y-75335000D01*
X102985322Y-75335000D01*
X102200620Y-75660034D01*
X101824093Y-76036561D01*
X101807809Y-76012191D01*
X101597765Y-75871843D01*
X101350000Y-75822560D01*
X101302241Y-75822560D01*
X101844802Y-75280000D01*
X112010199Y-75280000D01*
X115915000Y-79184802D01*
X115915000Y-79184802D01*
G37*
X115915000Y-79184802D02*
X115915001Y-83190197D01*
X114502639Y-84602560D01*
X113050000Y-84602560D01*
X112802235Y-84651843D01*
X112592191Y-84792191D01*
X112559885Y-84840539D01*
X112159380Y-84440034D01*
X111422962Y-84135000D01*
X111765276Y-84135000D01*
X112347830Y-83893698D01*
X112793698Y-83447830D01*
X113035000Y-82865276D01*
X113035000Y-82234724D01*
X112795881Y-81657440D01*
X113735000Y-81657440D01*
X113735000Y-81710874D01*
X113892569Y-82091280D01*
X114183720Y-82382431D01*
X114564126Y-82540000D01*
X114975874Y-82540000D01*
X115356280Y-82382431D01*
X115647431Y-82091280D01*
X115805000Y-81710874D01*
X115805000Y-81299126D01*
X115647431Y-80918720D01*
X115530000Y-80801289D01*
X115530000Y-80754846D01*
X115544888Y-80679999D01*
X115530000Y-80605152D01*
X115530000Y-80605148D01*
X115485904Y-80383463D01*
X115317929Y-80132071D01*
X115254473Y-80089671D01*
X114690331Y-79525530D01*
X114647929Y-79462071D01*
X114497440Y-79361517D01*
X114497440Y-79010000D01*
X114448157Y-78762235D01*
X114307809Y-78552191D01*
X114097765Y-78411843D01*
X113850000Y-78362560D01*
X111850000Y-78362560D01*
X111602235Y-78411843D01*
X111392191Y-78552191D01*
X111363891Y-78594545D01*
X110969380Y-78200034D01*
X110567474Y-78033559D01*
X110625000Y-77894678D01*
X110625000Y-77045322D01*
X110299966Y-76260620D01*
X109699380Y-75660034D01*
X108914678Y-75335000D01*
X108065322Y-75335000D01*
X107280620Y-75660034D01*
X106680034Y-76260620D01*
X106355000Y-77045322D01*
X106355000Y-77894678D01*
X106680034Y-78679380D01*
X107280620Y-79279966D01*
X107682526Y-79446441D01*
X107625000Y-79585322D01*
X107625000Y-80434678D01*
X107670162Y-80543709D01*
X107442608Y-80316155D01*
X106474134Y-79915000D01*
X105425866Y-79915000D01*
X104457392Y-80316155D01*
X104229838Y-80543709D01*
X104275000Y-80434678D01*
X104275000Y-79585322D01*
X104217474Y-79446441D01*
X104619380Y-79279966D01*
X105219966Y-78679380D01*
X105545000Y-77894678D01*
X105545000Y-77045322D01*
X105219966Y-76260620D01*
X104619380Y-75660034D01*
X103834678Y-75335000D01*
X102985322Y-75335000D01*
X102200620Y-75660034D01*
X101824093Y-76036561D01*
X101807809Y-76012191D01*
X101597765Y-75871843D01*
X101350000Y-75822560D01*
X101302241Y-75822560D01*
X101844802Y-75280000D01*
X112010199Y-75280000D01*
X115915000Y-79184802D01*
G36*
X135600000Y-79279802D02*
X135600001Y-82555197D01*
X133552639Y-84602560D01*
X132100000Y-84602560D01*
X131852235Y-84651843D01*
X131642191Y-84792191D01*
X131609885Y-84840539D01*
X131209380Y-84440034D01*
X130472962Y-84135000D01*
X130815276Y-84135000D01*
X131397830Y-83893698D01*
X131843698Y-83447830D01*
X132085000Y-82865276D01*
X132085000Y-82234724D01*
X131845881Y-81657440D01*
X132844990Y-81657440D01*
X132844990Y-81705874D01*
X133002559Y-82086280D01*
X133293710Y-82377431D01*
X133674116Y-82535000D01*
X134085864Y-82535000D01*
X134466270Y-82377431D01*
X134757421Y-82086280D01*
X134914990Y-81705874D01*
X134914990Y-81294126D01*
X134757421Y-80913720D01*
X134648965Y-80805264D01*
X134639990Y-80760142D01*
X134639990Y-80760138D01*
X134595894Y-80538453D01*
X134427919Y-80287061D01*
X134364463Y-80244661D01*
X133645331Y-79525530D01*
X133602929Y-79462071D01*
X133547440Y-79424994D01*
X133547440Y-79010000D01*
X133498157Y-78762235D01*
X133357809Y-78552191D01*
X133147765Y-78411843D01*
X132900000Y-78362560D01*
X130900000Y-78362560D01*
X130652235Y-78411843D01*
X130442191Y-78552191D01*
X130413891Y-78594545D01*
X130019380Y-78200034D01*
X129617474Y-78033559D01*
X129675000Y-77894678D01*
X129675000Y-77045322D01*
X129349966Y-76260620D01*
X128749380Y-75660034D01*
X127964678Y-75335000D01*
X127115322Y-75335000D01*
X126330620Y-75660034D01*
X125730034Y-76260620D01*
X125405000Y-77045322D01*
X125405000Y-77894678D01*
X125730034Y-78679380D01*
X126330620Y-79279966D01*
X126732526Y-79446441D01*
X126675000Y-79585322D01*
X126675000Y-80434678D01*
X126720162Y-80543709D01*
X126492608Y-80316155D01*
X125524134Y-79915000D01*
X124475866Y-79915000D01*
X123507392Y-80316155D01*
X123279838Y-80543709D01*
X123325000Y-80434678D01*
X123325000Y-79585322D01*
X123267474Y-79446441D01*
X123669380Y-79279966D01*
X124269966Y-78679380D01*
X124595000Y-77894678D01*
X124595000Y-77045322D01*
X124269966Y-76260620D01*
X123669380Y-75660034D01*
X122884678Y-75335000D01*
X122035322Y-75335000D01*
X121250620Y-75660034D01*
X120874093Y-76036561D01*
X120857809Y-76012191D01*
X120752785Y-75942016D01*
X121414802Y-75280000D01*
X131600199Y-75280000D01*
X135600000Y-79279802D01*
X135600000Y-79279802D01*
G37*
X135600000Y-79279802D02*
X135600001Y-82555197D01*
X133552639Y-84602560D01*
X132100000Y-84602560D01*
X131852235Y-84651843D01*
X131642191Y-84792191D01*
X131609885Y-84840539D01*
X131209380Y-84440034D01*
X130472962Y-84135000D01*
X130815276Y-84135000D01*
X131397830Y-83893698D01*
X131843698Y-83447830D01*
X132085000Y-82865276D01*
X132085000Y-82234724D01*
X131845881Y-81657440D01*
X132844990Y-81657440D01*
X132844990Y-81705874D01*
X133002559Y-82086280D01*
X133293710Y-82377431D01*
X133674116Y-82535000D01*
X134085864Y-82535000D01*
X134466270Y-82377431D01*
X134757421Y-82086280D01*
X134914990Y-81705874D01*
X134914990Y-81294126D01*
X134757421Y-80913720D01*
X134648965Y-80805264D01*
X134639990Y-80760142D01*
X134639990Y-80760138D01*
X134595894Y-80538453D01*
X134427919Y-80287061D01*
X134364463Y-80244661D01*
X133645331Y-79525530D01*
X133602929Y-79462071D01*
X133547440Y-79424994D01*
X133547440Y-79010000D01*
X133498157Y-78762235D01*
X133357809Y-78552191D01*
X133147765Y-78411843D01*
X132900000Y-78362560D01*
X130900000Y-78362560D01*
X130652235Y-78411843D01*
X130442191Y-78552191D01*
X130413891Y-78594545D01*
X130019380Y-78200034D01*
X129617474Y-78033559D01*
X129675000Y-77894678D01*
X129675000Y-77045322D01*
X129349966Y-76260620D01*
X128749380Y-75660034D01*
X127964678Y-75335000D01*
X127115322Y-75335000D01*
X126330620Y-75660034D01*
X125730034Y-76260620D01*
X125405000Y-77045322D01*
X125405000Y-77894678D01*
X125730034Y-78679380D01*
X126330620Y-79279966D01*
X126732526Y-79446441D01*
X126675000Y-79585322D01*
X126675000Y-80434678D01*
X126720162Y-80543709D01*
X126492608Y-80316155D01*
X125524134Y-79915000D01*
X124475866Y-79915000D01*
X123507392Y-80316155D01*
X123279838Y-80543709D01*
X123325000Y-80434678D01*
X123325000Y-79585322D01*
X123267474Y-79446441D01*
X123669380Y-79279966D01*
X124269966Y-78679380D01*
X124595000Y-77894678D01*
X124595000Y-77045322D01*
X124269966Y-76260620D01*
X123669380Y-75660034D01*
X122884678Y-75335000D01*
X122035322Y-75335000D01*
X121250620Y-75660034D01*
X120874093Y-76036561D01*
X120857809Y-76012191D01*
X120752785Y-75942016D01*
X121414802Y-75280000D01*
X131600199Y-75280000D01*
X135600000Y-79279802D01*
G36*
X60663466Y-80162862D02*
X61067138Y-80566534D01*
X61196216Y-80620000D01*
X61067138Y-80673466D01*
X60663466Y-81077138D01*
X60445000Y-81604561D01*
X60445000Y-82175439D01*
X60663466Y-82702862D01*
X61067138Y-83106534D01*
X61196216Y-83160000D01*
X61067138Y-83213466D01*
X60663466Y-83617138D01*
X60662281Y-83620000D01*
X57887724Y-83620000D01*
X57880625Y-83609375D01*
X57582239Y-83410000D01*
X57880625Y-83210625D01*
X58208839Y-82719418D01*
X58324092Y-82140000D01*
X58208839Y-81560582D01*
X58190967Y-81533834D01*
X59614802Y-80110000D01*
X60641570Y-80110000D01*
X60663466Y-80162862D01*
X60663466Y-80162862D01*
G37*
X60663466Y-80162862D02*
X61067138Y-80566534D01*
X61196216Y-80620000D01*
X61067138Y-80673466D01*
X60663466Y-81077138D01*
X60445000Y-81604561D01*
X60445000Y-82175439D01*
X60663466Y-82702862D01*
X61067138Y-83106534D01*
X61196216Y-83160000D01*
X61067138Y-83213466D01*
X60663466Y-83617138D01*
X60662281Y-83620000D01*
X57887724Y-83620000D01*
X57880625Y-83609375D01*
X57582239Y-83410000D01*
X57880625Y-83210625D01*
X58208839Y-82719418D01*
X58324092Y-82140000D01*
X58208839Y-81560582D01*
X58190967Y-81533834D01*
X59614802Y-80110000D01*
X60641570Y-80110000D01*
X60663466Y-80162862D01*
G36*
X117752560Y-59420000D02*
X117801843Y-59667765D01*
X117942191Y-59877809D01*
X118152235Y-60018157D01*
X118400000Y-60067440D01*
X119248803Y-60067440D01*
X119055000Y-60535322D01*
X119055000Y-61384678D01*
X119274666Y-61915000D01*
X119184724Y-61915000D01*
X118602170Y-62156302D01*
X118156302Y-62602170D01*
X117915000Y-63184724D01*
X117915000Y-63815276D01*
X118156302Y-64397830D01*
X118602170Y-64843698D01*
X119184724Y-65085000D01*
X119527038Y-65085000D01*
X118790620Y-65390034D01*
X118190034Y-65990620D01*
X117865000Y-66775322D01*
X117865000Y-67624678D01*
X118190034Y-68409380D01*
X118457070Y-68676416D01*
X118418462Y-68684096D01*
X118247759Y-68798157D01*
X118167071Y-68852071D01*
X118124671Y-68915527D01*
X117090199Y-69950000D01*
X111369802Y-69950000D01*
X110754802Y-69335000D01*
X111374678Y-69335000D01*
X112159380Y-69009966D01*
X112559885Y-68609461D01*
X112592191Y-68657809D01*
X112802235Y-68798157D01*
X113050000Y-68847440D01*
X115050000Y-68847440D01*
X115297765Y-68798157D01*
X115507809Y-68657809D01*
X115648157Y-68447765D01*
X115697440Y-68200000D01*
X115697440Y-66507361D01*
X117254473Y-64950329D01*
X117317929Y-64907929D01*
X117485904Y-64656537D01*
X117530000Y-64434852D01*
X117530000Y-64434847D01*
X117544888Y-64360000D01*
X117530000Y-64285153D01*
X117530000Y-59989847D01*
X117544888Y-59915000D01*
X117530000Y-59840153D01*
X117530000Y-59840148D01*
X117485904Y-59618463D01*
X117317929Y-59367071D01*
X117254473Y-59324671D01*
X117110957Y-59181155D01*
X117179999Y-59194888D01*
X117254846Y-59180000D01*
X117752560Y-59180000D01*
X117752560Y-59420000D01*
X117752560Y-59420000D01*
G37*
X117752560Y-59420000D02*
X117801843Y-59667765D01*
X117942191Y-59877809D01*
X118152235Y-60018157D01*
X118400000Y-60067440D01*
X119248803Y-60067440D01*
X119055000Y-60535322D01*
X119055000Y-61384678D01*
X119274666Y-61915000D01*
X119184724Y-61915000D01*
X118602170Y-62156302D01*
X118156302Y-62602170D01*
X117915000Y-63184724D01*
X117915000Y-63815276D01*
X118156302Y-64397830D01*
X118602170Y-64843698D01*
X119184724Y-65085000D01*
X119527038Y-65085000D01*
X118790620Y-65390034D01*
X118190034Y-65990620D01*
X117865000Y-66775322D01*
X117865000Y-67624678D01*
X118190034Y-68409380D01*
X118457070Y-68676416D01*
X118418462Y-68684096D01*
X118247759Y-68798157D01*
X118167071Y-68852071D01*
X118124671Y-68915527D01*
X117090199Y-69950000D01*
X111369802Y-69950000D01*
X110754802Y-69335000D01*
X111374678Y-69335000D01*
X112159380Y-69009966D01*
X112559885Y-68609461D01*
X112592191Y-68657809D01*
X112802235Y-68798157D01*
X113050000Y-68847440D01*
X115050000Y-68847440D01*
X115297765Y-68798157D01*
X115507809Y-68657809D01*
X115648157Y-68447765D01*
X115697440Y-68200000D01*
X115697440Y-66507361D01*
X117254473Y-64950329D01*
X117317929Y-64907929D01*
X117485904Y-64656537D01*
X117530000Y-64434852D01*
X117530000Y-64434847D01*
X117544888Y-64360000D01*
X117530000Y-64285153D01*
X117530000Y-59989847D01*
X117544888Y-59915000D01*
X117530000Y-59840153D01*
X117530000Y-59840148D01*
X117485904Y-59618463D01*
X117317929Y-59367071D01*
X117254473Y-59324671D01*
X117110957Y-59181155D01*
X117179999Y-59194888D01*
X117254846Y-59180000D01*
X117752560Y-59180000D01*
X117752560Y-59420000D01*
G36*
X86926843Y-55682765D02*
X87067191Y-55892809D01*
X87277235Y-56033157D01*
X87525000Y-56082440D01*
X89125000Y-56082440D01*
X89372765Y-56033157D01*
X89582809Y-55892809D01*
X89689965Y-55732440D01*
X89693044Y-55732440D01*
X90012138Y-56051534D01*
X90539561Y-56270000D01*
X90985199Y-56270000D01*
X91939670Y-57224472D01*
X91982071Y-57287929D01*
X92045527Y-57330329D01*
X92090736Y-57360537D01*
X94960000Y-60229802D01*
X94960001Y-61015149D01*
X94945112Y-61090000D01*
X95004097Y-61386537D01*
X95115634Y-61553463D01*
X95172072Y-61637929D01*
X95235528Y-61680329D01*
X99034670Y-65479472D01*
X99077071Y-65542929D01*
X99328463Y-65710904D01*
X99404604Y-65726050D01*
X99140034Y-65990620D01*
X98815000Y-66775322D01*
X98815000Y-67624678D01*
X99140034Y-68409380D01*
X99370654Y-68640000D01*
X97994802Y-68640000D01*
X96480000Y-67125199D01*
X96480000Y-63814846D01*
X96494888Y-63739999D01*
X96480000Y-63665152D01*
X96480000Y-63665148D01*
X96435904Y-63443463D01*
X96267929Y-63192071D01*
X96204473Y-63149671D01*
X92179525Y-59124723D01*
X92260000Y-58930439D01*
X92260000Y-58359561D01*
X92041534Y-57832138D01*
X91637862Y-57428466D01*
X91110439Y-57210000D01*
X90539561Y-57210000D01*
X90012138Y-57428466D01*
X89693044Y-57747560D01*
X89689965Y-57747560D01*
X89582809Y-57587191D01*
X89372765Y-57446843D01*
X89125000Y-57397560D01*
X87525000Y-57397560D01*
X87277235Y-57446843D01*
X87067191Y-57587191D01*
X86926843Y-57797235D01*
X86925000Y-57806500D01*
X86923157Y-57797235D01*
X86782809Y-57587191D01*
X86572765Y-57446843D01*
X86325000Y-57397560D01*
X84725000Y-57397560D01*
X84477235Y-57446843D01*
X84370377Y-57518244D01*
X84282809Y-57387191D01*
X84072765Y-57246843D01*
X83825000Y-57197560D01*
X83785000Y-57197560D01*
X83785000Y-56282440D01*
X83825000Y-56282440D01*
X84072765Y-56233157D01*
X84282809Y-56092809D01*
X84370377Y-55961756D01*
X84477235Y-56033157D01*
X84725000Y-56082440D01*
X86325000Y-56082440D01*
X86572765Y-56033157D01*
X86782809Y-55892809D01*
X86923157Y-55682765D01*
X86925000Y-55673500D01*
X86926843Y-55682765D01*
X86926843Y-55682765D01*
G37*
X86926843Y-55682765D02*
X87067191Y-55892809D01*
X87277235Y-56033157D01*
X87525000Y-56082440D01*
X89125000Y-56082440D01*
X89372765Y-56033157D01*
X89582809Y-55892809D01*
X89689965Y-55732440D01*
X89693044Y-55732440D01*
X90012138Y-56051534D01*
X90539561Y-56270000D01*
X90985199Y-56270000D01*
X91939670Y-57224472D01*
X91982071Y-57287929D01*
X92045527Y-57330329D01*
X92090736Y-57360537D01*
X94960000Y-60229802D01*
X94960001Y-61015149D01*
X94945112Y-61090000D01*
X95004097Y-61386537D01*
X95115634Y-61553463D01*
X95172072Y-61637929D01*
X95235528Y-61680329D01*
X99034670Y-65479472D01*
X99077071Y-65542929D01*
X99328463Y-65710904D01*
X99404604Y-65726050D01*
X99140034Y-65990620D01*
X98815000Y-66775322D01*
X98815000Y-67624678D01*
X99140034Y-68409380D01*
X99370654Y-68640000D01*
X97994802Y-68640000D01*
X96480000Y-67125199D01*
X96480000Y-63814846D01*
X96494888Y-63739999D01*
X96480000Y-63665152D01*
X96480000Y-63665148D01*
X96435904Y-63443463D01*
X96267929Y-63192071D01*
X96204473Y-63149671D01*
X92179525Y-59124723D01*
X92260000Y-58930439D01*
X92260000Y-58359561D01*
X92041534Y-57832138D01*
X91637862Y-57428466D01*
X91110439Y-57210000D01*
X90539561Y-57210000D01*
X90012138Y-57428466D01*
X89693044Y-57747560D01*
X89689965Y-57747560D01*
X89582809Y-57587191D01*
X89372765Y-57446843D01*
X89125000Y-57397560D01*
X87525000Y-57397560D01*
X87277235Y-57446843D01*
X87067191Y-57587191D01*
X86926843Y-57797235D01*
X86925000Y-57806500D01*
X86923157Y-57797235D01*
X86782809Y-57587191D01*
X86572765Y-57446843D01*
X86325000Y-57397560D01*
X84725000Y-57397560D01*
X84477235Y-57446843D01*
X84370377Y-57518244D01*
X84282809Y-57387191D01*
X84072765Y-57246843D01*
X83825000Y-57197560D01*
X83785000Y-57197560D01*
X83785000Y-56282440D01*
X83825000Y-56282440D01*
X84072765Y-56233157D01*
X84282809Y-56092809D01*
X84370377Y-55961756D01*
X84477235Y-56033157D01*
X84725000Y-56082440D01*
X86325000Y-56082440D01*
X86572765Y-56033157D01*
X86782809Y-55892809D01*
X86923157Y-55682765D01*
X86925000Y-55673500D01*
X86926843Y-55682765D01*
G36*
X108550620Y-62769966D02*
X109335322Y-63095000D01*
X109590404Y-63095000D01*
X109545000Y-63204615D01*
X109545000Y-63795385D01*
X109771078Y-64341185D01*
X110188815Y-64758922D01*
X110734615Y-64985000D01*
X110893303Y-64985000D01*
X111086440Y-65065000D01*
X110525322Y-65065000D01*
X109740620Y-65390034D01*
X109140034Y-65990620D01*
X108815000Y-66775322D01*
X108815000Y-67395199D01*
X107835331Y-66415530D01*
X107792929Y-66352071D01*
X107541537Y-66184096D01*
X107319852Y-66140000D01*
X107319847Y-66140000D01*
X107245000Y-66125112D01*
X107170153Y-66140000D01*
X104289802Y-66140000D01*
X102660331Y-64510530D01*
X102617929Y-64447071D01*
X102366537Y-64279096D01*
X102170770Y-64240155D01*
X102355000Y-63795385D01*
X102355000Y-63204615D01*
X102309596Y-63095000D01*
X102564678Y-63095000D01*
X103349380Y-62769966D01*
X103436283Y-62683063D01*
X103315000Y-62975866D01*
X103315000Y-64024134D01*
X103716155Y-64992608D01*
X104457392Y-65733845D01*
X105425866Y-66135000D01*
X106474134Y-66135000D01*
X107442608Y-65733845D01*
X108183845Y-64992608D01*
X108585000Y-64024134D01*
X108585000Y-62975866D01*
X108463717Y-62683063D01*
X108550620Y-62769966D01*
X108550620Y-62769966D01*
G37*
X108550620Y-62769966D02*
X109335322Y-63095000D01*
X109590404Y-63095000D01*
X109545000Y-63204615D01*
X109545000Y-63795385D01*
X109771078Y-64341185D01*
X110188815Y-64758922D01*
X110734615Y-64985000D01*
X110893303Y-64985000D01*
X111086440Y-65065000D01*
X110525322Y-65065000D01*
X109740620Y-65390034D01*
X109140034Y-65990620D01*
X108815000Y-66775322D01*
X108815000Y-67395199D01*
X107835331Y-66415530D01*
X107792929Y-66352071D01*
X107541537Y-66184096D01*
X107319852Y-66140000D01*
X107319847Y-66140000D01*
X107245000Y-66125112D01*
X107170153Y-66140000D01*
X104289802Y-66140000D01*
X102660331Y-64510530D01*
X102617929Y-64447071D01*
X102366537Y-64279096D01*
X102170770Y-64240155D01*
X102355000Y-63795385D01*
X102355000Y-63204615D01*
X102309596Y-63095000D01*
X102564678Y-63095000D01*
X103349380Y-62769966D01*
X103436283Y-62683063D01*
X103315000Y-62975866D01*
X103315000Y-64024134D01*
X103716155Y-64992608D01*
X104457392Y-65733845D01*
X105425866Y-66135000D01*
X106474134Y-66135000D01*
X107442608Y-65733845D01*
X108183845Y-64992608D01*
X108585000Y-64024134D01*
X108585000Y-62975866D01*
X108463717Y-62683063D01*
X108550620Y-62769966D01*
G36*
X116010000Y-60229802D02*
X116010001Y-64045197D01*
X114502639Y-65552560D01*
X113050000Y-65552560D01*
X112802235Y-65601843D01*
X112592191Y-65742191D01*
X112559885Y-65790539D01*
X112159380Y-65390034D01*
X111422962Y-65085000D01*
X111765276Y-65085000D01*
X112347830Y-64843698D01*
X112793698Y-64397830D01*
X113035000Y-63815276D01*
X113035000Y-63184724D01*
X112795881Y-62607440D01*
X113735000Y-62607440D01*
X113735000Y-62660872D01*
X113892569Y-63041278D01*
X114183720Y-63332429D01*
X114564126Y-63489998D01*
X114975874Y-63489998D01*
X115356280Y-63332429D01*
X115647431Y-63041278D01*
X115805000Y-62660872D01*
X115805000Y-62249124D01*
X115647431Y-61868718D01*
X115531523Y-61752810D01*
X115530000Y-61745152D01*
X115530000Y-61745148D01*
X115485904Y-61523463D01*
X115485904Y-61523462D01*
X115360329Y-61335527D01*
X115317929Y-61272071D01*
X115254473Y-61229671D01*
X114500331Y-60475530D01*
X114497440Y-60471203D01*
X114497440Y-59960000D01*
X114448157Y-59712235D01*
X114307809Y-59502191D01*
X114097765Y-59361843D01*
X113850000Y-59312560D01*
X111850000Y-59312560D01*
X111602235Y-59361843D01*
X111392191Y-59502191D01*
X111363891Y-59544545D01*
X110969380Y-59150034D01*
X110567474Y-58983559D01*
X110625000Y-58844678D01*
X110625000Y-57995322D01*
X110299966Y-57210620D01*
X109699380Y-56610034D01*
X108914678Y-56285000D01*
X108065322Y-56285000D01*
X107280620Y-56610034D01*
X106680034Y-57210620D01*
X106355000Y-57995322D01*
X106355000Y-58844678D01*
X106680034Y-59629380D01*
X107280620Y-60229966D01*
X107682526Y-60396441D01*
X107625000Y-60535322D01*
X107625000Y-61384678D01*
X107670162Y-61493709D01*
X107442608Y-61266155D01*
X106474134Y-60865000D01*
X105425866Y-60865000D01*
X104457392Y-61266155D01*
X104229838Y-61493709D01*
X104275000Y-61384678D01*
X104275000Y-60535322D01*
X104217474Y-60396441D01*
X104619380Y-60229966D01*
X105219966Y-59629380D01*
X105545000Y-58844678D01*
X105545000Y-57995322D01*
X105219966Y-57210620D01*
X104619380Y-56610034D01*
X103834678Y-56285000D01*
X102985322Y-56285000D01*
X102200620Y-56610034D01*
X101824093Y-56986561D01*
X101807809Y-56962191D01*
X101702785Y-56892016D01*
X102999802Y-55595000D01*
X111375199Y-55595000D01*
X116010000Y-60229802D01*
X116010000Y-60229802D01*
G37*
X116010000Y-60229802D02*
X116010001Y-64045197D01*
X114502639Y-65552560D01*
X113050000Y-65552560D01*
X112802235Y-65601843D01*
X112592191Y-65742191D01*
X112559885Y-65790539D01*
X112159380Y-65390034D01*
X111422962Y-65085000D01*
X111765276Y-65085000D01*
X112347830Y-64843698D01*
X112793698Y-64397830D01*
X113035000Y-63815276D01*
X113035000Y-63184724D01*
X112795881Y-62607440D01*
X113735000Y-62607440D01*
X113735000Y-62660872D01*
X113892569Y-63041278D01*
X114183720Y-63332429D01*
X114564126Y-63489998D01*
X114975874Y-63489998D01*
X115356280Y-63332429D01*
X115647431Y-63041278D01*
X115805000Y-62660872D01*
X115805000Y-62249124D01*
X115647431Y-61868718D01*
X115531523Y-61752810D01*
X115530000Y-61745152D01*
X115530000Y-61745148D01*
X115485904Y-61523463D01*
X115485904Y-61523462D01*
X115360329Y-61335527D01*
X115317929Y-61272071D01*
X115254473Y-61229671D01*
X114500331Y-60475530D01*
X114497440Y-60471203D01*
X114497440Y-59960000D01*
X114448157Y-59712235D01*
X114307809Y-59502191D01*
X114097765Y-59361843D01*
X113850000Y-59312560D01*
X111850000Y-59312560D01*
X111602235Y-59361843D01*
X111392191Y-59502191D01*
X111363891Y-59544545D01*
X110969380Y-59150034D01*
X110567474Y-58983559D01*
X110625000Y-58844678D01*
X110625000Y-57995322D01*
X110299966Y-57210620D01*
X109699380Y-56610034D01*
X108914678Y-56285000D01*
X108065322Y-56285000D01*
X107280620Y-56610034D01*
X106680034Y-57210620D01*
X106355000Y-57995322D01*
X106355000Y-58844678D01*
X106680034Y-59629380D01*
X107280620Y-60229966D01*
X107682526Y-60396441D01*
X107625000Y-60535322D01*
X107625000Y-61384678D01*
X107670162Y-61493709D01*
X107442608Y-61266155D01*
X106474134Y-60865000D01*
X105425866Y-60865000D01*
X104457392Y-61266155D01*
X104229838Y-61493709D01*
X104275000Y-61384678D01*
X104275000Y-60535322D01*
X104217474Y-60396441D01*
X104619380Y-60229966D01*
X105219966Y-59629380D01*
X105545000Y-58844678D01*
X105545000Y-57995322D01*
X105219966Y-57210620D01*
X104619380Y-56610034D01*
X103834678Y-56285000D01*
X102985322Y-56285000D01*
X102200620Y-56610034D01*
X101824093Y-56986561D01*
X101807809Y-56962191D01*
X101702785Y-56892016D01*
X102999802Y-55595000D01*
X111375199Y-55595000D01*
X116010000Y-60229802D01*
G36*
X135600000Y-60229802D02*
X135600001Y-64140197D01*
X134173099Y-65567100D01*
X134100000Y-65552560D01*
X132100000Y-65552560D01*
X131852235Y-65601843D01*
X131642191Y-65742191D01*
X131609885Y-65790539D01*
X131209380Y-65390034D01*
X130472962Y-65085000D01*
X130815276Y-65085000D01*
X131397830Y-64843698D01*
X131843698Y-64397830D01*
X132085000Y-63815276D01*
X132085000Y-63184724D01*
X131845881Y-62607440D01*
X132900000Y-62607440D01*
X132965000Y-62594511D01*
X132965000Y-62705916D01*
X133122569Y-63086322D01*
X133413720Y-63377473D01*
X133794126Y-63535042D01*
X134205874Y-63535042D01*
X134586280Y-63377473D01*
X134877431Y-63086322D01*
X135035000Y-62705916D01*
X135035000Y-62294168D01*
X134877431Y-61913762D01*
X134751603Y-61787934D01*
X134715904Y-61608463D01*
X134715904Y-61608462D01*
X134590329Y-61420527D01*
X134547929Y-61357071D01*
X134484473Y-61314671D01*
X133645331Y-60475530D01*
X133602929Y-60412071D01*
X133547440Y-60374994D01*
X133547440Y-59960000D01*
X133498157Y-59712235D01*
X133357809Y-59502191D01*
X133147765Y-59361843D01*
X132900000Y-59312560D01*
X130900000Y-59312560D01*
X130652235Y-59361843D01*
X130442191Y-59502191D01*
X130413891Y-59544545D01*
X130019380Y-59150034D01*
X129617474Y-58983559D01*
X129675000Y-58844678D01*
X129675000Y-57995322D01*
X129349966Y-57210620D01*
X128749380Y-56610034D01*
X127964678Y-56285000D01*
X127115322Y-56285000D01*
X126330620Y-56610034D01*
X125730034Y-57210620D01*
X125405000Y-57995322D01*
X125405000Y-58844678D01*
X125730034Y-59629380D01*
X126330620Y-60229966D01*
X126732526Y-60396441D01*
X126675000Y-60535322D01*
X126675000Y-61384678D01*
X126720162Y-61493709D01*
X126492608Y-61266155D01*
X125524134Y-60865000D01*
X124475866Y-60865000D01*
X123507392Y-61266155D01*
X123279838Y-61493709D01*
X123325000Y-61384678D01*
X123325000Y-60535322D01*
X123267474Y-60396441D01*
X123669380Y-60229966D01*
X124269966Y-59629380D01*
X124595000Y-58844678D01*
X124595000Y-57995322D01*
X124269966Y-57210620D01*
X123669380Y-56610034D01*
X122884678Y-56285000D01*
X122035322Y-56285000D01*
X121250620Y-56610034D01*
X120874093Y-56986561D01*
X120857809Y-56962191D01*
X120752785Y-56892016D01*
X121414802Y-56230000D01*
X131600199Y-56230000D01*
X135600000Y-60229802D01*
X135600000Y-60229802D01*
G37*
X135600000Y-60229802D02*
X135600001Y-64140197D01*
X134173099Y-65567100D01*
X134100000Y-65552560D01*
X132100000Y-65552560D01*
X131852235Y-65601843D01*
X131642191Y-65742191D01*
X131609885Y-65790539D01*
X131209380Y-65390034D01*
X130472962Y-65085000D01*
X130815276Y-65085000D01*
X131397830Y-64843698D01*
X131843698Y-64397830D01*
X132085000Y-63815276D01*
X132085000Y-63184724D01*
X131845881Y-62607440D01*
X132900000Y-62607440D01*
X132965000Y-62594511D01*
X132965000Y-62705916D01*
X133122569Y-63086322D01*
X133413720Y-63377473D01*
X133794126Y-63535042D01*
X134205874Y-63535042D01*
X134586280Y-63377473D01*
X134877431Y-63086322D01*
X135035000Y-62705916D01*
X135035000Y-62294168D01*
X134877431Y-61913762D01*
X134751603Y-61787934D01*
X134715904Y-61608463D01*
X134715904Y-61608462D01*
X134590329Y-61420527D01*
X134547929Y-61357071D01*
X134484473Y-61314671D01*
X133645331Y-60475530D01*
X133602929Y-60412071D01*
X133547440Y-60374994D01*
X133547440Y-59960000D01*
X133498157Y-59712235D01*
X133357809Y-59502191D01*
X133147765Y-59361843D01*
X132900000Y-59312560D01*
X130900000Y-59312560D01*
X130652235Y-59361843D01*
X130442191Y-59502191D01*
X130413891Y-59544545D01*
X130019380Y-59150034D01*
X129617474Y-58983559D01*
X129675000Y-58844678D01*
X129675000Y-57995322D01*
X129349966Y-57210620D01*
X128749380Y-56610034D01*
X127964678Y-56285000D01*
X127115322Y-56285000D01*
X126330620Y-56610034D01*
X125730034Y-57210620D01*
X125405000Y-57995322D01*
X125405000Y-58844678D01*
X125730034Y-59629380D01*
X126330620Y-60229966D01*
X126732526Y-60396441D01*
X126675000Y-60535322D01*
X126675000Y-61384678D01*
X126720162Y-61493709D01*
X126492608Y-61266155D01*
X125524134Y-60865000D01*
X124475866Y-60865000D01*
X123507392Y-61266155D01*
X123279838Y-61493709D01*
X123325000Y-61384678D01*
X123325000Y-60535322D01*
X123267474Y-60396441D01*
X123669380Y-60229966D01*
X124269966Y-59629380D01*
X124595000Y-58844678D01*
X124595000Y-57995322D01*
X124269966Y-57210620D01*
X123669380Y-56610034D01*
X122884678Y-56285000D01*
X122035322Y-56285000D01*
X121250620Y-56610034D01*
X120874093Y-56986561D01*
X120857809Y-56962191D01*
X120752785Y-56892016D01*
X121414802Y-56230000D01*
X131600199Y-56230000D01*
X135600000Y-60229802D01*
G04 #@! TO.N,Net-(U1-Pad23)*
G36*
X135873000Y-104290000D02*
X95127000Y-104290000D01*
X95127000Y-96110000D01*
X96228000Y-96110000D01*
X96228000Y-103095000D01*
X96237667Y-103143601D01*
X96265197Y-103184803D01*
X96306399Y-103212333D01*
X96355000Y-103222000D01*
X114770000Y-103222000D01*
X114818601Y-103212333D01*
X114859803Y-103184803D01*
X114887333Y-103143601D01*
X114897000Y-103095000D01*
X114897000Y-100555000D01*
X114887333Y-100506399D01*
X114859803Y-100465197D01*
X114818601Y-100437667D01*
X114773876Y-100428059D01*
X98260000Y-99923819D01*
X98260000Y-99281181D01*
X114773876Y-98776941D01*
X114822159Y-98765795D01*
X114862502Y-98737020D01*
X114888761Y-98694997D01*
X114897000Y-98650000D01*
X114897000Y-96110000D01*
X115913000Y-96110000D01*
X115913000Y-98650000D01*
X115922667Y-98698601D01*
X115950197Y-98739803D01*
X115991399Y-98767333D01*
X116036124Y-98776941D01*
X132550000Y-99281181D01*
X132550000Y-99923819D01*
X116036124Y-100428059D01*
X115987841Y-100439205D01*
X115947498Y-100467980D01*
X115921239Y-100510003D01*
X115913000Y-100555000D01*
X115913000Y-103095000D01*
X115922667Y-103143601D01*
X115950197Y-103184803D01*
X115991399Y-103212333D01*
X116040000Y-103222000D01*
X134455000Y-103222000D01*
X134503601Y-103212333D01*
X134544803Y-103184803D01*
X134572333Y-103143601D01*
X134582000Y-103095000D01*
X134582000Y-96110000D01*
X134572333Y-96061399D01*
X134544803Y-96020197D01*
X134503601Y-95992667D01*
X134455000Y-95983000D01*
X116040000Y-95983000D01*
X115991399Y-95992667D01*
X115950197Y-96020197D01*
X115922667Y-96061399D01*
X115913000Y-96110000D01*
X114897000Y-96110000D01*
X114887333Y-96061399D01*
X114859803Y-96020197D01*
X114818601Y-95992667D01*
X114770000Y-95983000D01*
X96355000Y-95983000D01*
X96306399Y-95992667D01*
X96265197Y-96020197D01*
X96237667Y-96061399D01*
X96228000Y-96110000D01*
X95127000Y-96110000D01*
X95127000Y-95127000D01*
X135873000Y-95127000D01*
X135873000Y-104290000D01*
X135873000Y-104290000D01*
G37*
X135873000Y-104290000D02*
X95127000Y-104290000D01*
X95127000Y-96110000D01*
X96228000Y-96110000D01*
X96228000Y-103095000D01*
X96237667Y-103143601D01*
X96265197Y-103184803D01*
X96306399Y-103212333D01*
X96355000Y-103222000D01*
X114770000Y-103222000D01*
X114818601Y-103212333D01*
X114859803Y-103184803D01*
X114887333Y-103143601D01*
X114897000Y-103095000D01*
X114897000Y-100555000D01*
X114887333Y-100506399D01*
X114859803Y-100465197D01*
X114818601Y-100437667D01*
X114773876Y-100428059D01*
X98260000Y-99923819D01*
X98260000Y-99281181D01*
X114773876Y-98776941D01*
X114822159Y-98765795D01*
X114862502Y-98737020D01*
X114888761Y-98694997D01*
X114897000Y-98650000D01*
X114897000Y-96110000D01*
X115913000Y-96110000D01*
X115913000Y-98650000D01*
X115922667Y-98698601D01*
X115950197Y-98739803D01*
X115991399Y-98767333D01*
X116036124Y-98776941D01*
X132550000Y-99281181D01*
X132550000Y-99923819D01*
X116036124Y-100428059D01*
X115987841Y-100439205D01*
X115947498Y-100467980D01*
X115921239Y-100510003D01*
X115913000Y-100555000D01*
X115913000Y-103095000D01*
X115922667Y-103143601D01*
X115950197Y-103184803D01*
X115991399Y-103212333D01*
X116040000Y-103222000D01*
X134455000Y-103222000D01*
X134503601Y-103212333D01*
X134544803Y-103184803D01*
X134572333Y-103143601D01*
X134582000Y-103095000D01*
X134582000Y-96110000D01*
X134572333Y-96061399D01*
X134544803Y-96020197D01*
X134503601Y-95992667D01*
X134455000Y-95983000D01*
X116040000Y-95983000D01*
X115991399Y-95992667D01*
X115950197Y-96020197D01*
X115922667Y-96061399D01*
X115913000Y-96110000D01*
X114897000Y-96110000D01*
X114887333Y-96061399D01*
X114859803Y-96020197D01*
X114818601Y-95992667D01*
X114770000Y-95983000D01*
X96355000Y-95983000D01*
X96306399Y-95992667D01*
X96265197Y-96020197D01*
X96237667Y-96061399D01*
X96228000Y-96110000D01*
X95127000Y-96110000D01*
X95127000Y-95127000D01*
X135873000Y-95127000D01*
X135873000Y-104290000D01*
G04 #@! TD*
M02*
