M48
;DRILL file {KiCad (5.0.2)-1} date 2019/04/07 11:00:07
;FORMAT={-:-/ absolute / metric / decimal}
FMAT,2
METRIC,TZ
T1C0.400
T2C0.500
T3C1.000
T4C1.100
T5C1.200
T6C1.700
T7C1.900
T8C3.000
T9C4.000
%
G90
G05
T1
X61.345Y-82.14
X61.345Y-85.95
X61.345Y-88.49
X61.345Y-90.395
X68.235Y-99.285
X85.38Y-78.965
X94.25Y-100.51
X96.175Y-97.38
X96.81Y-56.74
X97.625Y-64.995
X97.625Y-84.045
X99.35Y-74.52
X116.495Y-97.38
X116.675Y-64.995
X116.675Y-84.045
X118.4Y-72.25
X118.4Y-73.25
T2
X71.86Y-62.84
X71.86Y-66.65
T3
X71.86Y-94.1
X71.86Y-101.9
X84.115Y-59.915
X91.915Y-59.915
X84.115Y-64.995
X91.915Y-64.995
X59.17Y-77.06
X59.17Y-79.6
X59.17Y-82.14
X59.17Y-84.68
X59.17Y-87.22
X59.17Y-89.76
X59.17Y-92.3
X59.17Y-94.84
X84.115Y-57.375
X91.915Y-57.375
X84.745Y-94.115
X84.745Y-101.915
X84.115Y-62.455
X91.915Y-62.455
T4
X64.24Y-56.49
X64.24Y-59.03
X64.24Y-61.57
X64.24Y-64.11
X64.24Y-66.65
X64.24Y-69.19
X64.24Y-71.73
X64.24Y-74.27
X64.24Y-76.81
X64.24Y-79.35
X64.24Y-81.89
X64.24Y-84.43
X64.24Y-86.97
X64.24Y-89.51
X66.78Y-89.51
X69.32Y-89.51
X71.86Y-71.73
X71.86Y-74.27
X71.86Y-76.81
X71.86Y-79.35
X71.86Y-81.89
X71.86Y-84.43
X71.86Y-86.97
X71.86Y-89.51
X74.4Y-71.73
X74.4Y-74.27
X74.4Y-76.81
X74.4Y-79.35
X74.4Y-81.89
X74.4Y-84.43
X74.4Y-86.97
X74.4Y-89.51
X76.94Y-59.03
X76.94Y-64.11
X76.94Y-66.65
X76.94Y-69.19
X76.94Y-89.51
X79.48Y-56.49
X79.48Y-59.03
X79.48Y-61.57
X79.48Y-64.11
X79.48Y-66.65
X79.48Y-69.19
X79.48Y-71.73
X79.48Y-74.27
X79.48Y-76.81
X79.48Y-79.35
X79.48Y-81.89
X79.48Y-84.43
X79.48Y-86.97
X79.48Y-89.51
T5
X77.86Y-96.5
X77.86Y-103.5
X65.86Y-96.5
X65.86Y-103.5
T6
X118.47Y-63.5
X128.63Y-63.5
X118.47Y-82.55
X128.63Y-82.55
X99.42Y-63.5
X109.58Y-63.5
X99.42Y-82.55
X109.58Y-82.55
T7
X118.05Y-63.5
X129.05Y-63.5
X118.05Y-82.55
X129.05Y-82.55
X99.Y-63.5
X110.Y-63.5
X99.Y-82.55
X110.Y-82.55
T8
X118.55Y-67.2
X119.74Y-60.96
X123.55Y-69.4
X126.09Y-58.42
X118.55Y-86.25
X119.74Y-80.01
X123.55Y-88.45
X126.09Y-77.47
X99.5Y-67.2
X100.69Y-60.96
X104.5Y-69.4
X107.04Y-58.42
X99.5Y-86.25
X100.69Y-80.01
X104.5Y-88.45
X107.04Y-77.47
T9
X123.55Y-63.5
X123.55Y-82.55
X104.5Y-63.5
X104.5Y-82.55
T3
X75.76Y-94.95G85X75.76Y-94.45
G05
X75.76Y-98.95G85X75.76Y-98.45
G05
X75.76Y-101.95G85X75.76Y-101.45
G05
X79.96Y-93.45G85X79.96Y-92.95
G05
X63.76Y-94.95G85X63.76Y-94.45
G05
X63.76Y-98.95G85X63.76Y-98.45
G05
X63.76Y-101.95G85X63.76Y-101.45
G05
X67.96Y-93.45G85X67.96Y-92.95
G05
T0
M30
