G04 #@! TF.GenerationSoftware,KiCad,Pcbnew,(5.0.2)-1*
G04 #@! TF.CreationDate,2019-04-07T10:59:11+09:00*
G04 #@! TF.ProjectId,mitcard,6d697463-6172-4642-9e6b-696361645f70,rev?*
G04 #@! TF.SameCoordinates,Original*
G04 #@! TF.FileFunction,Legend,Top*
G04 #@! TF.FilePolarity,Positive*
%FSLAX46Y46*%
G04 Gerber Fmt 4.6, Leading zero omitted, Abs format (unit mm)*
G04 Created by KiCad (PCBNEW (5.0.2)-1) date 2019/04/07 10:59:11*
%MOMM*%
%LPD*%
G01*
G04 APERTURE LIST*
%ADD10C,0.300000*%
%ADD11C,0.200000*%
%ADD12C,0.150000*%
%ADD13C,0.120000*%
G04 APERTURE END LIST*
D10*
X87403571Y-91214285D02*
X86403571Y-91214285D01*
X86546428Y-91214285D02*
X86475000Y-91142857D01*
X86403571Y-91000000D01*
X86403571Y-90785714D01*
X86475000Y-90642857D01*
X86617857Y-90571428D01*
X87403571Y-90571428D01*
X86617857Y-90571428D02*
X86475000Y-90500000D01*
X86403571Y-90357142D01*
X86403571Y-90142857D01*
X86475000Y-90000000D01*
X86617857Y-89928571D01*
X87403571Y-89928571D01*
X87403571Y-89214285D02*
X86403571Y-89214285D01*
X85903571Y-89214285D02*
X85975000Y-89285714D01*
X86046428Y-89214285D01*
X85975000Y-89142857D01*
X85903571Y-89214285D01*
X86046428Y-89214285D01*
X86403571Y-88714285D02*
X86403571Y-88142857D01*
X85903571Y-88500000D02*
X87189285Y-88500000D01*
X87332142Y-88428571D01*
X87403571Y-88285714D01*
X87403571Y-88142857D01*
X87332142Y-87000000D02*
X87403571Y-87142857D01*
X87403571Y-87428571D01*
X87332142Y-87571428D01*
X87260714Y-87642857D01*
X87117857Y-87714285D01*
X86689285Y-87714285D01*
X86546428Y-87642857D01*
X86475000Y-87571428D01*
X86403571Y-87428571D01*
X86403571Y-87142857D01*
X86475000Y-87000000D01*
X87403571Y-85714285D02*
X86617857Y-85714285D01*
X86475000Y-85785714D01*
X86403571Y-85928571D01*
X86403571Y-86214285D01*
X86475000Y-86357142D01*
X87332142Y-85714285D02*
X87403571Y-85857142D01*
X87403571Y-86214285D01*
X87332142Y-86357142D01*
X87189285Y-86428571D01*
X87046428Y-86428571D01*
X86903571Y-86357142D01*
X86832142Y-86214285D01*
X86832142Y-85857142D01*
X86760714Y-85714285D01*
X87403571Y-85000000D02*
X86403571Y-85000000D01*
X86689285Y-85000000D02*
X86546428Y-84928571D01*
X86475000Y-84857142D01*
X86403571Y-84714285D01*
X86403571Y-84571428D01*
X87403571Y-83428571D02*
X85903571Y-83428571D01*
X87332142Y-83428571D02*
X87403571Y-83571428D01*
X87403571Y-83857142D01*
X87332142Y-84000000D01*
X87260714Y-84071428D01*
X87117857Y-84142857D01*
X86689285Y-84142857D01*
X86546428Y-84071428D01*
X86475000Y-84000000D01*
X86403571Y-83857142D01*
X86403571Y-83571428D01*
X86475000Y-83428571D01*
X87403571Y-81571428D02*
X86403571Y-81571428D01*
X86689285Y-81571428D02*
X86546428Y-81500000D01*
X86475000Y-81428571D01*
X86403571Y-81285714D01*
X86403571Y-81142857D01*
X87332142Y-80071428D02*
X87403571Y-80214285D01*
X87403571Y-80500000D01*
X87332142Y-80642857D01*
X87189285Y-80714285D01*
X86617857Y-80714285D01*
X86475000Y-80642857D01*
X86403571Y-80500000D01*
X86403571Y-80214285D01*
X86475000Y-80071428D01*
X86617857Y-80000000D01*
X86760714Y-80000000D01*
X86903571Y-80714285D01*
X86403571Y-79500000D02*
X87403571Y-79142857D01*
X86403571Y-78785714D01*
X87260714Y-78214285D02*
X87332142Y-78142857D01*
X87403571Y-78214285D01*
X87332142Y-78285714D01*
X87260714Y-78214285D01*
X87403571Y-78214285D01*
X86046428Y-77571428D02*
X85975000Y-77500000D01*
X85903571Y-77357142D01*
X85903571Y-77000000D01*
X85975000Y-76857142D01*
X86046428Y-76785714D01*
X86189285Y-76714285D01*
X86332142Y-76714285D01*
X86546428Y-76785714D01*
X87403571Y-77642857D01*
X87403571Y-76714285D01*
X89953571Y-99214285D02*
X88453571Y-99214285D01*
X88453571Y-98857142D01*
X88525000Y-98642857D01*
X88667857Y-98500000D01*
X88810714Y-98428571D01*
X89096428Y-98357142D01*
X89310714Y-98357142D01*
X89596428Y-98428571D01*
X89739285Y-98500000D01*
X89882142Y-98642857D01*
X89953571Y-98857142D01*
X89953571Y-99214285D01*
X89882142Y-97142857D02*
X89953571Y-97285714D01*
X89953571Y-97571428D01*
X89882142Y-97714285D01*
X89739285Y-97785714D01*
X89167857Y-97785714D01*
X89025000Y-97714285D01*
X88953571Y-97571428D01*
X88953571Y-97285714D01*
X89025000Y-97142857D01*
X89167857Y-97071428D01*
X89310714Y-97071428D01*
X89453571Y-97785714D01*
X89882142Y-96500000D02*
X89953571Y-96357142D01*
X89953571Y-96071428D01*
X89882142Y-95928571D01*
X89739285Y-95857142D01*
X89667857Y-95857142D01*
X89525000Y-95928571D01*
X89453571Y-96071428D01*
X89453571Y-96285714D01*
X89382142Y-96428571D01*
X89239285Y-96500000D01*
X89167857Y-96500000D01*
X89025000Y-96428571D01*
X88953571Y-96285714D01*
X88953571Y-96071428D01*
X89025000Y-95928571D01*
X89953571Y-95214285D02*
X88953571Y-95214285D01*
X88453571Y-95214285D02*
X88525000Y-95285714D01*
X88596428Y-95214285D01*
X88525000Y-95142857D01*
X88453571Y-95214285D01*
X88596428Y-95214285D01*
X88953571Y-93857142D02*
X90167857Y-93857142D01*
X90310714Y-93928571D01*
X90382142Y-94000000D01*
X90453571Y-94142857D01*
X90453571Y-94357142D01*
X90382142Y-94500000D01*
X89882142Y-93857142D02*
X89953571Y-94000000D01*
X89953571Y-94285714D01*
X89882142Y-94428571D01*
X89810714Y-94500000D01*
X89667857Y-94571428D01*
X89239285Y-94571428D01*
X89096428Y-94500000D01*
X89025000Y-94428571D01*
X88953571Y-94285714D01*
X88953571Y-94000000D01*
X89025000Y-93857142D01*
X88953571Y-93142857D02*
X89953571Y-93142857D01*
X89096428Y-93142857D02*
X89025000Y-93071428D01*
X88953571Y-92928571D01*
X88953571Y-92714285D01*
X89025000Y-92571428D01*
X89167857Y-92500000D01*
X89953571Y-92500000D01*
X89882142Y-91214285D02*
X89953571Y-91357142D01*
X89953571Y-91642857D01*
X89882142Y-91785714D01*
X89739285Y-91857142D01*
X89167857Y-91857142D01*
X89025000Y-91785714D01*
X88953571Y-91642857D01*
X88953571Y-91357142D01*
X89025000Y-91214285D01*
X89167857Y-91142857D01*
X89310714Y-91142857D01*
X89453571Y-91857142D01*
X89953571Y-89857142D02*
X88453571Y-89857142D01*
X89882142Y-89857142D02*
X89953571Y-90000000D01*
X89953571Y-90285714D01*
X89882142Y-90428571D01*
X89810714Y-90500000D01*
X89667857Y-90571428D01*
X89239285Y-90571428D01*
X89096428Y-90500000D01*
X89025000Y-90428571D01*
X88953571Y-90285714D01*
X88953571Y-90000000D01*
X89025000Y-89857142D01*
X89953571Y-88000000D02*
X88453571Y-88000000D01*
X89025000Y-88000000D02*
X88953571Y-87857142D01*
X88953571Y-87571428D01*
X89025000Y-87428571D01*
X89096428Y-87357142D01*
X89239285Y-87285714D01*
X89667857Y-87285714D01*
X89810714Y-87357142D01*
X89882142Y-87428571D01*
X89953571Y-87571428D01*
X89953571Y-87857142D01*
X89882142Y-88000000D01*
X88953571Y-86785714D02*
X89953571Y-86428571D01*
X88953571Y-86071428D02*
X89953571Y-86428571D01*
X90310714Y-86571428D01*
X90382142Y-86642857D01*
X90453571Y-86785714D01*
X89953571Y-84357142D02*
X88953571Y-84357142D01*
X89096428Y-84357142D02*
X89025000Y-84285714D01*
X88953571Y-84142857D01*
X88953571Y-83928571D01*
X89025000Y-83785714D01*
X89167857Y-83714285D01*
X89953571Y-83714285D01*
X89167857Y-83714285D02*
X89025000Y-83642857D01*
X88953571Y-83500000D01*
X88953571Y-83285714D01*
X89025000Y-83142857D01*
X89167857Y-83071428D01*
X89953571Y-83071428D01*
X89953571Y-82357142D02*
X88953571Y-82357142D01*
X88453571Y-82357142D02*
X88525000Y-82428571D01*
X88596428Y-82357142D01*
X88525000Y-82285714D01*
X88453571Y-82357142D01*
X88596428Y-82357142D01*
X88953571Y-81857142D02*
X88953571Y-81285714D01*
X88453571Y-81642857D02*
X89739285Y-81642857D01*
X89882142Y-81571428D01*
X89953571Y-81428571D01*
X89953571Y-81285714D01*
X89953571Y-80142857D02*
X89167857Y-80142857D01*
X89025000Y-80214285D01*
X88953571Y-80357142D01*
X88953571Y-80642857D01*
X89025000Y-80785714D01*
X89882142Y-80142857D02*
X89953571Y-80285714D01*
X89953571Y-80642857D01*
X89882142Y-80785714D01*
X89739285Y-80857142D01*
X89596428Y-80857142D01*
X89453571Y-80785714D01*
X89382142Y-80642857D01*
X89382142Y-80285714D01*
X89310714Y-80142857D01*
X89953571Y-79428571D02*
X88953571Y-79428571D01*
X89239285Y-79428571D02*
X89096428Y-79357142D01*
X89025000Y-79285714D01*
X88953571Y-79142857D01*
X88953571Y-79000000D01*
X89953571Y-78285714D02*
X89882142Y-78428571D01*
X89810714Y-78500000D01*
X89667857Y-78571428D01*
X89239285Y-78571428D01*
X89096428Y-78500000D01*
X89025000Y-78428571D01*
X88953571Y-78285714D01*
X88953571Y-78071428D01*
X89025000Y-77928571D01*
X89096428Y-77857142D01*
X89239285Y-77785714D01*
X89667857Y-77785714D01*
X89810714Y-77857142D01*
X89882142Y-77928571D01*
X89953571Y-78071428D01*
X89953571Y-78285714D01*
X88453571Y-77357142D02*
X88453571Y-76500000D01*
X89953571Y-76928571D02*
X88453571Y-76928571D01*
X89953571Y-76000000D02*
X88453571Y-76000000D01*
X89953571Y-75357142D02*
X89167857Y-75357142D01*
X89025000Y-75428571D01*
X88953571Y-75571428D01*
X88953571Y-75785714D01*
X89025000Y-75928571D01*
X89096428Y-76000000D01*
X89953571Y-74000000D02*
X89167857Y-74000000D01*
X89025000Y-74071428D01*
X88953571Y-74214285D01*
X88953571Y-74500000D01*
X89025000Y-74642857D01*
X89882142Y-74000000D02*
X89953571Y-74142857D01*
X89953571Y-74500000D01*
X89882142Y-74642857D01*
X89739285Y-74714285D01*
X89596428Y-74714285D01*
X89453571Y-74642857D01*
X89382142Y-74500000D01*
X89382142Y-74142857D01*
X89310714Y-74000000D01*
X88953571Y-73285714D02*
X89953571Y-73285714D01*
X89096428Y-73285714D02*
X89025000Y-73214285D01*
X88953571Y-73071428D01*
X88953571Y-72857142D01*
X89025000Y-72714285D01*
X89167857Y-72642857D01*
X89953571Y-72642857D01*
X89953571Y-71928571D02*
X88453571Y-71928571D01*
X89382142Y-71785714D02*
X89953571Y-71357142D01*
X88953571Y-71357142D02*
X89525000Y-71928571D01*
X89882142Y-70142857D02*
X89953571Y-70285714D01*
X89953571Y-70571428D01*
X89882142Y-70714285D01*
X89739285Y-70785714D01*
X89167857Y-70785714D01*
X89025000Y-70714285D01*
X88953571Y-70571428D01*
X88953571Y-70285714D01*
X89025000Y-70142857D01*
X89167857Y-70071428D01*
X89310714Y-70071428D01*
X89453571Y-70785714D01*
X88953571Y-69428571D02*
X89953571Y-69428571D01*
X89096428Y-69428571D02*
X89025000Y-69357142D01*
X88953571Y-69214285D01*
X88953571Y-69000000D01*
X89025000Y-68857142D01*
X89167857Y-68785714D01*
X89953571Y-68785714D01*
D11*
X132550000Y-96500000D02*
X115050000Y-96500000D01*
X132550000Y-96500000D02*
X132550000Y-103000000D01*
X115050000Y-103000000D02*
X132550000Y-103000000D01*
X115050000Y-96500000D02*
X115050000Y-103000000D01*
X112800000Y-103000000D02*
X112800000Y-96500000D01*
X95300000Y-103000000D02*
X112800000Y-103000000D01*
X95300000Y-96500000D02*
X95300000Y-103000000D01*
X112800000Y-96500000D02*
X95300000Y-96500000D01*
D12*
G04 #@! TO.C,U1*
X68050000Y-55220000D02*
X68050000Y-53950000D01*
X68050000Y-53950000D02*
X75670000Y-53950000D01*
X75670000Y-53950000D02*
X75670000Y-55220000D01*
X66780000Y-66650000D02*
X66780000Y-70460000D01*
X66780000Y-70460000D02*
X69320000Y-70460000D01*
X69320000Y-70460000D02*
X69320000Y-66650000D01*
X69320000Y-66650000D02*
X66780000Y-66650000D01*
X68050000Y-60300000D02*
X75670000Y-60300000D01*
X75670000Y-60300000D02*
X75670000Y-55220000D01*
X68050000Y-60300000D02*
X68050000Y-55220000D01*
X66780000Y-61570000D02*
X66780000Y-64110000D01*
X66780000Y-64110000D02*
X69320000Y-64110000D01*
X69320000Y-64110000D02*
X69320000Y-61570000D01*
X69320000Y-61570000D02*
X66780000Y-61570000D01*
X74400000Y-88240000D02*
X69320000Y-88240000D01*
X69320000Y-88240000D02*
X69320000Y-85700000D01*
X69320000Y-85700000D02*
X74400000Y-85700000D01*
X74400000Y-85700000D02*
X74400000Y-88240000D01*
X66780000Y-81890000D02*
X76940000Y-81890000D01*
X76940000Y-73000000D02*
X66780000Y-73000000D01*
X76940000Y-81890000D02*
X76940000Y-73000000D01*
X66780000Y-81890000D02*
X66780000Y-73000000D01*
X80750000Y-55220000D02*
X80750000Y-90780000D01*
X80750000Y-90780000D02*
X62970000Y-90780000D01*
X62970000Y-90780000D02*
X62970000Y-55220000D01*
X62970000Y-55220000D02*
X80750000Y-55220000D01*
G04 #@! TO.C,D1*
X86237000Y-56613000D02*
X86237000Y-58137000D01*
X86110000Y-56613000D02*
X86110000Y-58137000D01*
X85983000Y-58137000D02*
X85983000Y-56613000D01*
X85602000Y-56613000D02*
X85602000Y-58137000D01*
X85729000Y-58137000D02*
X85729000Y-56613000D01*
X85856000Y-56613000D02*
X85856000Y-58137000D01*
X90555000Y-56613000D02*
X90047000Y-56613000D01*
X90555000Y-58137000D02*
X90555000Y-56613000D01*
X85475000Y-58137000D02*
X90555000Y-58137000D01*
X85475000Y-56613000D02*
X85475000Y-58137000D01*
X90555000Y-56613000D02*
X85475000Y-56613000D01*
G04 #@! TO.C,D2*
X86237000Y-64233000D02*
X86237000Y-65757000D01*
X86110000Y-64233000D02*
X86110000Y-65757000D01*
X85983000Y-65757000D02*
X85983000Y-64233000D01*
X85602000Y-64233000D02*
X85602000Y-65757000D01*
X85729000Y-65757000D02*
X85729000Y-64233000D01*
X85856000Y-64233000D02*
X85856000Y-65757000D01*
X90555000Y-64233000D02*
X90047000Y-64233000D01*
X90555000Y-65757000D02*
X90555000Y-64233000D01*
X85475000Y-65757000D02*
X90555000Y-65757000D01*
X85475000Y-64233000D02*
X85475000Y-65757000D01*
X90555000Y-64233000D02*
X85475000Y-64233000D01*
G04 #@! TO.C,D3*
X90555000Y-59153000D02*
X85475000Y-59153000D01*
X85475000Y-59153000D02*
X85475000Y-60677000D01*
X85475000Y-60677000D02*
X90555000Y-60677000D01*
X90555000Y-60677000D02*
X90555000Y-59153000D01*
X90555000Y-59153000D02*
X90047000Y-59153000D01*
X85856000Y-59153000D02*
X85856000Y-60677000D01*
X85729000Y-60677000D02*
X85729000Y-59153000D01*
X85602000Y-59153000D02*
X85602000Y-60677000D01*
X85983000Y-60677000D02*
X85983000Y-59153000D01*
X86110000Y-59153000D02*
X86110000Y-60677000D01*
X86237000Y-59153000D02*
X86237000Y-60677000D01*
G04 #@! TO.C,D4*
X90555000Y-61693000D02*
X85475000Y-61693000D01*
X85475000Y-61693000D02*
X85475000Y-63217000D01*
X85475000Y-63217000D02*
X90555000Y-63217000D01*
X90555000Y-63217000D02*
X90555000Y-61693000D01*
X90555000Y-61693000D02*
X90047000Y-61693000D01*
X85856000Y-61693000D02*
X85856000Y-63217000D01*
X85729000Y-63217000D02*
X85729000Y-61693000D01*
X85602000Y-61693000D02*
X85602000Y-63217000D01*
X85983000Y-63217000D02*
X85983000Y-61693000D01*
X86110000Y-61693000D02*
X86110000Y-63217000D01*
X86237000Y-61693000D02*
X86237000Y-63217000D01*
G04 #@! TO.C,J1*
X80860000Y-105000000D02*
X74860000Y-105000000D01*
X74860000Y-105000000D02*
X74860000Y-93000000D01*
X74860000Y-93000000D02*
X80860000Y-93000000D01*
X80860000Y-93000000D02*
X80860000Y-105000000D01*
G04 #@! TO.C,J2*
X68860000Y-93000000D02*
X68860000Y-105000000D01*
X62860000Y-93000000D02*
X68860000Y-93000000D01*
X62860000Y-105000000D02*
X62860000Y-93000000D01*
X68860000Y-105000000D02*
X62860000Y-105000000D01*
G04 #@! TO.C,R1*
X84745000Y-95221000D02*
X84745000Y-94713000D01*
X84745000Y-101317000D02*
X84745000Y-100809000D01*
X85507000Y-100809000D02*
X83983000Y-100809000D01*
X85761000Y-100555000D02*
X85507000Y-100809000D01*
X85761000Y-100301000D02*
X85761000Y-100555000D01*
X85507000Y-100047000D02*
X85761000Y-100301000D01*
X85507000Y-95983000D02*
X85507000Y-100047000D01*
X85761000Y-95729000D02*
X85507000Y-95983000D01*
X85761000Y-95475000D02*
X85761000Y-95729000D01*
X85507000Y-95221000D02*
X85761000Y-95475000D01*
X83983000Y-95221000D02*
X85507000Y-95221000D01*
X83729000Y-95475000D02*
X83983000Y-95221000D01*
X83729000Y-95729000D02*
X83729000Y-95475000D01*
X83983000Y-95983000D02*
X83729000Y-95729000D01*
X83983000Y-100047000D02*
X83983000Y-95983000D01*
X83729000Y-100301000D02*
X83983000Y-100047000D01*
X83729000Y-100555000D02*
X83729000Y-100301000D01*
X83983000Y-100809000D02*
X83729000Y-100555000D01*
G04 #@! TO.C,R2*
X71098000Y-100794000D02*
X70844000Y-100540000D01*
X70844000Y-100540000D02*
X70844000Y-100286000D01*
X70844000Y-100286000D02*
X71098000Y-100032000D01*
X71098000Y-100032000D02*
X71098000Y-95968000D01*
X71098000Y-95968000D02*
X70844000Y-95714000D01*
X70844000Y-95714000D02*
X70844000Y-95460000D01*
X70844000Y-95460000D02*
X71098000Y-95206000D01*
X71098000Y-95206000D02*
X72622000Y-95206000D01*
X72622000Y-95206000D02*
X72876000Y-95460000D01*
X72876000Y-95460000D02*
X72876000Y-95714000D01*
X72876000Y-95714000D02*
X72622000Y-95968000D01*
X72622000Y-95968000D02*
X72622000Y-100032000D01*
X72622000Y-100032000D02*
X72876000Y-100286000D01*
X72876000Y-100286000D02*
X72876000Y-100540000D01*
X72876000Y-100540000D02*
X72622000Y-100794000D01*
X72622000Y-100794000D02*
X71098000Y-100794000D01*
X71860000Y-101302000D02*
X71860000Y-100794000D01*
X71860000Y-95206000D02*
X71860000Y-94698000D01*
D13*
G04 #@! TO.C,J3*
X60500000Y-93570000D02*
X57840000Y-93570000D01*
X60500000Y-93570000D02*
X60500000Y-75730000D01*
X60500000Y-75730000D02*
X57840000Y-75730000D01*
X57840000Y-93570000D02*
X57840000Y-75730000D01*
X57840000Y-96170000D02*
X57840000Y-94840000D01*
X59170000Y-96170000D02*
X57840000Y-96170000D01*
G04 #@! TO.C,U1*
D12*
X81472380Y-73761904D02*
X82281904Y-73761904D01*
X82377142Y-73714285D01*
X82424761Y-73666666D01*
X82472380Y-73571428D01*
X82472380Y-73380952D01*
X82424761Y-73285714D01*
X82377142Y-73238095D01*
X82281904Y-73190476D01*
X81472380Y-73190476D01*
X82472380Y-72190476D02*
X82472380Y-72761904D01*
X82472380Y-72476190D02*
X81472380Y-72476190D01*
X81615238Y-72571428D01*
X81710476Y-72666666D01*
X81758095Y-72761904D01*
X72923809Y-62292380D02*
X73495238Y-62292380D01*
X73209523Y-63292380D02*
X73209523Y-62292380D01*
X73733333Y-62292380D02*
X74352380Y-62292380D01*
X74019047Y-62673333D01*
X74161904Y-62673333D01*
X74257142Y-62720952D01*
X74304761Y-62768571D01*
X74352380Y-62863809D01*
X74352380Y-63101904D01*
X74304761Y-63197142D01*
X74257142Y-63244761D01*
X74161904Y-63292380D01*
X73876190Y-63292380D01*
X73780952Y-63244761D01*
X73733333Y-63197142D01*
X74780952Y-63197142D02*
X74828571Y-63244761D01*
X74780952Y-63292380D01*
X74733333Y-63244761D01*
X74780952Y-63197142D01*
X74780952Y-63292380D01*
X75209523Y-62387619D02*
X75257142Y-62340000D01*
X75352380Y-62292380D01*
X75590476Y-62292380D01*
X75685714Y-62340000D01*
X75733333Y-62387619D01*
X75780952Y-62482857D01*
X75780952Y-62578095D01*
X75733333Y-62720952D01*
X75161904Y-63292380D01*
X75780952Y-63292380D01*
X72923809Y-66102380D02*
X73495238Y-66102380D01*
X73209523Y-67102380D02*
X73209523Y-66102380D01*
X73733333Y-66102380D02*
X74352380Y-66102380D01*
X74019047Y-66483333D01*
X74161904Y-66483333D01*
X74257142Y-66530952D01*
X74304761Y-66578571D01*
X74352380Y-66673809D01*
X74352380Y-66911904D01*
X74304761Y-67007142D01*
X74257142Y-67054761D01*
X74161904Y-67102380D01*
X73876190Y-67102380D01*
X73780952Y-67054761D01*
X73733333Y-67007142D01*
X74780952Y-67007142D02*
X74828571Y-67054761D01*
X74780952Y-67102380D01*
X74733333Y-67054761D01*
X74780952Y-67007142D01*
X74780952Y-67102380D01*
X75780952Y-67102380D02*
X75209523Y-67102380D01*
X75495238Y-67102380D02*
X75495238Y-66102380D01*
X75400000Y-66245238D01*
X75304761Y-66340476D01*
X75209523Y-66388095D01*
G04 #@! TO.C,D1*
X87449923Y-56336904D02*
X87449923Y-55536904D01*
X87640400Y-55536904D01*
X87754685Y-55575000D01*
X87830876Y-55651190D01*
X87868971Y-55727380D01*
X87907066Y-55879761D01*
X87907066Y-55994047D01*
X87868971Y-56146428D01*
X87830876Y-56222619D01*
X87754685Y-56298809D01*
X87640400Y-56336904D01*
X87449923Y-56336904D01*
X88668971Y-56336904D02*
X88211828Y-56336904D01*
X88440400Y-56336904D02*
X88440400Y-55536904D01*
X88364209Y-55651190D01*
X88288019Y-55727380D01*
X88211828Y-55765476D01*
G04 #@! TO.C,D2*
X87449923Y-63956904D02*
X87449923Y-63156904D01*
X87640400Y-63156904D01*
X87754685Y-63195000D01*
X87830876Y-63271190D01*
X87868971Y-63347380D01*
X87907066Y-63499761D01*
X87907066Y-63614047D01*
X87868971Y-63766428D01*
X87830876Y-63842619D01*
X87754685Y-63918809D01*
X87640400Y-63956904D01*
X87449923Y-63956904D01*
X88211828Y-63233095D02*
X88249923Y-63195000D01*
X88326114Y-63156904D01*
X88516590Y-63156904D01*
X88592780Y-63195000D01*
X88630876Y-63233095D01*
X88668971Y-63309285D01*
X88668971Y-63385476D01*
X88630876Y-63499761D01*
X88173733Y-63956904D01*
X88668971Y-63956904D01*
G04 #@! TO.C,D3*
X87449923Y-58876904D02*
X87449923Y-58076904D01*
X87640400Y-58076904D01*
X87754685Y-58115000D01*
X87830876Y-58191190D01*
X87868971Y-58267380D01*
X87907066Y-58419761D01*
X87907066Y-58534047D01*
X87868971Y-58686428D01*
X87830876Y-58762619D01*
X87754685Y-58838809D01*
X87640400Y-58876904D01*
X87449923Y-58876904D01*
X88173733Y-58076904D02*
X88668971Y-58076904D01*
X88402304Y-58381666D01*
X88516590Y-58381666D01*
X88592780Y-58419761D01*
X88630876Y-58457857D01*
X88668971Y-58534047D01*
X88668971Y-58724523D01*
X88630876Y-58800714D01*
X88592780Y-58838809D01*
X88516590Y-58876904D01*
X88288019Y-58876904D01*
X88211828Y-58838809D01*
X88173733Y-58800714D01*
G04 #@! TO.C,D4*
X87449923Y-61416904D02*
X87449923Y-60616904D01*
X87640400Y-60616904D01*
X87754685Y-60655000D01*
X87830876Y-60731190D01*
X87868971Y-60807380D01*
X87907066Y-60959761D01*
X87907066Y-61074047D01*
X87868971Y-61226428D01*
X87830876Y-61302619D01*
X87754685Y-61378809D01*
X87640400Y-61416904D01*
X87449923Y-61416904D01*
X88592780Y-60883571D02*
X88592780Y-61416904D01*
X88402304Y-60578809D02*
X88211828Y-61150238D01*
X88707066Y-61150238D01*
G04 #@! TO.C,J1*
X76848095Y-98002380D02*
X77419523Y-98002380D01*
X77133809Y-99002380D02*
X77133809Y-98002380D01*
X78324285Y-99002380D02*
X77990952Y-98526190D01*
X77752857Y-99002380D02*
X77752857Y-98002380D01*
X78133809Y-98002380D01*
X78229047Y-98050000D01*
X78276666Y-98097619D01*
X78324285Y-98192857D01*
X78324285Y-98335714D01*
X78276666Y-98430952D01*
X78229047Y-98478571D01*
X78133809Y-98526190D01*
X77752857Y-98526190D01*
X79324285Y-99002380D02*
X78990952Y-98526190D01*
X78752857Y-99002380D02*
X78752857Y-98002380D01*
X79133809Y-98002380D01*
X79229047Y-98050000D01*
X79276666Y-98097619D01*
X79324285Y-98192857D01*
X79324285Y-98335714D01*
X79276666Y-98430952D01*
X79229047Y-98478571D01*
X79133809Y-98526190D01*
X78752857Y-98526190D01*
X79705238Y-98954761D02*
X79848095Y-99002380D01*
X80086190Y-99002380D01*
X80181428Y-98954761D01*
X80229047Y-98907142D01*
X80276666Y-98811904D01*
X80276666Y-98716666D01*
X80229047Y-98621428D01*
X80181428Y-98573809D01*
X80086190Y-98526190D01*
X79895714Y-98478571D01*
X79800476Y-98430952D01*
X79752857Y-98383333D01*
X79705238Y-98288095D01*
X79705238Y-98192857D01*
X79752857Y-98097619D01*
X79800476Y-98050000D01*
X79895714Y-98002380D01*
X80133809Y-98002380D01*
X80276666Y-98050000D01*
G04 #@! TO.C,J2*
X64848095Y-98002380D02*
X65419523Y-98002380D01*
X65133809Y-99002380D02*
X65133809Y-98002380D01*
X66324285Y-99002380D02*
X65990952Y-98526190D01*
X65752857Y-99002380D02*
X65752857Y-98002380D01*
X66133809Y-98002380D01*
X66229047Y-98050000D01*
X66276666Y-98097619D01*
X66324285Y-98192857D01*
X66324285Y-98335714D01*
X66276666Y-98430952D01*
X66229047Y-98478571D01*
X66133809Y-98526190D01*
X65752857Y-98526190D01*
X67324285Y-99002380D02*
X66990952Y-98526190D01*
X66752857Y-99002380D02*
X66752857Y-98002380D01*
X67133809Y-98002380D01*
X67229047Y-98050000D01*
X67276666Y-98097619D01*
X67324285Y-98192857D01*
X67324285Y-98335714D01*
X67276666Y-98430952D01*
X67229047Y-98478571D01*
X67133809Y-98526190D01*
X66752857Y-98526190D01*
X67705238Y-98954761D02*
X67848095Y-99002380D01*
X68086190Y-99002380D01*
X68181428Y-98954761D01*
X68229047Y-98907142D01*
X68276666Y-98811904D01*
X68276666Y-98716666D01*
X68229047Y-98621428D01*
X68181428Y-98573809D01*
X68086190Y-98526190D01*
X67895714Y-98478571D01*
X67800476Y-98430952D01*
X67752857Y-98383333D01*
X67705238Y-98288095D01*
X67705238Y-98192857D01*
X67752857Y-98097619D01*
X67800476Y-98050000D01*
X67895714Y-98002380D01*
X68133809Y-98002380D01*
X68276666Y-98050000D01*
G04 #@! TO.C,R1*
X86606904Y-98173733D02*
X86225952Y-98440400D01*
X86606904Y-98630876D02*
X85806904Y-98630876D01*
X85806904Y-98326114D01*
X85845000Y-98249923D01*
X85883095Y-98211828D01*
X85959285Y-98173733D01*
X86073571Y-98173733D01*
X86149761Y-98211828D01*
X86187857Y-98249923D01*
X86225952Y-98326114D01*
X86225952Y-98630876D01*
X86606904Y-97411828D02*
X86606904Y-97868971D01*
X86606904Y-97640400D02*
X85806904Y-97640400D01*
X85921190Y-97716590D01*
X85997380Y-97792780D01*
X86035476Y-97868971D01*
G04 #@! TO.C,R2*
X73721904Y-98158733D02*
X73340952Y-98425400D01*
X73721904Y-98615876D02*
X72921904Y-98615876D01*
X72921904Y-98311114D01*
X72960000Y-98234923D01*
X72998095Y-98196828D01*
X73074285Y-98158733D01*
X73188571Y-98158733D01*
X73264761Y-98196828D01*
X73302857Y-98234923D01*
X73340952Y-98311114D01*
X73340952Y-98615876D01*
X72998095Y-97853971D02*
X72960000Y-97815876D01*
X72921904Y-97739685D01*
X72921904Y-97549209D01*
X72960000Y-97473019D01*
X72998095Y-97434923D01*
X73074285Y-97396828D01*
X73150476Y-97396828D01*
X73264761Y-97434923D01*
X73721904Y-97892066D01*
X73721904Y-97396828D01*
G04 #@! TO.C,J3*
X58836666Y-97062380D02*
X58836666Y-97776666D01*
X58789047Y-97919523D01*
X58693809Y-98014761D01*
X58550952Y-98062380D01*
X58455714Y-98062380D01*
X59217619Y-97062380D02*
X59836666Y-97062380D01*
X59503333Y-97443333D01*
X59646190Y-97443333D01*
X59741428Y-97490952D01*
X59789047Y-97538571D01*
X59836666Y-97633809D01*
X59836666Y-97871904D01*
X59789047Y-97967142D01*
X59741428Y-98014761D01*
X59646190Y-98062380D01*
X59360476Y-98062380D01*
X59265238Y-98014761D01*
X59217619Y-97967142D01*
G04 #@! TD*
M02*
