G04 #@! TF.GenerationSoftware,KiCad,Pcbnew,(5.0.2)-1*
G04 #@! TF.CreationDate,2019-04-07T10:59:11+09:00*
G04 #@! TF.ProjectId,mitcard,6d697463-6172-4642-9e6b-696361645f70,rev?*
G04 #@! TF.SameCoordinates,Original*
G04 #@! TF.FileFunction,Legend,Bot*
G04 #@! TF.FilePolarity,Positive*
%FSLAX46Y46*%
G04 Gerber Fmt 4.6, Leading zero omitted, Abs format (unit mm)*
G04 Created by KiCad (PCBNEW (5.0.2)-1) date 2019/04/07 10:59:11*
%MOMM*%
%LPD*%
G01*
G04 APERTURE LIST*
%ADD10C,0.300000*%
%ADD11C,0.150000*%
G04 APERTURE END LIST*
D10*
X121169285Y-98688571D02*
X121169285Y-97688571D01*
X121169285Y-97831428D02*
X121097857Y-97760000D01*
X120955000Y-97688571D01*
X120740714Y-97688571D01*
X120597857Y-97760000D01*
X120526428Y-97902857D01*
X120526428Y-98688571D01*
X120526428Y-97902857D02*
X120455000Y-97760000D01*
X120312142Y-97688571D01*
X120097857Y-97688571D01*
X119955000Y-97760000D01*
X119883571Y-97902857D01*
X119883571Y-98688571D01*
X119169285Y-98688571D02*
X119169285Y-97688571D01*
X119169285Y-97188571D02*
X119240714Y-97260000D01*
X119169285Y-97331428D01*
X119097857Y-97260000D01*
X119169285Y-97188571D01*
X119169285Y-97331428D01*
X118669285Y-97688571D02*
X118097857Y-97688571D01*
X118455000Y-97188571D02*
X118455000Y-98474285D01*
X118383571Y-98617142D01*
X118240714Y-98688571D01*
X118097857Y-98688571D01*
X116955000Y-98617142D02*
X117097857Y-98688571D01*
X117383571Y-98688571D01*
X117526428Y-98617142D01*
X117597857Y-98545714D01*
X117669285Y-98402857D01*
X117669285Y-97974285D01*
X117597857Y-97831428D01*
X117526428Y-97760000D01*
X117383571Y-97688571D01*
X117097857Y-97688571D01*
X116955000Y-97760000D01*
X115669285Y-98688571D02*
X115669285Y-97902857D01*
X115740714Y-97760000D01*
X115883571Y-97688571D01*
X116169285Y-97688571D01*
X116312142Y-97760000D01*
X115669285Y-98617142D02*
X115812142Y-98688571D01*
X116169285Y-98688571D01*
X116312142Y-98617142D01*
X116383571Y-98474285D01*
X116383571Y-98331428D01*
X116312142Y-98188571D01*
X116169285Y-98117142D01*
X115812142Y-98117142D01*
X115669285Y-98045714D01*
X114955000Y-98688571D02*
X114955000Y-97688571D01*
X114955000Y-97974285D02*
X114883571Y-97831428D01*
X114812142Y-97760000D01*
X114669285Y-97688571D01*
X114526428Y-97688571D01*
X113383571Y-98688571D02*
X113383571Y-97188571D01*
X113383571Y-98617142D02*
X113526428Y-98688571D01*
X113812142Y-98688571D01*
X113955000Y-98617142D01*
X114026428Y-98545714D01*
X114097857Y-98402857D01*
X114097857Y-97974285D01*
X114026428Y-97831428D01*
X113955000Y-97760000D01*
X113812142Y-97688571D01*
X113526428Y-97688571D01*
X113383571Y-97760000D01*
X111526428Y-98688571D02*
X111526428Y-97688571D01*
X111526428Y-97974285D02*
X111455000Y-97831428D01*
X111383571Y-97760000D01*
X111240714Y-97688571D01*
X111097857Y-97688571D01*
X110026428Y-98617142D02*
X110169285Y-98688571D01*
X110455000Y-98688571D01*
X110597857Y-98617142D01*
X110669285Y-98474285D01*
X110669285Y-97902857D01*
X110597857Y-97760000D01*
X110455000Y-97688571D01*
X110169285Y-97688571D01*
X110026428Y-97760000D01*
X109955000Y-97902857D01*
X109955000Y-98045714D01*
X110669285Y-98188571D01*
X109455000Y-97688571D02*
X109097857Y-98688571D01*
X108740714Y-97688571D01*
X108169285Y-98545714D02*
X108097857Y-98617142D01*
X108169285Y-98688571D01*
X108240714Y-98617142D01*
X108169285Y-98545714D01*
X108169285Y-98688571D01*
X107526428Y-97331428D02*
X107455000Y-97260000D01*
X107312142Y-97188571D01*
X106955000Y-97188571D01*
X106812142Y-97260000D01*
X106740714Y-97331428D01*
X106669285Y-97474285D01*
X106669285Y-97617142D01*
X106740714Y-97831428D01*
X107597857Y-98688571D01*
X106669285Y-98688571D01*
X129169285Y-101238571D02*
X129169285Y-99738571D01*
X128812142Y-99738571D01*
X128597857Y-99810000D01*
X128455000Y-99952857D01*
X128383571Y-100095714D01*
X128312142Y-100381428D01*
X128312142Y-100595714D01*
X128383571Y-100881428D01*
X128455000Y-101024285D01*
X128597857Y-101167142D01*
X128812142Y-101238571D01*
X129169285Y-101238571D01*
X127097857Y-101167142D02*
X127240714Y-101238571D01*
X127526428Y-101238571D01*
X127669285Y-101167142D01*
X127740714Y-101024285D01*
X127740714Y-100452857D01*
X127669285Y-100310000D01*
X127526428Y-100238571D01*
X127240714Y-100238571D01*
X127097857Y-100310000D01*
X127026428Y-100452857D01*
X127026428Y-100595714D01*
X127740714Y-100738571D01*
X126455000Y-101167142D02*
X126312142Y-101238571D01*
X126026428Y-101238571D01*
X125883571Y-101167142D01*
X125812142Y-101024285D01*
X125812142Y-100952857D01*
X125883571Y-100810000D01*
X126026428Y-100738571D01*
X126240714Y-100738571D01*
X126383571Y-100667142D01*
X126455000Y-100524285D01*
X126455000Y-100452857D01*
X126383571Y-100310000D01*
X126240714Y-100238571D01*
X126026428Y-100238571D01*
X125883571Y-100310000D01*
X125169285Y-101238571D02*
X125169285Y-100238571D01*
X125169285Y-99738571D02*
X125240714Y-99810000D01*
X125169285Y-99881428D01*
X125097857Y-99810000D01*
X125169285Y-99738571D01*
X125169285Y-99881428D01*
X123812142Y-100238571D02*
X123812142Y-101452857D01*
X123883571Y-101595714D01*
X123955000Y-101667142D01*
X124097857Y-101738571D01*
X124312142Y-101738571D01*
X124455000Y-101667142D01*
X123812142Y-101167142D02*
X123955000Y-101238571D01*
X124240714Y-101238571D01*
X124383571Y-101167142D01*
X124455000Y-101095714D01*
X124526428Y-100952857D01*
X124526428Y-100524285D01*
X124455000Y-100381428D01*
X124383571Y-100310000D01*
X124240714Y-100238571D01*
X123955000Y-100238571D01*
X123812142Y-100310000D01*
X123097857Y-100238571D02*
X123097857Y-101238571D01*
X123097857Y-100381428D02*
X123026428Y-100310000D01*
X122883571Y-100238571D01*
X122669285Y-100238571D01*
X122526428Y-100310000D01*
X122455000Y-100452857D01*
X122455000Y-101238571D01*
X121169285Y-101167142D02*
X121312142Y-101238571D01*
X121597857Y-101238571D01*
X121740714Y-101167142D01*
X121812142Y-101024285D01*
X121812142Y-100452857D01*
X121740714Y-100310000D01*
X121597857Y-100238571D01*
X121312142Y-100238571D01*
X121169285Y-100310000D01*
X121097857Y-100452857D01*
X121097857Y-100595714D01*
X121812142Y-100738571D01*
X119812142Y-101238571D02*
X119812142Y-99738571D01*
X119812142Y-101167142D02*
X119955000Y-101238571D01*
X120240714Y-101238571D01*
X120383571Y-101167142D01*
X120455000Y-101095714D01*
X120526428Y-100952857D01*
X120526428Y-100524285D01*
X120455000Y-100381428D01*
X120383571Y-100310000D01*
X120240714Y-100238571D01*
X119955000Y-100238571D01*
X119812142Y-100310000D01*
X117955000Y-101238571D02*
X117955000Y-99738571D01*
X117955000Y-100310000D02*
X117812142Y-100238571D01*
X117526428Y-100238571D01*
X117383571Y-100310000D01*
X117312142Y-100381428D01*
X117240714Y-100524285D01*
X117240714Y-100952857D01*
X117312142Y-101095714D01*
X117383571Y-101167142D01*
X117526428Y-101238571D01*
X117812142Y-101238571D01*
X117955000Y-101167142D01*
X116740714Y-100238571D02*
X116383571Y-101238571D01*
X116026428Y-100238571D02*
X116383571Y-101238571D01*
X116526428Y-101595714D01*
X116597857Y-101667142D01*
X116740714Y-101738571D01*
X114312142Y-101238571D02*
X114312142Y-100238571D01*
X114312142Y-100381428D02*
X114240714Y-100310000D01*
X114097857Y-100238571D01*
X113883571Y-100238571D01*
X113740714Y-100310000D01*
X113669285Y-100452857D01*
X113669285Y-101238571D01*
X113669285Y-100452857D02*
X113597857Y-100310000D01*
X113455000Y-100238571D01*
X113240714Y-100238571D01*
X113097857Y-100310000D01*
X113026428Y-100452857D01*
X113026428Y-101238571D01*
X112312142Y-101238571D02*
X112312142Y-100238571D01*
X112312142Y-99738571D02*
X112383571Y-99810000D01*
X112312142Y-99881428D01*
X112240714Y-99810000D01*
X112312142Y-99738571D01*
X112312142Y-99881428D01*
X111812142Y-100238571D02*
X111240714Y-100238571D01*
X111597857Y-99738571D02*
X111597857Y-101024285D01*
X111526428Y-101167142D01*
X111383571Y-101238571D01*
X111240714Y-101238571D01*
X110097857Y-101238571D02*
X110097857Y-100452857D01*
X110169285Y-100310000D01*
X110312142Y-100238571D01*
X110597857Y-100238571D01*
X110740714Y-100310000D01*
X110097857Y-101167142D02*
X110240714Y-101238571D01*
X110597857Y-101238571D01*
X110740714Y-101167142D01*
X110812142Y-101024285D01*
X110812142Y-100881428D01*
X110740714Y-100738571D01*
X110597857Y-100667142D01*
X110240714Y-100667142D01*
X110097857Y-100595714D01*
X109383571Y-101238571D02*
X109383571Y-100238571D01*
X109383571Y-100524285D02*
X109312142Y-100381428D01*
X109240714Y-100310000D01*
X109097857Y-100238571D01*
X108955000Y-100238571D01*
X108240714Y-101238571D02*
X108383571Y-101167142D01*
X108455000Y-101095714D01*
X108526428Y-100952857D01*
X108526428Y-100524285D01*
X108455000Y-100381428D01*
X108383571Y-100310000D01*
X108240714Y-100238571D01*
X108026428Y-100238571D01*
X107883571Y-100310000D01*
X107812142Y-100381428D01*
X107740714Y-100524285D01*
X107740714Y-100952857D01*
X107812142Y-101095714D01*
X107883571Y-101167142D01*
X108026428Y-101238571D01*
X108240714Y-101238571D01*
X107312142Y-99738571D02*
X106455000Y-99738571D01*
X106883571Y-101238571D02*
X106883571Y-99738571D01*
X105955000Y-101238571D02*
X105955000Y-99738571D01*
X105312142Y-101238571D02*
X105312142Y-100452857D01*
X105383571Y-100310000D01*
X105526428Y-100238571D01*
X105740714Y-100238571D01*
X105883571Y-100310000D01*
X105955000Y-100381428D01*
X103955000Y-101238571D02*
X103955000Y-100452857D01*
X104026428Y-100310000D01*
X104169285Y-100238571D01*
X104455000Y-100238571D01*
X104597857Y-100310000D01*
X103955000Y-101167142D02*
X104097857Y-101238571D01*
X104455000Y-101238571D01*
X104597857Y-101167142D01*
X104669285Y-101024285D01*
X104669285Y-100881428D01*
X104597857Y-100738571D01*
X104455000Y-100667142D01*
X104097857Y-100667142D01*
X103955000Y-100595714D01*
X103240714Y-100238571D02*
X103240714Y-101238571D01*
X103240714Y-100381428D02*
X103169285Y-100310000D01*
X103026428Y-100238571D01*
X102812142Y-100238571D01*
X102669285Y-100310000D01*
X102597857Y-100452857D01*
X102597857Y-101238571D01*
X101883571Y-101238571D02*
X101883571Y-99738571D01*
X101740714Y-100667142D02*
X101312142Y-101238571D01*
X101312142Y-100238571D02*
X101883571Y-100810000D01*
X100097857Y-101167142D02*
X100240714Y-101238571D01*
X100526428Y-101238571D01*
X100669285Y-101167142D01*
X100740714Y-101024285D01*
X100740714Y-100452857D01*
X100669285Y-100310000D01*
X100526428Y-100238571D01*
X100240714Y-100238571D01*
X100097857Y-100310000D01*
X100026428Y-100452857D01*
X100026428Y-100595714D01*
X100740714Y-100738571D01*
X99383571Y-100238571D02*
X99383571Y-101238571D01*
X99383571Y-100381428D02*
X99312142Y-100310000D01*
X99169285Y-100238571D01*
X98955000Y-100238571D01*
X98812142Y-100310000D01*
X98740714Y-100452857D01*
X98740714Y-101238571D01*
D11*
G04 #@! TO.C,SW4*
X117450000Y-81654000D02*
X121060000Y-81654000D01*
X117450000Y-77700000D02*
X117450000Y-81645000D01*
X128350000Y-75746000D02*
X119725000Y-75746000D01*
X128350000Y-79654000D02*
X128350000Y-75746000D01*
X128350000Y-79700000D02*
X123300000Y-79746000D01*
X117461000Y-77630000D02*
G75*
G02X119725000Y-75746000I2074000J-190000D01*
G01*
X121065000Y-81630000D02*
G75*
G02X123325000Y-79750000I2070000J-190000D01*
G01*
X125825000Y-90775000D02*
X121275000Y-90775000D01*
X125825000Y-86125000D02*
X123275000Y-86125000D01*
X120975000Y-83925000D02*
X116275000Y-83925000D01*
X120050000Y-88575000D02*
X116275000Y-88575000D01*
X125850000Y-86150000D02*
X125850000Y-90750000D01*
X116275000Y-83950000D02*
X116250000Y-88550000D01*
X120980000Y-83950000D02*
G75*
G03X123350000Y-86120000I2270000J100000D01*
G01*
X121270000Y-90000000D02*
G75*
G03X120050000Y-88580000I-1320000J100000D01*
G01*
X121270000Y-90050000D02*
X121270000Y-90750000D01*
G04 #@! TO.C,SW2*
X98400000Y-81654000D02*
X102010000Y-81654000D01*
X98400000Y-77700000D02*
X98400000Y-81645000D01*
X109300000Y-75746000D02*
X100675000Y-75746000D01*
X109300000Y-79654000D02*
X109300000Y-75746000D01*
X109300000Y-79700000D02*
X104250000Y-79746000D01*
X98411000Y-77630000D02*
G75*
G02X100675000Y-75746000I2074000J-190000D01*
G01*
X102015000Y-81630000D02*
G75*
G02X104275000Y-79750000I2070000J-190000D01*
G01*
X106775000Y-90775000D02*
X102225000Y-90775000D01*
X106775000Y-86125000D02*
X104225000Y-86125000D01*
X101925000Y-83925000D02*
X97225000Y-83925000D01*
X101000000Y-88575000D02*
X97225000Y-88575000D01*
X106800000Y-86150000D02*
X106800000Y-90750000D01*
X97225000Y-83950000D02*
X97200000Y-88550000D01*
X101930000Y-83950000D02*
G75*
G03X104300000Y-86120000I2270000J100000D01*
G01*
X102220000Y-90000000D02*
G75*
G03X101000000Y-88580000I-1320000J100000D01*
G01*
X102220000Y-90050000D02*
X102220000Y-90750000D01*
G04 #@! TO.C,SW3*
X121270000Y-71000000D02*
X121270000Y-71700000D01*
X121270000Y-70950000D02*
G75*
G03X120050000Y-69530000I-1320000J100000D01*
G01*
X120980000Y-64900000D02*
G75*
G03X123350000Y-67070000I2270000J100000D01*
G01*
X116275000Y-64900000D02*
X116250000Y-69500000D01*
X125850000Y-67100000D02*
X125850000Y-71700000D01*
X120050000Y-69525000D02*
X116275000Y-69525000D01*
X120975000Y-64875000D02*
X116275000Y-64875000D01*
X125825000Y-67075000D02*
X123275000Y-67075000D01*
X125825000Y-71725000D02*
X121275000Y-71725000D01*
X121065000Y-62580000D02*
G75*
G02X123325000Y-60700000I2070000J-190000D01*
G01*
X117461000Y-58580000D02*
G75*
G02X119725000Y-56696000I2074000J-190000D01*
G01*
X128350000Y-60650000D02*
X123300000Y-60696000D01*
X128350000Y-60604000D02*
X128350000Y-56696000D01*
X128350000Y-56696000D02*
X119725000Y-56696000D01*
X117450000Y-58650000D02*
X117450000Y-62595000D01*
X117450000Y-62604000D02*
X121060000Y-62604000D01*
G04 #@! TO.C,SW1*
X98400000Y-62604000D02*
X102010000Y-62604000D01*
X98400000Y-58650000D02*
X98400000Y-62595000D01*
X109300000Y-56696000D02*
X100675000Y-56696000D01*
X109300000Y-60604000D02*
X109300000Y-56696000D01*
X109300000Y-60650000D02*
X104250000Y-60696000D01*
X98411000Y-58580000D02*
G75*
G02X100675000Y-56696000I2074000J-190000D01*
G01*
X102015000Y-62580000D02*
G75*
G02X104275000Y-60700000I2070000J-190000D01*
G01*
X106775000Y-71725000D02*
X102225000Y-71725000D01*
X106775000Y-67075000D02*
X104225000Y-67075000D01*
X101925000Y-64875000D02*
X97225000Y-64875000D01*
X101000000Y-69525000D02*
X97225000Y-69525000D01*
X106800000Y-67100000D02*
X106800000Y-71700000D01*
X97225000Y-64900000D02*
X97200000Y-69500000D01*
X101930000Y-64900000D02*
G75*
G03X104300000Y-67070000I2270000J100000D01*
G01*
X102220000Y-70950000D02*
G75*
G03X101000000Y-69530000I-1320000J100000D01*
G01*
X102220000Y-71000000D02*
X102220000Y-71700000D01*
G04 #@! TD*
M02*
