G04 #@! TF.GenerationSoftware,KiCad,Pcbnew,(5.0.2)-1*
G04 #@! TF.CreationDate,2019-04-07T10:59:11+09:00*
G04 #@! TF.ProjectId,mitcard,6d697463-6172-4642-9e6b-696361645f70,rev?*
G04 #@! TF.SameCoordinates,Original*
G04 #@! TF.FileFunction,Soldermask,Bot*
G04 #@! TF.FilePolarity,Negative*
%FSLAX46Y46*%
G04 Gerber Fmt 4.6, Leading zero omitted, Abs format (unit mm)*
G04 Created by KiCad (PCBNEW (5.0.2)-1) date 2019/04/07 10:59:11*
%MOMM*%
%LPD*%
G01*
G04 APERTURE LIST*
%ADD10C,0.100000*%
G04 APERTURE END LIST*
D10*
G36*
X78049890Y-102874017D02*
X78168361Y-102923089D01*
X78168364Y-102923091D01*
X78265452Y-102987963D01*
X78274992Y-102994338D01*
X78365662Y-103085008D01*
X78436911Y-103191639D01*
X78485983Y-103310110D01*
X78511000Y-103435881D01*
X78511000Y-103564119D01*
X78485983Y-103689890D01*
X78436911Y-103808361D01*
X78365662Y-103914992D01*
X78274992Y-104005662D01*
X78168361Y-104076911D01*
X78049890Y-104125983D01*
X77924119Y-104151000D01*
X77795881Y-104151000D01*
X77670110Y-104125983D01*
X77551639Y-104076911D01*
X77445008Y-104005662D01*
X77354338Y-103914992D01*
X77283089Y-103808361D01*
X77234017Y-103689890D01*
X77209000Y-103564119D01*
X77209000Y-103435881D01*
X77234017Y-103310110D01*
X77283089Y-103191639D01*
X77354338Y-103085008D01*
X77445008Y-102994338D01*
X77454549Y-102987963D01*
X77551636Y-102923091D01*
X77551639Y-102923089D01*
X77670110Y-102874017D01*
X77795881Y-102849000D01*
X77924119Y-102849000D01*
X78049890Y-102874017D01*
X78049890Y-102874017D01*
G37*
G36*
X66049890Y-102874017D02*
X66168361Y-102923089D01*
X66168364Y-102923091D01*
X66265452Y-102987963D01*
X66274992Y-102994338D01*
X66365662Y-103085008D01*
X66436911Y-103191639D01*
X66485983Y-103310110D01*
X66511000Y-103435881D01*
X66511000Y-103564119D01*
X66485983Y-103689890D01*
X66436911Y-103808361D01*
X66365662Y-103914992D01*
X66274992Y-104005662D01*
X66168361Y-104076911D01*
X66049890Y-104125983D01*
X65924119Y-104151000D01*
X65795881Y-104151000D01*
X65670110Y-104125983D01*
X65551639Y-104076911D01*
X65445008Y-104005662D01*
X65354338Y-103914992D01*
X65283089Y-103808361D01*
X65234017Y-103689890D01*
X65209000Y-103564119D01*
X65209000Y-103435881D01*
X65234017Y-103310110D01*
X65283089Y-103191639D01*
X65354338Y-103085008D01*
X65445008Y-102994338D01*
X65454549Y-102987963D01*
X65551636Y-102923091D01*
X65551639Y-102923089D01*
X65670110Y-102874017D01*
X65795881Y-102849000D01*
X65924119Y-102849000D01*
X66049890Y-102874017D01*
X66049890Y-102874017D01*
G37*
G36*
X63936627Y-100412037D02*
X64049853Y-100446384D01*
X64106467Y-100463557D01*
X64245087Y-100537652D01*
X64262991Y-100547222D01*
X64298729Y-100576552D01*
X64400186Y-100659814D01*
X64483448Y-100761271D01*
X64512778Y-100797009D01*
X64512779Y-100797011D01*
X64596443Y-100953533D01*
X64596443Y-100953534D01*
X64647963Y-101123373D01*
X64661000Y-101255742D01*
X64661000Y-102144258D01*
X64647963Y-102276627D01*
X64635382Y-102318100D01*
X64596443Y-102446467D01*
X64535215Y-102561014D01*
X64512778Y-102602991D01*
X64483448Y-102638729D01*
X64400186Y-102740186D01*
X64262989Y-102852779D01*
X64106466Y-102936443D01*
X64049852Y-102953616D01*
X63936626Y-102987963D01*
X63760000Y-103005359D01*
X63583373Y-102987963D01*
X63470147Y-102953616D01*
X63413533Y-102936443D01*
X63257011Y-102852779D01*
X63257009Y-102852778D01*
X63221271Y-102823448D01*
X63119814Y-102740186D01*
X63007221Y-102602989D01*
X62923557Y-102446466D01*
X62880068Y-102303100D01*
X62872037Y-102276626D01*
X62859000Y-102144257D01*
X62859000Y-101255742D01*
X62860651Y-101238985D01*
X62872038Y-101123375D01*
X62872038Y-101123373D01*
X62923558Y-100953534D01*
X62923558Y-100953533D01*
X63007222Y-100797011D01*
X63007223Y-100797009D01*
X63036553Y-100761271D01*
X63119815Y-100659814D01*
X63221272Y-100576552D01*
X63257010Y-100547222D01*
X63274914Y-100537652D01*
X63413534Y-100463557D01*
X63470148Y-100446384D01*
X63583374Y-100412037D01*
X63760000Y-100394641D01*
X63936627Y-100412037D01*
X63936627Y-100412037D01*
G37*
G36*
X75936627Y-100412037D02*
X76049853Y-100446384D01*
X76106467Y-100463557D01*
X76245087Y-100537652D01*
X76262991Y-100547222D01*
X76298729Y-100576552D01*
X76400186Y-100659814D01*
X76483448Y-100761271D01*
X76512778Y-100797009D01*
X76512779Y-100797011D01*
X76596443Y-100953533D01*
X76596443Y-100953534D01*
X76647963Y-101123373D01*
X76661000Y-101255742D01*
X76661000Y-102144258D01*
X76647963Y-102276627D01*
X76635382Y-102318100D01*
X76596443Y-102446467D01*
X76535215Y-102561014D01*
X76512778Y-102602991D01*
X76483448Y-102638729D01*
X76400186Y-102740186D01*
X76262989Y-102852779D01*
X76106466Y-102936443D01*
X76049852Y-102953616D01*
X75936626Y-102987963D01*
X75760000Y-103005359D01*
X75583373Y-102987963D01*
X75470147Y-102953616D01*
X75413533Y-102936443D01*
X75257011Y-102852779D01*
X75257009Y-102852778D01*
X75221271Y-102823448D01*
X75119814Y-102740186D01*
X75007221Y-102602989D01*
X74923557Y-102446466D01*
X74880068Y-102303100D01*
X74872037Y-102276626D01*
X74859000Y-102144257D01*
X74859000Y-101255742D01*
X74860651Y-101238985D01*
X74872038Y-101123375D01*
X74872038Y-101123373D01*
X74923558Y-100953534D01*
X74923558Y-100953533D01*
X75007222Y-100797011D01*
X75007223Y-100797009D01*
X75036553Y-100761271D01*
X75119815Y-100659814D01*
X75221272Y-100576552D01*
X75257010Y-100547222D01*
X75274914Y-100537652D01*
X75413534Y-100463557D01*
X75470148Y-100446384D01*
X75583374Y-100412037D01*
X75760000Y-100394641D01*
X75936627Y-100412037D01*
X75936627Y-100412037D01*
G37*
G36*
X84993228Y-101096703D02*
X85148100Y-101160853D01*
X85287481Y-101253985D01*
X85406015Y-101372519D01*
X85499147Y-101511900D01*
X85563297Y-101666772D01*
X85596000Y-101831184D01*
X85596000Y-101998816D01*
X85563297Y-102163228D01*
X85499147Y-102318100D01*
X85406015Y-102457481D01*
X85287481Y-102576015D01*
X85148100Y-102669147D01*
X84993228Y-102733297D01*
X84828816Y-102766000D01*
X84661184Y-102766000D01*
X84496772Y-102733297D01*
X84341900Y-102669147D01*
X84202519Y-102576015D01*
X84083985Y-102457481D01*
X83990853Y-102318100D01*
X83926703Y-102163228D01*
X83894000Y-101998816D01*
X83894000Y-101831184D01*
X83926703Y-101666772D01*
X83990853Y-101511900D01*
X84083985Y-101372519D01*
X84202519Y-101253985D01*
X84341900Y-101160853D01*
X84496772Y-101096703D01*
X84661184Y-101064000D01*
X84828816Y-101064000D01*
X84993228Y-101096703D01*
X84993228Y-101096703D01*
G37*
G36*
X72108228Y-101081703D02*
X72263100Y-101145853D01*
X72402481Y-101238985D01*
X72521015Y-101357519D01*
X72614147Y-101496900D01*
X72678297Y-101651772D01*
X72711000Y-101816184D01*
X72711000Y-101983816D01*
X72678297Y-102148228D01*
X72614147Y-102303100D01*
X72521015Y-102442481D01*
X72402481Y-102561015D01*
X72263100Y-102654147D01*
X72108228Y-102718297D01*
X71943816Y-102751000D01*
X71776184Y-102751000D01*
X71611772Y-102718297D01*
X71456900Y-102654147D01*
X71317519Y-102561015D01*
X71198985Y-102442481D01*
X71105853Y-102303100D01*
X71041703Y-102148228D01*
X71009000Y-101983816D01*
X71009000Y-101816184D01*
X71041703Y-101651772D01*
X71105853Y-101496900D01*
X71198985Y-101357519D01*
X71317519Y-101238985D01*
X71456900Y-101145853D01*
X71611772Y-101081703D01*
X71776184Y-101049000D01*
X71943816Y-101049000D01*
X72108228Y-101081703D01*
X72108228Y-101081703D01*
G37*
G36*
X85396000Y-100166000D02*
X84094000Y-100166000D01*
X84094000Y-98564000D01*
X85396000Y-98564000D01*
X85396000Y-100166000D01*
X85396000Y-100166000D01*
G37*
G36*
X72511000Y-100151000D02*
X71209000Y-100151000D01*
X71209000Y-98549000D01*
X72511000Y-98549000D01*
X72511000Y-100151000D01*
X72511000Y-100151000D01*
G37*
G36*
X63936627Y-97412037D02*
X64049853Y-97446384D01*
X64106467Y-97463557D01*
X64245087Y-97537652D01*
X64262991Y-97547222D01*
X64298729Y-97576552D01*
X64400186Y-97659814D01*
X64483448Y-97761271D01*
X64512778Y-97797009D01*
X64512779Y-97797011D01*
X64596443Y-97953533D01*
X64596443Y-97953534D01*
X64647963Y-98123373D01*
X64661000Y-98255742D01*
X64661000Y-99144258D01*
X64647963Y-99276627D01*
X64613616Y-99389853D01*
X64596443Y-99446467D01*
X64522348Y-99585087D01*
X64512778Y-99602991D01*
X64483448Y-99638729D01*
X64400186Y-99740186D01*
X64262989Y-99852779D01*
X64106466Y-99936443D01*
X64049852Y-99953616D01*
X63936626Y-99987963D01*
X63760000Y-100005359D01*
X63583373Y-99987963D01*
X63470147Y-99953616D01*
X63413533Y-99936443D01*
X63257011Y-99852779D01*
X63257009Y-99852778D01*
X63221271Y-99823448D01*
X63119814Y-99740186D01*
X63007221Y-99602989D01*
X62923557Y-99446466D01*
X62906384Y-99389852D01*
X62872037Y-99276626D01*
X62859000Y-99144257D01*
X62859000Y-98255742D01*
X62872038Y-98123373D01*
X62923558Y-97953534D01*
X62923558Y-97953533D01*
X63007222Y-97797011D01*
X63007223Y-97797009D01*
X63036553Y-97761271D01*
X63119815Y-97659814D01*
X63221272Y-97576552D01*
X63257010Y-97547222D01*
X63274914Y-97537652D01*
X63413534Y-97463557D01*
X63470148Y-97446384D01*
X63583374Y-97412037D01*
X63760000Y-97394641D01*
X63936627Y-97412037D01*
X63936627Y-97412037D01*
G37*
G36*
X75936627Y-97412037D02*
X76049853Y-97446384D01*
X76106467Y-97463557D01*
X76245087Y-97537652D01*
X76262991Y-97547222D01*
X76298729Y-97576552D01*
X76400186Y-97659814D01*
X76483448Y-97761271D01*
X76512778Y-97797009D01*
X76512779Y-97797011D01*
X76596443Y-97953533D01*
X76596443Y-97953534D01*
X76647963Y-98123373D01*
X76661000Y-98255742D01*
X76661000Y-99144258D01*
X76647963Y-99276627D01*
X76613616Y-99389853D01*
X76596443Y-99446467D01*
X76522348Y-99585087D01*
X76512778Y-99602991D01*
X76483448Y-99638729D01*
X76400186Y-99740186D01*
X76262989Y-99852779D01*
X76106466Y-99936443D01*
X76049852Y-99953616D01*
X75936626Y-99987963D01*
X75760000Y-100005359D01*
X75583373Y-99987963D01*
X75470147Y-99953616D01*
X75413533Y-99936443D01*
X75257011Y-99852779D01*
X75257009Y-99852778D01*
X75221271Y-99823448D01*
X75119814Y-99740186D01*
X75007221Y-99602989D01*
X74923557Y-99446466D01*
X74906384Y-99389852D01*
X74872037Y-99276626D01*
X74859000Y-99144257D01*
X74859000Y-98255742D01*
X74872038Y-98123373D01*
X74923558Y-97953534D01*
X74923558Y-97953533D01*
X75007222Y-97797011D01*
X75007223Y-97797009D01*
X75036553Y-97761271D01*
X75119815Y-97659814D01*
X75221272Y-97576552D01*
X75257010Y-97547222D01*
X75274914Y-97537652D01*
X75413534Y-97463557D01*
X75470148Y-97446384D01*
X75583374Y-97412037D01*
X75760000Y-97394641D01*
X75936627Y-97412037D01*
X75936627Y-97412037D01*
G37*
G36*
X85396000Y-97466000D02*
X84094000Y-97466000D01*
X84094000Y-95864000D01*
X85396000Y-95864000D01*
X85396000Y-97466000D01*
X85396000Y-97466000D01*
G37*
G36*
X72511000Y-97451000D02*
X71209000Y-97451000D01*
X71209000Y-95849000D01*
X72511000Y-95849000D01*
X72511000Y-97451000D01*
X72511000Y-97451000D01*
G37*
G36*
X78049890Y-95874017D02*
X78168361Y-95923089D01*
X78168364Y-95923091D01*
X78265452Y-95987963D01*
X78274992Y-95994338D01*
X78365662Y-96085008D01*
X78436911Y-96191639D01*
X78485983Y-96310110D01*
X78511000Y-96435881D01*
X78511000Y-96564119D01*
X78485983Y-96689890D01*
X78436911Y-96808361D01*
X78365662Y-96914992D01*
X78274992Y-97005662D01*
X78168361Y-97076911D01*
X78049890Y-97125983D01*
X77924119Y-97151000D01*
X77795881Y-97151000D01*
X77670110Y-97125983D01*
X77551639Y-97076911D01*
X77445008Y-97005662D01*
X77354338Y-96914992D01*
X77283089Y-96808361D01*
X77234017Y-96689890D01*
X77209000Y-96564119D01*
X77209000Y-96435881D01*
X77234017Y-96310110D01*
X77283089Y-96191639D01*
X77354338Y-96085008D01*
X77445008Y-95994338D01*
X77454549Y-95987963D01*
X77551636Y-95923091D01*
X77551639Y-95923089D01*
X77670110Y-95874017D01*
X77795881Y-95849000D01*
X77924119Y-95849000D01*
X78049890Y-95874017D01*
X78049890Y-95874017D01*
G37*
G36*
X66049890Y-95874017D02*
X66168361Y-95923089D01*
X66168364Y-95923091D01*
X66265452Y-95987963D01*
X66274992Y-95994338D01*
X66365662Y-96085008D01*
X66436911Y-96191639D01*
X66485983Y-96310110D01*
X66511000Y-96435881D01*
X66511000Y-96564119D01*
X66485983Y-96689890D01*
X66436911Y-96808361D01*
X66365662Y-96914992D01*
X66274992Y-97005662D01*
X66168361Y-97076911D01*
X66049890Y-97125983D01*
X65924119Y-97151000D01*
X65795881Y-97151000D01*
X65670110Y-97125983D01*
X65551639Y-97076911D01*
X65445008Y-97005662D01*
X65354338Y-96914992D01*
X65283089Y-96808361D01*
X65234017Y-96689890D01*
X65209000Y-96564119D01*
X65209000Y-96435881D01*
X65234017Y-96310110D01*
X65283089Y-96191639D01*
X65354338Y-96085008D01*
X65445008Y-95994338D01*
X65454549Y-95987963D01*
X65551636Y-95923091D01*
X65551639Y-95923089D01*
X65670110Y-95874017D01*
X65795881Y-95849000D01*
X65924119Y-95849000D01*
X66049890Y-95874017D01*
X66049890Y-95874017D01*
G37*
G36*
X63936627Y-93412037D02*
X64025466Y-93438986D01*
X64106467Y-93463557D01*
X64245087Y-93537652D01*
X64262991Y-93547222D01*
X64293815Y-93572519D01*
X64400186Y-93659814D01*
X64483448Y-93761271D01*
X64512778Y-93797009D01*
X64512779Y-93797011D01*
X64596443Y-93953533D01*
X64596443Y-93953534D01*
X64647963Y-94123373D01*
X64661000Y-94255742D01*
X64661000Y-95144258D01*
X64647963Y-95276627D01*
X64613616Y-95389853D01*
X64596443Y-95446467D01*
X64522348Y-95585087D01*
X64512778Y-95602991D01*
X64483448Y-95638729D01*
X64400186Y-95740186D01*
X64262989Y-95852779D01*
X64106466Y-95936443D01*
X64049852Y-95953616D01*
X63936626Y-95987963D01*
X63760000Y-96005359D01*
X63583373Y-95987963D01*
X63470147Y-95953616D01*
X63413533Y-95936443D01*
X63257011Y-95852779D01*
X63257009Y-95852778D01*
X63221271Y-95823448D01*
X63119814Y-95740186D01*
X63007221Y-95602989D01*
X62923557Y-95446466D01*
X62906384Y-95389852D01*
X62872037Y-95276626D01*
X62859000Y-95144257D01*
X62859000Y-94255742D01*
X62872038Y-94123373D01*
X62923558Y-93953534D01*
X62923558Y-93953533D01*
X63007222Y-93797011D01*
X63007223Y-93797009D01*
X63036553Y-93761271D01*
X63119815Y-93659814D01*
X63226186Y-93572519D01*
X63257010Y-93547222D01*
X63274914Y-93537652D01*
X63413534Y-93463557D01*
X63494535Y-93438986D01*
X63583374Y-93412037D01*
X63760000Y-93394641D01*
X63936627Y-93412037D01*
X63936627Y-93412037D01*
G37*
G36*
X75936627Y-93412037D02*
X76025466Y-93438986D01*
X76106467Y-93463557D01*
X76245087Y-93537652D01*
X76262991Y-93547222D01*
X76293815Y-93572519D01*
X76400186Y-93659814D01*
X76483448Y-93761271D01*
X76512778Y-93797009D01*
X76512779Y-93797011D01*
X76596443Y-93953533D01*
X76596443Y-93953534D01*
X76647963Y-94123373D01*
X76661000Y-94255742D01*
X76661000Y-95144258D01*
X76647963Y-95276627D01*
X76613616Y-95389853D01*
X76596443Y-95446467D01*
X76522348Y-95585087D01*
X76512778Y-95602991D01*
X76483448Y-95638729D01*
X76400186Y-95740186D01*
X76262989Y-95852779D01*
X76106466Y-95936443D01*
X76049852Y-95953616D01*
X75936626Y-95987963D01*
X75760000Y-96005359D01*
X75583373Y-95987963D01*
X75470147Y-95953616D01*
X75413533Y-95936443D01*
X75257011Y-95852779D01*
X75257009Y-95852778D01*
X75221271Y-95823448D01*
X75119814Y-95740186D01*
X75007221Y-95602989D01*
X74923557Y-95446466D01*
X74906384Y-95389852D01*
X74872037Y-95276626D01*
X74859000Y-95144257D01*
X74859000Y-94255742D01*
X74872038Y-94123373D01*
X74923558Y-93953534D01*
X74923558Y-93953533D01*
X75007222Y-93797011D01*
X75007223Y-93797009D01*
X75036553Y-93761271D01*
X75119815Y-93659814D01*
X75226186Y-93572519D01*
X75257010Y-93547222D01*
X75274914Y-93537652D01*
X75413534Y-93463557D01*
X75494535Y-93438986D01*
X75583374Y-93412037D01*
X75760000Y-93394641D01*
X75936627Y-93412037D01*
X75936627Y-93412037D01*
G37*
G36*
X60071000Y-95741000D02*
X58269000Y-95741000D01*
X58269000Y-93939000D01*
X60071000Y-93939000D01*
X60071000Y-95741000D01*
X60071000Y-95741000D01*
G37*
G36*
X84993228Y-93296703D02*
X85148100Y-93360853D01*
X85287481Y-93453985D01*
X85406015Y-93572519D01*
X85499147Y-93711900D01*
X85563297Y-93866772D01*
X85596000Y-94031184D01*
X85596000Y-94198816D01*
X85563297Y-94363228D01*
X85499147Y-94518100D01*
X85406015Y-94657481D01*
X85287481Y-94776015D01*
X85148100Y-94869147D01*
X84993228Y-94933297D01*
X84828816Y-94966000D01*
X84661184Y-94966000D01*
X84496772Y-94933297D01*
X84341900Y-94869147D01*
X84202519Y-94776015D01*
X84083985Y-94657481D01*
X83990853Y-94518100D01*
X83926703Y-94363228D01*
X83894000Y-94198816D01*
X83894000Y-94031184D01*
X83926703Y-93866772D01*
X83990853Y-93711900D01*
X84083985Y-93572519D01*
X84202519Y-93453985D01*
X84341900Y-93360853D01*
X84496772Y-93296703D01*
X84661184Y-93264000D01*
X84828816Y-93264000D01*
X84993228Y-93296703D01*
X84993228Y-93296703D01*
G37*
G36*
X72108228Y-93281703D02*
X72263100Y-93345853D01*
X72402481Y-93438985D01*
X72521015Y-93557519D01*
X72614147Y-93696900D01*
X72678297Y-93851772D01*
X72711000Y-94016184D01*
X72711000Y-94183816D01*
X72678297Y-94348228D01*
X72614147Y-94503100D01*
X72521015Y-94642481D01*
X72402481Y-94761015D01*
X72263100Y-94854147D01*
X72108228Y-94918297D01*
X71943816Y-94951000D01*
X71776184Y-94951000D01*
X71611772Y-94918297D01*
X71456900Y-94854147D01*
X71317519Y-94761015D01*
X71198985Y-94642481D01*
X71105853Y-94503100D01*
X71041703Y-94348228D01*
X71009000Y-94183816D01*
X71009000Y-94016184D01*
X71041703Y-93851772D01*
X71105853Y-93696900D01*
X71198985Y-93557519D01*
X71317519Y-93438985D01*
X71456900Y-93345853D01*
X71611772Y-93281703D01*
X71776184Y-93249000D01*
X71943816Y-93249000D01*
X72108228Y-93281703D01*
X72108228Y-93281703D01*
G37*
G36*
X68136627Y-91912037D02*
X68249853Y-91946384D01*
X68306467Y-91963557D01*
X68445087Y-92037652D01*
X68462991Y-92047222D01*
X68498729Y-92076552D01*
X68600186Y-92159814D01*
X68683448Y-92261271D01*
X68712778Y-92297009D01*
X68712779Y-92297011D01*
X68796443Y-92453533D01*
X68796443Y-92453534D01*
X68847963Y-92623373D01*
X68861000Y-92755742D01*
X68861000Y-93644258D01*
X68847963Y-93776627D01*
X68825168Y-93851772D01*
X68796443Y-93946467D01*
X68759178Y-94016184D01*
X68712778Y-94102991D01*
X68696051Y-94123373D01*
X68600186Y-94240186D01*
X68462989Y-94352779D01*
X68306466Y-94436443D01*
X68249852Y-94453616D01*
X68136626Y-94487963D01*
X67960000Y-94505359D01*
X67783373Y-94487963D01*
X67670147Y-94453616D01*
X67613533Y-94436443D01*
X67457011Y-94352779D01*
X67457009Y-94352778D01*
X67421271Y-94323448D01*
X67319814Y-94240186D01*
X67207221Y-94102989D01*
X67123557Y-93946466D01*
X67106384Y-93889852D01*
X67072037Y-93776626D01*
X67059000Y-93644257D01*
X67059000Y-92755742D01*
X67072038Y-92623373D01*
X67123558Y-92453534D01*
X67123558Y-92453533D01*
X67207222Y-92297011D01*
X67207223Y-92297009D01*
X67236553Y-92261271D01*
X67319815Y-92159814D01*
X67421272Y-92076552D01*
X67457010Y-92047222D01*
X67474914Y-92037652D01*
X67613534Y-91963557D01*
X67670148Y-91946384D01*
X67783374Y-91912037D01*
X67960000Y-91894641D01*
X68136627Y-91912037D01*
X68136627Y-91912037D01*
G37*
G36*
X80136627Y-91912037D02*
X80249853Y-91946384D01*
X80306467Y-91963557D01*
X80445087Y-92037652D01*
X80462991Y-92047222D01*
X80498729Y-92076552D01*
X80600186Y-92159814D01*
X80683448Y-92261271D01*
X80712778Y-92297009D01*
X80712779Y-92297011D01*
X80796443Y-92453533D01*
X80796443Y-92453534D01*
X80847963Y-92623373D01*
X80861000Y-92755742D01*
X80861000Y-93644258D01*
X80847963Y-93776627D01*
X80825168Y-93851772D01*
X80796443Y-93946467D01*
X80759178Y-94016184D01*
X80712778Y-94102991D01*
X80696051Y-94123373D01*
X80600186Y-94240186D01*
X80462989Y-94352779D01*
X80306466Y-94436443D01*
X80249852Y-94453616D01*
X80136626Y-94487963D01*
X79960000Y-94505359D01*
X79783373Y-94487963D01*
X79670147Y-94453616D01*
X79613533Y-94436443D01*
X79457011Y-94352779D01*
X79457009Y-94352778D01*
X79421271Y-94323448D01*
X79319814Y-94240186D01*
X79207221Y-94102989D01*
X79123557Y-93946466D01*
X79106384Y-93889852D01*
X79072037Y-93776626D01*
X79059000Y-93644257D01*
X79059000Y-92755742D01*
X79072038Y-92623373D01*
X79123558Y-92453534D01*
X79123558Y-92453533D01*
X79207222Y-92297011D01*
X79207223Y-92297009D01*
X79236553Y-92261271D01*
X79319815Y-92159814D01*
X79421272Y-92076552D01*
X79457010Y-92047222D01*
X79474914Y-92037652D01*
X79613534Y-91963557D01*
X79670148Y-91946384D01*
X79783374Y-91912037D01*
X79960000Y-91894641D01*
X80136627Y-91912037D01*
X80136627Y-91912037D01*
G37*
G36*
X59280442Y-91405518D02*
X59346627Y-91412037D01*
X59459853Y-91446384D01*
X59516467Y-91463557D01*
X59655087Y-91537652D01*
X59672991Y-91547222D01*
X59708729Y-91576552D01*
X59810186Y-91659814D01*
X59893448Y-91761271D01*
X59922778Y-91797009D01*
X59922779Y-91797011D01*
X60006443Y-91953533D01*
X60023616Y-92010147D01*
X60057963Y-92123373D01*
X60075359Y-92300000D01*
X60057963Y-92476627D01*
X60023616Y-92589853D01*
X60006443Y-92646467D01*
X59948034Y-92755741D01*
X59922778Y-92802991D01*
X59893448Y-92838729D01*
X59810186Y-92940186D01*
X59708729Y-93023448D01*
X59672991Y-93052778D01*
X59672989Y-93052779D01*
X59516467Y-93136443D01*
X59459853Y-93153616D01*
X59346627Y-93187963D01*
X59280443Y-93194481D01*
X59214260Y-93201000D01*
X59125740Y-93201000D01*
X59059557Y-93194481D01*
X58993373Y-93187963D01*
X58880147Y-93153616D01*
X58823533Y-93136443D01*
X58667011Y-93052779D01*
X58667009Y-93052778D01*
X58631271Y-93023448D01*
X58529814Y-92940186D01*
X58446552Y-92838729D01*
X58417222Y-92802991D01*
X58391966Y-92755741D01*
X58333557Y-92646467D01*
X58316384Y-92589853D01*
X58282037Y-92476627D01*
X58264641Y-92300000D01*
X58282037Y-92123373D01*
X58316384Y-92010147D01*
X58333557Y-91953533D01*
X58417221Y-91797011D01*
X58417222Y-91797009D01*
X58446552Y-91761271D01*
X58529814Y-91659814D01*
X58631271Y-91576552D01*
X58667009Y-91547222D01*
X58684913Y-91537652D01*
X58823533Y-91463557D01*
X58880147Y-91446384D01*
X58993373Y-91412037D01*
X59059558Y-91405518D01*
X59125740Y-91399000D01*
X59214260Y-91399000D01*
X59280442Y-91405518D01*
X59280442Y-91405518D01*
G37*
G36*
X59280443Y-88865519D02*
X59346627Y-88872037D01*
X59459853Y-88906384D01*
X59516467Y-88923557D01*
X59655087Y-88997652D01*
X59672991Y-89007222D01*
X59708729Y-89036552D01*
X59810186Y-89119814D01*
X59863414Y-89184674D01*
X59922778Y-89257009D01*
X59922779Y-89257011D01*
X60006443Y-89413533D01*
X60014079Y-89438705D01*
X60057963Y-89583373D01*
X60075359Y-89760000D01*
X60057963Y-89936627D01*
X60023616Y-90049853D01*
X60006443Y-90106467D01*
X59971941Y-90171014D01*
X59922778Y-90262991D01*
X59921829Y-90264147D01*
X59810186Y-90400186D01*
X59708729Y-90483448D01*
X59672991Y-90512778D01*
X59672989Y-90512779D01*
X59516467Y-90596443D01*
X59459853Y-90613616D01*
X59346627Y-90647963D01*
X59280443Y-90654481D01*
X59214260Y-90661000D01*
X59125740Y-90661000D01*
X59059557Y-90654481D01*
X58993373Y-90647963D01*
X58880147Y-90613616D01*
X58823533Y-90596443D01*
X58667011Y-90512779D01*
X58667009Y-90512778D01*
X58631271Y-90483448D01*
X58529814Y-90400186D01*
X58418171Y-90264147D01*
X58417222Y-90262991D01*
X58368059Y-90171014D01*
X58333557Y-90106467D01*
X58316384Y-90049853D01*
X58282037Y-89936627D01*
X58264641Y-89760000D01*
X58282037Y-89583373D01*
X58325921Y-89438705D01*
X58333557Y-89413533D01*
X58417221Y-89257011D01*
X58417222Y-89257009D01*
X58476586Y-89184674D01*
X58529814Y-89119814D01*
X58631271Y-89036552D01*
X58667009Y-89007222D01*
X58684913Y-88997652D01*
X58823533Y-88923557D01*
X58880147Y-88906384D01*
X58993373Y-88872037D01*
X59059557Y-88865519D01*
X59125740Y-88859000D01*
X59214260Y-88859000D01*
X59280443Y-88865519D01*
X59280443Y-88865519D01*
G37*
G36*
X64488228Y-88691703D02*
X64643100Y-88755853D01*
X64782481Y-88848985D01*
X64901015Y-88967519D01*
X64994147Y-89106900D01*
X65058297Y-89261772D01*
X65091000Y-89426184D01*
X65091000Y-89593816D01*
X65058297Y-89758228D01*
X64994147Y-89913100D01*
X64901015Y-90052481D01*
X64782481Y-90171015D01*
X64643100Y-90264147D01*
X64488228Y-90328297D01*
X64323816Y-90361000D01*
X64156184Y-90361000D01*
X63991772Y-90328297D01*
X63836900Y-90264147D01*
X63697519Y-90171015D01*
X63578985Y-90052481D01*
X63485853Y-89913100D01*
X63421703Y-89758228D01*
X63389000Y-89593816D01*
X63389000Y-89426184D01*
X63421703Y-89261772D01*
X63485853Y-89106900D01*
X63578985Y-88967519D01*
X63697519Y-88848985D01*
X63836900Y-88755853D01*
X63991772Y-88691703D01*
X64156184Y-88659000D01*
X64323816Y-88659000D01*
X64488228Y-88691703D01*
X64488228Y-88691703D01*
G37*
G36*
X69568228Y-88691703D02*
X69723100Y-88755853D01*
X69862481Y-88848985D01*
X69981015Y-88967519D01*
X70074147Y-89106900D01*
X70138297Y-89261772D01*
X70171000Y-89426184D01*
X70171000Y-89593816D01*
X70138297Y-89758228D01*
X70074147Y-89913100D01*
X69981015Y-90052481D01*
X69862481Y-90171015D01*
X69723100Y-90264147D01*
X69568228Y-90328297D01*
X69403816Y-90361000D01*
X69236184Y-90361000D01*
X69071772Y-90328297D01*
X68916900Y-90264147D01*
X68777519Y-90171015D01*
X68658985Y-90052481D01*
X68565853Y-89913100D01*
X68501703Y-89758228D01*
X68469000Y-89593816D01*
X68469000Y-89426184D01*
X68501703Y-89261772D01*
X68565853Y-89106900D01*
X68658985Y-88967519D01*
X68777519Y-88848985D01*
X68916900Y-88755853D01*
X69071772Y-88691703D01*
X69236184Y-88659000D01*
X69403816Y-88659000D01*
X69568228Y-88691703D01*
X69568228Y-88691703D01*
G37*
G36*
X72108228Y-88691703D02*
X72263100Y-88755853D01*
X72402481Y-88848985D01*
X72521015Y-88967519D01*
X72614147Y-89106900D01*
X72678297Y-89261772D01*
X72711000Y-89426184D01*
X72711000Y-89593816D01*
X72678297Y-89758228D01*
X72614147Y-89913100D01*
X72521015Y-90052481D01*
X72402481Y-90171015D01*
X72263100Y-90264147D01*
X72108228Y-90328297D01*
X71943816Y-90361000D01*
X71776184Y-90361000D01*
X71611772Y-90328297D01*
X71456900Y-90264147D01*
X71317519Y-90171015D01*
X71198985Y-90052481D01*
X71105853Y-89913100D01*
X71041703Y-89758228D01*
X71009000Y-89593816D01*
X71009000Y-89426184D01*
X71041703Y-89261772D01*
X71105853Y-89106900D01*
X71198985Y-88967519D01*
X71317519Y-88848985D01*
X71456900Y-88755853D01*
X71611772Y-88691703D01*
X71776184Y-88659000D01*
X71943816Y-88659000D01*
X72108228Y-88691703D01*
X72108228Y-88691703D01*
G37*
G36*
X74648228Y-88691703D02*
X74803100Y-88755853D01*
X74942481Y-88848985D01*
X75061015Y-88967519D01*
X75154147Y-89106900D01*
X75218297Y-89261772D01*
X75251000Y-89426184D01*
X75251000Y-89593816D01*
X75218297Y-89758228D01*
X75154147Y-89913100D01*
X75061015Y-90052481D01*
X74942481Y-90171015D01*
X74803100Y-90264147D01*
X74648228Y-90328297D01*
X74483816Y-90361000D01*
X74316184Y-90361000D01*
X74151772Y-90328297D01*
X73996900Y-90264147D01*
X73857519Y-90171015D01*
X73738985Y-90052481D01*
X73645853Y-89913100D01*
X73581703Y-89758228D01*
X73549000Y-89593816D01*
X73549000Y-89426184D01*
X73581703Y-89261772D01*
X73645853Y-89106900D01*
X73738985Y-88967519D01*
X73857519Y-88848985D01*
X73996900Y-88755853D01*
X74151772Y-88691703D01*
X74316184Y-88659000D01*
X74483816Y-88659000D01*
X74648228Y-88691703D01*
X74648228Y-88691703D01*
G37*
G36*
X77188228Y-88691703D02*
X77343100Y-88755853D01*
X77482481Y-88848985D01*
X77601015Y-88967519D01*
X77694147Y-89106900D01*
X77758297Y-89261772D01*
X77791000Y-89426184D01*
X77791000Y-89593816D01*
X77758297Y-89758228D01*
X77694147Y-89913100D01*
X77601015Y-90052481D01*
X77482481Y-90171015D01*
X77343100Y-90264147D01*
X77188228Y-90328297D01*
X77023816Y-90361000D01*
X76856184Y-90361000D01*
X76691772Y-90328297D01*
X76536900Y-90264147D01*
X76397519Y-90171015D01*
X76278985Y-90052481D01*
X76185853Y-89913100D01*
X76121703Y-89758228D01*
X76089000Y-89593816D01*
X76089000Y-89426184D01*
X76121703Y-89261772D01*
X76185853Y-89106900D01*
X76278985Y-88967519D01*
X76397519Y-88848985D01*
X76536900Y-88755853D01*
X76691772Y-88691703D01*
X76856184Y-88659000D01*
X77023816Y-88659000D01*
X77188228Y-88691703D01*
X77188228Y-88691703D01*
G37*
G36*
X79728228Y-88691703D02*
X79883100Y-88755853D01*
X80022481Y-88848985D01*
X80141015Y-88967519D01*
X80234147Y-89106900D01*
X80298297Y-89261772D01*
X80331000Y-89426184D01*
X80331000Y-89593816D01*
X80298297Y-89758228D01*
X80234147Y-89913100D01*
X80141015Y-90052481D01*
X80022481Y-90171015D01*
X79883100Y-90264147D01*
X79728228Y-90328297D01*
X79563816Y-90361000D01*
X79396184Y-90361000D01*
X79231772Y-90328297D01*
X79076900Y-90264147D01*
X78937519Y-90171015D01*
X78818985Y-90052481D01*
X78725853Y-89913100D01*
X78661703Y-89758228D01*
X78629000Y-89593816D01*
X78629000Y-89426184D01*
X78661703Y-89261772D01*
X78725853Y-89106900D01*
X78818985Y-88967519D01*
X78937519Y-88848985D01*
X79076900Y-88755853D01*
X79231772Y-88691703D01*
X79396184Y-88659000D01*
X79563816Y-88659000D01*
X79728228Y-88691703D01*
X79728228Y-88691703D01*
G37*
G36*
X67028228Y-88691703D02*
X67183100Y-88755853D01*
X67322481Y-88848985D01*
X67441015Y-88967519D01*
X67534147Y-89106900D01*
X67598297Y-89261772D01*
X67631000Y-89426184D01*
X67631000Y-89593816D01*
X67598297Y-89758228D01*
X67534147Y-89913100D01*
X67441015Y-90052481D01*
X67322481Y-90171015D01*
X67183100Y-90264147D01*
X67028228Y-90328297D01*
X66863816Y-90361000D01*
X66696184Y-90361000D01*
X66531772Y-90328297D01*
X66376900Y-90264147D01*
X66237519Y-90171015D01*
X66118985Y-90052481D01*
X66025853Y-89913100D01*
X65961703Y-89758228D01*
X65929000Y-89593816D01*
X65929000Y-89426184D01*
X65961703Y-89261772D01*
X66025853Y-89106900D01*
X66118985Y-88967519D01*
X66237519Y-88848985D01*
X66376900Y-88755853D01*
X66531772Y-88691703D01*
X66696184Y-88659000D01*
X66863816Y-88659000D01*
X67028228Y-88691703D01*
X67028228Y-88691703D01*
G37*
G36*
X123902527Y-86938736D02*
X124002410Y-86958604D01*
X124284674Y-87075521D01*
X124538705Y-87245259D01*
X124754741Y-87461295D01*
X124924479Y-87715326D01*
X125041396Y-87997590D01*
X125061441Y-88098363D01*
X125101402Y-88299259D01*
X125108515Y-88322709D01*
X125120066Y-88344319D01*
X125135612Y-88363261D01*
X125154554Y-88378807D01*
X125176165Y-88390358D01*
X125199614Y-88397471D01*
X125224000Y-88399873D01*
X125248386Y-88397471D01*
X125271836Y-88390358D01*
X125293446Y-88378807D01*
X125312388Y-88363261D01*
X125327934Y-88344319D01*
X125339485Y-88322708D01*
X125346598Y-88299259D01*
X125349000Y-88274873D01*
X125349000Y-87399000D01*
X127351000Y-87399000D01*
X127351000Y-89501000D01*
X125349000Y-89501000D01*
X125349000Y-88625127D01*
X125346598Y-88600741D01*
X125339485Y-88577292D01*
X125327934Y-88555681D01*
X125312388Y-88536739D01*
X125293446Y-88521193D01*
X125271835Y-88509642D01*
X125248386Y-88502529D01*
X125224000Y-88500127D01*
X125199614Y-88502529D01*
X125176165Y-88509642D01*
X125154554Y-88521193D01*
X125135612Y-88536739D01*
X125120066Y-88555681D01*
X125108515Y-88577292D01*
X125101402Y-88600741D01*
X125101000Y-88602760D01*
X125041396Y-88902410D01*
X124924479Y-89184674D01*
X124754741Y-89438705D01*
X124538705Y-89654741D01*
X124284674Y-89824479D01*
X124002410Y-89941396D01*
X123902527Y-89961264D01*
X123702762Y-90001000D01*
X123397238Y-90001000D01*
X123197473Y-89961264D01*
X123097590Y-89941396D01*
X122815326Y-89824479D01*
X122561295Y-89654741D01*
X122345259Y-89438705D01*
X122175521Y-89184674D01*
X122058604Y-88902410D01*
X121999000Y-88602760D01*
X121999000Y-88297240D01*
X122058604Y-87997590D01*
X122175521Y-87715326D01*
X122345259Y-87461295D01*
X122561295Y-87245259D01*
X122815326Y-87075521D01*
X123097590Y-86958604D01*
X123197473Y-86938736D01*
X123397238Y-86899000D01*
X123702762Y-86899000D01*
X123902527Y-86938736D01*
X123902527Y-86938736D01*
G37*
G36*
X104852527Y-86938736D02*
X104952410Y-86958604D01*
X105234674Y-87075521D01*
X105488705Y-87245259D01*
X105704741Y-87461295D01*
X105874479Y-87715326D01*
X105991396Y-87997590D01*
X106011441Y-88098363D01*
X106051402Y-88299259D01*
X106058515Y-88322709D01*
X106070066Y-88344319D01*
X106085612Y-88363261D01*
X106104554Y-88378807D01*
X106126165Y-88390358D01*
X106149614Y-88397471D01*
X106174000Y-88399873D01*
X106198386Y-88397471D01*
X106221836Y-88390358D01*
X106243446Y-88378807D01*
X106262388Y-88363261D01*
X106277934Y-88344319D01*
X106289485Y-88322708D01*
X106296598Y-88299259D01*
X106299000Y-88274873D01*
X106299000Y-87399000D01*
X108301000Y-87399000D01*
X108301000Y-89501000D01*
X106299000Y-89501000D01*
X106299000Y-88625127D01*
X106296598Y-88600741D01*
X106289485Y-88577292D01*
X106277934Y-88555681D01*
X106262388Y-88536739D01*
X106243446Y-88521193D01*
X106221835Y-88509642D01*
X106198386Y-88502529D01*
X106174000Y-88500127D01*
X106149614Y-88502529D01*
X106126165Y-88509642D01*
X106104554Y-88521193D01*
X106085612Y-88536739D01*
X106070066Y-88555681D01*
X106058515Y-88577292D01*
X106051402Y-88600741D01*
X106051000Y-88602760D01*
X105991396Y-88902410D01*
X105874479Y-89184674D01*
X105704741Y-89438705D01*
X105488705Y-89654741D01*
X105234674Y-89824479D01*
X104952410Y-89941396D01*
X104852527Y-89961264D01*
X104652762Y-90001000D01*
X104347238Y-90001000D01*
X104147473Y-89961264D01*
X104047590Y-89941396D01*
X103765326Y-89824479D01*
X103511295Y-89654741D01*
X103295259Y-89438705D01*
X103125521Y-89184674D01*
X103008604Y-88902410D01*
X102949000Y-88602760D01*
X102949000Y-88297240D01*
X103008604Y-87997590D01*
X103125521Y-87715326D01*
X103295259Y-87461295D01*
X103511295Y-87245259D01*
X103765326Y-87075521D01*
X104047590Y-86958604D01*
X104147473Y-86938736D01*
X104347238Y-86899000D01*
X104652762Y-86899000D01*
X104852527Y-86938736D01*
X104852527Y-86938736D01*
G37*
G36*
X59280443Y-86325519D02*
X59346627Y-86332037D01*
X59459853Y-86366384D01*
X59516467Y-86383557D01*
X59655087Y-86457652D01*
X59672991Y-86467222D01*
X59708729Y-86496552D01*
X59810186Y-86579814D01*
X59893448Y-86681271D01*
X59922778Y-86717009D01*
X59922779Y-86717011D01*
X60006443Y-86873533D01*
X60014168Y-86899000D01*
X60057963Y-87043373D01*
X60075359Y-87220000D01*
X60057963Y-87396627D01*
X60057243Y-87399000D01*
X60006443Y-87566467D01*
X59975434Y-87624479D01*
X59922778Y-87722991D01*
X59921829Y-87724147D01*
X59810186Y-87860186D01*
X59708729Y-87943448D01*
X59672991Y-87972778D01*
X59672989Y-87972779D01*
X59516467Y-88056443D01*
X59459853Y-88073616D01*
X59346627Y-88107963D01*
X59280442Y-88114482D01*
X59214260Y-88121000D01*
X59125740Y-88121000D01*
X59059558Y-88114482D01*
X58993373Y-88107963D01*
X58880147Y-88073616D01*
X58823533Y-88056443D01*
X58667011Y-87972779D01*
X58667009Y-87972778D01*
X58631271Y-87943448D01*
X58529814Y-87860186D01*
X58418171Y-87724147D01*
X58417222Y-87722991D01*
X58364566Y-87624479D01*
X58333557Y-87566467D01*
X58282757Y-87399000D01*
X58282037Y-87396627D01*
X58264641Y-87220000D01*
X58282037Y-87043373D01*
X58325832Y-86899000D01*
X58333557Y-86873533D01*
X58417221Y-86717011D01*
X58417222Y-86717009D01*
X58446552Y-86681271D01*
X58529814Y-86579814D01*
X58631271Y-86496552D01*
X58667009Y-86467222D01*
X58684913Y-86457652D01*
X58823533Y-86383557D01*
X58880147Y-86366384D01*
X58993373Y-86332037D01*
X59059557Y-86325519D01*
X59125740Y-86319000D01*
X59214260Y-86319000D01*
X59280443Y-86325519D01*
X59280443Y-86325519D01*
G37*
G36*
X79728228Y-86151703D02*
X79883100Y-86215853D01*
X80022481Y-86308985D01*
X80141015Y-86427519D01*
X80234147Y-86566900D01*
X80298297Y-86721772D01*
X80331000Y-86886184D01*
X80331000Y-87053816D01*
X80298297Y-87218228D01*
X80234147Y-87373100D01*
X80141015Y-87512481D01*
X80022481Y-87631015D01*
X79883100Y-87724147D01*
X79728228Y-87788297D01*
X79563816Y-87821000D01*
X79396184Y-87821000D01*
X79231772Y-87788297D01*
X79076900Y-87724147D01*
X78937519Y-87631015D01*
X78818985Y-87512481D01*
X78725853Y-87373100D01*
X78661703Y-87218228D01*
X78629000Y-87053816D01*
X78629000Y-86886184D01*
X78661703Y-86721772D01*
X78725853Y-86566900D01*
X78818985Y-86427519D01*
X78937519Y-86308985D01*
X79076900Y-86215853D01*
X79231772Y-86151703D01*
X79396184Y-86119000D01*
X79563816Y-86119000D01*
X79728228Y-86151703D01*
X79728228Y-86151703D01*
G37*
G36*
X74648228Y-86151703D02*
X74803100Y-86215853D01*
X74942481Y-86308985D01*
X75061015Y-86427519D01*
X75154147Y-86566900D01*
X75218297Y-86721772D01*
X75251000Y-86886184D01*
X75251000Y-87053816D01*
X75218297Y-87218228D01*
X75154147Y-87373100D01*
X75061015Y-87512481D01*
X74942481Y-87631015D01*
X74803100Y-87724147D01*
X74648228Y-87788297D01*
X74483816Y-87821000D01*
X74316184Y-87821000D01*
X74151772Y-87788297D01*
X73996900Y-87724147D01*
X73857519Y-87631015D01*
X73738985Y-87512481D01*
X73645853Y-87373100D01*
X73581703Y-87218228D01*
X73549000Y-87053816D01*
X73549000Y-86886184D01*
X73581703Y-86721772D01*
X73645853Y-86566900D01*
X73738985Y-86427519D01*
X73857519Y-86308985D01*
X73996900Y-86215853D01*
X74151772Y-86151703D01*
X74316184Y-86119000D01*
X74483816Y-86119000D01*
X74648228Y-86151703D01*
X74648228Y-86151703D01*
G37*
G36*
X64488228Y-86151703D02*
X64643100Y-86215853D01*
X64782481Y-86308985D01*
X64901015Y-86427519D01*
X64994147Y-86566900D01*
X65058297Y-86721772D01*
X65091000Y-86886184D01*
X65091000Y-87053816D01*
X65058297Y-87218228D01*
X64994147Y-87373100D01*
X64901015Y-87512481D01*
X64782481Y-87631015D01*
X64643100Y-87724147D01*
X64488228Y-87788297D01*
X64323816Y-87821000D01*
X64156184Y-87821000D01*
X63991772Y-87788297D01*
X63836900Y-87724147D01*
X63697519Y-87631015D01*
X63578985Y-87512481D01*
X63485853Y-87373100D01*
X63421703Y-87218228D01*
X63389000Y-87053816D01*
X63389000Y-86886184D01*
X63421703Y-86721772D01*
X63485853Y-86566900D01*
X63578985Y-86427519D01*
X63697519Y-86308985D01*
X63836900Y-86215853D01*
X63991772Y-86151703D01*
X64156184Y-86119000D01*
X64323816Y-86119000D01*
X64488228Y-86151703D01*
X64488228Y-86151703D01*
G37*
G36*
X72108228Y-86151703D02*
X72263100Y-86215853D01*
X72402481Y-86308985D01*
X72521015Y-86427519D01*
X72614147Y-86566900D01*
X72678297Y-86721772D01*
X72711000Y-86886184D01*
X72711000Y-87053816D01*
X72678297Y-87218228D01*
X72614147Y-87373100D01*
X72521015Y-87512481D01*
X72402481Y-87631015D01*
X72263100Y-87724147D01*
X72108228Y-87788297D01*
X71943816Y-87821000D01*
X71776184Y-87821000D01*
X71611772Y-87788297D01*
X71456900Y-87724147D01*
X71317519Y-87631015D01*
X71198985Y-87512481D01*
X71105853Y-87373100D01*
X71041703Y-87218228D01*
X71009000Y-87053816D01*
X71009000Y-86886184D01*
X71041703Y-86721772D01*
X71105853Y-86566900D01*
X71198985Y-86427519D01*
X71317519Y-86308985D01*
X71456900Y-86215853D01*
X71611772Y-86151703D01*
X71776184Y-86119000D01*
X71943816Y-86119000D01*
X72108228Y-86151703D01*
X72108228Y-86151703D01*
G37*
G36*
X118902527Y-84738736D02*
X119002410Y-84758604D01*
X119284674Y-84875521D01*
X119538705Y-85045259D01*
X119754741Y-85261295D01*
X119924479Y-85515326D01*
X120041396Y-85797590D01*
X120101000Y-86097240D01*
X120101000Y-86402760D01*
X120041396Y-86702410D01*
X119924479Y-86984674D01*
X119754741Y-87238705D01*
X119538705Y-87454741D01*
X119284674Y-87624479D01*
X119002410Y-87741396D01*
X118902527Y-87761264D01*
X118702762Y-87801000D01*
X118397238Y-87801000D01*
X118197473Y-87761264D01*
X118097590Y-87741396D01*
X117815326Y-87624479D01*
X117561295Y-87454741D01*
X117345259Y-87238705D01*
X117175521Y-86984674D01*
X117058604Y-86702410D01*
X116999000Y-86402760D01*
X116999000Y-86097240D01*
X117058604Y-85797590D01*
X117175521Y-85515326D01*
X117345259Y-85261295D01*
X117561295Y-85045259D01*
X117815326Y-84875521D01*
X118097590Y-84758604D01*
X118197473Y-84738736D01*
X118397238Y-84699000D01*
X118702762Y-84699000D01*
X118902527Y-84738736D01*
X118902527Y-84738736D01*
G37*
G36*
X99852527Y-84738736D02*
X99952410Y-84758604D01*
X100234674Y-84875521D01*
X100488705Y-85045259D01*
X100704741Y-85261295D01*
X100874479Y-85515326D01*
X100991396Y-85797590D01*
X101051000Y-86097240D01*
X101051000Y-86402760D01*
X100991396Y-86702410D01*
X100874479Y-86984674D01*
X100704741Y-87238705D01*
X100488705Y-87454741D01*
X100234674Y-87624479D01*
X99952410Y-87741396D01*
X99852527Y-87761264D01*
X99652762Y-87801000D01*
X99347238Y-87801000D01*
X99147473Y-87761264D01*
X99047590Y-87741396D01*
X98765326Y-87624479D01*
X98511295Y-87454741D01*
X98295259Y-87238705D01*
X98125521Y-86984674D01*
X98008604Y-86702410D01*
X97949000Y-86402760D01*
X97949000Y-86097240D01*
X98008604Y-85797590D01*
X98125521Y-85515326D01*
X98295259Y-85261295D01*
X98511295Y-85045259D01*
X98765326Y-84875521D01*
X99047590Y-84758604D01*
X99147473Y-84738736D01*
X99347238Y-84699000D01*
X99652762Y-84699000D01*
X99852527Y-84738736D01*
X99852527Y-84738736D01*
G37*
G36*
X97451000Y-87301000D02*
X95349000Y-87301000D01*
X95349000Y-85199000D01*
X97451000Y-85199000D01*
X97451000Y-87301000D01*
X97451000Y-87301000D01*
G37*
G36*
X116501000Y-87301000D02*
X114399000Y-87301000D01*
X114399000Y-85199000D01*
X116501000Y-85199000D01*
X116501000Y-87301000D01*
X116501000Y-87301000D01*
G37*
G36*
X59280443Y-83785519D02*
X59346627Y-83792037D01*
X59459853Y-83826384D01*
X59516467Y-83843557D01*
X59655087Y-83917652D01*
X59672991Y-83927222D01*
X59708729Y-83956552D01*
X59810186Y-84039814D01*
X59893448Y-84141271D01*
X59922778Y-84177009D01*
X59922779Y-84177011D01*
X60006443Y-84333533D01*
X60016768Y-84367572D01*
X60057963Y-84503373D01*
X60075359Y-84680000D01*
X60057963Y-84856627D01*
X60023616Y-84969853D01*
X60006443Y-85026467D01*
X59971941Y-85091014D01*
X59922778Y-85182991D01*
X59893448Y-85218729D01*
X59810186Y-85320186D01*
X59708729Y-85403448D01*
X59672991Y-85432778D01*
X59672989Y-85432779D01*
X59516467Y-85516443D01*
X59459853Y-85533616D01*
X59346627Y-85567963D01*
X59280443Y-85574481D01*
X59214260Y-85581000D01*
X59125740Y-85581000D01*
X59059557Y-85574481D01*
X58993373Y-85567963D01*
X58880147Y-85533616D01*
X58823533Y-85516443D01*
X58667011Y-85432779D01*
X58667009Y-85432778D01*
X58631271Y-85403448D01*
X58529814Y-85320186D01*
X58446552Y-85218729D01*
X58417222Y-85182991D01*
X58368059Y-85091014D01*
X58333557Y-85026467D01*
X58316384Y-84969853D01*
X58282037Y-84856627D01*
X58264641Y-84680000D01*
X58282037Y-84503373D01*
X58323232Y-84367572D01*
X58333557Y-84333533D01*
X58417221Y-84177011D01*
X58417222Y-84177009D01*
X58446552Y-84141271D01*
X58529814Y-84039814D01*
X58631271Y-83956552D01*
X58667009Y-83927222D01*
X58684913Y-83917652D01*
X58823533Y-83843557D01*
X58880147Y-83826384D01*
X58993373Y-83792037D01*
X59059557Y-83785519D01*
X59125740Y-83779000D01*
X59214260Y-83779000D01*
X59280443Y-83785519D01*
X59280443Y-83785519D01*
G37*
G36*
X64488228Y-83611703D02*
X64643100Y-83675853D01*
X64782481Y-83768985D01*
X64901015Y-83887519D01*
X64994147Y-84026900D01*
X65058297Y-84181772D01*
X65091000Y-84346184D01*
X65091000Y-84513816D01*
X65058297Y-84678228D01*
X64994147Y-84833100D01*
X64901015Y-84972481D01*
X64782481Y-85091015D01*
X64643100Y-85184147D01*
X64488228Y-85248297D01*
X64323816Y-85281000D01*
X64156184Y-85281000D01*
X63991772Y-85248297D01*
X63836900Y-85184147D01*
X63697519Y-85091015D01*
X63578985Y-84972481D01*
X63485853Y-84833100D01*
X63421703Y-84678228D01*
X63389000Y-84513816D01*
X63389000Y-84346184D01*
X63421703Y-84181772D01*
X63485853Y-84026900D01*
X63578985Y-83887519D01*
X63697519Y-83768985D01*
X63836900Y-83675853D01*
X63991772Y-83611703D01*
X64156184Y-83579000D01*
X64323816Y-83579000D01*
X64488228Y-83611703D01*
X64488228Y-83611703D01*
G37*
G36*
X79728228Y-83611703D02*
X79883100Y-83675853D01*
X80022481Y-83768985D01*
X80141015Y-83887519D01*
X80234147Y-84026900D01*
X80298297Y-84181772D01*
X80331000Y-84346184D01*
X80331000Y-84513816D01*
X80298297Y-84678228D01*
X80234147Y-84833100D01*
X80141015Y-84972481D01*
X80022481Y-85091015D01*
X79883100Y-85184147D01*
X79728228Y-85248297D01*
X79563816Y-85281000D01*
X79396184Y-85281000D01*
X79231772Y-85248297D01*
X79076900Y-85184147D01*
X78937519Y-85091015D01*
X78818985Y-84972481D01*
X78725853Y-84833100D01*
X78661703Y-84678228D01*
X78629000Y-84513816D01*
X78629000Y-84346184D01*
X78661703Y-84181772D01*
X78725853Y-84026900D01*
X78818985Y-83887519D01*
X78937519Y-83768985D01*
X79076900Y-83675853D01*
X79231772Y-83611703D01*
X79396184Y-83579000D01*
X79563816Y-83579000D01*
X79728228Y-83611703D01*
X79728228Y-83611703D01*
G37*
G36*
X72108228Y-83611703D02*
X72263100Y-83675853D01*
X72402481Y-83768985D01*
X72521015Y-83887519D01*
X72614147Y-84026900D01*
X72678297Y-84181772D01*
X72711000Y-84346184D01*
X72711000Y-84513816D01*
X72678297Y-84678228D01*
X72614147Y-84833100D01*
X72521015Y-84972481D01*
X72402481Y-85091015D01*
X72263100Y-85184147D01*
X72108228Y-85248297D01*
X71943816Y-85281000D01*
X71776184Y-85281000D01*
X71611772Y-85248297D01*
X71456900Y-85184147D01*
X71317519Y-85091015D01*
X71198985Y-84972481D01*
X71105853Y-84833100D01*
X71041703Y-84678228D01*
X71009000Y-84513816D01*
X71009000Y-84346184D01*
X71041703Y-84181772D01*
X71105853Y-84026900D01*
X71198985Y-83887519D01*
X71317519Y-83768985D01*
X71456900Y-83675853D01*
X71611772Y-83611703D01*
X71776184Y-83579000D01*
X71943816Y-83579000D01*
X72108228Y-83611703D01*
X72108228Y-83611703D01*
G37*
G36*
X74648228Y-83611703D02*
X74803100Y-83675853D01*
X74942481Y-83768985D01*
X75061015Y-83887519D01*
X75154147Y-84026900D01*
X75218297Y-84181772D01*
X75251000Y-84346184D01*
X75251000Y-84513816D01*
X75218297Y-84678228D01*
X75154147Y-84833100D01*
X75061015Y-84972481D01*
X74942481Y-85091015D01*
X74803100Y-85184147D01*
X74648228Y-85248297D01*
X74483816Y-85281000D01*
X74316184Y-85281000D01*
X74151772Y-85248297D01*
X73996900Y-85184147D01*
X73857519Y-85091015D01*
X73738985Y-84972481D01*
X73645853Y-84833100D01*
X73581703Y-84678228D01*
X73549000Y-84513816D01*
X73549000Y-84346184D01*
X73581703Y-84181772D01*
X73645853Y-84026900D01*
X73738985Y-83887519D01*
X73857519Y-83768985D01*
X73996900Y-83675853D01*
X74151772Y-83611703D01*
X74316184Y-83579000D01*
X74483816Y-83579000D01*
X74648228Y-83611703D01*
X74648228Y-83611703D01*
G37*
G36*
X124148252Y-80577818D02*
X124148254Y-80577819D01*
X124148255Y-80577819D01*
X124521513Y-80732427D01*
X124852905Y-80953857D01*
X124857439Y-80956886D01*
X125143114Y-81242561D01*
X125143116Y-81242564D01*
X125367573Y-81578487D01*
X125522181Y-81951745D01*
X125522182Y-81951748D01*
X125601000Y-82347993D01*
X125601000Y-82752007D01*
X125526936Y-83124354D01*
X125522181Y-83148255D01*
X125367573Y-83521513D01*
X125195525Y-83779000D01*
X125143114Y-83857439D01*
X124857439Y-84143114D01*
X124857436Y-84143116D01*
X124521513Y-84367573D01*
X124148255Y-84522181D01*
X124148254Y-84522181D01*
X124148252Y-84522182D01*
X123752007Y-84601000D01*
X123347993Y-84601000D01*
X122951748Y-84522182D01*
X122951746Y-84522181D01*
X122951745Y-84522181D01*
X122578487Y-84367573D01*
X122242564Y-84143116D01*
X122242561Y-84143114D01*
X121956886Y-83857439D01*
X121904475Y-83779000D01*
X121732427Y-83521513D01*
X121577819Y-83148255D01*
X121573065Y-83124354D01*
X121499000Y-82752007D01*
X121499000Y-82347993D01*
X121577818Y-81951748D01*
X121577819Y-81951745D01*
X121732427Y-81578487D01*
X121956884Y-81242564D01*
X121956886Y-81242561D01*
X122242561Y-80956886D01*
X122247095Y-80953857D01*
X122578487Y-80732427D01*
X122951745Y-80577819D01*
X122951746Y-80577819D01*
X122951748Y-80577818D01*
X123347993Y-80499000D01*
X123752007Y-80499000D01*
X124148252Y-80577818D01*
X124148252Y-80577818D01*
G37*
G36*
X105098252Y-80577818D02*
X105098254Y-80577819D01*
X105098255Y-80577819D01*
X105471513Y-80732427D01*
X105802905Y-80953857D01*
X105807439Y-80956886D01*
X106093114Y-81242561D01*
X106093116Y-81242564D01*
X106317573Y-81578487D01*
X106472181Y-81951745D01*
X106472182Y-81951748D01*
X106551000Y-82347993D01*
X106551000Y-82752007D01*
X106476936Y-83124354D01*
X106472181Y-83148255D01*
X106317573Y-83521513D01*
X106145525Y-83779000D01*
X106093114Y-83857439D01*
X105807439Y-84143114D01*
X105807436Y-84143116D01*
X105471513Y-84367573D01*
X105098255Y-84522181D01*
X105098254Y-84522181D01*
X105098252Y-84522182D01*
X104702007Y-84601000D01*
X104297993Y-84601000D01*
X103901748Y-84522182D01*
X103901746Y-84522181D01*
X103901745Y-84522181D01*
X103528487Y-84367573D01*
X103192564Y-84143116D01*
X103192561Y-84143114D01*
X102906886Y-83857439D01*
X102854475Y-83779000D01*
X102682427Y-83521513D01*
X102527819Y-83148255D01*
X102523065Y-83124354D01*
X102449000Y-82752007D01*
X102449000Y-82347993D01*
X102527818Y-81951748D01*
X102527819Y-81951745D01*
X102682427Y-81578487D01*
X102906884Y-81242564D01*
X102906886Y-81242561D01*
X103192561Y-80956886D01*
X103197095Y-80953857D01*
X103528487Y-80732427D01*
X103901745Y-80577819D01*
X103901746Y-80577819D01*
X103901748Y-80577818D01*
X104297993Y-80499000D01*
X104702007Y-80499000D01*
X105098252Y-80577818D01*
X105098252Y-80577818D01*
G37*
G36*
X118341981Y-81587468D02*
X118467561Y-81639485D01*
X118491010Y-81646598D01*
X118515396Y-81649000D01*
X118558741Y-81649000D01*
X118732812Y-81683624D01*
X118896784Y-81751544D01*
X119044354Y-81850147D01*
X119169853Y-81975646D01*
X119268456Y-82123216D01*
X119336376Y-82287188D01*
X119371000Y-82461259D01*
X119371000Y-82638741D01*
X119336376Y-82812812D01*
X119268456Y-82976784D01*
X119169853Y-83124354D01*
X119044354Y-83249853D01*
X118896784Y-83348456D01*
X118732812Y-83416376D01*
X118558741Y-83451000D01*
X118515396Y-83451000D01*
X118491010Y-83453402D01*
X118467561Y-83460515D01*
X118341981Y-83512532D01*
X118148590Y-83551000D01*
X117951410Y-83551000D01*
X117758019Y-83512532D01*
X117575850Y-83437075D01*
X117411897Y-83327525D01*
X117272475Y-83188103D01*
X117162925Y-83024150D01*
X117087468Y-82841981D01*
X117049000Y-82648590D01*
X117049000Y-82451410D01*
X117087468Y-82258019D01*
X117162925Y-82075850D01*
X117272475Y-81911897D01*
X117411897Y-81772475D01*
X117575850Y-81662925D01*
X117758019Y-81587468D01*
X117951410Y-81549000D01*
X118148590Y-81549000D01*
X118341981Y-81587468D01*
X118341981Y-81587468D01*
G37*
G36*
X129341981Y-81587468D02*
X129524150Y-81662925D01*
X129688103Y-81772475D01*
X129827525Y-81911897D01*
X129937075Y-82075850D01*
X130012532Y-82258019D01*
X130051000Y-82451410D01*
X130051000Y-82648590D01*
X130012532Y-82841981D01*
X129937075Y-83024150D01*
X129827525Y-83188103D01*
X129688103Y-83327525D01*
X129524150Y-83437075D01*
X129341981Y-83512532D01*
X129148590Y-83551000D01*
X128951410Y-83551000D01*
X128758019Y-83512532D01*
X128632439Y-83460515D01*
X128608990Y-83453402D01*
X128584604Y-83451000D01*
X128541259Y-83451000D01*
X128367188Y-83416376D01*
X128203216Y-83348456D01*
X128055646Y-83249853D01*
X127930147Y-83124354D01*
X127831544Y-82976784D01*
X127763624Y-82812812D01*
X127729000Y-82638741D01*
X127729000Y-82461259D01*
X127763624Y-82287188D01*
X127831544Y-82123216D01*
X127930147Y-81975646D01*
X128055646Y-81850147D01*
X128203216Y-81751544D01*
X128367188Y-81683624D01*
X128541259Y-81649000D01*
X128584604Y-81649000D01*
X128608990Y-81646598D01*
X128632439Y-81639485D01*
X128758019Y-81587468D01*
X128951410Y-81549000D01*
X129148590Y-81549000D01*
X129341981Y-81587468D01*
X129341981Y-81587468D01*
G37*
G36*
X110291981Y-81587468D02*
X110474150Y-81662925D01*
X110638103Y-81772475D01*
X110777525Y-81911897D01*
X110887075Y-82075850D01*
X110962532Y-82258019D01*
X111001000Y-82451410D01*
X111001000Y-82648590D01*
X110962532Y-82841981D01*
X110887075Y-83024150D01*
X110777525Y-83188103D01*
X110638103Y-83327525D01*
X110474150Y-83437075D01*
X110291981Y-83512532D01*
X110098590Y-83551000D01*
X109901410Y-83551000D01*
X109708019Y-83512532D01*
X109582439Y-83460515D01*
X109558990Y-83453402D01*
X109534604Y-83451000D01*
X109491259Y-83451000D01*
X109317188Y-83416376D01*
X109153216Y-83348456D01*
X109005646Y-83249853D01*
X108880147Y-83124354D01*
X108781544Y-82976784D01*
X108713624Y-82812812D01*
X108679000Y-82638741D01*
X108679000Y-82461259D01*
X108713624Y-82287188D01*
X108781544Y-82123216D01*
X108880147Y-81975646D01*
X109005646Y-81850147D01*
X109153216Y-81751544D01*
X109317188Y-81683624D01*
X109491259Y-81649000D01*
X109534604Y-81649000D01*
X109558990Y-81646598D01*
X109582439Y-81639485D01*
X109708019Y-81587468D01*
X109901410Y-81549000D01*
X110098590Y-81549000D01*
X110291981Y-81587468D01*
X110291981Y-81587468D01*
G37*
G36*
X99291981Y-81587468D02*
X99417561Y-81639485D01*
X99441010Y-81646598D01*
X99465396Y-81649000D01*
X99508741Y-81649000D01*
X99682812Y-81683624D01*
X99846784Y-81751544D01*
X99994354Y-81850147D01*
X100119853Y-81975646D01*
X100218456Y-82123216D01*
X100286376Y-82287188D01*
X100321000Y-82461259D01*
X100321000Y-82638741D01*
X100286376Y-82812812D01*
X100218456Y-82976784D01*
X100119853Y-83124354D01*
X99994354Y-83249853D01*
X99846784Y-83348456D01*
X99682812Y-83416376D01*
X99508741Y-83451000D01*
X99465396Y-83451000D01*
X99441010Y-83453402D01*
X99417561Y-83460515D01*
X99291981Y-83512532D01*
X99098590Y-83551000D01*
X98901410Y-83551000D01*
X98708019Y-83512532D01*
X98525850Y-83437075D01*
X98361897Y-83327525D01*
X98222475Y-83188103D01*
X98112925Y-83024150D01*
X98037468Y-82841981D01*
X97999000Y-82648590D01*
X97999000Y-82451410D01*
X98037468Y-82258019D01*
X98112925Y-82075850D01*
X98222475Y-81911897D01*
X98361897Y-81772475D01*
X98525850Y-81662925D01*
X98708019Y-81587468D01*
X98901410Y-81549000D01*
X99098590Y-81549000D01*
X99291981Y-81587468D01*
X99291981Y-81587468D01*
G37*
G36*
X59280442Y-81245518D02*
X59346627Y-81252037D01*
X59459853Y-81286384D01*
X59516467Y-81303557D01*
X59655087Y-81377652D01*
X59672991Y-81387222D01*
X59708729Y-81416552D01*
X59810186Y-81499814D01*
X59893448Y-81601271D01*
X59922778Y-81637009D01*
X59922779Y-81637011D01*
X60006443Y-81793533D01*
X60023616Y-81850147D01*
X60057963Y-81963373D01*
X60075359Y-82140000D01*
X60057963Y-82316627D01*
X60048448Y-82347993D01*
X60006443Y-82486467D01*
X59971941Y-82551014D01*
X59922778Y-82642991D01*
X59893448Y-82678729D01*
X59810186Y-82780186D01*
X59734887Y-82841981D01*
X59672991Y-82892778D01*
X59672989Y-82892779D01*
X59516467Y-82976443D01*
X59459853Y-82993616D01*
X59346627Y-83027963D01*
X59280442Y-83034482D01*
X59214260Y-83041000D01*
X59125740Y-83041000D01*
X59059558Y-83034482D01*
X58993373Y-83027963D01*
X58880147Y-82993616D01*
X58823533Y-82976443D01*
X58667011Y-82892779D01*
X58667009Y-82892778D01*
X58605113Y-82841981D01*
X58529814Y-82780186D01*
X58446552Y-82678729D01*
X58417222Y-82642991D01*
X58368059Y-82551014D01*
X58333557Y-82486467D01*
X58291552Y-82347993D01*
X58282037Y-82316627D01*
X58264641Y-82140000D01*
X58282037Y-81963373D01*
X58316384Y-81850147D01*
X58333557Y-81793533D01*
X58417221Y-81637011D01*
X58417222Y-81637009D01*
X58446552Y-81601271D01*
X58529814Y-81499814D01*
X58631271Y-81416552D01*
X58667009Y-81387222D01*
X58684913Y-81377652D01*
X58823533Y-81303557D01*
X58880147Y-81286384D01*
X58993373Y-81252037D01*
X59059558Y-81245518D01*
X59125740Y-81239000D01*
X59214260Y-81239000D01*
X59280442Y-81245518D01*
X59280442Y-81245518D01*
G37*
G36*
X79728228Y-81071703D02*
X79883100Y-81135853D01*
X80022481Y-81228985D01*
X80141015Y-81347519D01*
X80234147Y-81486900D01*
X80298297Y-81641772D01*
X80331000Y-81806184D01*
X80331000Y-81973816D01*
X80298297Y-82138228D01*
X80234147Y-82293100D01*
X80141015Y-82432481D01*
X80022481Y-82551015D01*
X79883100Y-82644147D01*
X79728228Y-82708297D01*
X79563816Y-82741000D01*
X79396184Y-82741000D01*
X79231772Y-82708297D01*
X79076900Y-82644147D01*
X78937519Y-82551015D01*
X78818985Y-82432481D01*
X78725853Y-82293100D01*
X78661703Y-82138228D01*
X78629000Y-81973816D01*
X78629000Y-81806184D01*
X78661703Y-81641772D01*
X78725853Y-81486900D01*
X78818985Y-81347519D01*
X78937519Y-81228985D01*
X79076900Y-81135853D01*
X79231772Y-81071703D01*
X79396184Y-81039000D01*
X79563816Y-81039000D01*
X79728228Y-81071703D01*
X79728228Y-81071703D01*
G37*
G36*
X72108228Y-81071703D02*
X72263100Y-81135853D01*
X72402481Y-81228985D01*
X72521015Y-81347519D01*
X72614147Y-81486900D01*
X72678297Y-81641772D01*
X72711000Y-81806184D01*
X72711000Y-81973816D01*
X72678297Y-82138228D01*
X72614147Y-82293100D01*
X72521015Y-82432481D01*
X72402481Y-82551015D01*
X72263100Y-82644147D01*
X72108228Y-82708297D01*
X71943816Y-82741000D01*
X71776184Y-82741000D01*
X71611772Y-82708297D01*
X71456900Y-82644147D01*
X71317519Y-82551015D01*
X71198985Y-82432481D01*
X71105853Y-82293100D01*
X71041703Y-82138228D01*
X71009000Y-81973816D01*
X71009000Y-81806184D01*
X71041703Y-81641772D01*
X71105853Y-81486900D01*
X71198985Y-81347519D01*
X71317519Y-81228985D01*
X71456900Y-81135853D01*
X71611772Y-81071703D01*
X71776184Y-81039000D01*
X71943816Y-81039000D01*
X72108228Y-81071703D01*
X72108228Y-81071703D01*
G37*
G36*
X74648228Y-81071703D02*
X74803100Y-81135853D01*
X74942481Y-81228985D01*
X75061015Y-81347519D01*
X75154147Y-81486900D01*
X75218297Y-81641772D01*
X75251000Y-81806184D01*
X75251000Y-81973816D01*
X75218297Y-82138228D01*
X75154147Y-82293100D01*
X75061015Y-82432481D01*
X74942481Y-82551015D01*
X74803100Y-82644147D01*
X74648228Y-82708297D01*
X74483816Y-82741000D01*
X74316184Y-82741000D01*
X74151772Y-82708297D01*
X73996900Y-82644147D01*
X73857519Y-82551015D01*
X73738985Y-82432481D01*
X73645853Y-82293100D01*
X73581703Y-82138228D01*
X73549000Y-81973816D01*
X73549000Y-81806184D01*
X73581703Y-81641772D01*
X73645853Y-81486900D01*
X73738985Y-81347519D01*
X73857519Y-81228985D01*
X73996900Y-81135853D01*
X74151772Y-81071703D01*
X74316184Y-81039000D01*
X74483816Y-81039000D01*
X74648228Y-81071703D01*
X74648228Y-81071703D01*
G37*
G36*
X64488228Y-81071703D02*
X64643100Y-81135853D01*
X64782481Y-81228985D01*
X64901015Y-81347519D01*
X64994147Y-81486900D01*
X65058297Y-81641772D01*
X65091000Y-81806184D01*
X65091000Y-81973816D01*
X65058297Y-82138228D01*
X64994147Y-82293100D01*
X64901015Y-82432481D01*
X64782481Y-82551015D01*
X64643100Y-82644147D01*
X64488228Y-82708297D01*
X64323816Y-82741000D01*
X64156184Y-82741000D01*
X63991772Y-82708297D01*
X63836900Y-82644147D01*
X63697519Y-82551015D01*
X63578985Y-82432481D01*
X63485853Y-82293100D01*
X63421703Y-82138228D01*
X63389000Y-81973816D01*
X63389000Y-81806184D01*
X63421703Y-81641772D01*
X63485853Y-81486900D01*
X63578985Y-81347519D01*
X63697519Y-81228985D01*
X63836900Y-81135853D01*
X63991772Y-81071703D01*
X64156184Y-81039000D01*
X64323816Y-81039000D01*
X64488228Y-81071703D01*
X64488228Y-81071703D01*
G37*
G36*
X120092527Y-78498736D02*
X120192410Y-78518604D01*
X120474674Y-78635521D01*
X120728705Y-78805259D01*
X120944741Y-79021295D01*
X121114479Y-79275326D01*
X121231396Y-79557590D01*
X121291000Y-79857240D01*
X121291000Y-80162760D01*
X121231396Y-80462410D01*
X121114479Y-80744674D01*
X120944741Y-80998705D01*
X120728705Y-81214741D01*
X120474674Y-81384479D01*
X120192410Y-81501396D01*
X120092527Y-81521264D01*
X119892762Y-81561000D01*
X119587238Y-81561000D01*
X119387473Y-81521264D01*
X119287590Y-81501396D01*
X119005326Y-81384479D01*
X118751295Y-81214741D01*
X118535259Y-80998705D01*
X118365521Y-80744674D01*
X118248604Y-80462410D01*
X118189000Y-80162760D01*
X118189000Y-79857240D01*
X118248604Y-79557590D01*
X118365521Y-79275326D01*
X118535259Y-79021295D01*
X118751295Y-78805259D01*
X119005326Y-78635521D01*
X119287590Y-78518604D01*
X119387473Y-78498736D01*
X119587238Y-78459000D01*
X119892762Y-78459000D01*
X120092527Y-78498736D01*
X120092527Y-78498736D01*
G37*
G36*
X101042527Y-78498736D02*
X101142410Y-78518604D01*
X101424674Y-78635521D01*
X101678705Y-78805259D01*
X101894741Y-79021295D01*
X102064479Y-79275326D01*
X102181396Y-79557590D01*
X102241000Y-79857240D01*
X102241000Y-80162760D01*
X102181396Y-80462410D01*
X102064479Y-80744674D01*
X101894741Y-80998705D01*
X101678705Y-81214741D01*
X101424674Y-81384479D01*
X101142410Y-81501396D01*
X101042527Y-81521264D01*
X100842762Y-81561000D01*
X100537238Y-81561000D01*
X100337473Y-81521264D01*
X100237590Y-81501396D01*
X99955326Y-81384479D01*
X99701295Y-81214741D01*
X99485259Y-80998705D01*
X99315521Y-80744674D01*
X99198604Y-80462410D01*
X99139000Y-80162760D01*
X99139000Y-79857240D01*
X99198604Y-79557590D01*
X99315521Y-79275326D01*
X99485259Y-79021295D01*
X99701295Y-78805259D01*
X99955326Y-78635521D01*
X100237590Y-78518604D01*
X100337473Y-78498736D01*
X100537238Y-78459000D01*
X100842762Y-78459000D01*
X101042527Y-78498736D01*
X101042527Y-78498736D01*
G37*
G36*
X98651000Y-81061000D02*
X96549000Y-81061000D01*
X96549000Y-78959000D01*
X98651000Y-78959000D01*
X98651000Y-81061000D01*
X98651000Y-81061000D01*
G37*
G36*
X117701000Y-81061000D02*
X115599000Y-81061000D01*
X115599000Y-78959000D01*
X117701000Y-78959000D01*
X117701000Y-81061000D01*
X117701000Y-81061000D01*
G37*
G36*
X59280443Y-78705519D02*
X59346627Y-78712037D01*
X59459853Y-78746384D01*
X59516467Y-78763557D01*
X59655087Y-78837652D01*
X59672991Y-78847222D01*
X59708729Y-78876552D01*
X59810186Y-78959814D01*
X59860641Y-79021295D01*
X59922778Y-79097009D01*
X59922779Y-79097011D01*
X60006443Y-79253533D01*
X60013054Y-79275326D01*
X60057963Y-79423373D01*
X60075359Y-79600000D01*
X60057963Y-79776627D01*
X60033510Y-79857238D01*
X60006443Y-79946467D01*
X59971941Y-80011014D01*
X59922778Y-80102991D01*
X59921829Y-80104147D01*
X59810186Y-80240186D01*
X59708729Y-80323448D01*
X59672991Y-80352778D01*
X59672989Y-80352779D01*
X59516467Y-80436443D01*
X59459853Y-80453616D01*
X59346627Y-80487963D01*
X59280443Y-80494481D01*
X59214260Y-80501000D01*
X59125740Y-80501000D01*
X59059557Y-80494481D01*
X58993373Y-80487963D01*
X58880147Y-80453616D01*
X58823533Y-80436443D01*
X58667011Y-80352779D01*
X58667009Y-80352778D01*
X58631271Y-80323448D01*
X58529814Y-80240186D01*
X58418171Y-80104147D01*
X58417222Y-80102991D01*
X58368059Y-80011014D01*
X58333557Y-79946467D01*
X58306490Y-79857238D01*
X58282037Y-79776627D01*
X58264641Y-79600000D01*
X58282037Y-79423373D01*
X58326946Y-79275326D01*
X58333557Y-79253533D01*
X58417221Y-79097011D01*
X58417222Y-79097009D01*
X58479359Y-79021295D01*
X58529814Y-78959814D01*
X58631271Y-78876552D01*
X58667009Y-78847222D01*
X58684913Y-78837652D01*
X58823533Y-78763557D01*
X58880147Y-78746384D01*
X58993373Y-78712037D01*
X59059557Y-78705519D01*
X59125740Y-78699000D01*
X59214260Y-78699000D01*
X59280443Y-78705519D01*
X59280443Y-78705519D01*
G37*
G36*
X79728228Y-78531703D02*
X79883100Y-78595853D01*
X80022481Y-78688985D01*
X80141015Y-78807519D01*
X80234147Y-78946900D01*
X80298297Y-79101772D01*
X80331000Y-79266184D01*
X80331000Y-79433816D01*
X80298297Y-79598228D01*
X80234147Y-79753100D01*
X80141015Y-79892481D01*
X80022481Y-80011015D01*
X79883100Y-80104147D01*
X79728228Y-80168297D01*
X79563816Y-80201000D01*
X79396184Y-80201000D01*
X79231772Y-80168297D01*
X79076900Y-80104147D01*
X78937519Y-80011015D01*
X78818985Y-79892481D01*
X78725853Y-79753100D01*
X78661703Y-79598228D01*
X78629000Y-79433816D01*
X78629000Y-79266184D01*
X78661703Y-79101772D01*
X78725853Y-78946900D01*
X78818985Y-78807519D01*
X78937519Y-78688985D01*
X79076900Y-78595853D01*
X79231772Y-78531703D01*
X79396184Y-78499000D01*
X79563816Y-78499000D01*
X79728228Y-78531703D01*
X79728228Y-78531703D01*
G37*
G36*
X74648228Y-78531703D02*
X74803100Y-78595853D01*
X74942481Y-78688985D01*
X75061015Y-78807519D01*
X75154147Y-78946900D01*
X75218297Y-79101772D01*
X75251000Y-79266184D01*
X75251000Y-79433816D01*
X75218297Y-79598228D01*
X75154147Y-79753100D01*
X75061015Y-79892481D01*
X74942481Y-80011015D01*
X74803100Y-80104147D01*
X74648228Y-80168297D01*
X74483816Y-80201000D01*
X74316184Y-80201000D01*
X74151772Y-80168297D01*
X73996900Y-80104147D01*
X73857519Y-80011015D01*
X73738985Y-79892481D01*
X73645853Y-79753100D01*
X73581703Y-79598228D01*
X73549000Y-79433816D01*
X73549000Y-79266184D01*
X73581703Y-79101772D01*
X73645853Y-78946900D01*
X73738985Y-78807519D01*
X73857519Y-78688985D01*
X73996900Y-78595853D01*
X74151772Y-78531703D01*
X74316184Y-78499000D01*
X74483816Y-78499000D01*
X74648228Y-78531703D01*
X74648228Y-78531703D01*
G37*
G36*
X64488228Y-78531703D02*
X64643100Y-78595853D01*
X64782481Y-78688985D01*
X64901015Y-78807519D01*
X64994147Y-78946900D01*
X65058297Y-79101772D01*
X65091000Y-79266184D01*
X65091000Y-79433816D01*
X65058297Y-79598228D01*
X64994147Y-79753100D01*
X64901015Y-79892481D01*
X64782481Y-80011015D01*
X64643100Y-80104147D01*
X64488228Y-80168297D01*
X64323816Y-80201000D01*
X64156184Y-80201000D01*
X63991772Y-80168297D01*
X63836900Y-80104147D01*
X63697519Y-80011015D01*
X63578985Y-79892481D01*
X63485853Y-79753100D01*
X63421703Y-79598228D01*
X63389000Y-79433816D01*
X63389000Y-79266184D01*
X63421703Y-79101772D01*
X63485853Y-78946900D01*
X63578985Y-78807519D01*
X63697519Y-78688985D01*
X63836900Y-78595853D01*
X63991772Y-78531703D01*
X64156184Y-78499000D01*
X64323816Y-78499000D01*
X64488228Y-78531703D01*
X64488228Y-78531703D01*
G37*
G36*
X72108228Y-78531703D02*
X72263100Y-78595853D01*
X72402481Y-78688985D01*
X72521015Y-78807519D01*
X72614147Y-78946900D01*
X72678297Y-79101772D01*
X72711000Y-79266184D01*
X72711000Y-79433816D01*
X72678297Y-79598228D01*
X72614147Y-79753100D01*
X72521015Y-79892481D01*
X72402481Y-80011015D01*
X72263100Y-80104147D01*
X72108228Y-80168297D01*
X71943816Y-80201000D01*
X71776184Y-80201000D01*
X71611772Y-80168297D01*
X71456900Y-80104147D01*
X71317519Y-80011015D01*
X71198985Y-79892481D01*
X71105853Y-79753100D01*
X71041703Y-79598228D01*
X71009000Y-79433816D01*
X71009000Y-79266184D01*
X71041703Y-79101772D01*
X71105853Y-78946900D01*
X71198985Y-78807519D01*
X71317519Y-78688985D01*
X71456900Y-78595853D01*
X71611772Y-78531703D01*
X71776184Y-78499000D01*
X71943816Y-78499000D01*
X72108228Y-78531703D01*
X72108228Y-78531703D01*
G37*
G36*
X126442527Y-75958736D02*
X126542410Y-75978604D01*
X126824674Y-76095521D01*
X127078705Y-76265259D01*
X127294741Y-76481295D01*
X127464479Y-76735326D01*
X127581396Y-77017590D01*
X127641000Y-77317240D01*
X127641000Y-77622760D01*
X127581396Y-77922410D01*
X127464479Y-78204674D01*
X127294741Y-78458705D01*
X127078705Y-78674741D01*
X126824674Y-78844479D01*
X126542410Y-78961396D01*
X126442527Y-78981264D01*
X126242762Y-79021000D01*
X125937238Y-79021000D01*
X125737473Y-78981264D01*
X125637590Y-78961396D01*
X125355326Y-78844479D01*
X125101295Y-78674741D01*
X124885259Y-78458705D01*
X124715521Y-78204674D01*
X124598604Y-77922410D01*
X124539000Y-77622760D01*
X124539000Y-77317240D01*
X124598604Y-77017590D01*
X124715521Y-76735326D01*
X124885259Y-76481295D01*
X125101295Y-76265259D01*
X125355326Y-76095521D01*
X125637590Y-75978604D01*
X125737473Y-75958736D01*
X125937238Y-75919000D01*
X126242762Y-75919000D01*
X126442527Y-75958736D01*
X126442527Y-75958736D01*
G37*
G36*
X107392527Y-75958736D02*
X107492410Y-75978604D01*
X107774674Y-76095521D01*
X108028705Y-76265259D01*
X108244741Y-76481295D01*
X108414479Y-76735326D01*
X108531396Y-77017590D01*
X108591000Y-77317240D01*
X108591000Y-77622760D01*
X108531396Y-77922410D01*
X108414479Y-78204674D01*
X108244741Y-78458705D01*
X108028705Y-78674741D01*
X107774674Y-78844479D01*
X107492410Y-78961396D01*
X107392527Y-78981264D01*
X107192762Y-79021000D01*
X106887238Y-79021000D01*
X106687473Y-78981264D01*
X106587590Y-78961396D01*
X106305326Y-78844479D01*
X106051295Y-78674741D01*
X105835259Y-78458705D01*
X105665521Y-78204674D01*
X105548604Y-77922410D01*
X105489000Y-77622760D01*
X105489000Y-77317240D01*
X105548604Y-77017590D01*
X105665521Y-76735326D01*
X105835259Y-76481295D01*
X106051295Y-76265259D01*
X106305326Y-76095521D01*
X106587590Y-75978604D01*
X106687473Y-75958736D01*
X106887238Y-75919000D01*
X107192762Y-75919000D01*
X107392527Y-75958736D01*
X107392527Y-75958736D01*
G37*
G36*
X111151000Y-78521000D02*
X109049000Y-78521000D01*
X109049000Y-76419000D01*
X111151000Y-76419000D01*
X111151000Y-78521000D01*
X111151000Y-78521000D01*
G37*
G36*
X130201000Y-78521000D02*
X128099000Y-78521000D01*
X128099000Y-76419000D01*
X130201000Y-76419000D01*
X130201000Y-78521000D01*
X130201000Y-78521000D01*
G37*
G36*
X59280443Y-76165519D02*
X59346627Y-76172037D01*
X59459853Y-76206384D01*
X59516467Y-76223557D01*
X59655087Y-76297652D01*
X59672991Y-76307222D01*
X59708729Y-76336552D01*
X59810186Y-76419814D01*
X59860641Y-76481295D01*
X59922778Y-76557009D01*
X59922779Y-76557011D01*
X60006443Y-76713533D01*
X60013054Y-76735326D01*
X60057963Y-76883373D01*
X60075359Y-77060000D01*
X60057963Y-77236627D01*
X60033510Y-77317238D01*
X60006443Y-77406467D01*
X59971941Y-77471014D01*
X59922778Y-77562991D01*
X59921829Y-77564147D01*
X59810186Y-77700186D01*
X59708729Y-77783448D01*
X59672991Y-77812778D01*
X59672989Y-77812779D01*
X59516467Y-77896443D01*
X59459853Y-77913616D01*
X59346627Y-77947963D01*
X59280442Y-77954482D01*
X59214260Y-77961000D01*
X59125740Y-77961000D01*
X59059558Y-77954482D01*
X58993373Y-77947963D01*
X58880147Y-77913616D01*
X58823533Y-77896443D01*
X58667011Y-77812779D01*
X58667009Y-77812778D01*
X58631271Y-77783448D01*
X58529814Y-77700186D01*
X58418171Y-77564147D01*
X58417222Y-77562991D01*
X58368059Y-77471014D01*
X58333557Y-77406467D01*
X58306490Y-77317238D01*
X58282037Y-77236627D01*
X58264641Y-77060000D01*
X58282037Y-76883373D01*
X58326946Y-76735326D01*
X58333557Y-76713533D01*
X58417221Y-76557011D01*
X58417222Y-76557009D01*
X58479359Y-76481295D01*
X58529814Y-76419814D01*
X58631271Y-76336552D01*
X58667009Y-76307222D01*
X58684913Y-76297652D01*
X58823533Y-76223557D01*
X58880147Y-76206384D01*
X58993373Y-76172037D01*
X59059557Y-76165519D01*
X59125740Y-76159000D01*
X59214260Y-76159000D01*
X59280443Y-76165519D01*
X59280443Y-76165519D01*
G37*
G36*
X79728228Y-75991703D02*
X79883100Y-76055853D01*
X80022481Y-76148985D01*
X80141015Y-76267519D01*
X80234147Y-76406900D01*
X80298297Y-76561772D01*
X80331000Y-76726184D01*
X80331000Y-76893816D01*
X80298297Y-77058228D01*
X80234147Y-77213100D01*
X80141015Y-77352481D01*
X80022481Y-77471015D01*
X79883100Y-77564147D01*
X79728228Y-77628297D01*
X79563816Y-77661000D01*
X79396184Y-77661000D01*
X79231772Y-77628297D01*
X79076900Y-77564147D01*
X78937519Y-77471015D01*
X78818985Y-77352481D01*
X78725853Y-77213100D01*
X78661703Y-77058228D01*
X78629000Y-76893816D01*
X78629000Y-76726184D01*
X78661703Y-76561772D01*
X78725853Y-76406900D01*
X78818985Y-76267519D01*
X78937519Y-76148985D01*
X79076900Y-76055853D01*
X79231772Y-75991703D01*
X79396184Y-75959000D01*
X79563816Y-75959000D01*
X79728228Y-75991703D01*
X79728228Y-75991703D01*
G37*
G36*
X72108228Y-75991703D02*
X72263100Y-76055853D01*
X72402481Y-76148985D01*
X72521015Y-76267519D01*
X72614147Y-76406900D01*
X72678297Y-76561772D01*
X72711000Y-76726184D01*
X72711000Y-76893816D01*
X72678297Y-77058228D01*
X72614147Y-77213100D01*
X72521015Y-77352481D01*
X72402481Y-77471015D01*
X72263100Y-77564147D01*
X72108228Y-77628297D01*
X71943816Y-77661000D01*
X71776184Y-77661000D01*
X71611772Y-77628297D01*
X71456900Y-77564147D01*
X71317519Y-77471015D01*
X71198985Y-77352481D01*
X71105853Y-77213100D01*
X71041703Y-77058228D01*
X71009000Y-76893816D01*
X71009000Y-76726184D01*
X71041703Y-76561772D01*
X71105853Y-76406900D01*
X71198985Y-76267519D01*
X71317519Y-76148985D01*
X71456900Y-76055853D01*
X71611772Y-75991703D01*
X71776184Y-75959000D01*
X71943816Y-75959000D01*
X72108228Y-75991703D01*
X72108228Y-75991703D01*
G37*
G36*
X64488228Y-75991703D02*
X64643100Y-76055853D01*
X64782481Y-76148985D01*
X64901015Y-76267519D01*
X64994147Y-76406900D01*
X65058297Y-76561772D01*
X65091000Y-76726184D01*
X65091000Y-76893816D01*
X65058297Y-77058228D01*
X64994147Y-77213100D01*
X64901015Y-77352481D01*
X64782481Y-77471015D01*
X64643100Y-77564147D01*
X64488228Y-77628297D01*
X64323816Y-77661000D01*
X64156184Y-77661000D01*
X63991772Y-77628297D01*
X63836900Y-77564147D01*
X63697519Y-77471015D01*
X63578985Y-77352481D01*
X63485853Y-77213100D01*
X63421703Y-77058228D01*
X63389000Y-76893816D01*
X63389000Y-76726184D01*
X63421703Y-76561772D01*
X63485853Y-76406900D01*
X63578985Y-76267519D01*
X63697519Y-76148985D01*
X63836900Y-76055853D01*
X63991772Y-75991703D01*
X64156184Y-75959000D01*
X64323816Y-75959000D01*
X64488228Y-75991703D01*
X64488228Y-75991703D01*
G37*
G36*
X74648228Y-75991703D02*
X74803100Y-76055853D01*
X74942481Y-76148985D01*
X75061015Y-76267519D01*
X75154147Y-76406900D01*
X75218297Y-76561772D01*
X75251000Y-76726184D01*
X75251000Y-76893816D01*
X75218297Y-77058228D01*
X75154147Y-77213100D01*
X75061015Y-77352481D01*
X74942481Y-77471015D01*
X74803100Y-77564147D01*
X74648228Y-77628297D01*
X74483816Y-77661000D01*
X74316184Y-77661000D01*
X74151772Y-77628297D01*
X73996900Y-77564147D01*
X73857519Y-77471015D01*
X73738985Y-77352481D01*
X73645853Y-77213100D01*
X73581703Y-77058228D01*
X73549000Y-76893816D01*
X73549000Y-76726184D01*
X73581703Y-76561772D01*
X73645853Y-76406900D01*
X73738985Y-76267519D01*
X73857519Y-76148985D01*
X73996900Y-76055853D01*
X74151772Y-75991703D01*
X74316184Y-75959000D01*
X74483816Y-75959000D01*
X74648228Y-75991703D01*
X74648228Y-75991703D01*
G37*
G36*
X64488228Y-73451703D02*
X64643100Y-73515853D01*
X64782481Y-73608985D01*
X64901015Y-73727519D01*
X64994147Y-73866900D01*
X65058297Y-74021772D01*
X65091000Y-74186184D01*
X65091000Y-74353816D01*
X65058297Y-74518228D01*
X64994147Y-74673100D01*
X64901015Y-74812481D01*
X64782481Y-74931015D01*
X64643100Y-75024147D01*
X64488228Y-75088297D01*
X64323816Y-75121000D01*
X64156184Y-75121000D01*
X63991772Y-75088297D01*
X63836900Y-75024147D01*
X63697519Y-74931015D01*
X63578985Y-74812481D01*
X63485853Y-74673100D01*
X63421703Y-74518228D01*
X63389000Y-74353816D01*
X63389000Y-74186184D01*
X63421703Y-74021772D01*
X63485853Y-73866900D01*
X63578985Y-73727519D01*
X63697519Y-73608985D01*
X63836900Y-73515853D01*
X63991772Y-73451703D01*
X64156184Y-73419000D01*
X64323816Y-73419000D01*
X64488228Y-73451703D01*
X64488228Y-73451703D01*
G37*
G36*
X79728228Y-73451703D02*
X79883100Y-73515853D01*
X80022481Y-73608985D01*
X80141015Y-73727519D01*
X80234147Y-73866900D01*
X80298297Y-74021772D01*
X80331000Y-74186184D01*
X80331000Y-74353816D01*
X80298297Y-74518228D01*
X80234147Y-74673100D01*
X80141015Y-74812481D01*
X80022481Y-74931015D01*
X79883100Y-75024147D01*
X79728228Y-75088297D01*
X79563816Y-75121000D01*
X79396184Y-75121000D01*
X79231772Y-75088297D01*
X79076900Y-75024147D01*
X78937519Y-74931015D01*
X78818985Y-74812481D01*
X78725853Y-74673100D01*
X78661703Y-74518228D01*
X78629000Y-74353816D01*
X78629000Y-74186184D01*
X78661703Y-74021772D01*
X78725853Y-73866900D01*
X78818985Y-73727519D01*
X78937519Y-73608985D01*
X79076900Y-73515853D01*
X79231772Y-73451703D01*
X79396184Y-73419000D01*
X79563816Y-73419000D01*
X79728228Y-73451703D01*
X79728228Y-73451703D01*
G37*
G36*
X74648228Y-73451703D02*
X74803100Y-73515853D01*
X74942481Y-73608985D01*
X75061015Y-73727519D01*
X75154147Y-73866900D01*
X75218297Y-74021772D01*
X75251000Y-74186184D01*
X75251000Y-74353816D01*
X75218297Y-74518228D01*
X75154147Y-74673100D01*
X75061015Y-74812481D01*
X74942481Y-74931015D01*
X74803100Y-75024147D01*
X74648228Y-75088297D01*
X74483816Y-75121000D01*
X74316184Y-75121000D01*
X74151772Y-75088297D01*
X73996900Y-75024147D01*
X73857519Y-74931015D01*
X73738985Y-74812481D01*
X73645853Y-74673100D01*
X73581703Y-74518228D01*
X73549000Y-74353816D01*
X73549000Y-74186184D01*
X73581703Y-74021772D01*
X73645853Y-73866900D01*
X73738985Y-73727519D01*
X73857519Y-73608985D01*
X73996900Y-73515853D01*
X74151772Y-73451703D01*
X74316184Y-73419000D01*
X74483816Y-73419000D01*
X74648228Y-73451703D01*
X74648228Y-73451703D01*
G37*
G36*
X72108228Y-73451703D02*
X72263100Y-73515853D01*
X72402481Y-73608985D01*
X72521015Y-73727519D01*
X72614147Y-73866900D01*
X72678297Y-74021772D01*
X72711000Y-74186184D01*
X72711000Y-74353816D01*
X72678297Y-74518228D01*
X72614147Y-74673100D01*
X72521015Y-74812481D01*
X72402481Y-74931015D01*
X72263100Y-75024147D01*
X72108228Y-75088297D01*
X71943816Y-75121000D01*
X71776184Y-75121000D01*
X71611772Y-75088297D01*
X71456900Y-75024147D01*
X71317519Y-74931015D01*
X71198985Y-74812481D01*
X71105853Y-74673100D01*
X71041703Y-74518228D01*
X71009000Y-74353816D01*
X71009000Y-74186184D01*
X71041703Y-74021772D01*
X71105853Y-73866900D01*
X71198985Y-73727519D01*
X71317519Y-73608985D01*
X71456900Y-73515853D01*
X71611772Y-73451703D01*
X71776184Y-73419000D01*
X71943816Y-73419000D01*
X72108228Y-73451703D01*
X72108228Y-73451703D01*
G37*
G36*
X64488228Y-70911703D02*
X64643100Y-70975853D01*
X64782481Y-71068985D01*
X64901015Y-71187519D01*
X64994147Y-71326900D01*
X65058297Y-71481772D01*
X65091000Y-71646184D01*
X65091000Y-71813816D01*
X65058297Y-71978228D01*
X64994147Y-72133100D01*
X64901015Y-72272481D01*
X64782481Y-72391015D01*
X64643100Y-72484147D01*
X64488228Y-72548297D01*
X64323816Y-72581000D01*
X64156184Y-72581000D01*
X63991772Y-72548297D01*
X63836900Y-72484147D01*
X63697519Y-72391015D01*
X63578985Y-72272481D01*
X63485853Y-72133100D01*
X63421703Y-71978228D01*
X63389000Y-71813816D01*
X63389000Y-71646184D01*
X63421703Y-71481772D01*
X63485853Y-71326900D01*
X63578985Y-71187519D01*
X63697519Y-71068985D01*
X63836900Y-70975853D01*
X63991772Y-70911703D01*
X64156184Y-70879000D01*
X64323816Y-70879000D01*
X64488228Y-70911703D01*
X64488228Y-70911703D01*
G37*
G36*
X72108228Y-70911703D02*
X72263100Y-70975853D01*
X72402481Y-71068985D01*
X72521015Y-71187519D01*
X72614147Y-71326900D01*
X72678297Y-71481772D01*
X72711000Y-71646184D01*
X72711000Y-71813816D01*
X72678297Y-71978228D01*
X72614147Y-72133100D01*
X72521015Y-72272481D01*
X72402481Y-72391015D01*
X72263100Y-72484147D01*
X72108228Y-72548297D01*
X71943816Y-72581000D01*
X71776184Y-72581000D01*
X71611772Y-72548297D01*
X71456900Y-72484147D01*
X71317519Y-72391015D01*
X71198985Y-72272481D01*
X71105853Y-72133100D01*
X71041703Y-71978228D01*
X71009000Y-71813816D01*
X71009000Y-71646184D01*
X71041703Y-71481772D01*
X71105853Y-71326900D01*
X71198985Y-71187519D01*
X71317519Y-71068985D01*
X71456900Y-70975853D01*
X71611772Y-70911703D01*
X71776184Y-70879000D01*
X71943816Y-70879000D01*
X72108228Y-70911703D01*
X72108228Y-70911703D01*
G37*
G36*
X74648228Y-70911703D02*
X74803100Y-70975853D01*
X74942481Y-71068985D01*
X75061015Y-71187519D01*
X75154147Y-71326900D01*
X75218297Y-71481772D01*
X75251000Y-71646184D01*
X75251000Y-71813816D01*
X75218297Y-71978228D01*
X75154147Y-72133100D01*
X75061015Y-72272481D01*
X74942481Y-72391015D01*
X74803100Y-72484147D01*
X74648228Y-72548297D01*
X74483816Y-72581000D01*
X74316184Y-72581000D01*
X74151772Y-72548297D01*
X73996900Y-72484147D01*
X73857519Y-72391015D01*
X73738985Y-72272481D01*
X73645853Y-72133100D01*
X73581703Y-71978228D01*
X73549000Y-71813816D01*
X73549000Y-71646184D01*
X73581703Y-71481772D01*
X73645853Y-71326900D01*
X73738985Y-71187519D01*
X73857519Y-71068985D01*
X73996900Y-70975853D01*
X74151772Y-70911703D01*
X74316184Y-70879000D01*
X74483816Y-70879000D01*
X74648228Y-70911703D01*
X74648228Y-70911703D01*
G37*
G36*
X79728228Y-70911703D02*
X79883100Y-70975853D01*
X80022481Y-71068985D01*
X80141015Y-71187519D01*
X80234147Y-71326900D01*
X80298297Y-71481772D01*
X80331000Y-71646184D01*
X80331000Y-71813816D01*
X80298297Y-71978228D01*
X80234147Y-72133100D01*
X80141015Y-72272481D01*
X80022481Y-72391015D01*
X79883100Y-72484147D01*
X79728228Y-72548297D01*
X79563816Y-72581000D01*
X79396184Y-72581000D01*
X79231772Y-72548297D01*
X79076900Y-72484147D01*
X78937519Y-72391015D01*
X78818985Y-72272481D01*
X78725853Y-72133100D01*
X78661703Y-71978228D01*
X78629000Y-71813816D01*
X78629000Y-71646184D01*
X78661703Y-71481772D01*
X78725853Y-71326900D01*
X78818985Y-71187519D01*
X78937519Y-71068985D01*
X79076900Y-70975853D01*
X79231772Y-70911703D01*
X79396184Y-70879000D01*
X79563816Y-70879000D01*
X79728228Y-70911703D01*
X79728228Y-70911703D01*
G37*
G36*
X123902527Y-67888736D02*
X124002410Y-67908604D01*
X124284674Y-68025521D01*
X124538705Y-68195259D01*
X124754741Y-68411295D01*
X124924479Y-68665326D01*
X124974836Y-68786900D01*
X125041396Y-68947591D01*
X125101402Y-69249259D01*
X125108515Y-69272709D01*
X125120066Y-69294319D01*
X125135612Y-69313261D01*
X125154554Y-69328807D01*
X125176165Y-69340358D01*
X125199614Y-69347471D01*
X125224000Y-69349873D01*
X125248386Y-69347471D01*
X125271836Y-69340358D01*
X125293446Y-69328807D01*
X125312388Y-69313261D01*
X125327934Y-69294319D01*
X125339485Y-69272708D01*
X125346598Y-69249259D01*
X125349000Y-69224873D01*
X125349000Y-68349000D01*
X127351000Y-68349000D01*
X127351000Y-70451000D01*
X125349000Y-70451000D01*
X125349000Y-69575127D01*
X125346598Y-69550741D01*
X125339485Y-69527292D01*
X125327934Y-69505681D01*
X125312388Y-69486739D01*
X125293446Y-69471193D01*
X125271835Y-69459642D01*
X125248386Y-69452529D01*
X125224000Y-69450127D01*
X125199614Y-69452529D01*
X125176165Y-69459642D01*
X125154554Y-69471193D01*
X125135612Y-69486739D01*
X125120066Y-69505681D01*
X125108515Y-69527292D01*
X125101402Y-69550741D01*
X125101000Y-69552760D01*
X125041396Y-69852410D01*
X124924479Y-70134674D01*
X124754741Y-70388705D01*
X124538705Y-70604741D01*
X124284674Y-70774479D01*
X124002410Y-70891396D01*
X123902527Y-70911264D01*
X123702762Y-70951000D01*
X123397238Y-70951000D01*
X123197473Y-70911264D01*
X123097590Y-70891396D01*
X122815326Y-70774479D01*
X122561295Y-70604741D01*
X122345259Y-70388705D01*
X122175521Y-70134674D01*
X122058604Y-69852410D01*
X121999000Y-69552760D01*
X121999000Y-69247240D01*
X122058604Y-68947590D01*
X122175521Y-68665326D01*
X122345259Y-68411295D01*
X122561295Y-68195259D01*
X122815326Y-68025521D01*
X123097590Y-67908604D01*
X123197473Y-67888736D01*
X123397238Y-67849000D01*
X123702762Y-67849000D01*
X123902527Y-67888736D01*
X123902527Y-67888736D01*
G37*
G36*
X104852527Y-67888736D02*
X104952410Y-67908604D01*
X105234674Y-68025521D01*
X105488705Y-68195259D01*
X105704741Y-68411295D01*
X105874479Y-68665326D01*
X105924836Y-68786900D01*
X105991396Y-68947591D01*
X106051402Y-69249259D01*
X106058515Y-69272709D01*
X106070066Y-69294319D01*
X106085612Y-69313261D01*
X106104554Y-69328807D01*
X106126165Y-69340358D01*
X106149614Y-69347471D01*
X106174000Y-69349873D01*
X106198386Y-69347471D01*
X106221836Y-69340358D01*
X106243446Y-69328807D01*
X106262388Y-69313261D01*
X106277934Y-69294319D01*
X106289485Y-69272708D01*
X106296598Y-69249259D01*
X106299000Y-69224873D01*
X106299000Y-68349000D01*
X108301000Y-68349000D01*
X108301000Y-70451000D01*
X106299000Y-70451000D01*
X106299000Y-69575127D01*
X106296598Y-69550741D01*
X106289485Y-69527292D01*
X106277934Y-69505681D01*
X106262388Y-69486739D01*
X106243446Y-69471193D01*
X106221835Y-69459642D01*
X106198386Y-69452529D01*
X106174000Y-69450127D01*
X106149614Y-69452529D01*
X106126165Y-69459642D01*
X106104554Y-69471193D01*
X106085612Y-69486739D01*
X106070066Y-69505681D01*
X106058515Y-69527292D01*
X106051402Y-69550741D01*
X106051000Y-69552760D01*
X105991396Y-69852410D01*
X105874479Y-70134674D01*
X105704741Y-70388705D01*
X105488705Y-70604741D01*
X105234674Y-70774479D01*
X104952410Y-70891396D01*
X104852527Y-70911264D01*
X104652762Y-70951000D01*
X104347238Y-70951000D01*
X104147473Y-70911264D01*
X104047590Y-70891396D01*
X103765326Y-70774479D01*
X103511295Y-70604741D01*
X103295259Y-70388705D01*
X103125521Y-70134674D01*
X103008604Y-69852410D01*
X102949000Y-69552760D01*
X102949000Y-69247240D01*
X103008604Y-68947590D01*
X103125521Y-68665326D01*
X103295259Y-68411295D01*
X103511295Y-68195259D01*
X103765326Y-68025521D01*
X104047590Y-67908604D01*
X104147473Y-67888736D01*
X104347238Y-67849000D01*
X104652762Y-67849000D01*
X104852527Y-67888736D01*
X104852527Y-67888736D01*
G37*
G36*
X79728228Y-68371703D02*
X79883100Y-68435853D01*
X80022481Y-68528985D01*
X80141015Y-68647519D01*
X80234147Y-68786900D01*
X80298297Y-68941772D01*
X80331000Y-69106184D01*
X80331000Y-69273816D01*
X80298297Y-69438228D01*
X80234147Y-69593100D01*
X80141015Y-69732481D01*
X80022481Y-69851015D01*
X79883100Y-69944147D01*
X79728228Y-70008297D01*
X79563816Y-70041000D01*
X79396184Y-70041000D01*
X79231772Y-70008297D01*
X79076900Y-69944147D01*
X78937519Y-69851015D01*
X78818985Y-69732481D01*
X78725853Y-69593100D01*
X78661703Y-69438228D01*
X78629000Y-69273816D01*
X78629000Y-69106184D01*
X78661703Y-68941772D01*
X78725853Y-68786900D01*
X78818985Y-68647519D01*
X78937519Y-68528985D01*
X79076900Y-68435853D01*
X79231772Y-68371703D01*
X79396184Y-68339000D01*
X79563816Y-68339000D01*
X79728228Y-68371703D01*
X79728228Y-68371703D01*
G37*
G36*
X64488228Y-68371703D02*
X64643100Y-68435853D01*
X64782481Y-68528985D01*
X64901015Y-68647519D01*
X64994147Y-68786900D01*
X65058297Y-68941772D01*
X65091000Y-69106184D01*
X65091000Y-69273816D01*
X65058297Y-69438228D01*
X64994147Y-69593100D01*
X64901015Y-69732481D01*
X64782481Y-69851015D01*
X64643100Y-69944147D01*
X64488228Y-70008297D01*
X64323816Y-70041000D01*
X64156184Y-70041000D01*
X63991772Y-70008297D01*
X63836900Y-69944147D01*
X63697519Y-69851015D01*
X63578985Y-69732481D01*
X63485853Y-69593100D01*
X63421703Y-69438228D01*
X63389000Y-69273816D01*
X63389000Y-69106184D01*
X63421703Y-68941772D01*
X63485853Y-68786900D01*
X63578985Y-68647519D01*
X63697519Y-68528985D01*
X63836900Y-68435853D01*
X63991772Y-68371703D01*
X64156184Y-68339000D01*
X64323816Y-68339000D01*
X64488228Y-68371703D01*
X64488228Y-68371703D01*
G37*
G36*
X77188228Y-68371703D02*
X77343100Y-68435853D01*
X77482481Y-68528985D01*
X77601015Y-68647519D01*
X77694147Y-68786900D01*
X77758297Y-68941772D01*
X77791000Y-69106184D01*
X77791000Y-69273816D01*
X77758297Y-69438228D01*
X77694147Y-69593100D01*
X77601015Y-69732481D01*
X77482481Y-69851015D01*
X77343100Y-69944147D01*
X77188228Y-70008297D01*
X77023816Y-70041000D01*
X76856184Y-70041000D01*
X76691772Y-70008297D01*
X76536900Y-69944147D01*
X76397519Y-69851015D01*
X76278985Y-69732481D01*
X76185853Y-69593100D01*
X76121703Y-69438228D01*
X76089000Y-69273816D01*
X76089000Y-69106184D01*
X76121703Y-68941772D01*
X76185853Y-68786900D01*
X76278985Y-68647519D01*
X76397519Y-68528985D01*
X76536900Y-68435853D01*
X76691772Y-68371703D01*
X76856184Y-68339000D01*
X77023816Y-68339000D01*
X77188228Y-68371703D01*
X77188228Y-68371703D01*
G37*
G36*
X118896152Y-65687468D02*
X119002410Y-65708604D01*
X119284674Y-65825521D01*
X119538705Y-65995259D01*
X119754741Y-66211295D01*
X119924479Y-66465326D01*
X120041396Y-66747590D01*
X120041396Y-66747591D01*
X120101000Y-67047238D01*
X120101000Y-67352762D01*
X120078018Y-67468297D01*
X120041396Y-67652410D01*
X119924479Y-67934674D01*
X119754741Y-68188705D01*
X119538705Y-68404741D01*
X119284674Y-68574479D01*
X119002410Y-68691396D01*
X118902527Y-68711264D01*
X118702762Y-68751000D01*
X118397238Y-68751000D01*
X118197473Y-68711264D01*
X118097590Y-68691396D01*
X117815326Y-68574479D01*
X117561295Y-68404741D01*
X117345259Y-68188705D01*
X117175521Y-67934674D01*
X117058604Y-67652410D01*
X117021982Y-67468297D01*
X116999000Y-67352762D01*
X116999000Y-67047238D01*
X117058604Y-66747591D01*
X117058604Y-66747590D01*
X117175521Y-66465326D01*
X117345259Y-66211295D01*
X117561295Y-65995259D01*
X117815326Y-65825521D01*
X118097590Y-65708604D01*
X118203848Y-65687468D01*
X118397238Y-65649000D01*
X118702762Y-65649000D01*
X118896152Y-65687468D01*
X118896152Y-65687468D01*
G37*
G36*
X99846152Y-65687468D02*
X99952410Y-65708604D01*
X100234674Y-65825521D01*
X100488705Y-65995259D01*
X100704741Y-66211295D01*
X100874479Y-66465326D01*
X100991396Y-66747590D01*
X100991396Y-66747591D01*
X101051000Y-67047238D01*
X101051000Y-67352762D01*
X101028018Y-67468297D01*
X100991396Y-67652410D01*
X100874479Y-67934674D01*
X100704741Y-68188705D01*
X100488705Y-68404741D01*
X100234674Y-68574479D01*
X99952410Y-68691396D01*
X99852527Y-68711264D01*
X99652762Y-68751000D01*
X99347238Y-68751000D01*
X99147473Y-68711264D01*
X99047590Y-68691396D01*
X98765326Y-68574479D01*
X98511295Y-68404741D01*
X98295259Y-68188705D01*
X98125521Y-67934674D01*
X98008604Y-67652410D01*
X97971982Y-67468297D01*
X97949000Y-67352762D01*
X97949000Y-67047238D01*
X98008604Y-66747591D01*
X98008604Y-66747590D01*
X98125521Y-66465326D01*
X98295259Y-66211295D01*
X98511295Y-65995259D01*
X98765326Y-65825521D01*
X99047590Y-65708604D01*
X99153848Y-65687468D01*
X99347238Y-65649000D01*
X99652762Y-65649000D01*
X99846152Y-65687468D01*
X99846152Y-65687468D01*
G37*
G36*
X97451000Y-68251000D02*
X95349000Y-68251000D01*
X95349000Y-66149000D01*
X97451000Y-66149000D01*
X97451000Y-68251000D01*
X97451000Y-68251000D01*
G37*
G36*
X116501000Y-68251000D02*
X114399000Y-68251000D01*
X114399000Y-66149000D01*
X116501000Y-66149000D01*
X116501000Y-68251000D01*
X116501000Y-68251000D01*
G37*
G36*
X72151981Y-65687468D02*
X72334150Y-65762925D01*
X72498103Y-65872475D01*
X72637525Y-66011897D01*
X72747075Y-66175850D01*
X72822532Y-66358019D01*
X72861000Y-66551410D01*
X72861000Y-66748590D01*
X72822532Y-66941981D01*
X72747075Y-67124150D01*
X72637525Y-67288103D01*
X72498103Y-67427525D01*
X72334150Y-67537075D01*
X72151981Y-67612532D01*
X71958590Y-67651000D01*
X71761410Y-67651000D01*
X71568019Y-67612532D01*
X71385850Y-67537075D01*
X71221897Y-67427525D01*
X71082475Y-67288103D01*
X70972925Y-67124150D01*
X70897468Y-66941981D01*
X70859000Y-66748590D01*
X70859000Y-66551410D01*
X70897468Y-66358019D01*
X70972925Y-66175850D01*
X71082475Y-66011897D01*
X71221897Y-65872475D01*
X71385850Y-65762925D01*
X71568019Y-65687468D01*
X71761410Y-65649000D01*
X71958590Y-65649000D01*
X72151981Y-65687468D01*
X72151981Y-65687468D01*
G37*
G36*
X64488228Y-65831703D02*
X64643100Y-65895853D01*
X64782481Y-65988985D01*
X64901015Y-66107519D01*
X64994147Y-66246900D01*
X65058297Y-66401772D01*
X65091000Y-66566184D01*
X65091000Y-66733816D01*
X65058297Y-66898228D01*
X64994147Y-67053100D01*
X64901015Y-67192481D01*
X64782481Y-67311015D01*
X64643100Y-67404147D01*
X64488228Y-67468297D01*
X64323816Y-67501000D01*
X64156184Y-67501000D01*
X63991772Y-67468297D01*
X63836900Y-67404147D01*
X63697519Y-67311015D01*
X63578985Y-67192481D01*
X63485853Y-67053100D01*
X63421703Y-66898228D01*
X63389000Y-66733816D01*
X63389000Y-66566184D01*
X63421703Y-66401772D01*
X63485853Y-66246900D01*
X63578985Y-66107519D01*
X63697519Y-65988985D01*
X63836900Y-65895853D01*
X63991772Y-65831703D01*
X64156184Y-65799000D01*
X64323816Y-65799000D01*
X64488228Y-65831703D01*
X64488228Y-65831703D01*
G37*
G36*
X77188228Y-65831703D02*
X77343100Y-65895853D01*
X77482481Y-65988985D01*
X77601015Y-66107519D01*
X77694147Y-66246900D01*
X77758297Y-66401772D01*
X77791000Y-66566184D01*
X77791000Y-66733816D01*
X77758297Y-66898228D01*
X77694147Y-67053100D01*
X77601015Y-67192481D01*
X77482481Y-67311015D01*
X77343100Y-67404147D01*
X77188228Y-67468297D01*
X77023816Y-67501000D01*
X76856184Y-67501000D01*
X76691772Y-67468297D01*
X76536900Y-67404147D01*
X76397519Y-67311015D01*
X76278985Y-67192481D01*
X76185853Y-67053100D01*
X76121703Y-66898228D01*
X76089000Y-66733816D01*
X76089000Y-66566184D01*
X76121703Y-66401772D01*
X76185853Y-66246900D01*
X76278985Y-66107519D01*
X76397519Y-65988985D01*
X76536900Y-65895853D01*
X76691772Y-65831703D01*
X76856184Y-65799000D01*
X77023816Y-65799000D01*
X77188228Y-65831703D01*
X77188228Y-65831703D01*
G37*
G36*
X79728228Y-65831703D02*
X79883100Y-65895853D01*
X80022481Y-65988985D01*
X80141015Y-66107519D01*
X80234147Y-66246900D01*
X80298297Y-66401772D01*
X80331000Y-66566184D01*
X80331000Y-66733816D01*
X80298297Y-66898228D01*
X80234147Y-67053100D01*
X80141015Y-67192481D01*
X80022481Y-67311015D01*
X79883100Y-67404147D01*
X79728228Y-67468297D01*
X79563816Y-67501000D01*
X79396184Y-67501000D01*
X79231772Y-67468297D01*
X79076900Y-67404147D01*
X78937519Y-67311015D01*
X78818985Y-67192481D01*
X78725853Y-67053100D01*
X78661703Y-66898228D01*
X78629000Y-66733816D01*
X78629000Y-66566184D01*
X78661703Y-66401772D01*
X78725853Y-66246900D01*
X78818985Y-66107519D01*
X78937519Y-65988985D01*
X79076900Y-65895853D01*
X79231772Y-65831703D01*
X79396184Y-65799000D01*
X79563816Y-65799000D01*
X79728228Y-65831703D01*
X79728228Y-65831703D01*
G37*
G36*
X92163228Y-64176703D02*
X92318100Y-64240853D01*
X92457481Y-64333985D01*
X92576015Y-64452519D01*
X92669147Y-64591900D01*
X92733297Y-64746772D01*
X92766000Y-64911184D01*
X92766000Y-65078816D01*
X92733297Y-65243228D01*
X92669147Y-65398100D01*
X92576015Y-65537481D01*
X92457481Y-65656015D01*
X92318100Y-65749147D01*
X92163228Y-65813297D01*
X91998816Y-65846000D01*
X91831184Y-65846000D01*
X91666772Y-65813297D01*
X91511900Y-65749147D01*
X91372519Y-65656015D01*
X91253985Y-65537481D01*
X91160853Y-65398100D01*
X91096703Y-65243228D01*
X91064000Y-65078816D01*
X91064000Y-64911184D01*
X91096703Y-64746772D01*
X91160853Y-64591900D01*
X91253985Y-64452519D01*
X91372519Y-64333985D01*
X91511900Y-64240853D01*
X91666772Y-64176703D01*
X91831184Y-64144000D01*
X91998816Y-64144000D01*
X92163228Y-64176703D01*
X92163228Y-64176703D01*
G37*
G36*
X84966000Y-65846000D02*
X83264000Y-65846000D01*
X83264000Y-64144000D01*
X84966000Y-64144000D01*
X84966000Y-65846000D01*
X84966000Y-65846000D01*
G37*
G36*
X90266000Y-65646000D02*
X88564000Y-65646000D01*
X88564000Y-64344000D01*
X90266000Y-64344000D01*
X90266000Y-65646000D01*
X90266000Y-65646000D01*
G37*
G36*
X87466000Y-65646000D02*
X85764000Y-65646000D01*
X85764000Y-64344000D01*
X87466000Y-64344000D01*
X87466000Y-65646000D01*
X87466000Y-65646000D01*
G37*
G36*
X105098252Y-61527818D02*
X105098254Y-61527819D01*
X105098255Y-61527819D01*
X105471513Y-61682427D01*
X105763412Y-61877468D01*
X105807439Y-61906886D01*
X106093114Y-62192561D01*
X106093116Y-62192564D01*
X106317573Y-62528487D01*
X106472181Y-62901745D01*
X106472182Y-62901748D01*
X106551000Y-63297993D01*
X106551000Y-63702007D01*
X106476936Y-64074354D01*
X106472181Y-64098255D01*
X106317573Y-64471513D01*
X106317572Y-64471514D01*
X106093114Y-64807439D01*
X105807439Y-65093114D01*
X105807436Y-65093116D01*
X105471513Y-65317573D01*
X105098255Y-65472181D01*
X105098254Y-65472181D01*
X105098252Y-65472182D01*
X104702007Y-65551000D01*
X104297993Y-65551000D01*
X103901748Y-65472182D01*
X103901746Y-65472181D01*
X103901745Y-65472181D01*
X103528487Y-65317573D01*
X103192564Y-65093116D01*
X103192561Y-65093114D01*
X102906886Y-64807439D01*
X102682428Y-64471514D01*
X102682427Y-64471513D01*
X102527819Y-64098255D01*
X102523065Y-64074354D01*
X102449000Y-63702007D01*
X102449000Y-63297993D01*
X102527818Y-62901748D01*
X102527819Y-62901745D01*
X102682427Y-62528487D01*
X102906884Y-62192564D01*
X102906886Y-62192561D01*
X103192561Y-61906886D01*
X103236588Y-61877468D01*
X103528487Y-61682427D01*
X103901745Y-61527819D01*
X103901746Y-61527819D01*
X103901748Y-61527818D01*
X104297993Y-61449000D01*
X104702007Y-61449000D01*
X105098252Y-61527818D01*
X105098252Y-61527818D01*
G37*
G36*
X124148252Y-61527818D02*
X124148254Y-61527819D01*
X124148255Y-61527819D01*
X124521513Y-61682427D01*
X124813412Y-61877468D01*
X124857439Y-61906886D01*
X125143114Y-62192561D01*
X125143116Y-62192564D01*
X125367573Y-62528487D01*
X125522181Y-62901745D01*
X125522182Y-62901748D01*
X125601000Y-63297993D01*
X125601000Y-63702007D01*
X125526936Y-64074354D01*
X125522181Y-64098255D01*
X125367573Y-64471513D01*
X125367572Y-64471514D01*
X125143114Y-64807439D01*
X124857439Y-65093114D01*
X124857436Y-65093116D01*
X124521513Y-65317573D01*
X124148255Y-65472181D01*
X124148254Y-65472181D01*
X124148252Y-65472182D01*
X123752007Y-65551000D01*
X123347993Y-65551000D01*
X122951748Y-65472182D01*
X122951746Y-65472181D01*
X122951745Y-65472181D01*
X122578487Y-65317573D01*
X122242564Y-65093116D01*
X122242561Y-65093114D01*
X121956886Y-64807439D01*
X121732428Y-64471514D01*
X121732427Y-64471513D01*
X121577819Y-64098255D01*
X121573065Y-64074354D01*
X121499000Y-63702007D01*
X121499000Y-63297993D01*
X121577818Y-62901748D01*
X121577819Y-62901745D01*
X121732427Y-62528487D01*
X121956884Y-62192564D01*
X121956886Y-62192561D01*
X122242561Y-61906886D01*
X122286588Y-61877468D01*
X122578487Y-61682427D01*
X122951745Y-61527819D01*
X122951746Y-61527819D01*
X122951748Y-61527818D01*
X123347993Y-61449000D01*
X123752007Y-61449000D01*
X124148252Y-61527818D01*
X124148252Y-61527818D01*
G37*
G36*
X79728228Y-63291703D02*
X79883100Y-63355853D01*
X80022481Y-63448985D01*
X80141015Y-63567519D01*
X80234147Y-63706900D01*
X80298297Y-63861772D01*
X80331000Y-64026184D01*
X80331000Y-64193816D01*
X80298297Y-64358228D01*
X80234147Y-64513100D01*
X80141015Y-64652481D01*
X80022481Y-64771015D01*
X79883100Y-64864147D01*
X79728228Y-64928297D01*
X79563816Y-64961000D01*
X79396184Y-64961000D01*
X79231772Y-64928297D01*
X79076900Y-64864147D01*
X78937519Y-64771015D01*
X78818985Y-64652481D01*
X78725853Y-64513100D01*
X78661703Y-64358228D01*
X78629000Y-64193816D01*
X78629000Y-64026184D01*
X78661703Y-63861772D01*
X78725853Y-63706900D01*
X78818985Y-63567519D01*
X78937519Y-63448985D01*
X79076900Y-63355853D01*
X79231772Y-63291703D01*
X79396184Y-63259000D01*
X79563816Y-63259000D01*
X79728228Y-63291703D01*
X79728228Y-63291703D01*
G37*
G36*
X64488228Y-63291703D02*
X64643100Y-63355853D01*
X64782481Y-63448985D01*
X64901015Y-63567519D01*
X64994147Y-63706900D01*
X65058297Y-63861772D01*
X65091000Y-64026184D01*
X65091000Y-64193816D01*
X65058297Y-64358228D01*
X64994147Y-64513100D01*
X64901015Y-64652481D01*
X64782481Y-64771015D01*
X64643100Y-64864147D01*
X64488228Y-64928297D01*
X64323816Y-64961000D01*
X64156184Y-64961000D01*
X63991772Y-64928297D01*
X63836900Y-64864147D01*
X63697519Y-64771015D01*
X63578985Y-64652481D01*
X63485853Y-64513100D01*
X63421703Y-64358228D01*
X63389000Y-64193816D01*
X63389000Y-64026184D01*
X63421703Y-63861772D01*
X63485853Y-63706900D01*
X63578985Y-63567519D01*
X63697519Y-63448985D01*
X63836900Y-63355853D01*
X63991772Y-63291703D01*
X64156184Y-63259000D01*
X64323816Y-63259000D01*
X64488228Y-63291703D01*
X64488228Y-63291703D01*
G37*
G36*
X77188228Y-63291703D02*
X77343100Y-63355853D01*
X77482481Y-63448985D01*
X77601015Y-63567519D01*
X77694147Y-63706900D01*
X77758297Y-63861772D01*
X77791000Y-64026184D01*
X77791000Y-64193816D01*
X77758297Y-64358228D01*
X77694147Y-64513100D01*
X77601015Y-64652481D01*
X77482481Y-64771015D01*
X77343100Y-64864147D01*
X77188228Y-64928297D01*
X77023816Y-64961000D01*
X76856184Y-64961000D01*
X76691772Y-64928297D01*
X76536900Y-64864147D01*
X76397519Y-64771015D01*
X76278985Y-64652481D01*
X76185853Y-64513100D01*
X76121703Y-64358228D01*
X76089000Y-64193816D01*
X76089000Y-64026184D01*
X76121703Y-63861772D01*
X76185853Y-63706900D01*
X76278985Y-63567519D01*
X76397519Y-63448985D01*
X76536900Y-63355853D01*
X76691772Y-63291703D01*
X76856184Y-63259000D01*
X77023816Y-63259000D01*
X77188228Y-63291703D01*
X77188228Y-63291703D01*
G37*
G36*
X118341981Y-62537468D02*
X118467561Y-62589485D01*
X118491010Y-62596598D01*
X118515396Y-62599000D01*
X118558741Y-62599000D01*
X118732812Y-62633624D01*
X118896784Y-62701544D01*
X119044354Y-62800147D01*
X119169853Y-62925646D01*
X119268456Y-63073216D01*
X119336376Y-63237188D01*
X119371000Y-63411259D01*
X119371000Y-63588741D01*
X119336376Y-63762812D01*
X119268456Y-63926784D01*
X119169853Y-64074354D01*
X119044354Y-64199853D01*
X118896784Y-64298456D01*
X118732812Y-64366376D01*
X118558741Y-64401000D01*
X118515396Y-64401000D01*
X118491010Y-64403402D01*
X118467561Y-64410515D01*
X118341981Y-64462532D01*
X118148590Y-64501000D01*
X117951410Y-64501000D01*
X117758019Y-64462532D01*
X117575850Y-64387075D01*
X117411897Y-64277525D01*
X117272475Y-64138103D01*
X117162925Y-63974150D01*
X117087468Y-63791981D01*
X117049000Y-63598590D01*
X117049000Y-63401410D01*
X117087468Y-63208019D01*
X117162925Y-63025850D01*
X117272475Y-62861897D01*
X117411897Y-62722475D01*
X117575850Y-62612925D01*
X117758019Y-62537468D01*
X117951410Y-62499000D01*
X118148590Y-62499000D01*
X118341981Y-62537468D01*
X118341981Y-62537468D01*
G37*
G36*
X129341981Y-62537468D02*
X129524150Y-62612925D01*
X129688103Y-62722475D01*
X129827525Y-62861897D01*
X129937075Y-63025850D01*
X130012532Y-63208019D01*
X130051000Y-63401410D01*
X130051000Y-63598590D01*
X130012532Y-63791981D01*
X129937075Y-63974150D01*
X129827525Y-64138103D01*
X129688103Y-64277525D01*
X129524150Y-64387075D01*
X129341981Y-64462532D01*
X129148590Y-64501000D01*
X128951410Y-64501000D01*
X128758019Y-64462532D01*
X128632439Y-64410515D01*
X128608990Y-64403402D01*
X128584604Y-64401000D01*
X128541259Y-64401000D01*
X128367188Y-64366376D01*
X128203216Y-64298456D01*
X128055646Y-64199853D01*
X127930147Y-64074354D01*
X127831544Y-63926784D01*
X127763624Y-63762812D01*
X127729000Y-63588741D01*
X127729000Y-63411259D01*
X127763624Y-63237188D01*
X127831544Y-63073216D01*
X127930147Y-62925646D01*
X128055646Y-62800147D01*
X128203216Y-62701544D01*
X128367188Y-62633624D01*
X128541259Y-62599000D01*
X128584604Y-62599000D01*
X128608990Y-62596598D01*
X128632439Y-62589485D01*
X128758019Y-62537468D01*
X128951410Y-62499000D01*
X129148590Y-62499000D01*
X129341981Y-62537468D01*
X129341981Y-62537468D01*
G37*
G36*
X110291981Y-62537468D02*
X110474150Y-62612925D01*
X110638103Y-62722475D01*
X110777525Y-62861897D01*
X110887075Y-63025850D01*
X110962532Y-63208019D01*
X111001000Y-63401410D01*
X111001000Y-63598590D01*
X110962532Y-63791981D01*
X110887075Y-63974150D01*
X110777525Y-64138103D01*
X110638103Y-64277525D01*
X110474150Y-64387075D01*
X110316154Y-64452519D01*
X110291981Y-64462532D01*
X110098590Y-64501000D01*
X109901410Y-64501000D01*
X109708019Y-64462532D01*
X109683846Y-64452519D01*
X109582439Y-64410515D01*
X109558990Y-64403402D01*
X109534604Y-64401000D01*
X109491259Y-64401000D01*
X109317188Y-64366376D01*
X109153216Y-64298456D01*
X109005646Y-64199853D01*
X108880147Y-64074354D01*
X108781544Y-63926784D01*
X108713624Y-63762812D01*
X108679000Y-63588741D01*
X108679000Y-63411259D01*
X108713624Y-63237188D01*
X108781544Y-63073216D01*
X108880147Y-62925646D01*
X109005646Y-62800147D01*
X109153216Y-62701544D01*
X109317188Y-62633624D01*
X109491259Y-62599000D01*
X109534604Y-62599000D01*
X109558990Y-62596598D01*
X109582439Y-62589485D01*
X109708019Y-62537468D01*
X109901410Y-62499000D01*
X110098590Y-62499000D01*
X110291981Y-62537468D01*
X110291981Y-62537468D01*
G37*
G36*
X99291981Y-62537468D02*
X99417561Y-62589485D01*
X99441010Y-62596598D01*
X99465396Y-62599000D01*
X99508741Y-62599000D01*
X99682812Y-62633624D01*
X99846784Y-62701544D01*
X99994354Y-62800147D01*
X100119853Y-62925646D01*
X100218456Y-63073216D01*
X100286376Y-63237188D01*
X100321000Y-63411259D01*
X100321000Y-63588741D01*
X100286376Y-63762812D01*
X100218456Y-63926784D01*
X100119853Y-64074354D01*
X99994354Y-64199853D01*
X99846784Y-64298456D01*
X99682812Y-64366376D01*
X99508741Y-64401000D01*
X99465396Y-64401000D01*
X99441010Y-64403402D01*
X99417561Y-64410515D01*
X99316154Y-64452519D01*
X99291981Y-64462532D01*
X99098590Y-64501000D01*
X98901410Y-64501000D01*
X98708019Y-64462532D01*
X98683846Y-64452519D01*
X98525850Y-64387075D01*
X98361897Y-64277525D01*
X98222475Y-64138103D01*
X98112925Y-63974150D01*
X98037468Y-63791981D01*
X97999000Y-63598590D01*
X97999000Y-63401410D01*
X98037468Y-63208019D01*
X98112925Y-63025850D01*
X98222475Y-62861897D01*
X98361897Y-62722475D01*
X98525850Y-62612925D01*
X98708019Y-62537468D01*
X98901410Y-62499000D01*
X99098590Y-62499000D01*
X99291981Y-62537468D01*
X99291981Y-62537468D01*
G37*
G36*
X72151981Y-61877468D02*
X72334150Y-61952925D01*
X72498103Y-62062475D01*
X72637525Y-62201897D01*
X72747075Y-62365850D01*
X72822532Y-62548019D01*
X72861000Y-62741410D01*
X72861000Y-62938590D01*
X72822532Y-63131981D01*
X72747075Y-63314150D01*
X72637525Y-63478103D01*
X72498103Y-63617525D01*
X72334150Y-63727075D01*
X72247873Y-63762812D01*
X72151981Y-63802532D01*
X71958590Y-63841000D01*
X71761410Y-63841000D01*
X71568019Y-63802532D01*
X71472127Y-63762812D01*
X71385850Y-63727075D01*
X71221897Y-63617525D01*
X71082475Y-63478103D01*
X70972925Y-63314150D01*
X70897468Y-63131981D01*
X70859000Y-62938590D01*
X70859000Y-62741410D01*
X70897468Y-62548019D01*
X70972925Y-62365850D01*
X71082475Y-62201897D01*
X71221897Y-62062475D01*
X71385850Y-61952925D01*
X71568019Y-61877468D01*
X71761410Y-61839000D01*
X71958590Y-61839000D01*
X72151981Y-61877468D01*
X72151981Y-61877468D01*
G37*
G36*
X92163228Y-61636703D02*
X92318100Y-61700853D01*
X92457481Y-61793985D01*
X92576015Y-61912519D01*
X92669147Y-62051900D01*
X92733297Y-62206772D01*
X92766000Y-62371184D01*
X92766000Y-62538816D01*
X92733297Y-62703228D01*
X92669147Y-62858100D01*
X92576015Y-62997481D01*
X92457481Y-63116015D01*
X92318100Y-63209147D01*
X92163228Y-63273297D01*
X91998816Y-63306000D01*
X91831184Y-63306000D01*
X91666772Y-63273297D01*
X91511900Y-63209147D01*
X91372519Y-63116015D01*
X91253985Y-62997481D01*
X91160853Y-62858100D01*
X91096703Y-62703228D01*
X91064000Y-62538816D01*
X91064000Y-62371184D01*
X91096703Y-62206772D01*
X91160853Y-62051900D01*
X91253985Y-61912519D01*
X91372519Y-61793985D01*
X91511900Y-61700853D01*
X91666772Y-61636703D01*
X91831184Y-61604000D01*
X91998816Y-61604000D01*
X92163228Y-61636703D01*
X92163228Y-61636703D01*
G37*
G36*
X84966000Y-63306000D02*
X83264000Y-63306000D01*
X83264000Y-61604000D01*
X84966000Y-61604000D01*
X84966000Y-63306000D01*
X84966000Y-63306000D01*
G37*
G36*
X87466000Y-63106000D02*
X85764000Y-63106000D01*
X85764000Y-61804000D01*
X87466000Y-61804000D01*
X87466000Y-63106000D01*
X87466000Y-63106000D01*
G37*
G36*
X90266000Y-63106000D02*
X88564000Y-63106000D01*
X88564000Y-61804000D01*
X90266000Y-61804000D01*
X90266000Y-63106000D01*
X90266000Y-63106000D01*
G37*
G36*
X101042527Y-59448736D02*
X101142410Y-59468604D01*
X101424674Y-59585521D01*
X101678705Y-59755259D01*
X101894741Y-59971295D01*
X102064479Y-60225326D01*
X102181396Y-60507590D01*
X102201264Y-60607473D01*
X102229954Y-60751704D01*
X102241000Y-60807240D01*
X102241000Y-61112760D01*
X102181396Y-61412410D01*
X102064479Y-61694674D01*
X101894741Y-61948705D01*
X101678705Y-62164741D01*
X101424674Y-62334479D01*
X101142410Y-62451396D01*
X101042527Y-62471264D01*
X100842762Y-62511000D01*
X100537238Y-62511000D01*
X100337473Y-62471264D01*
X100237590Y-62451396D01*
X99955326Y-62334479D01*
X99701295Y-62164741D01*
X99485259Y-61948705D01*
X99315521Y-61694674D01*
X99198604Y-61412410D01*
X99139000Y-61112760D01*
X99139000Y-60807240D01*
X99150047Y-60751704D01*
X99178736Y-60607473D01*
X99198604Y-60507590D01*
X99315521Y-60225326D01*
X99485259Y-59971295D01*
X99701295Y-59755259D01*
X99955326Y-59585521D01*
X100237590Y-59468604D01*
X100337473Y-59448736D01*
X100537238Y-59409000D01*
X100842762Y-59409000D01*
X101042527Y-59448736D01*
X101042527Y-59448736D01*
G37*
G36*
X120092527Y-59448736D02*
X120192410Y-59468604D01*
X120474674Y-59585521D01*
X120728705Y-59755259D01*
X120944741Y-59971295D01*
X121114479Y-60225326D01*
X121231396Y-60507590D01*
X121251264Y-60607473D01*
X121279954Y-60751704D01*
X121291000Y-60807240D01*
X121291000Y-61112760D01*
X121231396Y-61412410D01*
X121114479Y-61694674D01*
X120944741Y-61948705D01*
X120728705Y-62164741D01*
X120474674Y-62334479D01*
X120192410Y-62451396D01*
X120092527Y-62471264D01*
X119892762Y-62511000D01*
X119587238Y-62511000D01*
X119387473Y-62471264D01*
X119287590Y-62451396D01*
X119005326Y-62334479D01*
X118751295Y-62164741D01*
X118535259Y-61948705D01*
X118365521Y-61694674D01*
X118248604Y-61412410D01*
X118189000Y-61112760D01*
X118189000Y-60807240D01*
X118200047Y-60751704D01*
X118228736Y-60607473D01*
X118248604Y-60507590D01*
X118365521Y-60225326D01*
X118535259Y-59971295D01*
X118751295Y-59755259D01*
X119005326Y-59585521D01*
X119287590Y-59468604D01*
X119387473Y-59448736D01*
X119587238Y-59409000D01*
X119892762Y-59409000D01*
X120092527Y-59448736D01*
X120092527Y-59448736D01*
G37*
G36*
X79728228Y-60751703D02*
X79883100Y-60815853D01*
X80022481Y-60908985D01*
X80141015Y-61027519D01*
X80234147Y-61166900D01*
X80298297Y-61321772D01*
X80331000Y-61486184D01*
X80331000Y-61653816D01*
X80298297Y-61818228D01*
X80234147Y-61973100D01*
X80141015Y-62112481D01*
X80022481Y-62231015D01*
X79883100Y-62324147D01*
X79728228Y-62388297D01*
X79563816Y-62421000D01*
X79396184Y-62421000D01*
X79231772Y-62388297D01*
X79076900Y-62324147D01*
X78937519Y-62231015D01*
X78818985Y-62112481D01*
X78725853Y-61973100D01*
X78661703Y-61818228D01*
X78629000Y-61653816D01*
X78629000Y-61486184D01*
X78661703Y-61321772D01*
X78725853Y-61166900D01*
X78818985Y-61027519D01*
X78937519Y-60908985D01*
X79076900Y-60815853D01*
X79231772Y-60751703D01*
X79396184Y-60719000D01*
X79563816Y-60719000D01*
X79728228Y-60751703D01*
X79728228Y-60751703D01*
G37*
G36*
X64488228Y-60751703D02*
X64643100Y-60815853D01*
X64782481Y-60908985D01*
X64901015Y-61027519D01*
X64994147Y-61166900D01*
X65058297Y-61321772D01*
X65091000Y-61486184D01*
X65091000Y-61653816D01*
X65058297Y-61818228D01*
X64994147Y-61973100D01*
X64901015Y-62112481D01*
X64782481Y-62231015D01*
X64643100Y-62324147D01*
X64488228Y-62388297D01*
X64323816Y-62421000D01*
X64156184Y-62421000D01*
X63991772Y-62388297D01*
X63836900Y-62324147D01*
X63697519Y-62231015D01*
X63578985Y-62112481D01*
X63485853Y-61973100D01*
X63421703Y-61818228D01*
X63389000Y-61653816D01*
X63389000Y-61486184D01*
X63421703Y-61321772D01*
X63485853Y-61166900D01*
X63578985Y-61027519D01*
X63697519Y-60908985D01*
X63836900Y-60815853D01*
X63991772Y-60751703D01*
X64156184Y-60719000D01*
X64323816Y-60719000D01*
X64488228Y-60751703D01*
X64488228Y-60751703D01*
G37*
G36*
X98651000Y-62011000D02*
X96549000Y-62011000D01*
X96549000Y-59909000D01*
X98651000Y-59909000D01*
X98651000Y-62011000D01*
X98651000Y-62011000D01*
G37*
G36*
X117701000Y-62011000D02*
X115599000Y-62011000D01*
X115599000Y-59909000D01*
X117701000Y-59909000D01*
X117701000Y-62011000D01*
X117701000Y-62011000D01*
G37*
G36*
X84966000Y-60766000D02*
X83264000Y-60766000D01*
X83264000Y-59064000D01*
X84966000Y-59064000D01*
X84966000Y-60766000D01*
X84966000Y-60766000D01*
G37*
G36*
X92163228Y-59096703D02*
X92318100Y-59160853D01*
X92457481Y-59253985D01*
X92576015Y-59372519D01*
X92669147Y-59511900D01*
X92733297Y-59666772D01*
X92766000Y-59831184D01*
X92766000Y-59998816D01*
X92733297Y-60163228D01*
X92669147Y-60318100D01*
X92576015Y-60457481D01*
X92457481Y-60576015D01*
X92318100Y-60669147D01*
X92163228Y-60733297D01*
X91998816Y-60766000D01*
X91831184Y-60766000D01*
X91666772Y-60733297D01*
X91511900Y-60669147D01*
X91372519Y-60576015D01*
X91253985Y-60457481D01*
X91160853Y-60318100D01*
X91096703Y-60163228D01*
X91064000Y-59998816D01*
X91064000Y-59831184D01*
X91096703Y-59666772D01*
X91160853Y-59511900D01*
X91253985Y-59372519D01*
X91372519Y-59253985D01*
X91511900Y-59160853D01*
X91666772Y-59096703D01*
X91831184Y-59064000D01*
X91998816Y-59064000D01*
X92163228Y-59096703D01*
X92163228Y-59096703D01*
G37*
G36*
X90266000Y-60566000D02*
X88564000Y-60566000D01*
X88564000Y-59264000D01*
X90266000Y-59264000D01*
X90266000Y-60566000D01*
X90266000Y-60566000D01*
G37*
G36*
X87466000Y-60566000D02*
X85764000Y-60566000D01*
X85764000Y-59264000D01*
X87466000Y-59264000D01*
X87466000Y-60566000D01*
X87466000Y-60566000D01*
G37*
G36*
X126442527Y-56908736D02*
X126542410Y-56928604D01*
X126824674Y-57045521D01*
X127078705Y-57215259D01*
X127294741Y-57431295D01*
X127464479Y-57685326D01*
X127581396Y-57967590D01*
X127601264Y-58067473D01*
X127629954Y-58211704D01*
X127641000Y-58267240D01*
X127641000Y-58572760D01*
X127581396Y-58872410D01*
X127464479Y-59154674D01*
X127294741Y-59408705D01*
X127078705Y-59624741D01*
X126824674Y-59794479D01*
X126542410Y-59911396D01*
X126442527Y-59931264D01*
X126242762Y-59971000D01*
X125937238Y-59971000D01*
X125737473Y-59931264D01*
X125637590Y-59911396D01*
X125355326Y-59794479D01*
X125101295Y-59624741D01*
X124885259Y-59408705D01*
X124715521Y-59154674D01*
X124598604Y-58872410D01*
X124539000Y-58572760D01*
X124539000Y-58267240D01*
X124550047Y-58211704D01*
X124578736Y-58067473D01*
X124598604Y-57967590D01*
X124715521Y-57685326D01*
X124885259Y-57431295D01*
X125101295Y-57215259D01*
X125355326Y-57045521D01*
X125637590Y-56928604D01*
X125737473Y-56908736D01*
X125937238Y-56869000D01*
X126242762Y-56869000D01*
X126442527Y-56908736D01*
X126442527Y-56908736D01*
G37*
G36*
X107392527Y-56908736D02*
X107492410Y-56928604D01*
X107774674Y-57045521D01*
X108028705Y-57215259D01*
X108244741Y-57431295D01*
X108414479Y-57685326D01*
X108531396Y-57967590D01*
X108551264Y-58067473D01*
X108579954Y-58211704D01*
X108591000Y-58267240D01*
X108591000Y-58572760D01*
X108531396Y-58872410D01*
X108414479Y-59154674D01*
X108244741Y-59408705D01*
X108028705Y-59624741D01*
X107774674Y-59794479D01*
X107492410Y-59911396D01*
X107392527Y-59931264D01*
X107192762Y-59971000D01*
X106887238Y-59971000D01*
X106687473Y-59931264D01*
X106587590Y-59911396D01*
X106305326Y-59794479D01*
X106051295Y-59624741D01*
X105835259Y-59408705D01*
X105665521Y-59154674D01*
X105548604Y-58872410D01*
X105489000Y-58572760D01*
X105489000Y-58267240D01*
X105500047Y-58211704D01*
X105528736Y-58067473D01*
X105548604Y-57967590D01*
X105665521Y-57685326D01*
X105835259Y-57431295D01*
X106051295Y-57215259D01*
X106305326Y-57045521D01*
X106587590Y-56928604D01*
X106687473Y-56908736D01*
X106887238Y-56869000D01*
X107192762Y-56869000D01*
X107392527Y-56908736D01*
X107392527Y-56908736D01*
G37*
G36*
X79728228Y-58211703D02*
X79883100Y-58275853D01*
X80022481Y-58368985D01*
X80141015Y-58487519D01*
X80234147Y-58626900D01*
X80298297Y-58781772D01*
X80331000Y-58946184D01*
X80331000Y-59113816D01*
X80298297Y-59278228D01*
X80234147Y-59433100D01*
X80141015Y-59572481D01*
X80022481Y-59691015D01*
X79883100Y-59784147D01*
X79728228Y-59848297D01*
X79563816Y-59881000D01*
X79396184Y-59881000D01*
X79231772Y-59848297D01*
X79076900Y-59784147D01*
X78937519Y-59691015D01*
X78818985Y-59572481D01*
X78725853Y-59433100D01*
X78661703Y-59278228D01*
X78629000Y-59113816D01*
X78629000Y-58946184D01*
X78661703Y-58781772D01*
X78725853Y-58626900D01*
X78818985Y-58487519D01*
X78937519Y-58368985D01*
X79076900Y-58275853D01*
X79231772Y-58211703D01*
X79396184Y-58179000D01*
X79563816Y-58179000D01*
X79728228Y-58211703D01*
X79728228Y-58211703D01*
G37*
G36*
X77188228Y-58211703D02*
X77343100Y-58275853D01*
X77482481Y-58368985D01*
X77601015Y-58487519D01*
X77694147Y-58626900D01*
X77758297Y-58781772D01*
X77791000Y-58946184D01*
X77791000Y-59113816D01*
X77758297Y-59278228D01*
X77694147Y-59433100D01*
X77601015Y-59572481D01*
X77482481Y-59691015D01*
X77343100Y-59784147D01*
X77188228Y-59848297D01*
X77023816Y-59881000D01*
X76856184Y-59881000D01*
X76691772Y-59848297D01*
X76536900Y-59784147D01*
X76397519Y-59691015D01*
X76278985Y-59572481D01*
X76185853Y-59433100D01*
X76121703Y-59278228D01*
X76089000Y-59113816D01*
X76089000Y-58946184D01*
X76121703Y-58781772D01*
X76185853Y-58626900D01*
X76278985Y-58487519D01*
X76397519Y-58368985D01*
X76536900Y-58275853D01*
X76691772Y-58211703D01*
X76856184Y-58179000D01*
X77023816Y-58179000D01*
X77188228Y-58211703D01*
X77188228Y-58211703D01*
G37*
G36*
X64488228Y-58211703D02*
X64643100Y-58275853D01*
X64782481Y-58368985D01*
X64901015Y-58487519D01*
X64994147Y-58626900D01*
X65058297Y-58781772D01*
X65091000Y-58946184D01*
X65091000Y-59113816D01*
X65058297Y-59278228D01*
X64994147Y-59433100D01*
X64901015Y-59572481D01*
X64782481Y-59691015D01*
X64643100Y-59784147D01*
X64488228Y-59848297D01*
X64323816Y-59881000D01*
X64156184Y-59881000D01*
X63991772Y-59848297D01*
X63836900Y-59784147D01*
X63697519Y-59691015D01*
X63578985Y-59572481D01*
X63485853Y-59433100D01*
X63421703Y-59278228D01*
X63389000Y-59113816D01*
X63389000Y-58946184D01*
X63421703Y-58781772D01*
X63485853Y-58626900D01*
X63578985Y-58487519D01*
X63697519Y-58368985D01*
X63836900Y-58275853D01*
X63991772Y-58211703D01*
X64156184Y-58179000D01*
X64323816Y-58179000D01*
X64488228Y-58211703D01*
X64488228Y-58211703D01*
G37*
G36*
X130201000Y-59471000D02*
X128099000Y-59471000D01*
X128099000Y-57369000D01*
X130201000Y-57369000D01*
X130201000Y-59471000D01*
X130201000Y-59471000D01*
G37*
G36*
X111151000Y-59471000D02*
X109049000Y-59471000D01*
X109049000Y-57369000D01*
X111151000Y-57369000D01*
X111151000Y-59471000D01*
X111151000Y-59471000D01*
G37*
G36*
X92163228Y-56556703D02*
X92318100Y-56620853D01*
X92457481Y-56713985D01*
X92576015Y-56832519D01*
X92669147Y-56971900D01*
X92733297Y-57126772D01*
X92766000Y-57291184D01*
X92766000Y-57458816D01*
X92733297Y-57623228D01*
X92669147Y-57778100D01*
X92576015Y-57917481D01*
X92457481Y-58036015D01*
X92318100Y-58129147D01*
X92163228Y-58193297D01*
X91998816Y-58226000D01*
X91831184Y-58226000D01*
X91666772Y-58193297D01*
X91511900Y-58129147D01*
X91372519Y-58036015D01*
X91253985Y-57917481D01*
X91160853Y-57778100D01*
X91096703Y-57623228D01*
X91064000Y-57458816D01*
X91064000Y-57291184D01*
X91096703Y-57126772D01*
X91160853Y-56971900D01*
X91253985Y-56832519D01*
X91372519Y-56713985D01*
X91511900Y-56620853D01*
X91666772Y-56556703D01*
X91831184Y-56524000D01*
X91998816Y-56524000D01*
X92163228Y-56556703D01*
X92163228Y-56556703D01*
G37*
G36*
X84966000Y-58226000D02*
X83264000Y-58226000D01*
X83264000Y-56524000D01*
X84966000Y-56524000D01*
X84966000Y-58226000D01*
X84966000Y-58226000D01*
G37*
G36*
X87466000Y-58026000D02*
X85764000Y-58026000D01*
X85764000Y-56724000D01*
X87466000Y-56724000D01*
X87466000Y-58026000D01*
X87466000Y-58026000D01*
G37*
G36*
X90266000Y-58026000D02*
X88564000Y-58026000D01*
X88564000Y-56724000D01*
X90266000Y-56724000D01*
X90266000Y-58026000D01*
X90266000Y-58026000D01*
G37*
G36*
X65091000Y-57341000D02*
X63389000Y-57341000D01*
X63389000Y-55639000D01*
X65091000Y-55639000D01*
X65091000Y-57341000D01*
X65091000Y-57341000D01*
G37*
G36*
X79728228Y-55671703D02*
X79883100Y-55735853D01*
X80022481Y-55828985D01*
X80141015Y-55947519D01*
X80234147Y-56086900D01*
X80298297Y-56241772D01*
X80331000Y-56406184D01*
X80331000Y-56573816D01*
X80298297Y-56738228D01*
X80234147Y-56893100D01*
X80141015Y-57032481D01*
X80022481Y-57151015D01*
X79883100Y-57244147D01*
X79728228Y-57308297D01*
X79563816Y-57341000D01*
X79396184Y-57341000D01*
X79231772Y-57308297D01*
X79076900Y-57244147D01*
X78937519Y-57151015D01*
X78818985Y-57032481D01*
X78725853Y-56893100D01*
X78661703Y-56738228D01*
X78629000Y-56573816D01*
X78629000Y-56406184D01*
X78661703Y-56241772D01*
X78725853Y-56086900D01*
X78818985Y-55947519D01*
X78937519Y-55828985D01*
X79076900Y-55735853D01*
X79231772Y-55671703D01*
X79396184Y-55639000D01*
X79563816Y-55639000D01*
X79728228Y-55671703D01*
X79728228Y-55671703D01*
G37*
M02*
