G04 #@! TF.GenerationSoftware,KiCad,Pcbnew,(5.0.2)-1*
G04 #@! TF.CreationDate,2019-03-22T22:15:34+09:00*
G04 #@! TF.ProjectId,mitcard,6d697463-6172-4642-9e6b-696361645f70,rev?*
G04 #@! TF.SameCoordinates,Original*
G04 #@! TF.FileFunction,Legend,Top*
G04 #@! TF.FilePolarity,Positive*
%FSLAX46Y46*%
G04 Gerber Fmt 4.6, Leading zero omitted, Abs format (unit mm)*
G04 Created by KiCad (PCBNEW (5.0.2)-1) date 2019/03/22 22:15:34*
%MOMM*%
%LPD*%
G01*
G04 APERTURE LIST*
%ADD10C,0.200000*%
%ADD11C,0.150000*%
%ADD12C,0.120000*%
G04 APERTURE END LIST*
D10*
X134000000Y-96500000D02*
X116500000Y-96500000D01*
X134000000Y-96500000D02*
X134000000Y-103000000D01*
X116500000Y-103000000D02*
X134000000Y-103000000D01*
X116500000Y-96500000D02*
X116500000Y-103000000D01*
X114500000Y-103000000D02*
X114500000Y-96500000D01*
X97000000Y-103000000D02*
X114500000Y-103000000D01*
X97000000Y-96500000D02*
X97000000Y-103000000D01*
X114500000Y-96500000D02*
X97000000Y-96500000D01*
D11*
G04 #@! TO.C,SW1*
X108230000Y-71000000D02*
X108230000Y-71700000D01*
X108230000Y-70950000D02*
G75*
G02X109450000Y-69530000I1320000J100000D01*
G01*
X108520000Y-64900000D02*
G75*
G02X106150000Y-67070000I-2270000J100000D01*
G01*
X113225000Y-64900000D02*
X113250000Y-69500000D01*
X103650000Y-67100000D02*
X103650000Y-71700000D01*
X109450000Y-69525000D02*
X113225000Y-69525000D01*
X108525000Y-64875000D02*
X113225000Y-64875000D01*
X103675000Y-67075000D02*
X106225000Y-67075000D01*
X103675000Y-71725000D02*
X108225000Y-71725000D01*
X108435000Y-62580000D02*
G75*
G03X106175000Y-60700000I-2070000J-190000D01*
G01*
X112039000Y-58580000D02*
G75*
G03X109775000Y-56696000I-2074000J-190000D01*
G01*
X101150000Y-60650000D02*
X106200000Y-60696000D01*
X101150000Y-60604000D02*
X101150000Y-56696000D01*
X101150000Y-56696000D02*
X109775000Y-56696000D01*
X112050000Y-58650000D02*
X112050000Y-62595000D01*
X112050000Y-62604000D02*
X108440000Y-62604000D01*
G04 #@! TO.C,SW4*
X131100000Y-81654000D02*
X127490000Y-81654000D01*
X131100000Y-77700000D02*
X131100000Y-81645000D01*
X120200000Y-75746000D02*
X128825000Y-75746000D01*
X120200000Y-79654000D02*
X120200000Y-75746000D01*
X120200000Y-79700000D02*
X125250000Y-79746000D01*
X131089000Y-77630000D02*
G75*
G03X128825000Y-75746000I-2074000J-190000D01*
G01*
X127485000Y-81630000D02*
G75*
G03X125225000Y-79750000I-2070000J-190000D01*
G01*
X122725000Y-90775000D02*
X127275000Y-90775000D01*
X122725000Y-86125000D02*
X125275000Y-86125000D01*
X127575000Y-83925000D02*
X132275000Y-83925000D01*
X128500000Y-88575000D02*
X132275000Y-88575000D01*
X122700000Y-86150000D02*
X122700000Y-90750000D01*
X132275000Y-83950000D02*
X132300000Y-88550000D01*
X127570000Y-83950000D02*
G75*
G02X125200000Y-86120000I-2270000J100000D01*
G01*
X127280000Y-90000000D02*
G75*
G02X128500000Y-88580000I1320000J100000D01*
G01*
X127280000Y-90050000D02*
X127280000Y-90750000D01*
G04 #@! TO.C,SW2*
X112050000Y-81654000D02*
X108440000Y-81654000D01*
X112050000Y-77700000D02*
X112050000Y-81645000D01*
X101150000Y-75746000D02*
X109775000Y-75746000D01*
X101150000Y-79654000D02*
X101150000Y-75746000D01*
X101150000Y-79700000D02*
X106200000Y-79746000D01*
X112039000Y-77630000D02*
G75*
G03X109775000Y-75746000I-2074000J-190000D01*
G01*
X108435000Y-81630000D02*
G75*
G03X106175000Y-79750000I-2070000J-190000D01*
G01*
X103675000Y-90775000D02*
X108225000Y-90775000D01*
X103675000Y-86125000D02*
X106225000Y-86125000D01*
X108525000Y-83925000D02*
X113225000Y-83925000D01*
X109450000Y-88575000D02*
X113225000Y-88575000D01*
X103650000Y-86150000D02*
X103650000Y-90750000D01*
X113225000Y-83950000D02*
X113250000Y-88550000D01*
X108520000Y-83950000D02*
G75*
G02X106150000Y-86120000I-2270000J100000D01*
G01*
X108230000Y-90000000D02*
G75*
G02X109450000Y-88580000I1320000J100000D01*
G01*
X108230000Y-90050000D02*
X108230000Y-90750000D01*
G04 #@! TO.C,U1*
X65690000Y-55220000D02*
X65690000Y-53950000D01*
X65690000Y-53950000D02*
X73310000Y-53950000D01*
X73310000Y-53950000D02*
X73310000Y-55220000D01*
X64420000Y-66650000D02*
X64420000Y-70460000D01*
X64420000Y-70460000D02*
X66960000Y-70460000D01*
X66960000Y-70460000D02*
X66960000Y-66650000D01*
X66960000Y-66650000D02*
X64420000Y-66650000D01*
X65690000Y-60300000D02*
X73310000Y-60300000D01*
X73310000Y-60300000D02*
X73310000Y-55220000D01*
X65690000Y-60300000D02*
X65690000Y-55220000D01*
X64420000Y-61570000D02*
X64420000Y-64110000D01*
X64420000Y-64110000D02*
X66960000Y-64110000D01*
X66960000Y-64110000D02*
X66960000Y-61570000D01*
X66960000Y-61570000D02*
X64420000Y-61570000D01*
X72040000Y-88240000D02*
X66960000Y-88240000D01*
X66960000Y-88240000D02*
X66960000Y-85700000D01*
X66960000Y-85700000D02*
X72040000Y-85700000D01*
X72040000Y-85700000D02*
X72040000Y-88240000D01*
X64420000Y-81890000D02*
X74580000Y-81890000D01*
X74580000Y-73000000D02*
X64420000Y-73000000D01*
X74580000Y-81890000D02*
X74580000Y-73000000D01*
X64420000Y-81890000D02*
X64420000Y-73000000D01*
X78390000Y-55220000D02*
X78390000Y-90780000D01*
X78390000Y-90780000D02*
X60610000Y-90780000D01*
X60610000Y-90780000D02*
X60610000Y-55220000D01*
X60610000Y-55220000D02*
X78390000Y-55220000D01*
G04 #@! TO.C,SW3*
X127280000Y-71000000D02*
X127280000Y-71700000D01*
X127280000Y-70950000D02*
G75*
G02X128500000Y-69530000I1320000J100000D01*
G01*
X127570000Y-64900000D02*
G75*
G02X125200000Y-67070000I-2270000J100000D01*
G01*
X132275000Y-64900000D02*
X132300000Y-69500000D01*
X122700000Y-67100000D02*
X122700000Y-71700000D01*
X128500000Y-69525000D02*
X132275000Y-69525000D01*
X127575000Y-64875000D02*
X132275000Y-64875000D01*
X122725000Y-67075000D02*
X125275000Y-67075000D01*
X122725000Y-71725000D02*
X127275000Y-71725000D01*
X127485000Y-62580000D02*
G75*
G03X125225000Y-60700000I-2070000J-190000D01*
G01*
X131089000Y-58580000D02*
G75*
G03X128825000Y-56696000I-2074000J-190000D01*
G01*
X120200000Y-60650000D02*
X125250000Y-60696000D01*
X120200000Y-60604000D02*
X120200000Y-56696000D01*
X120200000Y-56696000D02*
X128825000Y-56696000D01*
X131100000Y-58650000D02*
X131100000Y-62595000D01*
X131100000Y-62604000D02*
X127490000Y-62604000D01*
G04 #@! TO.C,D1*
X85147000Y-57883000D02*
X85147000Y-59407000D01*
X85020000Y-57883000D02*
X85020000Y-59407000D01*
X84893000Y-59407000D02*
X84893000Y-57883000D01*
X84512000Y-57883000D02*
X84512000Y-59407000D01*
X84639000Y-59407000D02*
X84639000Y-57883000D01*
X84766000Y-57883000D02*
X84766000Y-59407000D01*
X89465000Y-57883000D02*
X88957000Y-57883000D01*
X89465000Y-59407000D02*
X89465000Y-57883000D01*
X84385000Y-59407000D02*
X89465000Y-59407000D01*
X84385000Y-57883000D02*
X84385000Y-59407000D01*
X89465000Y-57883000D02*
X84385000Y-57883000D01*
G04 #@! TO.C,D2*
X85147000Y-61693000D02*
X85147000Y-63217000D01*
X85020000Y-61693000D02*
X85020000Y-63217000D01*
X84893000Y-63217000D02*
X84893000Y-61693000D01*
X84512000Y-61693000D02*
X84512000Y-63217000D01*
X84639000Y-63217000D02*
X84639000Y-61693000D01*
X84766000Y-61693000D02*
X84766000Y-63217000D01*
X89465000Y-61693000D02*
X88957000Y-61693000D01*
X89465000Y-63217000D02*
X89465000Y-61693000D01*
X84385000Y-63217000D02*
X89465000Y-63217000D01*
X84385000Y-61693000D02*
X84385000Y-63217000D01*
X89465000Y-61693000D02*
X84385000Y-61693000D01*
G04 #@! TO.C,D3*
X89465000Y-54073000D02*
X84385000Y-54073000D01*
X84385000Y-54073000D02*
X84385000Y-55597000D01*
X84385000Y-55597000D02*
X89465000Y-55597000D01*
X89465000Y-55597000D02*
X89465000Y-54073000D01*
X89465000Y-54073000D02*
X88957000Y-54073000D01*
X84766000Y-54073000D02*
X84766000Y-55597000D01*
X84639000Y-55597000D02*
X84639000Y-54073000D01*
X84512000Y-54073000D02*
X84512000Y-55597000D01*
X84893000Y-55597000D02*
X84893000Y-54073000D01*
X85020000Y-54073000D02*
X85020000Y-55597000D01*
X85147000Y-54073000D02*
X85147000Y-55597000D01*
G04 #@! TO.C,D4*
X89465000Y-65503000D02*
X84385000Y-65503000D01*
X84385000Y-65503000D02*
X84385000Y-67027000D01*
X84385000Y-67027000D02*
X89465000Y-67027000D01*
X89465000Y-67027000D02*
X89465000Y-65503000D01*
X89465000Y-65503000D02*
X88957000Y-65503000D01*
X84766000Y-65503000D02*
X84766000Y-67027000D01*
X84639000Y-67027000D02*
X84639000Y-65503000D01*
X84512000Y-65503000D02*
X84512000Y-67027000D01*
X84893000Y-67027000D02*
X84893000Y-65503000D01*
X85020000Y-65503000D02*
X85020000Y-67027000D01*
X85147000Y-65503000D02*
X85147000Y-67027000D01*
G04 #@! TO.C,J1*
X78500000Y-105000000D02*
X72500000Y-105000000D01*
X72500000Y-105000000D02*
X72500000Y-93000000D01*
X72500000Y-93000000D02*
X78500000Y-93000000D01*
X78500000Y-93000000D02*
X78500000Y-105000000D01*
G04 #@! TO.C,J2*
X66500000Y-93000000D02*
X66500000Y-105000000D01*
X60500000Y-93000000D02*
X66500000Y-93000000D01*
X60500000Y-105000000D02*
X60500000Y-93000000D01*
X66500000Y-105000000D02*
X60500000Y-105000000D01*
G04 #@! TO.C,R1*
X82385000Y-95221000D02*
X82385000Y-94713000D01*
X82385000Y-101317000D02*
X82385000Y-100809000D01*
X83147000Y-100809000D02*
X81623000Y-100809000D01*
X83401000Y-100555000D02*
X83147000Y-100809000D01*
X83401000Y-100301000D02*
X83401000Y-100555000D01*
X83147000Y-100047000D02*
X83401000Y-100301000D01*
X83147000Y-95983000D02*
X83147000Y-100047000D01*
X83401000Y-95729000D02*
X83147000Y-95983000D01*
X83401000Y-95475000D02*
X83401000Y-95729000D01*
X83147000Y-95221000D02*
X83401000Y-95475000D01*
X81623000Y-95221000D02*
X83147000Y-95221000D01*
X81369000Y-95475000D02*
X81623000Y-95221000D01*
X81369000Y-95729000D02*
X81369000Y-95475000D01*
X81623000Y-95983000D02*
X81369000Y-95729000D01*
X81623000Y-100047000D02*
X81623000Y-95983000D01*
X81369000Y-100301000D02*
X81623000Y-100047000D01*
X81369000Y-100555000D02*
X81369000Y-100301000D01*
X81623000Y-100809000D02*
X81369000Y-100555000D01*
G04 #@! TO.C,R2*
X68738000Y-100794000D02*
X68484000Y-100540000D01*
X68484000Y-100540000D02*
X68484000Y-100286000D01*
X68484000Y-100286000D02*
X68738000Y-100032000D01*
X68738000Y-100032000D02*
X68738000Y-95968000D01*
X68738000Y-95968000D02*
X68484000Y-95714000D01*
X68484000Y-95714000D02*
X68484000Y-95460000D01*
X68484000Y-95460000D02*
X68738000Y-95206000D01*
X68738000Y-95206000D02*
X70262000Y-95206000D01*
X70262000Y-95206000D02*
X70516000Y-95460000D01*
X70516000Y-95460000D02*
X70516000Y-95714000D01*
X70516000Y-95714000D02*
X70262000Y-95968000D01*
X70262000Y-95968000D02*
X70262000Y-100032000D01*
X70262000Y-100032000D02*
X70516000Y-100286000D01*
X70516000Y-100286000D02*
X70516000Y-100540000D01*
X70516000Y-100540000D02*
X70262000Y-100794000D01*
X70262000Y-100794000D02*
X68738000Y-100794000D01*
X69500000Y-101302000D02*
X69500000Y-100794000D01*
X69500000Y-95206000D02*
X69500000Y-94698000D01*
D12*
G04 #@! TO.C,J3*
X58140000Y-93570000D02*
X55480000Y-93570000D01*
X58140000Y-93570000D02*
X58140000Y-75730000D01*
X58140000Y-75730000D02*
X55480000Y-75730000D01*
X55480000Y-93570000D02*
X55480000Y-75730000D01*
X55480000Y-96170000D02*
X55480000Y-94840000D01*
X56810000Y-96170000D02*
X55480000Y-96170000D01*
G04 #@! TO.C,U1*
D11*
X79112380Y-73761904D02*
X79921904Y-73761904D01*
X80017142Y-73714285D01*
X80064761Y-73666666D01*
X80112380Y-73571428D01*
X80112380Y-73380952D01*
X80064761Y-73285714D01*
X80017142Y-73238095D01*
X79921904Y-73190476D01*
X79112380Y-73190476D01*
X80112380Y-72190476D02*
X80112380Y-72761904D01*
X80112380Y-72476190D02*
X79112380Y-72476190D01*
X79255238Y-72571428D01*
X79350476Y-72666666D01*
X79398095Y-72761904D01*
X70563809Y-62292380D02*
X71135238Y-62292380D01*
X70849523Y-63292380D02*
X70849523Y-62292380D01*
X71373333Y-62292380D02*
X71992380Y-62292380D01*
X71659047Y-62673333D01*
X71801904Y-62673333D01*
X71897142Y-62720952D01*
X71944761Y-62768571D01*
X71992380Y-62863809D01*
X71992380Y-63101904D01*
X71944761Y-63197142D01*
X71897142Y-63244761D01*
X71801904Y-63292380D01*
X71516190Y-63292380D01*
X71420952Y-63244761D01*
X71373333Y-63197142D01*
X72420952Y-63197142D02*
X72468571Y-63244761D01*
X72420952Y-63292380D01*
X72373333Y-63244761D01*
X72420952Y-63197142D01*
X72420952Y-63292380D01*
X72849523Y-62387619D02*
X72897142Y-62340000D01*
X72992380Y-62292380D01*
X73230476Y-62292380D01*
X73325714Y-62340000D01*
X73373333Y-62387619D01*
X73420952Y-62482857D01*
X73420952Y-62578095D01*
X73373333Y-62720952D01*
X72801904Y-63292380D01*
X73420952Y-63292380D01*
X70563809Y-66102380D02*
X71135238Y-66102380D01*
X70849523Y-67102380D02*
X70849523Y-66102380D01*
X71373333Y-66102380D02*
X71992380Y-66102380D01*
X71659047Y-66483333D01*
X71801904Y-66483333D01*
X71897142Y-66530952D01*
X71944761Y-66578571D01*
X71992380Y-66673809D01*
X71992380Y-66911904D01*
X71944761Y-67007142D01*
X71897142Y-67054761D01*
X71801904Y-67102380D01*
X71516190Y-67102380D01*
X71420952Y-67054761D01*
X71373333Y-67007142D01*
X72420952Y-67007142D02*
X72468571Y-67054761D01*
X72420952Y-67102380D01*
X72373333Y-67054761D01*
X72420952Y-67007142D01*
X72420952Y-67102380D01*
X73420952Y-67102380D02*
X72849523Y-67102380D01*
X73135238Y-67102380D02*
X73135238Y-66102380D01*
X73040000Y-66245238D01*
X72944761Y-66340476D01*
X72849523Y-66388095D01*
G04 #@! TO.C,D1*
X86359923Y-57606904D02*
X86359923Y-56806904D01*
X86550400Y-56806904D01*
X86664685Y-56845000D01*
X86740876Y-56921190D01*
X86778971Y-56997380D01*
X86817066Y-57149761D01*
X86817066Y-57264047D01*
X86778971Y-57416428D01*
X86740876Y-57492619D01*
X86664685Y-57568809D01*
X86550400Y-57606904D01*
X86359923Y-57606904D01*
X87578971Y-57606904D02*
X87121828Y-57606904D01*
X87350400Y-57606904D02*
X87350400Y-56806904D01*
X87274209Y-56921190D01*
X87198019Y-56997380D01*
X87121828Y-57035476D01*
G04 #@! TO.C,D2*
X86359923Y-61416904D02*
X86359923Y-60616904D01*
X86550400Y-60616904D01*
X86664685Y-60655000D01*
X86740876Y-60731190D01*
X86778971Y-60807380D01*
X86817066Y-60959761D01*
X86817066Y-61074047D01*
X86778971Y-61226428D01*
X86740876Y-61302619D01*
X86664685Y-61378809D01*
X86550400Y-61416904D01*
X86359923Y-61416904D01*
X87121828Y-60693095D02*
X87159923Y-60655000D01*
X87236114Y-60616904D01*
X87426590Y-60616904D01*
X87502780Y-60655000D01*
X87540876Y-60693095D01*
X87578971Y-60769285D01*
X87578971Y-60845476D01*
X87540876Y-60959761D01*
X87083733Y-61416904D01*
X87578971Y-61416904D01*
G04 #@! TO.C,D3*
X86359923Y-53796904D02*
X86359923Y-52996904D01*
X86550400Y-52996904D01*
X86664685Y-53035000D01*
X86740876Y-53111190D01*
X86778971Y-53187380D01*
X86817066Y-53339761D01*
X86817066Y-53454047D01*
X86778971Y-53606428D01*
X86740876Y-53682619D01*
X86664685Y-53758809D01*
X86550400Y-53796904D01*
X86359923Y-53796904D01*
X87083733Y-52996904D02*
X87578971Y-52996904D01*
X87312304Y-53301666D01*
X87426590Y-53301666D01*
X87502780Y-53339761D01*
X87540876Y-53377857D01*
X87578971Y-53454047D01*
X87578971Y-53644523D01*
X87540876Y-53720714D01*
X87502780Y-53758809D01*
X87426590Y-53796904D01*
X87198019Y-53796904D01*
X87121828Y-53758809D01*
X87083733Y-53720714D01*
G04 #@! TO.C,D4*
X86359923Y-65226904D02*
X86359923Y-64426904D01*
X86550400Y-64426904D01*
X86664685Y-64465000D01*
X86740876Y-64541190D01*
X86778971Y-64617380D01*
X86817066Y-64769761D01*
X86817066Y-64884047D01*
X86778971Y-65036428D01*
X86740876Y-65112619D01*
X86664685Y-65188809D01*
X86550400Y-65226904D01*
X86359923Y-65226904D01*
X87502780Y-64693571D02*
X87502780Y-65226904D01*
X87312304Y-64388809D02*
X87121828Y-64960238D01*
X87617066Y-64960238D01*
G04 #@! TO.C,J1*
X74488095Y-98002380D02*
X75059523Y-98002380D01*
X74773809Y-99002380D02*
X74773809Y-98002380D01*
X75964285Y-99002380D02*
X75630952Y-98526190D01*
X75392857Y-99002380D02*
X75392857Y-98002380D01*
X75773809Y-98002380D01*
X75869047Y-98050000D01*
X75916666Y-98097619D01*
X75964285Y-98192857D01*
X75964285Y-98335714D01*
X75916666Y-98430952D01*
X75869047Y-98478571D01*
X75773809Y-98526190D01*
X75392857Y-98526190D01*
X76964285Y-99002380D02*
X76630952Y-98526190D01*
X76392857Y-99002380D02*
X76392857Y-98002380D01*
X76773809Y-98002380D01*
X76869047Y-98050000D01*
X76916666Y-98097619D01*
X76964285Y-98192857D01*
X76964285Y-98335714D01*
X76916666Y-98430952D01*
X76869047Y-98478571D01*
X76773809Y-98526190D01*
X76392857Y-98526190D01*
X77345238Y-98954761D02*
X77488095Y-99002380D01*
X77726190Y-99002380D01*
X77821428Y-98954761D01*
X77869047Y-98907142D01*
X77916666Y-98811904D01*
X77916666Y-98716666D01*
X77869047Y-98621428D01*
X77821428Y-98573809D01*
X77726190Y-98526190D01*
X77535714Y-98478571D01*
X77440476Y-98430952D01*
X77392857Y-98383333D01*
X77345238Y-98288095D01*
X77345238Y-98192857D01*
X77392857Y-98097619D01*
X77440476Y-98050000D01*
X77535714Y-98002380D01*
X77773809Y-98002380D01*
X77916666Y-98050000D01*
G04 #@! TO.C,J2*
X62488095Y-98002380D02*
X63059523Y-98002380D01*
X62773809Y-99002380D02*
X62773809Y-98002380D01*
X63964285Y-99002380D02*
X63630952Y-98526190D01*
X63392857Y-99002380D02*
X63392857Y-98002380D01*
X63773809Y-98002380D01*
X63869047Y-98050000D01*
X63916666Y-98097619D01*
X63964285Y-98192857D01*
X63964285Y-98335714D01*
X63916666Y-98430952D01*
X63869047Y-98478571D01*
X63773809Y-98526190D01*
X63392857Y-98526190D01*
X64964285Y-99002380D02*
X64630952Y-98526190D01*
X64392857Y-99002380D02*
X64392857Y-98002380D01*
X64773809Y-98002380D01*
X64869047Y-98050000D01*
X64916666Y-98097619D01*
X64964285Y-98192857D01*
X64964285Y-98335714D01*
X64916666Y-98430952D01*
X64869047Y-98478571D01*
X64773809Y-98526190D01*
X64392857Y-98526190D01*
X65345238Y-98954761D02*
X65488095Y-99002380D01*
X65726190Y-99002380D01*
X65821428Y-98954761D01*
X65869047Y-98907142D01*
X65916666Y-98811904D01*
X65916666Y-98716666D01*
X65869047Y-98621428D01*
X65821428Y-98573809D01*
X65726190Y-98526190D01*
X65535714Y-98478571D01*
X65440476Y-98430952D01*
X65392857Y-98383333D01*
X65345238Y-98288095D01*
X65345238Y-98192857D01*
X65392857Y-98097619D01*
X65440476Y-98050000D01*
X65535714Y-98002380D01*
X65773809Y-98002380D01*
X65916666Y-98050000D01*
G04 #@! TO.C,R1*
X84246904Y-98173733D02*
X83865952Y-98440400D01*
X84246904Y-98630876D02*
X83446904Y-98630876D01*
X83446904Y-98326114D01*
X83485000Y-98249923D01*
X83523095Y-98211828D01*
X83599285Y-98173733D01*
X83713571Y-98173733D01*
X83789761Y-98211828D01*
X83827857Y-98249923D01*
X83865952Y-98326114D01*
X83865952Y-98630876D01*
X84246904Y-97411828D02*
X84246904Y-97868971D01*
X84246904Y-97640400D02*
X83446904Y-97640400D01*
X83561190Y-97716590D01*
X83637380Y-97792780D01*
X83675476Y-97868971D01*
G04 #@! TO.C,R2*
X71361904Y-98158733D02*
X70980952Y-98425400D01*
X71361904Y-98615876D02*
X70561904Y-98615876D01*
X70561904Y-98311114D01*
X70600000Y-98234923D01*
X70638095Y-98196828D01*
X70714285Y-98158733D01*
X70828571Y-98158733D01*
X70904761Y-98196828D01*
X70942857Y-98234923D01*
X70980952Y-98311114D01*
X70980952Y-98615876D01*
X70638095Y-97853971D02*
X70600000Y-97815876D01*
X70561904Y-97739685D01*
X70561904Y-97549209D01*
X70600000Y-97473019D01*
X70638095Y-97434923D01*
X70714285Y-97396828D01*
X70790476Y-97396828D01*
X70904761Y-97434923D01*
X71361904Y-97892066D01*
X71361904Y-97396828D01*
G04 #@! TO.C,J3*
X56476666Y-97062380D02*
X56476666Y-97776666D01*
X56429047Y-97919523D01*
X56333809Y-98014761D01*
X56190952Y-98062380D01*
X56095714Y-98062380D01*
X56857619Y-97062380D02*
X57476666Y-97062380D01*
X57143333Y-97443333D01*
X57286190Y-97443333D01*
X57381428Y-97490952D01*
X57429047Y-97538571D01*
X57476666Y-97633809D01*
X57476666Y-97871904D01*
X57429047Y-97967142D01*
X57381428Y-98014761D01*
X57286190Y-98062380D01*
X57000476Y-98062380D01*
X56905238Y-98014761D01*
X56857619Y-97967142D01*
G04 #@! TD*
M02*
