G04 #@! TF.GenerationSoftware,KiCad,Pcbnew,(5.0.2)-1*
G04 #@! TF.CreationDate,2019-04-07T10:51:16+09:00*
G04 #@! TF.ProjectId,mitcard,6d697463-6172-4642-9e6b-696361645f70,rev?*
G04 #@! TF.SameCoordinates,Original*
G04 #@! TF.FileFunction,Copper,L2,Bot*
G04 #@! TF.FilePolarity,Positive*
%FSLAX46Y46*%
G04 Gerber Fmt 4.6, Leading zero omitted, Abs format (unit mm)*
G04 Created by KiCad (PCBNEW (5.0.2)-1) date 2019/04/07 10:51:16*
%MOMM*%
%LPD*%
G01*
G04 APERTURE LIST*
G04 #@! TA.AperFunction,SMDPad,CuDef*
%ADD10R,2.000000X2.000000*%
G04 #@! TD*
G04 #@! TA.AperFunction,SMDPad,CuDef*
%ADD11R,1.900000X2.000000*%
G04 #@! TD*
G04 #@! TA.AperFunction,ComponentPad*
%ADD12C,1.600000*%
G04 #@! TD*
G04 #@! TA.AperFunction,ComponentPad*
%ADD13R,1.600000X1.600000*%
G04 #@! TD*
G04 #@! TA.AperFunction,ComponentPad*
%ADD14C,1.900000*%
G04 #@! TD*
G04 #@! TA.AperFunction,Conductor*
%ADD15R,2.900000X0.500000*%
G04 #@! TD*
G04 #@! TA.AperFunction,SMDPad,CuDef*
%ADD16R,1.600000X1.200000*%
G04 #@! TD*
G04 #@! TA.AperFunction,ComponentPad*
%ADD17O,1.700000X2.500000*%
G04 #@! TD*
G04 #@! TA.AperFunction,Conductor*
%ADD18R,0.500000X2.900000*%
G04 #@! TD*
G04 #@! TA.AperFunction,SMDPad,CuDef*
%ADD19R,1.200000X1.500000*%
G04 #@! TD*
G04 #@! TA.AperFunction,ComponentPad*
%ADD20R,1.700000X1.700000*%
G04 #@! TD*
G04 #@! TA.AperFunction,ComponentPad*
%ADD21O,1.700000X1.700000*%
G04 #@! TD*
G04 #@! TA.AperFunction,ViaPad*
%ADD22C,0.800000*%
G04 #@! TD*
G04 #@! TA.AperFunction,Conductor*
%ADD23C,0.250000*%
G04 #@! TD*
G04 #@! TA.AperFunction,Conductor*
%ADD24C,0.750000*%
G04 #@! TD*
G04 #@! TA.AperFunction,Conductor*
%ADD25C,0.254000*%
G04 #@! TD*
G04 APERTURE END LIST*
D10*
G04 #@! TO.P,SW4,2*
G04 #@! TO.N,Net-(D4-Pad2)*
X129150000Y-77470000D03*
G04 #@! TO.P,SW4,1*
G04 #@! TO.N,col1*
X116650000Y-80010000D03*
D11*
G04 #@! TO.P,SW4,2*
G04 #@! TO.N,Net-(D4-Pad2)*
X126350000Y-88450000D03*
D10*
G04 #@! TO.P,SW4,1*
G04 #@! TO.N,col1*
X115450000Y-86250000D03*
G04 #@! TD*
D12*
G04 #@! TO.P,U1,17*
G04 #@! TO.N,GND*
X71860000Y-89510000D03*
G04 #@! TO.P,U1,18*
G04 #@! TO.N,Net-(U1-Pad18)*
X74400000Y-89510000D03*
G04 #@! TO.P,U1,19*
G04 #@! TO.N,Net-(U1-Pad19)*
X76940000Y-89510000D03*
G04 #@! TO.P,U1,20*
G04 #@! TO.N,SCK*
X79480000Y-89510000D03*
G04 #@! TO.P,U1,16*
G04 #@! TO.N,/3.3V*
X69320000Y-89510000D03*
G04 #@! TO.P,U1,15*
G04 #@! TO.N,Net-(U1-Pad15)*
X66780000Y-89510000D03*
G04 #@! TO.P,U1,14*
G04 #@! TO.N,MISO*
X64240000Y-89510000D03*
G04 #@! TO.P,U1,21*
G04 #@! TO.N,Net-(U1-Pad21)*
X79480000Y-86970000D03*
G04 #@! TO.P,U1,22*
G04 #@! TO.N,Net-(U1-Pad22)*
X79480000Y-84430000D03*
G04 #@! TO.P,U1,23*
G04 #@! TO.N,Net-(U1-Pad23)*
X79480000Y-81890000D03*
G04 #@! TO.P,U1,24*
G04 #@! TO.N,Net-(U1-Pad24)*
X79480000Y-79350000D03*
G04 #@! TO.P,U1,25*
G04 #@! TO.N,/SDA*
X79480000Y-76810000D03*
G04 #@! TO.P,U1,26*
G04 #@! TO.N,/SCL*
X79480000Y-74270000D03*
G04 #@! TO.P,U1,27*
G04 #@! TO.N,Net-(U1-Pad27)*
X79480000Y-71730000D03*
G04 #@! TO.P,U1,28*
G04 #@! TO.N,Net-(U1-Pad28)*
X79480000Y-69190000D03*
G04 #@! TO.P,U1,29*
G04 #@! TO.N,Net-(U1-Pad29)*
X79480000Y-66650000D03*
G04 #@! TO.P,U1,30*
G04 #@! TO.N,Net-(U1-Pad30)*
X79480000Y-64110000D03*
G04 #@! TO.P,U1,31*
G04 #@! TO.N,Net-(U1-Pad31)*
X79480000Y-61570000D03*
G04 #@! TO.P,U1,32*
G04 #@! TO.N,GND*
X79480000Y-59030000D03*
G04 #@! TO.P,U1,33*
G04 #@! TO.N,Net-(U1-Pad33)*
X79480000Y-56490000D03*
G04 #@! TO.P,U1,34*
G04 #@! TO.N,Net-(U1-Pad34)*
X76940000Y-59030000D03*
G04 #@! TO.P,U1,35*
G04 #@! TO.N,Net-(U1-Pad35)*
X76940000Y-64110000D03*
G04 #@! TO.P,U1,36*
G04 #@! TO.N,Net-(U1-Pad36)*
X76940000Y-66650000D03*
G04 #@! TO.P,U1,37*
G04 #@! TO.N,Net-(U1-Pad37)*
X76940000Y-69190000D03*
G04 #@! TO.P,U1,13*
G04 #@! TO.N,MOSI*
X64240000Y-86970000D03*
G04 #@! TO.P,U1,12*
G04 #@! TO.N,CS*
X64240000Y-84430000D03*
G04 #@! TO.P,U1,11*
G04 #@! TO.N,/INT*
X64240000Y-81890000D03*
G04 #@! TO.P,U1,10*
G04 #@! TO.N,TX*
X64240000Y-79350000D03*
G04 #@! TO.P,U1,9*
G04 #@! TO.N,RX*
X64240000Y-76810000D03*
G04 #@! TO.P,U1,8*
G04 #@! TO.N,Net-(U1-Pad8)*
X64240000Y-74270000D03*
G04 #@! TO.P,U1,7*
G04 #@! TO.N,col1*
X64240000Y-71730000D03*
G04 #@! TO.P,U1,6*
G04 #@! TO.N,col0*
X64240000Y-69190000D03*
G04 #@! TO.P,U1,5*
G04 #@! TO.N,row0*
X64240000Y-66650000D03*
G04 #@! TO.P,U1,4*
G04 #@! TO.N,row1*
X64240000Y-64110000D03*
G04 #@! TO.P,U1,3*
G04 #@! TO.N,Net-(U1-Pad3)*
X64240000Y-61570000D03*
G04 #@! TO.P,U1,2*
G04 #@! TO.N,Net-(U1-Pad2)*
X64240000Y-59030000D03*
D13*
G04 #@! TO.P,U1,1*
G04 #@! TO.N,GND*
X64240000Y-56490000D03*
D12*
G04 #@! TO.P,U1,38*
G04 #@! TO.N,Net-(U1-Pad38)*
X71860000Y-71730000D03*
G04 #@! TO.P,U1,39*
G04 #@! TO.N,Net-(U1-Pad39)*
X71860000Y-74270000D03*
G04 #@! TO.P,U1,40*
G04 #@! TO.N,N/C*
X71860000Y-76810000D03*
G04 #@! TO.P,U1,41*
X71860000Y-79350000D03*
G04 #@! TO.P,U1,42*
X71860000Y-81890000D03*
G04 #@! TO.P,U1,43*
X71860000Y-84430000D03*
G04 #@! TO.P,U1,44*
X71860000Y-86970000D03*
G04 #@! TO.P,U1,45*
X74400000Y-86970000D03*
G04 #@! TO.P,U1,46*
X74400000Y-84430000D03*
G04 #@! TO.P,U1,47*
X74400000Y-81890000D03*
G04 #@! TO.P,U1,48*
X74400000Y-79350000D03*
G04 #@! TO.P,U1,49*
X74400000Y-76810000D03*
G04 #@! TO.P,U1,50*
X74400000Y-74270000D03*
G04 #@! TO.P,U1,51*
X74400000Y-71730000D03*
D14*
G04 #@! TO.P,U1,52*
X71860000Y-66650000D03*
X71860000Y-62840000D03*
G04 #@! TD*
D15*
G04 #@! TO.N,Net-(D1-Pad2)*
G04 #@! TO.C,D1*
X90515000Y-57375000D03*
D16*
G04 #@! TD*
G04 #@! TO.P,D1,2*
G04 #@! TO.N,Net-(D1-Pad2)*
X89415000Y-57375000D03*
G04 #@! TO.P,D1,1*
G04 #@! TO.N,row0*
X86615000Y-57375000D03*
D15*
G04 #@! TD*
G04 #@! TO.N,row0*
G04 #@! TO.C,D1*
X85515000Y-57375000D03*
D12*
G04 #@! TO.P,D1,2*
G04 #@! TO.N,Net-(D1-Pad2)*
X91915000Y-57375000D03*
D13*
G04 #@! TO.P,D1,1*
G04 #@! TO.N,row0*
X84115000Y-57375000D03*
G04 #@! TD*
D15*
G04 #@! TO.N,Net-(D2-Pad2)*
G04 #@! TO.C,D2*
X90515000Y-64995000D03*
D16*
G04 #@! TD*
G04 #@! TO.P,D2,2*
G04 #@! TO.N,Net-(D2-Pad2)*
X89415000Y-64995000D03*
G04 #@! TO.P,D2,1*
G04 #@! TO.N,row1*
X86615000Y-64995000D03*
D15*
G04 #@! TD*
G04 #@! TO.N,row1*
G04 #@! TO.C,D2*
X85515000Y-64995000D03*
D12*
G04 #@! TO.P,D2,2*
G04 #@! TO.N,Net-(D2-Pad2)*
X91915000Y-64995000D03*
D13*
G04 #@! TO.P,D2,1*
G04 #@! TO.N,row1*
X84115000Y-64995000D03*
G04 #@! TD*
G04 #@! TO.P,D3,1*
G04 #@! TO.N,row0*
X84115000Y-59915000D03*
D12*
G04 #@! TO.P,D3,2*
G04 #@! TO.N,/col1row0*
X91915000Y-59915000D03*
D15*
G04 #@! TD*
G04 #@! TO.N,row0*
G04 #@! TO.C,D3*
X85515000Y-59915000D03*
D16*
G04 #@! TO.P,D3,1*
G04 #@! TO.N,row0*
X86615000Y-59915000D03*
G04 #@! TO.P,D3,2*
G04 #@! TO.N,/col1row0*
X89415000Y-59915000D03*
D15*
G04 #@! TD*
G04 #@! TO.N,/col1row0*
G04 #@! TO.C,D3*
X90515000Y-59915000D03*
D13*
G04 #@! TO.P,D4,1*
G04 #@! TO.N,row1*
X84115000Y-62455000D03*
D12*
G04 #@! TO.P,D4,2*
G04 #@! TO.N,Net-(D4-Pad2)*
X91915000Y-62455000D03*
D15*
G04 #@! TD*
G04 #@! TO.N,row1*
G04 #@! TO.C,D4*
X85515000Y-62455000D03*
D16*
G04 #@! TO.P,D4,1*
G04 #@! TO.N,row1*
X86615000Y-62455000D03*
G04 #@! TO.P,D4,2*
G04 #@! TO.N,Net-(D4-Pad2)*
X89415000Y-62455000D03*
D15*
G04 #@! TD*
G04 #@! TO.N,Net-(D4-Pad2)*
G04 #@! TO.C,D4*
X90515000Y-62455000D03*
D17*
G04 #@! TO.P,J1,B*
G04 #@! TO.N,/SDA*
X75760000Y-101700000D03*
G04 #@! TO.P,J1,C*
G04 #@! TO.N,/SCL*
X75760000Y-98700000D03*
G04 #@! TO.P,J1,D*
G04 #@! TO.N,/3.3V*
X75760000Y-94700000D03*
G04 #@! TO.P,J1,A*
G04 #@! TO.N,GND*
X79960000Y-93200000D03*
G04 #@! TD*
G04 #@! TO.P,J2,A*
G04 #@! TO.N,Net-(J2-PadA)*
X67960000Y-93200000D03*
G04 #@! TO.P,J2,D*
G04 #@! TO.N,Net-(J2-PadD)*
X63760000Y-94700000D03*
G04 #@! TO.P,J2,C*
G04 #@! TO.N,/INT*
X63760000Y-98700000D03*
G04 #@! TO.P,J2,B*
G04 #@! TO.N,Net-(J2-PadB)*
X63760000Y-101700000D03*
G04 #@! TD*
D18*
G04 #@! TO.N,/SCL*
G04 #@! TO.C,R1*
X84745000Y-100515000D03*
D19*
G04 #@! TD*
G04 #@! TO.P,R1,2*
G04 #@! TO.N,/SCL*
X84745000Y-99365000D03*
G04 #@! TO.P,R1,1*
G04 #@! TO.N,/3.3V*
X84745000Y-96665000D03*
D18*
G04 #@! TD*
G04 #@! TO.N,/3.3V*
G04 #@! TO.C,R1*
X84745000Y-95515000D03*
D12*
G04 #@! TO.P,R1,2*
G04 #@! TO.N,/SCL*
X84745000Y-101915000D03*
G04 #@! TO.P,R1,1*
G04 #@! TO.N,/3.3V*
X84745000Y-94115000D03*
G04 #@! TD*
G04 #@! TO.P,R2,1*
G04 #@! TO.N,/3.3V*
X71860000Y-94100000D03*
G04 #@! TO.P,R2,2*
G04 #@! TO.N,/SDA*
X71860000Y-101900000D03*
D18*
G04 #@! TD*
G04 #@! TO.N,/3.3V*
G04 #@! TO.C,R2*
X71860000Y-95500000D03*
D19*
G04 #@! TO.P,R2,1*
G04 #@! TO.N,/3.3V*
X71860000Y-96650000D03*
G04 #@! TO.P,R2,2*
G04 #@! TO.N,/SDA*
X71860000Y-99350000D03*
D18*
G04 #@! TD*
G04 #@! TO.N,/SDA*
G04 #@! TO.C,R2*
X71860000Y-100500000D03*
D20*
G04 #@! TO.P,J3,1*
G04 #@! TO.N,/3.3V*
X59170000Y-94840000D03*
D21*
G04 #@! TO.P,J3,2*
G04 #@! TO.N,SCK*
X59170000Y-92300000D03*
G04 #@! TO.P,J3,3*
G04 #@! TO.N,MISO*
X59170000Y-89760000D03*
G04 #@! TO.P,J3,4*
G04 #@! TO.N,MOSI*
X59170000Y-87220000D03*
G04 #@! TO.P,J3,5*
G04 #@! TO.N,CS*
X59170000Y-84680000D03*
G04 #@! TO.P,J3,6*
G04 #@! TO.N,TX*
X59170000Y-82140000D03*
G04 #@! TO.P,J3,7*
G04 #@! TO.N,RX*
X59170000Y-79600000D03*
G04 #@! TO.P,J3,8*
G04 #@! TO.N,GND*
X59170000Y-77060000D03*
G04 #@! TD*
D10*
G04 #@! TO.P,SW2,2*
G04 #@! TO.N,Net-(D2-Pad2)*
X110100000Y-77470000D03*
G04 #@! TO.P,SW2,1*
G04 #@! TO.N,col0*
X97600000Y-80010000D03*
D11*
G04 #@! TO.P,SW2,2*
G04 #@! TO.N,Net-(D2-Pad2)*
X107300000Y-88450000D03*
D10*
G04 #@! TO.P,SW2,1*
G04 #@! TO.N,col0*
X96400000Y-86250000D03*
G04 #@! TD*
G04 #@! TO.P,SW3,1*
G04 #@! TO.N,col1*
X115450000Y-67200000D03*
D11*
G04 #@! TO.P,SW3,2*
G04 #@! TO.N,/col1row0*
X126350000Y-69400000D03*
D10*
G04 #@! TO.P,SW3,1*
G04 #@! TO.N,col1*
X116650000Y-60960000D03*
G04 #@! TO.P,SW3,2*
G04 #@! TO.N,/col1row0*
X129150000Y-58420000D03*
G04 #@! TD*
G04 #@! TO.P,SW1,2*
G04 #@! TO.N,Net-(D1-Pad2)*
X110100000Y-58420000D03*
G04 #@! TO.P,SW1,1*
G04 #@! TO.N,col0*
X97600000Y-60960000D03*
D11*
G04 #@! TO.P,SW1,2*
G04 #@! TO.N,Net-(D1-Pad2)*
X107300000Y-69400000D03*
D10*
G04 #@! TO.P,SW1,1*
G04 #@! TO.N,col0*
X96400000Y-67200000D03*
G04 #@! TD*
D22*
G04 #@! TO.N,Net-(D2-Pad2)*
X99350000Y-74520000D03*
G04 #@! TO.N,Net-(D4-Pad2)*
X118400000Y-73250010D03*
G04 #@! TO.N,GND*
X61345000Y-82140000D03*
X61345000Y-88490000D03*
X61345000Y-90395000D03*
X61345000Y-85949998D03*
X85380000Y-78965000D03*
X68235000Y-99285000D03*
X97625000Y-84045000D03*
X97625000Y-64995000D03*
X116675000Y-84045000D03*
X116675000Y-64995000D03*
G04 #@! TO.N,col0*
X96810000Y-56740000D03*
G04 #@! TO.N,Net-(U1-Pad23)*
X94250000Y-100510000D03*
G04 #@! TO.N,Net-(U1-Pad29)*
X96175000Y-97380000D03*
G04 #@! TO.N,Net-(U1-Pad30)*
X116495000Y-97380000D03*
G04 #@! TO.N,/col1row0*
X118400000Y-72249975D03*
G04 #@! TD*
D23*
G04 #@! TO.N,Net-(D1-Pad2)*
X109550000Y-69400000D02*
X107300000Y-69400000D01*
X112050000Y-66900000D02*
X109550000Y-69400000D01*
X112050000Y-60550000D02*
X112050000Y-66900000D01*
X110100000Y-58420000D02*
X110100000Y-58600000D01*
X110100000Y-58600000D02*
X112050000Y-60550000D01*
X93820000Y-55470000D02*
X91915000Y-57375000D01*
X108875000Y-55470000D02*
X93820000Y-55470000D01*
X110100000Y-58420000D02*
X110100000Y-56695000D01*
X110100000Y-56695000D02*
X108875000Y-55470000D01*
G04 #@! TO.N,row0*
X65039999Y-65850001D02*
X64240000Y-66650000D01*
X77325000Y-53565000D02*
X65039999Y-65850001D01*
X82205000Y-53565000D02*
X77325000Y-53565000D01*
X84115000Y-57375000D02*
X84115000Y-55475000D01*
X84115000Y-55475000D02*
X82205000Y-53565000D01*
G04 #@! TO.N,Net-(D2-Pad2)*
X107550000Y-88500000D02*
X107549990Y-88500000D01*
X109550000Y-88450000D02*
X107300000Y-88450000D01*
X112050000Y-85950000D02*
X109550000Y-88450000D01*
X112050000Y-79600000D02*
X112050000Y-85950000D01*
X110100000Y-77470000D02*
X110100000Y-77650000D01*
X110100000Y-77650000D02*
X112050000Y-79600000D01*
X108875000Y-74520000D02*
X99350000Y-74520000D01*
X110100000Y-77470000D02*
X110100000Y-75745000D01*
X110100000Y-75745000D02*
X108875000Y-74520000D01*
G04 #@! TO.N,row1*
X84115000Y-62455000D02*
X84115000Y-64995000D01*
G04 #@! TO.N,Net-(D4-Pad2)*
X129150000Y-77650000D02*
X129150000Y-77470000D01*
X131100000Y-79600000D02*
X129150000Y-77650000D01*
X131100000Y-86585000D02*
X131100000Y-79600000D01*
X126350000Y-88450000D02*
X129235000Y-88450000D01*
X129235000Y-88450000D02*
X131100000Y-86585000D01*
X118965705Y-73249990D02*
X118965685Y-73250010D01*
X118965685Y-73250010D02*
X118400000Y-73250010D01*
X126179990Y-73249990D02*
X118965705Y-73249990D01*
X129150000Y-76220000D02*
X126179990Y-73249990D01*
X129150000Y-77470000D02*
X129150000Y-76220000D01*
G04 #@! TO.N,/SDA*
X75760000Y-101700000D02*
X75760000Y-101300000D01*
X71860000Y-101900000D02*
X75560000Y-101900000D01*
G04 #@! TO.N,/SCL*
X75760000Y-98700000D02*
X83260000Y-98700000D01*
X84080000Y-98700000D02*
X84745000Y-99365000D01*
X75760000Y-98700000D02*
X84080000Y-98700000D01*
D24*
G04 #@! TO.N,/3.3V*
X75160000Y-94100000D02*
X75760000Y-94700000D01*
X69320000Y-91560000D02*
X71860000Y-94100000D01*
X69320000Y-89510000D02*
X69320000Y-91560000D01*
X83395000Y-96665000D02*
X84745000Y-96665000D01*
X82205000Y-95475000D02*
X83395000Y-96665000D01*
X79030000Y-95475000D02*
X82205000Y-95475000D01*
X75760000Y-94700000D02*
X78255000Y-94700000D01*
X78255000Y-94700000D02*
X79030000Y-95475000D01*
D23*
G04 #@! TO.N,GND*
X136815000Y-103730000D02*
X124750000Y-91665000D01*
X119035000Y-97380000D02*
X126020000Y-104365000D01*
X126020000Y-104365000D02*
X138720000Y-91665000D01*
X138720000Y-92935000D02*
X127290000Y-104365000D01*
X127290000Y-104365000D02*
X115860000Y-92935000D01*
X115860000Y-92935000D02*
X115225000Y-93570000D01*
X128560000Y-104365000D02*
X138720000Y-94205000D01*
X138720000Y-94205000D02*
X136815000Y-92300000D01*
X136815000Y-92300000D02*
X136180000Y-91665000D01*
X136180000Y-91665000D02*
X123480000Y-104365000D01*
X123480000Y-104365000D02*
X117765000Y-98650000D01*
X117765000Y-98650000D02*
X112050000Y-104365000D01*
X112050000Y-104365000D02*
X103160000Y-95475000D01*
X103160000Y-95475000D02*
X97445000Y-101190000D01*
X97445000Y-101190000D02*
X94270000Y-104365000D01*
X94270000Y-104365000D02*
X87920000Y-98015000D01*
X87920000Y-98015000D02*
X88555000Y-97380000D01*
X87920000Y-99285000D02*
X93000000Y-104365000D01*
X101890000Y-95475000D02*
X110780000Y-104365000D01*
X110780000Y-104365000D02*
X116495000Y-98650000D01*
X116495000Y-98650000D02*
X122210000Y-104365000D01*
X122210000Y-104365000D02*
X135545000Y-91030000D01*
X135545000Y-91030000D02*
X136180000Y-91665000D01*
X138720000Y-95475000D02*
X129830000Y-104365000D01*
X129830000Y-104365000D02*
X118400000Y-92935000D01*
X119670000Y-92935000D02*
X131100000Y-104365000D01*
X131100000Y-104365000D02*
X138720000Y-96745000D01*
X133005000Y-91030000D02*
X119670000Y-104365000D01*
X119670000Y-104365000D02*
X110780000Y-95475000D01*
X95540000Y-104365000D02*
X104430000Y-95475000D01*
X96810000Y-104365000D02*
X105700000Y-95475000D01*
X99350000Y-104365000D02*
X108240000Y-95475000D01*
X109510000Y-95475000D02*
X100620000Y-104365000D01*
X100620000Y-104365000D02*
X101890000Y-104365000D01*
X101890000Y-104365000D02*
X110780000Y-95475000D01*
X120940000Y-104365000D02*
X134275000Y-91030000D01*
X134275000Y-91030000D02*
X138720000Y-95475000D01*
X138720000Y-100555000D02*
X134910000Y-104365000D01*
X134910000Y-104365000D02*
X123480000Y-92935000D01*
X128560000Y-91665000D02*
X138720000Y-101825000D01*
X117765000Y-98650000D02*
X119035000Y-97380000D01*
X100620000Y-95475000D02*
X109510000Y-104365000D01*
X109510000Y-104365000D02*
X115225000Y-98650000D01*
X115225000Y-98650000D02*
X120940000Y-104365000D01*
X108240000Y-104365000D02*
X114590000Y-98015000D01*
X112050000Y-95475000D02*
X114590000Y-98015000D01*
X114590000Y-98015000D02*
X115225000Y-98650000D01*
X106970000Y-104365000D02*
X113955000Y-97380000D01*
X115225000Y-98650000D02*
X115860000Y-98015000D01*
X115860000Y-98015000D02*
X116495000Y-98650000D01*
X114590000Y-98015000D02*
X115225000Y-97380000D01*
X113955000Y-97380000D02*
X114590000Y-96745000D01*
X113320000Y-95475000D02*
X113955000Y-96110000D01*
X113955000Y-96110000D02*
X115860000Y-98015000D01*
X104430000Y-104365000D02*
X113320000Y-95475000D01*
X103160000Y-104365000D02*
X112050000Y-95475000D01*
X132370000Y-104365000D02*
X120940000Y-92935000D01*
X122210000Y-92935000D02*
X133640000Y-104365000D01*
X138720000Y-98015000D02*
X132370000Y-104365000D01*
X117765000Y-93570000D02*
X128560000Y-104365000D01*
X117765000Y-93570000D02*
X116495000Y-94840000D01*
X118400000Y-92935000D02*
X117765000Y-93570000D01*
X118400000Y-104365000D02*
X131735000Y-91030000D01*
X117130000Y-104365000D02*
X130465000Y-91030000D01*
X114590000Y-104365000D02*
X127925000Y-91030000D01*
X113320000Y-104365000D02*
X126020000Y-91665000D01*
X126020000Y-91665000D02*
X127290000Y-90395000D01*
X136815000Y-91030000D02*
X136180000Y-91665000D01*
X109510000Y-95475000D02*
X118400000Y-104365000D01*
X108240000Y-95475000D02*
X117130000Y-104365000D01*
X105700000Y-95475000D02*
X114590000Y-104365000D01*
X104430000Y-95475000D02*
X113320000Y-104365000D01*
X108240000Y-104365000D02*
X99350000Y-95475000D01*
X98080000Y-95475000D02*
X106970000Y-104365000D01*
X98080000Y-99285000D02*
X103160000Y-104365000D01*
X98080000Y-99285000D02*
X101890000Y-95475000D01*
X97445000Y-99920000D02*
X101890000Y-104365000D01*
X97445000Y-99920000D02*
X98080000Y-99285000D01*
X96810000Y-100555000D02*
X100620000Y-104365000D01*
X96810000Y-100555000D02*
X97445000Y-99920000D01*
X96175000Y-101190000D02*
X99350000Y-104365000D01*
X96175000Y-101190000D02*
X96810000Y-100555000D01*
X98080000Y-104365000D02*
X95540000Y-101825000D01*
X129195000Y-91030000D02*
X115860000Y-104365000D01*
X95540000Y-101825000D02*
X96175000Y-101190000D01*
X115860000Y-104365000D02*
X106970000Y-95475000D01*
X106970000Y-95475000D02*
X98080000Y-104365000D01*
X94905000Y-102460000D02*
X96810000Y-104365000D01*
X94905000Y-102460000D02*
X95540000Y-101825000D01*
X93000000Y-104365000D02*
X94905000Y-102460000D01*
X96810000Y-96745000D02*
X98080000Y-95475000D01*
X99350000Y-95475000D02*
X97445000Y-97380000D01*
X96810000Y-96745000D02*
X97445000Y-97380000D01*
X98080000Y-98015000D02*
X100620000Y-95475000D01*
X98080000Y-98015000D02*
X104430000Y-104365000D01*
X97445000Y-97380000D02*
X98080000Y-98015000D01*
X90460000Y-104365000D02*
X93000000Y-101825000D01*
X89190000Y-104365000D02*
X92365000Y-101190000D01*
X87920000Y-103095000D02*
X91095000Y-99920000D01*
X87920000Y-104365000D02*
X91730000Y-100555000D01*
X95540000Y-104365000D02*
X91730000Y-100555000D01*
X91730000Y-100555000D02*
X91095000Y-99920000D01*
X87920000Y-101825000D02*
X90460000Y-99285000D01*
X87920000Y-99285000D02*
X89190000Y-98015000D01*
X89190000Y-98015000D02*
X88555000Y-97380000D01*
X88555000Y-97380000D02*
X91095000Y-99920000D01*
X87920000Y-101825000D02*
X90460000Y-104365000D01*
X87920000Y-103095000D02*
X89190000Y-104365000D01*
X87920000Y-104365000D02*
X134275000Y-104365000D01*
X134910000Y-104365000D02*
X134275000Y-104365000D01*
X118400000Y-96745000D02*
X119035000Y-97380000D01*
X119670000Y-92935000D02*
X117130000Y-95475000D01*
X117765000Y-96110000D02*
X120940000Y-92935000D01*
X117765000Y-96110000D02*
X118400000Y-96745000D01*
X117130000Y-95475000D02*
X117765000Y-96110000D01*
X115860000Y-94205000D02*
X117130000Y-95475000D01*
X115225000Y-93570000D02*
X115860000Y-94205000D01*
X117130000Y-92935000D02*
X117765000Y-93570000D01*
X124115000Y-92300000D02*
X119035000Y-97380000D01*
X124750000Y-91665000D02*
X124115000Y-92300000D01*
X124750000Y-91665000D02*
X126020000Y-90395000D01*
X126020000Y-91665000D02*
X125385000Y-91030000D01*
X127290000Y-90395000D02*
X128560000Y-91665000D01*
X127925000Y-91030000D02*
X129195000Y-89760000D01*
X129195000Y-89760000D02*
X130465000Y-91030000D01*
X129195000Y-91030000D02*
X130465000Y-89760000D01*
X130465000Y-89760000D02*
X131735000Y-91030000D01*
X133640000Y-89125000D02*
X136180000Y-91665000D01*
X133005000Y-91030000D02*
X134910000Y-89125000D01*
X134910000Y-89125000D02*
X138720000Y-92935000D01*
X127290000Y-90395000D02*
X127925000Y-89760000D01*
X127925000Y-89760000D02*
X129195000Y-91030000D01*
X130465000Y-91030000D02*
X131735000Y-89760000D01*
X131735000Y-89760000D02*
X133005000Y-91030000D01*
X134275000Y-91030000D02*
X133005000Y-89760000D01*
X131735000Y-91030000D02*
X133005000Y-89760000D01*
X133005000Y-89760000D02*
X133640000Y-89125000D01*
X134275000Y-91030000D02*
X136180000Y-89125000D01*
X136180000Y-89125000D02*
X138720000Y-91665000D01*
X137450000Y-89125000D02*
X135545000Y-91030000D01*
X137450000Y-89125000D02*
X138720000Y-90395000D01*
X115860000Y-92935000D02*
X115225000Y-92300000D01*
X115225000Y-92300000D02*
X114590000Y-92935000D01*
X114590000Y-92935000D02*
X115225000Y-93570000D01*
X115225000Y-93570000D02*
X113955000Y-92300000D01*
X113955000Y-92300000D02*
X113320000Y-92935000D01*
X113320000Y-92935000D02*
X112685000Y-92300000D01*
X112685000Y-92300000D02*
X112050000Y-92935000D01*
X112050000Y-92935000D02*
X111415000Y-92300000D01*
X111415000Y-92300000D02*
X110780000Y-92935000D01*
X110780000Y-92935000D02*
X110145000Y-92300000D01*
X110145000Y-92300000D02*
X109510000Y-92935000D01*
X107605000Y-91030000D02*
X108240000Y-90395000D01*
X112685000Y-89760000D02*
X115225000Y-92300000D01*
X111415000Y-91030000D02*
X112685000Y-92300000D01*
X111415000Y-91030000D02*
X112685000Y-89760000D01*
X110780000Y-91665000D02*
X111415000Y-92300000D01*
X110780000Y-91665000D02*
X111415000Y-91030000D01*
X110145000Y-92300000D02*
X110780000Y-91665000D01*
X109510000Y-91665000D02*
X108240000Y-92935000D01*
X109510000Y-91665000D02*
X110145000Y-92300000D01*
X108240000Y-92935000D02*
X106970000Y-91665000D01*
X106970000Y-91665000D02*
X105700000Y-92935000D01*
X105700000Y-92935000D02*
X105065000Y-92300000D01*
X105065000Y-92300000D02*
X104430000Y-92935000D01*
X104430000Y-92935000D02*
X103795000Y-92300000D01*
X103795000Y-92300000D02*
X103160000Y-91665000D01*
X103160000Y-91665000D02*
X101255000Y-89760000D01*
X101255000Y-89760000D02*
X98080000Y-92935000D01*
X98080000Y-92935000D02*
X94905000Y-89760000D01*
X107605000Y-91030000D02*
X106970000Y-91665000D01*
X108240000Y-91665000D02*
X106970000Y-92935000D01*
X108240000Y-91665000D02*
X107605000Y-91030000D01*
X109510000Y-92935000D02*
X108240000Y-91665000D01*
X106970000Y-92935000D02*
X105700000Y-91665000D01*
X105700000Y-91665000D02*
X105065000Y-92300000D01*
X108240000Y-91665000D02*
X110145000Y-89760000D01*
X110145000Y-89760000D02*
X111415000Y-91030000D01*
X109510000Y-91665000D02*
X111415000Y-89760000D01*
X111415000Y-89760000D02*
X113955000Y-92300000D01*
X111415000Y-92300000D02*
X113955000Y-89760000D01*
X113955000Y-89760000D02*
X115225000Y-91030000D01*
X115225000Y-89760000D02*
X115860000Y-90395000D01*
X112685000Y-92300000D02*
X115225000Y-89760000D01*
X113955000Y-92300000D02*
X115860000Y-90395000D01*
X109510000Y-91665000D02*
X108240000Y-90395000D01*
X110780000Y-91665000D02*
X108875000Y-89760000D01*
X108875000Y-89760000D02*
X108240000Y-90395000D01*
X105065000Y-92300000D02*
X104430000Y-91665000D01*
X104430000Y-91665000D02*
X103160000Y-92935000D01*
X103160000Y-92935000D02*
X99985000Y-89760000D01*
X99985000Y-89760000D02*
X96810000Y-92935000D01*
X96175000Y-92300000D02*
X98715000Y-89760000D01*
X96810000Y-92935000D02*
X96175000Y-92300000D01*
X95540000Y-91665000D02*
X98080000Y-89125000D01*
X96175000Y-92300000D02*
X95540000Y-91665000D01*
X94905000Y-91030000D02*
X96175000Y-89760000D01*
X94905000Y-91030000D02*
X94270000Y-90395000D01*
X95540000Y-91665000D02*
X94905000Y-91030000D01*
X94270000Y-90395000D02*
X95540000Y-89125000D01*
X96175000Y-89760000D02*
X99350000Y-92935000D01*
X99350000Y-92935000D02*
X102525000Y-89760000D01*
X102525000Y-89760000D02*
X103160000Y-90395000D01*
X103160000Y-90395000D02*
X100620000Y-92935000D01*
X100620000Y-92935000D02*
X97445000Y-89760000D01*
X98715000Y-89760000D02*
X101890000Y-92935000D01*
X101890000Y-92935000D02*
X103160000Y-91665000D01*
X117130000Y-92935000D02*
X117765000Y-92300000D01*
X117765000Y-92300000D02*
X118400000Y-92935000D01*
X118400000Y-92935000D02*
X119035000Y-92300000D01*
X119035000Y-92300000D02*
X119670000Y-92935000D01*
X119670000Y-92935000D02*
X120305000Y-92300000D01*
X120305000Y-92300000D02*
X120940000Y-92935000D01*
X120940000Y-92935000D02*
X121575000Y-92300000D01*
X121575000Y-92300000D02*
X122210000Y-92935000D01*
X122210000Y-92935000D02*
X122845000Y-92300000D01*
X122845000Y-92300000D02*
X123480000Y-92935000D01*
X120940000Y-90395000D02*
X121575000Y-89760000D01*
X120305000Y-91030000D02*
X120940000Y-90395000D01*
X119670000Y-90395000D02*
X120305000Y-89760000D01*
X119670000Y-90395000D02*
X120305000Y-91030000D01*
X120305000Y-89760000D02*
X120940000Y-90395000D01*
X119035000Y-91030000D02*
X119670000Y-90395000D01*
X120940000Y-90395000D02*
X121575000Y-91030000D01*
X121575000Y-91030000D02*
X122210000Y-90395000D01*
X122210000Y-90395000D02*
X121575000Y-89760000D01*
X89190000Y-98015000D02*
X89825000Y-97380000D01*
X91730000Y-104365000D02*
X93635000Y-102460000D01*
X87920000Y-100555000D02*
X91730000Y-104365000D01*
X90460000Y-98015000D02*
X87920000Y-100555000D01*
X89825000Y-97380000D02*
X89506795Y-97061795D01*
X89506795Y-97061795D02*
X90460000Y-98015000D01*
X89190000Y-96745000D02*
X88555000Y-97380000D01*
X89506795Y-97061795D02*
X89190000Y-96745000D01*
X89190000Y-96745000D02*
X88555000Y-96110000D01*
X96175000Y-101190000D02*
X94905000Y-99920000D01*
X94270000Y-99285000D02*
X94905000Y-98650000D01*
X94905000Y-98650000D02*
X96810000Y-100555000D01*
X94905000Y-99920000D02*
X94270000Y-99285000D01*
X88555000Y-92300000D02*
X88555000Y-93570000D01*
X88555000Y-93570000D02*
X89190000Y-92935000D01*
X89190000Y-94205000D02*
X89825000Y-93570000D01*
X89190000Y-94205000D02*
X88555000Y-93570000D01*
X89825000Y-94840000D02*
X90460000Y-94205000D01*
X89825000Y-94840000D02*
X89190000Y-94205000D01*
X90460000Y-95475000D02*
X91095000Y-94840000D01*
X90460000Y-95475000D02*
X89825000Y-94840000D01*
X91095000Y-96110000D02*
X91730000Y-95475000D01*
X91095000Y-96110000D02*
X90460000Y-95475000D01*
X91730000Y-96745000D02*
X92365000Y-96110000D01*
X91730000Y-96745000D02*
X91095000Y-96110000D01*
X92365000Y-97380000D02*
X93000000Y-96745000D01*
X93000000Y-96745000D02*
X88555000Y-92300000D01*
X94905000Y-98650000D02*
X93000000Y-96745000D01*
X92365000Y-97380000D02*
X91730000Y-96745000D01*
X93000000Y-98015000D02*
X93635000Y-97380000D01*
X93000000Y-98015000D02*
X92365000Y-97380000D01*
X93635000Y-98650000D02*
X94270000Y-98015000D01*
X93635000Y-98650000D02*
X93000000Y-98015000D01*
X94270000Y-99285000D02*
X93635000Y-98650000D01*
X96175000Y-96110000D02*
X96810000Y-96745000D01*
X113955000Y-96110000D02*
X105700000Y-104365000D01*
X91095000Y-91030000D02*
X91730000Y-90395000D01*
X91730000Y-91665000D02*
X92365000Y-91030000D01*
X91095000Y-91030000D02*
X91730000Y-91665000D01*
X92365000Y-92300000D02*
X93000000Y-91665000D01*
X91730000Y-91665000D02*
X92365000Y-92300000D01*
X93000000Y-92935000D02*
X93635000Y-92300000D01*
X92365000Y-92300000D02*
X93000000Y-92935000D01*
X93635000Y-93570000D02*
X94270000Y-92935000D01*
X93000000Y-92935000D02*
X93635000Y-93570000D01*
X94270000Y-94205000D02*
X94905000Y-93570000D01*
X94905000Y-93570000D02*
X94270000Y-92935000D01*
X93635000Y-93570000D02*
X94270000Y-94205000D01*
X94905000Y-94840000D02*
X95540000Y-94205000D01*
X95540000Y-94205000D02*
X94905000Y-93570000D01*
X94270000Y-94205000D02*
X94905000Y-94840000D01*
X95540000Y-95475000D02*
X96175000Y-94840000D01*
X96175000Y-94840000D02*
X95540000Y-94205000D01*
X105700000Y-104365000D02*
X96175000Y-94840000D01*
X95540000Y-95475000D02*
X96175000Y-96110000D01*
X94905000Y-94840000D02*
X95540000Y-95475000D01*
X97445000Y-99920000D02*
X95449999Y-97924999D01*
X89190000Y-92935000D02*
X89825000Y-92300000D01*
X89825000Y-93570000D02*
X90460000Y-92935000D01*
X90460000Y-94205000D02*
X91095000Y-93570000D01*
X91095000Y-94840000D02*
X91730000Y-94205000D01*
X91730000Y-95475000D02*
X92365000Y-94840000D01*
X92365000Y-96110000D02*
X93000000Y-95475000D01*
X93000000Y-96745000D02*
X93635000Y-96110000D01*
X93635000Y-97380000D02*
X94270000Y-96745000D01*
X94270000Y-98015000D02*
X94905000Y-97380000D01*
X94905000Y-98650000D02*
X95540000Y-98015000D01*
X97445000Y-94840000D02*
X98080000Y-95475000D01*
X96175000Y-96110000D02*
X97445000Y-94840000D01*
X98080000Y-95475000D02*
X98715000Y-94840000D01*
X98715000Y-94840000D02*
X99350000Y-95475000D01*
X99350000Y-95475000D02*
X99985000Y-94840000D01*
X99985000Y-94840000D02*
X100620000Y-95475000D01*
X100620000Y-95475000D02*
X101255000Y-94840000D01*
X101255000Y-94840000D02*
X101890000Y-95475000D01*
X101890000Y-95475000D02*
X102525000Y-94840000D01*
X102525000Y-94840000D02*
X103160000Y-95475000D01*
X103160000Y-95475000D02*
X103795000Y-94840000D01*
X103795000Y-94840000D02*
X104430000Y-95475000D01*
X104430000Y-95475000D02*
X105065000Y-94840000D01*
X105065000Y-94840000D02*
X105700000Y-95475000D01*
X105700000Y-95475000D02*
X106335000Y-94840000D01*
X106335000Y-94840000D02*
X106970000Y-95475000D01*
X106970000Y-95475000D02*
X107605000Y-94840000D01*
X107605000Y-94840000D02*
X108240000Y-95475000D01*
X108240000Y-95475000D02*
X108875000Y-94840000D01*
X108875000Y-94840000D02*
X109510000Y-95475000D01*
X109510000Y-95475000D02*
X110145000Y-94840000D01*
X110145000Y-94840000D02*
X110780000Y-95475000D01*
X110780000Y-95475000D02*
X111415000Y-94840000D01*
X111415000Y-94840000D02*
X112050000Y-95475000D01*
X112050000Y-95475000D02*
X112685000Y-94840000D01*
X112685000Y-94840000D02*
X113320000Y-95475000D01*
X138085000Y-91030000D02*
X138720000Y-90395000D01*
X124750000Y-104365000D02*
X138085000Y-91030000D01*
X117220001Y-97924999D02*
X119035000Y-96110000D01*
X118400000Y-96745000D02*
X119035000Y-96110000D01*
X119035000Y-96110000D02*
X122210000Y-92935000D01*
X96900001Y-97924999D02*
X97445000Y-97380000D01*
X113955000Y-93570000D02*
X114590000Y-92935000D01*
X113320000Y-92935000D02*
X113955000Y-93570000D01*
X114590000Y-94205000D02*
X115225000Y-93570000D01*
X113955000Y-93570000D02*
X114590000Y-94205000D01*
X115225000Y-94840000D02*
X116495000Y-93570000D01*
X116495000Y-93570000D02*
X117130000Y-92935000D01*
X115860000Y-94205000D02*
X116495000Y-93570000D01*
X114590000Y-94205000D02*
X115225000Y-94840000D01*
X115860000Y-95475000D02*
X116495000Y-94840000D01*
X115225000Y-94840000D02*
X115860000Y-95475000D01*
X116495000Y-96110000D02*
X117130000Y-95475000D01*
X115860000Y-95475000D02*
X116495000Y-96110000D01*
X117130000Y-96745000D02*
X117765000Y-96110000D01*
X117130000Y-96745000D02*
X124750000Y-104365000D01*
X116495000Y-96110000D02*
X117130000Y-96745000D01*
X117130000Y-98015000D02*
X117765000Y-98650000D01*
X117130000Y-98015000D02*
X117220001Y-97924999D01*
X116495000Y-98650000D02*
X117130000Y-98015000D01*
X98080000Y-99285000D02*
X96810000Y-98015000D01*
X94905000Y-99920000D02*
X96810000Y-98015000D01*
X96810000Y-98015000D02*
X96900001Y-97924999D01*
X95540000Y-101825000D02*
X94905000Y-101190000D01*
X93635000Y-102460000D02*
X94905000Y-101190000D01*
X94905000Y-101190000D02*
X98080000Y-98015000D01*
X93000000Y-101825000D02*
X93635000Y-101190000D01*
X92365000Y-101190000D02*
X93000000Y-100555000D01*
X93000000Y-100555000D02*
X94905000Y-102460000D01*
X91730000Y-100555000D02*
X92365000Y-99920000D01*
X91095000Y-99920000D02*
X91730000Y-99285000D01*
X89825000Y-97380000D02*
X91730000Y-99285000D01*
X91730000Y-99285000D02*
X93000000Y-100555000D01*
X90460000Y-99285000D02*
X91095000Y-98650000D01*
X118400000Y-90395000D02*
X119035000Y-89760000D01*
X118400000Y-90395000D02*
X119035000Y-91030000D01*
X117765000Y-91030000D02*
X118400000Y-90395000D01*
X106969991Y-91664991D02*
X106970000Y-91665000D01*
X103160000Y-91665000D02*
X103160009Y-91664991D01*
X117130000Y-90395000D02*
X117765000Y-91030000D01*
X117130000Y-90395000D02*
X117765000Y-89760000D01*
X117130000Y-90395000D02*
X116495000Y-89760000D01*
X115860000Y-90395000D02*
X116495000Y-89760000D01*
X118400000Y-90395000D02*
X117765000Y-89760000D01*
X127290000Y-90395000D02*
X127259998Y-90395000D01*
X126020000Y-90395000D02*
X127290000Y-90395000D01*
X117675003Y-92389997D02*
X117765000Y-92300000D01*
X115225000Y-92300000D02*
X115314997Y-92389997D01*
X115860000Y-92935000D02*
X116405003Y-92389997D01*
X117130000Y-92935000D02*
X116584997Y-92389997D01*
X115860000Y-90395000D02*
X116404995Y-90939995D01*
X117130000Y-90395000D02*
X116585005Y-90939995D01*
X115225000Y-91030000D02*
X115315005Y-90939995D01*
X96810000Y-92935000D02*
X97445000Y-93570000D01*
X97445000Y-93570000D02*
X98080000Y-92935000D01*
X98080000Y-92935000D02*
X98715000Y-93570000D01*
X98715000Y-93570000D02*
X99350000Y-92935000D01*
X99350000Y-92935000D02*
X99985000Y-93570000D01*
X99985000Y-93570000D02*
X100620000Y-92935000D01*
X100620000Y-92935000D02*
X101255000Y-93570000D01*
X101255000Y-93570000D02*
X101890000Y-92935000D01*
X101890000Y-92935000D02*
X102525000Y-93570000D01*
X102525000Y-93570000D02*
X103160000Y-92935000D01*
X103160000Y-92935000D02*
X103795000Y-93570000D01*
X103795000Y-93570000D02*
X104430000Y-92935000D01*
X104430000Y-92935000D02*
X105065000Y-93570000D01*
X105065000Y-93570000D02*
X105700000Y-92935000D01*
X105700000Y-92935000D02*
X106335000Y-93570000D01*
X106335000Y-93570000D02*
X106970000Y-92935000D01*
X106970000Y-92935000D02*
X107605000Y-93570000D01*
X107605000Y-93570000D02*
X108240000Y-92935000D01*
X108240000Y-92935000D02*
X108875000Y-93570000D01*
X108875000Y-93570000D02*
X109510000Y-92935000D01*
X109510000Y-92935000D02*
X110145000Y-93570000D01*
X110145000Y-93570000D02*
X110780000Y-92935000D01*
X110780000Y-92935000D02*
X111415000Y-93570000D01*
X111415000Y-93570000D02*
X112050000Y-92935000D01*
X112050000Y-92935000D02*
X112685000Y-93570000D01*
X112685000Y-93570000D02*
X113320000Y-92935000D01*
X103160000Y-90395000D02*
X104430000Y-91665000D01*
X104430000Y-91665000D02*
X105065000Y-91030000D01*
X105065000Y-91030000D02*
X105700000Y-91665000D01*
X105700000Y-91665000D02*
X106335000Y-91030000D01*
X106335000Y-91030000D02*
X106970000Y-91665000D01*
X107605000Y-91030000D02*
X106970000Y-90395000D01*
X106970000Y-90395000D02*
X106335000Y-91030000D01*
X103160000Y-91665000D02*
X104430000Y-90395000D01*
X104430000Y-90395000D02*
X105065000Y-91030000D01*
X105065000Y-91030000D02*
X105700000Y-90395000D01*
X105700000Y-90395000D02*
X106335000Y-91030000D01*
X98080000Y-89125000D02*
X98715000Y-89760000D01*
X95540000Y-89125000D02*
X96175000Y-89760000D01*
X93000000Y-89125000D02*
X93635000Y-88490000D01*
X93635000Y-88490000D02*
X94905000Y-89760000D01*
X93635000Y-89760000D02*
X94270000Y-89125000D01*
X93635000Y-89760000D02*
X93000000Y-89125000D01*
X94270000Y-90395000D02*
X93635000Y-89760000D01*
X115225000Y-91119997D02*
X116495000Y-92389997D01*
X115225000Y-91030000D02*
X115225000Y-91119997D01*
X116405003Y-92389997D02*
X116495000Y-92389997D01*
X116495000Y-92389997D02*
X116584997Y-92389997D01*
X115225000Y-92300000D02*
X116585005Y-90939995D01*
X116404995Y-90939995D02*
X118400000Y-92935000D01*
X116495000Y-92300000D02*
X118400000Y-90395000D01*
X116495000Y-92389997D02*
X116495000Y-92300000D01*
X117765000Y-91030000D02*
X119035000Y-92300000D01*
X117765000Y-92300000D02*
X119035000Y-91030000D01*
X119035000Y-89760000D02*
X119670000Y-90395000D01*
X119035000Y-92300000D02*
X120305000Y-91030000D01*
X119035000Y-91030000D02*
X120305000Y-92300000D01*
X120305000Y-91030000D02*
X121575000Y-92300000D01*
X120305000Y-92300000D02*
X121575000Y-91030000D01*
X121575000Y-91030000D02*
X123480000Y-92935000D01*
X121575000Y-92300000D02*
X123480000Y-90395000D01*
X123480000Y-90395000D02*
X124750000Y-91665000D01*
X122845000Y-92300000D02*
X124750000Y-90395000D01*
X124750000Y-90395000D02*
X125385000Y-91030000D01*
X122210000Y-90395000D02*
X124115000Y-92300000D01*
X122210000Y-90395000D02*
X126020000Y-90395000D01*
X103160000Y-90395000D02*
X108240000Y-90395000D01*
X139300000Y-90975000D02*
X139300000Y-91000000D01*
X138720000Y-90395000D02*
X139300000Y-90975000D01*
X138720000Y-90395000D02*
X138720000Y-90380000D01*
X138720000Y-89125000D02*
X136180000Y-91665000D01*
X138725000Y-89125000D02*
X138720000Y-89125000D01*
X139300000Y-89800000D02*
X139000000Y-90100000D01*
X139300000Y-89700000D02*
X139300000Y-89800000D01*
X139000000Y-90100000D02*
X139200000Y-89900000D01*
X138720000Y-90380000D02*
X139000000Y-90100000D01*
X139300000Y-89700000D02*
X138725000Y-89125000D01*
X140000000Y-90400000D02*
X139300000Y-89700000D01*
X139350000Y-91050000D02*
X139350000Y-91090000D01*
X139350000Y-91050000D02*
X140000000Y-90400000D01*
X138735000Y-91665000D02*
X139350000Y-91050000D01*
X139350000Y-91090000D02*
X140599990Y-92339990D01*
X138720000Y-92935000D02*
X138725000Y-92935000D01*
X138735000Y-91665000D02*
X140599990Y-93529990D01*
X138725000Y-92935000D02*
X140599990Y-94809990D01*
X138720000Y-94205000D02*
X138725000Y-94205000D01*
X138725000Y-94205000D02*
X140599990Y-96079990D01*
X138720000Y-95475000D02*
X138725000Y-95475000D01*
X138725000Y-95475000D02*
X140599990Y-97349990D01*
X138485000Y-96510000D02*
X138485000Y-96515000D01*
X138485000Y-96510000D02*
X133005000Y-91030000D01*
X138720000Y-96745000D02*
X138485000Y-96510000D01*
X138525000Y-97820000D02*
X138720000Y-98015000D01*
X131735000Y-91030000D02*
X138525000Y-97820000D01*
X138465000Y-99030000D02*
X138720000Y-99285000D01*
X130465000Y-91030000D02*
X138465000Y-99030000D01*
X138505000Y-100340000D02*
X129195000Y-91030000D01*
X138720000Y-100555000D02*
X138505000Y-100340000D01*
X138720000Y-101825000D02*
X138720000Y-101840000D01*
X137850000Y-102225000D02*
X137855000Y-102225000D01*
X137850000Y-102225000D02*
X138085000Y-102460000D01*
X126020000Y-90395000D02*
X137850000Y-102225000D01*
X137855000Y-102225000D02*
X139054231Y-103424231D01*
X137260000Y-102905000D02*
X137260000Y-102920000D01*
X137260000Y-102905000D02*
X126020000Y-91665000D01*
X137450000Y-103095000D02*
X137260000Y-102905000D01*
X137260000Y-102920000D02*
X138210000Y-103870000D01*
X136815000Y-103730000D02*
X136815000Y-103745000D01*
X136228112Y-104316888D02*
X137885000Y-102660000D01*
X136131886Y-104316888D02*
X136228112Y-104316888D01*
X124115000Y-92300000D02*
X136131886Y-104316888D01*
X138085000Y-102460000D02*
X137885000Y-102660000D01*
X137885000Y-102660000D02*
X137450000Y-103095000D01*
X138720000Y-100555000D02*
X138720000Y-100540000D01*
X138720000Y-100540000D02*
X140520000Y-98740000D01*
X140520000Y-98740000D02*
X140599990Y-98660010D01*
X137885000Y-102655000D02*
X137885000Y-102660000D01*
X140599990Y-99940010D02*
X137885000Y-102655000D01*
X138295000Y-99710000D02*
X138300000Y-99710000D01*
X138295000Y-99710000D02*
X138720000Y-99285000D01*
X133640000Y-104365000D02*
X138295000Y-99710000D01*
X138300000Y-99710000D02*
X140500000Y-97510000D01*
X140600000Y-99900000D02*
X140600000Y-99920000D01*
X138525000Y-97820000D02*
X138525000Y-97825000D01*
X138525000Y-97825000D02*
X140600000Y-99900000D01*
X137250000Y-104180000D02*
X137429522Y-104359522D01*
X136815000Y-103745000D02*
X137250000Y-104180000D01*
X137250000Y-104180000D02*
X137250000Y-104190000D01*
X137421636Y-104361637D02*
X137510000Y-104337960D01*
X137510000Y-104337960D02*
X137510000Y-104330000D01*
X137510000Y-104330000D02*
X140340872Y-101499128D01*
X137250000Y-104190000D02*
X137421636Y-104361637D01*
X140340872Y-101499128D02*
X140466241Y-101031241D01*
X134910000Y-104365000D02*
X137409081Y-104365000D01*
X138955834Y-103522628D02*
X139054231Y-103424231D01*
X138299234Y-103982384D02*
X138955834Y-103522628D01*
X137572766Y-104321141D02*
X138299234Y-103982384D01*
X137409081Y-104365000D02*
X137572766Y-104321141D01*
X138720001Y-101838277D02*
X138720000Y-101825000D01*
X139652327Y-102770603D02*
X138720001Y-101838277D01*
X138955834Y-103522628D02*
X139350000Y-103110000D01*
X139350000Y-103110000D02*
X139652327Y-102770603D01*
X138505001Y-100340108D02*
X138505000Y-100340000D01*
X140135585Y-101970692D02*
X138505001Y-100340108D01*
X140098832Y-102049510D02*
X140135585Y-101970692D01*
X139940000Y-102320000D02*
X140098832Y-102049510D01*
X139652327Y-102770603D02*
X139810000Y-102510000D01*
X139810000Y-102510000D02*
X139940000Y-102320000D01*
X140230000Y-101730000D02*
X140340872Y-101499128D01*
X140098832Y-102049510D02*
X140230000Y-101730000D01*
X140599990Y-91060010D02*
X138725000Y-92935000D01*
X140599990Y-90990000D02*
X140599990Y-91060010D01*
X140000000Y-90400000D02*
X140590000Y-90990000D01*
X140590000Y-90990000D02*
X140599990Y-90990000D01*
X138734980Y-94205000D02*
X140599990Y-92339990D01*
X138725000Y-94205000D02*
X138734980Y-94205000D01*
X138725000Y-95404980D02*
X140599990Y-93529990D01*
X138725000Y-95475000D02*
X138725000Y-95404980D01*
X138740000Y-96669980D02*
X140599990Y-94809990D01*
X138740000Y-96770000D02*
X138740000Y-96669980D01*
X138740000Y-96770000D02*
X140599990Y-98629990D01*
X138485000Y-96515000D02*
X138740000Y-96770000D01*
X138720000Y-97959980D02*
X140599990Y-96079990D01*
X138720000Y-98015000D02*
X138720000Y-97959980D01*
X140466241Y-101031241D02*
X140040000Y-100605000D01*
X140040000Y-100605000D02*
X138465000Y-99030000D01*
X140466241Y-101031242D02*
X140040000Y-100605000D01*
X140528602Y-100798507D02*
X140466241Y-101031242D01*
X140599990Y-99982538D02*
X140528602Y-100798507D01*
X140000000Y-90400000D02*
X140599990Y-90999990D01*
X140599990Y-90999990D02*
X140599990Y-99982538D01*
X91730000Y-90395000D02*
X94270000Y-92935000D01*
X92545000Y-95020000D02*
X92365000Y-94840000D01*
X95449999Y-97924999D02*
X92545000Y-95020000D01*
X88555000Y-92279000D02*
X88555000Y-92300000D01*
X89179500Y-91654500D02*
X88555000Y-92279000D01*
X92545000Y-95020000D02*
X89179500Y-91654500D01*
X88555000Y-91040500D02*
X89179500Y-91665000D01*
X88555000Y-92300000D02*
X88555000Y-91040500D01*
G04 #@! TO.N,/INT*
X62360000Y-83770000D02*
X62360000Y-97000000D01*
X64240000Y-81890000D02*
X62360000Y-83770000D01*
X63760000Y-98300000D02*
X63760000Y-98700000D01*
X62360000Y-97000000D02*
X63760000Y-98300000D01*
G04 #@! TO.N,col0*
X97600000Y-80010000D02*
X97600000Y-79660000D01*
X96400000Y-81210000D02*
X97600000Y-80010000D01*
X96400000Y-86250000D02*
X96400000Y-81210000D01*
X97600000Y-68400000D02*
X96400000Y-67200000D01*
X97600000Y-80010000D02*
X97600000Y-68400000D01*
X96400000Y-62160000D02*
X97600000Y-60960000D01*
X96400000Y-67200000D02*
X96400000Y-62160000D01*
X96810000Y-60170000D02*
X97600000Y-60960000D01*
X96810000Y-56740000D02*
X96810000Y-60170000D01*
G04 #@! TO.N,col1*
X115450000Y-81210000D02*
X116650000Y-80010000D01*
X115450000Y-86250000D02*
X115450000Y-81210000D01*
X116650000Y-68400000D02*
X115450000Y-67200000D01*
X116650000Y-80010000D02*
X116650000Y-68400000D01*
X115450000Y-62160000D02*
X116650000Y-60960000D01*
X115450000Y-67200000D02*
X115450000Y-62160000D01*
X116650000Y-56895000D02*
X116650000Y-60960000D01*
X111415000Y-51660000D02*
X116650000Y-56895000D01*
X63790000Y-51660000D02*
X111415000Y-51660000D01*
X59980000Y-55470000D02*
X63790000Y-51660000D01*
X64240000Y-71730000D02*
X59980000Y-67470000D01*
X59980000Y-67470000D02*
X59980000Y-55470000D01*
G04 #@! TO.N,Net-(U1-Pad23)*
X93850001Y-100110001D02*
X94250000Y-100510000D01*
X87465000Y-93725000D02*
X93850001Y-100110001D01*
X79480000Y-81890000D02*
X87465000Y-89875000D01*
X87465000Y-89875000D02*
X87465000Y-93725000D01*
G04 #@! TO.N,Net-(U1-Pad29)*
X95775001Y-96980001D02*
X96175000Y-97380000D01*
X90005000Y-91210000D02*
X95775001Y-96980001D01*
X79480000Y-66650000D02*
X90005000Y-77175000D01*
X90005000Y-77175000D02*
X90005000Y-91210000D01*
G04 #@! TO.N,Net-(U1-Pad30)*
X116095001Y-96980001D02*
X116495000Y-97380000D01*
X113320000Y-94205000D02*
X116095001Y-96980001D01*
X96810000Y-94205000D02*
X113320000Y-94205000D01*
X91730000Y-89125000D02*
X96810000Y-94205000D01*
X79480000Y-64110000D02*
X91730000Y-76360000D01*
X91730000Y-76360000D02*
X91730000Y-89125000D01*
G04 #@! TO.N,/col1row0*
X131100000Y-60550000D02*
X131100000Y-66900000D01*
X129150000Y-58420000D02*
X129150000Y-58600000D01*
X129150000Y-58600000D02*
X131100000Y-60550000D01*
X128600000Y-69400000D02*
X129195000Y-68805000D01*
X126350000Y-69400000D02*
X128600000Y-69400000D01*
X131100000Y-66900000D02*
X129195000Y-68805000D01*
X129195000Y-68805000D02*
X128918205Y-69081795D01*
X126350000Y-69400000D02*
X126350000Y-69450000D01*
X126350000Y-69450000D02*
X123550025Y-72249975D01*
X118965685Y-72249975D02*
X118400000Y-72249975D01*
X123550025Y-72249975D02*
X118965685Y-72249975D01*
G04 #@! TO.N,RX*
X61660000Y-76810000D02*
X64240000Y-76810000D01*
X59170000Y-79300000D02*
X61660000Y-76810000D01*
G04 #@! TD*
D25*
G04 #@! TO.N,GND*
G36*
X136759192Y-50780578D02*
X137494389Y-50981705D01*
X138182351Y-51309846D01*
X138801331Y-51754628D01*
X139331761Y-52301988D01*
X139756884Y-52934639D01*
X140063251Y-53632561D01*
X140242499Y-54379183D01*
X140290001Y-55026044D01*
X140290000Y-90873000D01*
X94552801Y-90873000D01*
X92490000Y-88810199D01*
X92490000Y-76434846D01*
X92504888Y-76359999D01*
X92490000Y-76285152D01*
X92490000Y-76285148D01*
X92445904Y-76063463D01*
X92277929Y-75812071D01*
X92214473Y-75769671D01*
X80893103Y-64448302D01*
X80915000Y-64395439D01*
X80915000Y-63824561D01*
X80696534Y-63297138D01*
X80292862Y-62893466D01*
X80163784Y-62840000D01*
X80292862Y-62786534D01*
X80696534Y-62382862D01*
X80915000Y-61855439D01*
X80915000Y-61284561D01*
X80696534Y-60757138D01*
X80292862Y-60353466D01*
X80179417Y-60306475D01*
X80234005Y-60283864D01*
X80308139Y-60037745D01*
X79480000Y-59209605D01*
X78651861Y-60037745D01*
X78725995Y-60283864D01*
X78784448Y-60304874D01*
X78667138Y-60353466D01*
X78263466Y-60757138D01*
X78045000Y-61284561D01*
X78045000Y-61855439D01*
X78263466Y-62382862D01*
X78667138Y-62786534D01*
X78796216Y-62840000D01*
X78667138Y-62893466D01*
X78263466Y-63297138D01*
X78210000Y-63426216D01*
X78156534Y-63297138D01*
X77752862Y-62893466D01*
X77225439Y-62675000D01*
X76654561Y-62675000D01*
X76127138Y-62893466D01*
X75723466Y-63297138D01*
X75505000Y-63824561D01*
X75505000Y-64395439D01*
X75723466Y-64922862D01*
X76127138Y-65326534D01*
X76256216Y-65380000D01*
X76127138Y-65433466D01*
X75723466Y-65837138D01*
X75505000Y-66364561D01*
X75505000Y-66935439D01*
X75723466Y-67462862D01*
X76127138Y-67866534D01*
X76256216Y-67920000D01*
X76127138Y-67973466D01*
X75723466Y-68377138D01*
X75505000Y-68904561D01*
X75505000Y-69475439D01*
X75723466Y-70002862D01*
X76127138Y-70406534D01*
X76654561Y-70625000D01*
X77225439Y-70625000D01*
X77752862Y-70406534D01*
X78156534Y-70002862D01*
X78210000Y-69873784D01*
X78263466Y-70002862D01*
X78667138Y-70406534D01*
X78796216Y-70460000D01*
X78667138Y-70513466D01*
X78263466Y-70917138D01*
X78045000Y-71444561D01*
X78045000Y-72015439D01*
X78263466Y-72542862D01*
X78667138Y-72946534D01*
X78796216Y-73000000D01*
X78667138Y-73053466D01*
X78263466Y-73457138D01*
X78045000Y-73984561D01*
X78045000Y-74555439D01*
X78263466Y-75082862D01*
X78667138Y-75486534D01*
X78796216Y-75540000D01*
X78667138Y-75593466D01*
X78263466Y-75997138D01*
X78045000Y-76524561D01*
X78045000Y-77095439D01*
X78263466Y-77622862D01*
X78667138Y-78026534D01*
X78796216Y-78080000D01*
X78667138Y-78133466D01*
X78263466Y-78537138D01*
X78045000Y-79064561D01*
X78045000Y-79635439D01*
X78263466Y-80162862D01*
X78667138Y-80566534D01*
X78796216Y-80620000D01*
X78667138Y-80673466D01*
X78263466Y-81077138D01*
X78045000Y-81604561D01*
X78045000Y-82175439D01*
X78263466Y-82702862D01*
X78667138Y-83106534D01*
X78796216Y-83160000D01*
X78667138Y-83213466D01*
X78263466Y-83617138D01*
X78045000Y-84144561D01*
X78045000Y-84715439D01*
X78263466Y-85242862D01*
X78667138Y-85646534D01*
X78796216Y-85700000D01*
X78667138Y-85753466D01*
X78263466Y-86157138D01*
X78045000Y-86684561D01*
X78045000Y-87255439D01*
X78263466Y-87782862D01*
X78667138Y-88186534D01*
X78796216Y-88240000D01*
X78667138Y-88293466D01*
X78263466Y-88697138D01*
X78210000Y-88826216D01*
X78156534Y-88697138D01*
X77752862Y-88293466D01*
X77225439Y-88075000D01*
X76654561Y-88075000D01*
X76127138Y-88293466D01*
X75723466Y-88697138D01*
X75670000Y-88826216D01*
X75616534Y-88697138D01*
X75212862Y-88293466D01*
X75083784Y-88240000D01*
X75212862Y-88186534D01*
X75616534Y-87782862D01*
X75835000Y-87255439D01*
X75835000Y-86684561D01*
X75616534Y-86157138D01*
X75212862Y-85753466D01*
X75083784Y-85700000D01*
X75212862Y-85646534D01*
X75616534Y-85242862D01*
X75835000Y-84715439D01*
X75835000Y-84144561D01*
X75616534Y-83617138D01*
X75212862Y-83213466D01*
X75083784Y-83160000D01*
X75212862Y-83106534D01*
X75616534Y-82702862D01*
X75835000Y-82175439D01*
X75835000Y-81604561D01*
X75616534Y-81077138D01*
X75212862Y-80673466D01*
X75083784Y-80620000D01*
X75212862Y-80566534D01*
X75616534Y-80162862D01*
X75835000Y-79635439D01*
X75835000Y-79064561D01*
X75616534Y-78537138D01*
X75212862Y-78133466D01*
X75083784Y-78080000D01*
X75212862Y-78026534D01*
X75616534Y-77622862D01*
X75835000Y-77095439D01*
X75835000Y-76524561D01*
X75616534Y-75997138D01*
X75212862Y-75593466D01*
X75083784Y-75540000D01*
X75212862Y-75486534D01*
X75616534Y-75082862D01*
X75835000Y-74555439D01*
X75835000Y-73984561D01*
X75616534Y-73457138D01*
X75212862Y-73053466D01*
X75083784Y-73000000D01*
X75212862Y-72946534D01*
X75616534Y-72542862D01*
X75835000Y-72015439D01*
X75835000Y-71444561D01*
X75616534Y-70917138D01*
X75212862Y-70513466D01*
X74685439Y-70295000D01*
X74114561Y-70295000D01*
X73587138Y-70513466D01*
X73183466Y-70917138D01*
X73130000Y-71046216D01*
X73076534Y-70917138D01*
X72672862Y-70513466D01*
X72145439Y-70295000D01*
X71574561Y-70295000D01*
X71047138Y-70513466D01*
X70643466Y-70917138D01*
X70425000Y-71444561D01*
X70425000Y-72015439D01*
X70643466Y-72542862D01*
X71047138Y-72946534D01*
X71176216Y-73000000D01*
X71047138Y-73053466D01*
X70643466Y-73457138D01*
X70425000Y-73984561D01*
X70425000Y-74555439D01*
X70643466Y-75082862D01*
X71047138Y-75486534D01*
X71176216Y-75540000D01*
X71047138Y-75593466D01*
X70643466Y-75997138D01*
X70425000Y-76524561D01*
X70425000Y-77095439D01*
X70643466Y-77622862D01*
X71047138Y-78026534D01*
X71176216Y-78080000D01*
X71047138Y-78133466D01*
X70643466Y-78537138D01*
X70425000Y-79064561D01*
X70425000Y-79635439D01*
X70643466Y-80162862D01*
X71047138Y-80566534D01*
X71176216Y-80620000D01*
X71047138Y-80673466D01*
X70643466Y-81077138D01*
X70425000Y-81604561D01*
X70425000Y-82175439D01*
X70643466Y-82702862D01*
X71047138Y-83106534D01*
X71176216Y-83160000D01*
X71047138Y-83213466D01*
X70643466Y-83617138D01*
X70425000Y-84144561D01*
X70425000Y-84715439D01*
X70643466Y-85242862D01*
X71047138Y-85646534D01*
X71176216Y-85700000D01*
X71047138Y-85753466D01*
X70643466Y-86157138D01*
X70425000Y-86684561D01*
X70425000Y-87255439D01*
X70643466Y-87782862D01*
X71047138Y-88186534D01*
X71160583Y-88233525D01*
X71105995Y-88256136D01*
X71031861Y-88502255D01*
X71860000Y-89330395D01*
X72688139Y-88502255D01*
X72614005Y-88256136D01*
X72555552Y-88235126D01*
X72672862Y-88186534D01*
X73076534Y-87782862D01*
X73130000Y-87653784D01*
X73183466Y-87782862D01*
X73587138Y-88186534D01*
X73716216Y-88240000D01*
X73587138Y-88293466D01*
X73183466Y-88697138D01*
X73136475Y-88810583D01*
X73113864Y-88755995D01*
X72867745Y-88681861D01*
X72039605Y-89510000D01*
X72867745Y-90338139D01*
X73113864Y-90264005D01*
X73134874Y-90205552D01*
X73183466Y-90322862D01*
X73587138Y-90726534D01*
X74114561Y-90945000D01*
X74685439Y-90945000D01*
X75212862Y-90726534D01*
X75616534Y-90322862D01*
X75670000Y-90193784D01*
X75723466Y-90322862D01*
X76127138Y-90726534D01*
X76654561Y-90945000D01*
X77225439Y-90945000D01*
X77752862Y-90726534D01*
X78156534Y-90322862D01*
X78210000Y-90193784D01*
X78263466Y-90322862D01*
X78667138Y-90726534D01*
X79194561Y-90945000D01*
X79765439Y-90945000D01*
X80292862Y-90726534D01*
X80696534Y-90322862D01*
X80915000Y-89795439D01*
X80915000Y-89224561D01*
X80696534Y-88697138D01*
X80292862Y-88293466D01*
X80163784Y-88240000D01*
X80292862Y-88186534D01*
X80696534Y-87782862D01*
X80915000Y-87255439D01*
X80915000Y-86684561D01*
X80696534Y-86157138D01*
X80292862Y-85753466D01*
X80163784Y-85700000D01*
X80292862Y-85646534D01*
X80696534Y-85242862D01*
X80915000Y-84715439D01*
X80915000Y-84399802D01*
X86705000Y-90189803D01*
X86705001Y-93650148D01*
X86690112Y-93725000D01*
X86749097Y-94021537D01*
X86837436Y-94153745D01*
X86917072Y-94272929D01*
X86980528Y-94315329D01*
X88873000Y-96207801D01*
X88873000Y-104290000D01*
X78816553Y-104290000D01*
X78906982Y-104199571D01*
X79095000Y-103745657D01*
X79095000Y-103254343D01*
X78906982Y-102800429D01*
X78559571Y-102453018D01*
X78105657Y-102265000D01*
X77614343Y-102265000D01*
X77207773Y-102433407D01*
X77245000Y-102246256D01*
X77245000Y-101153745D01*
X77158839Y-100720582D01*
X76830625Y-100229375D01*
X76786662Y-100200000D01*
X76830625Y-100170625D01*
X77158839Y-99679418D01*
X77202484Y-99460000D01*
X83497560Y-99460000D01*
X83497560Y-100115000D01*
X83546843Y-100362765D01*
X83687191Y-100572809D01*
X83847560Y-100679965D01*
X83847560Y-100783044D01*
X83528466Y-101102138D01*
X83310000Y-101629561D01*
X83310000Y-102200439D01*
X83528466Y-102727862D01*
X83932138Y-103131534D01*
X84459561Y-103350000D01*
X85030439Y-103350000D01*
X85557862Y-103131534D01*
X85961534Y-102727862D01*
X86180000Y-102200439D01*
X86180000Y-101629561D01*
X85961534Y-101102138D01*
X85642440Y-100783044D01*
X85642440Y-100679965D01*
X85802809Y-100572809D01*
X85943157Y-100362765D01*
X85992440Y-100115000D01*
X85992440Y-98615000D01*
X85943157Y-98367235D01*
X85802809Y-98157191D01*
X85592765Y-98016843D01*
X85583500Y-98015000D01*
X85592765Y-98013157D01*
X85802809Y-97872809D01*
X85943157Y-97662765D01*
X85992440Y-97415000D01*
X85992440Y-95915000D01*
X85943157Y-95667235D01*
X85802809Y-95457191D01*
X85642440Y-95350035D01*
X85642440Y-95246956D01*
X85961534Y-94927862D01*
X86180000Y-94400439D01*
X86180000Y-93829561D01*
X85961534Y-93302138D01*
X85557862Y-92898466D01*
X85030439Y-92680000D01*
X84459561Y-92680000D01*
X83932138Y-92898466D01*
X83528466Y-93302138D01*
X83310000Y-93829561D01*
X83310000Y-94400439D01*
X83528466Y-94927862D01*
X83847560Y-95246956D01*
X83847560Y-95350035D01*
X83687191Y-95457191D01*
X83658494Y-95500139D01*
X82989517Y-94831162D01*
X82933169Y-94746831D01*
X82599082Y-94523601D01*
X82304476Y-94465000D01*
X82304471Y-94465000D01*
X82205000Y-94445214D01*
X82105529Y-94465000D01*
X81139966Y-94465000D01*
X81283360Y-94285618D01*
X81445000Y-93727000D01*
X81445000Y-93327000D01*
X80087000Y-93327000D01*
X80087000Y-93347000D01*
X79833000Y-93347000D01*
X79833000Y-93327000D01*
X78475000Y-93327000D01*
X78475000Y-93713974D01*
X78354476Y-93690000D01*
X78354471Y-93690000D01*
X78255000Y-93670214D01*
X78155529Y-93690000D01*
X77138405Y-93690000D01*
X76830625Y-93229375D01*
X76339418Y-92901161D01*
X75760000Y-92785908D01*
X75180583Y-92901161D01*
X74829057Y-93136043D01*
X74765918Y-93148602D01*
X74431831Y-93371831D01*
X74208602Y-93705918D01*
X74130214Y-94100000D01*
X74208602Y-94494082D01*
X74275000Y-94593454D01*
X74275000Y-95246255D01*
X74361161Y-95679417D01*
X74689375Y-96170625D01*
X75180582Y-96498839D01*
X75760000Y-96614092D01*
X76339417Y-96498839D01*
X76625000Y-96308019D01*
X76625000Y-96745657D01*
X76813018Y-97199571D01*
X77160429Y-97546982D01*
X77614343Y-97735000D01*
X78105657Y-97735000D01*
X78559571Y-97546982D01*
X78906982Y-97199571D01*
X79095000Y-96745657D01*
X79095000Y-96491857D01*
X79129472Y-96485000D01*
X81786645Y-96485000D01*
X82610482Y-97308837D01*
X82666831Y-97393169D01*
X83000918Y-97616399D01*
X83295524Y-97675000D01*
X83295528Y-97675000D01*
X83394999Y-97694786D01*
X83494470Y-97675000D01*
X83555018Y-97675000D01*
X83687191Y-97872809D01*
X83787749Y-97940000D01*
X77202484Y-97940000D01*
X77158839Y-97720582D01*
X76830625Y-97229375D01*
X76339418Y-96901161D01*
X75760000Y-96785908D01*
X75180583Y-96901161D01*
X74689375Y-97229375D01*
X74361161Y-97720582D01*
X74275000Y-98153744D01*
X74275000Y-99246255D01*
X74361161Y-99679417D01*
X74689375Y-100170625D01*
X74733338Y-100200000D01*
X74689375Y-100229375D01*
X74361161Y-100720582D01*
X74277734Y-101140000D01*
X73098430Y-101140000D01*
X73076534Y-101087138D01*
X72757440Y-100768044D01*
X72757440Y-100664965D01*
X72917809Y-100557809D01*
X73058157Y-100347765D01*
X73107440Y-100100000D01*
X73107440Y-98600000D01*
X73058157Y-98352235D01*
X72917809Y-98142191D01*
X72707765Y-98001843D01*
X72698500Y-98000000D01*
X72707765Y-97998157D01*
X72917809Y-97857809D01*
X73058157Y-97647765D01*
X73107440Y-97400000D01*
X73107440Y-95900000D01*
X73058157Y-95652235D01*
X72917809Y-95442191D01*
X72757440Y-95335035D01*
X72757440Y-95231956D01*
X73076534Y-94912862D01*
X73295000Y-94385439D01*
X73295000Y-93814561D01*
X73076534Y-93287138D01*
X72672862Y-92883466D01*
X72164753Y-92673000D01*
X78475000Y-92673000D01*
X78475000Y-93073000D01*
X79833000Y-93073000D01*
X79833000Y-91479845D01*
X80087000Y-91479845D01*
X80087000Y-93073000D01*
X81445000Y-93073000D01*
X81445000Y-92673000D01*
X81283360Y-92114382D01*
X80920251Y-91660144D01*
X80410952Y-91379438D01*
X80316890Y-91358524D01*
X80087000Y-91479845D01*
X79833000Y-91479845D01*
X79603110Y-91358524D01*
X79509048Y-91379438D01*
X78999749Y-91660144D01*
X78636640Y-92114382D01*
X78475000Y-92673000D01*
X72164753Y-92673000D01*
X72145439Y-92665000D01*
X71853356Y-92665000D01*
X70330000Y-91141645D01*
X70330000Y-90529396D01*
X70341651Y-90517745D01*
X71031861Y-90517745D01*
X71105995Y-90763864D01*
X71643223Y-90956965D01*
X72213454Y-90929778D01*
X72614005Y-90763864D01*
X72688139Y-90517745D01*
X71860000Y-89689605D01*
X71031861Y-90517745D01*
X70341651Y-90517745D01*
X70536534Y-90322862D01*
X70583525Y-90209417D01*
X70606136Y-90264005D01*
X70852255Y-90338139D01*
X71680395Y-89510000D01*
X70852255Y-88681861D01*
X70606136Y-88755995D01*
X70585126Y-88814448D01*
X70536534Y-88697138D01*
X70132862Y-88293466D01*
X69605439Y-88075000D01*
X69034561Y-88075000D01*
X68507138Y-88293466D01*
X68103466Y-88697138D01*
X68050000Y-88826216D01*
X67996534Y-88697138D01*
X67592862Y-88293466D01*
X67065439Y-88075000D01*
X66494561Y-88075000D01*
X65967138Y-88293466D01*
X65563466Y-88697138D01*
X65510000Y-88826216D01*
X65456534Y-88697138D01*
X65052862Y-88293466D01*
X64923784Y-88240000D01*
X65052862Y-88186534D01*
X65456534Y-87782862D01*
X65675000Y-87255439D01*
X65675000Y-86684561D01*
X65456534Y-86157138D01*
X65052862Y-85753466D01*
X64923784Y-85700000D01*
X65052862Y-85646534D01*
X65456534Y-85242862D01*
X65675000Y-84715439D01*
X65675000Y-84144561D01*
X65456534Y-83617138D01*
X65052862Y-83213466D01*
X64923784Y-83160000D01*
X65052862Y-83106534D01*
X65456534Y-82702862D01*
X65675000Y-82175439D01*
X65675000Y-81604561D01*
X65456534Y-81077138D01*
X65052862Y-80673466D01*
X64923784Y-80620000D01*
X65052862Y-80566534D01*
X65456534Y-80162862D01*
X65675000Y-79635439D01*
X65675000Y-79064561D01*
X65456534Y-78537138D01*
X65052862Y-78133466D01*
X64923784Y-78080000D01*
X65052862Y-78026534D01*
X65456534Y-77622862D01*
X65675000Y-77095439D01*
X65675000Y-76524561D01*
X65456534Y-75997138D01*
X65052862Y-75593466D01*
X64923784Y-75540000D01*
X65052862Y-75486534D01*
X65456534Y-75082862D01*
X65675000Y-74555439D01*
X65675000Y-73984561D01*
X65456534Y-73457138D01*
X65052862Y-73053466D01*
X64923784Y-73000000D01*
X65052862Y-72946534D01*
X65456534Y-72542862D01*
X65675000Y-72015439D01*
X65675000Y-71444561D01*
X65456534Y-70917138D01*
X65052862Y-70513466D01*
X64923784Y-70460000D01*
X65052862Y-70406534D01*
X65456534Y-70002862D01*
X65675000Y-69475439D01*
X65675000Y-68904561D01*
X65456534Y-68377138D01*
X65052862Y-67973466D01*
X64923784Y-67920000D01*
X65052862Y-67866534D01*
X65456534Y-67462862D01*
X65675000Y-66935439D01*
X65675000Y-66364561D01*
X65662641Y-66334724D01*
X70275000Y-66334724D01*
X70275000Y-66965276D01*
X70516302Y-67547830D01*
X70962170Y-67993698D01*
X71544724Y-68235000D01*
X72175276Y-68235000D01*
X72757830Y-67993698D01*
X73203698Y-67547830D01*
X73445000Y-66965276D01*
X73445000Y-66334724D01*
X73203698Y-65752170D01*
X72757830Y-65306302D01*
X72175276Y-65065000D01*
X71544724Y-65065000D01*
X70962170Y-65306302D01*
X70516302Y-65752170D01*
X70275000Y-66334724D01*
X65662641Y-66334724D01*
X65653103Y-66311698D01*
X69440077Y-62524724D01*
X70275000Y-62524724D01*
X70275000Y-63155276D01*
X70516302Y-63737830D01*
X70962170Y-64183698D01*
X71544724Y-64425000D01*
X72175276Y-64425000D01*
X72757830Y-64183698D01*
X73203698Y-63737830D01*
X73445000Y-63155276D01*
X73445000Y-62524724D01*
X73203698Y-61942170D01*
X72757830Y-61496302D01*
X72175276Y-61255000D01*
X71544724Y-61255000D01*
X70962170Y-61496302D01*
X70516302Y-61942170D01*
X70275000Y-62524724D01*
X69440077Y-62524724D01*
X73220240Y-58744561D01*
X75505000Y-58744561D01*
X75505000Y-59315439D01*
X75723466Y-59842862D01*
X76127138Y-60246534D01*
X76654561Y-60465000D01*
X77225439Y-60465000D01*
X77752862Y-60246534D01*
X78156534Y-59842862D01*
X78203525Y-59729417D01*
X78226136Y-59784005D01*
X78472255Y-59858139D01*
X79300395Y-59030000D01*
X79659605Y-59030000D01*
X80487745Y-59858139D01*
X80733864Y-59784005D01*
X80926965Y-59246777D01*
X80899778Y-58676546D01*
X80733864Y-58275995D01*
X80487745Y-58201861D01*
X79659605Y-59030000D01*
X79300395Y-59030000D01*
X78472255Y-58201861D01*
X78226136Y-58275995D01*
X78205126Y-58334448D01*
X78156534Y-58217138D01*
X77752862Y-57813466D01*
X77225439Y-57595000D01*
X76654561Y-57595000D01*
X76127138Y-57813466D01*
X75723466Y-58217138D01*
X75505000Y-58744561D01*
X73220240Y-58744561D01*
X75760240Y-56204561D01*
X78045000Y-56204561D01*
X78045000Y-56775439D01*
X78263466Y-57302862D01*
X78667138Y-57706534D01*
X78780583Y-57753525D01*
X78725995Y-57776136D01*
X78651861Y-58022255D01*
X79480000Y-58850395D01*
X80308139Y-58022255D01*
X80234005Y-57776136D01*
X80175552Y-57755126D01*
X80292862Y-57706534D01*
X80696534Y-57302862D01*
X80915000Y-56775439D01*
X80915000Y-56204561D01*
X80696534Y-55677138D01*
X80292862Y-55273466D01*
X79765439Y-55055000D01*
X79194561Y-55055000D01*
X78667138Y-55273466D01*
X78263466Y-55677138D01*
X78045000Y-56204561D01*
X75760240Y-56204561D01*
X77639802Y-54325000D01*
X81890199Y-54325000D01*
X83355001Y-55789803D01*
X83355001Y-55927560D01*
X83315000Y-55927560D01*
X83067235Y-55976843D01*
X82857191Y-56117191D01*
X82716843Y-56327235D01*
X82667560Y-56575000D01*
X82667560Y-58175000D01*
X82716843Y-58422765D01*
X82857191Y-58632809D01*
X82875436Y-58645000D01*
X82857191Y-58657191D01*
X82716843Y-58867235D01*
X82667560Y-59115000D01*
X82667560Y-60715000D01*
X82716843Y-60962765D01*
X82857191Y-61172809D01*
X82875436Y-61185000D01*
X82857191Y-61197191D01*
X82716843Y-61407235D01*
X82667560Y-61655000D01*
X82667560Y-63255000D01*
X82716843Y-63502765D01*
X82857191Y-63712809D01*
X82875436Y-63725000D01*
X82857191Y-63737191D01*
X82716843Y-63947235D01*
X82667560Y-64195000D01*
X82667560Y-65795000D01*
X82716843Y-66042765D01*
X82857191Y-66252809D01*
X83067235Y-66393157D01*
X83315000Y-66442440D01*
X84915000Y-66442440D01*
X85162765Y-66393157D01*
X85372809Y-66252809D01*
X85460377Y-66121756D01*
X85567235Y-66193157D01*
X85815000Y-66242440D01*
X87415000Y-66242440D01*
X87662765Y-66193157D01*
X87872809Y-66052809D01*
X88013157Y-65842765D01*
X88015000Y-65833500D01*
X88016843Y-65842765D01*
X88157191Y-66052809D01*
X88367235Y-66193157D01*
X88615000Y-66242440D01*
X90215000Y-66242440D01*
X90462765Y-66193157D01*
X90672809Y-66052809D01*
X90779965Y-65892440D01*
X90783044Y-65892440D01*
X91102138Y-66211534D01*
X91629561Y-66430000D01*
X92200439Y-66430000D01*
X92727862Y-66211534D01*
X93131534Y-65807862D01*
X93350000Y-65280439D01*
X93350000Y-64709561D01*
X93131534Y-64182138D01*
X92727862Y-63778466D01*
X92598784Y-63725000D01*
X92727862Y-63671534D01*
X93131534Y-63267862D01*
X93350000Y-62740439D01*
X93350000Y-62169561D01*
X93131534Y-61642138D01*
X92727862Y-61238466D01*
X92598784Y-61185000D01*
X92727862Y-61131534D01*
X93131534Y-60727862D01*
X93350000Y-60200439D01*
X93350000Y-59629561D01*
X93131534Y-59102138D01*
X92727862Y-58698466D01*
X92598784Y-58645000D01*
X92727862Y-58591534D01*
X93131534Y-58187862D01*
X93350000Y-57660439D01*
X93350000Y-57089561D01*
X93328103Y-57036698D01*
X94134802Y-56230000D01*
X95900973Y-56230000D01*
X95775000Y-56534126D01*
X95775000Y-56945874D01*
X95932569Y-57326280D01*
X96050000Y-57443711D01*
X96050001Y-59640162D01*
X96001843Y-59712235D01*
X95952560Y-59960000D01*
X95952560Y-61532639D01*
X95915528Y-61569671D01*
X95852072Y-61612071D01*
X95809672Y-61675527D01*
X95809671Y-61675528D01*
X95684097Y-61863463D01*
X95625112Y-62160000D01*
X95640001Y-62234852D01*
X95640000Y-65552560D01*
X95400000Y-65552560D01*
X95152235Y-65601843D01*
X94942191Y-65742191D01*
X94801843Y-65952235D01*
X94752560Y-66200000D01*
X94752560Y-68200000D01*
X94801843Y-68447765D01*
X94942191Y-68657809D01*
X95152235Y-68798157D01*
X95400000Y-68847440D01*
X96840001Y-68847440D01*
X96840000Y-78362560D01*
X96600000Y-78362560D01*
X96352235Y-78411843D01*
X96142191Y-78552191D01*
X96001843Y-78762235D01*
X95952560Y-79010000D01*
X95952560Y-80582639D01*
X95915528Y-80619671D01*
X95852072Y-80662071D01*
X95809672Y-80725527D01*
X95809671Y-80725528D01*
X95684097Y-80913463D01*
X95625112Y-81210000D01*
X95640001Y-81284852D01*
X95640000Y-84602560D01*
X95400000Y-84602560D01*
X95152235Y-84651843D01*
X94942191Y-84792191D01*
X94801843Y-85002235D01*
X94752560Y-85250000D01*
X94752560Y-87250000D01*
X94801843Y-87497765D01*
X94942191Y-87707809D01*
X95152235Y-87848157D01*
X95400000Y-87897440D01*
X97400000Y-87897440D01*
X97647765Y-87848157D01*
X97857809Y-87707809D01*
X97890115Y-87659461D01*
X98290620Y-88059966D01*
X99075322Y-88385000D01*
X99924678Y-88385000D01*
X100709380Y-88059966D01*
X101309966Y-87459380D01*
X101635000Y-86674678D01*
X101635000Y-85825322D01*
X101309966Y-85040620D01*
X100709380Y-84440034D01*
X99924678Y-84115000D01*
X99363560Y-84115000D01*
X99556697Y-84035000D01*
X99715385Y-84035000D01*
X100261185Y-83808922D01*
X100678922Y-83391185D01*
X100905000Y-82845385D01*
X100905000Y-82254615D01*
X100859596Y-82145000D01*
X101114678Y-82145000D01*
X101899380Y-81819966D01*
X101986283Y-81733063D01*
X101865000Y-82025866D01*
X101865000Y-83074134D01*
X102266155Y-84042608D01*
X103007392Y-84783845D01*
X103975866Y-85185000D01*
X105024134Y-85185000D01*
X105992608Y-84783845D01*
X106733845Y-84042608D01*
X107135000Y-83074134D01*
X107135000Y-82025866D01*
X106733845Y-81057392D01*
X105992608Y-80316155D01*
X105024134Y-79915000D01*
X103975866Y-79915000D01*
X103007392Y-80316155D01*
X102779838Y-80543709D01*
X102825000Y-80434678D01*
X102825000Y-79585322D01*
X102499966Y-78800620D01*
X101899380Y-78200034D01*
X101114678Y-77875000D01*
X100265322Y-77875000D01*
X99480620Y-78200034D01*
X99086109Y-78594545D01*
X99057809Y-78552191D01*
X98847765Y-78411843D01*
X98600000Y-78362560D01*
X98360000Y-78362560D01*
X98360000Y-74834514D01*
X98472569Y-75106280D01*
X98763720Y-75397431D01*
X99144126Y-75555000D01*
X99555874Y-75555000D01*
X99936280Y-75397431D01*
X100053711Y-75280000D01*
X108560199Y-75280000D01*
X109102758Y-75822560D01*
X109100000Y-75822560D01*
X108852235Y-75871843D01*
X108642191Y-76012191D01*
X108625907Y-76036561D01*
X108249380Y-75660034D01*
X107464678Y-75335000D01*
X106615322Y-75335000D01*
X105830620Y-75660034D01*
X105230034Y-76260620D01*
X104905000Y-77045322D01*
X104905000Y-77894678D01*
X105230034Y-78679380D01*
X105830620Y-79279966D01*
X106615322Y-79605000D01*
X107464678Y-79605000D01*
X108249380Y-79279966D01*
X108625907Y-78903439D01*
X108642191Y-78927809D01*
X108852235Y-79068157D01*
X109100000Y-79117440D01*
X110492638Y-79117440D01*
X111290000Y-79914803D01*
X111290000Y-81598472D01*
X110897830Y-81206302D01*
X110315276Y-80965000D01*
X109684724Y-80965000D01*
X109443303Y-81065000D01*
X109284615Y-81065000D01*
X108738815Y-81291078D01*
X108321078Y-81708815D01*
X108095000Y-82254615D01*
X108095000Y-82845385D01*
X108321078Y-83391185D01*
X108738815Y-83808922D01*
X109284615Y-84035000D01*
X109443303Y-84035000D01*
X109684724Y-84135000D01*
X110315276Y-84135000D01*
X110897830Y-83893698D01*
X111290001Y-83501527D01*
X111290001Y-85635197D01*
X109235199Y-87690000D01*
X108897440Y-87690000D01*
X108897440Y-87450000D01*
X108848157Y-87202235D01*
X108707809Y-86992191D01*
X108497765Y-86851843D01*
X108250000Y-86802560D01*
X106350000Y-86802560D01*
X106102235Y-86851843D01*
X105993706Y-86924360D01*
X105709380Y-86640034D01*
X104924678Y-86315000D01*
X104075322Y-86315000D01*
X103290620Y-86640034D01*
X102690034Y-87240620D01*
X102365000Y-88025322D01*
X102365000Y-88874678D01*
X102690034Y-89659380D01*
X103290620Y-90259966D01*
X104075322Y-90585000D01*
X104924678Y-90585000D01*
X105709380Y-90259966D01*
X105993706Y-89975640D01*
X106102235Y-90048157D01*
X106350000Y-90097440D01*
X108250000Y-90097440D01*
X108497765Y-90048157D01*
X108707809Y-89907809D01*
X108848157Y-89697765D01*
X108897440Y-89450000D01*
X108897440Y-89210000D01*
X109475153Y-89210000D01*
X109550000Y-89224888D01*
X109624847Y-89210000D01*
X109624852Y-89210000D01*
X109846537Y-89165904D01*
X110097929Y-88997929D01*
X110140331Y-88934470D01*
X112534473Y-86540329D01*
X112597929Y-86497929D01*
X112765904Y-86246537D01*
X112810000Y-86024852D01*
X112810000Y-86024847D01*
X112824888Y-85950000D01*
X112810000Y-85875153D01*
X112810000Y-79674846D01*
X112824888Y-79599999D01*
X112810000Y-79525152D01*
X112810000Y-79525148D01*
X112765904Y-79303463D01*
X112720233Y-79235112D01*
X112640329Y-79115526D01*
X112640327Y-79115524D01*
X112597929Y-79052071D01*
X112534476Y-79009673D01*
X111747440Y-78222638D01*
X111747440Y-76470000D01*
X111698157Y-76222235D01*
X111557809Y-76012191D01*
X111347765Y-75871843D01*
X111100000Y-75822560D01*
X110860000Y-75822560D01*
X110860000Y-75819848D01*
X110874888Y-75745000D01*
X110860000Y-75670152D01*
X110860000Y-75670148D01*
X110815904Y-75448463D01*
X110647929Y-75197071D01*
X110584473Y-75154671D01*
X109465331Y-74035530D01*
X109422929Y-73972071D01*
X109171537Y-73804096D01*
X108949852Y-73760000D01*
X108949847Y-73760000D01*
X108875000Y-73745112D01*
X108800153Y-73760000D01*
X100053711Y-73760000D01*
X99936280Y-73642569D01*
X99555874Y-73485000D01*
X99144126Y-73485000D01*
X98763720Y-73642569D01*
X98472569Y-73933720D01*
X98360000Y-74205486D01*
X98360000Y-69038704D01*
X99075322Y-69335000D01*
X99924678Y-69335000D01*
X100709380Y-69009966D01*
X101309966Y-68409380D01*
X101635000Y-67624678D01*
X101635000Y-66775322D01*
X101309966Y-65990620D01*
X100709380Y-65390034D01*
X99924678Y-65065000D01*
X99363560Y-65065000D01*
X99556697Y-64985000D01*
X99715385Y-64985000D01*
X100261185Y-64758922D01*
X100678922Y-64341185D01*
X100905000Y-63795385D01*
X100905000Y-63204615D01*
X100859596Y-63095000D01*
X101114678Y-63095000D01*
X101899380Y-62769966D01*
X101986283Y-62683063D01*
X101865000Y-62975866D01*
X101865000Y-64024134D01*
X102266155Y-64992608D01*
X103007392Y-65733845D01*
X103975866Y-66135000D01*
X105024134Y-66135000D01*
X105992608Y-65733845D01*
X106733845Y-64992608D01*
X107135000Y-64024134D01*
X107135000Y-62975866D01*
X106733845Y-62007392D01*
X105992608Y-61266155D01*
X105024134Y-60865000D01*
X103975866Y-60865000D01*
X103007392Y-61266155D01*
X102779838Y-61493709D01*
X102825000Y-61384678D01*
X102825000Y-60535322D01*
X102499966Y-59750620D01*
X101899380Y-59150034D01*
X101114678Y-58825000D01*
X100265322Y-58825000D01*
X99480620Y-59150034D01*
X99086109Y-59544545D01*
X99057809Y-59502191D01*
X98847765Y-59361843D01*
X98600000Y-59312560D01*
X97570000Y-59312560D01*
X97570000Y-57443711D01*
X97687431Y-57326280D01*
X97845000Y-56945874D01*
X97845000Y-56534126D01*
X97719027Y-56230000D01*
X108560199Y-56230000D01*
X109102758Y-56772560D01*
X109100000Y-56772560D01*
X108852235Y-56821843D01*
X108642191Y-56962191D01*
X108625907Y-56986561D01*
X108249380Y-56610034D01*
X107464678Y-56285000D01*
X106615322Y-56285000D01*
X105830620Y-56610034D01*
X105230034Y-57210620D01*
X104905000Y-57995322D01*
X104905000Y-58844678D01*
X105230034Y-59629380D01*
X105830620Y-60229966D01*
X106615322Y-60555000D01*
X107464678Y-60555000D01*
X108249380Y-60229966D01*
X108625907Y-59853439D01*
X108642191Y-59877809D01*
X108852235Y-60018157D01*
X109100000Y-60067440D01*
X110492638Y-60067440D01*
X111290000Y-60864803D01*
X111290000Y-62548472D01*
X110897830Y-62156302D01*
X110315276Y-61915000D01*
X109684724Y-61915000D01*
X109443303Y-62015000D01*
X109284615Y-62015000D01*
X108738815Y-62241078D01*
X108321078Y-62658815D01*
X108095000Y-63204615D01*
X108095000Y-63795385D01*
X108321078Y-64341185D01*
X108738815Y-64758922D01*
X109284615Y-64985000D01*
X109443303Y-64985000D01*
X109684724Y-65085000D01*
X110315276Y-65085000D01*
X110897830Y-64843698D01*
X111290001Y-64451527D01*
X111290001Y-66585197D01*
X109235199Y-68640000D01*
X108897440Y-68640000D01*
X108897440Y-68400000D01*
X108848157Y-68152235D01*
X108707809Y-67942191D01*
X108497765Y-67801843D01*
X108250000Y-67752560D01*
X106350000Y-67752560D01*
X106102235Y-67801843D01*
X105993706Y-67874360D01*
X105709380Y-67590034D01*
X104924678Y-67265000D01*
X104075322Y-67265000D01*
X103290620Y-67590034D01*
X102690034Y-68190620D01*
X102365000Y-68975322D01*
X102365000Y-69824678D01*
X102690034Y-70609380D01*
X103290620Y-71209966D01*
X104075322Y-71535000D01*
X104924678Y-71535000D01*
X105709380Y-71209966D01*
X105993706Y-70925640D01*
X106102235Y-70998157D01*
X106350000Y-71047440D01*
X108250000Y-71047440D01*
X108497765Y-70998157D01*
X108707809Y-70857809D01*
X108848157Y-70647765D01*
X108897440Y-70400000D01*
X108897440Y-70160000D01*
X109475153Y-70160000D01*
X109550000Y-70174888D01*
X109624847Y-70160000D01*
X109624852Y-70160000D01*
X109846537Y-70115904D01*
X110097929Y-69947929D01*
X110140331Y-69884470D01*
X112534473Y-67490329D01*
X112597929Y-67447929D01*
X112765904Y-67196537D01*
X112810000Y-66974852D01*
X112810000Y-66974847D01*
X112824888Y-66900000D01*
X112810000Y-66825153D01*
X112810000Y-60624846D01*
X112824888Y-60549999D01*
X112810000Y-60475152D01*
X112810000Y-60475148D01*
X112765904Y-60253463D01*
X112706795Y-60165000D01*
X112640329Y-60065526D01*
X112640327Y-60065524D01*
X112597929Y-60002071D01*
X112534476Y-59959673D01*
X111747440Y-59172638D01*
X111747440Y-57420000D01*
X111698157Y-57172235D01*
X111557809Y-56962191D01*
X111347765Y-56821843D01*
X111100000Y-56772560D01*
X110860000Y-56772560D01*
X110860000Y-56769848D01*
X110874888Y-56695000D01*
X110860000Y-56620152D01*
X110860000Y-56620148D01*
X110815904Y-56398463D01*
X110647929Y-56147071D01*
X110584473Y-56104671D01*
X109465331Y-54985530D01*
X109422929Y-54922071D01*
X109171537Y-54754096D01*
X108949852Y-54710000D01*
X108949847Y-54710000D01*
X108875000Y-54695112D01*
X108800153Y-54710000D01*
X93894848Y-54710000D01*
X93820000Y-54695112D01*
X93745152Y-54710000D01*
X93745148Y-54710000D01*
X93571605Y-54744520D01*
X93523462Y-54754096D01*
X93385672Y-54846165D01*
X93272071Y-54922071D01*
X93229671Y-54985527D01*
X92253302Y-55961897D01*
X92200439Y-55940000D01*
X91629561Y-55940000D01*
X91102138Y-56158466D01*
X90783044Y-56477560D01*
X90779965Y-56477560D01*
X90672809Y-56317191D01*
X90462765Y-56176843D01*
X90215000Y-56127560D01*
X88615000Y-56127560D01*
X88367235Y-56176843D01*
X88157191Y-56317191D01*
X88016843Y-56527235D01*
X88015000Y-56536500D01*
X88013157Y-56527235D01*
X87872809Y-56317191D01*
X87662765Y-56176843D01*
X87415000Y-56127560D01*
X85815000Y-56127560D01*
X85567235Y-56176843D01*
X85460377Y-56248244D01*
X85372809Y-56117191D01*
X85162765Y-55976843D01*
X84915000Y-55927560D01*
X84875000Y-55927560D01*
X84875000Y-55549847D01*
X84889888Y-55475000D01*
X84875000Y-55400153D01*
X84875000Y-55400148D01*
X84830904Y-55178463D01*
X84662929Y-54927071D01*
X84599473Y-54884671D01*
X82795331Y-53080530D01*
X82752929Y-53017071D01*
X82501537Y-52849096D01*
X82279852Y-52805000D01*
X82279847Y-52805000D01*
X82205000Y-52790112D01*
X82130153Y-52805000D01*
X77399846Y-52805000D01*
X77324999Y-52790112D01*
X77250152Y-52805000D01*
X77250148Y-52805000D01*
X77028463Y-52849096D01*
X76777071Y-53017071D01*
X76734671Y-53080527D01*
X65675000Y-64140199D01*
X65675000Y-63824561D01*
X65456534Y-63297138D01*
X65052862Y-62893466D01*
X64923784Y-62840000D01*
X65052862Y-62786534D01*
X65456534Y-62382862D01*
X65675000Y-61855439D01*
X65675000Y-61284561D01*
X65456534Y-60757138D01*
X65052862Y-60353466D01*
X64923784Y-60300000D01*
X65052862Y-60246534D01*
X65456534Y-59842862D01*
X65675000Y-59315439D01*
X65675000Y-58744561D01*
X65456534Y-58217138D01*
X65164396Y-57925000D01*
X65166310Y-57925000D01*
X65399699Y-57828327D01*
X65578327Y-57649698D01*
X65675000Y-57416309D01*
X65675000Y-56775750D01*
X65516250Y-56617000D01*
X64367000Y-56617000D01*
X64367000Y-56637000D01*
X64113000Y-56637000D01*
X64113000Y-56617000D01*
X62963750Y-56617000D01*
X62805000Y-56775750D01*
X62805000Y-57416309D01*
X62901673Y-57649698D01*
X63080301Y-57828327D01*
X63313690Y-57925000D01*
X63315604Y-57925000D01*
X63023466Y-58217138D01*
X62805000Y-58744561D01*
X62805000Y-59315439D01*
X63023466Y-59842862D01*
X63427138Y-60246534D01*
X63556216Y-60300000D01*
X63427138Y-60353466D01*
X63023466Y-60757138D01*
X62805000Y-61284561D01*
X62805000Y-61855439D01*
X63023466Y-62382862D01*
X63427138Y-62786534D01*
X63556216Y-62840000D01*
X63427138Y-62893466D01*
X63023466Y-63297138D01*
X62805000Y-63824561D01*
X62805000Y-64395439D01*
X63023466Y-64922862D01*
X63427138Y-65326534D01*
X63556216Y-65380000D01*
X63427138Y-65433466D01*
X63023466Y-65837138D01*
X62805000Y-66364561D01*
X62805000Y-66935439D01*
X63023466Y-67462862D01*
X63427138Y-67866534D01*
X63556216Y-67920000D01*
X63427138Y-67973466D01*
X63023466Y-68377138D01*
X62805000Y-68904561D01*
X62805000Y-69220198D01*
X60740000Y-67155199D01*
X60740000Y-55784801D01*
X60961110Y-55563691D01*
X62805000Y-55563691D01*
X62805000Y-56204250D01*
X62963750Y-56363000D01*
X64113000Y-56363000D01*
X64113000Y-55213750D01*
X64367000Y-55213750D01*
X64367000Y-56363000D01*
X65516250Y-56363000D01*
X65675000Y-56204250D01*
X65675000Y-55563691D01*
X65578327Y-55330302D01*
X65399699Y-55151673D01*
X65166310Y-55055000D01*
X64525750Y-55055000D01*
X64367000Y-55213750D01*
X64113000Y-55213750D01*
X63954250Y-55055000D01*
X63313690Y-55055000D01*
X63080301Y-55151673D01*
X62901673Y-55330302D01*
X62805000Y-55563691D01*
X60961110Y-55563691D01*
X64104802Y-52420000D01*
X111100199Y-52420000D01*
X115890000Y-57209802D01*
X115890001Y-59312560D01*
X115650000Y-59312560D01*
X115402235Y-59361843D01*
X115192191Y-59502191D01*
X115051843Y-59712235D01*
X115002560Y-59960000D01*
X115002560Y-61532639D01*
X114965528Y-61569671D01*
X114902072Y-61612071D01*
X114859672Y-61675527D01*
X114859671Y-61675528D01*
X114734097Y-61863463D01*
X114675112Y-62160000D01*
X114690001Y-62234852D01*
X114690000Y-65552560D01*
X114450000Y-65552560D01*
X114202235Y-65601843D01*
X113992191Y-65742191D01*
X113851843Y-65952235D01*
X113802560Y-66200000D01*
X113802560Y-68200000D01*
X113851843Y-68447765D01*
X113992191Y-68657809D01*
X114202235Y-68798157D01*
X114450000Y-68847440D01*
X115890001Y-68847440D01*
X115890000Y-78362560D01*
X115650000Y-78362560D01*
X115402235Y-78411843D01*
X115192191Y-78552191D01*
X115051843Y-78762235D01*
X115002560Y-79010000D01*
X115002560Y-80582639D01*
X114965528Y-80619671D01*
X114902072Y-80662071D01*
X114859672Y-80725527D01*
X114859671Y-80725528D01*
X114734097Y-80913463D01*
X114675112Y-81210000D01*
X114690001Y-81284852D01*
X114690000Y-84602560D01*
X114450000Y-84602560D01*
X114202235Y-84651843D01*
X113992191Y-84792191D01*
X113851843Y-85002235D01*
X113802560Y-85250000D01*
X113802560Y-87250000D01*
X113851843Y-87497765D01*
X113992191Y-87707809D01*
X114202235Y-87848157D01*
X114450000Y-87897440D01*
X116450000Y-87897440D01*
X116697765Y-87848157D01*
X116907809Y-87707809D01*
X116940115Y-87659461D01*
X117340620Y-88059966D01*
X118125322Y-88385000D01*
X118974678Y-88385000D01*
X119759380Y-88059966D01*
X120359966Y-87459380D01*
X120685000Y-86674678D01*
X120685000Y-85825322D01*
X120359966Y-85040620D01*
X119759380Y-84440034D01*
X118974678Y-84115000D01*
X118413560Y-84115000D01*
X118606697Y-84035000D01*
X118765385Y-84035000D01*
X119311185Y-83808922D01*
X119728922Y-83391185D01*
X119955000Y-82845385D01*
X119955000Y-82254615D01*
X119909596Y-82145000D01*
X120164678Y-82145000D01*
X120949380Y-81819966D01*
X121036283Y-81733063D01*
X120915000Y-82025866D01*
X120915000Y-83074134D01*
X121316155Y-84042608D01*
X122057392Y-84783845D01*
X123025866Y-85185000D01*
X124074134Y-85185000D01*
X125042608Y-84783845D01*
X125783845Y-84042608D01*
X126185000Y-83074134D01*
X126185000Y-82025866D01*
X125783845Y-81057392D01*
X125042608Y-80316155D01*
X124074134Y-79915000D01*
X123025866Y-79915000D01*
X122057392Y-80316155D01*
X121829838Y-80543709D01*
X121875000Y-80434678D01*
X121875000Y-79585322D01*
X121549966Y-78800620D01*
X120949380Y-78200034D01*
X120164678Y-77875000D01*
X119315322Y-77875000D01*
X118530620Y-78200034D01*
X118136109Y-78594545D01*
X118107809Y-78552191D01*
X117897765Y-78411843D01*
X117650000Y-78362560D01*
X117410000Y-78362560D01*
X117410000Y-73564524D01*
X117522569Y-73836290D01*
X117813720Y-74127441D01*
X118194126Y-74285010D01*
X118605874Y-74285010D01*
X118986280Y-74127441D01*
X119103731Y-74009990D01*
X125865189Y-74009990D01*
X127797214Y-75942016D01*
X127692191Y-76012191D01*
X127675907Y-76036561D01*
X127299380Y-75660034D01*
X126514678Y-75335000D01*
X125665322Y-75335000D01*
X124880620Y-75660034D01*
X124280034Y-76260620D01*
X123955000Y-77045322D01*
X123955000Y-77894678D01*
X124280034Y-78679380D01*
X124880620Y-79279966D01*
X125665322Y-79605000D01*
X126514678Y-79605000D01*
X127299380Y-79279966D01*
X127675907Y-78903439D01*
X127692191Y-78927809D01*
X127902235Y-79068157D01*
X128150000Y-79117440D01*
X129542638Y-79117440D01*
X130340001Y-79914804D01*
X130340001Y-81598473D01*
X129947830Y-81206302D01*
X129365276Y-80965000D01*
X128734724Y-80965000D01*
X128493303Y-81065000D01*
X128334615Y-81065000D01*
X127788815Y-81291078D01*
X127371078Y-81708815D01*
X127145000Y-82254615D01*
X127145000Y-82845385D01*
X127371078Y-83391185D01*
X127788815Y-83808922D01*
X128334615Y-84035000D01*
X128493303Y-84035000D01*
X128734724Y-84135000D01*
X129365276Y-84135000D01*
X129947830Y-83893698D01*
X130340000Y-83501528D01*
X130340000Y-86270197D01*
X128920199Y-87690000D01*
X127947440Y-87690000D01*
X127947440Y-87450000D01*
X127898157Y-87202235D01*
X127757809Y-86992191D01*
X127547765Y-86851843D01*
X127300000Y-86802560D01*
X125400000Y-86802560D01*
X125152235Y-86851843D01*
X125043706Y-86924360D01*
X124759380Y-86640034D01*
X123974678Y-86315000D01*
X123125322Y-86315000D01*
X122340620Y-86640034D01*
X121740034Y-87240620D01*
X121415000Y-88025322D01*
X121415000Y-88874678D01*
X121740034Y-89659380D01*
X122340620Y-90259966D01*
X123125322Y-90585000D01*
X123974678Y-90585000D01*
X124759380Y-90259966D01*
X125043706Y-89975640D01*
X125152235Y-90048157D01*
X125400000Y-90097440D01*
X127300000Y-90097440D01*
X127547765Y-90048157D01*
X127757809Y-89907809D01*
X127898157Y-89697765D01*
X127947440Y-89450000D01*
X127947440Y-89210000D01*
X129160153Y-89210000D01*
X129235000Y-89224888D01*
X129309847Y-89210000D01*
X129309852Y-89210000D01*
X129531537Y-89165904D01*
X129782929Y-88997929D01*
X129825331Y-88934470D01*
X131584476Y-87175327D01*
X131647929Y-87132929D01*
X131690327Y-87069476D01*
X131690329Y-87069474D01*
X131815903Y-86881538D01*
X131815904Y-86881537D01*
X131860000Y-86659852D01*
X131860000Y-86659848D01*
X131874888Y-86585001D01*
X131860000Y-86510154D01*
X131860000Y-79674846D01*
X131874888Y-79599999D01*
X131860000Y-79525152D01*
X131860000Y-79525148D01*
X131815904Y-79303463D01*
X131770233Y-79235112D01*
X131690329Y-79115526D01*
X131690327Y-79115524D01*
X131647929Y-79052071D01*
X131584476Y-79009673D01*
X130797440Y-78222638D01*
X130797440Y-76470000D01*
X130748157Y-76222235D01*
X130607809Y-76012191D01*
X130397765Y-75871843D01*
X130150000Y-75822560D01*
X129798483Y-75822560D01*
X129742771Y-75739181D01*
X129740329Y-75735526D01*
X129740327Y-75735524D01*
X129697929Y-75672071D01*
X129634476Y-75629673D01*
X126770321Y-72765520D01*
X126727919Y-72702061D01*
X126476527Y-72534086D01*
X126254842Y-72489990D01*
X126254837Y-72489990D01*
X126179990Y-72475102D01*
X126105143Y-72489990D01*
X124384811Y-72489990D01*
X125827362Y-71047440D01*
X127300000Y-71047440D01*
X127547765Y-70998157D01*
X127757809Y-70857809D01*
X127898157Y-70647765D01*
X127947440Y-70400000D01*
X127947440Y-70160000D01*
X128525153Y-70160000D01*
X128600000Y-70174888D01*
X128674847Y-70160000D01*
X128674852Y-70160000D01*
X128896537Y-70115904D01*
X129147929Y-69947929D01*
X129190331Y-69884470D01*
X129785329Y-69289473D01*
X129785331Y-69289470D01*
X131584473Y-67490329D01*
X131647929Y-67447929D01*
X131763576Y-67274852D01*
X131815904Y-67196538D01*
X131825480Y-67148395D01*
X131860000Y-66974852D01*
X131860000Y-66974848D01*
X131874888Y-66900000D01*
X131860000Y-66825152D01*
X131860000Y-60624846D01*
X131874888Y-60549999D01*
X131860000Y-60475152D01*
X131860000Y-60475148D01*
X131815904Y-60253463D01*
X131756795Y-60165000D01*
X131690329Y-60065526D01*
X131690327Y-60065524D01*
X131647929Y-60002071D01*
X131584476Y-59959673D01*
X130797440Y-59172638D01*
X130797440Y-57420000D01*
X130748157Y-57172235D01*
X130607809Y-56962191D01*
X130397765Y-56821843D01*
X130150000Y-56772560D01*
X128150000Y-56772560D01*
X127902235Y-56821843D01*
X127692191Y-56962191D01*
X127675907Y-56986561D01*
X127299380Y-56610034D01*
X126514678Y-56285000D01*
X125665322Y-56285000D01*
X124880620Y-56610034D01*
X124280034Y-57210620D01*
X123955000Y-57995322D01*
X123955000Y-58844678D01*
X124280034Y-59629380D01*
X124880620Y-60229966D01*
X125665322Y-60555000D01*
X126514678Y-60555000D01*
X127299380Y-60229966D01*
X127675907Y-59853439D01*
X127692191Y-59877809D01*
X127902235Y-60018157D01*
X128150000Y-60067440D01*
X129542638Y-60067440D01*
X130340000Y-60864803D01*
X130340000Y-62548472D01*
X129947830Y-62156302D01*
X129365276Y-61915000D01*
X128734724Y-61915000D01*
X128493303Y-62015000D01*
X128334615Y-62015000D01*
X127788815Y-62241078D01*
X127371078Y-62658815D01*
X127145000Y-63204615D01*
X127145000Y-63795385D01*
X127371078Y-64341185D01*
X127788815Y-64758922D01*
X128334615Y-64985000D01*
X128493303Y-64985000D01*
X128734724Y-65085000D01*
X129365276Y-65085000D01*
X129947830Y-64843698D01*
X130340001Y-64451527D01*
X130340001Y-66585197D01*
X128710530Y-68214669D01*
X128710527Y-68214671D01*
X128285199Y-68640000D01*
X127947440Y-68640000D01*
X127947440Y-68400000D01*
X127898157Y-68152235D01*
X127757809Y-67942191D01*
X127547765Y-67801843D01*
X127300000Y-67752560D01*
X125400000Y-67752560D01*
X125152235Y-67801843D01*
X125043706Y-67874360D01*
X124759380Y-67590034D01*
X123974678Y-67265000D01*
X123125322Y-67265000D01*
X122340620Y-67590034D01*
X121740034Y-68190620D01*
X121415000Y-68975322D01*
X121415000Y-69824678D01*
X121740034Y-70609380D01*
X122340620Y-71209966D01*
X123016622Y-71489975D01*
X119103711Y-71489975D01*
X118986280Y-71372544D01*
X118605874Y-71214975D01*
X118194126Y-71214975D01*
X117813720Y-71372544D01*
X117522569Y-71663695D01*
X117410000Y-71935461D01*
X117410000Y-69038704D01*
X118125322Y-69335000D01*
X118974678Y-69335000D01*
X119759380Y-69009966D01*
X120359966Y-68409380D01*
X120685000Y-67624678D01*
X120685000Y-66775322D01*
X120359966Y-65990620D01*
X119759380Y-65390034D01*
X118974678Y-65065000D01*
X118413560Y-65065000D01*
X118606697Y-64985000D01*
X118765385Y-64985000D01*
X119311185Y-64758922D01*
X119728922Y-64341185D01*
X119955000Y-63795385D01*
X119955000Y-63204615D01*
X119909596Y-63095000D01*
X120164678Y-63095000D01*
X120949380Y-62769966D01*
X121036283Y-62683063D01*
X120915000Y-62975866D01*
X120915000Y-64024134D01*
X121316155Y-64992608D01*
X122057392Y-65733845D01*
X123025866Y-66135000D01*
X124074134Y-66135000D01*
X125042608Y-65733845D01*
X125783845Y-64992608D01*
X126185000Y-64024134D01*
X126185000Y-62975866D01*
X125783845Y-62007392D01*
X125042608Y-61266155D01*
X124074134Y-60865000D01*
X123025866Y-60865000D01*
X122057392Y-61266155D01*
X121829838Y-61493709D01*
X121875000Y-61384678D01*
X121875000Y-60535322D01*
X121549966Y-59750620D01*
X120949380Y-59150034D01*
X120164678Y-58825000D01*
X119315322Y-58825000D01*
X118530620Y-59150034D01*
X118136109Y-59544545D01*
X118107809Y-59502191D01*
X117897765Y-59361843D01*
X117650000Y-59312560D01*
X117410000Y-59312560D01*
X117410000Y-56969847D01*
X117424888Y-56895000D01*
X117410000Y-56820153D01*
X117410000Y-56820148D01*
X117365904Y-56598463D01*
X117197929Y-56347071D01*
X117134473Y-56304671D01*
X112005331Y-51175530D01*
X111962929Y-51112071D01*
X111711537Y-50944096D01*
X111489852Y-50900000D01*
X111489847Y-50900000D01*
X111415000Y-50885112D01*
X111340153Y-50900000D01*
X63864848Y-50900000D01*
X63790000Y-50885112D01*
X63715152Y-50900000D01*
X63715148Y-50900000D01*
X63566128Y-50929642D01*
X63493462Y-50944096D01*
X63333238Y-51051155D01*
X63242071Y-51112071D01*
X63199671Y-51175527D01*
X59495528Y-54879671D01*
X59432072Y-54922071D01*
X59389672Y-54985527D01*
X59389671Y-54985528D01*
X59264097Y-55173463D01*
X59205112Y-55470000D01*
X59220001Y-55544852D01*
X59220000Y-67395153D01*
X59205112Y-67470000D01*
X59220000Y-67544847D01*
X59220000Y-67544851D01*
X59264096Y-67766536D01*
X59432071Y-68017929D01*
X59495530Y-68060331D01*
X62826896Y-71391698D01*
X62805000Y-71444561D01*
X62805000Y-72015439D01*
X63023466Y-72542862D01*
X63427138Y-72946534D01*
X63556216Y-73000000D01*
X63427138Y-73053466D01*
X63023466Y-73457138D01*
X62805000Y-73984561D01*
X62805000Y-74555439D01*
X63023466Y-75082862D01*
X63427138Y-75486534D01*
X63556216Y-75540000D01*
X63427138Y-75593466D01*
X63023466Y-75997138D01*
X63001570Y-76050000D01*
X61734848Y-76050000D01*
X61660000Y-76035112D01*
X61585152Y-76050000D01*
X61585148Y-76050000D01*
X61411605Y-76084520D01*
X61363462Y-76094096D01*
X61287058Y-76145148D01*
X61112071Y-76262071D01*
X61069671Y-76325527D01*
X60521395Y-76873803D01*
X60611476Y-76703110D01*
X60441645Y-76293076D01*
X60051358Y-75864817D01*
X59526892Y-75618514D01*
X59297000Y-75739181D01*
X59297000Y-76933000D01*
X59317000Y-76933000D01*
X59317000Y-77187000D01*
X59297000Y-77187000D01*
X59297000Y-77207000D01*
X59043000Y-77207000D01*
X59043000Y-77187000D01*
X57849845Y-77187000D01*
X57728524Y-77416890D01*
X57898355Y-77826924D01*
X58288642Y-78255183D01*
X58418478Y-78316157D01*
X58099375Y-78529375D01*
X57771161Y-79020582D01*
X57655908Y-79600000D01*
X57771161Y-80179418D01*
X58099375Y-80670625D01*
X58397761Y-80870000D01*
X58099375Y-81069375D01*
X57771161Y-81560582D01*
X57655908Y-82140000D01*
X57771161Y-82719418D01*
X58099375Y-83210625D01*
X58397761Y-83410000D01*
X58099375Y-83609375D01*
X57771161Y-84100582D01*
X57655908Y-84680000D01*
X57771161Y-85259418D01*
X58099375Y-85750625D01*
X58397761Y-85950000D01*
X58099375Y-86149375D01*
X57771161Y-86640582D01*
X57655908Y-87220000D01*
X57771161Y-87799418D01*
X58099375Y-88290625D01*
X58397761Y-88490000D01*
X58099375Y-88689375D01*
X57771161Y-89180582D01*
X57655908Y-89760000D01*
X57771161Y-90339418D01*
X58099375Y-90830625D01*
X58397761Y-91030000D01*
X58099375Y-91229375D01*
X57771161Y-91720582D01*
X57655908Y-92300000D01*
X57771161Y-92879418D01*
X58099375Y-93370625D01*
X58117619Y-93382816D01*
X58072235Y-93391843D01*
X57862191Y-93532191D01*
X57721843Y-93742235D01*
X57672560Y-93990000D01*
X57672560Y-95690000D01*
X57721843Y-95937765D01*
X57862191Y-96147809D01*
X58072235Y-96288157D01*
X58320000Y-96337440D01*
X60020000Y-96337440D01*
X60267765Y-96288157D01*
X60477809Y-96147809D01*
X60618157Y-95937765D01*
X60667440Y-95690000D01*
X60667440Y-93990000D01*
X60618157Y-93742235D01*
X60477809Y-93532191D01*
X60267765Y-93391843D01*
X60222381Y-93382816D01*
X60240625Y-93370625D01*
X60568839Y-92879418D01*
X60684092Y-92300000D01*
X60568839Y-91720582D01*
X60240625Y-91229375D01*
X59942239Y-91030000D01*
X60240625Y-90830625D01*
X60568839Y-90339418D01*
X60684092Y-89760000D01*
X60568839Y-89180582D01*
X60240625Y-88689375D01*
X59942239Y-88490000D01*
X60240625Y-88290625D01*
X60568839Y-87799418D01*
X60684092Y-87220000D01*
X60568839Y-86640582D01*
X60240625Y-86149375D01*
X59942239Y-85950000D01*
X60240625Y-85750625D01*
X60568839Y-85259418D01*
X60684092Y-84680000D01*
X60568839Y-84100582D01*
X60240625Y-83609375D01*
X59942239Y-83410000D01*
X60240625Y-83210625D01*
X60568839Y-82719418D01*
X60684092Y-82140000D01*
X60568839Y-81560582D01*
X60240625Y-81069375D01*
X59942239Y-80870000D01*
X60240625Y-80670625D01*
X60568839Y-80179418D01*
X60684092Y-79600000D01*
X60568839Y-79020582D01*
X60550967Y-78993834D01*
X61974802Y-77570000D01*
X63001570Y-77570000D01*
X63023466Y-77622862D01*
X63427138Y-78026534D01*
X63556216Y-78080000D01*
X63427138Y-78133466D01*
X63023466Y-78537138D01*
X62805000Y-79064561D01*
X62805000Y-79635439D01*
X63023466Y-80162862D01*
X63427138Y-80566534D01*
X63556216Y-80620000D01*
X63427138Y-80673466D01*
X63023466Y-81077138D01*
X62805000Y-81604561D01*
X62805000Y-82175439D01*
X62826896Y-82228302D01*
X61875530Y-83179669D01*
X61812071Y-83222071D01*
X61644096Y-83473464D01*
X61600000Y-83695149D01*
X61600000Y-83695153D01*
X61585112Y-83770000D01*
X61600000Y-83844847D01*
X61600001Y-96939328D01*
X61585643Y-97028679D01*
X61617350Y-97162071D01*
X61644097Y-97296537D01*
X61652192Y-97308652D01*
X61655562Y-97322830D01*
X61735902Y-97433932D01*
X61812072Y-97547929D01*
X61887319Y-97598208D01*
X62307832Y-97988684D01*
X62275000Y-98153744D01*
X62275000Y-99246255D01*
X62361161Y-99679417D01*
X62689375Y-100170625D01*
X62733338Y-100200000D01*
X62689375Y-100229375D01*
X62361161Y-100720582D01*
X62275000Y-101153744D01*
X62275000Y-102246255D01*
X62361161Y-102679417D01*
X62689375Y-103170625D01*
X63180582Y-103498839D01*
X63760000Y-103614092D01*
X64339417Y-103498839D01*
X64625000Y-103308019D01*
X64625000Y-103745657D01*
X64813018Y-104199571D01*
X64903447Y-104290000D01*
X55031618Y-104290000D01*
X54240807Y-104219422D01*
X53505611Y-104018295D01*
X52817645Y-103690152D01*
X52198672Y-103245374D01*
X51668239Y-102698012D01*
X51243117Y-102065362D01*
X50936749Y-101367439D01*
X50757501Y-100620819D01*
X50710000Y-99973970D01*
X50710000Y-76703110D01*
X57728524Y-76703110D01*
X57849845Y-76933000D01*
X59043000Y-76933000D01*
X59043000Y-75739181D01*
X58813108Y-75618514D01*
X58288642Y-75864817D01*
X57898355Y-76293076D01*
X57728524Y-76703110D01*
X50710000Y-76703110D01*
X50710000Y-55031618D01*
X50780578Y-54240808D01*
X50981705Y-53505611D01*
X51309846Y-52817649D01*
X51754628Y-52198669D01*
X52301988Y-51668239D01*
X52934639Y-51243116D01*
X53632561Y-50936749D01*
X54379183Y-50757501D01*
X55026030Y-50710000D01*
X135968382Y-50710000D01*
X136759192Y-50780578D01*
X136759192Y-50780578D01*
G37*
X136759192Y-50780578D02*
X137494389Y-50981705D01*
X138182351Y-51309846D01*
X138801331Y-51754628D01*
X139331761Y-52301988D01*
X139756884Y-52934639D01*
X140063251Y-53632561D01*
X140242499Y-54379183D01*
X140290001Y-55026044D01*
X140290000Y-90873000D01*
X94552801Y-90873000D01*
X92490000Y-88810199D01*
X92490000Y-76434846D01*
X92504888Y-76359999D01*
X92490000Y-76285152D01*
X92490000Y-76285148D01*
X92445904Y-76063463D01*
X92277929Y-75812071D01*
X92214473Y-75769671D01*
X80893103Y-64448302D01*
X80915000Y-64395439D01*
X80915000Y-63824561D01*
X80696534Y-63297138D01*
X80292862Y-62893466D01*
X80163784Y-62840000D01*
X80292862Y-62786534D01*
X80696534Y-62382862D01*
X80915000Y-61855439D01*
X80915000Y-61284561D01*
X80696534Y-60757138D01*
X80292862Y-60353466D01*
X80179417Y-60306475D01*
X80234005Y-60283864D01*
X80308139Y-60037745D01*
X79480000Y-59209605D01*
X78651861Y-60037745D01*
X78725995Y-60283864D01*
X78784448Y-60304874D01*
X78667138Y-60353466D01*
X78263466Y-60757138D01*
X78045000Y-61284561D01*
X78045000Y-61855439D01*
X78263466Y-62382862D01*
X78667138Y-62786534D01*
X78796216Y-62840000D01*
X78667138Y-62893466D01*
X78263466Y-63297138D01*
X78210000Y-63426216D01*
X78156534Y-63297138D01*
X77752862Y-62893466D01*
X77225439Y-62675000D01*
X76654561Y-62675000D01*
X76127138Y-62893466D01*
X75723466Y-63297138D01*
X75505000Y-63824561D01*
X75505000Y-64395439D01*
X75723466Y-64922862D01*
X76127138Y-65326534D01*
X76256216Y-65380000D01*
X76127138Y-65433466D01*
X75723466Y-65837138D01*
X75505000Y-66364561D01*
X75505000Y-66935439D01*
X75723466Y-67462862D01*
X76127138Y-67866534D01*
X76256216Y-67920000D01*
X76127138Y-67973466D01*
X75723466Y-68377138D01*
X75505000Y-68904561D01*
X75505000Y-69475439D01*
X75723466Y-70002862D01*
X76127138Y-70406534D01*
X76654561Y-70625000D01*
X77225439Y-70625000D01*
X77752862Y-70406534D01*
X78156534Y-70002862D01*
X78210000Y-69873784D01*
X78263466Y-70002862D01*
X78667138Y-70406534D01*
X78796216Y-70460000D01*
X78667138Y-70513466D01*
X78263466Y-70917138D01*
X78045000Y-71444561D01*
X78045000Y-72015439D01*
X78263466Y-72542862D01*
X78667138Y-72946534D01*
X78796216Y-73000000D01*
X78667138Y-73053466D01*
X78263466Y-73457138D01*
X78045000Y-73984561D01*
X78045000Y-74555439D01*
X78263466Y-75082862D01*
X78667138Y-75486534D01*
X78796216Y-75540000D01*
X78667138Y-75593466D01*
X78263466Y-75997138D01*
X78045000Y-76524561D01*
X78045000Y-77095439D01*
X78263466Y-77622862D01*
X78667138Y-78026534D01*
X78796216Y-78080000D01*
X78667138Y-78133466D01*
X78263466Y-78537138D01*
X78045000Y-79064561D01*
X78045000Y-79635439D01*
X78263466Y-80162862D01*
X78667138Y-80566534D01*
X78796216Y-80620000D01*
X78667138Y-80673466D01*
X78263466Y-81077138D01*
X78045000Y-81604561D01*
X78045000Y-82175439D01*
X78263466Y-82702862D01*
X78667138Y-83106534D01*
X78796216Y-83160000D01*
X78667138Y-83213466D01*
X78263466Y-83617138D01*
X78045000Y-84144561D01*
X78045000Y-84715439D01*
X78263466Y-85242862D01*
X78667138Y-85646534D01*
X78796216Y-85700000D01*
X78667138Y-85753466D01*
X78263466Y-86157138D01*
X78045000Y-86684561D01*
X78045000Y-87255439D01*
X78263466Y-87782862D01*
X78667138Y-88186534D01*
X78796216Y-88240000D01*
X78667138Y-88293466D01*
X78263466Y-88697138D01*
X78210000Y-88826216D01*
X78156534Y-88697138D01*
X77752862Y-88293466D01*
X77225439Y-88075000D01*
X76654561Y-88075000D01*
X76127138Y-88293466D01*
X75723466Y-88697138D01*
X75670000Y-88826216D01*
X75616534Y-88697138D01*
X75212862Y-88293466D01*
X75083784Y-88240000D01*
X75212862Y-88186534D01*
X75616534Y-87782862D01*
X75835000Y-87255439D01*
X75835000Y-86684561D01*
X75616534Y-86157138D01*
X75212862Y-85753466D01*
X75083784Y-85700000D01*
X75212862Y-85646534D01*
X75616534Y-85242862D01*
X75835000Y-84715439D01*
X75835000Y-84144561D01*
X75616534Y-83617138D01*
X75212862Y-83213466D01*
X75083784Y-83160000D01*
X75212862Y-83106534D01*
X75616534Y-82702862D01*
X75835000Y-82175439D01*
X75835000Y-81604561D01*
X75616534Y-81077138D01*
X75212862Y-80673466D01*
X75083784Y-80620000D01*
X75212862Y-80566534D01*
X75616534Y-80162862D01*
X75835000Y-79635439D01*
X75835000Y-79064561D01*
X75616534Y-78537138D01*
X75212862Y-78133466D01*
X75083784Y-78080000D01*
X75212862Y-78026534D01*
X75616534Y-77622862D01*
X75835000Y-77095439D01*
X75835000Y-76524561D01*
X75616534Y-75997138D01*
X75212862Y-75593466D01*
X75083784Y-75540000D01*
X75212862Y-75486534D01*
X75616534Y-75082862D01*
X75835000Y-74555439D01*
X75835000Y-73984561D01*
X75616534Y-73457138D01*
X75212862Y-73053466D01*
X75083784Y-73000000D01*
X75212862Y-72946534D01*
X75616534Y-72542862D01*
X75835000Y-72015439D01*
X75835000Y-71444561D01*
X75616534Y-70917138D01*
X75212862Y-70513466D01*
X74685439Y-70295000D01*
X74114561Y-70295000D01*
X73587138Y-70513466D01*
X73183466Y-70917138D01*
X73130000Y-71046216D01*
X73076534Y-70917138D01*
X72672862Y-70513466D01*
X72145439Y-70295000D01*
X71574561Y-70295000D01*
X71047138Y-70513466D01*
X70643466Y-70917138D01*
X70425000Y-71444561D01*
X70425000Y-72015439D01*
X70643466Y-72542862D01*
X71047138Y-72946534D01*
X71176216Y-73000000D01*
X71047138Y-73053466D01*
X70643466Y-73457138D01*
X70425000Y-73984561D01*
X70425000Y-74555439D01*
X70643466Y-75082862D01*
X71047138Y-75486534D01*
X71176216Y-75540000D01*
X71047138Y-75593466D01*
X70643466Y-75997138D01*
X70425000Y-76524561D01*
X70425000Y-77095439D01*
X70643466Y-77622862D01*
X71047138Y-78026534D01*
X71176216Y-78080000D01*
X71047138Y-78133466D01*
X70643466Y-78537138D01*
X70425000Y-79064561D01*
X70425000Y-79635439D01*
X70643466Y-80162862D01*
X71047138Y-80566534D01*
X71176216Y-80620000D01*
X71047138Y-80673466D01*
X70643466Y-81077138D01*
X70425000Y-81604561D01*
X70425000Y-82175439D01*
X70643466Y-82702862D01*
X71047138Y-83106534D01*
X71176216Y-83160000D01*
X71047138Y-83213466D01*
X70643466Y-83617138D01*
X70425000Y-84144561D01*
X70425000Y-84715439D01*
X70643466Y-85242862D01*
X71047138Y-85646534D01*
X71176216Y-85700000D01*
X71047138Y-85753466D01*
X70643466Y-86157138D01*
X70425000Y-86684561D01*
X70425000Y-87255439D01*
X70643466Y-87782862D01*
X71047138Y-88186534D01*
X71160583Y-88233525D01*
X71105995Y-88256136D01*
X71031861Y-88502255D01*
X71860000Y-89330395D01*
X72688139Y-88502255D01*
X72614005Y-88256136D01*
X72555552Y-88235126D01*
X72672862Y-88186534D01*
X73076534Y-87782862D01*
X73130000Y-87653784D01*
X73183466Y-87782862D01*
X73587138Y-88186534D01*
X73716216Y-88240000D01*
X73587138Y-88293466D01*
X73183466Y-88697138D01*
X73136475Y-88810583D01*
X73113864Y-88755995D01*
X72867745Y-88681861D01*
X72039605Y-89510000D01*
X72867745Y-90338139D01*
X73113864Y-90264005D01*
X73134874Y-90205552D01*
X73183466Y-90322862D01*
X73587138Y-90726534D01*
X74114561Y-90945000D01*
X74685439Y-90945000D01*
X75212862Y-90726534D01*
X75616534Y-90322862D01*
X75670000Y-90193784D01*
X75723466Y-90322862D01*
X76127138Y-90726534D01*
X76654561Y-90945000D01*
X77225439Y-90945000D01*
X77752862Y-90726534D01*
X78156534Y-90322862D01*
X78210000Y-90193784D01*
X78263466Y-90322862D01*
X78667138Y-90726534D01*
X79194561Y-90945000D01*
X79765439Y-90945000D01*
X80292862Y-90726534D01*
X80696534Y-90322862D01*
X80915000Y-89795439D01*
X80915000Y-89224561D01*
X80696534Y-88697138D01*
X80292862Y-88293466D01*
X80163784Y-88240000D01*
X80292862Y-88186534D01*
X80696534Y-87782862D01*
X80915000Y-87255439D01*
X80915000Y-86684561D01*
X80696534Y-86157138D01*
X80292862Y-85753466D01*
X80163784Y-85700000D01*
X80292862Y-85646534D01*
X80696534Y-85242862D01*
X80915000Y-84715439D01*
X80915000Y-84399802D01*
X86705000Y-90189803D01*
X86705001Y-93650148D01*
X86690112Y-93725000D01*
X86749097Y-94021537D01*
X86837436Y-94153745D01*
X86917072Y-94272929D01*
X86980528Y-94315329D01*
X88873000Y-96207801D01*
X88873000Y-104290000D01*
X78816553Y-104290000D01*
X78906982Y-104199571D01*
X79095000Y-103745657D01*
X79095000Y-103254343D01*
X78906982Y-102800429D01*
X78559571Y-102453018D01*
X78105657Y-102265000D01*
X77614343Y-102265000D01*
X77207773Y-102433407D01*
X77245000Y-102246256D01*
X77245000Y-101153745D01*
X77158839Y-100720582D01*
X76830625Y-100229375D01*
X76786662Y-100200000D01*
X76830625Y-100170625D01*
X77158839Y-99679418D01*
X77202484Y-99460000D01*
X83497560Y-99460000D01*
X83497560Y-100115000D01*
X83546843Y-100362765D01*
X83687191Y-100572809D01*
X83847560Y-100679965D01*
X83847560Y-100783044D01*
X83528466Y-101102138D01*
X83310000Y-101629561D01*
X83310000Y-102200439D01*
X83528466Y-102727862D01*
X83932138Y-103131534D01*
X84459561Y-103350000D01*
X85030439Y-103350000D01*
X85557862Y-103131534D01*
X85961534Y-102727862D01*
X86180000Y-102200439D01*
X86180000Y-101629561D01*
X85961534Y-101102138D01*
X85642440Y-100783044D01*
X85642440Y-100679965D01*
X85802809Y-100572809D01*
X85943157Y-100362765D01*
X85992440Y-100115000D01*
X85992440Y-98615000D01*
X85943157Y-98367235D01*
X85802809Y-98157191D01*
X85592765Y-98016843D01*
X85583500Y-98015000D01*
X85592765Y-98013157D01*
X85802809Y-97872809D01*
X85943157Y-97662765D01*
X85992440Y-97415000D01*
X85992440Y-95915000D01*
X85943157Y-95667235D01*
X85802809Y-95457191D01*
X85642440Y-95350035D01*
X85642440Y-95246956D01*
X85961534Y-94927862D01*
X86180000Y-94400439D01*
X86180000Y-93829561D01*
X85961534Y-93302138D01*
X85557862Y-92898466D01*
X85030439Y-92680000D01*
X84459561Y-92680000D01*
X83932138Y-92898466D01*
X83528466Y-93302138D01*
X83310000Y-93829561D01*
X83310000Y-94400439D01*
X83528466Y-94927862D01*
X83847560Y-95246956D01*
X83847560Y-95350035D01*
X83687191Y-95457191D01*
X83658494Y-95500139D01*
X82989517Y-94831162D01*
X82933169Y-94746831D01*
X82599082Y-94523601D01*
X82304476Y-94465000D01*
X82304471Y-94465000D01*
X82205000Y-94445214D01*
X82105529Y-94465000D01*
X81139966Y-94465000D01*
X81283360Y-94285618D01*
X81445000Y-93727000D01*
X81445000Y-93327000D01*
X80087000Y-93327000D01*
X80087000Y-93347000D01*
X79833000Y-93347000D01*
X79833000Y-93327000D01*
X78475000Y-93327000D01*
X78475000Y-93713974D01*
X78354476Y-93690000D01*
X78354471Y-93690000D01*
X78255000Y-93670214D01*
X78155529Y-93690000D01*
X77138405Y-93690000D01*
X76830625Y-93229375D01*
X76339418Y-92901161D01*
X75760000Y-92785908D01*
X75180583Y-92901161D01*
X74829057Y-93136043D01*
X74765918Y-93148602D01*
X74431831Y-93371831D01*
X74208602Y-93705918D01*
X74130214Y-94100000D01*
X74208602Y-94494082D01*
X74275000Y-94593454D01*
X74275000Y-95246255D01*
X74361161Y-95679417D01*
X74689375Y-96170625D01*
X75180582Y-96498839D01*
X75760000Y-96614092D01*
X76339417Y-96498839D01*
X76625000Y-96308019D01*
X76625000Y-96745657D01*
X76813018Y-97199571D01*
X77160429Y-97546982D01*
X77614343Y-97735000D01*
X78105657Y-97735000D01*
X78559571Y-97546982D01*
X78906982Y-97199571D01*
X79095000Y-96745657D01*
X79095000Y-96491857D01*
X79129472Y-96485000D01*
X81786645Y-96485000D01*
X82610482Y-97308837D01*
X82666831Y-97393169D01*
X83000918Y-97616399D01*
X83295524Y-97675000D01*
X83295528Y-97675000D01*
X83394999Y-97694786D01*
X83494470Y-97675000D01*
X83555018Y-97675000D01*
X83687191Y-97872809D01*
X83787749Y-97940000D01*
X77202484Y-97940000D01*
X77158839Y-97720582D01*
X76830625Y-97229375D01*
X76339418Y-96901161D01*
X75760000Y-96785908D01*
X75180583Y-96901161D01*
X74689375Y-97229375D01*
X74361161Y-97720582D01*
X74275000Y-98153744D01*
X74275000Y-99246255D01*
X74361161Y-99679417D01*
X74689375Y-100170625D01*
X74733338Y-100200000D01*
X74689375Y-100229375D01*
X74361161Y-100720582D01*
X74277734Y-101140000D01*
X73098430Y-101140000D01*
X73076534Y-101087138D01*
X72757440Y-100768044D01*
X72757440Y-100664965D01*
X72917809Y-100557809D01*
X73058157Y-100347765D01*
X73107440Y-100100000D01*
X73107440Y-98600000D01*
X73058157Y-98352235D01*
X72917809Y-98142191D01*
X72707765Y-98001843D01*
X72698500Y-98000000D01*
X72707765Y-97998157D01*
X72917809Y-97857809D01*
X73058157Y-97647765D01*
X73107440Y-97400000D01*
X73107440Y-95900000D01*
X73058157Y-95652235D01*
X72917809Y-95442191D01*
X72757440Y-95335035D01*
X72757440Y-95231956D01*
X73076534Y-94912862D01*
X73295000Y-94385439D01*
X73295000Y-93814561D01*
X73076534Y-93287138D01*
X72672862Y-92883466D01*
X72164753Y-92673000D01*
X78475000Y-92673000D01*
X78475000Y-93073000D01*
X79833000Y-93073000D01*
X79833000Y-91479845D01*
X80087000Y-91479845D01*
X80087000Y-93073000D01*
X81445000Y-93073000D01*
X81445000Y-92673000D01*
X81283360Y-92114382D01*
X80920251Y-91660144D01*
X80410952Y-91379438D01*
X80316890Y-91358524D01*
X80087000Y-91479845D01*
X79833000Y-91479845D01*
X79603110Y-91358524D01*
X79509048Y-91379438D01*
X78999749Y-91660144D01*
X78636640Y-92114382D01*
X78475000Y-92673000D01*
X72164753Y-92673000D01*
X72145439Y-92665000D01*
X71853356Y-92665000D01*
X70330000Y-91141645D01*
X70330000Y-90529396D01*
X70341651Y-90517745D01*
X71031861Y-90517745D01*
X71105995Y-90763864D01*
X71643223Y-90956965D01*
X72213454Y-90929778D01*
X72614005Y-90763864D01*
X72688139Y-90517745D01*
X71860000Y-89689605D01*
X71031861Y-90517745D01*
X70341651Y-90517745D01*
X70536534Y-90322862D01*
X70583525Y-90209417D01*
X70606136Y-90264005D01*
X70852255Y-90338139D01*
X71680395Y-89510000D01*
X70852255Y-88681861D01*
X70606136Y-88755995D01*
X70585126Y-88814448D01*
X70536534Y-88697138D01*
X70132862Y-88293466D01*
X69605439Y-88075000D01*
X69034561Y-88075000D01*
X68507138Y-88293466D01*
X68103466Y-88697138D01*
X68050000Y-88826216D01*
X67996534Y-88697138D01*
X67592862Y-88293466D01*
X67065439Y-88075000D01*
X66494561Y-88075000D01*
X65967138Y-88293466D01*
X65563466Y-88697138D01*
X65510000Y-88826216D01*
X65456534Y-88697138D01*
X65052862Y-88293466D01*
X64923784Y-88240000D01*
X65052862Y-88186534D01*
X65456534Y-87782862D01*
X65675000Y-87255439D01*
X65675000Y-86684561D01*
X65456534Y-86157138D01*
X65052862Y-85753466D01*
X64923784Y-85700000D01*
X65052862Y-85646534D01*
X65456534Y-85242862D01*
X65675000Y-84715439D01*
X65675000Y-84144561D01*
X65456534Y-83617138D01*
X65052862Y-83213466D01*
X64923784Y-83160000D01*
X65052862Y-83106534D01*
X65456534Y-82702862D01*
X65675000Y-82175439D01*
X65675000Y-81604561D01*
X65456534Y-81077138D01*
X65052862Y-80673466D01*
X64923784Y-80620000D01*
X65052862Y-80566534D01*
X65456534Y-80162862D01*
X65675000Y-79635439D01*
X65675000Y-79064561D01*
X65456534Y-78537138D01*
X65052862Y-78133466D01*
X64923784Y-78080000D01*
X65052862Y-78026534D01*
X65456534Y-77622862D01*
X65675000Y-77095439D01*
X65675000Y-76524561D01*
X65456534Y-75997138D01*
X65052862Y-75593466D01*
X64923784Y-75540000D01*
X65052862Y-75486534D01*
X65456534Y-75082862D01*
X65675000Y-74555439D01*
X65675000Y-73984561D01*
X65456534Y-73457138D01*
X65052862Y-73053466D01*
X64923784Y-73000000D01*
X65052862Y-72946534D01*
X65456534Y-72542862D01*
X65675000Y-72015439D01*
X65675000Y-71444561D01*
X65456534Y-70917138D01*
X65052862Y-70513466D01*
X64923784Y-70460000D01*
X65052862Y-70406534D01*
X65456534Y-70002862D01*
X65675000Y-69475439D01*
X65675000Y-68904561D01*
X65456534Y-68377138D01*
X65052862Y-67973466D01*
X64923784Y-67920000D01*
X65052862Y-67866534D01*
X65456534Y-67462862D01*
X65675000Y-66935439D01*
X65675000Y-66364561D01*
X65662641Y-66334724D01*
X70275000Y-66334724D01*
X70275000Y-66965276D01*
X70516302Y-67547830D01*
X70962170Y-67993698D01*
X71544724Y-68235000D01*
X72175276Y-68235000D01*
X72757830Y-67993698D01*
X73203698Y-67547830D01*
X73445000Y-66965276D01*
X73445000Y-66334724D01*
X73203698Y-65752170D01*
X72757830Y-65306302D01*
X72175276Y-65065000D01*
X71544724Y-65065000D01*
X70962170Y-65306302D01*
X70516302Y-65752170D01*
X70275000Y-66334724D01*
X65662641Y-66334724D01*
X65653103Y-66311698D01*
X69440077Y-62524724D01*
X70275000Y-62524724D01*
X70275000Y-63155276D01*
X70516302Y-63737830D01*
X70962170Y-64183698D01*
X71544724Y-64425000D01*
X72175276Y-64425000D01*
X72757830Y-64183698D01*
X73203698Y-63737830D01*
X73445000Y-63155276D01*
X73445000Y-62524724D01*
X73203698Y-61942170D01*
X72757830Y-61496302D01*
X72175276Y-61255000D01*
X71544724Y-61255000D01*
X70962170Y-61496302D01*
X70516302Y-61942170D01*
X70275000Y-62524724D01*
X69440077Y-62524724D01*
X73220240Y-58744561D01*
X75505000Y-58744561D01*
X75505000Y-59315439D01*
X75723466Y-59842862D01*
X76127138Y-60246534D01*
X76654561Y-60465000D01*
X77225439Y-60465000D01*
X77752862Y-60246534D01*
X78156534Y-59842862D01*
X78203525Y-59729417D01*
X78226136Y-59784005D01*
X78472255Y-59858139D01*
X79300395Y-59030000D01*
X79659605Y-59030000D01*
X80487745Y-59858139D01*
X80733864Y-59784005D01*
X80926965Y-59246777D01*
X80899778Y-58676546D01*
X80733864Y-58275995D01*
X80487745Y-58201861D01*
X79659605Y-59030000D01*
X79300395Y-59030000D01*
X78472255Y-58201861D01*
X78226136Y-58275995D01*
X78205126Y-58334448D01*
X78156534Y-58217138D01*
X77752862Y-57813466D01*
X77225439Y-57595000D01*
X76654561Y-57595000D01*
X76127138Y-57813466D01*
X75723466Y-58217138D01*
X75505000Y-58744561D01*
X73220240Y-58744561D01*
X75760240Y-56204561D01*
X78045000Y-56204561D01*
X78045000Y-56775439D01*
X78263466Y-57302862D01*
X78667138Y-57706534D01*
X78780583Y-57753525D01*
X78725995Y-57776136D01*
X78651861Y-58022255D01*
X79480000Y-58850395D01*
X80308139Y-58022255D01*
X80234005Y-57776136D01*
X80175552Y-57755126D01*
X80292862Y-57706534D01*
X80696534Y-57302862D01*
X80915000Y-56775439D01*
X80915000Y-56204561D01*
X80696534Y-55677138D01*
X80292862Y-55273466D01*
X79765439Y-55055000D01*
X79194561Y-55055000D01*
X78667138Y-55273466D01*
X78263466Y-55677138D01*
X78045000Y-56204561D01*
X75760240Y-56204561D01*
X77639802Y-54325000D01*
X81890199Y-54325000D01*
X83355001Y-55789803D01*
X83355001Y-55927560D01*
X83315000Y-55927560D01*
X83067235Y-55976843D01*
X82857191Y-56117191D01*
X82716843Y-56327235D01*
X82667560Y-56575000D01*
X82667560Y-58175000D01*
X82716843Y-58422765D01*
X82857191Y-58632809D01*
X82875436Y-58645000D01*
X82857191Y-58657191D01*
X82716843Y-58867235D01*
X82667560Y-59115000D01*
X82667560Y-60715000D01*
X82716843Y-60962765D01*
X82857191Y-61172809D01*
X82875436Y-61185000D01*
X82857191Y-61197191D01*
X82716843Y-61407235D01*
X82667560Y-61655000D01*
X82667560Y-63255000D01*
X82716843Y-63502765D01*
X82857191Y-63712809D01*
X82875436Y-63725000D01*
X82857191Y-63737191D01*
X82716843Y-63947235D01*
X82667560Y-64195000D01*
X82667560Y-65795000D01*
X82716843Y-66042765D01*
X82857191Y-66252809D01*
X83067235Y-66393157D01*
X83315000Y-66442440D01*
X84915000Y-66442440D01*
X85162765Y-66393157D01*
X85372809Y-66252809D01*
X85460377Y-66121756D01*
X85567235Y-66193157D01*
X85815000Y-66242440D01*
X87415000Y-66242440D01*
X87662765Y-66193157D01*
X87872809Y-66052809D01*
X88013157Y-65842765D01*
X88015000Y-65833500D01*
X88016843Y-65842765D01*
X88157191Y-66052809D01*
X88367235Y-66193157D01*
X88615000Y-66242440D01*
X90215000Y-66242440D01*
X90462765Y-66193157D01*
X90672809Y-66052809D01*
X90779965Y-65892440D01*
X90783044Y-65892440D01*
X91102138Y-66211534D01*
X91629561Y-66430000D01*
X92200439Y-66430000D01*
X92727862Y-66211534D01*
X93131534Y-65807862D01*
X93350000Y-65280439D01*
X93350000Y-64709561D01*
X93131534Y-64182138D01*
X92727862Y-63778466D01*
X92598784Y-63725000D01*
X92727862Y-63671534D01*
X93131534Y-63267862D01*
X93350000Y-62740439D01*
X93350000Y-62169561D01*
X93131534Y-61642138D01*
X92727862Y-61238466D01*
X92598784Y-61185000D01*
X92727862Y-61131534D01*
X93131534Y-60727862D01*
X93350000Y-60200439D01*
X93350000Y-59629561D01*
X93131534Y-59102138D01*
X92727862Y-58698466D01*
X92598784Y-58645000D01*
X92727862Y-58591534D01*
X93131534Y-58187862D01*
X93350000Y-57660439D01*
X93350000Y-57089561D01*
X93328103Y-57036698D01*
X94134802Y-56230000D01*
X95900973Y-56230000D01*
X95775000Y-56534126D01*
X95775000Y-56945874D01*
X95932569Y-57326280D01*
X96050000Y-57443711D01*
X96050001Y-59640162D01*
X96001843Y-59712235D01*
X95952560Y-59960000D01*
X95952560Y-61532639D01*
X95915528Y-61569671D01*
X95852072Y-61612071D01*
X95809672Y-61675527D01*
X95809671Y-61675528D01*
X95684097Y-61863463D01*
X95625112Y-62160000D01*
X95640001Y-62234852D01*
X95640000Y-65552560D01*
X95400000Y-65552560D01*
X95152235Y-65601843D01*
X94942191Y-65742191D01*
X94801843Y-65952235D01*
X94752560Y-66200000D01*
X94752560Y-68200000D01*
X94801843Y-68447765D01*
X94942191Y-68657809D01*
X95152235Y-68798157D01*
X95400000Y-68847440D01*
X96840001Y-68847440D01*
X96840000Y-78362560D01*
X96600000Y-78362560D01*
X96352235Y-78411843D01*
X96142191Y-78552191D01*
X96001843Y-78762235D01*
X95952560Y-79010000D01*
X95952560Y-80582639D01*
X95915528Y-80619671D01*
X95852072Y-80662071D01*
X95809672Y-80725527D01*
X95809671Y-80725528D01*
X95684097Y-80913463D01*
X95625112Y-81210000D01*
X95640001Y-81284852D01*
X95640000Y-84602560D01*
X95400000Y-84602560D01*
X95152235Y-84651843D01*
X94942191Y-84792191D01*
X94801843Y-85002235D01*
X94752560Y-85250000D01*
X94752560Y-87250000D01*
X94801843Y-87497765D01*
X94942191Y-87707809D01*
X95152235Y-87848157D01*
X95400000Y-87897440D01*
X97400000Y-87897440D01*
X97647765Y-87848157D01*
X97857809Y-87707809D01*
X97890115Y-87659461D01*
X98290620Y-88059966D01*
X99075322Y-88385000D01*
X99924678Y-88385000D01*
X100709380Y-88059966D01*
X101309966Y-87459380D01*
X101635000Y-86674678D01*
X101635000Y-85825322D01*
X101309966Y-85040620D01*
X100709380Y-84440034D01*
X99924678Y-84115000D01*
X99363560Y-84115000D01*
X99556697Y-84035000D01*
X99715385Y-84035000D01*
X100261185Y-83808922D01*
X100678922Y-83391185D01*
X100905000Y-82845385D01*
X100905000Y-82254615D01*
X100859596Y-82145000D01*
X101114678Y-82145000D01*
X101899380Y-81819966D01*
X101986283Y-81733063D01*
X101865000Y-82025866D01*
X101865000Y-83074134D01*
X102266155Y-84042608D01*
X103007392Y-84783845D01*
X103975866Y-85185000D01*
X105024134Y-85185000D01*
X105992608Y-84783845D01*
X106733845Y-84042608D01*
X107135000Y-83074134D01*
X107135000Y-82025866D01*
X106733845Y-81057392D01*
X105992608Y-80316155D01*
X105024134Y-79915000D01*
X103975866Y-79915000D01*
X103007392Y-80316155D01*
X102779838Y-80543709D01*
X102825000Y-80434678D01*
X102825000Y-79585322D01*
X102499966Y-78800620D01*
X101899380Y-78200034D01*
X101114678Y-77875000D01*
X100265322Y-77875000D01*
X99480620Y-78200034D01*
X99086109Y-78594545D01*
X99057809Y-78552191D01*
X98847765Y-78411843D01*
X98600000Y-78362560D01*
X98360000Y-78362560D01*
X98360000Y-74834514D01*
X98472569Y-75106280D01*
X98763720Y-75397431D01*
X99144126Y-75555000D01*
X99555874Y-75555000D01*
X99936280Y-75397431D01*
X100053711Y-75280000D01*
X108560199Y-75280000D01*
X109102758Y-75822560D01*
X109100000Y-75822560D01*
X108852235Y-75871843D01*
X108642191Y-76012191D01*
X108625907Y-76036561D01*
X108249380Y-75660034D01*
X107464678Y-75335000D01*
X106615322Y-75335000D01*
X105830620Y-75660034D01*
X105230034Y-76260620D01*
X104905000Y-77045322D01*
X104905000Y-77894678D01*
X105230034Y-78679380D01*
X105830620Y-79279966D01*
X106615322Y-79605000D01*
X107464678Y-79605000D01*
X108249380Y-79279966D01*
X108625907Y-78903439D01*
X108642191Y-78927809D01*
X108852235Y-79068157D01*
X109100000Y-79117440D01*
X110492638Y-79117440D01*
X111290000Y-79914803D01*
X111290000Y-81598472D01*
X110897830Y-81206302D01*
X110315276Y-80965000D01*
X109684724Y-80965000D01*
X109443303Y-81065000D01*
X109284615Y-81065000D01*
X108738815Y-81291078D01*
X108321078Y-81708815D01*
X108095000Y-82254615D01*
X108095000Y-82845385D01*
X108321078Y-83391185D01*
X108738815Y-83808922D01*
X109284615Y-84035000D01*
X109443303Y-84035000D01*
X109684724Y-84135000D01*
X110315276Y-84135000D01*
X110897830Y-83893698D01*
X111290001Y-83501527D01*
X111290001Y-85635197D01*
X109235199Y-87690000D01*
X108897440Y-87690000D01*
X108897440Y-87450000D01*
X108848157Y-87202235D01*
X108707809Y-86992191D01*
X108497765Y-86851843D01*
X108250000Y-86802560D01*
X106350000Y-86802560D01*
X106102235Y-86851843D01*
X105993706Y-86924360D01*
X105709380Y-86640034D01*
X104924678Y-86315000D01*
X104075322Y-86315000D01*
X103290620Y-86640034D01*
X102690034Y-87240620D01*
X102365000Y-88025322D01*
X102365000Y-88874678D01*
X102690034Y-89659380D01*
X103290620Y-90259966D01*
X104075322Y-90585000D01*
X104924678Y-90585000D01*
X105709380Y-90259966D01*
X105993706Y-89975640D01*
X106102235Y-90048157D01*
X106350000Y-90097440D01*
X108250000Y-90097440D01*
X108497765Y-90048157D01*
X108707809Y-89907809D01*
X108848157Y-89697765D01*
X108897440Y-89450000D01*
X108897440Y-89210000D01*
X109475153Y-89210000D01*
X109550000Y-89224888D01*
X109624847Y-89210000D01*
X109624852Y-89210000D01*
X109846537Y-89165904D01*
X110097929Y-88997929D01*
X110140331Y-88934470D01*
X112534473Y-86540329D01*
X112597929Y-86497929D01*
X112765904Y-86246537D01*
X112810000Y-86024852D01*
X112810000Y-86024847D01*
X112824888Y-85950000D01*
X112810000Y-85875153D01*
X112810000Y-79674846D01*
X112824888Y-79599999D01*
X112810000Y-79525152D01*
X112810000Y-79525148D01*
X112765904Y-79303463D01*
X112720233Y-79235112D01*
X112640329Y-79115526D01*
X112640327Y-79115524D01*
X112597929Y-79052071D01*
X112534476Y-79009673D01*
X111747440Y-78222638D01*
X111747440Y-76470000D01*
X111698157Y-76222235D01*
X111557809Y-76012191D01*
X111347765Y-75871843D01*
X111100000Y-75822560D01*
X110860000Y-75822560D01*
X110860000Y-75819848D01*
X110874888Y-75745000D01*
X110860000Y-75670152D01*
X110860000Y-75670148D01*
X110815904Y-75448463D01*
X110647929Y-75197071D01*
X110584473Y-75154671D01*
X109465331Y-74035530D01*
X109422929Y-73972071D01*
X109171537Y-73804096D01*
X108949852Y-73760000D01*
X108949847Y-73760000D01*
X108875000Y-73745112D01*
X108800153Y-73760000D01*
X100053711Y-73760000D01*
X99936280Y-73642569D01*
X99555874Y-73485000D01*
X99144126Y-73485000D01*
X98763720Y-73642569D01*
X98472569Y-73933720D01*
X98360000Y-74205486D01*
X98360000Y-69038704D01*
X99075322Y-69335000D01*
X99924678Y-69335000D01*
X100709380Y-69009966D01*
X101309966Y-68409380D01*
X101635000Y-67624678D01*
X101635000Y-66775322D01*
X101309966Y-65990620D01*
X100709380Y-65390034D01*
X99924678Y-65065000D01*
X99363560Y-65065000D01*
X99556697Y-64985000D01*
X99715385Y-64985000D01*
X100261185Y-64758922D01*
X100678922Y-64341185D01*
X100905000Y-63795385D01*
X100905000Y-63204615D01*
X100859596Y-63095000D01*
X101114678Y-63095000D01*
X101899380Y-62769966D01*
X101986283Y-62683063D01*
X101865000Y-62975866D01*
X101865000Y-64024134D01*
X102266155Y-64992608D01*
X103007392Y-65733845D01*
X103975866Y-66135000D01*
X105024134Y-66135000D01*
X105992608Y-65733845D01*
X106733845Y-64992608D01*
X107135000Y-64024134D01*
X107135000Y-62975866D01*
X106733845Y-62007392D01*
X105992608Y-61266155D01*
X105024134Y-60865000D01*
X103975866Y-60865000D01*
X103007392Y-61266155D01*
X102779838Y-61493709D01*
X102825000Y-61384678D01*
X102825000Y-60535322D01*
X102499966Y-59750620D01*
X101899380Y-59150034D01*
X101114678Y-58825000D01*
X100265322Y-58825000D01*
X99480620Y-59150034D01*
X99086109Y-59544545D01*
X99057809Y-59502191D01*
X98847765Y-59361843D01*
X98600000Y-59312560D01*
X97570000Y-59312560D01*
X97570000Y-57443711D01*
X97687431Y-57326280D01*
X97845000Y-56945874D01*
X97845000Y-56534126D01*
X97719027Y-56230000D01*
X108560199Y-56230000D01*
X109102758Y-56772560D01*
X109100000Y-56772560D01*
X108852235Y-56821843D01*
X108642191Y-56962191D01*
X108625907Y-56986561D01*
X108249380Y-56610034D01*
X107464678Y-56285000D01*
X106615322Y-56285000D01*
X105830620Y-56610034D01*
X105230034Y-57210620D01*
X104905000Y-57995322D01*
X104905000Y-58844678D01*
X105230034Y-59629380D01*
X105830620Y-60229966D01*
X106615322Y-60555000D01*
X107464678Y-60555000D01*
X108249380Y-60229966D01*
X108625907Y-59853439D01*
X108642191Y-59877809D01*
X108852235Y-60018157D01*
X109100000Y-60067440D01*
X110492638Y-60067440D01*
X111290000Y-60864803D01*
X111290000Y-62548472D01*
X110897830Y-62156302D01*
X110315276Y-61915000D01*
X109684724Y-61915000D01*
X109443303Y-62015000D01*
X109284615Y-62015000D01*
X108738815Y-62241078D01*
X108321078Y-62658815D01*
X108095000Y-63204615D01*
X108095000Y-63795385D01*
X108321078Y-64341185D01*
X108738815Y-64758922D01*
X109284615Y-64985000D01*
X109443303Y-64985000D01*
X109684724Y-65085000D01*
X110315276Y-65085000D01*
X110897830Y-64843698D01*
X111290001Y-64451527D01*
X111290001Y-66585197D01*
X109235199Y-68640000D01*
X108897440Y-68640000D01*
X108897440Y-68400000D01*
X108848157Y-68152235D01*
X108707809Y-67942191D01*
X108497765Y-67801843D01*
X108250000Y-67752560D01*
X106350000Y-67752560D01*
X106102235Y-67801843D01*
X105993706Y-67874360D01*
X105709380Y-67590034D01*
X104924678Y-67265000D01*
X104075322Y-67265000D01*
X103290620Y-67590034D01*
X102690034Y-68190620D01*
X102365000Y-68975322D01*
X102365000Y-69824678D01*
X102690034Y-70609380D01*
X103290620Y-71209966D01*
X104075322Y-71535000D01*
X104924678Y-71535000D01*
X105709380Y-71209966D01*
X105993706Y-70925640D01*
X106102235Y-70998157D01*
X106350000Y-71047440D01*
X108250000Y-71047440D01*
X108497765Y-70998157D01*
X108707809Y-70857809D01*
X108848157Y-70647765D01*
X108897440Y-70400000D01*
X108897440Y-70160000D01*
X109475153Y-70160000D01*
X109550000Y-70174888D01*
X109624847Y-70160000D01*
X109624852Y-70160000D01*
X109846537Y-70115904D01*
X110097929Y-69947929D01*
X110140331Y-69884470D01*
X112534473Y-67490329D01*
X112597929Y-67447929D01*
X112765904Y-67196537D01*
X112810000Y-66974852D01*
X112810000Y-66974847D01*
X112824888Y-66900000D01*
X112810000Y-66825153D01*
X112810000Y-60624846D01*
X112824888Y-60549999D01*
X112810000Y-60475152D01*
X112810000Y-60475148D01*
X112765904Y-60253463D01*
X112706795Y-60165000D01*
X112640329Y-60065526D01*
X112640327Y-60065524D01*
X112597929Y-60002071D01*
X112534476Y-59959673D01*
X111747440Y-59172638D01*
X111747440Y-57420000D01*
X111698157Y-57172235D01*
X111557809Y-56962191D01*
X111347765Y-56821843D01*
X111100000Y-56772560D01*
X110860000Y-56772560D01*
X110860000Y-56769848D01*
X110874888Y-56695000D01*
X110860000Y-56620152D01*
X110860000Y-56620148D01*
X110815904Y-56398463D01*
X110647929Y-56147071D01*
X110584473Y-56104671D01*
X109465331Y-54985530D01*
X109422929Y-54922071D01*
X109171537Y-54754096D01*
X108949852Y-54710000D01*
X108949847Y-54710000D01*
X108875000Y-54695112D01*
X108800153Y-54710000D01*
X93894848Y-54710000D01*
X93820000Y-54695112D01*
X93745152Y-54710000D01*
X93745148Y-54710000D01*
X93571605Y-54744520D01*
X93523462Y-54754096D01*
X93385672Y-54846165D01*
X93272071Y-54922071D01*
X93229671Y-54985527D01*
X92253302Y-55961897D01*
X92200439Y-55940000D01*
X91629561Y-55940000D01*
X91102138Y-56158466D01*
X90783044Y-56477560D01*
X90779965Y-56477560D01*
X90672809Y-56317191D01*
X90462765Y-56176843D01*
X90215000Y-56127560D01*
X88615000Y-56127560D01*
X88367235Y-56176843D01*
X88157191Y-56317191D01*
X88016843Y-56527235D01*
X88015000Y-56536500D01*
X88013157Y-56527235D01*
X87872809Y-56317191D01*
X87662765Y-56176843D01*
X87415000Y-56127560D01*
X85815000Y-56127560D01*
X85567235Y-56176843D01*
X85460377Y-56248244D01*
X85372809Y-56117191D01*
X85162765Y-55976843D01*
X84915000Y-55927560D01*
X84875000Y-55927560D01*
X84875000Y-55549847D01*
X84889888Y-55475000D01*
X84875000Y-55400153D01*
X84875000Y-55400148D01*
X84830904Y-55178463D01*
X84662929Y-54927071D01*
X84599473Y-54884671D01*
X82795331Y-53080530D01*
X82752929Y-53017071D01*
X82501537Y-52849096D01*
X82279852Y-52805000D01*
X82279847Y-52805000D01*
X82205000Y-52790112D01*
X82130153Y-52805000D01*
X77399846Y-52805000D01*
X77324999Y-52790112D01*
X77250152Y-52805000D01*
X77250148Y-52805000D01*
X77028463Y-52849096D01*
X76777071Y-53017071D01*
X76734671Y-53080527D01*
X65675000Y-64140199D01*
X65675000Y-63824561D01*
X65456534Y-63297138D01*
X65052862Y-62893466D01*
X64923784Y-62840000D01*
X65052862Y-62786534D01*
X65456534Y-62382862D01*
X65675000Y-61855439D01*
X65675000Y-61284561D01*
X65456534Y-60757138D01*
X65052862Y-60353466D01*
X64923784Y-60300000D01*
X65052862Y-60246534D01*
X65456534Y-59842862D01*
X65675000Y-59315439D01*
X65675000Y-58744561D01*
X65456534Y-58217138D01*
X65164396Y-57925000D01*
X65166310Y-57925000D01*
X65399699Y-57828327D01*
X65578327Y-57649698D01*
X65675000Y-57416309D01*
X65675000Y-56775750D01*
X65516250Y-56617000D01*
X64367000Y-56617000D01*
X64367000Y-56637000D01*
X64113000Y-56637000D01*
X64113000Y-56617000D01*
X62963750Y-56617000D01*
X62805000Y-56775750D01*
X62805000Y-57416309D01*
X62901673Y-57649698D01*
X63080301Y-57828327D01*
X63313690Y-57925000D01*
X63315604Y-57925000D01*
X63023466Y-58217138D01*
X62805000Y-58744561D01*
X62805000Y-59315439D01*
X63023466Y-59842862D01*
X63427138Y-60246534D01*
X63556216Y-60300000D01*
X63427138Y-60353466D01*
X63023466Y-60757138D01*
X62805000Y-61284561D01*
X62805000Y-61855439D01*
X63023466Y-62382862D01*
X63427138Y-62786534D01*
X63556216Y-62840000D01*
X63427138Y-62893466D01*
X63023466Y-63297138D01*
X62805000Y-63824561D01*
X62805000Y-64395439D01*
X63023466Y-64922862D01*
X63427138Y-65326534D01*
X63556216Y-65380000D01*
X63427138Y-65433466D01*
X63023466Y-65837138D01*
X62805000Y-66364561D01*
X62805000Y-66935439D01*
X63023466Y-67462862D01*
X63427138Y-67866534D01*
X63556216Y-67920000D01*
X63427138Y-67973466D01*
X63023466Y-68377138D01*
X62805000Y-68904561D01*
X62805000Y-69220198D01*
X60740000Y-67155199D01*
X60740000Y-55784801D01*
X60961110Y-55563691D01*
X62805000Y-55563691D01*
X62805000Y-56204250D01*
X62963750Y-56363000D01*
X64113000Y-56363000D01*
X64113000Y-55213750D01*
X64367000Y-55213750D01*
X64367000Y-56363000D01*
X65516250Y-56363000D01*
X65675000Y-56204250D01*
X65675000Y-55563691D01*
X65578327Y-55330302D01*
X65399699Y-55151673D01*
X65166310Y-55055000D01*
X64525750Y-55055000D01*
X64367000Y-55213750D01*
X64113000Y-55213750D01*
X63954250Y-55055000D01*
X63313690Y-55055000D01*
X63080301Y-55151673D01*
X62901673Y-55330302D01*
X62805000Y-55563691D01*
X60961110Y-55563691D01*
X64104802Y-52420000D01*
X111100199Y-52420000D01*
X115890000Y-57209802D01*
X115890001Y-59312560D01*
X115650000Y-59312560D01*
X115402235Y-59361843D01*
X115192191Y-59502191D01*
X115051843Y-59712235D01*
X115002560Y-59960000D01*
X115002560Y-61532639D01*
X114965528Y-61569671D01*
X114902072Y-61612071D01*
X114859672Y-61675527D01*
X114859671Y-61675528D01*
X114734097Y-61863463D01*
X114675112Y-62160000D01*
X114690001Y-62234852D01*
X114690000Y-65552560D01*
X114450000Y-65552560D01*
X114202235Y-65601843D01*
X113992191Y-65742191D01*
X113851843Y-65952235D01*
X113802560Y-66200000D01*
X113802560Y-68200000D01*
X113851843Y-68447765D01*
X113992191Y-68657809D01*
X114202235Y-68798157D01*
X114450000Y-68847440D01*
X115890001Y-68847440D01*
X115890000Y-78362560D01*
X115650000Y-78362560D01*
X115402235Y-78411843D01*
X115192191Y-78552191D01*
X115051843Y-78762235D01*
X115002560Y-79010000D01*
X115002560Y-80582639D01*
X114965528Y-80619671D01*
X114902072Y-80662071D01*
X114859672Y-80725527D01*
X114859671Y-80725528D01*
X114734097Y-80913463D01*
X114675112Y-81210000D01*
X114690001Y-81284852D01*
X114690000Y-84602560D01*
X114450000Y-84602560D01*
X114202235Y-84651843D01*
X113992191Y-84792191D01*
X113851843Y-85002235D01*
X113802560Y-85250000D01*
X113802560Y-87250000D01*
X113851843Y-87497765D01*
X113992191Y-87707809D01*
X114202235Y-87848157D01*
X114450000Y-87897440D01*
X116450000Y-87897440D01*
X116697765Y-87848157D01*
X116907809Y-87707809D01*
X116940115Y-87659461D01*
X117340620Y-88059966D01*
X118125322Y-88385000D01*
X118974678Y-88385000D01*
X119759380Y-88059966D01*
X120359966Y-87459380D01*
X120685000Y-86674678D01*
X120685000Y-85825322D01*
X120359966Y-85040620D01*
X119759380Y-84440034D01*
X118974678Y-84115000D01*
X118413560Y-84115000D01*
X118606697Y-84035000D01*
X118765385Y-84035000D01*
X119311185Y-83808922D01*
X119728922Y-83391185D01*
X119955000Y-82845385D01*
X119955000Y-82254615D01*
X119909596Y-82145000D01*
X120164678Y-82145000D01*
X120949380Y-81819966D01*
X121036283Y-81733063D01*
X120915000Y-82025866D01*
X120915000Y-83074134D01*
X121316155Y-84042608D01*
X122057392Y-84783845D01*
X123025866Y-85185000D01*
X124074134Y-85185000D01*
X125042608Y-84783845D01*
X125783845Y-84042608D01*
X126185000Y-83074134D01*
X126185000Y-82025866D01*
X125783845Y-81057392D01*
X125042608Y-80316155D01*
X124074134Y-79915000D01*
X123025866Y-79915000D01*
X122057392Y-80316155D01*
X121829838Y-80543709D01*
X121875000Y-80434678D01*
X121875000Y-79585322D01*
X121549966Y-78800620D01*
X120949380Y-78200034D01*
X120164678Y-77875000D01*
X119315322Y-77875000D01*
X118530620Y-78200034D01*
X118136109Y-78594545D01*
X118107809Y-78552191D01*
X117897765Y-78411843D01*
X117650000Y-78362560D01*
X117410000Y-78362560D01*
X117410000Y-73564524D01*
X117522569Y-73836290D01*
X117813720Y-74127441D01*
X118194126Y-74285010D01*
X118605874Y-74285010D01*
X118986280Y-74127441D01*
X119103731Y-74009990D01*
X125865189Y-74009990D01*
X127797214Y-75942016D01*
X127692191Y-76012191D01*
X127675907Y-76036561D01*
X127299380Y-75660034D01*
X126514678Y-75335000D01*
X125665322Y-75335000D01*
X124880620Y-75660034D01*
X124280034Y-76260620D01*
X123955000Y-77045322D01*
X123955000Y-77894678D01*
X124280034Y-78679380D01*
X124880620Y-79279966D01*
X125665322Y-79605000D01*
X126514678Y-79605000D01*
X127299380Y-79279966D01*
X127675907Y-78903439D01*
X127692191Y-78927809D01*
X127902235Y-79068157D01*
X128150000Y-79117440D01*
X129542638Y-79117440D01*
X130340001Y-79914804D01*
X130340001Y-81598473D01*
X129947830Y-81206302D01*
X129365276Y-80965000D01*
X128734724Y-80965000D01*
X128493303Y-81065000D01*
X128334615Y-81065000D01*
X127788815Y-81291078D01*
X127371078Y-81708815D01*
X127145000Y-82254615D01*
X127145000Y-82845385D01*
X127371078Y-83391185D01*
X127788815Y-83808922D01*
X128334615Y-84035000D01*
X128493303Y-84035000D01*
X128734724Y-84135000D01*
X129365276Y-84135000D01*
X129947830Y-83893698D01*
X130340000Y-83501528D01*
X130340000Y-86270197D01*
X128920199Y-87690000D01*
X127947440Y-87690000D01*
X127947440Y-87450000D01*
X127898157Y-87202235D01*
X127757809Y-86992191D01*
X127547765Y-86851843D01*
X127300000Y-86802560D01*
X125400000Y-86802560D01*
X125152235Y-86851843D01*
X125043706Y-86924360D01*
X124759380Y-86640034D01*
X123974678Y-86315000D01*
X123125322Y-86315000D01*
X122340620Y-86640034D01*
X121740034Y-87240620D01*
X121415000Y-88025322D01*
X121415000Y-88874678D01*
X121740034Y-89659380D01*
X122340620Y-90259966D01*
X123125322Y-90585000D01*
X123974678Y-90585000D01*
X124759380Y-90259966D01*
X125043706Y-89975640D01*
X125152235Y-90048157D01*
X125400000Y-90097440D01*
X127300000Y-90097440D01*
X127547765Y-90048157D01*
X127757809Y-89907809D01*
X127898157Y-89697765D01*
X127947440Y-89450000D01*
X127947440Y-89210000D01*
X129160153Y-89210000D01*
X129235000Y-89224888D01*
X129309847Y-89210000D01*
X129309852Y-89210000D01*
X129531537Y-89165904D01*
X129782929Y-88997929D01*
X129825331Y-88934470D01*
X131584476Y-87175327D01*
X131647929Y-87132929D01*
X131690327Y-87069476D01*
X131690329Y-87069474D01*
X131815903Y-86881538D01*
X131815904Y-86881537D01*
X131860000Y-86659852D01*
X131860000Y-86659848D01*
X131874888Y-86585001D01*
X131860000Y-86510154D01*
X131860000Y-79674846D01*
X131874888Y-79599999D01*
X131860000Y-79525152D01*
X131860000Y-79525148D01*
X131815904Y-79303463D01*
X131770233Y-79235112D01*
X131690329Y-79115526D01*
X131690327Y-79115524D01*
X131647929Y-79052071D01*
X131584476Y-79009673D01*
X130797440Y-78222638D01*
X130797440Y-76470000D01*
X130748157Y-76222235D01*
X130607809Y-76012191D01*
X130397765Y-75871843D01*
X130150000Y-75822560D01*
X129798483Y-75822560D01*
X129742771Y-75739181D01*
X129740329Y-75735526D01*
X129740327Y-75735524D01*
X129697929Y-75672071D01*
X129634476Y-75629673D01*
X126770321Y-72765520D01*
X126727919Y-72702061D01*
X126476527Y-72534086D01*
X126254842Y-72489990D01*
X126254837Y-72489990D01*
X126179990Y-72475102D01*
X126105143Y-72489990D01*
X124384811Y-72489990D01*
X125827362Y-71047440D01*
X127300000Y-71047440D01*
X127547765Y-70998157D01*
X127757809Y-70857809D01*
X127898157Y-70647765D01*
X127947440Y-70400000D01*
X127947440Y-70160000D01*
X128525153Y-70160000D01*
X128600000Y-70174888D01*
X128674847Y-70160000D01*
X128674852Y-70160000D01*
X128896537Y-70115904D01*
X129147929Y-69947929D01*
X129190331Y-69884470D01*
X129785329Y-69289473D01*
X129785331Y-69289470D01*
X131584473Y-67490329D01*
X131647929Y-67447929D01*
X131763576Y-67274852D01*
X131815904Y-67196538D01*
X131825480Y-67148395D01*
X131860000Y-66974852D01*
X131860000Y-66974848D01*
X131874888Y-66900000D01*
X131860000Y-66825152D01*
X131860000Y-60624846D01*
X131874888Y-60549999D01*
X131860000Y-60475152D01*
X131860000Y-60475148D01*
X131815904Y-60253463D01*
X131756795Y-60165000D01*
X131690329Y-60065526D01*
X131690327Y-60065524D01*
X131647929Y-60002071D01*
X131584476Y-59959673D01*
X130797440Y-59172638D01*
X130797440Y-57420000D01*
X130748157Y-57172235D01*
X130607809Y-56962191D01*
X130397765Y-56821843D01*
X130150000Y-56772560D01*
X128150000Y-56772560D01*
X127902235Y-56821843D01*
X127692191Y-56962191D01*
X127675907Y-56986561D01*
X127299380Y-56610034D01*
X126514678Y-56285000D01*
X125665322Y-56285000D01*
X124880620Y-56610034D01*
X124280034Y-57210620D01*
X123955000Y-57995322D01*
X123955000Y-58844678D01*
X124280034Y-59629380D01*
X124880620Y-60229966D01*
X125665322Y-60555000D01*
X126514678Y-60555000D01*
X127299380Y-60229966D01*
X127675907Y-59853439D01*
X127692191Y-59877809D01*
X127902235Y-60018157D01*
X128150000Y-60067440D01*
X129542638Y-60067440D01*
X130340000Y-60864803D01*
X130340000Y-62548472D01*
X129947830Y-62156302D01*
X129365276Y-61915000D01*
X128734724Y-61915000D01*
X128493303Y-62015000D01*
X128334615Y-62015000D01*
X127788815Y-62241078D01*
X127371078Y-62658815D01*
X127145000Y-63204615D01*
X127145000Y-63795385D01*
X127371078Y-64341185D01*
X127788815Y-64758922D01*
X128334615Y-64985000D01*
X128493303Y-64985000D01*
X128734724Y-65085000D01*
X129365276Y-65085000D01*
X129947830Y-64843698D01*
X130340001Y-64451527D01*
X130340001Y-66585197D01*
X128710530Y-68214669D01*
X128710527Y-68214671D01*
X128285199Y-68640000D01*
X127947440Y-68640000D01*
X127947440Y-68400000D01*
X127898157Y-68152235D01*
X127757809Y-67942191D01*
X127547765Y-67801843D01*
X127300000Y-67752560D01*
X125400000Y-67752560D01*
X125152235Y-67801843D01*
X125043706Y-67874360D01*
X124759380Y-67590034D01*
X123974678Y-67265000D01*
X123125322Y-67265000D01*
X122340620Y-67590034D01*
X121740034Y-68190620D01*
X121415000Y-68975322D01*
X121415000Y-69824678D01*
X121740034Y-70609380D01*
X122340620Y-71209966D01*
X123016622Y-71489975D01*
X119103711Y-71489975D01*
X118986280Y-71372544D01*
X118605874Y-71214975D01*
X118194126Y-71214975D01*
X117813720Y-71372544D01*
X117522569Y-71663695D01*
X117410000Y-71935461D01*
X117410000Y-69038704D01*
X118125322Y-69335000D01*
X118974678Y-69335000D01*
X119759380Y-69009966D01*
X120359966Y-68409380D01*
X120685000Y-67624678D01*
X120685000Y-66775322D01*
X120359966Y-65990620D01*
X119759380Y-65390034D01*
X118974678Y-65065000D01*
X118413560Y-65065000D01*
X118606697Y-64985000D01*
X118765385Y-64985000D01*
X119311185Y-64758922D01*
X119728922Y-64341185D01*
X119955000Y-63795385D01*
X119955000Y-63204615D01*
X119909596Y-63095000D01*
X120164678Y-63095000D01*
X120949380Y-62769966D01*
X121036283Y-62683063D01*
X120915000Y-62975866D01*
X120915000Y-64024134D01*
X121316155Y-64992608D01*
X122057392Y-65733845D01*
X123025866Y-66135000D01*
X124074134Y-66135000D01*
X125042608Y-65733845D01*
X125783845Y-64992608D01*
X126185000Y-64024134D01*
X126185000Y-62975866D01*
X125783845Y-62007392D01*
X125042608Y-61266155D01*
X124074134Y-60865000D01*
X123025866Y-60865000D01*
X122057392Y-61266155D01*
X121829838Y-61493709D01*
X121875000Y-61384678D01*
X121875000Y-60535322D01*
X121549966Y-59750620D01*
X120949380Y-59150034D01*
X120164678Y-58825000D01*
X119315322Y-58825000D01*
X118530620Y-59150034D01*
X118136109Y-59544545D01*
X118107809Y-59502191D01*
X117897765Y-59361843D01*
X117650000Y-59312560D01*
X117410000Y-59312560D01*
X117410000Y-56969847D01*
X117424888Y-56895000D01*
X117410000Y-56820153D01*
X117410000Y-56820148D01*
X117365904Y-56598463D01*
X117197929Y-56347071D01*
X117134473Y-56304671D01*
X112005331Y-51175530D01*
X111962929Y-51112071D01*
X111711537Y-50944096D01*
X111489852Y-50900000D01*
X111489847Y-50900000D01*
X111415000Y-50885112D01*
X111340153Y-50900000D01*
X63864848Y-50900000D01*
X63790000Y-50885112D01*
X63715152Y-50900000D01*
X63715148Y-50900000D01*
X63566128Y-50929642D01*
X63493462Y-50944096D01*
X63333238Y-51051155D01*
X63242071Y-51112071D01*
X63199671Y-51175527D01*
X59495528Y-54879671D01*
X59432072Y-54922071D01*
X59389672Y-54985527D01*
X59389671Y-54985528D01*
X59264097Y-55173463D01*
X59205112Y-55470000D01*
X59220001Y-55544852D01*
X59220000Y-67395153D01*
X59205112Y-67470000D01*
X59220000Y-67544847D01*
X59220000Y-67544851D01*
X59264096Y-67766536D01*
X59432071Y-68017929D01*
X59495530Y-68060331D01*
X62826896Y-71391698D01*
X62805000Y-71444561D01*
X62805000Y-72015439D01*
X63023466Y-72542862D01*
X63427138Y-72946534D01*
X63556216Y-73000000D01*
X63427138Y-73053466D01*
X63023466Y-73457138D01*
X62805000Y-73984561D01*
X62805000Y-74555439D01*
X63023466Y-75082862D01*
X63427138Y-75486534D01*
X63556216Y-75540000D01*
X63427138Y-75593466D01*
X63023466Y-75997138D01*
X63001570Y-76050000D01*
X61734848Y-76050000D01*
X61660000Y-76035112D01*
X61585152Y-76050000D01*
X61585148Y-76050000D01*
X61411605Y-76084520D01*
X61363462Y-76094096D01*
X61287058Y-76145148D01*
X61112071Y-76262071D01*
X61069671Y-76325527D01*
X60521395Y-76873803D01*
X60611476Y-76703110D01*
X60441645Y-76293076D01*
X60051358Y-75864817D01*
X59526892Y-75618514D01*
X59297000Y-75739181D01*
X59297000Y-76933000D01*
X59317000Y-76933000D01*
X59317000Y-77187000D01*
X59297000Y-77187000D01*
X59297000Y-77207000D01*
X59043000Y-77207000D01*
X59043000Y-77187000D01*
X57849845Y-77187000D01*
X57728524Y-77416890D01*
X57898355Y-77826924D01*
X58288642Y-78255183D01*
X58418478Y-78316157D01*
X58099375Y-78529375D01*
X57771161Y-79020582D01*
X57655908Y-79600000D01*
X57771161Y-80179418D01*
X58099375Y-80670625D01*
X58397761Y-80870000D01*
X58099375Y-81069375D01*
X57771161Y-81560582D01*
X57655908Y-82140000D01*
X57771161Y-82719418D01*
X58099375Y-83210625D01*
X58397761Y-83410000D01*
X58099375Y-83609375D01*
X57771161Y-84100582D01*
X57655908Y-84680000D01*
X57771161Y-85259418D01*
X58099375Y-85750625D01*
X58397761Y-85950000D01*
X58099375Y-86149375D01*
X57771161Y-86640582D01*
X57655908Y-87220000D01*
X57771161Y-87799418D01*
X58099375Y-88290625D01*
X58397761Y-88490000D01*
X58099375Y-88689375D01*
X57771161Y-89180582D01*
X57655908Y-89760000D01*
X57771161Y-90339418D01*
X58099375Y-90830625D01*
X58397761Y-91030000D01*
X58099375Y-91229375D01*
X57771161Y-91720582D01*
X57655908Y-92300000D01*
X57771161Y-92879418D01*
X58099375Y-93370625D01*
X58117619Y-93382816D01*
X58072235Y-93391843D01*
X57862191Y-93532191D01*
X57721843Y-93742235D01*
X57672560Y-93990000D01*
X57672560Y-95690000D01*
X57721843Y-95937765D01*
X57862191Y-96147809D01*
X58072235Y-96288157D01*
X58320000Y-96337440D01*
X60020000Y-96337440D01*
X60267765Y-96288157D01*
X60477809Y-96147809D01*
X60618157Y-95937765D01*
X60667440Y-95690000D01*
X60667440Y-93990000D01*
X60618157Y-93742235D01*
X60477809Y-93532191D01*
X60267765Y-93391843D01*
X60222381Y-93382816D01*
X60240625Y-93370625D01*
X60568839Y-92879418D01*
X60684092Y-92300000D01*
X60568839Y-91720582D01*
X60240625Y-91229375D01*
X59942239Y-91030000D01*
X60240625Y-90830625D01*
X60568839Y-90339418D01*
X60684092Y-89760000D01*
X60568839Y-89180582D01*
X60240625Y-88689375D01*
X59942239Y-88490000D01*
X60240625Y-88290625D01*
X60568839Y-87799418D01*
X60684092Y-87220000D01*
X60568839Y-86640582D01*
X60240625Y-86149375D01*
X59942239Y-85950000D01*
X60240625Y-85750625D01*
X60568839Y-85259418D01*
X60684092Y-84680000D01*
X60568839Y-84100582D01*
X60240625Y-83609375D01*
X59942239Y-83410000D01*
X60240625Y-83210625D01*
X60568839Y-82719418D01*
X60684092Y-82140000D01*
X60568839Y-81560582D01*
X60240625Y-81069375D01*
X59942239Y-80870000D01*
X60240625Y-80670625D01*
X60568839Y-80179418D01*
X60684092Y-79600000D01*
X60568839Y-79020582D01*
X60550967Y-78993834D01*
X61974802Y-77570000D01*
X63001570Y-77570000D01*
X63023466Y-77622862D01*
X63427138Y-78026534D01*
X63556216Y-78080000D01*
X63427138Y-78133466D01*
X63023466Y-78537138D01*
X62805000Y-79064561D01*
X62805000Y-79635439D01*
X63023466Y-80162862D01*
X63427138Y-80566534D01*
X63556216Y-80620000D01*
X63427138Y-80673466D01*
X63023466Y-81077138D01*
X62805000Y-81604561D01*
X62805000Y-82175439D01*
X62826896Y-82228302D01*
X61875530Y-83179669D01*
X61812071Y-83222071D01*
X61644096Y-83473464D01*
X61600000Y-83695149D01*
X61600000Y-83695153D01*
X61585112Y-83770000D01*
X61600000Y-83844847D01*
X61600001Y-96939328D01*
X61585643Y-97028679D01*
X61617350Y-97162071D01*
X61644097Y-97296537D01*
X61652192Y-97308652D01*
X61655562Y-97322830D01*
X61735902Y-97433932D01*
X61812072Y-97547929D01*
X61887319Y-97598208D01*
X62307832Y-97988684D01*
X62275000Y-98153744D01*
X62275000Y-99246255D01*
X62361161Y-99679417D01*
X62689375Y-100170625D01*
X62733338Y-100200000D01*
X62689375Y-100229375D01*
X62361161Y-100720582D01*
X62275000Y-101153744D01*
X62275000Y-102246255D01*
X62361161Y-102679417D01*
X62689375Y-103170625D01*
X63180582Y-103498839D01*
X63760000Y-103614092D01*
X64339417Y-103498839D01*
X64625000Y-103308019D01*
X64625000Y-103745657D01*
X64813018Y-104199571D01*
X64903447Y-104290000D01*
X55031618Y-104290000D01*
X54240807Y-104219422D01*
X53505611Y-104018295D01*
X52817645Y-103690152D01*
X52198672Y-103245374D01*
X51668239Y-102698012D01*
X51243117Y-102065362D01*
X50936749Y-101367439D01*
X50757501Y-100620819D01*
X50710000Y-99973970D01*
X50710000Y-76703110D01*
X57728524Y-76703110D01*
X57849845Y-76933000D01*
X59043000Y-76933000D01*
X59043000Y-75739181D01*
X58813108Y-75618514D01*
X58288642Y-75864817D01*
X57898355Y-76293076D01*
X57728524Y-76703110D01*
X50710000Y-76703110D01*
X50710000Y-55031618D01*
X50780578Y-54240808D01*
X50981705Y-53505611D01*
X51309846Y-52817649D01*
X51754628Y-52198669D01*
X52301988Y-51668239D01*
X52934639Y-51243116D01*
X53632561Y-50936749D01*
X54379183Y-50757501D01*
X55026030Y-50710000D01*
X135968382Y-50710000D01*
X136759192Y-50780578D01*
G36*
X68103466Y-90322862D02*
X68310000Y-90529396D01*
X68310001Y-91355527D01*
X67960000Y-91285908D01*
X67380583Y-91401161D01*
X66889375Y-91729375D01*
X66561161Y-92220582D01*
X66475000Y-92653744D01*
X66475000Y-93746255D01*
X66561161Y-94179417D01*
X66889375Y-94670625D01*
X67380582Y-94998839D01*
X67960000Y-95114092D01*
X68539417Y-94998839D01*
X69030625Y-94670625D01*
X69358839Y-94179418D01*
X69445000Y-93746256D01*
X69445000Y-93113355D01*
X70425000Y-94093356D01*
X70425000Y-94385439D01*
X70643466Y-94912862D01*
X70962560Y-95231956D01*
X70962560Y-95335035D01*
X70802191Y-95442191D01*
X70661843Y-95652235D01*
X70612560Y-95900000D01*
X70612560Y-97400000D01*
X70661843Y-97647765D01*
X70802191Y-97857809D01*
X71012235Y-97998157D01*
X71021500Y-98000000D01*
X71012235Y-98001843D01*
X70802191Y-98142191D01*
X70661843Y-98352235D01*
X70612560Y-98600000D01*
X70612560Y-100100000D01*
X70661843Y-100347765D01*
X70802191Y-100557809D01*
X70962560Y-100664965D01*
X70962560Y-100768044D01*
X70643466Y-101087138D01*
X70425000Y-101614561D01*
X70425000Y-102185439D01*
X70643466Y-102712862D01*
X71047138Y-103116534D01*
X71574561Y-103335000D01*
X72145439Y-103335000D01*
X72672862Y-103116534D01*
X73076534Y-102712862D01*
X73098430Y-102660000D01*
X74357299Y-102660000D01*
X74361161Y-102679417D01*
X74689375Y-103170625D01*
X75180582Y-103498839D01*
X75760000Y-103614092D01*
X76339417Y-103498839D01*
X76625000Y-103308019D01*
X76625000Y-103745657D01*
X76813018Y-104199571D01*
X76903447Y-104290000D01*
X66816553Y-104290000D01*
X66906982Y-104199571D01*
X67095000Y-103745657D01*
X67095000Y-103254343D01*
X66906982Y-102800429D01*
X66559571Y-102453018D01*
X66105657Y-102265000D01*
X65614343Y-102265000D01*
X65207773Y-102433407D01*
X65245000Y-102246256D01*
X65245000Y-101153745D01*
X65158839Y-100720582D01*
X64830625Y-100229375D01*
X64786662Y-100200000D01*
X64830625Y-100170625D01*
X65158839Y-99679418D01*
X65245000Y-99246256D01*
X65245000Y-98153745D01*
X65158839Y-97720582D01*
X64830625Y-97229375D01*
X64339418Y-96901161D01*
X63760000Y-96785908D01*
X63336965Y-96870055D01*
X63120000Y-96668588D01*
X63120000Y-96458359D01*
X63180582Y-96498839D01*
X63760000Y-96614092D01*
X64339417Y-96498839D01*
X64625000Y-96308019D01*
X64625000Y-96745657D01*
X64813018Y-97199571D01*
X65160429Y-97546982D01*
X65614343Y-97735000D01*
X66105657Y-97735000D01*
X66559571Y-97546982D01*
X66906982Y-97199571D01*
X67095000Y-96745657D01*
X67095000Y-96254343D01*
X66906982Y-95800429D01*
X66559571Y-95453018D01*
X66105657Y-95265000D01*
X65614343Y-95265000D01*
X65207773Y-95433407D01*
X65245000Y-95246256D01*
X65245000Y-94153745D01*
X65158839Y-93720582D01*
X64830625Y-93229375D01*
X64339418Y-92901161D01*
X63760000Y-92785908D01*
X63180583Y-92901161D01*
X63120000Y-92941641D01*
X63120000Y-90419396D01*
X63427138Y-90726534D01*
X63954561Y-90945000D01*
X64525439Y-90945000D01*
X65052862Y-90726534D01*
X65456534Y-90322862D01*
X65510000Y-90193784D01*
X65563466Y-90322862D01*
X65967138Y-90726534D01*
X66494561Y-90945000D01*
X67065439Y-90945000D01*
X67592862Y-90726534D01*
X67996534Y-90322862D01*
X68050000Y-90193784D01*
X68103466Y-90322862D01*
X68103466Y-90322862D01*
G37*
X68103466Y-90322862D02*
X68310000Y-90529396D01*
X68310001Y-91355527D01*
X67960000Y-91285908D01*
X67380583Y-91401161D01*
X66889375Y-91729375D01*
X66561161Y-92220582D01*
X66475000Y-92653744D01*
X66475000Y-93746255D01*
X66561161Y-94179417D01*
X66889375Y-94670625D01*
X67380582Y-94998839D01*
X67960000Y-95114092D01*
X68539417Y-94998839D01*
X69030625Y-94670625D01*
X69358839Y-94179418D01*
X69445000Y-93746256D01*
X69445000Y-93113355D01*
X70425000Y-94093356D01*
X70425000Y-94385439D01*
X70643466Y-94912862D01*
X70962560Y-95231956D01*
X70962560Y-95335035D01*
X70802191Y-95442191D01*
X70661843Y-95652235D01*
X70612560Y-95900000D01*
X70612560Y-97400000D01*
X70661843Y-97647765D01*
X70802191Y-97857809D01*
X71012235Y-97998157D01*
X71021500Y-98000000D01*
X71012235Y-98001843D01*
X70802191Y-98142191D01*
X70661843Y-98352235D01*
X70612560Y-98600000D01*
X70612560Y-100100000D01*
X70661843Y-100347765D01*
X70802191Y-100557809D01*
X70962560Y-100664965D01*
X70962560Y-100768044D01*
X70643466Y-101087138D01*
X70425000Y-101614561D01*
X70425000Y-102185439D01*
X70643466Y-102712862D01*
X71047138Y-103116534D01*
X71574561Y-103335000D01*
X72145439Y-103335000D01*
X72672862Y-103116534D01*
X73076534Y-102712862D01*
X73098430Y-102660000D01*
X74357299Y-102660000D01*
X74361161Y-102679417D01*
X74689375Y-103170625D01*
X75180582Y-103498839D01*
X75760000Y-103614092D01*
X76339417Y-103498839D01*
X76625000Y-103308019D01*
X76625000Y-103745657D01*
X76813018Y-104199571D01*
X76903447Y-104290000D01*
X66816553Y-104290000D01*
X66906982Y-104199571D01*
X67095000Y-103745657D01*
X67095000Y-103254343D01*
X66906982Y-102800429D01*
X66559571Y-102453018D01*
X66105657Y-102265000D01*
X65614343Y-102265000D01*
X65207773Y-102433407D01*
X65245000Y-102246256D01*
X65245000Y-101153745D01*
X65158839Y-100720582D01*
X64830625Y-100229375D01*
X64786662Y-100200000D01*
X64830625Y-100170625D01*
X65158839Y-99679418D01*
X65245000Y-99246256D01*
X65245000Y-98153745D01*
X65158839Y-97720582D01*
X64830625Y-97229375D01*
X64339418Y-96901161D01*
X63760000Y-96785908D01*
X63336965Y-96870055D01*
X63120000Y-96668588D01*
X63120000Y-96458359D01*
X63180582Y-96498839D01*
X63760000Y-96614092D01*
X64339417Y-96498839D01*
X64625000Y-96308019D01*
X64625000Y-96745657D01*
X64813018Y-97199571D01*
X65160429Y-97546982D01*
X65614343Y-97735000D01*
X66105657Y-97735000D01*
X66559571Y-97546982D01*
X66906982Y-97199571D01*
X67095000Y-96745657D01*
X67095000Y-96254343D01*
X66906982Y-95800429D01*
X66559571Y-95453018D01*
X66105657Y-95265000D01*
X65614343Y-95265000D01*
X65207773Y-95433407D01*
X65245000Y-95246256D01*
X65245000Y-94153745D01*
X65158839Y-93720582D01*
X64830625Y-93229375D01*
X64339418Y-92901161D01*
X63760000Y-92785908D01*
X63180583Y-92901161D01*
X63120000Y-92941641D01*
X63120000Y-90419396D01*
X63427138Y-90726534D01*
X63954561Y-90945000D01*
X64525439Y-90945000D01*
X65052862Y-90726534D01*
X65456534Y-90322862D01*
X65510000Y-90193784D01*
X65563466Y-90322862D01*
X65967138Y-90726534D01*
X66494561Y-90945000D01*
X67065439Y-90945000D01*
X67592862Y-90726534D01*
X67996534Y-90322862D01*
X68050000Y-90193784D01*
X68103466Y-90322862D01*
G36*
X89245000Y-77489802D02*
X89245001Y-90873000D01*
X89000000Y-90873000D01*
X88951399Y-90882667D01*
X88910197Y-90910197D01*
X88882667Y-90951399D01*
X88873000Y-91000000D01*
X88873000Y-94058199D01*
X88225000Y-93410199D01*
X88225000Y-89949846D01*
X88239888Y-89874999D01*
X88225000Y-89800152D01*
X88225000Y-89800148D01*
X88180904Y-89578463D01*
X88095068Y-89450000D01*
X88055329Y-89390526D01*
X88055327Y-89390524D01*
X88012929Y-89327071D01*
X87949476Y-89284673D01*
X80893103Y-82228302D01*
X80915000Y-82175439D01*
X80915000Y-81604561D01*
X80696534Y-81077138D01*
X80292862Y-80673466D01*
X80163784Y-80620000D01*
X80292862Y-80566534D01*
X80696534Y-80162862D01*
X80915000Y-79635439D01*
X80915000Y-79064561D01*
X80696534Y-78537138D01*
X80292862Y-78133466D01*
X80163784Y-78080000D01*
X80292862Y-78026534D01*
X80696534Y-77622862D01*
X80915000Y-77095439D01*
X80915000Y-76524561D01*
X80696534Y-75997138D01*
X80292862Y-75593466D01*
X80163784Y-75540000D01*
X80292862Y-75486534D01*
X80696534Y-75082862D01*
X80915000Y-74555439D01*
X80915000Y-73984561D01*
X80696534Y-73457138D01*
X80292862Y-73053466D01*
X80163784Y-73000000D01*
X80292862Y-72946534D01*
X80696534Y-72542862D01*
X80915000Y-72015439D01*
X80915000Y-71444561D01*
X80696534Y-70917138D01*
X80292862Y-70513466D01*
X80163784Y-70460000D01*
X80292862Y-70406534D01*
X80696534Y-70002862D01*
X80915000Y-69475439D01*
X80915000Y-69159801D01*
X89245000Y-77489802D01*
X89245000Y-77489802D01*
G37*
X89245000Y-77489802D02*
X89245001Y-90873000D01*
X89000000Y-90873000D01*
X88951399Y-90882667D01*
X88910197Y-90910197D01*
X88882667Y-90951399D01*
X88873000Y-91000000D01*
X88873000Y-94058199D01*
X88225000Y-93410199D01*
X88225000Y-89949846D01*
X88239888Y-89874999D01*
X88225000Y-89800152D01*
X88225000Y-89800148D01*
X88180904Y-89578463D01*
X88095068Y-89450000D01*
X88055329Y-89390526D01*
X88055327Y-89390524D01*
X88012929Y-89327071D01*
X87949476Y-89284673D01*
X80893103Y-82228302D01*
X80915000Y-82175439D01*
X80915000Y-81604561D01*
X80696534Y-81077138D01*
X80292862Y-80673466D01*
X80163784Y-80620000D01*
X80292862Y-80566534D01*
X80696534Y-80162862D01*
X80915000Y-79635439D01*
X80915000Y-79064561D01*
X80696534Y-78537138D01*
X80292862Y-78133466D01*
X80163784Y-78080000D01*
X80292862Y-78026534D01*
X80696534Y-77622862D01*
X80915000Y-77095439D01*
X80915000Y-76524561D01*
X80696534Y-75997138D01*
X80292862Y-75593466D01*
X80163784Y-75540000D01*
X80292862Y-75486534D01*
X80696534Y-75082862D01*
X80915000Y-74555439D01*
X80915000Y-73984561D01*
X80696534Y-73457138D01*
X80292862Y-73053466D01*
X80163784Y-73000000D01*
X80292862Y-72946534D01*
X80696534Y-72542862D01*
X80915000Y-72015439D01*
X80915000Y-71444561D01*
X80696534Y-70917138D01*
X80292862Y-70513466D01*
X80163784Y-70460000D01*
X80292862Y-70406534D01*
X80696534Y-70002862D01*
X80915000Y-69475439D01*
X80915000Y-69159801D01*
X89245000Y-77489802D01*
G36*
X90970000Y-76674802D02*
X90970001Y-89050148D01*
X90955112Y-89125000D01*
X90970001Y-89199852D01*
X90995968Y-89330395D01*
X91014097Y-89421537D01*
X91118952Y-89578463D01*
X91182072Y-89672929D01*
X91245528Y-89715329D01*
X92403199Y-90873000D01*
X90765000Y-90873000D01*
X90765000Y-77249848D01*
X90779888Y-77175000D01*
X90765000Y-77100152D01*
X90765000Y-77100148D01*
X90720904Y-76878463D01*
X90720904Y-76878462D01*
X90595329Y-76690527D01*
X90552929Y-76627071D01*
X90489473Y-76584671D01*
X80893103Y-66988302D01*
X80915000Y-66935439D01*
X80915000Y-66619801D01*
X90970000Y-76674802D01*
X90970000Y-76674802D01*
G37*
X90970000Y-76674802D02*
X90970001Y-89050148D01*
X90955112Y-89125000D01*
X90970001Y-89199852D01*
X90995968Y-89330395D01*
X91014097Y-89421537D01*
X91118952Y-89578463D01*
X91182072Y-89672929D01*
X91245528Y-89715329D01*
X92403199Y-90873000D01*
X90765000Y-90873000D01*
X90765000Y-77249848D01*
X90779888Y-77175000D01*
X90765000Y-77100152D01*
X90765000Y-77100148D01*
X90720904Y-76878463D01*
X90720904Y-76878462D01*
X90595329Y-76690527D01*
X90552929Y-76627071D01*
X90489473Y-76584671D01*
X80893103Y-66988302D01*
X80915000Y-66935439D01*
X80915000Y-66619801D01*
X90970000Y-76674802D01*
G36*
X116465000Y-82234724D02*
X116465000Y-82865276D01*
X116706302Y-83447830D01*
X117152170Y-83893698D01*
X117734724Y-84135000D01*
X118077038Y-84135000D01*
X117340620Y-84440034D01*
X116940115Y-84840539D01*
X116907809Y-84792191D01*
X116697765Y-84651843D01*
X116450000Y-84602560D01*
X116210000Y-84602560D01*
X116210000Y-81657440D01*
X116704119Y-81657440D01*
X116465000Y-82234724D01*
X116465000Y-82234724D01*
G37*
X116465000Y-82234724D02*
X116465000Y-82865276D01*
X116706302Y-83447830D01*
X117152170Y-83893698D01*
X117734724Y-84135000D01*
X118077038Y-84135000D01*
X117340620Y-84440034D01*
X116940115Y-84840539D01*
X116907809Y-84792191D01*
X116697765Y-84651843D01*
X116450000Y-84602560D01*
X116210000Y-84602560D01*
X116210000Y-81657440D01*
X116704119Y-81657440D01*
X116465000Y-82234724D01*
G36*
X97415000Y-82234724D02*
X97415000Y-82865276D01*
X97656302Y-83447830D01*
X98102170Y-83893698D01*
X98684724Y-84135000D01*
X99027038Y-84135000D01*
X98290620Y-84440034D01*
X97890115Y-84840539D01*
X97857809Y-84792191D01*
X97647765Y-84651843D01*
X97400000Y-84602560D01*
X97160000Y-84602560D01*
X97160000Y-81657440D01*
X97654119Y-81657440D01*
X97415000Y-82234724D01*
X97415000Y-82234724D01*
G37*
X97415000Y-82234724D02*
X97415000Y-82865276D01*
X97656302Y-83447830D01*
X98102170Y-83893698D01*
X98684724Y-84135000D01*
X99027038Y-84135000D01*
X98290620Y-84440034D01*
X97890115Y-84840539D01*
X97857809Y-84792191D01*
X97647765Y-84651843D01*
X97400000Y-84602560D01*
X97160000Y-84602560D01*
X97160000Y-81657440D01*
X97654119Y-81657440D01*
X97415000Y-82234724D01*
G36*
X97415000Y-63184724D02*
X97415000Y-63815276D01*
X97656302Y-64397830D01*
X98102170Y-64843698D01*
X98684724Y-65085000D01*
X99027038Y-65085000D01*
X98290620Y-65390034D01*
X97890115Y-65790539D01*
X97857809Y-65742191D01*
X97647765Y-65601843D01*
X97400000Y-65552560D01*
X97160000Y-65552560D01*
X97160000Y-62607440D01*
X97654119Y-62607440D01*
X97415000Y-63184724D01*
X97415000Y-63184724D01*
G37*
X97415000Y-63184724D02*
X97415000Y-63815276D01*
X97656302Y-64397830D01*
X98102170Y-64843698D01*
X98684724Y-65085000D01*
X99027038Y-65085000D01*
X98290620Y-65390034D01*
X97890115Y-65790539D01*
X97857809Y-65742191D01*
X97647765Y-65601843D01*
X97400000Y-65552560D01*
X97160000Y-65552560D01*
X97160000Y-62607440D01*
X97654119Y-62607440D01*
X97415000Y-63184724D01*
G36*
X116465000Y-63184724D02*
X116465000Y-63815276D01*
X116706302Y-64397830D01*
X117152170Y-64843698D01*
X117734724Y-65085000D01*
X118077038Y-65085000D01*
X117340620Y-65390034D01*
X116940115Y-65790539D01*
X116907809Y-65742191D01*
X116697765Y-65601843D01*
X116450000Y-65552560D01*
X116210000Y-65552560D01*
X116210000Y-62607440D01*
X116704119Y-62607440D01*
X116465000Y-63184724D01*
X116465000Y-63184724D01*
G37*
X116465000Y-63184724D02*
X116465000Y-63815276D01*
X116706302Y-64397830D01*
X117152170Y-64843698D01*
X117734724Y-65085000D01*
X118077038Y-65085000D01*
X117340620Y-65390034D01*
X116940115Y-65790539D01*
X116907809Y-65742191D01*
X116697765Y-65601843D01*
X116450000Y-65552560D01*
X116210000Y-65552560D01*
X116210000Y-62607440D01*
X116704119Y-62607440D01*
X116465000Y-63184724D01*
G04 #@! TD*
M02*
