M48
;DRILL file {KiCad (5.0.2)-1} date 2019/03/22 22:23:27
;FORMAT={-:-/ absolute / metric / decimal}
FMAT,2
METRIC,TZ
T1C1.200
T2C1.700
T3C1.900
T4C3.000
T5C4.000
%
G90
G05
T1
X63.5Y-96.5
X63.5Y-103.5
X75.5Y-96.5
X75.5Y-103.5
T2
X119.92Y-63.5
X130.08Y-63.5
X100.87Y-82.55
X111.03Y-82.55
X119.92Y-82.55
X130.08Y-82.55
X100.87Y-63.5
X111.03Y-63.5
T3
X119.5Y-63.5
X130.5Y-63.5
X100.45Y-82.55
X111.45Y-82.55
X119.5Y-82.55
X130.5Y-82.55
X100.45Y-63.5
X111.45Y-63.5
T4
X120.Y-67.2
X121.19Y-60.96
X122.46Y-58.42
X125.Y-69.4
X127.54Y-58.42
X128.81Y-60.96
X130.Y-67.2
X100.95Y-86.25
X102.14Y-80.01
X103.41Y-77.47
X105.95Y-88.45
X108.49Y-77.47
X109.76Y-80.01
X110.95Y-86.25
X120.Y-86.25
X121.19Y-80.01
X122.46Y-77.47
X125.Y-88.45
X127.54Y-77.47
X128.81Y-80.01
X130.Y-86.25
X100.95Y-67.2
X102.14Y-60.96
X103.41Y-58.42
X105.95Y-69.4
X108.49Y-58.42
X109.76Y-60.96
X110.95Y-67.2
T5
X125.Y-63.5
X105.95Y-82.55
X125.Y-82.55
X105.95Y-63.5
T0
M30
