G04 #@! TF.GenerationSoftware,KiCad,Pcbnew,(5.0.2)-1*
G04 #@! TF.CreationDate,2019-04-07T10:51:16+09:00*
G04 #@! TF.ProjectId,mitcard,6d697463-6172-4642-9e6b-696361645f70,rev?*
G04 #@! TF.SameCoordinates,Original*
G04 #@! TF.FileFunction,Copper,L1,Top*
G04 #@! TF.FilePolarity,Positive*
%FSLAX46Y46*%
G04 Gerber Fmt 4.6, Leading zero omitted, Abs format (unit mm)*
G04 Created by KiCad (PCBNEW (5.0.2)-1) date 2019/04/07 10:51:16*
%MOMM*%
%LPD*%
G01*
G04 APERTURE LIST*
G04 #@! TA.AperFunction,ComponentPad*
%ADD10C,1.600000*%
G04 #@! TD*
G04 #@! TA.AperFunction,ComponentPad*
%ADD11R,1.600000X1.600000*%
G04 #@! TD*
G04 #@! TA.AperFunction,ComponentPad*
%ADD12C,1.900000*%
G04 #@! TD*
G04 #@! TA.AperFunction,SMDPad,CuDef*
%ADD13R,1.600000X1.200000*%
G04 #@! TD*
G04 #@! TA.AperFunction,Conductor*
%ADD14R,2.900000X0.500000*%
G04 #@! TD*
G04 #@! TA.AperFunction,ComponentPad*
%ADD15O,1.700000X2.500000*%
G04 #@! TD*
G04 #@! TA.AperFunction,SMDPad,CuDef*
%ADD16R,1.200000X1.500000*%
G04 #@! TD*
G04 #@! TA.AperFunction,Conductor*
%ADD17R,0.500000X2.900000*%
G04 #@! TD*
G04 #@! TA.AperFunction,ComponentPad*
%ADD18R,1.700000X1.700000*%
G04 #@! TD*
G04 #@! TA.AperFunction,ComponentPad*
%ADD19O,1.700000X1.700000*%
G04 #@! TD*
G04 #@! TA.AperFunction,ViaPad*
%ADD20C,0.800000*%
G04 #@! TD*
G04 #@! TA.AperFunction,Conductor*
%ADD21C,0.250000*%
G04 #@! TD*
G04 #@! TA.AperFunction,Conductor*
%ADD22C,0.750000*%
G04 #@! TD*
G04 #@! TA.AperFunction,Conductor*
%ADD23C,0.254000*%
G04 #@! TD*
G04 APERTURE END LIST*
D10*
G04 #@! TO.P,U1,17*
G04 #@! TO.N,GND*
X71860000Y-89510000D03*
G04 #@! TO.P,U1,18*
G04 #@! TO.N,Net-(U1-Pad18)*
X74400000Y-89510000D03*
G04 #@! TO.P,U1,19*
G04 #@! TO.N,Net-(U1-Pad19)*
X76940000Y-89510000D03*
G04 #@! TO.P,U1,20*
G04 #@! TO.N,SCK*
X79480000Y-89510000D03*
G04 #@! TO.P,U1,16*
G04 #@! TO.N,/3.3V*
X69320000Y-89510000D03*
G04 #@! TO.P,U1,15*
G04 #@! TO.N,Net-(U1-Pad15)*
X66780000Y-89510000D03*
G04 #@! TO.P,U1,14*
G04 #@! TO.N,MISO*
X64240000Y-89510000D03*
G04 #@! TO.P,U1,21*
G04 #@! TO.N,Net-(U1-Pad21)*
X79480000Y-86970000D03*
G04 #@! TO.P,U1,22*
G04 #@! TO.N,Net-(U1-Pad22)*
X79480000Y-84430000D03*
G04 #@! TO.P,U1,23*
G04 #@! TO.N,Net-(U1-Pad23)*
X79480000Y-81890000D03*
G04 #@! TO.P,U1,24*
G04 #@! TO.N,Net-(U1-Pad24)*
X79480000Y-79350000D03*
G04 #@! TO.P,U1,25*
G04 #@! TO.N,/SDA*
X79480000Y-76810000D03*
G04 #@! TO.P,U1,26*
G04 #@! TO.N,/SCL*
X79480000Y-74270000D03*
G04 #@! TO.P,U1,27*
G04 #@! TO.N,Net-(U1-Pad27)*
X79480000Y-71730000D03*
G04 #@! TO.P,U1,28*
G04 #@! TO.N,Net-(U1-Pad28)*
X79480000Y-69190000D03*
G04 #@! TO.P,U1,29*
G04 #@! TO.N,Net-(U1-Pad29)*
X79480000Y-66650000D03*
G04 #@! TO.P,U1,30*
G04 #@! TO.N,Net-(U1-Pad30)*
X79480000Y-64110000D03*
G04 #@! TO.P,U1,31*
G04 #@! TO.N,Net-(U1-Pad31)*
X79480000Y-61570000D03*
G04 #@! TO.P,U1,32*
G04 #@! TO.N,GND*
X79480000Y-59030000D03*
G04 #@! TO.P,U1,33*
G04 #@! TO.N,Net-(U1-Pad33)*
X79480000Y-56490000D03*
G04 #@! TO.P,U1,34*
G04 #@! TO.N,Net-(U1-Pad34)*
X76940000Y-59030000D03*
G04 #@! TO.P,U1,35*
G04 #@! TO.N,Net-(U1-Pad35)*
X76940000Y-64110000D03*
G04 #@! TO.P,U1,36*
G04 #@! TO.N,Net-(U1-Pad36)*
X76940000Y-66650000D03*
G04 #@! TO.P,U1,37*
G04 #@! TO.N,Net-(U1-Pad37)*
X76940000Y-69190000D03*
G04 #@! TO.P,U1,13*
G04 #@! TO.N,MOSI*
X64240000Y-86970000D03*
G04 #@! TO.P,U1,12*
G04 #@! TO.N,CS*
X64240000Y-84430000D03*
G04 #@! TO.P,U1,11*
G04 #@! TO.N,/INT*
X64240000Y-81890000D03*
G04 #@! TO.P,U1,10*
G04 #@! TO.N,TX*
X64240000Y-79350000D03*
G04 #@! TO.P,U1,9*
G04 #@! TO.N,RX*
X64240000Y-76810000D03*
G04 #@! TO.P,U1,8*
G04 #@! TO.N,Net-(U1-Pad8)*
X64240000Y-74270000D03*
G04 #@! TO.P,U1,7*
G04 #@! TO.N,col1*
X64240000Y-71730000D03*
G04 #@! TO.P,U1,6*
G04 #@! TO.N,col0*
X64240000Y-69190000D03*
G04 #@! TO.P,U1,5*
G04 #@! TO.N,row0*
X64240000Y-66650000D03*
G04 #@! TO.P,U1,4*
G04 #@! TO.N,row1*
X64240000Y-64110000D03*
G04 #@! TO.P,U1,3*
G04 #@! TO.N,Net-(U1-Pad3)*
X64240000Y-61570000D03*
G04 #@! TO.P,U1,2*
G04 #@! TO.N,Net-(U1-Pad2)*
X64240000Y-59030000D03*
D11*
G04 #@! TO.P,U1,1*
G04 #@! TO.N,GND*
X64240000Y-56490000D03*
D10*
G04 #@! TO.P,U1,38*
G04 #@! TO.N,Net-(U1-Pad38)*
X71860000Y-71730000D03*
G04 #@! TO.P,U1,39*
G04 #@! TO.N,Net-(U1-Pad39)*
X71860000Y-74270000D03*
G04 #@! TO.P,U1,40*
G04 #@! TO.N,N/C*
X71860000Y-76810000D03*
G04 #@! TO.P,U1,41*
X71860000Y-79350000D03*
G04 #@! TO.P,U1,42*
X71860000Y-81890000D03*
G04 #@! TO.P,U1,43*
X71860000Y-84430000D03*
G04 #@! TO.P,U1,44*
X71860000Y-86970000D03*
G04 #@! TO.P,U1,45*
X74400000Y-86970000D03*
G04 #@! TO.P,U1,46*
X74400000Y-84430000D03*
G04 #@! TO.P,U1,47*
X74400000Y-81890000D03*
G04 #@! TO.P,U1,48*
X74400000Y-79350000D03*
G04 #@! TO.P,U1,49*
X74400000Y-76810000D03*
G04 #@! TO.P,U1,50*
X74400000Y-74270000D03*
G04 #@! TO.P,U1,51*
X74400000Y-71730000D03*
D12*
G04 #@! TO.P,U1,52*
X71860000Y-66650000D03*
X71860000Y-62840000D03*
G04 #@! TD*
D13*
G04 #@! TO.P,D1,1*
G04 #@! TO.N,row0*
X86615000Y-57375000D03*
G04 #@! TO.P,D1,2*
G04 #@! TO.N,Net-(D1-Pad2)*
X89415000Y-57375000D03*
D10*
X91915000Y-57375000D03*
D11*
G04 #@! TO.P,D1,1*
G04 #@! TO.N,row0*
X84115000Y-57375000D03*
D14*
G04 #@! TD*
G04 #@! TO.N,Net-(D1-Pad2)*
G04 #@! TO.C,D1*
X90515000Y-57375000D03*
G04 #@! TO.N,row0*
G04 #@! TO.C,D1*
X85515000Y-57375000D03*
G04 #@! TD*
D13*
G04 #@! TO.P,D2,1*
G04 #@! TO.N,row1*
X86615000Y-64995000D03*
G04 #@! TO.P,D2,2*
G04 #@! TO.N,Net-(D2-Pad2)*
X89415000Y-64995000D03*
D10*
X91915000Y-64995000D03*
D11*
G04 #@! TO.P,D2,1*
G04 #@! TO.N,row1*
X84115000Y-64995000D03*
D14*
G04 #@! TD*
G04 #@! TO.N,Net-(D2-Pad2)*
G04 #@! TO.C,D2*
X90515000Y-64995000D03*
G04 #@! TO.N,row1*
G04 #@! TO.C,D2*
X85515000Y-64995000D03*
G04 #@! TD*
G04 #@! TO.N,row0*
G04 #@! TO.C,D3*
X85515000Y-59915000D03*
G04 #@! TO.N,/col1row0*
X90515000Y-59915000D03*
D11*
G04 #@! TD*
G04 #@! TO.P,D3,1*
G04 #@! TO.N,row0*
X84115000Y-59915000D03*
D10*
G04 #@! TO.P,D3,2*
G04 #@! TO.N,/col1row0*
X91915000Y-59915000D03*
D13*
X89415000Y-59915000D03*
G04 #@! TO.P,D3,1*
G04 #@! TO.N,row0*
X86615000Y-59915000D03*
G04 #@! TD*
D14*
G04 #@! TO.N,row1*
G04 #@! TO.C,D4*
X85515000Y-62455000D03*
G04 #@! TO.N,Net-(D4-Pad2)*
X90515000Y-62455000D03*
D11*
G04 #@! TD*
G04 #@! TO.P,D4,1*
G04 #@! TO.N,row1*
X84115000Y-62455000D03*
D10*
G04 #@! TO.P,D4,2*
G04 #@! TO.N,Net-(D4-Pad2)*
X91915000Y-62455000D03*
D13*
X89415000Y-62455000D03*
G04 #@! TO.P,D4,1*
G04 #@! TO.N,row1*
X86615000Y-62455000D03*
G04 #@! TD*
D15*
G04 #@! TO.P,J1,B*
G04 #@! TO.N,/SDA*
X75760000Y-101700000D03*
G04 #@! TO.P,J1,C*
G04 #@! TO.N,/SCL*
X75760000Y-98700000D03*
G04 #@! TO.P,J1,D*
G04 #@! TO.N,/3.3V*
X75760000Y-94700000D03*
G04 #@! TO.P,J1,A*
G04 #@! TO.N,GND*
X79960000Y-93200000D03*
G04 #@! TD*
G04 #@! TO.P,J2,A*
G04 #@! TO.N,Net-(J2-PadA)*
X67960000Y-93200000D03*
G04 #@! TO.P,J2,D*
G04 #@! TO.N,Net-(J2-PadD)*
X63760000Y-94700000D03*
G04 #@! TO.P,J2,C*
G04 #@! TO.N,/INT*
X63760000Y-98700000D03*
G04 #@! TO.P,J2,B*
G04 #@! TO.N,Net-(J2-PadB)*
X63760000Y-101700000D03*
G04 #@! TD*
D16*
G04 #@! TO.P,R1,1*
G04 #@! TO.N,/3.3V*
X84745000Y-96665000D03*
G04 #@! TO.P,R1,2*
G04 #@! TO.N,/SCL*
X84745000Y-99365000D03*
D10*
X84745000Y-101915000D03*
G04 #@! TO.P,R1,1*
G04 #@! TO.N,/3.3V*
X84745000Y-94115000D03*
D17*
G04 #@! TD*
G04 #@! TO.N,/SCL*
G04 #@! TO.C,R1*
X84745000Y-100515000D03*
G04 #@! TO.N,/3.3V*
G04 #@! TO.C,R1*
X84745000Y-95515000D03*
G04 #@! TD*
G04 #@! TO.N,/3.3V*
G04 #@! TO.C,R2*
X71860000Y-95500000D03*
G04 #@! TO.N,/SDA*
X71860000Y-100500000D03*
D10*
G04 #@! TD*
G04 #@! TO.P,R2,1*
G04 #@! TO.N,/3.3V*
X71860000Y-94100000D03*
G04 #@! TO.P,R2,2*
G04 #@! TO.N,/SDA*
X71860000Y-101900000D03*
D16*
X71860000Y-99350000D03*
G04 #@! TO.P,R2,1*
G04 #@! TO.N,/3.3V*
X71860000Y-96650000D03*
G04 #@! TD*
D18*
G04 #@! TO.P,J3,1*
G04 #@! TO.N,/3.3V*
X59170000Y-94840000D03*
D19*
G04 #@! TO.P,J3,2*
G04 #@! TO.N,SCK*
X59170000Y-92300000D03*
G04 #@! TO.P,J3,3*
G04 #@! TO.N,MISO*
X59170000Y-89760000D03*
G04 #@! TO.P,J3,4*
G04 #@! TO.N,MOSI*
X59170000Y-87220000D03*
G04 #@! TO.P,J3,5*
G04 #@! TO.N,CS*
X59170000Y-84680000D03*
G04 #@! TO.P,J3,6*
G04 #@! TO.N,TX*
X59170000Y-82140000D03*
G04 #@! TO.P,J3,7*
G04 #@! TO.N,RX*
X59170000Y-79600000D03*
G04 #@! TO.P,J3,8*
G04 #@! TO.N,GND*
X59170000Y-77060000D03*
G04 #@! TD*
D20*
G04 #@! TO.N,Net-(D2-Pad2)*
X99350000Y-74520000D03*
G04 #@! TO.N,Net-(D4-Pad2)*
X118400000Y-73250010D03*
G04 #@! TO.N,GND*
X61345000Y-82140000D03*
X61345000Y-88490000D03*
X61345000Y-90395000D03*
X61345000Y-85949998D03*
X85380000Y-78965000D03*
X68235000Y-99285000D03*
X97625000Y-84045000D03*
X97625000Y-64995000D03*
X116675000Y-84045000D03*
X116675000Y-64995000D03*
G04 #@! TO.N,col0*
X96810000Y-56740000D03*
G04 #@! TO.N,Net-(U1-Pad23)*
X94250000Y-100510000D03*
G04 #@! TO.N,Net-(U1-Pad29)*
X96175000Y-97380000D03*
G04 #@! TO.N,Net-(U1-Pad30)*
X116495000Y-97380000D03*
G04 #@! TO.N,/col1row0*
X118400000Y-72249975D03*
G04 #@! TD*
D21*
G04 #@! TO.N,Net-(D1-Pad2)*
X90645000Y-57375000D02*
X91190000Y-57375000D01*
G04 #@! TO.N,row0*
X83440000Y-56662999D02*
X83440000Y-56752999D01*
X83440000Y-56662999D02*
X83440000Y-56752999D01*
X84115000Y-57375000D02*
X84115000Y-59915000D01*
G04 #@! TO.N,Net-(D2-Pad2)*
X96355000Y-74520000D02*
X99350000Y-74520000D01*
X91915000Y-64995000D02*
X91915000Y-70080000D01*
X91915000Y-70080000D02*
X96355000Y-74520000D01*
G04 #@! TO.N,row1*
X84110000Y-62455000D02*
X84115000Y-62455000D01*
X82205000Y-60550000D02*
X84110000Y-62455000D01*
X82205000Y-56105000D02*
X82205000Y-60550000D01*
X80300000Y-54200000D02*
X82205000Y-56105000D01*
X64240000Y-64110000D02*
X74150000Y-54200000D01*
X74150000Y-54200000D02*
X80300000Y-54200000D01*
G04 #@! TO.N,Net-(D4-Pad2)*
X117834315Y-73250010D02*
X118400000Y-73250010D01*
X96990010Y-73250010D02*
X117834315Y-73250010D01*
X93635000Y-69895000D02*
X96990010Y-73250010D01*
X91915000Y-62455000D02*
X93635000Y-64175000D01*
X93635000Y-64175000D02*
X93635000Y-69895000D01*
G04 #@! TO.N,/SDA*
X81860000Y-79190000D02*
X79480000Y-76810000D01*
X75560000Y-101900000D02*
X75760000Y-101700000D01*
X81860000Y-96700000D02*
X81860000Y-94500000D01*
X76860000Y-101700000D02*
X81860000Y-96700000D01*
X75760000Y-101700000D02*
X76860000Y-101700000D01*
X81860000Y-95200000D02*
X81860000Y-94500000D01*
X81860000Y-94500000D02*
X81860000Y-79190000D01*
G04 #@! TO.N,/SCL*
X84745000Y-101915000D02*
X84745000Y-99920000D01*
X84745000Y-99215000D02*
X84745000Y-99365000D01*
X82840000Y-97310000D02*
X84745000Y-99215000D01*
X79480000Y-74270000D02*
X82840000Y-77630000D01*
X82840000Y-77630000D02*
X82840000Y-97310000D01*
D22*
G04 #@! TO.N,/3.3V*
X71860000Y-94100000D02*
X75160000Y-94100000D01*
X70728630Y-94100000D02*
X71860000Y-94100000D01*
X59270000Y-94840000D02*
X61610000Y-92500000D01*
X59170000Y-94840000D02*
X59270000Y-94840000D01*
X61610000Y-92500000D02*
X64233500Y-92500000D01*
X64233500Y-92500000D02*
X67233500Y-95500000D01*
X67233500Y-95500000D02*
X69328630Y-95500000D01*
X69328630Y-95500000D02*
X70728630Y-94100000D01*
D21*
G04 #@! TO.N,GND*
X97445000Y-94205000D02*
X99350000Y-92300000D01*
X99350000Y-92300000D02*
X101255000Y-94205000D01*
X101255000Y-94205000D02*
X103160000Y-92300000D01*
X103160000Y-92300000D02*
X105065000Y-94205000D01*
X105065000Y-94205000D02*
X106970000Y-92300000D01*
X106970000Y-92300000D02*
X108875000Y-94205000D01*
X108875000Y-94205000D02*
X110780000Y-92300000D01*
X91730000Y-89760000D02*
X94905000Y-92935000D01*
X94905000Y-92935000D02*
X94270000Y-93570000D01*
X94270000Y-93570000D02*
X90460000Y-89760000D01*
X94905000Y-91665000D02*
X97445000Y-94205000D01*
X93000000Y-89760000D02*
X94905000Y-91665000D01*
X89190000Y-89760000D02*
X93635000Y-94205000D01*
X89190000Y-89760000D02*
X89825000Y-89125000D01*
X89825000Y-89125000D02*
X90460000Y-89760000D01*
X90460000Y-89760000D02*
X91095000Y-89125000D01*
X91095000Y-89125000D02*
X91730000Y-89760000D01*
X91730000Y-89760000D02*
X92365000Y-89125000D01*
X92365000Y-89125000D02*
X93000000Y-89760000D01*
X94270000Y-93570000D02*
X94905000Y-94205000D01*
X94905000Y-94205000D02*
X96810000Y-92300000D01*
X96810000Y-92300000D02*
X98715000Y-94205000D01*
X98715000Y-94205000D02*
X100620000Y-92300000D01*
X100620000Y-92300000D02*
X102525000Y-94205000D01*
X102525000Y-94205000D02*
X104430000Y-92300000D01*
X104430000Y-92300000D02*
X106335000Y-94205000D01*
X106335000Y-94205000D02*
X108240000Y-92300000D01*
X108240000Y-92300000D02*
X110145000Y-94205000D01*
X110145000Y-94205000D02*
X112050000Y-92300000D01*
X112050000Y-92300000D02*
X113955000Y-94205000D01*
X113955000Y-94205000D02*
X115860000Y-92300000D01*
X115860000Y-92300000D02*
X117765000Y-94205000D01*
X117765000Y-94205000D02*
X119670000Y-92300000D01*
X119670000Y-92300000D02*
X121575000Y-94205000D01*
X126655000Y-89125000D02*
X131735000Y-94205000D01*
X131735000Y-94205000D02*
X136815000Y-89125000D01*
X136815000Y-89125000D02*
X138720000Y-91030000D01*
X127925000Y-94205000D02*
X124750000Y-91030000D01*
X122845000Y-94205000D02*
X127925000Y-89125000D01*
X133005000Y-94205000D02*
X138085000Y-89125000D01*
X128560000Y-89760000D02*
X133005000Y-94205000D01*
X138720000Y-89760000D02*
X134275000Y-94205000D01*
X138085000Y-89125000D02*
X138720000Y-89760000D01*
X119035000Y-94205000D02*
X117130000Y-92300000D01*
X117130000Y-92300000D02*
X115225000Y-94205000D01*
X115225000Y-94205000D02*
X113320000Y-92300000D01*
X113320000Y-92300000D02*
X111415000Y-94205000D01*
X111415000Y-94205000D02*
X109510000Y-92300000D01*
X109510000Y-92300000D02*
X107605000Y-94205000D01*
X107605000Y-94205000D02*
X105700000Y-92300000D01*
X105700000Y-92300000D02*
X103795000Y-94205000D01*
X103795000Y-94205000D02*
X101890000Y-92300000D01*
X101890000Y-92300000D02*
X99985000Y-94205000D01*
X99985000Y-94205000D02*
X98080000Y-92300000D01*
X98080000Y-92300000D02*
X96175000Y-94205000D01*
X96175000Y-94205000D02*
X94905000Y-92935000D01*
X110780000Y-92300000D02*
X112685000Y-94205000D01*
X112685000Y-94205000D02*
X114590000Y-92300000D01*
X114590000Y-92300000D02*
X116495000Y-94205000D01*
X116495000Y-94205000D02*
X118400000Y-92300000D01*
X118400000Y-92300000D02*
X120305000Y-94205000D01*
X120305000Y-94205000D02*
X122845000Y-91665000D01*
X122210000Y-91030000D02*
X121575000Y-91665000D01*
X120940000Y-92300000D02*
X122845000Y-94205000D01*
X120940000Y-92300000D02*
X119035000Y-94205000D01*
X121575000Y-91665000D02*
X120940000Y-92300000D01*
X124115000Y-91665000D02*
X126020000Y-93570000D01*
X126020000Y-93570000D02*
X125385000Y-94205000D01*
X124115000Y-91665000D02*
X124750000Y-91030000D01*
X121575000Y-94205000D02*
X124115000Y-91665000D01*
X126020000Y-89760000D02*
X129830000Y-93570000D01*
X126020000Y-89760000D02*
X126655000Y-89125000D01*
X124750000Y-91030000D02*
X126020000Y-89760000D01*
X129830000Y-89760000D02*
X134275000Y-94205000D01*
X129830000Y-89760000D02*
X126020000Y-93570000D01*
X130465000Y-89125000D02*
X129830000Y-89760000D01*
X131100000Y-89760000D02*
X127290000Y-93570000D01*
X131100000Y-89760000D02*
X130465000Y-89125000D01*
X135545000Y-94205000D02*
X131100000Y-89760000D01*
X128560000Y-89760000D02*
X124750000Y-93570000D01*
X124750000Y-93570000D02*
X122210000Y-91030000D01*
X125385000Y-94205000D02*
X124750000Y-93570000D01*
X127925000Y-89125000D02*
X128560000Y-89760000D01*
X132370000Y-89760000D02*
X137450000Y-94840000D01*
X132370000Y-89760000D02*
X127925000Y-94205000D01*
X128560000Y-89760000D02*
X129195000Y-89125000D01*
X129195000Y-89125000D02*
X129830000Y-89760000D01*
X131100000Y-89760000D02*
X131735000Y-89125000D01*
X131735000Y-89125000D02*
X132370000Y-89760000D01*
X122845000Y-91665000D02*
X123480000Y-91030000D01*
X123480000Y-91030000D02*
X124115000Y-91665000D01*
X120940000Y-92300000D02*
X119670000Y-91030000D01*
X119670000Y-91030000D02*
X120305000Y-90395000D01*
X120305000Y-90395000D02*
X121575000Y-91665000D01*
X119670000Y-92300000D02*
X121575000Y-90395000D01*
X121575000Y-90395000D02*
X122210000Y-91030000D01*
X122210000Y-91030000D02*
X122845000Y-90395000D01*
X122845000Y-90395000D02*
X123480000Y-91030000D01*
X123480000Y-91030000D02*
X124115000Y-90395000D01*
X124115000Y-90395000D02*
X124750000Y-91030000D01*
X129195000Y-94205000D02*
X125385000Y-90395000D01*
X134275000Y-89125000D02*
X129195000Y-94205000D01*
X124115000Y-94205000D02*
X124750000Y-93570000D01*
X121575000Y-91665000D02*
X124115000Y-94205000D01*
X126020000Y-93570000D02*
X126655000Y-94205000D01*
X126655000Y-94205000D02*
X127290000Y-93570000D01*
X129830000Y-93570000D02*
X130465000Y-94205000D01*
X130465000Y-94205000D02*
X130781795Y-93888205D01*
X130781795Y-93888205D02*
X131100000Y-93570000D01*
X87920000Y-93570000D02*
X92365000Y-98015000D01*
X91730000Y-89760000D02*
X87920000Y-93570000D01*
X92365000Y-98015000D02*
X87920000Y-102460000D01*
X88555000Y-103095000D02*
X92365000Y-99285000D01*
X87920000Y-102460000D02*
X88555000Y-103095000D01*
X87920000Y-94840000D02*
X93000000Y-89760000D01*
X92365000Y-99285000D02*
X87920000Y-94840000D01*
X88555000Y-103095000D02*
X89190000Y-103730000D01*
X89190000Y-103730000D02*
X92365000Y-100555000D01*
X87920000Y-96110000D02*
X93635000Y-90395000D01*
X92365000Y-100555000D02*
X87920000Y-96110000D01*
X87920000Y-102460000D02*
X89825000Y-104365000D01*
X89825000Y-104365000D02*
X92365000Y-101825000D01*
X87920000Y-92300000D02*
X90460000Y-89760000D01*
X92365000Y-96745000D02*
X87920000Y-92300000D01*
X87920000Y-97380000D02*
X92365000Y-101825000D01*
X94270000Y-91030000D02*
X87920000Y-97380000D01*
X91095000Y-104365000D02*
X87920000Y-101190000D01*
X87920000Y-101190000D02*
X92365000Y-96745000D01*
X94270000Y-92300000D02*
X94905000Y-91665000D01*
X87920000Y-98650000D02*
X94270000Y-92300000D01*
X92365000Y-103095000D02*
X87920000Y-98650000D01*
X91095000Y-104365000D02*
X92365000Y-103095000D01*
X88555000Y-89125000D02*
X89190000Y-89760000D01*
X87920000Y-89760000D02*
X88555000Y-89125000D01*
X88555000Y-90395000D02*
X87920000Y-89760000D01*
X95540000Y-92300000D02*
X93635000Y-94205000D01*
X92365000Y-94205000D02*
X87920000Y-89760000D01*
X87920000Y-91030000D02*
X89190000Y-89760000D01*
X92365000Y-95475000D02*
X87920000Y-91030000D01*
X87920000Y-99920000D02*
X92365000Y-95475000D01*
X89825000Y-104365000D02*
X92365000Y-104365000D01*
X92365000Y-104365000D02*
X87920000Y-99920000D01*
X92365000Y-104365000D02*
X92365000Y-94205000D01*
X92365000Y-94205000D02*
X135545000Y-94205000D01*
X135545000Y-94205000D02*
X135545000Y-96600000D01*
X135545000Y-103030000D02*
X135545000Y-102985000D01*
X135545000Y-103030000D02*
X135545000Y-104365000D01*
X135545000Y-96600000D02*
X135545000Y-103030000D01*
X135545000Y-102985000D02*
X140599990Y-97930010D01*
X138299234Y-103982384D02*
X138757168Y-103661736D01*
X137572766Y-104321141D02*
X138299234Y-103982384D01*
X137409081Y-104365000D02*
X137572766Y-104321141D01*
X130781795Y-93888205D02*
X135545000Y-89125000D01*
X137750000Y-104030000D02*
X137750000Y-104080000D01*
X135545000Y-101825000D02*
X137750000Y-104030000D01*
X138670000Y-103680000D02*
X138670000Y-103722772D01*
X135545000Y-100555000D02*
X138670000Y-103680000D01*
X139270000Y-103010000D02*
X139270000Y-103180000D01*
X135545000Y-99285000D02*
X139270000Y-103010000D01*
X138860896Y-103589104D02*
X139270000Y-103180000D01*
X138731082Y-103680000D02*
X138860896Y-103589104D01*
X138670000Y-103680000D02*
X138731082Y-103680000D01*
X133005000Y-89125000D02*
X132370000Y-89760000D01*
X139870000Y-102450000D02*
X139870000Y-102340000D01*
X139870000Y-102340000D02*
X135545000Y-98015000D01*
X139870000Y-102450000D02*
X139886807Y-102435733D01*
X139522626Y-102955836D02*
X139870000Y-102450000D01*
X139270000Y-103180000D02*
X139298462Y-103180000D01*
X139298462Y-103180000D02*
X139522626Y-102955836D01*
X135545001Y-96702868D02*
X135545000Y-96600000D01*
X140340954Y-101498821D02*
X135545001Y-96702868D01*
X139870000Y-102450000D02*
X140110000Y-101980000D01*
X140110000Y-101980000D02*
X140340954Y-101498821D01*
X138460000Y-98390000D02*
X140550938Y-100480936D01*
X138460000Y-98390000D02*
X138720000Y-98650000D01*
X135545000Y-95475000D02*
X138460000Y-98390000D01*
X136695978Y-104365000D02*
X136680000Y-104365000D01*
X140550938Y-100510040D02*
X136695978Y-104365000D01*
X140550938Y-100480936D02*
X140550938Y-100510040D01*
X135545000Y-104365000D02*
X136680000Y-104365000D01*
X136680000Y-104365000D02*
X137409081Y-104365000D01*
X135545000Y-104365000D02*
X135545000Y-104355000D01*
X135545000Y-104355000D02*
X140590000Y-99310000D01*
X136680000Y-104180000D02*
X136680000Y-104365000D01*
X135545000Y-103030000D02*
X135545000Y-103045000D01*
X135545000Y-103045000D02*
X136680000Y-104180000D01*
X140480000Y-100950000D02*
X140550938Y-100510040D01*
X140340954Y-101498821D02*
X140480000Y-100950000D01*
X138500000Y-98870000D02*
X140600000Y-96770000D01*
X138500000Y-98870000D02*
X135545000Y-101825000D01*
X138720000Y-98650000D02*
X138500000Y-98870000D01*
X138410000Y-97070000D02*
X138720000Y-97380000D01*
X135545000Y-94205000D02*
X138410000Y-97070000D01*
X140554118Y-100506860D02*
X140550938Y-100510040D01*
X140599990Y-99982538D02*
X140554118Y-100506860D01*
X140599990Y-99249990D02*
X140599990Y-99982538D01*
X138410000Y-97070000D02*
X138420000Y-97070000D01*
X138420000Y-97070000D02*
X140599990Y-99249990D01*
X138410000Y-97690000D02*
X135545000Y-100555000D01*
X138720000Y-97380000D02*
X138410000Y-97690000D01*
X138410000Y-97680000D02*
X140599990Y-95490010D01*
X138410000Y-97690000D02*
X138410000Y-97680000D01*
X138530000Y-95920000D02*
X138720000Y-96110000D01*
X137450000Y-94840000D02*
X138530000Y-95920000D01*
X140599990Y-97930010D02*
X140597462Y-98040000D01*
X140570000Y-97960000D02*
X140290000Y-98240000D01*
X138530000Y-95920000D02*
X140570000Y-97960000D01*
X137800000Y-94490000D02*
X137800000Y-94500000D01*
X137450000Y-94840000D02*
X137800000Y-94490000D01*
X137800000Y-94500000D02*
X135680000Y-96620000D01*
X138440000Y-94560000D02*
X133005000Y-89125000D01*
X138720000Y-94840000D02*
X138440000Y-94560000D01*
X140550000Y-96720000D02*
X140550000Y-96640000D01*
X140600000Y-96770000D02*
X140550000Y-96720000D01*
X138440000Y-94560000D02*
X140600000Y-96720000D01*
X140600000Y-96720000D02*
X140600000Y-96770000D01*
X138410000Y-96420000D02*
X135545000Y-99285000D01*
X138720000Y-96110000D02*
X138410000Y-96420000D01*
X138370000Y-93220000D02*
X134275000Y-89125000D01*
X138720000Y-93570000D02*
X138370000Y-93220000D01*
X140597462Y-98040000D02*
X140581149Y-98750000D01*
X140599990Y-98731159D02*
X140581149Y-98750000D01*
X140599990Y-95429990D02*
X140599990Y-98731159D01*
X138370000Y-93220000D02*
X138390000Y-93220000D01*
X138390000Y-93220000D02*
X140599990Y-95429990D01*
X140580000Y-99230000D02*
X140599990Y-99249990D01*
X140581149Y-98750000D02*
X140580000Y-98800000D01*
X140580000Y-98800000D02*
X140580000Y-99230000D01*
X138520000Y-95040000D02*
X138530000Y-95040000D01*
X138520000Y-95040000D02*
X138720000Y-94840000D01*
X135545000Y-98015000D02*
X138520000Y-95040000D01*
X138530000Y-95040000D02*
X140599990Y-92970010D01*
X138210000Y-94080000D02*
X138220000Y-94080000D01*
X138210000Y-94080000D02*
X138720000Y-93570000D01*
X137800000Y-94490000D02*
X138210000Y-94080000D01*
X138220000Y-94080000D02*
X140599990Y-91700010D01*
X140599990Y-92909990D02*
X140599990Y-92970010D01*
X138720000Y-91030000D02*
X140599990Y-92909990D01*
X138460000Y-92040000D02*
X138720000Y-92300000D01*
X135545000Y-89125000D02*
X138460000Y-92040000D01*
X138420000Y-96420000D02*
X138410000Y-96420000D01*
X140599990Y-94240010D02*
X138420000Y-96420000D01*
X140599990Y-94169990D02*
X140599990Y-94240010D01*
X138460000Y-92040000D02*
X138470000Y-92040000D01*
X138470000Y-92040000D02*
X140599990Y-94169990D01*
X140599990Y-95429990D02*
X140599990Y-91700010D01*
X138090000Y-91660000D02*
X135545000Y-94205000D01*
X138720000Y-91030000D02*
X138090000Y-91660000D01*
X139360000Y-91660000D02*
X138550000Y-92470000D01*
X138090000Y-91660000D02*
X139360000Y-91660000D01*
X138720000Y-92300000D02*
X138550000Y-92470000D01*
X138550000Y-92470000D02*
X135545000Y-95475000D01*
X140559980Y-91660000D02*
X140599990Y-91700010D01*
X139360000Y-91660000D02*
X140559980Y-91660000D01*
G04 #@! TO.N,col0*
X64240000Y-69190000D02*
X61250000Y-66200000D01*
X61250000Y-66200000D02*
X61250000Y-56105000D01*
X61250000Y-56105000D02*
X64425000Y-52930000D01*
X64425000Y-52930000D02*
X92365000Y-52930000D01*
X92365000Y-52930000D02*
X93000000Y-52930000D01*
X93000000Y-52930000D02*
X96810000Y-56740000D01*
G04 #@! TO.N,/col1row0*
X92714999Y-60714999D02*
X91915000Y-59915000D01*
X95032000Y-63032000D02*
X92714999Y-60714999D01*
X95032000Y-69387000D02*
X95032000Y-63032000D01*
X118400000Y-72249975D02*
X97894975Y-72249975D01*
X97894975Y-72249975D02*
X95032000Y-69387000D01*
G04 #@! TO.N,SCK*
X61010000Y-92000000D02*
X59170000Y-92000000D01*
X62010000Y-91000000D02*
X61010000Y-92000000D01*
X77960000Y-91000000D02*
X62010000Y-91000000D01*
X78650001Y-90309999D02*
X77960000Y-91000000D01*
X79480000Y-89510000D02*
X78680001Y-90309999D01*
X78680001Y-90309999D02*
X78650001Y-90309999D01*
G04 #@! TO.N,MISO*
X64190000Y-89460000D02*
X64240000Y-89510000D01*
X59170000Y-89460000D02*
X64190000Y-89460000D01*
G04 #@! TO.N,MOSI*
X64190000Y-86920000D02*
X64240000Y-86970000D01*
X59170000Y-86920000D02*
X64190000Y-86920000D01*
G04 #@! TO.N,CS*
X64190000Y-84380000D02*
X64240000Y-84430000D01*
X59170000Y-84380000D02*
X64190000Y-84380000D01*
G04 #@! TO.N,TX*
X61660000Y-79350000D02*
X64240000Y-79350000D01*
X59170000Y-81840000D02*
X61660000Y-79350000D01*
G04 #@! TD*
D23*
G04 #@! TO.N,Net-(U1-Pad29)*
G36*
X112685000Y-98018819D02*
X96171124Y-98523059D01*
X96122841Y-98534205D01*
X96082498Y-98562980D01*
X96056239Y-98605003D01*
X96048000Y-98650000D01*
X96048000Y-100555000D01*
X96057667Y-100603601D01*
X96085197Y-100644803D01*
X96126399Y-100672333D01*
X96171124Y-100681941D01*
X112685000Y-101186181D01*
X112685000Y-102460000D01*
X95540000Y-102460000D01*
X95540000Y-96745000D01*
X112685000Y-96745000D01*
X112685000Y-98018819D01*
X112685000Y-98018819D01*
G37*
X112685000Y-98018819D02*
X96171124Y-98523059D01*
X96122841Y-98534205D01*
X96082498Y-98562980D01*
X96056239Y-98605003D01*
X96048000Y-98650000D01*
X96048000Y-100555000D01*
X96057667Y-100603601D01*
X96085197Y-100644803D01*
X96126399Y-100672333D01*
X96171124Y-100681941D01*
X112685000Y-101186181D01*
X112685000Y-102460000D01*
X95540000Y-102460000D01*
X95540000Y-96745000D01*
X112685000Y-96745000D01*
X112685000Y-98018819D01*
G04 #@! TO.N,Net-(U1-Pad30)*
G36*
X132370000Y-102460000D02*
X115225000Y-102460000D01*
X115225000Y-101186181D01*
X131738876Y-100681941D01*
X131787159Y-100670795D01*
X131827502Y-100642020D01*
X131853761Y-100599997D01*
X131862000Y-100555000D01*
X131862000Y-98650000D01*
X131852333Y-98601399D01*
X131824803Y-98560197D01*
X131783601Y-98532667D01*
X131738876Y-98523059D01*
X115225000Y-98018819D01*
X115225000Y-96745000D01*
X132370000Y-96745000D01*
X132370000Y-102460000D01*
X132370000Y-102460000D01*
G37*
X132370000Y-102460000D02*
X115225000Y-102460000D01*
X115225000Y-101186181D01*
X131738876Y-100681941D01*
X131787159Y-100670795D01*
X131827502Y-100642020D01*
X131853761Y-100599997D01*
X131862000Y-100555000D01*
X131862000Y-98650000D01*
X131852333Y-98601399D01*
X131824803Y-98560197D01*
X131783601Y-98532667D01*
X131738876Y-98523059D01*
X115225000Y-98018819D01*
X115225000Y-96745000D01*
X132370000Y-96745000D01*
X132370000Y-102460000D01*
G04 #@! TO.N,Net-(U1-Pad23)*
G36*
X134423000Y-104290000D02*
X93677000Y-104290000D01*
X93677000Y-96110000D01*
X94778000Y-96110000D01*
X94778000Y-103095000D01*
X94787667Y-103143601D01*
X94815197Y-103184803D01*
X94856399Y-103212333D01*
X94905000Y-103222000D01*
X113320000Y-103222000D01*
X113368601Y-103212333D01*
X113409803Y-103184803D01*
X113437333Y-103143601D01*
X113447000Y-103095000D01*
X113447000Y-100555000D01*
X113437333Y-100506399D01*
X113409803Y-100465197D01*
X113368601Y-100437667D01*
X113323876Y-100428059D01*
X96810000Y-99923819D01*
X96810000Y-99281181D01*
X113323876Y-98776941D01*
X113372159Y-98765795D01*
X113412502Y-98737020D01*
X113438761Y-98694997D01*
X113447000Y-98650000D01*
X113447000Y-96110000D01*
X114463000Y-96110000D01*
X114463000Y-98650000D01*
X114472667Y-98698601D01*
X114500197Y-98739803D01*
X114541399Y-98767333D01*
X114586124Y-98776941D01*
X131100000Y-99281181D01*
X131100000Y-99923819D01*
X114586124Y-100428059D01*
X114537841Y-100439205D01*
X114497498Y-100467980D01*
X114471239Y-100510003D01*
X114463000Y-100555000D01*
X114463000Y-103095000D01*
X114472667Y-103143601D01*
X114500197Y-103184803D01*
X114541399Y-103212333D01*
X114590000Y-103222000D01*
X133005000Y-103222000D01*
X133053601Y-103212333D01*
X133094803Y-103184803D01*
X133122333Y-103143601D01*
X133132000Y-103095000D01*
X133132000Y-96110000D01*
X133122333Y-96061399D01*
X133094803Y-96020197D01*
X133053601Y-95992667D01*
X133005000Y-95983000D01*
X114590000Y-95983000D01*
X114541399Y-95992667D01*
X114500197Y-96020197D01*
X114472667Y-96061399D01*
X114463000Y-96110000D01*
X113447000Y-96110000D01*
X113437333Y-96061399D01*
X113409803Y-96020197D01*
X113368601Y-95992667D01*
X113320000Y-95983000D01*
X94905000Y-95983000D01*
X94856399Y-95992667D01*
X94815197Y-96020197D01*
X94787667Y-96061399D01*
X94778000Y-96110000D01*
X93677000Y-96110000D01*
X93677000Y-95127000D01*
X134423000Y-95127000D01*
X134423000Y-104290000D01*
X134423000Y-104290000D01*
G37*
X134423000Y-104290000D02*
X93677000Y-104290000D01*
X93677000Y-96110000D01*
X94778000Y-96110000D01*
X94778000Y-103095000D01*
X94787667Y-103143601D01*
X94815197Y-103184803D01*
X94856399Y-103212333D01*
X94905000Y-103222000D01*
X113320000Y-103222000D01*
X113368601Y-103212333D01*
X113409803Y-103184803D01*
X113437333Y-103143601D01*
X113447000Y-103095000D01*
X113447000Y-100555000D01*
X113437333Y-100506399D01*
X113409803Y-100465197D01*
X113368601Y-100437667D01*
X113323876Y-100428059D01*
X96810000Y-99923819D01*
X96810000Y-99281181D01*
X113323876Y-98776941D01*
X113372159Y-98765795D01*
X113412502Y-98737020D01*
X113438761Y-98694997D01*
X113447000Y-98650000D01*
X113447000Y-96110000D01*
X114463000Y-96110000D01*
X114463000Y-98650000D01*
X114472667Y-98698601D01*
X114500197Y-98739803D01*
X114541399Y-98767333D01*
X114586124Y-98776941D01*
X131100000Y-99281181D01*
X131100000Y-99923819D01*
X114586124Y-100428059D01*
X114537841Y-100439205D01*
X114497498Y-100467980D01*
X114471239Y-100510003D01*
X114463000Y-100555000D01*
X114463000Y-103095000D01*
X114472667Y-103143601D01*
X114500197Y-103184803D01*
X114541399Y-103212333D01*
X114590000Y-103222000D01*
X133005000Y-103222000D01*
X133053601Y-103212333D01*
X133094803Y-103184803D01*
X133122333Y-103143601D01*
X133132000Y-103095000D01*
X133132000Y-96110000D01*
X133122333Y-96061399D01*
X133094803Y-96020197D01*
X133053601Y-95992667D01*
X133005000Y-95983000D01*
X114590000Y-95983000D01*
X114541399Y-95992667D01*
X114500197Y-96020197D01*
X114472667Y-96061399D01*
X114463000Y-96110000D01*
X113447000Y-96110000D01*
X113437333Y-96061399D01*
X113409803Y-96020197D01*
X113368601Y-95992667D01*
X113320000Y-95983000D01*
X94905000Y-95983000D01*
X94856399Y-95992667D01*
X94815197Y-96020197D01*
X94787667Y-96061399D01*
X94778000Y-96110000D01*
X93677000Y-96110000D01*
X93677000Y-95127000D01*
X134423000Y-95127000D01*
X134423000Y-104290000D01*
G04 #@! TO.N,GND*
G36*
X136759192Y-50780578D02*
X137494389Y-50981705D01*
X138182351Y-51309846D01*
X138801331Y-51754628D01*
X139331761Y-52301988D01*
X139756884Y-52934639D01*
X140063251Y-53632561D01*
X140242499Y-54379183D01*
X140290001Y-55026044D01*
X140290000Y-92298197D01*
X91275324Y-92173000D01*
X91226699Y-92182544D01*
X91185427Y-92209968D01*
X91157792Y-92251100D01*
X91148000Y-92300000D01*
X91148000Y-104290000D01*
X78816553Y-104290000D01*
X78906982Y-104199571D01*
X79095000Y-103745657D01*
X79095000Y-103254343D01*
X78906982Y-102800429D01*
X78559571Y-102453018D01*
X78105657Y-102265000D01*
X77614343Y-102265000D01*
X77207773Y-102433407D01*
X77219642Y-102373738D01*
X77407929Y-102247929D01*
X77450331Y-102184470D01*
X82108197Y-97526605D01*
X82124097Y-97606537D01*
X82200300Y-97720582D01*
X82292072Y-97857929D01*
X82355528Y-97900329D01*
X83497560Y-99042362D01*
X83497560Y-100115000D01*
X83546843Y-100362765D01*
X83687191Y-100572809D01*
X83847560Y-100679965D01*
X83847560Y-100783044D01*
X83528466Y-101102138D01*
X83310000Y-101629561D01*
X83310000Y-102200439D01*
X83528466Y-102727862D01*
X83932138Y-103131534D01*
X84459561Y-103350000D01*
X85030439Y-103350000D01*
X85557862Y-103131534D01*
X85961534Y-102727862D01*
X86180000Y-102200439D01*
X86180000Y-101629561D01*
X85961534Y-101102138D01*
X85642440Y-100783044D01*
X85642440Y-100679965D01*
X85802809Y-100572809D01*
X85943157Y-100362765D01*
X85992440Y-100115000D01*
X85992440Y-98615000D01*
X85943157Y-98367235D01*
X85802809Y-98157191D01*
X85592765Y-98016843D01*
X85583500Y-98015000D01*
X85592765Y-98013157D01*
X85802809Y-97872809D01*
X85943157Y-97662765D01*
X85992440Y-97415000D01*
X85992440Y-95915000D01*
X85943157Y-95667235D01*
X85802809Y-95457191D01*
X85642440Y-95350035D01*
X85642440Y-95246956D01*
X85961534Y-94927862D01*
X86180000Y-94400439D01*
X86180000Y-93829561D01*
X85961534Y-93302138D01*
X85557862Y-92898466D01*
X85030439Y-92680000D01*
X84459561Y-92680000D01*
X83932138Y-92898466D01*
X83600000Y-93230604D01*
X83600000Y-85825322D01*
X97365000Y-85825322D01*
X97365000Y-86674678D01*
X97690034Y-87459380D01*
X98290620Y-88059966D01*
X99075322Y-88385000D01*
X99924678Y-88385000D01*
X100709380Y-88059966D01*
X100744024Y-88025322D01*
X102365000Y-88025322D01*
X102365000Y-88874678D01*
X102690034Y-89659380D01*
X103290620Y-90259966D01*
X104075322Y-90585000D01*
X104924678Y-90585000D01*
X105709380Y-90259966D01*
X106309966Y-89659380D01*
X106635000Y-88874678D01*
X106635000Y-88025322D01*
X106309966Y-87240620D01*
X105709380Y-86640034D01*
X104924678Y-86315000D01*
X104075322Y-86315000D01*
X103290620Y-86640034D01*
X102690034Y-87240620D01*
X102365000Y-88025322D01*
X100744024Y-88025322D01*
X101309966Y-87459380D01*
X101635000Y-86674678D01*
X101635000Y-85825322D01*
X116415000Y-85825322D01*
X116415000Y-86674678D01*
X116740034Y-87459380D01*
X117340620Y-88059966D01*
X118125322Y-88385000D01*
X118974678Y-88385000D01*
X119759380Y-88059966D01*
X119794024Y-88025322D01*
X121415000Y-88025322D01*
X121415000Y-88874678D01*
X121740034Y-89659380D01*
X122340620Y-90259966D01*
X123125322Y-90585000D01*
X123974678Y-90585000D01*
X124759380Y-90259966D01*
X125359966Y-89659380D01*
X125685000Y-88874678D01*
X125685000Y-88025322D01*
X125359966Y-87240620D01*
X124759380Y-86640034D01*
X123974678Y-86315000D01*
X123125322Y-86315000D01*
X122340620Y-86640034D01*
X121740034Y-87240620D01*
X121415000Y-88025322D01*
X119794024Y-88025322D01*
X120359966Y-87459380D01*
X120685000Y-86674678D01*
X120685000Y-85825322D01*
X120359966Y-85040620D01*
X119759380Y-84440034D01*
X118974678Y-84115000D01*
X118413560Y-84115000D01*
X118606697Y-84035000D01*
X118765385Y-84035000D01*
X119311185Y-83808922D01*
X119728922Y-83391185D01*
X119955000Y-82845385D01*
X119955000Y-82254615D01*
X119909596Y-82145000D01*
X120164678Y-82145000D01*
X120949380Y-81819966D01*
X121036283Y-81733063D01*
X120915000Y-82025866D01*
X120915000Y-83074134D01*
X121316155Y-84042608D01*
X122057392Y-84783845D01*
X123025866Y-85185000D01*
X124074134Y-85185000D01*
X125042608Y-84783845D01*
X125783845Y-84042608D01*
X126185000Y-83074134D01*
X126185000Y-82254615D01*
X127145000Y-82254615D01*
X127145000Y-82845385D01*
X127371078Y-83391185D01*
X127788815Y-83808922D01*
X128334615Y-84035000D01*
X128493303Y-84035000D01*
X128734724Y-84135000D01*
X129365276Y-84135000D01*
X129947830Y-83893698D01*
X130393698Y-83447830D01*
X130635000Y-82865276D01*
X130635000Y-82234724D01*
X130393698Y-81652170D01*
X129947830Y-81206302D01*
X129365276Y-80965000D01*
X128734724Y-80965000D01*
X128493303Y-81065000D01*
X128334615Y-81065000D01*
X127788815Y-81291078D01*
X127371078Y-81708815D01*
X127145000Y-82254615D01*
X126185000Y-82254615D01*
X126185000Y-82025866D01*
X125783845Y-81057392D01*
X125042608Y-80316155D01*
X124074134Y-79915000D01*
X123025866Y-79915000D01*
X122057392Y-80316155D01*
X121829838Y-80543709D01*
X121875000Y-80434678D01*
X121875000Y-79585322D01*
X121549966Y-78800620D01*
X120949380Y-78200034D01*
X120164678Y-77875000D01*
X119315322Y-77875000D01*
X118530620Y-78200034D01*
X117930034Y-78800620D01*
X117605000Y-79585322D01*
X117605000Y-80434678D01*
X117824666Y-80965000D01*
X117734724Y-80965000D01*
X117152170Y-81206302D01*
X116706302Y-81652170D01*
X116465000Y-82234724D01*
X116465000Y-82865276D01*
X116706302Y-83447830D01*
X117152170Y-83893698D01*
X117734724Y-84135000D01*
X118077038Y-84135000D01*
X117340620Y-84440034D01*
X116740034Y-85040620D01*
X116415000Y-85825322D01*
X101635000Y-85825322D01*
X101309966Y-85040620D01*
X100709380Y-84440034D01*
X99924678Y-84115000D01*
X99363560Y-84115000D01*
X99556697Y-84035000D01*
X99715385Y-84035000D01*
X100261185Y-83808922D01*
X100678922Y-83391185D01*
X100905000Y-82845385D01*
X100905000Y-82254615D01*
X100859596Y-82145000D01*
X101114678Y-82145000D01*
X101899380Y-81819966D01*
X101986283Y-81733063D01*
X101865000Y-82025866D01*
X101865000Y-83074134D01*
X102266155Y-84042608D01*
X103007392Y-84783845D01*
X103975866Y-85185000D01*
X105024134Y-85185000D01*
X105992608Y-84783845D01*
X106733845Y-84042608D01*
X107135000Y-83074134D01*
X107135000Y-82254615D01*
X108095000Y-82254615D01*
X108095000Y-82845385D01*
X108321078Y-83391185D01*
X108738815Y-83808922D01*
X109284615Y-84035000D01*
X109443303Y-84035000D01*
X109684724Y-84135000D01*
X110315276Y-84135000D01*
X110897830Y-83893698D01*
X111343698Y-83447830D01*
X111585000Y-82865276D01*
X111585000Y-82234724D01*
X111343698Y-81652170D01*
X110897830Y-81206302D01*
X110315276Y-80965000D01*
X109684724Y-80965000D01*
X109443303Y-81065000D01*
X109284615Y-81065000D01*
X108738815Y-81291078D01*
X108321078Y-81708815D01*
X108095000Y-82254615D01*
X107135000Y-82254615D01*
X107135000Y-82025866D01*
X106733845Y-81057392D01*
X105992608Y-80316155D01*
X105024134Y-79915000D01*
X103975866Y-79915000D01*
X103007392Y-80316155D01*
X102779838Y-80543709D01*
X102825000Y-80434678D01*
X102825000Y-79585322D01*
X102499966Y-78800620D01*
X101899380Y-78200034D01*
X101114678Y-77875000D01*
X100265322Y-77875000D01*
X99480620Y-78200034D01*
X98880034Y-78800620D01*
X98555000Y-79585322D01*
X98555000Y-80434678D01*
X98774666Y-80965000D01*
X98684724Y-80965000D01*
X98102170Y-81206302D01*
X97656302Y-81652170D01*
X97415000Y-82234724D01*
X97415000Y-82865276D01*
X97656302Y-83447830D01*
X98102170Y-83893698D01*
X98684724Y-84135000D01*
X99027038Y-84135000D01*
X98290620Y-84440034D01*
X97690034Y-85040620D01*
X97365000Y-85825322D01*
X83600000Y-85825322D01*
X83600000Y-77704848D01*
X83614888Y-77630000D01*
X83600000Y-77555152D01*
X83600000Y-77555148D01*
X83555904Y-77333463D01*
X83387929Y-77082071D01*
X83332931Y-77045322D01*
X104905000Y-77045322D01*
X104905000Y-77894678D01*
X105230034Y-78679380D01*
X105830620Y-79279966D01*
X106615322Y-79605000D01*
X107464678Y-79605000D01*
X108249380Y-79279966D01*
X108849966Y-78679380D01*
X109175000Y-77894678D01*
X109175000Y-77045322D01*
X123955000Y-77045322D01*
X123955000Y-77894678D01*
X124280034Y-78679380D01*
X124880620Y-79279966D01*
X125665322Y-79605000D01*
X126514678Y-79605000D01*
X127299380Y-79279966D01*
X127899966Y-78679380D01*
X128225000Y-77894678D01*
X128225000Y-77045322D01*
X127899966Y-76260620D01*
X127299380Y-75660034D01*
X126514678Y-75335000D01*
X125665322Y-75335000D01*
X124880620Y-75660034D01*
X124280034Y-76260620D01*
X123955000Y-77045322D01*
X109175000Y-77045322D01*
X108849966Y-76260620D01*
X108249380Y-75660034D01*
X107464678Y-75335000D01*
X106615322Y-75335000D01*
X105830620Y-75660034D01*
X105230034Y-76260620D01*
X104905000Y-77045322D01*
X83332931Y-77045322D01*
X83324473Y-77039671D01*
X80893103Y-74608302D01*
X80915000Y-74555439D01*
X80915000Y-73984561D01*
X80696534Y-73457138D01*
X80292862Y-73053466D01*
X80163784Y-73000000D01*
X80292862Y-72946534D01*
X80696534Y-72542862D01*
X80915000Y-72015439D01*
X80915000Y-71444561D01*
X80696534Y-70917138D01*
X80292862Y-70513466D01*
X80163784Y-70460000D01*
X80292862Y-70406534D01*
X80696534Y-70002862D01*
X80915000Y-69475439D01*
X80915000Y-68904561D01*
X80696534Y-68377138D01*
X80292862Y-67973466D01*
X80163784Y-67920000D01*
X80292862Y-67866534D01*
X80696534Y-67462862D01*
X80915000Y-66935439D01*
X80915000Y-66364561D01*
X80696534Y-65837138D01*
X80292862Y-65433466D01*
X80163784Y-65380000D01*
X80292862Y-65326534D01*
X80696534Y-64922862D01*
X80915000Y-64395439D01*
X80915000Y-63824561D01*
X80696534Y-63297138D01*
X80292862Y-62893466D01*
X80163784Y-62840000D01*
X80292862Y-62786534D01*
X80696534Y-62382862D01*
X80915000Y-61855439D01*
X80915000Y-61284561D01*
X80696534Y-60757138D01*
X80292862Y-60353466D01*
X80179417Y-60306475D01*
X80234005Y-60283864D01*
X80308139Y-60037745D01*
X79480000Y-59209605D01*
X78651861Y-60037745D01*
X78725995Y-60283864D01*
X78784448Y-60304874D01*
X78667138Y-60353466D01*
X78263466Y-60757138D01*
X78045000Y-61284561D01*
X78045000Y-61855439D01*
X78263466Y-62382862D01*
X78667138Y-62786534D01*
X78796216Y-62840000D01*
X78667138Y-62893466D01*
X78263466Y-63297138D01*
X78210000Y-63426216D01*
X78156534Y-63297138D01*
X77752862Y-62893466D01*
X77225439Y-62675000D01*
X76654561Y-62675000D01*
X76127138Y-62893466D01*
X75723466Y-63297138D01*
X75505000Y-63824561D01*
X75505000Y-64395439D01*
X75723466Y-64922862D01*
X76127138Y-65326534D01*
X76256216Y-65380000D01*
X76127138Y-65433466D01*
X75723466Y-65837138D01*
X75505000Y-66364561D01*
X75505000Y-66935439D01*
X75723466Y-67462862D01*
X76127138Y-67866534D01*
X76256216Y-67920000D01*
X76127138Y-67973466D01*
X75723466Y-68377138D01*
X75505000Y-68904561D01*
X75505000Y-69475439D01*
X75723466Y-70002862D01*
X76127138Y-70406534D01*
X76654561Y-70625000D01*
X77225439Y-70625000D01*
X77752862Y-70406534D01*
X78156534Y-70002862D01*
X78210000Y-69873784D01*
X78263466Y-70002862D01*
X78667138Y-70406534D01*
X78796216Y-70460000D01*
X78667138Y-70513466D01*
X78263466Y-70917138D01*
X78045000Y-71444561D01*
X78045000Y-72015439D01*
X78263466Y-72542862D01*
X78667138Y-72946534D01*
X78796216Y-73000000D01*
X78667138Y-73053466D01*
X78263466Y-73457138D01*
X78045000Y-73984561D01*
X78045000Y-74555439D01*
X78263466Y-75082862D01*
X78667138Y-75486534D01*
X78796216Y-75540000D01*
X78667138Y-75593466D01*
X78263466Y-75997138D01*
X78045000Y-76524561D01*
X78045000Y-77095439D01*
X78263466Y-77622862D01*
X78667138Y-78026534D01*
X78796216Y-78080000D01*
X78667138Y-78133466D01*
X78263466Y-78537138D01*
X78045000Y-79064561D01*
X78045000Y-79635439D01*
X78263466Y-80162862D01*
X78667138Y-80566534D01*
X78796216Y-80620000D01*
X78667138Y-80673466D01*
X78263466Y-81077138D01*
X78045000Y-81604561D01*
X78045000Y-82175439D01*
X78263466Y-82702862D01*
X78667138Y-83106534D01*
X78796216Y-83160000D01*
X78667138Y-83213466D01*
X78263466Y-83617138D01*
X78045000Y-84144561D01*
X78045000Y-84715439D01*
X78263466Y-85242862D01*
X78667138Y-85646534D01*
X78796216Y-85700000D01*
X78667138Y-85753466D01*
X78263466Y-86157138D01*
X78045000Y-86684561D01*
X78045000Y-87255439D01*
X78263466Y-87782862D01*
X78667138Y-88186534D01*
X78796216Y-88240000D01*
X78667138Y-88293466D01*
X78263466Y-88697138D01*
X78210000Y-88826216D01*
X78156534Y-88697138D01*
X77752862Y-88293466D01*
X77225439Y-88075000D01*
X76654561Y-88075000D01*
X76127138Y-88293466D01*
X75723466Y-88697138D01*
X75670000Y-88826216D01*
X75616534Y-88697138D01*
X75212862Y-88293466D01*
X75083784Y-88240000D01*
X75212862Y-88186534D01*
X75616534Y-87782862D01*
X75835000Y-87255439D01*
X75835000Y-86684561D01*
X75616534Y-86157138D01*
X75212862Y-85753466D01*
X75083784Y-85700000D01*
X75212862Y-85646534D01*
X75616534Y-85242862D01*
X75835000Y-84715439D01*
X75835000Y-84144561D01*
X75616534Y-83617138D01*
X75212862Y-83213466D01*
X75083784Y-83160000D01*
X75212862Y-83106534D01*
X75616534Y-82702862D01*
X75835000Y-82175439D01*
X75835000Y-81604561D01*
X75616534Y-81077138D01*
X75212862Y-80673466D01*
X75083784Y-80620000D01*
X75212862Y-80566534D01*
X75616534Y-80162862D01*
X75835000Y-79635439D01*
X75835000Y-79064561D01*
X75616534Y-78537138D01*
X75212862Y-78133466D01*
X75083784Y-78080000D01*
X75212862Y-78026534D01*
X75616534Y-77622862D01*
X75835000Y-77095439D01*
X75835000Y-76524561D01*
X75616534Y-75997138D01*
X75212862Y-75593466D01*
X75083784Y-75540000D01*
X75212862Y-75486534D01*
X75616534Y-75082862D01*
X75835000Y-74555439D01*
X75835000Y-73984561D01*
X75616534Y-73457138D01*
X75212862Y-73053466D01*
X75083784Y-73000000D01*
X75212862Y-72946534D01*
X75616534Y-72542862D01*
X75835000Y-72015439D01*
X75835000Y-71444561D01*
X75616534Y-70917138D01*
X75212862Y-70513466D01*
X74685439Y-70295000D01*
X74114561Y-70295000D01*
X73587138Y-70513466D01*
X73183466Y-70917138D01*
X73130000Y-71046216D01*
X73076534Y-70917138D01*
X72672862Y-70513466D01*
X72145439Y-70295000D01*
X71574561Y-70295000D01*
X71047138Y-70513466D01*
X70643466Y-70917138D01*
X70425000Y-71444561D01*
X70425000Y-72015439D01*
X70643466Y-72542862D01*
X71047138Y-72946534D01*
X71176216Y-73000000D01*
X71047138Y-73053466D01*
X70643466Y-73457138D01*
X70425000Y-73984561D01*
X70425000Y-74555439D01*
X70643466Y-75082862D01*
X71047138Y-75486534D01*
X71176216Y-75540000D01*
X71047138Y-75593466D01*
X70643466Y-75997138D01*
X70425000Y-76524561D01*
X70425000Y-77095439D01*
X70643466Y-77622862D01*
X71047138Y-78026534D01*
X71176216Y-78080000D01*
X71047138Y-78133466D01*
X70643466Y-78537138D01*
X70425000Y-79064561D01*
X70425000Y-79635439D01*
X70643466Y-80162862D01*
X71047138Y-80566534D01*
X71176216Y-80620000D01*
X71047138Y-80673466D01*
X70643466Y-81077138D01*
X70425000Y-81604561D01*
X70425000Y-82175439D01*
X70643466Y-82702862D01*
X71047138Y-83106534D01*
X71176216Y-83160000D01*
X71047138Y-83213466D01*
X70643466Y-83617138D01*
X70425000Y-84144561D01*
X70425000Y-84715439D01*
X70643466Y-85242862D01*
X71047138Y-85646534D01*
X71176216Y-85700000D01*
X71047138Y-85753466D01*
X70643466Y-86157138D01*
X70425000Y-86684561D01*
X70425000Y-87255439D01*
X70643466Y-87782862D01*
X71047138Y-88186534D01*
X71160583Y-88233525D01*
X71105995Y-88256136D01*
X71031861Y-88502255D01*
X71860000Y-89330395D01*
X72688139Y-88502255D01*
X72614005Y-88256136D01*
X72555552Y-88235126D01*
X72672862Y-88186534D01*
X73076534Y-87782862D01*
X73130000Y-87653784D01*
X73183466Y-87782862D01*
X73587138Y-88186534D01*
X73716216Y-88240000D01*
X73587138Y-88293466D01*
X73183466Y-88697138D01*
X73136475Y-88810583D01*
X73113864Y-88755995D01*
X72867745Y-88681861D01*
X72039605Y-89510000D01*
X72053748Y-89524142D01*
X71874142Y-89703748D01*
X71860000Y-89689605D01*
X71845858Y-89703748D01*
X71666252Y-89524142D01*
X71680395Y-89510000D01*
X70852255Y-88681861D01*
X70606136Y-88755995D01*
X70585126Y-88814448D01*
X70536534Y-88697138D01*
X70132862Y-88293466D01*
X69605439Y-88075000D01*
X69034561Y-88075000D01*
X68507138Y-88293466D01*
X68103466Y-88697138D01*
X68050000Y-88826216D01*
X67996534Y-88697138D01*
X67592862Y-88293466D01*
X67065439Y-88075000D01*
X66494561Y-88075000D01*
X65967138Y-88293466D01*
X65563466Y-88697138D01*
X65510000Y-88826216D01*
X65456534Y-88697138D01*
X65052862Y-88293466D01*
X64923784Y-88240000D01*
X65052862Y-88186534D01*
X65456534Y-87782862D01*
X65675000Y-87255439D01*
X65675000Y-86684561D01*
X65456534Y-86157138D01*
X65052862Y-85753466D01*
X64923784Y-85700000D01*
X65052862Y-85646534D01*
X65456534Y-85242862D01*
X65675000Y-84715439D01*
X65675000Y-84144561D01*
X65456534Y-83617138D01*
X65052862Y-83213466D01*
X64923784Y-83160000D01*
X65052862Y-83106534D01*
X65456534Y-82702862D01*
X65675000Y-82175439D01*
X65675000Y-81604561D01*
X65456534Y-81077138D01*
X65052862Y-80673466D01*
X64923784Y-80620000D01*
X65052862Y-80566534D01*
X65456534Y-80162862D01*
X65675000Y-79635439D01*
X65675000Y-79064561D01*
X65456534Y-78537138D01*
X65052862Y-78133466D01*
X64923784Y-78080000D01*
X65052862Y-78026534D01*
X65456534Y-77622862D01*
X65675000Y-77095439D01*
X65675000Y-76524561D01*
X65456534Y-75997138D01*
X65052862Y-75593466D01*
X64923784Y-75540000D01*
X65052862Y-75486534D01*
X65456534Y-75082862D01*
X65675000Y-74555439D01*
X65675000Y-73984561D01*
X65456534Y-73457138D01*
X65052862Y-73053466D01*
X64923784Y-73000000D01*
X65052862Y-72946534D01*
X65456534Y-72542862D01*
X65675000Y-72015439D01*
X65675000Y-71444561D01*
X65456534Y-70917138D01*
X65052862Y-70513466D01*
X64923784Y-70460000D01*
X65052862Y-70406534D01*
X65456534Y-70002862D01*
X65675000Y-69475439D01*
X65675000Y-68904561D01*
X65456534Y-68377138D01*
X65052862Y-67973466D01*
X64923784Y-67920000D01*
X65052862Y-67866534D01*
X65456534Y-67462862D01*
X65675000Y-66935439D01*
X65675000Y-66364561D01*
X65662642Y-66334724D01*
X70275000Y-66334724D01*
X70275000Y-66965276D01*
X70516302Y-67547830D01*
X70962170Y-67993698D01*
X71544724Y-68235000D01*
X72175276Y-68235000D01*
X72757830Y-67993698D01*
X73203698Y-67547830D01*
X73445000Y-66965276D01*
X73445000Y-66334724D01*
X73203698Y-65752170D01*
X72757830Y-65306302D01*
X72175276Y-65065000D01*
X71544724Y-65065000D01*
X70962170Y-65306302D01*
X70516302Y-65752170D01*
X70275000Y-66334724D01*
X65662642Y-66334724D01*
X65456534Y-65837138D01*
X65052862Y-65433466D01*
X64923784Y-65380000D01*
X65052862Y-65326534D01*
X65456534Y-64922862D01*
X65675000Y-64395439D01*
X65675000Y-63824561D01*
X65653103Y-63771698D01*
X66900077Y-62524724D01*
X70275000Y-62524724D01*
X70275000Y-63155276D01*
X70516302Y-63737830D01*
X70962170Y-64183698D01*
X71544724Y-64425000D01*
X72175276Y-64425000D01*
X72757830Y-64183698D01*
X73203698Y-63737830D01*
X73445000Y-63155276D01*
X73445000Y-62524724D01*
X73203698Y-61942170D01*
X72757830Y-61496302D01*
X72175276Y-61255000D01*
X71544724Y-61255000D01*
X70962170Y-61496302D01*
X70516302Y-61942170D01*
X70275000Y-62524724D01*
X66900077Y-62524724D01*
X70680240Y-58744561D01*
X75505000Y-58744561D01*
X75505000Y-59315439D01*
X75723466Y-59842862D01*
X76127138Y-60246534D01*
X76654561Y-60465000D01*
X77225439Y-60465000D01*
X77752862Y-60246534D01*
X78156534Y-59842862D01*
X78203525Y-59729417D01*
X78226136Y-59784005D01*
X78472255Y-59858139D01*
X79300395Y-59030000D01*
X79659605Y-59030000D01*
X80487745Y-59858139D01*
X80733864Y-59784005D01*
X80926965Y-59246777D01*
X80899778Y-58676546D01*
X80733864Y-58275995D01*
X80487745Y-58201861D01*
X79659605Y-59030000D01*
X79300395Y-59030000D01*
X78472255Y-58201861D01*
X78226136Y-58275995D01*
X78205126Y-58334448D01*
X78156534Y-58217138D01*
X77752862Y-57813466D01*
X77225439Y-57595000D01*
X76654561Y-57595000D01*
X76127138Y-57813466D01*
X75723466Y-58217138D01*
X75505000Y-58744561D01*
X70680240Y-58744561D01*
X73220241Y-56204561D01*
X78045000Y-56204561D01*
X78045000Y-56775439D01*
X78263466Y-57302862D01*
X78667138Y-57706534D01*
X78780583Y-57753525D01*
X78725995Y-57776136D01*
X78651861Y-58022255D01*
X79480000Y-58850395D01*
X80308139Y-58022255D01*
X80234005Y-57776136D01*
X80175552Y-57755126D01*
X80292862Y-57706534D01*
X80696534Y-57302862D01*
X80915000Y-56775439D01*
X80915000Y-56204561D01*
X80696534Y-55677138D01*
X80292862Y-55273466D01*
X79765439Y-55055000D01*
X79194561Y-55055000D01*
X78667138Y-55273466D01*
X78263466Y-55677138D01*
X78045000Y-56204561D01*
X73220241Y-56204561D01*
X74464803Y-54960000D01*
X79985199Y-54960000D01*
X81445000Y-56419802D01*
X81445001Y-60475148D01*
X81430112Y-60550000D01*
X81445001Y-60624852D01*
X81489097Y-60846537D01*
X81657072Y-61097929D01*
X81720528Y-61140329D01*
X82667560Y-62087362D01*
X82667560Y-63255000D01*
X82716843Y-63502765D01*
X82857191Y-63712809D01*
X82875436Y-63725000D01*
X82857191Y-63737191D01*
X82716843Y-63947235D01*
X82667560Y-64195000D01*
X82667560Y-65795000D01*
X82716843Y-66042765D01*
X82857191Y-66252809D01*
X83067235Y-66393157D01*
X83315000Y-66442440D01*
X84915000Y-66442440D01*
X85162765Y-66393157D01*
X85372809Y-66252809D01*
X85460377Y-66121756D01*
X85567235Y-66193157D01*
X85815000Y-66242440D01*
X87415000Y-66242440D01*
X87662765Y-66193157D01*
X87872809Y-66052809D01*
X88013157Y-65842765D01*
X88015000Y-65833500D01*
X88016843Y-65842765D01*
X88157191Y-66052809D01*
X88367235Y-66193157D01*
X88615000Y-66242440D01*
X90215000Y-66242440D01*
X90462765Y-66193157D01*
X90672809Y-66052809D01*
X90779965Y-65892440D01*
X90783044Y-65892440D01*
X91102138Y-66211534D01*
X91155000Y-66233430D01*
X91155001Y-70005148D01*
X91140112Y-70080000D01*
X91155001Y-70154852D01*
X91199097Y-70376537D01*
X91367072Y-70627929D01*
X91430528Y-70670329D01*
X95764671Y-75004473D01*
X95807071Y-75067929D01*
X96058463Y-75235904D01*
X96280148Y-75280000D01*
X96280152Y-75280000D01*
X96354999Y-75294888D01*
X96429846Y-75280000D01*
X98646289Y-75280000D01*
X98763720Y-75397431D01*
X99144126Y-75555000D01*
X99555874Y-75555000D01*
X99936280Y-75397431D01*
X100227431Y-75106280D01*
X100385000Y-74725874D01*
X100385000Y-74314126D01*
X100259031Y-74010010D01*
X117696289Y-74010010D01*
X117813720Y-74127441D01*
X118194126Y-74285010D01*
X118605874Y-74285010D01*
X118986280Y-74127441D01*
X119277431Y-73836290D01*
X119435000Y-73455884D01*
X119435000Y-73044136D01*
X119313162Y-72749992D01*
X119435000Y-72455849D01*
X119435000Y-72044101D01*
X119277431Y-71663695D01*
X118986280Y-71372544D01*
X118605874Y-71214975D01*
X118194126Y-71214975D01*
X117813720Y-71372544D01*
X117696289Y-71489975D01*
X105033378Y-71489975D01*
X105709380Y-71209966D01*
X106309966Y-70609380D01*
X106635000Y-69824678D01*
X106635000Y-68975322D01*
X106309966Y-68190620D01*
X105709380Y-67590034D01*
X104924678Y-67265000D01*
X104075322Y-67265000D01*
X103290620Y-67590034D01*
X102690034Y-68190620D01*
X102365000Y-68975322D01*
X102365000Y-69824678D01*
X102690034Y-70609380D01*
X103290620Y-71209966D01*
X103966622Y-71489975D01*
X98209777Y-71489975D01*
X95792000Y-69072199D01*
X95792000Y-66775322D01*
X97365000Y-66775322D01*
X97365000Y-67624678D01*
X97690034Y-68409380D01*
X98290620Y-69009966D01*
X99075322Y-69335000D01*
X99924678Y-69335000D01*
X100709380Y-69009966D01*
X101309966Y-68409380D01*
X101635000Y-67624678D01*
X101635000Y-66775322D01*
X116415000Y-66775322D01*
X116415000Y-67624678D01*
X116740034Y-68409380D01*
X117340620Y-69009966D01*
X118125322Y-69335000D01*
X118974678Y-69335000D01*
X119759380Y-69009966D01*
X119794024Y-68975322D01*
X121415000Y-68975322D01*
X121415000Y-69824678D01*
X121740034Y-70609380D01*
X122340620Y-71209966D01*
X123125322Y-71535000D01*
X123974678Y-71535000D01*
X124759380Y-71209966D01*
X125359966Y-70609380D01*
X125685000Y-69824678D01*
X125685000Y-68975322D01*
X125359966Y-68190620D01*
X124759380Y-67590034D01*
X123974678Y-67265000D01*
X123125322Y-67265000D01*
X122340620Y-67590034D01*
X121740034Y-68190620D01*
X121415000Y-68975322D01*
X119794024Y-68975322D01*
X120359966Y-68409380D01*
X120685000Y-67624678D01*
X120685000Y-66775322D01*
X120359966Y-65990620D01*
X119759380Y-65390034D01*
X118974678Y-65065000D01*
X118413560Y-65065000D01*
X118606697Y-64985000D01*
X118765385Y-64985000D01*
X119311185Y-64758922D01*
X119728922Y-64341185D01*
X119955000Y-63795385D01*
X119955000Y-63204615D01*
X119909596Y-63095000D01*
X120164678Y-63095000D01*
X120949380Y-62769966D01*
X121036283Y-62683063D01*
X120915000Y-62975866D01*
X120915000Y-64024134D01*
X121316155Y-64992608D01*
X122057392Y-65733845D01*
X123025866Y-66135000D01*
X124074134Y-66135000D01*
X125042608Y-65733845D01*
X125783845Y-64992608D01*
X126185000Y-64024134D01*
X126185000Y-63204615D01*
X127145000Y-63204615D01*
X127145000Y-63795385D01*
X127371078Y-64341185D01*
X127788815Y-64758922D01*
X128334615Y-64985000D01*
X128493303Y-64985000D01*
X128734724Y-65085000D01*
X129365276Y-65085000D01*
X129947830Y-64843698D01*
X130393698Y-64397830D01*
X130635000Y-63815276D01*
X130635000Y-63184724D01*
X130393698Y-62602170D01*
X129947830Y-62156302D01*
X129365276Y-61915000D01*
X128734724Y-61915000D01*
X128493303Y-62015000D01*
X128334615Y-62015000D01*
X127788815Y-62241078D01*
X127371078Y-62658815D01*
X127145000Y-63204615D01*
X126185000Y-63204615D01*
X126185000Y-62975866D01*
X125783845Y-62007392D01*
X125042608Y-61266155D01*
X124074134Y-60865000D01*
X123025866Y-60865000D01*
X122057392Y-61266155D01*
X121829838Y-61493709D01*
X121875000Y-61384678D01*
X121875000Y-60535322D01*
X121549966Y-59750620D01*
X120949380Y-59150034D01*
X120164678Y-58825000D01*
X119315322Y-58825000D01*
X118530620Y-59150034D01*
X117930034Y-59750620D01*
X117605000Y-60535322D01*
X117605000Y-61384678D01*
X117824666Y-61915000D01*
X117734724Y-61915000D01*
X117152170Y-62156302D01*
X116706302Y-62602170D01*
X116465000Y-63184724D01*
X116465000Y-63815276D01*
X116706302Y-64397830D01*
X117152170Y-64843698D01*
X117734724Y-65085000D01*
X118077038Y-65085000D01*
X117340620Y-65390034D01*
X116740034Y-65990620D01*
X116415000Y-66775322D01*
X101635000Y-66775322D01*
X101309966Y-65990620D01*
X100709380Y-65390034D01*
X99924678Y-65065000D01*
X99363560Y-65065000D01*
X99556697Y-64985000D01*
X99715385Y-64985000D01*
X100261185Y-64758922D01*
X100678922Y-64341185D01*
X100905000Y-63795385D01*
X100905000Y-63204615D01*
X100859596Y-63095000D01*
X101114678Y-63095000D01*
X101899380Y-62769966D01*
X101986283Y-62683063D01*
X101865000Y-62975866D01*
X101865000Y-64024134D01*
X102266155Y-64992608D01*
X103007392Y-65733845D01*
X103975866Y-66135000D01*
X105024134Y-66135000D01*
X105992608Y-65733845D01*
X106733845Y-64992608D01*
X107135000Y-64024134D01*
X107135000Y-63204615D01*
X108095000Y-63204615D01*
X108095000Y-63795385D01*
X108321078Y-64341185D01*
X108738815Y-64758922D01*
X109284615Y-64985000D01*
X109443303Y-64985000D01*
X109684724Y-65085000D01*
X110315276Y-65085000D01*
X110897830Y-64843698D01*
X111343698Y-64397830D01*
X111585000Y-63815276D01*
X111585000Y-63184724D01*
X111343698Y-62602170D01*
X110897830Y-62156302D01*
X110315276Y-61915000D01*
X109684724Y-61915000D01*
X109443303Y-62015000D01*
X109284615Y-62015000D01*
X108738815Y-62241078D01*
X108321078Y-62658815D01*
X108095000Y-63204615D01*
X107135000Y-63204615D01*
X107135000Y-62975866D01*
X106733845Y-62007392D01*
X105992608Y-61266155D01*
X105024134Y-60865000D01*
X103975866Y-60865000D01*
X103007392Y-61266155D01*
X102779838Y-61493709D01*
X102825000Y-61384678D01*
X102825000Y-60535322D01*
X102499966Y-59750620D01*
X101899380Y-59150034D01*
X101114678Y-58825000D01*
X100265322Y-58825000D01*
X99480620Y-59150034D01*
X98880034Y-59750620D01*
X98555000Y-60535322D01*
X98555000Y-61384678D01*
X98774666Y-61915000D01*
X98684724Y-61915000D01*
X98102170Y-62156302D01*
X97656302Y-62602170D01*
X97415000Y-63184724D01*
X97415000Y-63815276D01*
X97656302Y-64397830D01*
X98102170Y-64843698D01*
X98684724Y-65085000D01*
X99027038Y-65085000D01*
X98290620Y-65390034D01*
X97690034Y-65990620D01*
X97365000Y-66775322D01*
X95792000Y-66775322D01*
X95792000Y-63106846D01*
X95806888Y-63031999D01*
X95792000Y-62957152D01*
X95792000Y-62957148D01*
X95747904Y-62735463D01*
X95579929Y-62484071D01*
X95516473Y-62441671D01*
X93328103Y-60253302D01*
X93350000Y-60200439D01*
X93350000Y-59629561D01*
X93131534Y-59102138D01*
X92727862Y-58698466D01*
X92598784Y-58645000D01*
X92727862Y-58591534D01*
X93131534Y-58187862D01*
X93211286Y-57995322D01*
X104905000Y-57995322D01*
X104905000Y-58844678D01*
X105230034Y-59629380D01*
X105830620Y-60229966D01*
X106615322Y-60555000D01*
X107464678Y-60555000D01*
X108249380Y-60229966D01*
X108849966Y-59629380D01*
X109175000Y-58844678D01*
X109175000Y-57995322D01*
X123955000Y-57995322D01*
X123955000Y-58844678D01*
X124280034Y-59629380D01*
X124880620Y-60229966D01*
X125665322Y-60555000D01*
X126514678Y-60555000D01*
X127299380Y-60229966D01*
X127899966Y-59629380D01*
X128225000Y-58844678D01*
X128225000Y-57995322D01*
X127899966Y-57210620D01*
X127299380Y-56610034D01*
X126514678Y-56285000D01*
X125665322Y-56285000D01*
X124880620Y-56610034D01*
X124280034Y-57210620D01*
X123955000Y-57995322D01*
X109175000Y-57995322D01*
X108849966Y-57210620D01*
X108249380Y-56610034D01*
X107464678Y-56285000D01*
X106615322Y-56285000D01*
X105830620Y-56610034D01*
X105230034Y-57210620D01*
X104905000Y-57995322D01*
X93211286Y-57995322D01*
X93350000Y-57660439D01*
X93350000Y-57089561D01*
X93131534Y-56562138D01*
X92727862Y-56158466D01*
X92200439Y-55940000D01*
X91629561Y-55940000D01*
X91102138Y-56158466D01*
X90783044Y-56477560D01*
X90779965Y-56477560D01*
X90672809Y-56317191D01*
X90462765Y-56176843D01*
X90215000Y-56127560D01*
X88615000Y-56127560D01*
X88367235Y-56176843D01*
X88157191Y-56317191D01*
X88016843Y-56527235D01*
X88015000Y-56536500D01*
X88013157Y-56527235D01*
X87872809Y-56317191D01*
X87662765Y-56176843D01*
X87415000Y-56127560D01*
X85815000Y-56127560D01*
X85567235Y-56176843D01*
X85460377Y-56248244D01*
X85372809Y-56117191D01*
X85162765Y-55976843D01*
X84915000Y-55927560D01*
X83638327Y-55927560D01*
X83440000Y-55888110D01*
X83143463Y-55947095D01*
X83112382Y-55967863D01*
X83067235Y-55976843D01*
X82967634Y-56043395D01*
X82965000Y-56030152D01*
X82965000Y-56030148D01*
X82920904Y-55808463D01*
X82920904Y-55808462D01*
X82795329Y-55620527D01*
X82752929Y-55557071D01*
X82689473Y-55514671D01*
X80890331Y-53715530D01*
X80873272Y-53690000D01*
X92685199Y-53690000D01*
X95775000Y-56779802D01*
X95775000Y-56945874D01*
X95932569Y-57326280D01*
X96223720Y-57617431D01*
X96604126Y-57775000D01*
X97015874Y-57775000D01*
X97396280Y-57617431D01*
X97687431Y-57326280D01*
X97845000Y-56945874D01*
X97845000Y-56534126D01*
X97687431Y-56153720D01*
X97396280Y-55862569D01*
X97015874Y-55705000D01*
X96849802Y-55705000D01*
X93590331Y-52445530D01*
X93547929Y-52382071D01*
X93296537Y-52214096D01*
X93074852Y-52170000D01*
X93074847Y-52170000D01*
X93000000Y-52155112D01*
X92925153Y-52170000D01*
X64499846Y-52170000D01*
X64424999Y-52155112D01*
X64350152Y-52170000D01*
X64350148Y-52170000D01*
X64128463Y-52214096D01*
X63877071Y-52382071D01*
X63834671Y-52445527D01*
X60765528Y-55514671D01*
X60702072Y-55557071D01*
X60659672Y-55620527D01*
X60659671Y-55620528D01*
X60534097Y-55808463D01*
X60475112Y-56105000D01*
X60490001Y-56179852D01*
X60490000Y-66125153D01*
X60475112Y-66200000D01*
X60490000Y-66274847D01*
X60490000Y-66274851D01*
X60534096Y-66496536D01*
X60702071Y-66747929D01*
X60765530Y-66790331D01*
X62826897Y-68851698D01*
X62805000Y-68904561D01*
X62805000Y-69475439D01*
X63023466Y-70002862D01*
X63427138Y-70406534D01*
X63556216Y-70460000D01*
X63427138Y-70513466D01*
X63023466Y-70917138D01*
X62805000Y-71444561D01*
X62805000Y-72015439D01*
X63023466Y-72542862D01*
X63427138Y-72946534D01*
X63556216Y-73000000D01*
X63427138Y-73053466D01*
X63023466Y-73457138D01*
X62805000Y-73984561D01*
X62805000Y-74555439D01*
X63023466Y-75082862D01*
X63427138Y-75486534D01*
X63556216Y-75540000D01*
X63427138Y-75593466D01*
X63023466Y-75997138D01*
X62805000Y-76524561D01*
X62805000Y-77095439D01*
X63023466Y-77622862D01*
X63427138Y-78026534D01*
X63556216Y-78080000D01*
X63427138Y-78133466D01*
X63023466Y-78537138D01*
X63001570Y-78590000D01*
X61734848Y-78590000D01*
X61660000Y-78575112D01*
X61585152Y-78590000D01*
X61585148Y-78590000D01*
X61411605Y-78624520D01*
X61363462Y-78634096D01*
X61256559Y-78705527D01*
X61112071Y-78802071D01*
X61069671Y-78865527D01*
X60626207Y-79308991D01*
X60568839Y-79020582D01*
X60240625Y-78529375D01*
X59921522Y-78316157D01*
X60051358Y-78255183D01*
X60441645Y-77826924D01*
X60611476Y-77416890D01*
X60490155Y-77187000D01*
X59297000Y-77187000D01*
X59297000Y-77207000D01*
X59043000Y-77207000D01*
X59043000Y-77187000D01*
X57849845Y-77187000D01*
X57728524Y-77416890D01*
X57898355Y-77826924D01*
X58288642Y-78255183D01*
X58418478Y-78316157D01*
X58099375Y-78529375D01*
X57771161Y-79020582D01*
X57655908Y-79600000D01*
X57771161Y-80179418D01*
X58099375Y-80670625D01*
X58397761Y-80870000D01*
X58099375Y-81069375D01*
X57771161Y-81560582D01*
X57655908Y-82140000D01*
X57771161Y-82719418D01*
X58099375Y-83210625D01*
X58397761Y-83410000D01*
X58099375Y-83609375D01*
X57771161Y-84100582D01*
X57655908Y-84680000D01*
X57771161Y-85259418D01*
X58099375Y-85750625D01*
X58397761Y-85950000D01*
X58099375Y-86149375D01*
X57771161Y-86640582D01*
X57655908Y-87220000D01*
X57771161Y-87799418D01*
X58099375Y-88290625D01*
X58397761Y-88490000D01*
X58099375Y-88689375D01*
X57771161Y-89180582D01*
X57655908Y-89760000D01*
X57771161Y-90339418D01*
X58099375Y-90830625D01*
X58397761Y-91030000D01*
X58099375Y-91229375D01*
X57771161Y-91720582D01*
X57655908Y-92300000D01*
X57771161Y-92879418D01*
X58099375Y-93370625D01*
X58117619Y-93382816D01*
X58072235Y-93391843D01*
X57862191Y-93532191D01*
X57721843Y-93742235D01*
X57672560Y-93990000D01*
X57672560Y-95690000D01*
X57721843Y-95937765D01*
X57862191Y-96147809D01*
X58072235Y-96288157D01*
X58320000Y-96337440D01*
X60020000Y-96337440D01*
X60267765Y-96288157D01*
X60477809Y-96147809D01*
X60618157Y-95937765D01*
X60667440Y-95690000D01*
X60667440Y-94870915D01*
X62028356Y-93510000D01*
X62501867Y-93510000D01*
X62361161Y-93720582D01*
X62275000Y-94153744D01*
X62275000Y-95246255D01*
X62361161Y-95679417D01*
X62689375Y-96170625D01*
X63180582Y-96498839D01*
X63760000Y-96614092D01*
X64339417Y-96498839D01*
X64625000Y-96308019D01*
X64625000Y-96745657D01*
X64813018Y-97199571D01*
X65160429Y-97546982D01*
X65614343Y-97735000D01*
X66105657Y-97735000D01*
X66559571Y-97546982D01*
X66906982Y-97199571D01*
X67095000Y-96745657D01*
X67095000Y-96502238D01*
X67134024Y-96510000D01*
X67134029Y-96510000D01*
X67233500Y-96529786D01*
X67332971Y-96510000D01*
X69229159Y-96510000D01*
X69328630Y-96529786D01*
X69428101Y-96510000D01*
X69428106Y-96510000D01*
X69722712Y-96451399D01*
X70056799Y-96228169D01*
X70113147Y-96143838D01*
X70776811Y-95480174D01*
X70661843Y-95652235D01*
X70612560Y-95900000D01*
X70612560Y-97400000D01*
X70661843Y-97647765D01*
X70802191Y-97857809D01*
X71012235Y-97998157D01*
X71021500Y-98000000D01*
X71012235Y-98001843D01*
X70802191Y-98142191D01*
X70661843Y-98352235D01*
X70612560Y-98600000D01*
X70612560Y-100100000D01*
X70661843Y-100347765D01*
X70802191Y-100557809D01*
X70962560Y-100664965D01*
X70962560Y-100768044D01*
X70643466Y-101087138D01*
X70425000Y-101614561D01*
X70425000Y-102185439D01*
X70643466Y-102712862D01*
X71047138Y-103116534D01*
X71574561Y-103335000D01*
X72145439Y-103335000D01*
X72672862Y-103116534D01*
X73076534Y-102712862D01*
X73295000Y-102185439D01*
X73295000Y-101614561D01*
X73076534Y-101087138D01*
X72757440Y-100768044D01*
X72757440Y-100664965D01*
X72917809Y-100557809D01*
X73058157Y-100347765D01*
X73107440Y-100100000D01*
X73107440Y-98600000D01*
X73058157Y-98352235D01*
X72917809Y-98142191D01*
X72707765Y-98001843D01*
X72698500Y-98000000D01*
X72707765Y-97998157D01*
X72917809Y-97857809D01*
X73058157Y-97647765D01*
X73107440Y-97400000D01*
X73107440Y-95900000D01*
X73058157Y-95652235D01*
X72917809Y-95442191D01*
X72757440Y-95335035D01*
X72757440Y-95231956D01*
X72879396Y-95110000D01*
X74275000Y-95110000D01*
X74275000Y-95246255D01*
X74361161Y-95679417D01*
X74689375Y-96170625D01*
X75180582Y-96498839D01*
X75760000Y-96614092D01*
X76339417Y-96498839D01*
X76625000Y-96308019D01*
X76625000Y-96745657D01*
X76813018Y-97199571D01*
X77160429Y-97546982D01*
X77614343Y-97735000D01*
X78105657Y-97735000D01*
X78559571Y-97546982D01*
X78906982Y-97199571D01*
X79095000Y-96745657D01*
X79095000Y-96254343D01*
X78906982Y-95800429D01*
X78559571Y-95453018D01*
X78105657Y-95265000D01*
X77614343Y-95265000D01*
X77207773Y-95433407D01*
X77245000Y-95246256D01*
X77245000Y-94153745D01*
X77158839Y-93720582D01*
X76895856Y-93327000D01*
X78475000Y-93327000D01*
X78475000Y-93727000D01*
X78636640Y-94285618D01*
X78999749Y-94739856D01*
X79509048Y-95020562D01*
X79603110Y-95041476D01*
X79833000Y-94920155D01*
X79833000Y-93327000D01*
X78475000Y-93327000D01*
X76895856Y-93327000D01*
X76830625Y-93229375D01*
X76339418Y-92901161D01*
X75760000Y-92785908D01*
X75180583Y-92901161D01*
X74897965Y-93090000D01*
X72879396Y-93090000D01*
X72672862Y-92883466D01*
X72164753Y-92673000D01*
X78475000Y-92673000D01*
X78475000Y-93073000D01*
X79833000Y-93073000D01*
X79833000Y-91479845D01*
X79603110Y-91358524D01*
X79509048Y-91379438D01*
X78999749Y-91660144D01*
X78636640Y-92114382D01*
X78475000Y-92673000D01*
X72164753Y-92673000D01*
X72145439Y-92665000D01*
X71574561Y-92665000D01*
X71047138Y-92883466D01*
X70840604Y-93090000D01*
X70828101Y-93090000D01*
X70728630Y-93070214D01*
X70629159Y-93090000D01*
X70629154Y-93090000D01*
X70334548Y-93148601D01*
X70334546Y-93148602D01*
X70334547Y-93148602D01*
X70084792Y-93315482D01*
X70084790Y-93315484D01*
X70000461Y-93371831D01*
X69944114Y-93456160D01*
X69393100Y-94007174D01*
X69445000Y-93746256D01*
X69445000Y-92653745D01*
X69358839Y-92220582D01*
X69051088Y-91760000D01*
X77885153Y-91760000D01*
X77960000Y-91774888D01*
X78034847Y-91760000D01*
X78034852Y-91760000D01*
X78256537Y-91715904D01*
X78507929Y-91547929D01*
X78550331Y-91484470D01*
X79074063Y-90960739D01*
X79134716Y-90920211D01*
X79194561Y-90945000D01*
X79765439Y-90945000D01*
X80292862Y-90726534D01*
X80696534Y-90322862D01*
X80915000Y-89795439D01*
X80915000Y-89224561D01*
X80696534Y-88697138D01*
X80292862Y-88293466D01*
X80163784Y-88240000D01*
X80292862Y-88186534D01*
X80696534Y-87782862D01*
X80915000Y-87255439D01*
X80915000Y-86684561D01*
X80696534Y-86157138D01*
X80292862Y-85753466D01*
X80163784Y-85700000D01*
X80292862Y-85646534D01*
X80696534Y-85242862D01*
X80915000Y-84715439D01*
X80915000Y-84144561D01*
X80696534Y-83617138D01*
X80292862Y-83213466D01*
X80163784Y-83160000D01*
X80292862Y-83106534D01*
X80696534Y-82702862D01*
X80915000Y-82175439D01*
X80915000Y-81604561D01*
X80696534Y-81077138D01*
X80292862Y-80673466D01*
X80163784Y-80620000D01*
X80292862Y-80566534D01*
X80696534Y-80162862D01*
X80915000Y-79635439D01*
X80915000Y-79319802D01*
X81100001Y-79504803D01*
X81100000Y-91885005D01*
X80920251Y-91660144D01*
X80410952Y-91379438D01*
X80316890Y-91358524D01*
X80087000Y-91479845D01*
X80087000Y-93073000D01*
X80107000Y-93073000D01*
X80107000Y-93327000D01*
X80087000Y-93327000D01*
X80087000Y-94920155D01*
X80316890Y-95041476D01*
X80410952Y-95020562D01*
X80920251Y-94739856D01*
X81100000Y-94514996D01*
X81100000Y-95274851D01*
X81100001Y-95274854D01*
X81100000Y-96385198D01*
X77000936Y-100484263D01*
X76830625Y-100229375D01*
X76786662Y-100200000D01*
X76830625Y-100170625D01*
X77158839Y-99679418D01*
X77245000Y-99246256D01*
X77245000Y-98153745D01*
X77158839Y-97720582D01*
X76830625Y-97229375D01*
X76339418Y-96901161D01*
X75760000Y-96785908D01*
X75180583Y-96901161D01*
X74689375Y-97229375D01*
X74361161Y-97720582D01*
X74275000Y-98153744D01*
X74275000Y-99246255D01*
X74361161Y-99679417D01*
X74689375Y-100170625D01*
X74733338Y-100200000D01*
X74689375Y-100229375D01*
X74361161Y-100720582D01*
X74275000Y-101153744D01*
X74275000Y-102246255D01*
X74361161Y-102679417D01*
X74689375Y-103170625D01*
X75180582Y-103498839D01*
X75760000Y-103614092D01*
X76339417Y-103498839D01*
X76625000Y-103308019D01*
X76625000Y-103745657D01*
X76813018Y-104199571D01*
X76903447Y-104290000D01*
X66816553Y-104290000D01*
X66906982Y-104199571D01*
X67095000Y-103745657D01*
X67095000Y-103254343D01*
X66906982Y-102800429D01*
X66559571Y-102453018D01*
X66105657Y-102265000D01*
X65614343Y-102265000D01*
X65207773Y-102433407D01*
X65245000Y-102246256D01*
X65245000Y-101153745D01*
X65158839Y-100720582D01*
X64830625Y-100229375D01*
X64786662Y-100200000D01*
X64830625Y-100170625D01*
X65158839Y-99679418D01*
X65245000Y-99246256D01*
X65245000Y-98153745D01*
X65158839Y-97720582D01*
X64830625Y-97229375D01*
X64339418Y-96901161D01*
X63760000Y-96785908D01*
X63180583Y-96901161D01*
X62689375Y-97229375D01*
X62361161Y-97720582D01*
X62275000Y-98153744D01*
X62275000Y-99246255D01*
X62361161Y-99679417D01*
X62689375Y-100170625D01*
X62733338Y-100200000D01*
X62689375Y-100229375D01*
X62361161Y-100720582D01*
X62275000Y-101153744D01*
X62275000Y-102246255D01*
X62361161Y-102679417D01*
X62689375Y-103170625D01*
X63180582Y-103498839D01*
X63760000Y-103614092D01*
X64339417Y-103498839D01*
X64625000Y-103308019D01*
X64625000Y-103745657D01*
X64813018Y-104199571D01*
X64903447Y-104290000D01*
X55031618Y-104290000D01*
X54240807Y-104219422D01*
X53505611Y-104018295D01*
X52817645Y-103690152D01*
X52198672Y-103245374D01*
X51668239Y-102698012D01*
X51243117Y-102065362D01*
X50936749Y-101367439D01*
X50757501Y-100620819D01*
X50710000Y-99973970D01*
X50710000Y-76703110D01*
X57728524Y-76703110D01*
X57849845Y-76933000D01*
X59043000Y-76933000D01*
X59043000Y-75739181D01*
X59297000Y-75739181D01*
X59297000Y-76933000D01*
X60490155Y-76933000D01*
X60611476Y-76703110D01*
X60441645Y-76293076D01*
X60051358Y-75864817D01*
X59526892Y-75618514D01*
X59297000Y-75739181D01*
X59043000Y-75739181D01*
X58813108Y-75618514D01*
X58288642Y-75864817D01*
X57898355Y-76293076D01*
X57728524Y-76703110D01*
X50710000Y-76703110D01*
X50710000Y-55031618D01*
X50780578Y-54240808D01*
X50981705Y-53505611D01*
X51309846Y-52817649D01*
X51754628Y-52198669D01*
X52301988Y-51668239D01*
X52934639Y-51243116D01*
X53632561Y-50936749D01*
X54379183Y-50757501D01*
X55026030Y-50710000D01*
X135968382Y-50710000D01*
X136759192Y-50780578D01*
X136759192Y-50780578D01*
G37*
X136759192Y-50780578D02*
X137494389Y-50981705D01*
X138182351Y-51309846D01*
X138801331Y-51754628D01*
X139331761Y-52301988D01*
X139756884Y-52934639D01*
X140063251Y-53632561D01*
X140242499Y-54379183D01*
X140290001Y-55026044D01*
X140290000Y-92298197D01*
X91275324Y-92173000D01*
X91226699Y-92182544D01*
X91185427Y-92209968D01*
X91157792Y-92251100D01*
X91148000Y-92300000D01*
X91148000Y-104290000D01*
X78816553Y-104290000D01*
X78906982Y-104199571D01*
X79095000Y-103745657D01*
X79095000Y-103254343D01*
X78906982Y-102800429D01*
X78559571Y-102453018D01*
X78105657Y-102265000D01*
X77614343Y-102265000D01*
X77207773Y-102433407D01*
X77219642Y-102373738D01*
X77407929Y-102247929D01*
X77450331Y-102184470D01*
X82108197Y-97526605D01*
X82124097Y-97606537D01*
X82200300Y-97720582D01*
X82292072Y-97857929D01*
X82355528Y-97900329D01*
X83497560Y-99042362D01*
X83497560Y-100115000D01*
X83546843Y-100362765D01*
X83687191Y-100572809D01*
X83847560Y-100679965D01*
X83847560Y-100783044D01*
X83528466Y-101102138D01*
X83310000Y-101629561D01*
X83310000Y-102200439D01*
X83528466Y-102727862D01*
X83932138Y-103131534D01*
X84459561Y-103350000D01*
X85030439Y-103350000D01*
X85557862Y-103131534D01*
X85961534Y-102727862D01*
X86180000Y-102200439D01*
X86180000Y-101629561D01*
X85961534Y-101102138D01*
X85642440Y-100783044D01*
X85642440Y-100679965D01*
X85802809Y-100572809D01*
X85943157Y-100362765D01*
X85992440Y-100115000D01*
X85992440Y-98615000D01*
X85943157Y-98367235D01*
X85802809Y-98157191D01*
X85592765Y-98016843D01*
X85583500Y-98015000D01*
X85592765Y-98013157D01*
X85802809Y-97872809D01*
X85943157Y-97662765D01*
X85992440Y-97415000D01*
X85992440Y-95915000D01*
X85943157Y-95667235D01*
X85802809Y-95457191D01*
X85642440Y-95350035D01*
X85642440Y-95246956D01*
X85961534Y-94927862D01*
X86180000Y-94400439D01*
X86180000Y-93829561D01*
X85961534Y-93302138D01*
X85557862Y-92898466D01*
X85030439Y-92680000D01*
X84459561Y-92680000D01*
X83932138Y-92898466D01*
X83600000Y-93230604D01*
X83600000Y-85825322D01*
X97365000Y-85825322D01*
X97365000Y-86674678D01*
X97690034Y-87459380D01*
X98290620Y-88059966D01*
X99075322Y-88385000D01*
X99924678Y-88385000D01*
X100709380Y-88059966D01*
X100744024Y-88025322D01*
X102365000Y-88025322D01*
X102365000Y-88874678D01*
X102690034Y-89659380D01*
X103290620Y-90259966D01*
X104075322Y-90585000D01*
X104924678Y-90585000D01*
X105709380Y-90259966D01*
X106309966Y-89659380D01*
X106635000Y-88874678D01*
X106635000Y-88025322D01*
X106309966Y-87240620D01*
X105709380Y-86640034D01*
X104924678Y-86315000D01*
X104075322Y-86315000D01*
X103290620Y-86640034D01*
X102690034Y-87240620D01*
X102365000Y-88025322D01*
X100744024Y-88025322D01*
X101309966Y-87459380D01*
X101635000Y-86674678D01*
X101635000Y-85825322D01*
X116415000Y-85825322D01*
X116415000Y-86674678D01*
X116740034Y-87459380D01*
X117340620Y-88059966D01*
X118125322Y-88385000D01*
X118974678Y-88385000D01*
X119759380Y-88059966D01*
X119794024Y-88025322D01*
X121415000Y-88025322D01*
X121415000Y-88874678D01*
X121740034Y-89659380D01*
X122340620Y-90259966D01*
X123125322Y-90585000D01*
X123974678Y-90585000D01*
X124759380Y-90259966D01*
X125359966Y-89659380D01*
X125685000Y-88874678D01*
X125685000Y-88025322D01*
X125359966Y-87240620D01*
X124759380Y-86640034D01*
X123974678Y-86315000D01*
X123125322Y-86315000D01*
X122340620Y-86640034D01*
X121740034Y-87240620D01*
X121415000Y-88025322D01*
X119794024Y-88025322D01*
X120359966Y-87459380D01*
X120685000Y-86674678D01*
X120685000Y-85825322D01*
X120359966Y-85040620D01*
X119759380Y-84440034D01*
X118974678Y-84115000D01*
X118413560Y-84115000D01*
X118606697Y-84035000D01*
X118765385Y-84035000D01*
X119311185Y-83808922D01*
X119728922Y-83391185D01*
X119955000Y-82845385D01*
X119955000Y-82254615D01*
X119909596Y-82145000D01*
X120164678Y-82145000D01*
X120949380Y-81819966D01*
X121036283Y-81733063D01*
X120915000Y-82025866D01*
X120915000Y-83074134D01*
X121316155Y-84042608D01*
X122057392Y-84783845D01*
X123025866Y-85185000D01*
X124074134Y-85185000D01*
X125042608Y-84783845D01*
X125783845Y-84042608D01*
X126185000Y-83074134D01*
X126185000Y-82254615D01*
X127145000Y-82254615D01*
X127145000Y-82845385D01*
X127371078Y-83391185D01*
X127788815Y-83808922D01*
X128334615Y-84035000D01*
X128493303Y-84035000D01*
X128734724Y-84135000D01*
X129365276Y-84135000D01*
X129947830Y-83893698D01*
X130393698Y-83447830D01*
X130635000Y-82865276D01*
X130635000Y-82234724D01*
X130393698Y-81652170D01*
X129947830Y-81206302D01*
X129365276Y-80965000D01*
X128734724Y-80965000D01*
X128493303Y-81065000D01*
X128334615Y-81065000D01*
X127788815Y-81291078D01*
X127371078Y-81708815D01*
X127145000Y-82254615D01*
X126185000Y-82254615D01*
X126185000Y-82025866D01*
X125783845Y-81057392D01*
X125042608Y-80316155D01*
X124074134Y-79915000D01*
X123025866Y-79915000D01*
X122057392Y-80316155D01*
X121829838Y-80543709D01*
X121875000Y-80434678D01*
X121875000Y-79585322D01*
X121549966Y-78800620D01*
X120949380Y-78200034D01*
X120164678Y-77875000D01*
X119315322Y-77875000D01*
X118530620Y-78200034D01*
X117930034Y-78800620D01*
X117605000Y-79585322D01*
X117605000Y-80434678D01*
X117824666Y-80965000D01*
X117734724Y-80965000D01*
X117152170Y-81206302D01*
X116706302Y-81652170D01*
X116465000Y-82234724D01*
X116465000Y-82865276D01*
X116706302Y-83447830D01*
X117152170Y-83893698D01*
X117734724Y-84135000D01*
X118077038Y-84135000D01*
X117340620Y-84440034D01*
X116740034Y-85040620D01*
X116415000Y-85825322D01*
X101635000Y-85825322D01*
X101309966Y-85040620D01*
X100709380Y-84440034D01*
X99924678Y-84115000D01*
X99363560Y-84115000D01*
X99556697Y-84035000D01*
X99715385Y-84035000D01*
X100261185Y-83808922D01*
X100678922Y-83391185D01*
X100905000Y-82845385D01*
X100905000Y-82254615D01*
X100859596Y-82145000D01*
X101114678Y-82145000D01*
X101899380Y-81819966D01*
X101986283Y-81733063D01*
X101865000Y-82025866D01*
X101865000Y-83074134D01*
X102266155Y-84042608D01*
X103007392Y-84783845D01*
X103975866Y-85185000D01*
X105024134Y-85185000D01*
X105992608Y-84783845D01*
X106733845Y-84042608D01*
X107135000Y-83074134D01*
X107135000Y-82254615D01*
X108095000Y-82254615D01*
X108095000Y-82845385D01*
X108321078Y-83391185D01*
X108738815Y-83808922D01*
X109284615Y-84035000D01*
X109443303Y-84035000D01*
X109684724Y-84135000D01*
X110315276Y-84135000D01*
X110897830Y-83893698D01*
X111343698Y-83447830D01*
X111585000Y-82865276D01*
X111585000Y-82234724D01*
X111343698Y-81652170D01*
X110897830Y-81206302D01*
X110315276Y-80965000D01*
X109684724Y-80965000D01*
X109443303Y-81065000D01*
X109284615Y-81065000D01*
X108738815Y-81291078D01*
X108321078Y-81708815D01*
X108095000Y-82254615D01*
X107135000Y-82254615D01*
X107135000Y-82025866D01*
X106733845Y-81057392D01*
X105992608Y-80316155D01*
X105024134Y-79915000D01*
X103975866Y-79915000D01*
X103007392Y-80316155D01*
X102779838Y-80543709D01*
X102825000Y-80434678D01*
X102825000Y-79585322D01*
X102499966Y-78800620D01*
X101899380Y-78200034D01*
X101114678Y-77875000D01*
X100265322Y-77875000D01*
X99480620Y-78200034D01*
X98880034Y-78800620D01*
X98555000Y-79585322D01*
X98555000Y-80434678D01*
X98774666Y-80965000D01*
X98684724Y-80965000D01*
X98102170Y-81206302D01*
X97656302Y-81652170D01*
X97415000Y-82234724D01*
X97415000Y-82865276D01*
X97656302Y-83447830D01*
X98102170Y-83893698D01*
X98684724Y-84135000D01*
X99027038Y-84135000D01*
X98290620Y-84440034D01*
X97690034Y-85040620D01*
X97365000Y-85825322D01*
X83600000Y-85825322D01*
X83600000Y-77704848D01*
X83614888Y-77630000D01*
X83600000Y-77555152D01*
X83600000Y-77555148D01*
X83555904Y-77333463D01*
X83387929Y-77082071D01*
X83332931Y-77045322D01*
X104905000Y-77045322D01*
X104905000Y-77894678D01*
X105230034Y-78679380D01*
X105830620Y-79279966D01*
X106615322Y-79605000D01*
X107464678Y-79605000D01*
X108249380Y-79279966D01*
X108849966Y-78679380D01*
X109175000Y-77894678D01*
X109175000Y-77045322D01*
X123955000Y-77045322D01*
X123955000Y-77894678D01*
X124280034Y-78679380D01*
X124880620Y-79279966D01*
X125665322Y-79605000D01*
X126514678Y-79605000D01*
X127299380Y-79279966D01*
X127899966Y-78679380D01*
X128225000Y-77894678D01*
X128225000Y-77045322D01*
X127899966Y-76260620D01*
X127299380Y-75660034D01*
X126514678Y-75335000D01*
X125665322Y-75335000D01*
X124880620Y-75660034D01*
X124280034Y-76260620D01*
X123955000Y-77045322D01*
X109175000Y-77045322D01*
X108849966Y-76260620D01*
X108249380Y-75660034D01*
X107464678Y-75335000D01*
X106615322Y-75335000D01*
X105830620Y-75660034D01*
X105230034Y-76260620D01*
X104905000Y-77045322D01*
X83332931Y-77045322D01*
X83324473Y-77039671D01*
X80893103Y-74608302D01*
X80915000Y-74555439D01*
X80915000Y-73984561D01*
X80696534Y-73457138D01*
X80292862Y-73053466D01*
X80163784Y-73000000D01*
X80292862Y-72946534D01*
X80696534Y-72542862D01*
X80915000Y-72015439D01*
X80915000Y-71444561D01*
X80696534Y-70917138D01*
X80292862Y-70513466D01*
X80163784Y-70460000D01*
X80292862Y-70406534D01*
X80696534Y-70002862D01*
X80915000Y-69475439D01*
X80915000Y-68904561D01*
X80696534Y-68377138D01*
X80292862Y-67973466D01*
X80163784Y-67920000D01*
X80292862Y-67866534D01*
X80696534Y-67462862D01*
X80915000Y-66935439D01*
X80915000Y-66364561D01*
X80696534Y-65837138D01*
X80292862Y-65433466D01*
X80163784Y-65380000D01*
X80292862Y-65326534D01*
X80696534Y-64922862D01*
X80915000Y-64395439D01*
X80915000Y-63824561D01*
X80696534Y-63297138D01*
X80292862Y-62893466D01*
X80163784Y-62840000D01*
X80292862Y-62786534D01*
X80696534Y-62382862D01*
X80915000Y-61855439D01*
X80915000Y-61284561D01*
X80696534Y-60757138D01*
X80292862Y-60353466D01*
X80179417Y-60306475D01*
X80234005Y-60283864D01*
X80308139Y-60037745D01*
X79480000Y-59209605D01*
X78651861Y-60037745D01*
X78725995Y-60283864D01*
X78784448Y-60304874D01*
X78667138Y-60353466D01*
X78263466Y-60757138D01*
X78045000Y-61284561D01*
X78045000Y-61855439D01*
X78263466Y-62382862D01*
X78667138Y-62786534D01*
X78796216Y-62840000D01*
X78667138Y-62893466D01*
X78263466Y-63297138D01*
X78210000Y-63426216D01*
X78156534Y-63297138D01*
X77752862Y-62893466D01*
X77225439Y-62675000D01*
X76654561Y-62675000D01*
X76127138Y-62893466D01*
X75723466Y-63297138D01*
X75505000Y-63824561D01*
X75505000Y-64395439D01*
X75723466Y-64922862D01*
X76127138Y-65326534D01*
X76256216Y-65380000D01*
X76127138Y-65433466D01*
X75723466Y-65837138D01*
X75505000Y-66364561D01*
X75505000Y-66935439D01*
X75723466Y-67462862D01*
X76127138Y-67866534D01*
X76256216Y-67920000D01*
X76127138Y-67973466D01*
X75723466Y-68377138D01*
X75505000Y-68904561D01*
X75505000Y-69475439D01*
X75723466Y-70002862D01*
X76127138Y-70406534D01*
X76654561Y-70625000D01*
X77225439Y-70625000D01*
X77752862Y-70406534D01*
X78156534Y-70002862D01*
X78210000Y-69873784D01*
X78263466Y-70002862D01*
X78667138Y-70406534D01*
X78796216Y-70460000D01*
X78667138Y-70513466D01*
X78263466Y-70917138D01*
X78045000Y-71444561D01*
X78045000Y-72015439D01*
X78263466Y-72542862D01*
X78667138Y-72946534D01*
X78796216Y-73000000D01*
X78667138Y-73053466D01*
X78263466Y-73457138D01*
X78045000Y-73984561D01*
X78045000Y-74555439D01*
X78263466Y-75082862D01*
X78667138Y-75486534D01*
X78796216Y-75540000D01*
X78667138Y-75593466D01*
X78263466Y-75997138D01*
X78045000Y-76524561D01*
X78045000Y-77095439D01*
X78263466Y-77622862D01*
X78667138Y-78026534D01*
X78796216Y-78080000D01*
X78667138Y-78133466D01*
X78263466Y-78537138D01*
X78045000Y-79064561D01*
X78045000Y-79635439D01*
X78263466Y-80162862D01*
X78667138Y-80566534D01*
X78796216Y-80620000D01*
X78667138Y-80673466D01*
X78263466Y-81077138D01*
X78045000Y-81604561D01*
X78045000Y-82175439D01*
X78263466Y-82702862D01*
X78667138Y-83106534D01*
X78796216Y-83160000D01*
X78667138Y-83213466D01*
X78263466Y-83617138D01*
X78045000Y-84144561D01*
X78045000Y-84715439D01*
X78263466Y-85242862D01*
X78667138Y-85646534D01*
X78796216Y-85700000D01*
X78667138Y-85753466D01*
X78263466Y-86157138D01*
X78045000Y-86684561D01*
X78045000Y-87255439D01*
X78263466Y-87782862D01*
X78667138Y-88186534D01*
X78796216Y-88240000D01*
X78667138Y-88293466D01*
X78263466Y-88697138D01*
X78210000Y-88826216D01*
X78156534Y-88697138D01*
X77752862Y-88293466D01*
X77225439Y-88075000D01*
X76654561Y-88075000D01*
X76127138Y-88293466D01*
X75723466Y-88697138D01*
X75670000Y-88826216D01*
X75616534Y-88697138D01*
X75212862Y-88293466D01*
X75083784Y-88240000D01*
X75212862Y-88186534D01*
X75616534Y-87782862D01*
X75835000Y-87255439D01*
X75835000Y-86684561D01*
X75616534Y-86157138D01*
X75212862Y-85753466D01*
X75083784Y-85700000D01*
X75212862Y-85646534D01*
X75616534Y-85242862D01*
X75835000Y-84715439D01*
X75835000Y-84144561D01*
X75616534Y-83617138D01*
X75212862Y-83213466D01*
X75083784Y-83160000D01*
X75212862Y-83106534D01*
X75616534Y-82702862D01*
X75835000Y-82175439D01*
X75835000Y-81604561D01*
X75616534Y-81077138D01*
X75212862Y-80673466D01*
X75083784Y-80620000D01*
X75212862Y-80566534D01*
X75616534Y-80162862D01*
X75835000Y-79635439D01*
X75835000Y-79064561D01*
X75616534Y-78537138D01*
X75212862Y-78133466D01*
X75083784Y-78080000D01*
X75212862Y-78026534D01*
X75616534Y-77622862D01*
X75835000Y-77095439D01*
X75835000Y-76524561D01*
X75616534Y-75997138D01*
X75212862Y-75593466D01*
X75083784Y-75540000D01*
X75212862Y-75486534D01*
X75616534Y-75082862D01*
X75835000Y-74555439D01*
X75835000Y-73984561D01*
X75616534Y-73457138D01*
X75212862Y-73053466D01*
X75083784Y-73000000D01*
X75212862Y-72946534D01*
X75616534Y-72542862D01*
X75835000Y-72015439D01*
X75835000Y-71444561D01*
X75616534Y-70917138D01*
X75212862Y-70513466D01*
X74685439Y-70295000D01*
X74114561Y-70295000D01*
X73587138Y-70513466D01*
X73183466Y-70917138D01*
X73130000Y-71046216D01*
X73076534Y-70917138D01*
X72672862Y-70513466D01*
X72145439Y-70295000D01*
X71574561Y-70295000D01*
X71047138Y-70513466D01*
X70643466Y-70917138D01*
X70425000Y-71444561D01*
X70425000Y-72015439D01*
X70643466Y-72542862D01*
X71047138Y-72946534D01*
X71176216Y-73000000D01*
X71047138Y-73053466D01*
X70643466Y-73457138D01*
X70425000Y-73984561D01*
X70425000Y-74555439D01*
X70643466Y-75082862D01*
X71047138Y-75486534D01*
X71176216Y-75540000D01*
X71047138Y-75593466D01*
X70643466Y-75997138D01*
X70425000Y-76524561D01*
X70425000Y-77095439D01*
X70643466Y-77622862D01*
X71047138Y-78026534D01*
X71176216Y-78080000D01*
X71047138Y-78133466D01*
X70643466Y-78537138D01*
X70425000Y-79064561D01*
X70425000Y-79635439D01*
X70643466Y-80162862D01*
X71047138Y-80566534D01*
X71176216Y-80620000D01*
X71047138Y-80673466D01*
X70643466Y-81077138D01*
X70425000Y-81604561D01*
X70425000Y-82175439D01*
X70643466Y-82702862D01*
X71047138Y-83106534D01*
X71176216Y-83160000D01*
X71047138Y-83213466D01*
X70643466Y-83617138D01*
X70425000Y-84144561D01*
X70425000Y-84715439D01*
X70643466Y-85242862D01*
X71047138Y-85646534D01*
X71176216Y-85700000D01*
X71047138Y-85753466D01*
X70643466Y-86157138D01*
X70425000Y-86684561D01*
X70425000Y-87255439D01*
X70643466Y-87782862D01*
X71047138Y-88186534D01*
X71160583Y-88233525D01*
X71105995Y-88256136D01*
X71031861Y-88502255D01*
X71860000Y-89330395D01*
X72688139Y-88502255D01*
X72614005Y-88256136D01*
X72555552Y-88235126D01*
X72672862Y-88186534D01*
X73076534Y-87782862D01*
X73130000Y-87653784D01*
X73183466Y-87782862D01*
X73587138Y-88186534D01*
X73716216Y-88240000D01*
X73587138Y-88293466D01*
X73183466Y-88697138D01*
X73136475Y-88810583D01*
X73113864Y-88755995D01*
X72867745Y-88681861D01*
X72039605Y-89510000D01*
X72053748Y-89524142D01*
X71874142Y-89703748D01*
X71860000Y-89689605D01*
X71845858Y-89703748D01*
X71666252Y-89524142D01*
X71680395Y-89510000D01*
X70852255Y-88681861D01*
X70606136Y-88755995D01*
X70585126Y-88814448D01*
X70536534Y-88697138D01*
X70132862Y-88293466D01*
X69605439Y-88075000D01*
X69034561Y-88075000D01*
X68507138Y-88293466D01*
X68103466Y-88697138D01*
X68050000Y-88826216D01*
X67996534Y-88697138D01*
X67592862Y-88293466D01*
X67065439Y-88075000D01*
X66494561Y-88075000D01*
X65967138Y-88293466D01*
X65563466Y-88697138D01*
X65510000Y-88826216D01*
X65456534Y-88697138D01*
X65052862Y-88293466D01*
X64923784Y-88240000D01*
X65052862Y-88186534D01*
X65456534Y-87782862D01*
X65675000Y-87255439D01*
X65675000Y-86684561D01*
X65456534Y-86157138D01*
X65052862Y-85753466D01*
X64923784Y-85700000D01*
X65052862Y-85646534D01*
X65456534Y-85242862D01*
X65675000Y-84715439D01*
X65675000Y-84144561D01*
X65456534Y-83617138D01*
X65052862Y-83213466D01*
X64923784Y-83160000D01*
X65052862Y-83106534D01*
X65456534Y-82702862D01*
X65675000Y-82175439D01*
X65675000Y-81604561D01*
X65456534Y-81077138D01*
X65052862Y-80673466D01*
X64923784Y-80620000D01*
X65052862Y-80566534D01*
X65456534Y-80162862D01*
X65675000Y-79635439D01*
X65675000Y-79064561D01*
X65456534Y-78537138D01*
X65052862Y-78133466D01*
X64923784Y-78080000D01*
X65052862Y-78026534D01*
X65456534Y-77622862D01*
X65675000Y-77095439D01*
X65675000Y-76524561D01*
X65456534Y-75997138D01*
X65052862Y-75593466D01*
X64923784Y-75540000D01*
X65052862Y-75486534D01*
X65456534Y-75082862D01*
X65675000Y-74555439D01*
X65675000Y-73984561D01*
X65456534Y-73457138D01*
X65052862Y-73053466D01*
X64923784Y-73000000D01*
X65052862Y-72946534D01*
X65456534Y-72542862D01*
X65675000Y-72015439D01*
X65675000Y-71444561D01*
X65456534Y-70917138D01*
X65052862Y-70513466D01*
X64923784Y-70460000D01*
X65052862Y-70406534D01*
X65456534Y-70002862D01*
X65675000Y-69475439D01*
X65675000Y-68904561D01*
X65456534Y-68377138D01*
X65052862Y-67973466D01*
X64923784Y-67920000D01*
X65052862Y-67866534D01*
X65456534Y-67462862D01*
X65675000Y-66935439D01*
X65675000Y-66364561D01*
X65662642Y-66334724D01*
X70275000Y-66334724D01*
X70275000Y-66965276D01*
X70516302Y-67547830D01*
X70962170Y-67993698D01*
X71544724Y-68235000D01*
X72175276Y-68235000D01*
X72757830Y-67993698D01*
X73203698Y-67547830D01*
X73445000Y-66965276D01*
X73445000Y-66334724D01*
X73203698Y-65752170D01*
X72757830Y-65306302D01*
X72175276Y-65065000D01*
X71544724Y-65065000D01*
X70962170Y-65306302D01*
X70516302Y-65752170D01*
X70275000Y-66334724D01*
X65662642Y-66334724D01*
X65456534Y-65837138D01*
X65052862Y-65433466D01*
X64923784Y-65380000D01*
X65052862Y-65326534D01*
X65456534Y-64922862D01*
X65675000Y-64395439D01*
X65675000Y-63824561D01*
X65653103Y-63771698D01*
X66900077Y-62524724D01*
X70275000Y-62524724D01*
X70275000Y-63155276D01*
X70516302Y-63737830D01*
X70962170Y-64183698D01*
X71544724Y-64425000D01*
X72175276Y-64425000D01*
X72757830Y-64183698D01*
X73203698Y-63737830D01*
X73445000Y-63155276D01*
X73445000Y-62524724D01*
X73203698Y-61942170D01*
X72757830Y-61496302D01*
X72175276Y-61255000D01*
X71544724Y-61255000D01*
X70962170Y-61496302D01*
X70516302Y-61942170D01*
X70275000Y-62524724D01*
X66900077Y-62524724D01*
X70680240Y-58744561D01*
X75505000Y-58744561D01*
X75505000Y-59315439D01*
X75723466Y-59842862D01*
X76127138Y-60246534D01*
X76654561Y-60465000D01*
X77225439Y-60465000D01*
X77752862Y-60246534D01*
X78156534Y-59842862D01*
X78203525Y-59729417D01*
X78226136Y-59784005D01*
X78472255Y-59858139D01*
X79300395Y-59030000D01*
X79659605Y-59030000D01*
X80487745Y-59858139D01*
X80733864Y-59784005D01*
X80926965Y-59246777D01*
X80899778Y-58676546D01*
X80733864Y-58275995D01*
X80487745Y-58201861D01*
X79659605Y-59030000D01*
X79300395Y-59030000D01*
X78472255Y-58201861D01*
X78226136Y-58275995D01*
X78205126Y-58334448D01*
X78156534Y-58217138D01*
X77752862Y-57813466D01*
X77225439Y-57595000D01*
X76654561Y-57595000D01*
X76127138Y-57813466D01*
X75723466Y-58217138D01*
X75505000Y-58744561D01*
X70680240Y-58744561D01*
X73220241Y-56204561D01*
X78045000Y-56204561D01*
X78045000Y-56775439D01*
X78263466Y-57302862D01*
X78667138Y-57706534D01*
X78780583Y-57753525D01*
X78725995Y-57776136D01*
X78651861Y-58022255D01*
X79480000Y-58850395D01*
X80308139Y-58022255D01*
X80234005Y-57776136D01*
X80175552Y-57755126D01*
X80292862Y-57706534D01*
X80696534Y-57302862D01*
X80915000Y-56775439D01*
X80915000Y-56204561D01*
X80696534Y-55677138D01*
X80292862Y-55273466D01*
X79765439Y-55055000D01*
X79194561Y-55055000D01*
X78667138Y-55273466D01*
X78263466Y-55677138D01*
X78045000Y-56204561D01*
X73220241Y-56204561D01*
X74464803Y-54960000D01*
X79985199Y-54960000D01*
X81445000Y-56419802D01*
X81445001Y-60475148D01*
X81430112Y-60550000D01*
X81445001Y-60624852D01*
X81489097Y-60846537D01*
X81657072Y-61097929D01*
X81720528Y-61140329D01*
X82667560Y-62087362D01*
X82667560Y-63255000D01*
X82716843Y-63502765D01*
X82857191Y-63712809D01*
X82875436Y-63725000D01*
X82857191Y-63737191D01*
X82716843Y-63947235D01*
X82667560Y-64195000D01*
X82667560Y-65795000D01*
X82716843Y-66042765D01*
X82857191Y-66252809D01*
X83067235Y-66393157D01*
X83315000Y-66442440D01*
X84915000Y-66442440D01*
X85162765Y-66393157D01*
X85372809Y-66252809D01*
X85460377Y-66121756D01*
X85567235Y-66193157D01*
X85815000Y-66242440D01*
X87415000Y-66242440D01*
X87662765Y-66193157D01*
X87872809Y-66052809D01*
X88013157Y-65842765D01*
X88015000Y-65833500D01*
X88016843Y-65842765D01*
X88157191Y-66052809D01*
X88367235Y-66193157D01*
X88615000Y-66242440D01*
X90215000Y-66242440D01*
X90462765Y-66193157D01*
X90672809Y-66052809D01*
X90779965Y-65892440D01*
X90783044Y-65892440D01*
X91102138Y-66211534D01*
X91155000Y-66233430D01*
X91155001Y-70005148D01*
X91140112Y-70080000D01*
X91155001Y-70154852D01*
X91199097Y-70376537D01*
X91367072Y-70627929D01*
X91430528Y-70670329D01*
X95764671Y-75004473D01*
X95807071Y-75067929D01*
X96058463Y-75235904D01*
X96280148Y-75280000D01*
X96280152Y-75280000D01*
X96354999Y-75294888D01*
X96429846Y-75280000D01*
X98646289Y-75280000D01*
X98763720Y-75397431D01*
X99144126Y-75555000D01*
X99555874Y-75555000D01*
X99936280Y-75397431D01*
X100227431Y-75106280D01*
X100385000Y-74725874D01*
X100385000Y-74314126D01*
X100259031Y-74010010D01*
X117696289Y-74010010D01*
X117813720Y-74127441D01*
X118194126Y-74285010D01*
X118605874Y-74285010D01*
X118986280Y-74127441D01*
X119277431Y-73836290D01*
X119435000Y-73455884D01*
X119435000Y-73044136D01*
X119313162Y-72749992D01*
X119435000Y-72455849D01*
X119435000Y-72044101D01*
X119277431Y-71663695D01*
X118986280Y-71372544D01*
X118605874Y-71214975D01*
X118194126Y-71214975D01*
X117813720Y-71372544D01*
X117696289Y-71489975D01*
X105033378Y-71489975D01*
X105709380Y-71209966D01*
X106309966Y-70609380D01*
X106635000Y-69824678D01*
X106635000Y-68975322D01*
X106309966Y-68190620D01*
X105709380Y-67590034D01*
X104924678Y-67265000D01*
X104075322Y-67265000D01*
X103290620Y-67590034D01*
X102690034Y-68190620D01*
X102365000Y-68975322D01*
X102365000Y-69824678D01*
X102690034Y-70609380D01*
X103290620Y-71209966D01*
X103966622Y-71489975D01*
X98209777Y-71489975D01*
X95792000Y-69072199D01*
X95792000Y-66775322D01*
X97365000Y-66775322D01*
X97365000Y-67624678D01*
X97690034Y-68409380D01*
X98290620Y-69009966D01*
X99075322Y-69335000D01*
X99924678Y-69335000D01*
X100709380Y-69009966D01*
X101309966Y-68409380D01*
X101635000Y-67624678D01*
X101635000Y-66775322D01*
X116415000Y-66775322D01*
X116415000Y-67624678D01*
X116740034Y-68409380D01*
X117340620Y-69009966D01*
X118125322Y-69335000D01*
X118974678Y-69335000D01*
X119759380Y-69009966D01*
X119794024Y-68975322D01*
X121415000Y-68975322D01*
X121415000Y-69824678D01*
X121740034Y-70609380D01*
X122340620Y-71209966D01*
X123125322Y-71535000D01*
X123974678Y-71535000D01*
X124759380Y-71209966D01*
X125359966Y-70609380D01*
X125685000Y-69824678D01*
X125685000Y-68975322D01*
X125359966Y-68190620D01*
X124759380Y-67590034D01*
X123974678Y-67265000D01*
X123125322Y-67265000D01*
X122340620Y-67590034D01*
X121740034Y-68190620D01*
X121415000Y-68975322D01*
X119794024Y-68975322D01*
X120359966Y-68409380D01*
X120685000Y-67624678D01*
X120685000Y-66775322D01*
X120359966Y-65990620D01*
X119759380Y-65390034D01*
X118974678Y-65065000D01*
X118413560Y-65065000D01*
X118606697Y-64985000D01*
X118765385Y-64985000D01*
X119311185Y-64758922D01*
X119728922Y-64341185D01*
X119955000Y-63795385D01*
X119955000Y-63204615D01*
X119909596Y-63095000D01*
X120164678Y-63095000D01*
X120949380Y-62769966D01*
X121036283Y-62683063D01*
X120915000Y-62975866D01*
X120915000Y-64024134D01*
X121316155Y-64992608D01*
X122057392Y-65733845D01*
X123025866Y-66135000D01*
X124074134Y-66135000D01*
X125042608Y-65733845D01*
X125783845Y-64992608D01*
X126185000Y-64024134D01*
X126185000Y-63204615D01*
X127145000Y-63204615D01*
X127145000Y-63795385D01*
X127371078Y-64341185D01*
X127788815Y-64758922D01*
X128334615Y-64985000D01*
X128493303Y-64985000D01*
X128734724Y-65085000D01*
X129365276Y-65085000D01*
X129947830Y-64843698D01*
X130393698Y-64397830D01*
X130635000Y-63815276D01*
X130635000Y-63184724D01*
X130393698Y-62602170D01*
X129947830Y-62156302D01*
X129365276Y-61915000D01*
X128734724Y-61915000D01*
X128493303Y-62015000D01*
X128334615Y-62015000D01*
X127788815Y-62241078D01*
X127371078Y-62658815D01*
X127145000Y-63204615D01*
X126185000Y-63204615D01*
X126185000Y-62975866D01*
X125783845Y-62007392D01*
X125042608Y-61266155D01*
X124074134Y-60865000D01*
X123025866Y-60865000D01*
X122057392Y-61266155D01*
X121829838Y-61493709D01*
X121875000Y-61384678D01*
X121875000Y-60535322D01*
X121549966Y-59750620D01*
X120949380Y-59150034D01*
X120164678Y-58825000D01*
X119315322Y-58825000D01*
X118530620Y-59150034D01*
X117930034Y-59750620D01*
X117605000Y-60535322D01*
X117605000Y-61384678D01*
X117824666Y-61915000D01*
X117734724Y-61915000D01*
X117152170Y-62156302D01*
X116706302Y-62602170D01*
X116465000Y-63184724D01*
X116465000Y-63815276D01*
X116706302Y-64397830D01*
X117152170Y-64843698D01*
X117734724Y-65085000D01*
X118077038Y-65085000D01*
X117340620Y-65390034D01*
X116740034Y-65990620D01*
X116415000Y-66775322D01*
X101635000Y-66775322D01*
X101309966Y-65990620D01*
X100709380Y-65390034D01*
X99924678Y-65065000D01*
X99363560Y-65065000D01*
X99556697Y-64985000D01*
X99715385Y-64985000D01*
X100261185Y-64758922D01*
X100678922Y-64341185D01*
X100905000Y-63795385D01*
X100905000Y-63204615D01*
X100859596Y-63095000D01*
X101114678Y-63095000D01*
X101899380Y-62769966D01*
X101986283Y-62683063D01*
X101865000Y-62975866D01*
X101865000Y-64024134D01*
X102266155Y-64992608D01*
X103007392Y-65733845D01*
X103975866Y-66135000D01*
X105024134Y-66135000D01*
X105992608Y-65733845D01*
X106733845Y-64992608D01*
X107135000Y-64024134D01*
X107135000Y-63204615D01*
X108095000Y-63204615D01*
X108095000Y-63795385D01*
X108321078Y-64341185D01*
X108738815Y-64758922D01*
X109284615Y-64985000D01*
X109443303Y-64985000D01*
X109684724Y-65085000D01*
X110315276Y-65085000D01*
X110897830Y-64843698D01*
X111343698Y-64397830D01*
X111585000Y-63815276D01*
X111585000Y-63184724D01*
X111343698Y-62602170D01*
X110897830Y-62156302D01*
X110315276Y-61915000D01*
X109684724Y-61915000D01*
X109443303Y-62015000D01*
X109284615Y-62015000D01*
X108738815Y-62241078D01*
X108321078Y-62658815D01*
X108095000Y-63204615D01*
X107135000Y-63204615D01*
X107135000Y-62975866D01*
X106733845Y-62007392D01*
X105992608Y-61266155D01*
X105024134Y-60865000D01*
X103975866Y-60865000D01*
X103007392Y-61266155D01*
X102779838Y-61493709D01*
X102825000Y-61384678D01*
X102825000Y-60535322D01*
X102499966Y-59750620D01*
X101899380Y-59150034D01*
X101114678Y-58825000D01*
X100265322Y-58825000D01*
X99480620Y-59150034D01*
X98880034Y-59750620D01*
X98555000Y-60535322D01*
X98555000Y-61384678D01*
X98774666Y-61915000D01*
X98684724Y-61915000D01*
X98102170Y-62156302D01*
X97656302Y-62602170D01*
X97415000Y-63184724D01*
X97415000Y-63815276D01*
X97656302Y-64397830D01*
X98102170Y-64843698D01*
X98684724Y-65085000D01*
X99027038Y-65085000D01*
X98290620Y-65390034D01*
X97690034Y-65990620D01*
X97365000Y-66775322D01*
X95792000Y-66775322D01*
X95792000Y-63106846D01*
X95806888Y-63031999D01*
X95792000Y-62957152D01*
X95792000Y-62957148D01*
X95747904Y-62735463D01*
X95579929Y-62484071D01*
X95516473Y-62441671D01*
X93328103Y-60253302D01*
X93350000Y-60200439D01*
X93350000Y-59629561D01*
X93131534Y-59102138D01*
X92727862Y-58698466D01*
X92598784Y-58645000D01*
X92727862Y-58591534D01*
X93131534Y-58187862D01*
X93211286Y-57995322D01*
X104905000Y-57995322D01*
X104905000Y-58844678D01*
X105230034Y-59629380D01*
X105830620Y-60229966D01*
X106615322Y-60555000D01*
X107464678Y-60555000D01*
X108249380Y-60229966D01*
X108849966Y-59629380D01*
X109175000Y-58844678D01*
X109175000Y-57995322D01*
X123955000Y-57995322D01*
X123955000Y-58844678D01*
X124280034Y-59629380D01*
X124880620Y-60229966D01*
X125665322Y-60555000D01*
X126514678Y-60555000D01*
X127299380Y-60229966D01*
X127899966Y-59629380D01*
X128225000Y-58844678D01*
X128225000Y-57995322D01*
X127899966Y-57210620D01*
X127299380Y-56610034D01*
X126514678Y-56285000D01*
X125665322Y-56285000D01*
X124880620Y-56610034D01*
X124280034Y-57210620D01*
X123955000Y-57995322D01*
X109175000Y-57995322D01*
X108849966Y-57210620D01*
X108249380Y-56610034D01*
X107464678Y-56285000D01*
X106615322Y-56285000D01*
X105830620Y-56610034D01*
X105230034Y-57210620D01*
X104905000Y-57995322D01*
X93211286Y-57995322D01*
X93350000Y-57660439D01*
X93350000Y-57089561D01*
X93131534Y-56562138D01*
X92727862Y-56158466D01*
X92200439Y-55940000D01*
X91629561Y-55940000D01*
X91102138Y-56158466D01*
X90783044Y-56477560D01*
X90779965Y-56477560D01*
X90672809Y-56317191D01*
X90462765Y-56176843D01*
X90215000Y-56127560D01*
X88615000Y-56127560D01*
X88367235Y-56176843D01*
X88157191Y-56317191D01*
X88016843Y-56527235D01*
X88015000Y-56536500D01*
X88013157Y-56527235D01*
X87872809Y-56317191D01*
X87662765Y-56176843D01*
X87415000Y-56127560D01*
X85815000Y-56127560D01*
X85567235Y-56176843D01*
X85460377Y-56248244D01*
X85372809Y-56117191D01*
X85162765Y-55976843D01*
X84915000Y-55927560D01*
X83638327Y-55927560D01*
X83440000Y-55888110D01*
X83143463Y-55947095D01*
X83112382Y-55967863D01*
X83067235Y-55976843D01*
X82967634Y-56043395D01*
X82965000Y-56030152D01*
X82965000Y-56030148D01*
X82920904Y-55808463D01*
X82920904Y-55808462D01*
X82795329Y-55620527D01*
X82752929Y-55557071D01*
X82689473Y-55514671D01*
X80890331Y-53715530D01*
X80873272Y-53690000D01*
X92685199Y-53690000D01*
X95775000Y-56779802D01*
X95775000Y-56945874D01*
X95932569Y-57326280D01*
X96223720Y-57617431D01*
X96604126Y-57775000D01*
X97015874Y-57775000D01*
X97396280Y-57617431D01*
X97687431Y-57326280D01*
X97845000Y-56945874D01*
X97845000Y-56534126D01*
X97687431Y-56153720D01*
X97396280Y-55862569D01*
X97015874Y-55705000D01*
X96849802Y-55705000D01*
X93590331Y-52445530D01*
X93547929Y-52382071D01*
X93296537Y-52214096D01*
X93074852Y-52170000D01*
X93074847Y-52170000D01*
X93000000Y-52155112D01*
X92925153Y-52170000D01*
X64499846Y-52170000D01*
X64424999Y-52155112D01*
X64350152Y-52170000D01*
X64350148Y-52170000D01*
X64128463Y-52214096D01*
X63877071Y-52382071D01*
X63834671Y-52445527D01*
X60765528Y-55514671D01*
X60702072Y-55557071D01*
X60659672Y-55620527D01*
X60659671Y-55620528D01*
X60534097Y-55808463D01*
X60475112Y-56105000D01*
X60490001Y-56179852D01*
X60490000Y-66125153D01*
X60475112Y-66200000D01*
X60490000Y-66274847D01*
X60490000Y-66274851D01*
X60534096Y-66496536D01*
X60702071Y-66747929D01*
X60765530Y-66790331D01*
X62826897Y-68851698D01*
X62805000Y-68904561D01*
X62805000Y-69475439D01*
X63023466Y-70002862D01*
X63427138Y-70406534D01*
X63556216Y-70460000D01*
X63427138Y-70513466D01*
X63023466Y-70917138D01*
X62805000Y-71444561D01*
X62805000Y-72015439D01*
X63023466Y-72542862D01*
X63427138Y-72946534D01*
X63556216Y-73000000D01*
X63427138Y-73053466D01*
X63023466Y-73457138D01*
X62805000Y-73984561D01*
X62805000Y-74555439D01*
X63023466Y-75082862D01*
X63427138Y-75486534D01*
X63556216Y-75540000D01*
X63427138Y-75593466D01*
X63023466Y-75997138D01*
X62805000Y-76524561D01*
X62805000Y-77095439D01*
X63023466Y-77622862D01*
X63427138Y-78026534D01*
X63556216Y-78080000D01*
X63427138Y-78133466D01*
X63023466Y-78537138D01*
X63001570Y-78590000D01*
X61734848Y-78590000D01*
X61660000Y-78575112D01*
X61585152Y-78590000D01*
X61585148Y-78590000D01*
X61411605Y-78624520D01*
X61363462Y-78634096D01*
X61256559Y-78705527D01*
X61112071Y-78802071D01*
X61069671Y-78865527D01*
X60626207Y-79308991D01*
X60568839Y-79020582D01*
X60240625Y-78529375D01*
X59921522Y-78316157D01*
X60051358Y-78255183D01*
X60441645Y-77826924D01*
X60611476Y-77416890D01*
X60490155Y-77187000D01*
X59297000Y-77187000D01*
X59297000Y-77207000D01*
X59043000Y-77207000D01*
X59043000Y-77187000D01*
X57849845Y-77187000D01*
X57728524Y-77416890D01*
X57898355Y-77826924D01*
X58288642Y-78255183D01*
X58418478Y-78316157D01*
X58099375Y-78529375D01*
X57771161Y-79020582D01*
X57655908Y-79600000D01*
X57771161Y-80179418D01*
X58099375Y-80670625D01*
X58397761Y-80870000D01*
X58099375Y-81069375D01*
X57771161Y-81560582D01*
X57655908Y-82140000D01*
X57771161Y-82719418D01*
X58099375Y-83210625D01*
X58397761Y-83410000D01*
X58099375Y-83609375D01*
X57771161Y-84100582D01*
X57655908Y-84680000D01*
X57771161Y-85259418D01*
X58099375Y-85750625D01*
X58397761Y-85950000D01*
X58099375Y-86149375D01*
X57771161Y-86640582D01*
X57655908Y-87220000D01*
X57771161Y-87799418D01*
X58099375Y-88290625D01*
X58397761Y-88490000D01*
X58099375Y-88689375D01*
X57771161Y-89180582D01*
X57655908Y-89760000D01*
X57771161Y-90339418D01*
X58099375Y-90830625D01*
X58397761Y-91030000D01*
X58099375Y-91229375D01*
X57771161Y-91720582D01*
X57655908Y-92300000D01*
X57771161Y-92879418D01*
X58099375Y-93370625D01*
X58117619Y-93382816D01*
X58072235Y-93391843D01*
X57862191Y-93532191D01*
X57721843Y-93742235D01*
X57672560Y-93990000D01*
X57672560Y-95690000D01*
X57721843Y-95937765D01*
X57862191Y-96147809D01*
X58072235Y-96288157D01*
X58320000Y-96337440D01*
X60020000Y-96337440D01*
X60267765Y-96288157D01*
X60477809Y-96147809D01*
X60618157Y-95937765D01*
X60667440Y-95690000D01*
X60667440Y-94870915D01*
X62028356Y-93510000D01*
X62501867Y-93510000D01*
X62361161Y-93720582D01*
X62275000Y-94153744D01*
X62275000Y-95246255D01*
X62361161Y-95679417D01*
X62689375Y-96170625D01*
X63180582Y-96498839D01*
X63760000Y-96614092D01*
X64339417Y-96498839D01*
X64625000Y-96308019D01*
X64625000Y-96745657D01*
X64813018Y-97199571D01*
X65160429Y-97546982D01*
X65614343Y-97735000D01*
X66105657Y-97735000D01*
X66559571Y-97546982D01*
X66906982Y-97199571D01*
X67095000Y-96745657D01*
X67095000Y-96502238D01*
X67134024Y-96510000D01*
X67134029Y-96510000D01*
X67233500Y-96529786D01*
X67332971Y-96510000D01*
X69229159Y-96510000D01*
X69328630Y-96529786D01*
X69428101Y-96510000D01*
X69428106Y-96510000D01*
X69722712Y-96451399D01*
X70056799Y-96228169D01*
X70113147Y-96143838D01*
X70776811Y-95480174D01*
X70661843Y-95652235D01*
X70612560Y-95900000D01*
X70612560Y-97400000D01*
X70661843Y-97647765D01*
X70802191Y-97857809D01*
X71012235Y-97998157D01*
X71021500Y-98000000D01*
X71012235Y-98001843D01*
X70802191Y-98142191D01*
X70661843Y-98352235D01*
X70612560Y-98600000D01*
X70612560Y-100100000D01*
X70661843Y-100347765D01*
X70802191Y-100557809D01*
X70962560Y-100664965D01*
X70962560Y-100768044D01*
X70643466Y-101087138D01*
X70425000Y-101614561D01*
X70425000Y-102185439D01*
X70643466Y-102712862D01*
X71047138Y-103116534D01*
X71574561Y-103335000D01*
X72145439Y-103335000D01*
X72672862Y-103116534D01*
X73076534Y-102712862D01*
X73295000Y-102185439D01*
X73295000Y-101614561D01*
X73076534Y-101087138D01*
X72757440Y-100768044D01*
X72757440Y-100664965D01*
X72917809Y-100557809D01*
X73058157Y-100347765D01*
X73107440Y-100100000D01*
X73107440Y-98600000D01*
X73058157Y-98352235D01*
X72917809Y-98142191D01*
X72707765Y-98001843D01*
X72698500Y-98000000D01*
X72707765Y-97998157D01*
X72917809Y-97857809D01*
X73058157Y-97647765D01*
X73107440Y-97400000D01*
X73107440Y-95900000D01*
X73058157Y-95652235D01*
X72917809Y-95442191D01*
X72757440Y-95335035D01*
X72757440Y-95231956D01*
X72879396Y-95110000D01*
X74275000Y-95110000D01*
X74275000Y-95246255D01*
X74361161Y-95679417D01*
X74689375Y-96170625D01*
X75180582Y-96498839D01*
X75760000Y-96614092D01*
X76339417Y-96498839D01*
X76625000Y-96308019D01*
X76625000Y-96745657D01*
X76813018Y-97199571D01*
X77160429Y-97546982D01*
X77614343Y-97735000D01*
X78105657Y-97735000D01*
X78559571Y-97546982D01*
X78906982Y-97199571D01*
X79095000Y-96745657D01*
X79095000Y-96254343D01*
X78906982Y-95800429D01*
X78559571Y-95453018D01*
X78105657Y-95265000D01*
X77614343Y-95265000D01*
X77207773Y-95433407D01*
X77245000Y-95246256D01*
X77245000Y-94153745D01*
X77158839Y-93720582D01*
X76895856Y-93327000D01*
X78475000Y-93327000D01*
X78475000Y-93727000D01*
X78636640Y-94285618D01*
X78999749Y-94739856D01*
X79509048Y-95020562D01*
X79603110Y-95041476D01*
X79833000Y-94920155D01*
X79833000Y-93327000D01*
X78475000Y-93327000D01*
X76895856Y-93327000D01*
X76830625Y-93229375D01*
X76339418Y-92901161D01*
X75760000Y-92785908D01*
X75180583Y-92901161D01*
X74897965Y-93090000D01*
X72879396Y-93090000D01*
X72672862Y-92883466D01*
X72164753Y-92673000D01*
X78475000Y-92673000D01*
X78475000Y-93073000D01*
X79833000Y-93073000D01*
X79833000Y-91479845D01*
X79603110Y-91358524D01*
X79509048Y-91379438D01*
X78999749Y-91660144D01*
X78636640Y-92114382D01*
X78475000Y-92673000D01*
X72164753Y-92673000D01*
X72145439Y-92665000D01*
X71574561Y-92665000D01*
X71047138Y-92883466D01*
X70840604Y-93090000D01*
X70828101Y-93090000D01*
X70728630Y-93070214D01*
X70629159Y-93090000D01*
X70629154Y-93090000D01*
X70334548Y-93148601D01*
X70334546Y-93148602D01*
X70334547Y-93148602D01*
X70084792Y-93315482D01*
X70084790Y-93315484D01*
X70000461Y-93371831D01*
X69944114Y-93456160D01*
X69393100Y-94007174D01*
X69445000Y-93746256D01*
X69445000Y-92653745D01*
X69358839Y-92220582D01*
X69051088Y-91760000D01*
X77885153Y-91760000D01*
X77960000Y-91774888D01*
X78034847Y-91760000D01*
X78034852Y-91760000D01*
X78256537Y-91715904D01*
X78507929Y-91547929D01*
X78550331Y-91484470D01*
X79074063Y-90960739D01*
X79134716Y-90920211D01*
X79194561Y-90945000D01*
X79765439Y-90945000D01*
X80292862Y-90726534D01*
X80696534Y-90322862D01*
X80915000Y-89795439D01*
X80915000Y-89224561D01*
X80696534Y-88697138D01*
X80292862Y-88293466D01*
X80163784Y-88240000D01*
X80292862Y-88186534D01*
X80696534Y-87782862D01*
X80915000Y-87255439D01*
X80915000Y-86684561D01*
X80696534Y-86157138D01*
X80292862Y-85753466D01*
X80163784Y-85700000D01*
X80292862Y-85646534D01*
X80696534Y-85242862D01*
X80915000Y-84715439D01*
X80915000Y-84144561D01*
X80696534Y-83617138D01*
X80292862Y-83213466D01*
X80163784Y-83160000D01*
X80292862Y-83106534D01*
X80696534Y-82702862D01*
X80915000Y-82175439D01*
X80915000Y-81604561D01*
X80696534Y-81077138D01*
X80292862Y-80673466D01*
X80163784Y-80620000D01*
X80292862Y-80566534D01*
X80696534Y-80162862D01*
X80915000Y-79635439D01*
X80915000Y-79319802D01*
X81100001Y-79504803D01*
X81100000Y-91885005D01*
X80920251Y-91660144D01*
X80410952Y-91379438D01*
X80316890Y-91358524D01*
X80087000Y-91479845D01*
X80087000Y-93073000D01*
X80107000Y-93073000D01*
X80107000Y-93327000D01*
X80087000Y-93327000D01*
X80087000Y-94920155D01*
X80316890Y-95041476D01*
X80410952Y-95020562D01*
X80920251Y-94739856D01*
X81100000Y-94514996D01*
X81100000Y-95274851D01*
X81100001Y-95274854D01*
X81100000Y-96385198D01*
X77000936Y-100484263D01*
X76830625Y-100229375D01*
X76786662Y-100200000D01*
X76830625Y-100170625D01*
X77158839Y-99679418D01*
X77245000Y-99246256D01*
X77245000Y-98153745D01*
X77158839Y-97720582D01*
X76830625Y-97229375D01*
X76339418Y-96901161D01*
X75760000Y-96785908D01*
X75180583Y-96901161D01*
X74689375Y-97229375D01*
X74361161Y-97720582D01*
X74275000Y-98153744D01*
X74275000Y-99246255D01*
X74361161Y-99679417D01*
X74689375Y-100170625D01*
X74733338Y-100200000D01*
X74689375Y-100229375D01*
X74361161Y-100720582D01*
X74275000Y-101153744D01*
X74275000Y-102246255D01*
X74361161Y-102679417D01*
X74689375Y-103170625D01*
X75180582Y-103498839D01*
X75760000Y-103614092D01*
X76339417Y-103498839D01*
X76625000Y-103308019D01*
X76625000Y-103745657D01*
X76813018Y-104199571D01*
X76903447Y-104290000D01*
X66816553Y-104290000D01*
X66906982Y-104199571D01*
X67095000Y-103745657D01*
X67095000Y-103254343D01*
X66906982Y-102800429D01*
X66559571Y-102453018D01*
X66105657Y-102265000D01*
X65614343Y-102265000D01*
X65207773Y-102433407D01*
X65245000Y-102246256D01*
X65245000Y-101153745D01*
X65158839Y-100720582D01*
X64830625Y-100229375D01*
X64786662Y-100200000D01*
X64830625Y-100170625D01*
X65158839Y-99679418D01*
X65245000Y-99246256D01*
X65245000Y-98153745D01*
X65158839Y-97720582D01*
X64830625Y-97229375D01*
X64339418Y-96901161D01*
X63760000Y-96785908D01*
X63180583Y-96901161D01*
X62689375Y-97229375D01*
X62361161Y-97720582D01*
X62275000Y-98153744D01*
X62275000Y-99246255D01*
X62361161Y-99679417D01*
X62689375Y-100170625D01*
X62733338Y-100200000D01*
X62689375Y-100229375D01*
X62361161Y-100720582D01*
X62275000Y-101153744D01*
X62275000Y-102246255D01*
X62361161Y-102679417D01*
X62689375Y-103170625D01*
X63180582Y-103498839D01*
X63760000Y-103614092D01*
X64339417Y-103498839D01*
X64625000Y-103308019D01*
X64625000Y-103745657D01*
X64813018Y-104199571D01*
X64903447Y-104290000D01*
X55031618Y-104290000D01*
X54240807Y-104219422D01*
X53505611Y-104018295D01*
X52817645Y-103690152D01*
X52198672Y-103245374D01*
X51668239Y-102698012D01*
X51243117Y-102065362D01*
X50936749Y-101367439D01*
X50757501Y-100620819D01*
X50710000Y-99973970D01*
X50710000Y-76703110D01*
X57728524Y-76703110D01*
X57849845Y-76933000D01*
X59043000Y-76933000D01*
X59043000Y-75739181D01*
X59297000Y-75739181D01*
X59297000Y-76933000D01*
X60490155Y-76933000D01*
X60611476Y-76703110D01*
X60441645Y-76293076D01*
X60051358Y-75864817D01*
X59526892Y-75618514D01*
X59297000Y-75739181D01*
X59043000Y-75739181D01*
X58813108Y-75618514D01*
X58288642Y-75864817D01*
X57898355Y-76293076D01*
X57728524Y-76703110D01*
X50710000Y-76703110D01*
X50710000Y-55031618D01*
X50780578Y-54240808D01*
X50981705Y-53505611D01*
X51309846Y-52817649D01*
X51754628Y-52198669D01*
X52301988Y-51668239D01*
X52934639Y-51243116D01*
X53632561Y-50936749D01*
X54379183Y-50757501D01*
X55026030Y-50710000D01*
X135968382Y-50710000D01*
X136759192Y-50780578D01*
G36*
X62989143Y-90240000D02*
X62084848Y-90240000D01*
X62010000Y-90225112D01*
X61935152Y-90240000D01*
X61935148Y-90240000D01*
X61713463Y-90284096D01*
X61462071Y-90452071D01*
X61419671Y-90515527D01*
X60695199Y-91240000D01*
X60247724Y-91240000D01*
X60240625Y-91229375D01*
X59942239Y-91030000D01*
X60240625Y-90830625D01*
X60568839Y-90339418D01*
X60592593Y-90220000D01*
X62980859Y-90220000D01*
X62989143Y-90240000D01*
X62989143Y-90240000D01*
G37*
X62989143Y-90240000D02*
X62084848Y-90240000D01*
X62010000Y-90225112D01*
X61935152Y-90240000D01*
X61935148Y-90240000D01*
X61713463Y-90284096D01*
X61462071Y-90452071D01*
X61419671Y-90515527D01*
X60695199Y-91240000D01*
X60247724Y-91240000D01*
X60240625Y-91229375D01*
X59942239Y-91030000D01*
X60240625Y-90830625D01*
X60568839Y-90339418D01*
X60592593Y-90220000D01*
X62980859Y-90220000D01*
X62989143Y-90240000D01*
G36*
X63023466Y-87782862D02*
X63427138Y-88186534D01*
X63556216Y-88240000D01*
X63427138Y-88293466D01*
X63023466Y-88697138D01*
X63022281Y-88700000D01*
X60247724Y-88700000D01*
X60240625Y-88689375D01*
X59942239Y-88490000D01*
X60240625Y-88290625D01*
X60568839Y-87799418D01*
X60592593Y-87680000D01*
X62980859Y-87680000D01*
X63023466Y-87782862D01*
X63023466Y-87782862D01*
G37*
X63023466Y-87782862D02*
X63427138Y-88186534D01*
X63556216Y-88240000D01*
X63427138Y-88293466D01*
X63023466Y-88697138D01*
X63022281Y-88700000D01*
X60247724Y-88700000D01*
X60240625Y-88689375D01*
X59942239Y-88490000D01*
X60240625Y-88290625D01*
X60568839Y-87799418D01*
X60592593Y-87680000D01*
X62980859Y-87680000D01*
X63023466Y-87782862D01*
G36*
X63023466Y-85242862D02*
X63427138Y-85646534D01*
X63556216Y-85700000D01*
X63427138Y-85753466D01*
X63023466Y-86157138D01*
X63022281Y-86160000D01*
X60247724Y-86160000D01*
X60240625Y-86149375D01*
X59942239Y-85950000D01*
X60240625Y-85750625D01*
X60568839Y-85259418D01*
X60592593Y-85140000D01*
X62980859Y-85140000D01*
X63023466Y-85242862D01*
X63023466Y-85242862D01*
G37*
X63023466Y-85242862D02*
X63427138Y-85646534D01*
X63556216Y-85700000D01*
X63427138Y-85753466D01*
X63023466Y-86157138D01*
X63022281Y-86160000D01*
X60247724Y-86160000D01*
X60240625Y-86149375D01*
X59942239Y-85950000D01*
X60240625Y-85750625D01*
X60568839Y-85259418D01*
X60592593Y-85140000D01*
X62980859Y-85140000D01*
X63023466Y-85242862D01*
G36*
X63023466Y-80162862D02*
X63427138Y-80566534D01*
X63556216Y-80620000D01*
X63427138Y-80673466D01*
X63023466Y-81077138D01*
X62805000Y-81604561D01*
X62805000Y-82175439D01*
X63023466Y-82702862D01*
X63427138Y-83106534D01*
X63556216Y-83160000D01*
X63427138Y-83213466D01*
X63023466Y-83617138D01*
X63022281Y-83620000D01*
X60247724Y-83620000D01*
X60240625Y-83609375D01*
X59942239Y-83410000D01*
X60240625Y-83210625D01*
X60568839Y-82719418D01*
X60684092Y-82140000D01*
X60568839Y-81560582D01*
X60550967Y-81533834D01*
X61974802Y-80110000D01*
X63001570Y-80110000D01*
X63023466Y-80162862D01*
X63023466Y-80162862D01*
G37*
X63023466Y-80162862D02*
X63427138Y-80566534D01*
X63556216Y-80620000D01*
X63427138Y-80673466D01*
X63023466Y-81077138D01*
X62805000Y-81604561D01*
X62805000Y-82175439D01*
X63023466Y-82702862D01*
X63427138Y-83106534D01*
X63556216Y-83160000D01*
X63427138Y-83213466D01*
X63023466Y-83617138D01*
X63022281Y-83620000D01*
X60247724Y-83620000D01*
X60240625Y-83609375D01*
X59942239Y-83410000D01*
X60240625Y-83210625D01*
X60568839Y-82719418D01*
X60684092Y-82140000D01*
X60568839Y-81560582D01*
X60550967Y-81533834D01*
X61974802Y-80110000D01*
X63001570Y-80110000D01*
X63023466Y-80162862D01*
G36*
X73559673Y-53715524D02*
X65675000Y-61600199D01*
X65675000Y-61284561D01*
X65456534Y-60757138D01*
X65052862Y-60353466D01*
X64923784Y-60300000D01*
X65052862Y-60246534D01*
X65456534Y-59842862D01*
X65675000Y-59315439D01*
X65675000Y-58744561D01*
X65456534Y-58217138D01*
X65164396Y-57925000D01*
X65166310Y-57925000D01*
X65399699Y-57828327D01*
X65578327Y-57649698D01*
X65675000Y-57416309D01*
X65675000Y-56775750D01*
X65516250Y-56617000D01*
X64367000Y-56617000D01*
X64367000Y-56637000D01*
X64113000Y-56637000D01*
X64113000Y-56617000D01*
X62963750Y-56617000D01*
X62805000Y-56775750D01*
X62805000Y-57416309D01*
X62901673Y-57649698D01*
X63080301Y-57828327D01*
X63313690Y-57925000D01*
X63315604Y-57925000D01*
X63023466Y-58217138D01*
X62805000Y-58744561D01*
X62805000Y-59315439D01*
X63023466Y-59842862D01*
X63427138Y-60246534D01*
X63556216Y-60300000D01*
X63427138Y-60353466D01*
X63023466Y-60757138D01*
X62805000Y-61284561D01*
X62805000Y-61855439D01*
X63023466Y-62382862D01*
X63427138Y-62786534D01*
X63556216Y-62840000D01*
X63427138Y-62893466D01*
X63023466Y-63297138D01*
X62805000Y-63824561D01*
X62805000Y-64395439D01*
X63023466Y-64922862D01*
X63427138Y-65326534D01*
X63556216Y-65380000D01*
X63427138Y-65433466D01*
X63023466Y-65837138D01*
X62805000Y-66364561D01*
X62805000Y-66680199D01*
X62010000Y-65885199D01*
X62010000Y-56419801D01*
X62805000Y-55624801D01*
X62805000Y-56204250D01*
X62963750Y-56363000D01*
X64113000Y-56363000D01*
X64113000Y-55213750D01*
X64367000Y-55213750D01*
X64367000Y-56363000D01*
X65516250Y-56363000D01*
X65675000Y-56204250D01*
X65675000Y-55563691D01*
X65578327Y-55330302D01*
X65399699Y-55151673D01*
X65166310Y-55055000D01*
X64525750Y-55055000D01*
X64367000Y-55213750D01*
X64113000Y-55213750D01*
X63954250Y-55055000D01*
X63374801Y-55055000D01*
X64739802Y-53690000D01*
X73576728Y-53690000D01*
X73559673Y-53715524D01*
X73559673Y-53715524D01*
G37*
X73559673Y-53715524D02*
X65675000Y-61600199D01*
X65675000Y-61284561D01*
X65456534Y-60757138D01*
X65052862Y-60353466D01*
X64923784Y-60300000D01*
X65052862Y-60246534D01*
X65456534Y-59842862D01*
X65675000Y-59315439D01*
X65675000Y-58744561D01*
X65456534Y-58217138D01*
X65164396Y-57925000D01*
X65166310Y-57925000D01*
X65399699Y-57828327D01*
X65578327Y-57649698D01*
X65675000Y-57416309D01*
X65675000Y-56775750D01*
X65516250Y-56617000D01*
X64367000Y-56617000D01*
X64367000Y-56637000D01*
X64113000Y-56637000D01*
X64113000Y-56617000D01*
X62963750Y-56617000D01*
X62805000Y-56775750D01*
X62805000Y-57416309D01*
X62901673Y-57649698D01*
X63080301Y-57828327D01*
X63313690Y-57925000D01*
X63315604Y-57925000D01*
X63023466Y-58217138D01*
X62805000Y-58744561D01*
X62805000Y-59315439D01*
X63023466Y-59842862D01*
X63427138Y-60246534D01*
X63556216Y-60300000D01*
X63427138Y-60353466D01*
X63023466Y-60757138D01*
X62805000Y-61284561D01*
X62805000Y-61855439D01*
X63023466Y-62382862D01*
X63427138Y-62786534D01*
X63556216Y-62840000D01*
X63427138Y-62893466D01*
X63023466Y-63297138D01*
X62805000Y-63824561D01*
X62805000Y-64395439D01*
X63023466Y-64922862D01*
X63427138Y-65326534D01*
X63556216Y-65380000D01*
X63427138Y-65433466D01*
X63023466Y-65837138D01*
X62805000Y-66364561D01*
X62805000Y-66680199D01*
X62010000Y-65885199D01*
X62010000Y-56419801D01*
X62805000Y-55624801D01*
X62805000Y-56204250D01*
X62963750Y-56363000D01*
X64113000Y-56363000D01*
X64113000Y-55213750D01*
X64367000Y-55213750D01*
X64367000Y-56363000D01*
X65516250Y-56363000D01*
X65675000Y-56204250D01*
X65675000Y-55563691D01*
X65578327Y-55330302D01*
X65399699Y-55151673D01*
X65166310Y-55055000D01*
X64525750Y-55055000D01*
X64367000Y-55213750D01*
X64113000Y-55213750D01*
X63954250Y-55055000D01*
X63374801Y-55055000D01*
X64739802Y-53690000D01*
X73576728Y-53690000D01*
X73559673Y-53715524D01*
G04 #@! TD*
M02*
