G04 #@! TF.GenerationSoftware,KiCad,Pcbnew,(5.0.2)-1*
G04 #@! TF.CreationDate,2019-03-22T22:23:12+09:00*
G04 #@! TF.ProjectId,mitcard,6d697463-6172-4642-9e6b-696361645f70,rev?*
G04 #@! TF.SameCoordinates,Original*
G04 #@! TF.FileFunction,Copper,L2,Bot*
G04 #@! TF.FilePolarity,Positive*
%FSLAX46Y46*%
G04 Gerber Fmt 4.6, Leading zero omitted, Abs format (unit mm)*
G04 Created by KiCad (PCBNEW (5.0.2)-1) date 2019/03/22 22:23:12*
%MOMM*%
%LPD*%
G01*
G04 APERTURE LIST*
G04 #@! TA.AperFunction,SMDPad,CuDef*
%ADD10R,2.000000X2.000000*%
G04 #@! TD*
G04 #@! TA.AperFunction,SMDPad,CuDef*
%ADD11R,1.900000X2.000000*%
G04 #@! TD*
G04 #@! TA.AperFunction,ComponentPad*
%ADD12C,1.600000*%
G04 #@! TD*
G04 #@! TA.AperFunction,ComponentPad*
%ADD13R,1.600000X1.600000*%
G04 #@! TD*
G04 #@! TA.AperFunction,ComponentPad*
%ADD14C,1.900000*%
G04 #@! TD*
G04 #@! TA.AperFunction,Conductor*
%ADD15R,2.900000X0.500000*%
G04 #@! TD*
G04 #@! TA.AperFunction,SMDPad,CuDef*
%ADD16R,1.600000X1.200000*%
G04 #@! TD*
G04 #@! TA.AperFunction,ComponentPad*
%ADD17O,1.700000X2.500000*%
G04 #@! TD*
G04 #@! TA.AperFunction,Conductor*
%ADD18R,0.500000X2.900000*%
G04 #@! TD*
G04 #@! TA.AperFunction,SMDPad,CuDef*
%ADD19R,1.200000X1.500000*%
G04 #@! TD*
G04 #@! TA.AperFunction,ComponentPad*
%ADD20R,1.700000X1.700000*%
G04 #@! TD*
G04 #@! TA.AperFunction,ComponentPad*
%ADD21O,1.700000X1.700000*%
G04 #@! TD*
G04 #@! TA.AperFunction,ViaPad*
%ADD22C,0.800000*%
G04 #@! TD*
G04 #@! TA.AperFunction,Conductor*
%ADD23C,0.250000*%
G04 #@! TD*
G04 #@! TA.AperFunction,Conductor*
%ADD24C,0.750000*%
G04 #@! TD*
G04 #@! TA.AperFunction,Conductor*
%ADD25C,0.254000*%
G04 #@! TD*
G04 APERTURE END LIST*
D10*
G04 #@! TO.P,SW1,2*
G04 #@! TO.N,Net-(D1-Pad2)*
X111550000Y-58420000D03*
G04 #@! TO.P,SW1,1*
G04 #@! TO.N,col0*
X99050000Y-60960000D03*
D11*
G04 #@! TO.P,SW1,2*
G04 #@! TO.N,Net-(D1-Pad2)*
X108750000Y-69400000D03*
D10*
G04 #@! TO.P,SW1,1*
G04 #@! TO.N,col0*
X97850000Y-67200000D03*
G04 #@! TD*
G04 #@! TO.P,SW4,1*
G04 #@! TO.N,col1*
X116900000Y-86250000D03*
D11*
G04 #@! TO.P,SW4,2*
G04 #@! TO.N,Net-(D4-Pad2)*
X127800000Y-88450000D03*
D10*
G04 #@! TO.P,SW4,1*
G04 #@! TO.N,col1*
X118100000Y-80010000D03*
G04 #@! TO.P,SW4,2*
G04 #@! TO.N,Net-(D4-Pad2)*
X130600000Y-77470000D03*
G04 #@! TD*
G04 #@! TO.P,SW2,1*
G04 #@! TO.N,col0*
X97850000Y-86250000D03*
D11*
G04 #@! TO.P,SW2,2*
G04 #@! TO.N,Net-(D2-Pad2)*
X108750000Y-88450000D03*
D10*
G04 #@! TO.P,SW2,1*
G04 #@! TO.N,col0*
X99050000Y-80010000D03*
G04 #@! TO.P,SW2,2*
G04 #@! TO.N,Net-(D2-Pad2)*
X111550000Y-77470000D03*
G04 #@! TD*
D12*
G04 #@! TO.P,U1,17*
G04 #@! TO.N,GND*
X69500000Y-89510000D03*
G04 #@! TO.P,U1,18*
G04 #@! TO.N,Net-(U1-Pad18)*
X72040000Y-89510000D03*
G04 #@! TO.P,U1,19*
G04 #@! TO.N,Net-(U1-Pad19)*
X74580000Y-89510000D03*
G04 #@! TO.P,U1,20*
G04 #@! TO.N,SCK*
X77120000Y-89510000D03*
G04 #@! TO.P,U1,16*
G04 #@! TO.N,/3.3V*
X66960000Y-89510000D03*
G04 #@! TO.P,U1,15*
G04 #@! TO.N,Net-(U1-Pad15)*
X64420000Y-89510000D03*
G04 #@! TO.P,U1,14*
G04 #@! TO.N,MISO*
X61880000Y-89510000D03*
G04 #@! TO.P,U1,21*
G04 #@! TO.N,Net-(U1-Pad21)*
X77120000Y-86970000D03*
G04 #@! TO.P,U1,22*
G04 #@! TO.N,Net-(U1-Pad22)*
X77120000Y-84430000D03*
G04 #@! TO.P,U1,23*
G04 #@! TO.N,Net-(U1-Pad23)*
X77120000Y-81890000D03*
G04 #@! TO.P,U1,24*
G04 #@! TO.N,Net-(U1-Pad24)*
X77120000Y-79350000D03*
G04 #@! TO.P,U1,25*
G04 #@! TO.N,/SDA*
X77120000Y-76810000D03*
G04 #@! TO.P,U1,26*
G04 #@! TO.N,/SCL*
X77120000Y-74270000D03*
G04 #@! TO.P,U1,27*
G04 #@! TO.N,Net-(U1-Pad27)*
X77120000Y-71730000D03*
G04 #@! TO.P,U1,28*
G04 #@! TO.N,Net-(U1-Pad28)*
X77120000Y-69190000D03*
G04 #@! TO.P,U1,29*
G04 #@! TO.N,Net-(U1-Pad29)*
X77120000Y-66650000D03*
G04 #@! TO.P,U1,30*
G04 #@! TO.N,Net-(U1-Pad30)*
X77120000Y-64110000D03*
G04 #@! TO.P,U1,31*
G04 #@! TO.N,Net-(U1-Pad31)*
X77120000Y-61570000D03*
G04 #@! TO.P,U1,32*
G04 #@! TO.N,GND*
X77120000Y-59030000D03*
G04 #@! TO.P,U1,33*
G04 #@! TO.N,Net-(U1-Pad33)*
X77120000Y-56490000D03*
G04 #@! TO.P,U1,34*
G04 #@! TO.N,Net-(U1-Pad34)*
X74580000Y-59030000D03*
G04 #@! TO.P,U1,35*
G04 #@! TO.N,Net-(U1-Pad35)*
X74580000Y-64110000D03*
G04 #@! TO.P,U1,36*
G04 #@! TO.N,Net-(U1-Pad36)*
X74580000Y-66650000D03*
G04 #@! TO.P,U1,37*
G04 #@! TO.N,Net-(U1-Pad37)*
X74580000Y-69190000D03*
G04 #@! TO.P,U1,13*
G04 #@! TO.N,MOSI*
X61880000Y-86970000D03*
G04 #@! TO.P,U1,12*
G04 #@! TO.N,CS*
X61880000Y-84430000D03*
G04 #@! TO.P,U1,11*
G04 #@! TO.N,/INT*
X61880000Y-81890000D03*
G04 #@! TO.P,U1,10*
G04 #@! TO.N,TX*
X61880000Y-79350000D03*
G04 #@! TO.P,U1,9*
G04 #@! TO.N,RX*
X61880000Y-76810000D03*
G04 #@! TO.P,U1,8*
G04 #@! TO.N,Net-(U1-Pad8)*
X61880000Y-74270000D03*
G04 #@! TO.P,U1,7*
G04 #@! TO.N,col1*
X61880000Y-71730000D03*
G04 #@! TO.P,U1,6*
G04 #@! TO.N,col0*
X61880000Y-69190000D03*
G04 #@! TO.P,U1,5*
G04 #@! TO.N,row0*
X61880000Y-66650000D03*
G04 #@! TO.P,U1,4*
G04 #@! TO.N,row1*
X61880000Y-64110000D03*
G04 #@! TO.P,U1,3*
G04 #@! TO.N,Net-(U1-Pad3)*
X61880000Y-61570000D03*
G04 #@! TO.P,U1,2*
G04 #@! TO.N,Net-(U1-Pad2)*
X61880000Y-59030000D03*
D13*
G04 #@! TO.P,U1,1*
G04 #@! TO.N,GND*
X61880000Y-56490000D03*
D12*
G04 #@! TO.P,U1,38*
G04 #@! TO.N,Net-(U1-Pad38)*
X69500000Y-71730000D03*
G04 #@! TO.P,U1,39*
G04 #@! TO.N,Net-(U1-Pad39)*
X69500000Y-74270000D03*
G04 #@! TO.P,U1,40*
G04 #@! TO.N,N/C*
X69500000Y-76810000D03*
G04 #@! TO.P,U1,41*
X69500000Y-79350000D03*
G04 #@! TO.P,U1,42*
X69500000Y-81890000D03*
G04 #@! TO.P,U1,43*
X69500000Y-84430000D03*
G04 #@! TO.P,U1,44*
X69500000Y-86970000D03*
G04 #@! TO.P,U1,45*
X72040000Y-86970000D03*
G04 #@! TO.P,U1,46*
X72040000Y-84430000D03*
G04 #@! TO.P,U1,47*
X72040000Y-81890000D03*
G04 #@! TO.P,U1,48*
X72040000Y-79350000D03*
G04 #@! TO.P,U1,49*
X72040000Y-76810000D03*
G04 #@! TO.P,U1,50*
X72040000Y-74270000D03*
G04 #@! TO.P,U1,51*
X72040000Y-71730000D03*
D14*
G04 #@! TO.P,U1,52*
X69500000Y-66650000D03*
X69500000Y-62840000D03*
G04 #@! TD*
D10*
G04 #@! TO.P,SW3,2*
G04 #@! TO.N,/col1row0*
X130600000Y-58420000D03*
G04 #@! TO.P,SW3,1*
G04 #@! TO.N,col1*
X118100000Y-60960000D03*
D11*
G04 #@! TO.P,SW3,2*
G04 #@! TO.N,/col1row0*
X127800000Y-69400000D03*
D10*
G04 #@! TO.P,SW3,1*
G04 #@! TO.N,col1*
X116900000Y-67200000D03*
G04 #@! TD*
D15*
G04 #@! TO.N,Net-(D1-Pad2)*
G04 #@! TO.C,D1*
X89425000Y-58645000D03*
D16*
G04 #@! TD*
G04 #@! TO.P,D1,2*
G04 #@! TO.N,Net-(D1-Pad2)*
X88325000Y-58645000D03*
G04 #@! TO.P,D1,1*
G04 #@! TO.N,row0*
X85525000Y-58645000D03*
D15*
G04 #@! TD*
G04 #@! TO.N,row0*
G04 #@! TO.C,D1*
X84425000Y-58645000D03*
D12*
G04 #@! TO.P,D1,2*
G04 #@! TO.N,Net-(D1-Pad2)*
X90825000Y-58645000D03*
D13*
G04 #@! TO.P,D1,1*
G04 #@! TO.N,row0*
X83025000Y-58645000D03*
G04 #@! TD*
D15*
G04 #@! TO.N,Net-(D2-Pad2)*
G04 #@! TO.C,D2*
X89425000Y-62455000D03*
D16*
G04 #@! TD*
G04 #@! TO.P,D2,2*
G04 #@! TO.N,Net-(D2-Pad2)*
X88325000Y-62455000D03*
G04 #@! TO.P,D2,1*
G04 #@! TO.N,row1*
X85525000Y-62455000D03*
D15*
G04 #@! TD*
G04 #@! TO.N,row1*
G04 #@! TO.C,D2*
X84425000Y-62455000D03*
D12*
G04 #@! TO.P,D2,2*
G04 #@! TO.N,Net-(D2-Pad2)*
X90825000Y-62455000D03*
D13*
G04 #@! TO.P,D2,1*
G04 #@! TO.N,row1*
X83025000Y-62455000D03*
G04 #@! TD*
G04 #@! TO.P,D3,1*
G04 #@! TO.N,row0*
X83025000Y-54835000D03*
D12*
G04 #@! TO.P,D3,2*
G04 #@! TO.N,/col1row0*
X90825000Y-54835000D03*
D15*
G04 #@! TD*
G04 #@! TO.N,row0*
G04 #@! TO.C,D3*
X84425000Y-54835000D03*
D16*
G04 #@! TO.P,D3,1*
G04 #@! TO.N,row0*
X85525000Y-54835000D03*
G04 #@! TO.P,D3,2*
G04 #@! TO.N,/col1row0*
X88325000Y-54835000D03*
D15*
G04 #@! TD*
G04 #@! TO.N,/col1row0*
G04 #@! TO.C,D3*
X89425000Y-54835000D03*
D13*
G04 #@! TO.P,D4,1*
G04 #@! TO.N,row1*
X83025000Y-66265000D03*
D12*
G04 #@! TO.P,D4,2*
G04 #@! TO.N,Net-(D4-Pad2)*
X90825000Y-66265000D03*
D15*
G04 #@! TD*
G04 #@! TO.N,row1*
G04 #@! TO.C,D4*
X84425000Y-66265000D03*
D16*
G04 #@! TO.P,D4,1*
G04 #@! TO.N,row1*
X85525000Y-66265000D03*
G04 #@! TO.P,D4,2*
G04 #@! TO.N,Net-(D4-Pad2)*
X88325000Y-66265000D03*
D15*
G04 #@! TD*
G04 #@! TO.N,Net-(D4-Pad2)*
G04 #@! TO.C,D4*
X89425000Y-66265000D03*
D17*
G04 #@! TO.P,J1,B*
G04 #@! TO.N,/SDA*
X73400000Y-101700000D03*
G04 #@! TO.P,J1,C*
G04 #@! TO.N,/SCL*
X73400000Y-98700000D03*
G04 #@! TO.P,J1,D*
G04 #@! TO.N,/3.3V*
X73400000Y-94700000D03*
G04 #@! TO.P,J1,A*
G04 #@! TO.N,GND*
X77600000Y-93200000D03*
G04 #@! TD*
G04 #@! TO.P,J2,A*
G04 #@! TO.N,Net-(J2-PadA)*
X65600000Y-93200000D03*
G04 #@! TO.P,J2,D*
G04 #@! TO.N,Net-(J2-PadD)*
X61400000Y-94700000D03*
G04 #@! TO.P,J2,C*
G04 #@! TO.N,/INT*
X61400000Y-98700000D03*
G04 #@! TO.P,J2,B*
G04 #@! TO.N,Net-(J2-PadB)*
X61400000Y-101700000D03*
G04 #@! TD*
D18*
G04 #@! TO.N,/SCL*
G04 #@! TO.C,R1*
X82385000Y-100515000D03*
D19*
G04 #@! TD*
G04 #@! TO.P,R1,2*
G04 #@! TO.N,/SCL*
X82385000Y-99365000D03*
G04 #@! TO.P,R1,1*
G04 #@! TO.N,/3.3V*
X82385000Y-96665000D03*
D18*
G04 #@! TD*
G04 #@! TO.N,/3.3V*
G04 #@! TO.C,R1*
X82385000Y-95515000D03*
D12*
G04 #@! TO.P,R1,2*
G04 #@! TO.N,/SCL*
X82385000Y-101915000D03*
G04 #@! TO.P,R1,1*
G04 #@! TO.N,/3.3V*
X82385000Y-94115000D03*
G04 #@! TD*
G04 #@! TO.P,R2,1*
G04 #@! TO.N,/3.3V*
X69500000Y-94100000D03*
G04 #@! TO.P,R2,2*
G04 #@! TO.N,/SDA*
X69500000Y-101900000D03*
D18*
G04 #@! TD*
G04 #@! TO.N,/3.3V*
G04 #@! TO.C,R2*
X69500000Y-95500000D03*
D19*
G04 #@! TO.P,R2,1*
G04 #@! TO.N,/3.3V*
X69500000Y-96650000D03*
G04 #@! TO.P,R2,2*
G04 #@! TO.N,/SDA*
X69500000Y-99350000D03*
D18*
G04 #@! TD*
G04 #@! TO.N,/SDA*
G04 #@! TO.C,R2*
X69500000Y-100500000D03*
D20*
G04 #@! TO.P,J3,1*
G04 #@! TO.N,/3.3V*
X56810000Y-94840000D03*
D21*
G04 #@! TO.P,J3,2*
G04 #@! TO.N,SCK*
X56810000Y-92300000D03*
G04 #@! TO.P,J3,3*
G04 #@! TO.N,MISO*
X56810000Y-89760000D03*
G04 #@! TO.P,J3,4*
G04 #@! TO.N,MOSI*
X56810000Y-87220000D03*
G04 #@! TO.P,J3,5*
G04 #@! TO.N,CS*
X56810000Y-84680000D03*
G04 #@! TO.P,J3,6*
G04 #@! TO.N,TX*
X56810000Y-82140000D03*
G04 #@! TO.P,J3,7*
G04 #@! TO.N,RX*
X56810000Y-79600000D03*
G04 #@! TO.P,J3,8*
G04 #@! TO.N,GND*
X56810000Y-77060000D03*
G04 #@! TD*
D22*
G04 #@! TO.N,Net-(D1-Pad2)*
X105999994Y-72500000D03*
X114770000Y-62454998D03*
G04 #@! TO.N,Net-(D2-Pad2)*
X105880000Y-90939990D03*
X114770000Y-81505000D03*
G04 #@! TO.N,Net-(D4-Pad2)*
X133879990Y-81500000D03*
X117945000Y-91664996D03*
G04 #@! TO.N,GND*
X105975000Y-78965000D03*
X105975000Y-59915000D03*
X125025000Y-59915000D03*
X125025000Y-78965000D03*
X113595000Y-73250000D03*
X109150000Y-64995000D03*
X115500000Y-69440000D03*
X58985000Y-82140000D03*
X58985000Y-88490000D03*
X58985000Y-90395000D03*
X65335000Y-99285000D03*
X58985000Y-85949998D03*
X63430000Y-92300000D03*
X100165000Y-71345000D03*
X132550000Y-64360000D03*
X58255000Y-66900000D03*
X93815000Y-59915000D03*
X113500000Y-64995000D03*
X132550000Y-84045000D03*
X113500000Y-83410000D03*
X103975000Y-85315000D03*
X98260000Y-64995000D03*
G04 #@! TO.N,col0*
X97085000Y-57375034D03*
X97085018Y-76425000D03*
G04 #@! TO.N,col1*
X116135000Y-57375000D03*
X116135000Y-76425000D03*
G04 #@! TO.N,Net-(U1-Pad23)*
X95720000Y-100555000D03*
G04 #@! TO.N,Net-(U1-Pad29)*
X97625000Y-97380000D03*
G04 #@! TO.N,Net-(U1-Pad30)*
X117945000Y-97380000D03*
G04 #@! TO.N,/col1row0*
X134000000Y-62500042D03*
X125000012Y-72500000D03*
G04 #@! TD*
D23*
G04 #@! TO.N,Net-(D1-Pad2)*
X107360000Y-72500000D02*
X105999994Y-72500000D01*
X108750000Y-69400000D02*
X108750000Y-71110000D01*
X108750000Y-71110000D02*
X107360000Y-72500000D01*
X108750000Y-69400000D02*
X113635000Y-69400000D01*
X114770000Y-68265000D02*
X114770000Y-63020683D01*
X114770000Y-63020683D02*
X114770000Y-62454998D01*
X113635000Y-69400000D02*
X114770000Y-68265000D01*
X114770000Y-59915000D02*
X114770000Y-62454998D01*
X111550000Y-58420000D02*
X113275000Y-58420000D01*
X113275000Y-58420000D02*
X114770000Y-59915000D01*
G04 #@! TO.N,row0*
X79435000Y-52930000D02*
X80575000Y-52930000D01*
X80685000Y-52930000D02*
X78035000Y-52930000D01*
X83225000Y-55470000D02*
X80685000Y-52930000D01*
X84425000Y-54835000D02*
X83225000Y-54835000D01*
X78035000Y-52930000D02*
X79435000Y-52930000D01*
X60160000Y-52930000D02*
X78035000Y-52930000D01*
X58350000Y-54740000D02*
X60160000Y-52930000D01*
X61880000Y-66650000D02*
X58350000Y-63120000D01*
X58350000Y-63120000D02*
X58350000Y-54740000D01*
G04 #@! TO.N,Net-(D2-Pad2)*
X109000000Y-88500000D02*
X108999990Y-88500000D01*
X107240010Y-90939990D02*
X105880000Y-90939990D01*
X108750000Y-88450000D02*
X108750000Y-89430000D01*
X108750000Y-89430000D02*
X107240010Y-90939990D01*
X114770000Y-87315000D02*
X114770000Y-82070685D01*
X108750000Y-88450000D02*
X113635000Y-88450000D01*
X114770000Y-82070685D02*
X114770000Y-81505000D01*
X113635000Y-88450000D02*
X114770000Y-87315000D01*
X114770000Y-79600000D02*
X114770000Y-81505000D01*
X111550000Y-77470000D02*
X112640000Y-77470000D01*
X112640000Y-77470000D02*
X114770000Y-79600000D01*
G04 #@! TO.N,row1*
X83025000Y-63505000D02*
X83025000Y-66265000D01*
X83025000Y-62455000D02*
X83025000Y-63505000D01*
G04 #@! TO.N,Net-(D4-Pad2)*
X133879990Y-78929990D02*
X133879990Y-81500000D01*
X130600000Y-77470000D02*
X132420000Y-77470000D01*
X132420000Y-77470000D02*
X133879990Y-78929990D01*
X133879990Y-82065685D02*
X133879990Y-81500000D01*
X133879990Y-87255010D02*
X133879990Y-82065685D01*
X127800000Y-88450000D02*
X132685000Y-88450000D01*
X132685000Y-88450000D02*
X133879990Y-87255010D01*
X118510685Y-91664996D02*
X117945000Y-91664996D01*
X127800000Y-88450000D02*
X127800000Y-88500000D01*
X124635004Y-91664996D02*
X118510685Y-91664996D01*
X127800000Y-88500000D02*
X124635004Y-91664996D01*
G04 #@! TO.N,/SDA*
X73400000Y-101700000D02*
X73400000Y-101300000D01*
X69500000Y-101900000D02*
X73200000Y-101900000D01*
G04 #@! TO.N,/SCL*
X73400000Y-98700000D02*
X80900000Y-98700000D01*
X81720000Y-98700000D02*
X82385000Y-99365000D01*
X73400000Y-98700000D02*
X81720000Y-98700000D01*
D24*
G04 #@! TO.N,/3.3V*
X72800000Y-94100000D02*
X73400000Y-94700000D01*
X66960000Y-91560000D02*
X69500000Y-94100000D01*
X66960000Y-89510000D02*
X66960000Y-91560000D01*
X81035000Y-96665000D02*
X82385000Y-96665000D01*
X79845000Y-95475000D02*
X81035000Y-96665000D01*
X76670000Y-95475000D02*
X79845000Y-95475000D01*
X73400000Y-94700000D02*
X75895000Y-94700000D01*
X75895000Y-94700000D02*
X76670000Y-95475000D01*
D23*
G04 #@! TO.N,GND*
X138265000Y-103730000D02*
X126200000Y-91665000D01*
X120485000Y-97380000D02*
X127470000Y-104365000D01*
X127470000Y-104365000D02*
X140170000Y-91665000D01*
X140170000Y-91665000D02*
X140170000Y-92935000D01*
X140170000Y-92935000D02*
X128740000Y-104365000D01*
X128740000Y-104365000D02*
X117310000Y-92935000D01*
X117310000Y-92935000D02*
X116675000Y-93570000D01*
X130010000Y-104365000D02*
X140170000Y-94205000D01*
X140170000Y-94205000D02*
X138265000Y-92300000D01*
X138265000Y-92300000D02*
X137630000Y-91665000D01*
X137630000Y-91665000D02*
X124930000Y-104365000D01*
X124930000Y-104365000D02*
X119215000Y-98650000D01*
X119215000Y-98650000D02*
X113500000Y-104365000D01*
X113500000Y-104365000D02*
X104610000Y-95475000D01*
X104610000Y-95475000D02*
X98895000Y-101190000D01*
X98895000Y-101190000D02*
X95720000Y-104365000D01*
X95720000Y-104365000D02*
X89370000Y-98015000D01*
X89370000Y-98015000D02*
X90005000Y-97380000D01*
X89370000Y-99285000D02*
X94450000Y-104365000D01*
X103340000Y-95475000D02*
X112230000Y-104365000D01*
X112230000Y-104365000D02*
X117945000Y-98650000D01*
X117945000Y-98650000D02*
X123660000Y-104365000D01*
X123660000Y-104365000D02*
X136995000Y-91030000D01*
X136995000Y-91030000D02*
X137630000Y-91665000D01*
X140170000Y-95475000D02*
X131280000Y-104365000D01*
X131280000Y-104365000D02*
X119850000Y-92935000D01*
X121120000Y-92935000D02*
X132550000Y-104365000D01*
X132550000Y-104365000D02*
X140170000Y-96745000D01*
X140170000Y-96745000D02*
X134455000Y-91030000D01*
X134455000Y-91030000D02*
X121120000Y-104365000D01*
X121120000Y-104365000D02*
X112230000Y-95475000D01*
X96990000Y-104365000D02*
X105880000Y-95475000D01*
X98260000Y-104365000D02*
X107150000Y-95475000D01*
X100800000Y-104365000D02*
X109690000Y-95475000D01*
X110960000Y-95475000D02*
X102070000Y-104365000D01*
X102070000Y-104365000D02*
X103340000Y-104365000D01*
X103340000Y-104365000D02*
X112230000Y-95475000D01*
X122390000Y-104365000D02*
X135725000Y-91030000D01*
X135725000Y-91030000D02*
X140170000Y-95475000D01*
X140170000Y-95475000D02*
X140170000Y-98015000D01*
X140170000Y-99285000D02*
X140170000Y-100555000D01*
X140170000Y-100555000D02*
X136360000Y-104365000D01*
X136360000Y-104365000D02*
X124930000Y-92935000D01*
X137591721Y-104307054D02*
X137581887Y-104316888D01*
X137602978Y-104307054D02*
X137591721Y-104307054D01*
X137762187Y-104232813D02*
X137602978Y-104307054D01*
X138265000Y-103730000D02*
X137762187Y-104232813D01*
X130010000Y-91665000D02*
X140170000Y-101825000D01*
X140170000Y-100555000D02*
X140170000Y-101825000D01*
X140170000Y-101825000D02*
X138265000Y-103730000D01*
X137572765Y-104321142D02*
X137409081Y-104365000D01*
X137762187Y-104232813D02*
X137572765Y-104321142D01*
X137572763Y-104321143D02*
X137581886Y-104316888D01*
X137409081Y-104365000D02*
X137572763Y-104321143D01*
X136360000Y-104365000D02*
X137409081Y-104365000D01*
X126200000Y-92935000D02*
X137581886Y-104316888D01*
X137581886Y-104316888D02*
X137581887Y-104316888D01*
X140170000Y-98015000D02*
X140170000Y-99285000D01*
X131915000Y-91030000D02*
X140170000Y-99285000D01*
X133185000Y-91030000D02*
X140170000Y-98015000D01*
X140170000Y-91665000D02*
X140170000Y-95475000D01*
X119215000Y-98650000D02*
X120485000Y-97380000D01*
X102070000Y-95475000D02*
X110960000Y-104365000D01*
X110960000Y-104365000D02*
X116675000Y-98650000D01*
X116675000Y-98650000D02*
X122390000Y-104365000D01*
X109690000Y-104365000D02*
X116040000Y-98015000D01*
X113500000Y-95475000D02*
X116040000Y-98015000D01*
X116040000Y-98015000D02*
X116675000Y-98650000D01*
X108420000Y-104365000D02*
X115405000Y-97380000D01*
X116675000Y-98650000D02*
X117310000Y-98015000D01*
X117310000Y-98015000D02*
X117945000Y-98650000D01*
X116040000Y-98015000D02*
X116675000Y-97380000D01*
X115405000Y-97380000D02*
X116040000Y-96745000D01*
X114770000Y-95475000D02*
X115405000Y-96110000D01*
X115405000Y-96110000D02*
X117310000Y-98015000D01*
X105880000Y-104365000D02*
X114770000Y-95475000D01*
X104610000Y-104365000D02*
X113500000Y-95475000D01*
X133820000Y-104365000D02*
X122390000Y-92935000D01*
X123660000Y-92935000D02*
X135090000Y-104365000D01*
X135090000Y-104365000D02*
X140170000Y-99285000D01*
X140170000Y-98015000D02*
X133820000Y-104365000D01*
X119215000Y-93570000D02*
X130010000Y-104365000D01*
X119215000Y-93570000D02*
X117945000Y-94840000D01*
X119850000Y-92935000D02*
X119215000Y-93570000D01*
X119850000Y-104365000D02*
X133185000Y-91030000D01*
X118580000Y-104365000D02*
X131915000Y-91030000D01*
X116040000Y-104365000D02*
X129375000Y-91030000D01*
X114770000Y-104365000D02*
X127470000Y-91665000D01*
X127470000Y-91665000D02*
X128740000Y-90395000D01*
X138265000Y-91030000D02*
X137630000Y-91665000D01*
X110960000Y-95475000D02*
X119850000Y-104365000D01*
X109690000Y-95475000D02*
X118580000Y-104365000D01*
X107150000Y-95475000D02*
X116040000Y-104365000D01*
X105880000Y-95475000D02*
X114770000Y-104365000D01*
X109690000Y-104365000D02*
X100800000Y-95475000D01*
X99530000Y-95475000D02*
X108420000Y-104365000D01*
X99530000Y-99285000D02*
X104610000Y-104365000D01*
X99530000Y-99285000D02*
X103340000Y-95475000D01*
X98895000Y-99920000D02*
X103340000Y-104365000D01*
X98895000Y-99920000D02*
X99530000Y-99285000D01*
X98260000Y-100555000D02*
X102070000Y-104365000D01*
X98260000Y-100555000D02*
X98895000Y-99920000D01*
X97625000Y-101190000D02*
X100800000Y-104365000D01*
X97625000Y-101190000D02*
X98260000Y-100555000D01*
X99530000Y-104365000D02*
X96990000Y-101825000D01*
X140170000Y-100555000D02*
X130645000Y-91030000D01*
X130645000Y-91030000D02*
X117310000Y-104365000D01*
X96990000Y-101825000D02*
X97625000Y-101190000D01*
X117310000Y-104365000D02*
X108420000Y-95475000D01*
X108420000Y-95475000D02*
X99530000Y-104365000D01*
X96355000Y-102460000D02*
X98260000Y-104365000D01*
X96355000Y-102460000D02*
X96990000Y-101825000D01*
X94450000Y-104365000D02*
X96355000Y-102460000D01*
X98260000Y-96745000D02*
X99530000Y-95475000D01*
X100800000Y-95475000D02*
X98895000Y-97380000D01*
X98260000Y-96745000D02*
X98895000Y-97380000D01*
X99530000Y-98015000D02*
X102070000Y-95475000D01*
X99530000Y-98015000D02*
X105880000Y-104365000D01*
X98895000Y-97380000D02*
X99530000Y-98015000D01*
X91910000Y-104365000D02*
X94450000Y-101825000D01*
X90640000Y-104365000D02*
X93815000Y-101190000D01*
X89370000Y-103095000D02*
X92545000Y-99920000D01*
X89370000Y-104365000D02*
X93180000Y-100555000D01*
X96990000Y-104365000D02*
X93180000Y-100555000D01*
X93180000Y-100555000D02*
X92545000Y-99920000D01*
X89370000Y-101825000D02*
X91910000Y-99285000D01*
X89370000Y-99285000D02*
X90640000Y-98015000D01*
X90640000Y-98015000D02*
X90005000Y-97380000D01*
X90005000Y-97380000D02*
X92545000Y-99920000D01*
X89370000Y-101825000D02*
X91910000Y-104365000D01*
X89370000Y-103095000D02*
X90640000Y-104365000D01*
X89370000Y-104365000D02*
X135725000Y-104365000D01*
X136360000Y-104365000D02*
X135725000Y-104365000D01*
X119850000Y-96745000D02*
X120485000Y-97380000D01*
X121120000Y-92935000D02*
X118580000Y-95475000D01*
X119215000Y-96110000D02*
X122390000Y-92935000D01*
X119215000Y-96110000D02*
X119850000Y-96745000D01*
X118580000Y-95475000D02*
X119215000Y-96110000D01*
X117310000Y-94205000D02*
X118580000Y-95475000D01*
X116675000Y-93570000D02*
X117310000Y-94205000D01*
X118580000Y-92935000D02*
X119215000Y-93570000D01*
X125565000Y-92300000D02*
X126200000Y-92935000D01*
X125565000Y-92300000D02*
X120485000Y-97380000D01*
X126200000Y-91665000D02*
X125565000Y-92300000D01*
X138900000Y-103095000D02*
X127470000Y-91665000D01*
X126200000Y-91665000D02*
X127470000Y-90395000D01*
X139535000Y-102460000D02*
X138900000Y-103095000D01*
X127470000Y-90395000D02*
X139535000Y-102460000D01*
X127470000Y-91665000D02*
X126835000Y-91030000D01*
X128740000Y-90395000D02*
X130010000Y-91665000D01*
X129375000Y-91030000D02*
X130645000Y-89760000D01*
X130645000Y-89760000D02*
X131915000Y-91030000D01*
X130645000Y-91030000D02*
X131915000Y-89760000D01*
X131915000Y-89760000D02*
X133185000Y-91030000D01*
X135090000Y-89125000D02*
X137630000Y-91665000D01*
X134455000Y-91030000D02*
X136360000Y-89125000D01*
X136360000Y-89125000D02*
X140170000Y-92935000D01*
X128740000Y-90395000D02*
X129375000Y-89760000D01*
X129375000Y-89760000D02*
X130645000Y-91030000D01*
X131915000Y-91030000D02*
X133185000Y-89760000D01*
X133185000Y-89760000D02*
X134455000Y-91030000D01*
X135725000Y-91030000D02*
X134455000Y-89760000D01*
X133185000Y-91030000D02*
X134455000Y-89760000D01*
X134455000Y-89760000D02*
X135090000Y-89125000D01*
X135725000Y-91030000D02*
X137630000Y-89125000D01*
X137630000Y-89125000D02*
X140170000Y-91665000D01*
X140170000Y-91665000D02*
X140170000Y-90395000D01*
X140170000Y-90395000D02*
X140170000Y-89125000D01*
X140170000Y-89125000D02*
X137630000Y-91665000D01*
X138900000Y-89125000D02*
X136995000Y-91030000D01*
X138900000Y-89125000D02*
X140170000Y-90395000D01*
X117310000Y-92935000D02*
X116675000Y-92300000D01*
X116675000Y-92300000D02*
X116040000Y-92935000D01*
X116040000Y-92935000D02*
X116675000Y-93570000D01*
X116675000Y-93570000D02*
X115405000Y-92300000D01*
X115405000Y-92300000D02*
X114770000Y-92935000D01*
X114770000Y-92935000D02*
X114135000Y-92300000D01*
X114135000Y-92300000D02*
X113500000Y-92935000D01*
X113500000Y-92935000D02*
X112865000Y-92300000D01*
X112865000Y-92300000D02*
X112230000Y-92935000D01*
X112230000Y-92935000D02*
X111595000Y-92300000D01*
X111595000Y-92300000D02*
X110960000Y-92935000D01*
X109055000Y-91030000D02*
X109690000Y-90395000D01*
X114135000Y-89760000D02*
X116675000Y-92300000D01*
X112865000Y-91030000D02*
X114135000Y-92300000D01*
X112865000Y-91030000D02*
X114135000Y-89760000D01*
X112230000Y-91665000D02*
X112865000Y-92300000D01*
X112230000Y-91665000D02*
X112865000Y-91030000D01*
X111595000Y-92300000D02*
X112230000Y-91665000D01*
X110960000Y-91665000D02*
X109690000Y-92935000D01*
X110960000Y-91665000D02*
X111595000Y-92300000D01*
X109690000Y-92935000D02*
X108420000Y-91665000D01*
X108420000Y-91665000D02*
X107150000Y-92935000D01*
X107150000Y-92935000D02*
X106515000Y-92300000D01*
X106515000Y-92300000D02*
X105880000Y-92935000D01*
X105880000Y-92935000D02*
X105245000Y-92300000D01*
X105245000Y-92300000D02*
X104610000Y-91665000D01*
X104610000Y-91665000D02*
X102705000Y-89760000D01*
X102705000Y-89760000D02*
X99530000Y-92935000D01*
X99530000Y-92935000D02*
X96355000Y-89760000D01*
X109055000Y-91030000D02*
X108420000Y-91665000D01*
X109690000Y-91665000D02*
X108420000Y-92935000D01*
X109690000Y-91665000D02*
X109055000Y-91030000D01*
X110960000Y-92935000D02*
X109690000Y-91665000D01*
X108420000Y-92935000D02*
X107150000Y-91665000D01*
X107150000Y-91665000D02*
X106515000Y-92300000D01*
X109690000Y-91665000D02*
X111595000Y-89760000D01*
X111595000Y-89760000D02*
X112865000Y-91030000D01*
X110960000Y-91665000D02*
X112865000Y-89760000D01*
X112865000Y-89760000D02*
X115405000Y-92300000D01*
X112865000Y-92300000D02*
X115405000Y-89760000D01*
X115405000Y-89760000D02*
X116675000Y-91030000D01*
X116675000Y-89760000D02*
X117310000Y-90395000D01*
X114135000Y-92300000D02*
X116675000Y-89760000D01*
X115405000Y-92300000D02*
X117310000Y-90395000D01*
X110960000Y-91665000D02*
X109690000Y-90395000D01*
X112230000Y-91665000D02*
X110325000Y-89760000D01*
X110325000Y-89760000D02*
X109690000Y-90395000D01*
X106515000Y-92300000D02*
X105880000Y-91665000D01*
X105880000Y-91665000D02*
X104610000Y-92935000D01*
X104610000Y-92935000D02*
X101435000Y-89760000D01*
X101435000Y-89760000D02*
X98260000Y-92935000D01*
X95720000Y-90395000D02*
X94450000Y-89125000D01*
X97625000Y-92300000D02*
X100165000Y-89760000D01*
X98260000Y-92935000D02*
X97625000Y-92300000D01*
X96990000Y-91665000D02*
X99530000Y-89125000D01*
X97625000Y-92300000D02*
X96990000Y-91665000D01*
X96355000Y-91030000D02*
X97625000Y-89760000D01*
X96355000Y-91030000D02*
X95720000Y-90395000D01*
X96990000Y-91665000D02*
X96355000Y-91030000D01*
X95720000Y-90395000D02*
X96990000Y-89125000D01*
X97625000Y-89760000D02*
X100800000Y-92935000D01*
X100800000Y-92935000D02*
X103975000Y-89760000D01*
X103975000Y-89760000D02*
X104610000Y-90395000D01*
X104610000Y-90395000D02*
X102070000Y-92935000D01*
X102070000Y-92935000D02*
X98895000Y-89760000D01*
X100165000Y-89760000D02*
X103340000Y-92935000D01*
X103340000Y-92935000D02*
X104610000Y-91665000D01*
X118580000Y-92935000D02*
X119215000Y-92300000D01*
X119215000Y-92300000D02*
X119850000Y-92935000D01*
X119850000Y-92935000D02*
X120485000Y-92300000D01*
X120485000Y-92300000D02*
X121120000Y-92935000D01*
X121120000Y-92935000D02*
X121755000Y-92300000D01*
X121755000Y-92300000D02*
X122390000Y-92935000D01*
X122390000Y-92935000D02*
X123025000Y-92300000D01*
X123025000Y-92300000D02*
X123660000Y-92935000D01*
X123660000Y-92935000D02*
X124295000Y-92300000D01*
X124295000Y-92300000D02*
X124930000Y-92935000D01*
X122390000Y-90395000D02*
X123025000Y-89760000D01*
X121755000Y-91030000D02*
X122390000Y-90395000D01*
X121120000Y-90395000D02*
X121755000Y-89760000D01*
X121120000Y-90395000D02*
X121755000Y-91030000D01*
X121755000Y-89760000D02*
X122390000Y-90395000D01*
X120485000Y-91030000D02*
X121120000Y-90395000D01*
X122390000Y-90395000D02*
X123025000Y-91030000D01*
X123025000Y-91030000D02*
X123660000Y-90395000D01*
X123660000Y-90395000D02*
X123025000Y-89760000D01*
X90640000Y-98015000D02*
X91275000Y-97380000D01*
X93180000Y-104365000D02*
X95085000Y-102460000D01*
X89370000Y-100555000D02*
X93180000Y-104365000D01*
X91910000Y-98015000D02*
X89370000Y-100555000D01*
X91275000Y-97380000D02*
X90956795Y-97061795D01*
X90956795Y-97061795D02*
X91910000Y-98015000D01*
X90640000Y-96745000D02*
X90005000Y-97380000D01*
X90956795Y-97061795D02*
X90640000Y-96745000D01*
X90640000Y-96745000D02*
X90005000Y-96110000D01*
X97625000Y-101190000D02*
X96355000Y-99920000D01*
X95720000Y-99285000D02*
X96355000Y-98650000D01*
X96355000Y-98650000D02*
X98260000Y-100555000D01*
X96355000Y-99920000D02*
X95720000Y-99285000D01*
X90005000Y-92300000D02*
X90005000Y-93570000D01*
X90005000Y-93570000D02*
X90640000Y-92935000D01*
X90640000Y-94205000D02*
X91275000Y-93570000D01*
X90640000Y-94205000D02*
X90005000Y-93570000D01*
X91275000Y-94840000D02*
X91910000Y-94205000D01*
X91275000Y-94840000D02*
X90640000Y-94205000D01*
X91910000Y-95475000D02*
X92545000Y-94840000D01*
X91910000Y-95475000D02*
X91275000Y-94840000D01*
X92545000Y-96110000D02*
X93180000Y-95475000D01*
X92545000Y-96110000D02*
X91910000Y-95475000D01*
X93180000Y-96745000D02*
X93815000Y-96110000D01*
X93180000Y-96745000D02*
X92545000Y-96110000D01*
X93815000Y-97380000D02*
X94450000Y-96745000D01*
X94450000Y-96745000D02*
X90005000Y-92300000D01*
X96355000Y-98650000D02*
X94450000Y-96745000D01*
X93815000Y-97380000D02*
X93180000Y-96745000D01*
X94450000Y-98015000D02*
X95085000Y-97380000D01*
X94450000Y-98015000D02*
X93815000Y-97380000D01*
X95085000Y-98650000D02*
X95720000Y-98015000D01*
X95085000Y-98650000D02*
X94450000Y-98015000D01*
X95720000Y-99285000D02*
X95085000Y-98650000D01*
X97625000Y-96110000D02*
X98260000Y-96745000D01*
X91910000Y-89125000D02*
X91275000Y-89760000D01*
X115405000Y-96110000D02*
X107150000Y-104365000D01*
X91910000Y-90395000D02*
X92545000Y-89760000D01*
X91275000Y-89760000D02*
X91910000Y-90395000D01*
X92545000Y-91030000D02*
X93180000Y-90395000D01*
X91910000Y-90395000D02*
X92545000Y-91030000D01*
X93180000Y-91665000D02*
X93815000Y-91030000D01*
X92545000Y-91030000D02*
X93180000Y-91665000D01*
X93815000Y-92300000D02*
X94450000Y-91665000D01*
X93180000Y-91665000D02*
X93815000Y-92300000D01*
X94450000Y-92935000D02*
X95085000Y-92300000D01*
X93815000Y-92300000D02*
X94450000Y-92935000D01*
X95085000Y-93570000D02*
X95720000Y-92935000D01*
X95720000Y-92935000D02*
X91910000Y-89125000D01*
X94450000Y-92935000D02*
X95085000Y-93570000D01*
X95720000Y-94205000D02*
X96355000Y-93570000D01*
X96355000Y-93570000D02*
X95720000Y-92935000D01*
X95085000Y-93570000D02*
X95720000Y-94205000D01*
X96355000Y-94840000D02*
X96990000Y-94205000D01*
X96990000Y-94205000D02*
X96355000Y-93570000D01*
X95720000Y-94205000D02*
X96355000Y-94840000D01*
X96990000Y-95475000D02*
X97625000Y-94840000D01*
X97625000Y-94840000D02*
X96990000Y-94205000D01*
X107150000Y-104365000D02*
X97625000Y-94840000D01*
X96990000Y-95475000D02*
X97625000Y-96110000D01*
X96355000Y-94840000D02*
X96990000Y-95475000D01*
X98895000Y-99920000D02*
X96899999Y-97924999D01*
X90005000Y-92300000D02*
X90640000Y-91665000D01*
X90640000Y-92935000D02*
X91275000Y-92300000D01*
X91275000Y-93570000D02*
X91910000Y-92935000D01*
X91910000Y-94205000D02*
X92545000Y-93570000D01*
X92545000Y-94840000D02*
X93180000Y-94205000D01*
X93180000Y-95475000D02*
X93815000Y-94840000D01*
X96899999Y-97924999D02*
X93815000Y-94840000D01*
X93815000Y-94840000D02*
X89370000Y-90395000D01*
X93815000Y-96110000D02*
X94450000Y-95475000D01*
X94450000Y-96745000D02*
X95085000Y-96110000D01*
X95085000Y-97380000D02*
X95720000Y-96745000D01*
X95720000Y-98015000D02*
X96355000Y-97380000D01*
X96355000Y-98650000D02*
X96990000Y-98015000D01*
X98895000Y-94840000D02*
X99530000Y-95475000D01*
X97625000Y-96110000D02*
X98895000Y-94840000D01*
X99530000Y-95475000D02*
X100165000Y-94840000D01*
X100165000Y-94840000D02*
X100800000Y-95475000D01*
X100800000Y-95475000D02*
X101435000Y-94840000D01*
X101435000Y-94840000D02*
X102070000Y-95475000D01*
X102070000Y-95475000D02*
X102705000Y-94840000D01*
X102705000Y-94840000D02*
X103340000Y-95475000D01*
X103340000Y-95475000D02*
X103975000Y-94840000D01*
X103975000Y-94840000D02*
X104610000Y-95475000D01*
X104610000Y-95475000D02*
X105245000Y-94840000D01*
X105245000Y-94840000D02*
X105880000Y-95475000D01*
X105880000Y-95475000D02*
X106515000Y-94840000D01*
X106515000Y-94840000D02*
X107150000Y-95475000D01*
X107150000Y-95475000D02*
X107785000Y-94840000D01*
X107785000Y-94840000D02*
X108420000Y-95475000D01*
X108420000Y-95475000D02*
X109055000Y-94840000D01*
X109055000Y-94840000D02*
X109690000Y-95475000D01*
X109690000Y-95475000D02*
X110325000Y-94840000D01*
X110325000Y-94840000D02*
X110960000Y-95475000D01*
X110960000Y-95475000D02*
X111595000Y-94840000D01*
X111595000Y-94840000D02*
X112230000Y-95475000D01*
X112230000Y-95475000D02*
X112865000Y-94840000D01*
X112865000Y-94840000D02*
X113500000Y-95475000D01*
X113500000Y-95475000D02*
X114135000Y-94840000D01*
X114135000Y-94840000D02*
X114770000Y-95475000D01*
X139535000Y-91030000D02*
X140170000Y-90395000D01*
X126200000Y-104365000D02*
X139535000Y-91030000D01*
X118670001Y-97924999D02*
X120485000Y-96110000D01*
X119850000Y-96745000D02*
X120485000Y-96110000D01*
X120485000Y-96110000D02*
X123660000Y-92935000D01*
X98350001Y-97924999D02*
X98895000Y-97380000D01*
X115405000Y-93570000D02*
X116040000Y-92935000D01*
X114770000Y-92935000D02*
X115405000Y-93570000D01*
X116040000Y-94205000D02*
X116675000Y-93570000D01*
X115405000Y-93570000D02*
X116040000Y-94205000D01*
X116675000Y-94840000D02*
X117945000Y-93570000D01*
X117945000Y-93570000D02*
X118580000Y-92935000D01*
X117310000Y-94205000D02*
X117945000Y-93570000D01*
X116040000Y-94205000D02*
X116675000Y-94840000D01*
X117310000Y-95475000D02*
X117945000Y-94840000D01*
X116675000Y-94840000D02*
X117310000Y-95475000D01*
X117945000Y-96110000D02*
X118580000Y-95475000D01*
X117310000Y-95475000D02*
X117945000Y-96110000D01*
X118580000Y-96745000D02*
X119215000Y-96110000D01*
X118580000Y-96745000D02*
X126200000Y-104365000D01*
X117945000Y-96110000D02*
X118580000Y-96745000D01*
X118580000Y-98015000D02*
X119215000Y-98650000D01*
X118580000Y-98015000D02*
X118670001Y-97924999D01*
X117945000Y-98650000D02*
X118580000Y-98015000D01*
X99530000Y-99285000D02*
X98260000Y-98015000D01*
X96355000Y-99920000D02*
X98260000Y-98015000D01*
X98260000Y-98015000D02*
X98350001Y-97924999D01*
X96990000Y-101825000D02*
X96355000Y-101190000D01*
X95085000Y-102460000D02*
X96355000Y-101190000D01*
X96355000Y-101190000D02*
X99530000Y-98015000D01*
X94450000Y-101825000D02*
X95085000Y-101190000D01*
X93815000Y-101190000D02*
X94450000Y-100555000D01*
X94450000Y-100555000D02*
X96355000Y-102460000D01*
X93180000Y-100555000D02*
X93815000Y-99920000D01*
X92545000Y-99920000D02*
X93180000Y-99285000D01*
X91275000Y-97380000D02*
X93180000Y-99285000D01*
X93180000Y-99285000D02*
X94450000Y-100555000D01*
X91910000Y-99285000D02*
X92545000Y-98650000D01*
X119850000Y-90395000D02*
X120485000Y-89760000D01*
X119850000Y-90395000D02*
X120485000Y-91030000D01*
X119215000Y-91030000D02*
X119850000Y-90395000D01*
X108419991Y-91664991D02*
X108420000Y-91665000D01*
X104610000Y-91665000D02*
X104610009Y-91664991D01*
X118580000Y-90395000D02*
X119215000Y-91030000D01*
X118580000Y-90395000D02*
X119215000Y-89760000D01*
X118580000Y-90395000D02*
X117945000Y-89760000D01*
X117310000Y-90395000D02*
X117945000Y-89760000D01*
X119850000Y-90395000D02*
X119215000Y-89760000D01*
X128740000Y-90395000D02*
X128709998Y-90395000D01*
X127470000Y-90395000D02*
X128740000Y-90395000D01*
X119125003Y-92389997D02*
X119215000Y-92300000D01*
X116675000Y-92300000D02*
X116764997Y-92389997D01*
X117310000Y-92935000D02*
X117855003Y-92389997D01*
X117855003Y-92389997D02*
X118034997Y-92389997D01*
X118580000Y-92935000D02*
X118034997Y-92389997D01*
X117310000Y-90395000D02*
X117854995Y-90939995D01*
X118580000Y-90395000D02*
X118035005Y-90939995D01*
X116675000Y-91030000D02*
X116765005Y-90939995D01*
X98260000Y-92935000D02*
X98895000Y-93570000D01*
X98895000Y-93570000D02*
X99530000Y-92935000D01*
X99530000Y-92935000D02*
X100165000Y-93570000D01*
X100165000Y-93570000D02*
X100800000Y-92935000D01*
X100800000Y-92935000D02*
X101435000Y-93570000D01*
X101435000Y-93570000D02*
X102070000Y-92935000D01*
X102070000Y-92935000D02*
X102705000Y-93570000D01*
X102705000Y-93570000D02*
X103340000Y-92935000D01*
X103340000Y-92935000D02*
X103975000Y-93570000D01*
X103975000Y-93570000D02*
X104610000Y-92935000D01*
X104610000Y-92935000D02*
X105245000Y-93570000D01*
X105245000Y-93570000D02*
X105880000Y-92935000D01*
X105880000Y-92935000D02*
X106515000Y-93570000D01*
X106515000Y-93570000D02*
X107150000Y-92935000D01*
X107150000Y-92935000D02*
X107785000Y-93570000D01*
X107785000Y-93570000D02*
X108420000Y-92935000D01*
X108420000Y-92935000D02*
X109055000Y-93570000D01*
X109055000Y-93570000D02*
X109690000Y-92935000D01*
X109690000Y-92935000D02*
X110325000Y-93570000D01*
X110325000Y-93570000D02*
X110960000Y-92935000D01*
X110960000Y-92935000D02*
X111595000Y-93570000D01*
X111595000Y-93570000D02*
X112230000Y-92935000D01*
X112230000Y-92935000D02*
X112865000Y-93570000D01*
X112865000Y-93570000D02*
X113500000Y-92935000D01*
X113500000Y-92935000D02*
X114135000Y-93570000D01*
X114135000Y-93570000D02*
X114770000Y-92935000D01*
G04 #@! TO.N,/INT*
X60000000Y-83770000D02*
X60000000Y-97000000D01*
X61880000Y-81890000D02*
X60000000Y-83770000D01*
X61400000Y-98300000D02*
X61400000Y-98700000D01*
X60000000Y-97000000D02*
X61400000Y-98300000D01*
G04 #@! TO.N,col0*
X99050000Y-85050000D02*
X97850000Y-86250000D01*
X99050000Y-80010000D02*
X99050000Y-85050000D01*
X99050000Y-60960000D02*
X99050000Y-59340034D01*
X99050000Y-59340034D02*
X97484999Y-57775033D01*
X97484999Y-57775033D02*
X97085000Y-57375034D01*
X99050000Y-80010000D02*
X99050000Y-79660000D01*
X99050000Y-78389982D02*
X97085018Y-76425000D01*
X99050000Y-80010000D02*
X99050000Y-78389982D01*
X97085000Y-76424982D02*
X97085018Y-76425000D01*
X97085000Y-73250000D02*
X97085000Y-76424982D01*
X97850000Y-67200000D02*
X97850000Y-72485000D01*
X97850000Y-72485000D02*
X97085000Y-73250000D01*
X96990000Y-66340000D02*
X97850000Y-67200000D01*
X99050000Y-60960000D02*
X99050000Y-61030000D01*
X99050000Y-61030000D02*
X96990000Y-63090000D01*
X96990000Y-63090000D02*
X96990000Y-66340000D01*
G04 #@! TO.N,col1*
X118100000Y-85050000D02*
X116900000Y-86250000D01*
X118100000Y-80010000D02*
X118100000Y-85050000D01*
X118100000Y-60960000D02*
X118100000Y-59340000D01*
X118100000Y-59340000D02*
X116534999Y-57774999D01*
X116534999Y-57774999D02*
X116135000Y-57375000D01*
X118100000Y-80010000D02*
X118100000Y-78390000D01*
X118100000Y-78390000D02*
X116534999Y-76824999D01*
X116534999Y-76824999D02*
X116135000Y-76425000D01*
X116135000Y-73250000D02*
X116135000Y-76425000D01*
X116900000Y-67200000D02*
X116900000Y-72485000D01*
X116900000Y-72485000D02*
X116135000Y-73250000D01*
X115735001Y-56975001D02*
X116135000Y-57375000D01*
X112325000Y-53565000D02*
X115735001Y-56975001D01*
X55810000Y-65660000D02*
X55810000Y-54105000D01*
X61880000Y-71730000D02*
X55810000Y-65660000D01*
X55810000Y-54105000D02*
X58255000Y-51660000D01*
X58255000Y-51660000D02*
X95180000Y-51660000D01*
X95180000Y-51660000D02*
X97085000Y-53565000D01*
X97085000Y-53565000D02*
X112325000Y-53565000D01*
X118100000Y-66000000D02*
X116900000Y-67200000D01*
X118100000Y-60960000D02*
X118100000Y-66000000D01*
G04 #@! TO.N,Net-(U1-Pad23)*
X77120000Y-81890000D02*
X85560000Y-90330000D01*
X95720000Y-100490000D02*
X95720000Y-100555000D01*
X77120000Y-81890000D02*
X95720000Y-100490000D01*
X95720000Y-100555000D02*
X95720000Y-100555000D01*
G04 #@! TO.N,Net-(U1-Pad29)*
X97225001Y-96980001D02*
X97625000Y-97380000D01*
X84290000Y-84045000D02*
X97225001Y-96980001D01*
X84290000Y-77060000D02*
X84290000Y-84045000D01*
X79210000Y-71980000D02*
X84290000Y-77060000D01*
X77120000Y-66650000D02*
X79210000Y-68740000D01*
X79210000Y-68740000D02*
X79210000Y-71980000D01*
G04 #@! TO.N,Net-(U1-Pad30)*
X114770000Y-94205000D02*
X117545001Y-96980001D01*
X77120000Y-64110000D02*
X81115000Y-68105000D01*
X81115000Y-71345000D02*
X87530000Y-77760000D01*
X117545001Y-96980001D02*
X117945000Y-97380000D01*
X87530000Y-77760000D02*
X87530000Y-83475000D01*
X87530000Y-83475000D02*
X98260000Y-94205000D01*
X81115000Y-68105000D02*
X81115000Y-71345000D01*
X98260000Y-94205000D02*
X114770000Y-94205000D01*
G04 #@! TO.N,/col1row0*
X134000000Y-63065727D02*
X134000000Y-62500042D01*
X134000000Y-68085000D02*
X134000000Y-63065727D01*
X127800000Y-69400000D02*
X132685000Y-69400000D01*
X132685000Y-69400000D02*
X134000000Y-68085000D01*
X126410000Y-72500000D02*
X125000012Y-72500000D01*
X127800000Y-69400000D02*
X127800000Y-71110000D01*
X127800000Y-71110000D02*
X126410000Y-72500000D01*
X134000000Y-61934357D02*
X134000000Y-62500042D01*
X134000000Y-60000000D02*
X134000000Y-61934357D01*
X130600000Y-58420000D02*
X132420000Y-58420000D01*
X132420000Y-58420000D02*
X134000000Y-60000000D01*
G04 #@! TO.N,RX*
X59300000Y-76810000D02*
X61880000Y-76810000D01*
X56810000Y-79300000D02*
X59300000Y-76810000D01*
G04 #@! TD*
D25*
G04 #@! TO.N,GND*
G36*
X65743466Y-90322862D02*
X65950000Y-90529396D01*
X65950001Y-91355527D01*
X65600000Y-91285908D01*
X65020583Y-91401161D01*
X64529375Y-91729375D01*
X64201161Y-92220582D01*
X64115000Y-92653744D01*
X64115000Y-93746255D01*
X64201161Y-94179417D01*
X64529375Y-94670625D01*
X65020582Y-94998839D01*
X65600000Y-95114092D01*
X66179417Y-94998839D01*
X66670625Y-94670625D01*
X66998839Y-94179418D01*
X67085000Y-93746256D01*
X67085000Y-93113355D01*
X68065000Y-94093356D01*
X68065000Y-94385439D01*
X68283466Y-94912862D01*
X68602560Y-95231956D01*
X68602560Y-95335035D01*
X68442191Y-95442191D01*
X68301843Y-95652235D01*
X68252560Y-95900000D01*
X68252560Y-97400000D01*
X68301843Y-97647765D01*
X68442191Y-97857809D01*
X68652235Y-97998157D01*
X68661500Y-98000000D01*
X68652235Y-98001843D01*
X68442191Y-98142191D01*
X68301843Y-98352235D01*
X68252560Y-98600000D01*
X68252560Y-100100000D01*
X68301843Y-100347765D01*
X68442191Y-100557809D01*
X68602560Y-100664965D01*
X68602560Y-100768044D01*
X68283466Y-101087138D01*
X68065000Y-101614561D01*
X68065000Y-102185439D01*
X68283466Y-102712862D01*
X68687138Y-103116534D01*
X69214561Y-103335000D01*
X69785439Y-103335000D01*
X70312862Y-103116534D01*
X70716534Y-102712862D01*
X70738430Y-102660000D01*
X71997299Y-102660000D01*
X72001161Y-102679417D01*
X72329375Y-103170625D01*
X72820582Y-103498839D01*
X73400000Y-103614092D01*
X73979417Y-103498839D01*
X74265000Y-103308019D01*
X74265000Y-103745657D01*
X74453018Y-104199571D01*
X74543447Y-104290000D01*
X64456553Y-104290000D01*
X64546982Y-104199571D01*
X64735000Y-103745657D01*
X64735000Y-103254343D01*
X64546982Y-102800429D01*
X64199571Y-102453018D01*
X63745657Y-102265000D01*
X63254343Y-102265000D01*
X62847773Y-102433407D01*
X62885000Y-102246256D01*
X62885000Y-101153745D01*
X62798839Y-100720582D01*
X62470625Y-100229375D01*
X62426662Y-100200000D01*
X62470625Y-100170625D01*
X62798839Y-99679418D01*
X62885000Y-99246256D01*
X62885000Y-98153745D01*
X62798839Y-97720582D01*
X62470625Y-97229375D01*
X61979418Y-96901161D01*
X61400000Y-96785908D01*
X60976965Y-96870055D01*
X60760000Y-96668588D01*
X60760000Y-96458359D01*
X60820582Y-96498839D01*
X61400000Y-96614092D01*
X61979417Y-96498839D01*
X62265000Y-96308019D01*
X62265000Y-96745657D01*
X62453018Y-97199571D01*
X62800429Y-97546982D01*
X63254343Y-97735000D01*
X63745657Y-97735000D01*
X64199571Y-97546982D01*
X64546982Y-97199571D01*
X64735000Y-96745657D01*
X64735000Y-96254343D01*
X64546982Y-95800429D01*
X64199571Y-95453018D01*
X63745657Y-95265000D01*
X63254343Y-95265000D01*
X62847773Y-95433407D01*
X62885000Y-95246256D01*
X62885000Y-94153745D01*
X62798839Y-93720582D01*
X62470625Y-93229375D01*
X61979418Y-92901161D01*
X61400000Y-92785908D01*
X60820583Y-92901161D01*
X60760000Y-92941641D01*
X60760000Y-90419396D01*
X61067138Y-90726534D01*
X61594561Y-90945000D01*
X62165439Y-90945000D01*
X62692862Y-90726534D01*
X63096534Y-90322862D01*
X63150000Y-90193784D01*
X63203466Y-90322862D01*
X63607138Y-90726534D01*
X64134561Y-90945000D01*
X64705439Y-90945000D01*
X65232862Y-90726534D01*
X65636534Y-90322862D01*
X65690000Y-90193784D01*
X65743466Y-90322862D01*
X65743466Y-90322862D01*
G37*
X65743466Y-90322862D02*
X65950000Y-90529396D01*
X65950001Y-91355527D01*
X65600000Y-91285908D01*
X65020583Y-91401161D01*
X64529375Y-91729375D01*
X64201161Y-92220582D01*
X64115000Y-92653744D01*
X64115000Y-93746255D01*
X64201161Y-94179417D01*
X64529375Y-94670625D01*
X65020582Y-94998839D01*
X65600000Y-95114092D01*
X66179417Y-94998839D01*
X66670625Y-94670625D01*
X66998839Y-94179418D01*
X67085000Y-93746256D01*
X67085000Y-93113355D01*
X68065000Y-94093356D01*
X68065000Y-94385439D01*
X68283466Y-94912862D01*
X68602560Y-95231956D01*
X68602560Y-95335035D01*
X68442191Y-95442191D01*
X68301843Y-95652235D01*
X68252560Y-95900000D01*
X68252560Y-97400000D01*
X68301843Y-97647765D01*
X68442191Y-97857809D01*
X68652235Y-97998157D01*
X68661500Y-98000000D01*
X68652235Y-98001843D01*
X68442191Y-98142191D01*
X68301843Y-98352235D01*
X68252560Y-98600000D01*
X68252560Y-100100000D01*
X68301843Y-100347765D01*
X68442191Y-100557809D01*
X68602560Y-100664965D01*
X68602560Y-100768044D01*
X68283466Y-101087138D01*
X68065000Y-101614561D01*
X68065000Y-102185439D01*
X68283466Y-102712862D01*
X68687138Y-103116534D01*
X69214561Y-103335000D01*
X69785439Y-103335000D01*
X70312862Y-103116534D01*
X70716534Y-102712862D01*
X70738430Y-102660000D01*
X71997299Y-102660000D01*
X72001161Y-102679417D01*
X72329375Y-103170625D01*
X72820582Y-103498839D01*
X73400000Y-103614092D01*
X73979417Y-103498839D01*
X74265000Y-103308019D01*
X74265000Y-103745657D01*
X74453018Y-104199571D01*
X74543447Y-104290000D01*
X64456553Y-104290000D01*
X64546982Y-104199571D01*
X64735000Y-103745657D01*
X64735000Y-103254343D01*
X64546982Y-102800429D01*
X64199571Y-102453018D01*
X63745657Y-102265000D01*
X63254343Y-102265000D01*
X62847773Y-102433407D01*
X62885000Y-102246256D01*
X62885000Y-101153745D01*
X62798839Y-100720582D01*
X62470625Y-100229375D01*
X62426662Y-100200000D01*
X62470625Y-100170625D01*
X62798839Y-99679418D01*
X62885000Y-99246256D01*
X62885000Y-98153745D01*
X62798839Y-97720582D01*
X62470625Y-97229375D01*
X61979418Y-96901161D01*
X61400000Y-96785908D01*
X60976965Y-96870055D01*
X60760000Y-96668588D01*
X60760000Y-96458359D01*
X60820582Y-96498839D01*
X61400000Y-96614092D01*
X61979417Y-96498839D01*
X62265000Y-96308019D01*
X62265000Y-96745657D01*
X62453018Y-97199571D01*
X62800429Y-97546982D01*
X63254343Y-97735000D01*
X63745657Y-97735000D01*
X64199571Y-97546982D01*
X64546982Y-97199571D01*
X64735000Y-96745657D01*
X64735000Y-96254343D01*
X64546982Y-95800429D01*
X64199571Y-95453018D01*
X63745657Y-95265000D01*
X63254343Y-95265000D01*
X62847773Y-95433407D01*
X62885000Y-95246256D01*
X62885000Y-94153745D01*
X62798839Y-93720582D01*
X62470625Y-93229375D01*
X61979418Y-92901161D01*
X61400000Y-92785908D01*
X60820583Y-92901161D01*
X60760000Y-92941641D01*
X60760000Y-90419396D01*
X61067138Y-90726534D01*
X61594561Y-90945000D01*
X62165439Y-90945000D01*
X62692862Y-90726534D01*
X63096534Y-90322862D01*
X63150000Y-90193784D01*
X63203466Y-90322862D01*
X63607138Y-90726534D01*
X64134561Y-90945000D01*
X64705439Y-90945000D01*
X65232862Y-90726534D01*
X65636534Y-90322862D01*
X65690000Y-90193784D01*
X65743466Y-90322862D01*
G36*
X96494670Y-54049472D02*
X96537071Y-54112929D01*
X96600527Y-54155329D01*
X96788462Y-54280904D01*
X96836605Y-54290480D01*
X97010148Y-54325000D01*
X97010152Y-54325000D01*
X97085000Y-54339888D01*
X97159848Y-54325000D01*
X112010199Y-54325000D01*
X115100000Y-57414802D01*
X115100000Y-57580874D01*
X115257569Y-57961280D01*
X115548720Y-58252431D01*
X115929126Y-58410000D01*
X116095199Y-58410000D01*
X117014721Y-59329523D01*
X116852235Y-59361843D01*
X116642191Y-59502191D01*
X116501843Y-59712235D01*
X116452560Y-59960000D01*
X116452560Y-61960000D01*
X116501843Y-62207765D01*
X116642191Y-62417809D01*
X116852235Y-62558157D01*
X117100000Y-62607440D01*
X117340000Y-62607440D01*
X117340001Y-65552560D01*
X115900000Y-65552560D01*
X115652235Y-65601843D01*
X115530000Y-65683518D01*
X115530000Y-63158709D01*
X115647431Y-63041278D01*
X115805000Y-62660872D01*
X115805000Y-62249124D01*
X115647431Y-61868718D01*
X115530000Y-61751287D01*
X115530000Y-59989846D01*
X115544888Y-59914999D01*
X115530000Y-59840152D01*
X115530000Y-59840148D01*
X115485904Y-59618463D01*
X115317929Y-59367071D01*
X115254473Y-59324671D01*
X113865331Y-57935530D01*
X113822929Y-57872071D01*
X113571537Y-57704096D01*
X113349852Y-57660000D01*
X113349847Y-57660000D01*
X113275000Y-57645112D01*
X113200153Y-57660000D01*
X113197440Y-57660000D01*
X113197440Y-57420000D01*
X113148157Y-57172235D01*
X113007809Y-56962191D01*
X112797765Y-56821843D01*
X112550000Y-56772560D01*
X110550000Y-56772560D01*
X110302235Y-56821843D01*
X110092191Y-56962191D01*
X110075907Y-56986561D01*
X109699380Y-56610034D01*
X108914678Y-56285000D01*
X108065322Y-56285000D01*
X107280620Y-56610034D01*
X106680034Y-57210620D01*
X106355000Y-57995322D01*
X106355000Y-58844678D01*
X106680034Y-59629380D01*
X107280620Y-60229966D01*
X107682526Y-60396441D01*
X107625000Y-60535322D01*
X107625000Y-61384678D01*
X107670162Y-61493709D01*
X107442608Y-61266155D01*
X106474134Y-60865000D01*
X105425866Y-60865000D01*
X104457392Y-61266155D01*
X104229838Y-61493709D01*
X104275000Y-61384678D01*
X104275000Y-60535322D01*
X104217474Y-60396441D01*
X104619380Y-60229966D01*
X105219966Y-59629380D01*
X105545000Y-58844678D01*
X105545000Y-57995322D01*
X105219966Y-57210620D01*
X104619380Y-56610034D01*
X103834678Y-56285000D01*
X102985322Y-56285000D01*
X102200620Y-56610034D01*
X101600034Y-57210620D01*
X101275000Y-57995322D01*
X101275000Y-58844678D01*
X101332526Y-58983559D01*
X100930620Y-59150034D01*
X100536109Y-59544545D01*
X100507809Y-59502191D01*
X100297765Y-59361843D01*
X100050000Y-59312560D01*
X99819423Y-59312560D01*
X99810000Y-59265186D01*
X99810000Y-59265182D01*
X99765904Y-59043497D01*
X99597929Y-58792105D01*
X99534473Y-58749705D01*
X98120000Y-57335233D01*
X98120000Y-57169160D01*
X97962431Y-56788754D01*
X97671280Y-56497603D01*
X97290874Y-56340034D01*
X96879126Y-56340034D01*
X96498720Y-56497603D01*
X96207569Y-56788754D01*
X96050000Y-57169160D01*
X96050000Y-57580908D01*
X96207569Y-57961314D01*
X96498720Y-58252465D01*
X96879126Y-58410034D01*
X97045199Y-58410034D01*
X97964693Y-59329528D01*
X97802235Y-59361843D01*
X97592191Y-59502191D01*
X97451843Y-59712235D01*
X97402560Y-59960000D01*
X97402560Y-61602639D01*
X96505530Y-62499669D01*
X96442071Y-62542071D01*
X96274096Y-62793464D01*
X96230000Y-63015149D01*
X96230000Y-63015153D01*
X96215112Y-63090000D01*
X96230000Y-63164847D01*
X96230001Y-66062044D01*
X96202560Y-66200000D01*
X96202560Y-68200000D01*
X96251843Y-68447765D01*
X96392191Y-68657809D01*
X96602235Y-68798157D01*
X96850000Y-68847440D01*
X97090000Y-68847440D01*
X97090001Y-72170197D01*
X96600529Y-72659669D01*
X96537071Y-72702071D01*
X96369096Y-72953464D01*
X96325000Y-73175149D01*
X96325000Y-73175153D01*
X96310112Y-73250000D01*
X96325000Y-73324847D01*
X96325001Y-75721306D01*
X96207587Y-75838720D01*
X96050018Y-76219126D01*
X96050018Y-76630874D01*
X96207587Y-77011280D01*
X96498738Y-77302431D01*
X96879144Y-77460000D01*
X97045217Y-77460000D01*
X97964736Y-78379520D01*
X97802235Y-78411843D01*
X97592191Y-78552191D01*
X97451843Y-78762235D01*
X97402560Y-79010000D01*
X97402560Y-81010000D01*
X97451843Y-81257765D01*
X97592191Y-81467809D01*
X97802235Y-81608157D01*
X98050000Y-81657440D01*
X98290000Y-81657440D01*
X98290001Y-84602560D01*
X96850000Y-84602560D01*
X96602235Y-84651843D01*
X96392191Y-84792191D01*
X96251843Y-85002235D01*
X96202560Y-85250000D01*
X96202560Y-87250000D01*
X96251843Y-87497765D01*
X96392191Y-87707809D01*
X96602235Y-87848157D01*
X96850000Y-87897440D01*
X98850000Y-87897440D01*
X99097765Y-87848157D01*
X99307809Y-87707809D01*
X99340115Y-87659461D01*
X99740620Y-88059966D01*
X100525322Y-88385000D01*
X101374678Y-88385000D01*
X102159380Y-88059966D01*
X102759966Y-87459380D01*
X103085000Y-86674678D01*
X103085000Y-85825322D01*
X102759966Y-85040620D01*
X102159380Y-84440034D01*
X101374678Y-84115000D01*
X100813560Y-84115000D01*
X101006697Y-84035000D01*
X101165385Y-84035000D01*
X101711185Y-83808922D01*
X102128922Y-83391185D01*
X102355000Y-82845385D01*
X102355000Y-82254615D01*
X102309596Y-82145000D01*
X102564678Y-82145000D01*
X103349380Y-81819966D01*
X103436283Y-81733063D01*
X103315000Y-82025866D01*
X103315000Y-83074134D01*
X103716155Y-84042608D01*
X104457392Y-84783845D01*
X105425866Y-85185000D01*
X106474134Y-85185000D01*
X107442608Y-84783845D01*
X108183845Y-84042608D01*
X108585000Y-83074134D01*
X108585000Y-82025866D01*
X108463717Y-81733063D01*
X108550620Y-81819966D01*
X109335322Y-82145000D01*
X109590404Y-82145000D01*
X109545000Y-82254615D01*
X109545000Y-82845385D01*
X109771078Y-83391185D01*
X110188815Y-83808922D01*
X110734615Y-84035000D01*
X110893303Y-84035000D01*
X111086440Y-84115000D01*
X110525322Y-84115000D01*
X109740620Y-84440034D01*
X109140034Y-85040620D01*
X108815000Y-85825322D01*
X108815000Y-86674678D01*
X108867970Y-86802560D01*
X107800000Y-86802560D01*
X107552235Y-86851843D01*
X107443706Y-86924360D01*
X107159380Y-86640034D01*
X106374678Y-86315000D01*
X105525322Y-86315000D01*
X104740620Y-86640034D01*
X104140034Y-87240620D01*
X103815000Y-88025322D01*
X103815000Y-88874678D01*
X104140034Y-89659380D01*
X104353654Y-89873000D01*
X95002802Y-89873000D01*
X88290000Y-83160199D01*
X88290000Y-77834846D01*
X88304888Y-77759999D01*
X88290000Y-77685152D01*
X88290000Y-77685148D01*
X88245904Y-77463463D01*
X88077929Y-77212071D01*
X88014473Y-77169671D01*
X81875000Y-71030199D01*
X81875000Y-68179846D01*
X81889888Y-68104999D01*
X81875000Y-68030152D01*
X81875000Y-68030148D01*
X81830904Y-67808463D01*
X81662929Y-67557071D01*
X81599473Y-67514671D01*
X78533103Y-64448302D01*
X78555000Y-64395439D01*
X78555000Y-63824561D01*
X78336534Y-63297138D01*
X77932862Y-62893466D01*
X77803784Y-62840000D01*
X77932862Y-62786534D01*
X78336534Y-62382862D01*
X78555000Y-61855439D01*
X78555000Y-61655000D01*
X81577560Y-61655000D01*
X81577560Y-63255000D01*
X81626843Y-63502765D01*
X81767191Y-63712809D01*
X81977235Y-63853157D01*
X82225000Y-63902440D01*
X82265000Y-63902440D01*
X82265000Y-64817560D01*
X82225000Y-64817560D01*
X81977235Y-64866843D01*
X81767191Y-65007191D01*
X81626843Y-65217235D01*
X81577560Y-65465000D01*
X81577560Y-67065000D01*
X81626843Y-67312765D01*
X81767191Y-67522809D01*
X81977235Y-67663157D01*
X82225000Y-67712440D01*
X83825000Y-67712440D01*
X84072765Y-67663157D01*
X84282809Y-67522809D01*
X84370377Y-67391756D01*
X84477235Y-67463157D01*
X84725000Y-67512440D01*
X86325000Y-67512440D01*
X86572765Y-67463157D01*
X86782809Y-67322809D01*
X86923157Y-67112765D01*
X86925000Y-67103500D01*
X86926843Y-67112765D01*
X87067191Y-67322809D01*
X87277235Y-67463157D01*
X87525000Y-67512440D01*
X89125000Y-67512440D01*
X89372765Y-67463157D01*
X89582809Y-67322809D01*
X89689965Y-67162440D01*
X89693044Y-67162440D01*
X90012138Y-67481534D01*
X90539561Y-67700000D01*
X91110439Y-67700000D01*
X91637862Y-67481534D01*
X92041534Y-67077862D01*
X92260000Y-66550439D01*
X92260000Y-65979561D01*
X92041534Y-65452138D01*
X91637862Y-65048466D01*
X91110439Y-64830000D01*
X90539561Y-64830000D01*
X90012138Y-65048466D01*
X89693044Y-65367560D01*
X89689965Y-65367560D01*
X89582809Y-65207191D01*
X89372765Y-65066843D01*
X89125000Y-65017560D01*
X87525000Y-65017560D01*
X87277235Y-65066843D01*
X87067191Y-65207191D01*
X86926843Y-65417235D01*
X86925000Y-65426500D01*
X86923157Y-65417235D01*
X86782809Y-65207191D01*
X86572765Y-65066843D01*
X86325000Y-65017560D01*
X84725000Y-65017560D01*
X84477235Y-65066843D01*
X84370377Y-65138244D01*
X84282809Y-65007191D01*
X84072765Y-64866843D01*
X83825000Y-64817560D01*
X83785000Y-64817560D01*
X83785000Y-63902440D01*
X83825000Y-63902440D01*
X84072765Y-63853157D01*
X84282809Y-63712809D01*
X84370377Y-63581756D01*
X84477235Y-63653157D01*
X84725000Y-63702440D01*
X86325000Y-63702440D01*
X86572765Y-63653157D01*
X86782809Y-63512809D01*
X86923157Y-63302765D01*
X86925000Y-63293500D01*
X86926843Y-63302765D01*
X87067191Y-63512809D01*
X87277235Y-63653157D01*
X87525000Y-63702440D01*
X89125000Y-63702440D01*
X89372765Y-63653157D01*
X89582809Y-63512809D01*
X89689965Y-63352440D01*
X89693044Y-63352440D01*
X90012138Y-63671534D01*
X90539561Y-63890000D01*
X91110439Y-63890000D01*
X91637862Y-63671534D01*
X92041534Y-63267862D01*
X92260000Y-62740439D01*
X92260000Y-62169561D01*
X92041534Y-61642138D01*
X91637862Y-61238466D01*
X91110439Y-61020000D01*
X90539561Y-61020000D01*
X90012138Y-61238466D01*
X89693044Y-61557560D01*
X89689965Y-61557560D01*
X89582809Y-61397191D01*
X89372765Y-61256843D01*
X89125000Y-61207560D01*
X87525000Y-61207560D01*
X87277235Y-61256843D01*
X87067191Y-61397191D01*
X86926843Y-61607235D01*
X86925000Y-61616500D01*
X86923157Y-61607235D01*
X86782809Y-61397191D01*
X86572765Y-61256843D01*
X86325000Y-61207560D01*
X84725000Y-61207560D01*
X84477235Y-61256843D01*
X84370377Y-61328244D01*
X84282809Y-61197191D01*
X84072765Y-61056843D01*
X83825000Y-61007560D01*
X82225000Y-61007560D01*
X81977235Y-61056843D01*
X81767191Y-61197191D01*
X81626843Y-61407235D01*
X81577560Y-61655000D01*
X78555000Y-61655000D01*
X78555000Y-61284561D01*
X78336534Y-60757138D01*
X77932862Y-60353466D01*
X77819417Y-60306475D01*
X77874005Y-60283864D01*
X77948139Y-60037745D01*
X77120000Y-59209605D01*
X76291861Y-60037745D01*
X76365995Y-60283864D01*
X76424448Y-60304874D01*
X76307138Y-60353466D01*
X75903466Y-60757138D01*
X75685000Y-61284561D01*
X75685000Y-61855439D01*
X75903466Y-62382862D01*
X76307138Y-62786534D01*
X76436216Y-62840000D01*
X76307138Y-62893466D01*
X75903466Y-63297138D01*
X75850000Y-63426216D01*
X75796534Y-63297138D01*
X75392862Y-62893466D01*
X74865439Y-62675000D01*
X74294561Y-62675000D01*
X73767138Y-62893466D01*
X73363466Y-63297138D01*
X73145000Y-63824561D01*
X73145000Y-64395439D01*
X73363466Y-64922862D01*
X73767138Y-65326534D01*
X73896216Y-65380000D01*
X73767138Y-65433466D01*
X73363466Y-65837138D01*
X73145000Y-66364561D01*
X73145000Y-66935439D01*
X73363466Y-67462862D01*
X73767138Y-67866534D01*
X73896216Y-67920000D01*
X73767138Y-67973466D01*
X73363466Y-68377138D01*
X73145000Y-68904561D01*
X73145000Y-69475439D01*
X73363466Y-70002862D01*
X73767138Y-70406534D01*
X74294561Y-70625000D01*
X74865439Y-70625000D01*
X75392862Y-70406534D01*
X75796534Y-70002862D01*
X75850000Y-69873784D01*
X75903466Y-70002862D01*
X76307138Y-70406534D01*
X76436216Y-70460000D01*
X76307138Y-70513466D01*
X75903466Y-70917138D01*
X75685000Y-71444561D01*
X75685000Y-72015439D01*
X75903466Y-72542862D01*
X76307138Y-72946534D01*
X76436216Y-73000000D01*
X76307138Y-73053466D01*
X75903466Y-73457138D01*
X75685000Y-73984561D01*
X75685000Y-74555439D01*
X75903466Y-75082862D01*
X76307138Y-75486534D01*
X76436216Y-75540000D01*
X76307138Y-75593466D01*
X75903466Y-75997138D01*
X75685000Y-76524561D01*
X75685000Y-77095439D01*
X75903466Y-77622862D01*
X76307138Y-78026534D01*
X76436216Y-78080000D01*
X76307138Y-78133466D01*
X75903466Y-78537138D01*
X75685000Y-79064561D01*
X75685000Y-79635439D01*
X75903466Y-80162862D01*
X76307138Y-80566534D01*
X76436216Y-80620000D01*
X76307138Y-80673466D01*
X75903466Y-81077138D01*
X75685000Y-81604561D01*
X75685000Y-82175439D01*
X75903466Y-82702862D01*
X76307138Y-83106534D01*
X76436216Y-83160000D01*
X76307138Y-83213466D01*
X75903466Y-83617138D01*
X75685000Y-84144561D01*
X75685000Y-84715439D01*
X75903466Y-85242862D01*
X76307138Y-85646534D01*
X76436216Y-85700000D01*
X76307138Y-85753466D01*
X75903466Y-86157138D01*
X75685000Y-86684561D01*
X75685000Y-87255439D01*
X75903466Y-87782862D01*
X76307138Y-88186534D01*
X76436216Y-88240000D01*
X76307138Y-88293466D01*
X75903466Y-88697138D01*
X75850000Y-88826216D01*
X75796534Y-88697138D01*
X75392862Y-88293466D01*
X74865439Y-88075000D01*
X74294561Y-88075000D01*
X73767138Y-88293466D01*
X73363466Y-88697138D01*
X73310000Y-88826216D01*
X73256534Y-88697138D01*
X72852862Y-88293466D01*
X72723784Y-88240000D01*
X72852862Y-88186534D01*
X73256534Y-87782862D01*
X73475000Y-87255439D01*
X73475000Y-86684561D01*
X73256534Y-86157138D01*
X72852862Y-85753466D01*
X72723784Y-85700000D01*
X72852862Y-85646534D01*
X73256534Y-85242862D01*
X73475000Y-84715439D01*
X73475000Y-84144561D01*
X73256534Y-83617138D01*
X72852862Y-83213466D01*
X72723784Y-83160000D01*
X72852862Y-83106534D01*
X73256534Y-82702862D01*
X73475000Y-82175439D01*
X73475000Y-81604561D01*
X73256534Y-81077138D01*
X72852862Y-80673466D01*
X72723784Y-80620000D01*
X72852862Y-80566534D01*
X73256534Y-80162862D01*
X73475000Y-79635439D01*
X73475000Y-79064561D01*
X73256534Y-78537138D01*
X72852862Y-78133466D01*
X72723784Y-78080000D01*
X72852862Y-78026534D01*
X73256534Y-77622862D01*
X73475000Y-77095439D01*
X73475000Y-76524561D01*
X73256534Y-75997138D01*
X72852862Y-75593466D01*
X72723784Y-75540000D01*
X72852862Y-75486534D01*
X73256534Y-75082862D01*
X73475000Y-74555439D01*
X73475000Y-73984561D01*
X73256534Y-73457138D01*
X72852862Y-73053466D01*
X72723784Y-73000000D01*
X72852862Y-72946534D01*
X73256534Y-72542862D01*
X73475000Y-72015439D01*
X73475000Y-71444561D01*
X73256534Y-70917138D01*
X72852862Y-70513466D01*
X72325439Y-70295000D01*
X71754561Y-70295000D01*
X71227138Y-70513466D01*
X70823466Y-70917138D01*
X70770000Y-71046216D01*
X70716534Y-70917138D01*
X70312862Y-70513466D01*
X69785439Y-70295000D01*
X69214561Y-70295000D01*
X68687138Y-70513466D01*
X68283466Y-70917138D01*
X68065000Y-71444561D01*
X68065000Y-72015439D01*
X68283466Y-72542862D01*
X68687138Y-72946534D01*
X68816216Y-73000000D01*
X68687138Y-73053466D01*
X68283466Y-73457138D01*
X68065000Y-73984561D01*
X68065000Y-74555439D01*
X68283466Y-75082862D01*
X68687138Y-75486534D01*
X68816216Y-75540000D01*
X68687138Y-75593466D01*
X68283466Y-75997138D01*
X68065000Y-76524561D01*
X68065000Y-77095439D01*
X68283466Y-77622862D01*
X68687138Y-78026534D01*
X68816216Y-78080000D01*
X68687138Y-78133466D01*
X68283466Y-78537138D01*
X68065000Y-79064561D01*
X68065000Y-79635439D01*
X68283466Y-80162862D01*
X68687138Y-80566534D01*
X68816216Y-80620000D01*
X68687138Y-80673466D01*
X68283466Y-81077138D01*
X68065000Y-81604561D01*
X68065000Y-82175439D01*
X68283466Y-82702862D01*
X68687138Y-83106534D01*
X68816216Y-83160000D01*
X68687138Y-83213466D01*
X68283466Y-83617138D01*
X68065000Y-84144561D01*
X68065000Y-84715439D01*
X68283466Y-85242862D01*
X68687138Y-85646534D01*
X68816216Y-85700000D01*
X68687138Y-85753466D01*
X68283466Y-86157138D01*
X68065000Y-86684561D01*
X68065000Y-87255439D01*
X68283466Y-87782862D01*
X68687138Y-88186534D01*
X68800583Y-88233525D01*
X68745995Y-88256136D01*
X68671861Y-88502255D01*
X69500000Y-89330395D01*
X70328139Y-88502255D01*
X70254005Y-88256136D01*
X70195552Y-88235126D01*
X70312862Y-88186534D01*
X70716534Y-87782862D01*
X70770000Y-87653784D01*
X70823466Y-87782862D01*
X71227138Y-88186534D01*
X71356216Y-88240000D01*
X71227138Y-88293466D01*
X70823466Y-88697138D01*
X70776475Y-88810583D01*
X70753864Y-88755995D01*
X70507745Y-88681861D01*
X69679605Y-89510000D01*
X70507745Y-90338139D01*
X70753864Y-90264005D01*
X70774874Y-90205552D01*
X70823466Y-90322862D01*
X71227138Y-90726534D01*
X71754561Y-90945000D01*
X72325439Y-90945000D01*
X72852862Y-90726534D01*
X73256534Y-90322862D01*
X73310000Y-90193784D01*
X73363466Y-90322862D01*
X73767138Y-90726534D01*
X74294561Y-90945000D01*
X74865439Y-90945000D01*
X75392862Y-90726534D01*
X75796534Y-90322862D01*
X75850000Y-90193784D01*
X75903466Y-90322862D01*
X76307138Y-90726534D01*
X76834561Y-90945000D01*
X77405439Y-90945000D01*
X77932862Y-90726534D01*
X78336534Y-90322862D01*
X78555000Y-89795439D01*
X78555000Y-89224561D01*
X78336534Y-88697138D01*
X77932862Y-88293466D01*
X77803784Y-88240000D01*
X77932862Y-88186534D01*
X78336534Y-87782862D01*
X78555000Y-87255439D01*
X78555000Y-86684561D01*
X78336534Y-86157138D01*
X77932862Y-85753466D01*
X77803784Y-85700000D01*
X77932862Y-85646534D01*
X78336534Y-85242862D01*
X78555000Y-84715439D01*
X78555000Y-84399801D01*
X85075526Y-90920329D01*
X85075531Y-90920332D01*
X89873000Y-95717802D01*
X89873000Y-104290000D01*
X76456553Y-104290000D01*
X76546982Y-104199571D01*
X76735000Y-103745657D01*
X76735000Y-103254343D01*
X76546982Y-102800429D01*
X76199571Y-102453018D01*
X75745657Y-102265000D01*
X75254343Y-102265000D01*
X74847773Y-102433407D01*
X74885000Y-102246256D01*
X74885000Y-101153745D01*
X74798839Y-100720582D01*
X74470625Y-100229375D01*
X74426662Y-100200000D01*
X74470625Y-100170625D01*
X74798839Y-99679418D01*
X74842484Y-99460000D01*
X81137560Y-99460000D01*
X81137560Y-100115000D01*
X81186843Y-100362765D01*
X81327191Y-100572809D01*
X81487560Y-100679965D01*
X81487560Y-100783044D01*
X81168466Y-101102138D01*
X80950000Y-101629561D01*
X80950000Y-102200439D01*
X81168466Y-102727862D01*
X81572138Y-103131534D01*
X82099561Y-103350000D01*
X82670439Y-103350000D01*
X83197862Y-103131534D01*
X83601534Y-102727862D01*
X83820000Y-102200439D01*
X83820000Y-101629561D01*
X83601534Y-101102138D01*
X83282440Y-100783044D01*
X83282440Y-100679965D01*
X83442809Y-100572809D01*
X83583157Y-100362765D01*
X83632440Y-100115000D01*
X83632440Y-98615000D01*
X83583157Y-98367235D01*
X83442809Y-98157191D01*
X83232765Y-98016843D01*
X83223500Y-98015000D01*
X83232765Y-98013157D01*
X83442809Y-97872809D01*
X83583157Y-97662765D01*
X83632440Y-97415000D01*
X83632440Y-95915000D01*
X83583157Y-95667235D01*
X83442809Y-95457191D01*
X83282440Y-95350035D01*
X83282440Y-95246956D01*
X83601534Y-94927862D01*
X83820000Y-94400439D01*
X83820000Y-93829561D01*
X83601534Y-93302138D01*
X83197862Y-92898466D01*
X82670439Y-92680000D01*
X82099561Y-92680000D01*
X81572138Y-92898466D01*
X81168466Y-93302138D01*
X80950000Y-93829561D01*
X80950000Y-94400439D01*
X81168466Y-94927862D01*
X81487560Y-95246956D01*
X81487560Y-95350035D01*
X81327191Y-95457191D01*
X81298494Y-95500139D01*
X80629517Y-94831162D01*
X80573169Y-94746831D01*
X80239082Y-94523601D01*
X79944476Y-94465000D01*
X79944471Y-94465000D01*
X79845000Y-94445214D01*
X79745529Y-94465000D01*
X78779966Y-94465000D01*
X78923360Y-94285618D01*
X79085000Y-93727000D01*
X79085000Y-93327000D01*
X77727000Y-93327000D01*
X77727000Y-93347000D01*
X77473000Y-93347000D01*
X77473000Y-93327000D01*
X76115000Y-93327000D01*
X76115000Y-93713974D01*
X75994476Y-93690000D01*
X75994471Y-93690000D01*
X75895000Y-93670214D01*
X75795529Y-93690000D01*
X74778405Y-93690000D01*
X74470625Y-93229375D01*
X73979418Y-92901161D01*
X73400000Y-92785908D01*
X72820583Y-92901161D01*
X72469057Y-93136043D01*
X72405918Y-93148602D01*
X72071831Y-93371831D01*
X71848602Y-93705918D01*
X71770214Y-94100000D01*
X71848602Y-94494082D01*
X71915000Y-94593454D01*
X71915000Y-95246255D01*
X72001161Y-95679417D01*
X72329375Y-96170625D01*
X72820582Y-96498839D01*
X73400000Y-96614092D01*
X73979417Y-96498839D01*
X74265000Y-96308019D01*
X74265000Y-96745657D01*
X74453018Y-97199571D01*
X74800429Y-97546982D01*
X75254343Y-97735000D01*
X75745657Y-97735000D01*
X76199571Y-97546982D01*
X76546982Y-97199571D01*
X76735000Y-96745657D01*
X76735000Y-96491857D01*
X76769472Y-96485000D01*
X79426645Y-96485000D01*
X80250482Y-97308837D01*
X80306831Y-97393169D01*
X80640918Y-97616399D01*
X80935524Y-97675000D01*
X80935528Y-97675000D01*
X81034999Y-97694786D01*
X81134470Y-97675000D01*
X81195018Y-97675000D01*
X81327191Y-97872809D01*
X81427749Y-97940000D01*
X74842484Y-97940000D01*
X74798839Y-97720582D01*
X74470625Y-97229375D01*
X73979418Y-96901161D01*
X73400000Y-96785908D01*
X72820583Y-96901161D01*
X72329375Y-97229375D01*
X72001161Y-97720582D01*
X71915000Y-98153744D01*
X71915000Y-99246255D01*
X72001161Y-99679417D01*
X72329375Y-100170625D01*
X72373338Y-100200000D01*
X72329375Y-100229375D01*
X72001161Y-100720582D01*
X71917734Y-101140000D01*
X70738430Y-101140000D01*
X70716534Y-101087138D01*
X70397440Y-100768044D01*
X70397440Y-100664965D01*
X70557809Y-100557809D01*
X70698157Y-100347765D01*
X70747440Y-100100000D01*
X70747440Y-98600000D01*
X70698157Y-98352235D01*
X70557809Y-98142191D01*
X70347765Y-98001843D01*
X70338500Y-98000000D01*
X70347765Y-97998157D01*
X70557809Y-97857809D01*
X70698157Y-97647765D01*
X70747440Y-97400000D01*
X70747440Y-95900000D01*
X70698157Y-95652235D01*
X70557809Y-95442191D01*
X70397440Y-95335035D01*
X70397440Y-95231956D01*
X70716534Y-94912862D01*
X70935000Y-94385439D01*
X70935000Y-93814561D01*
X70716534Y-93287138D01*
X70312862Y-92883466D01*
X69804753Y-92673000D01*
X76115000Y-92673000D01*
X76115000Y-93073000D01*
X77473000Y-93073000D01*
X77473000Y-91479845D01*
X77727000Y-91479845D01*
X77727000Y-93073000D01*
X79085000Y-93073000D01*
X79085000Y-92673000D01*
X78923360Y-92114382D01*
X78560251Y-91660144D01*
X78050952Y-91379438D01*
X77956890Y-91358524D01*
X77727000Y-91479845D01*
X77473000Y-91479845D01*
X77243110Y-91358524D01*
X77149048Y-91379438D01*
X76639749Y-91660144D01*
X76276640Y-92114382D01*
X76115000Y-92673000D01*
X69804753Y-92673000D01*
X69785439Y-92665000D01*
X69493356Y-92665000D01*
X67970000Y-91141645D01*
X67970000Y-90529396D01*
X67981651Y-90517745D01*
X68671861Y-90517745D01*
X68745995Y-90763864D01*
X69283223Y-90956965D01*
X69853454Y-90929778D01*
X70254005Y-90763864D01*
X70328139Y-90517745D01*
X69500000Y-89689605D01*
X68671861Y-90517745D01*
X67981651Y-90517745D01*
X68176534Y-90322862D01*
X68223525Y-90209417D01*
X68246136Y-90264005D01*
X68492255Y-90338139D01*
X69320395Y-89510000D01*
X68492255Y-88681861D01*
X68246136Y-88755995D01*
X68225126Y-88814448D01*
X68176534Y-88697138D01*
X67772862Y-88293466D01*
X67245439Y-88075000D01*
X66674561Y-88075000D01*
X66147138Y-88293466D01*
X65743466Y-88697138D01*
X65690000Y-88826216D01*
X65636534Y-88697138D01*
X65232862Y-88293466D01*
X64705439Y-88075000D01*
X64134561Y-88075000D01*
X63607138Y-88293466D01*
X63203466Y-88697138D01*
X63150000Y-88826216D01*
X63096534Y-88697138D01*
X62692862Y-88293466D01*
X62563784Y-88240000D01*
X62692862Y-88186534D01*
X63096534Y-87782862D01*
X63315000Y-87255439D01*
X63315000Y-86684561D01*
X63096534Y-86157138D01*
X62692862Y-85753466D01*
X62563784Y-85700000D01*
X62692862Y-85646534D01*
X63096534Y-85242862D01*
X63315000Y-84715439D01*
X63315000Y-84144561D01*
X63096534Y-83617138D01*
X62692862Y-83213466D01*
X62563784Y-83160000D01*
X62692862Y-83106534D01*
X63096534Y-82702862D01*
X63315000Y-82175439D01*
X63315000Y-81604561D01*
X63096534Y-81077138D01*
X62692862Y-80673466D01*
X62563784Y-80620000D01*
X62692862Y-80566534D01*
X63096534Y-80162862D01*
X63315000Y-79635439D01*
X63315000Y-79064561D01*
X63096534Y-78537138D01*
X62692862Y-78133466D01*
X62563784Y-78080000D01*
X62692862Y-78026534D01*
X63096534Y-77622862D01*
X63315000Y-77095439D01*
X63315000Y-76524561D01*
X63096534Y-75997138D01*
X62692862Y-75593466D01*
X62563784Y-75540000D01*
X62692862Y-75486534D01*
X63096534Y-75082862D01*
X63315000Y-74555439D01*
X63315000Y-73984561D01*
X63096534Y-73457138D01*
X62692862Y-73053466D01*
X62563784Y-73000000D01*
X62692862Y-72946534D01*
X63096534Y-72542862D01*
X63315000Y-72015439D01*
X63315000Y-71444561D01*
X63096534Y-70917138D01*
X62692862Y-70513466D01*
X62563784Y-70460000D01*
X62692862Y-70406534D01*
X63096534Y-70002862D01*
X63315000Y-69475439D01*
X63315000Y-68904561D01*
X63096534Y-68377138D01*
X62692862Y-67973466D01*
X62563784Y-67920000D01*
X62692862Y-67866534D01*
X63096534Y-67462862D01*
X63315000Y-66935439D01*
X63315000Y-66364561D01*
X63302642Y-66334724D01*
X67915000Y-66334724D01*
X67915000Y-66965276D01*
X68156302Y-67547830D01*
X68602170Y-67993698D01*
X69184724Y-68235000D01*
X69815276Y-68235000D01*
X70397830Y-67993698D01*
X70843698Y-67547830D01*
X71085000Y-66965276D01*
X71085000Y-66334724D01*
X70843698Y-65752170D01*
X70397830Y-65306302D01*
X69815276Y-65065000D01*
X69184724Y-65065000D01*
X68602170Y-65306302D01*
X68156302Y-65752170D01*
X67915000Y-66334724D01*
X63302642Y-66334724D01*
X63096534Y-65837138D01*
X62692862Y-65433466D01*
X62563784Y-65380000D01*
X62692862Y-65326534D01*
X63096534Y-64922862D01*
X63315000Y-64395439D01*
X63315000Y-63824561D01*
X63096534Y-63297138D01*
X62692862Y-62893466D01*
X62563784Y-62840000D01*
X62692862Y-62786534D01*
X62954672Y-62524724D01*
X67915000Y-62524724D01*
X67915000Y-63155276D01*
X68156302Y-63737830D01*
X68602170Y-64183698D01*
X69184724Y-64425000D01*
X69815276Y-64425000D01*
X70397830Y-64183698D01*
X70843698Y-63737830D01*
X71085000Y-63155276D01*
X71085000Y-62524724D01*
X70843698Y-61942170D01*
X70397830Y-61496302D01*
X69815276Y-61255000D01*
X69184724Y-61255000D01*
X68602170Y-61496302D01*
X68156302Y-61942170D01*
X67915000Y-62524724D01*
X62954672Y-62524724D01*
X63096534Y-62382862D01*
X63315000Y-61855439D01*
X63315000Y-61284561D01*
X63096534Y-60757138D01*
X62692862Y-60353466D01*
X62563784Y-60300000D01*
X62692862Y-60246534D01*
X63096534Y-59842862D01*
X63315000Y-59315439D01*
X63315000Y-58744561D01*
X73145000Y-58744561D01*
X73145000Y-59315439D01*
X73363466Y-59842862D01*
X73767138Y-60246534D01*
X74294561Y-60465000D01*
X74865439Y-60465000D01*
X75392862Y-60246534D01*
X75796534Y-59842862D01*
X75843525Y-59729417D01*
X75866136Y-59784005D01*
X76112255Y-59858139D01*
X76940395Y-59030000D01*
X77299605Y-59030000D01*
X78127745Y-59858139D01*
X78373864Y-59784005D01*
X78566965Y-59246777D01*
X78539778Y-58676546D01*
X78373864Y-58275995D01*
X78127745Y-58201861D01*
X77299605Y-59030000D01*
X76940395Y-59030000D01*
X76112255Y-58201861D01*
X75866136Y-58275995D01*
X75845126Y-58334448D01*
X75796534Y-58217138D01*
X75392862Y-57813466D01*
X74865439Y-57595000D01*
X74294561Y-57595000D01*
X73767138Y-57813466D01*
X73363466Y-58217138D01*
X73145000Y-58744561D01*
X63315000Y-58744561D01*
X63096534Y-58217138D01*
X62804396Y-57925000D01*
X62806310Y-57925000D01*
X63039699Y-57828327D01*
X63218327Y-57649698D01*
X63315000Y-57416309D01*
X63315000Y-56775750D01*
X63156250Y-56617000D01*
X62007000Y-56617000D01*
X62007000Y-56637000D01*
X61753000Y-56637000D01*
X61753000Y-56617000D01*
X60603750Y-56617000D01*
X60445000Y-56775750D01*
X60445000Y-57416309D01*
X60541673Y-57649698D01*
X60720301Y-57828327D01*
X60953690Y-57925000D01*
X60955604Y-57925000D01*
X60663466Y-58217138D01*
X60445000Y-58744561D01*
X60445000Y-59315439D01*
X60663466Y-59842862D01*
X61067138Y-60246534D01*
X61196216Y-60300000D01*
X61067138Y-60353466D01*
X60663466Y-60757138D01*
X60445000Y-61284561D01*
X60445000Y-61855439D01*
X60663466Y-62382862D01*
X61067138Y-62786534D01*
X61196216Y-62840000D01*
X61067138Y-62893466D01*
X60663466Y-63297138D01*
X60445000Y-63824561D01*
X60445000Y-64140199D01*
X59110000Y-62805199D01*
X59110000Y-55563691D01*
X60445000Y-55563691D01*
X60445000Y-56204250D01*
X60603750Y-56363000D01*
X61753000Y-56363000D01*
X61753000Y-55213750D01*
X62007000Y-55213750D01*
X62007000Y-56363000D01*
X63156250Y-56363000D01*
X63314689Y-56204561D01*
X75685000Y-56204561D01*
X75685000Y-56775439D01*
X75903466Y-57302862D01*
X76307138Y-57706534D01*
X76420583Y-57753525D01*
X76365995Y-57776136D01*
X76291861Y-58022255D01*
X77120000Y-58850395D01*
X77948139Y-58022255D01*
X77894748Y-57845000D01*
X81577560Y-57845000D01*
X81577560Y-59445000D01*
X81626843Y-59692765D01*
X81767191Y-59902809D01*
X81977235Y-60043157D01*
X82225000Y-60092440D01*
X83825000Y-60092440D01*
X84072765Y-60043157D01*
X84282809Y-59902809D01*
X84370377Y-59771756D01*
X84477235Y-59843157D01*
X84725000Y-59892440D01*
X86325000Y-59892440D01*
X86572765Y-59843157D01*
X86782809Y-59702809D01*
X86923157Y-59492765D01*
X86925000Y-59483500D01*
X86926843Y-59492765D01*
X87067191Y-59702809D01*
X87277235Y-59843157D01*
X87525000Y-59892440D01*
X89125000Y-59892440D01*
X89372765Y-59843157D01*
X89582809Y-59702809D01*
X89689965Y-59542440D01*
X89693044Y-59542440D01*
X90012138Y-59861534D01*
X90539561Y-60080000D01*
X91110439Y-60080000D01*
X91637862Y-59861534D01*
X92041534Y-59457862D01*
X92260000Y-58930439D01*
X92260000Y-58359561D01*
X92041534Y-57832138D01*
X91637862Y-57428466D01*
X91110439Y-57210000D01*
X90539561Y-57210000D01*
X90012138Y-57428466D01*
X89693044Y-57747560D01*
X89689965Y-57747560D01*
X89582809Y-57587191D01*
X89372765Y-57446843D01*
X89125000Y-57397560D01*
X87525000Y-57397560D01*
X87277235Y-57446843D01*
X87067191Y-57587191D01*
X86926843Y-57797235D01*
X86925000Y-57806500D01*
X86923157Y-57797235D01*
X86782809Y-57587191D01*
X86572765Y-57446843D01*
X86325000Y-57397560D01*
X84725000Y-57397560D01*
X84477235Y-57446843D01*
X84370377Y-57518244D01*
X84282809Y-57387191D01*
X84072765Y-57246843D01*
X83825000Y-57197560D01*
X82225000Y-57197560D01*
X81977235Y-57246843D01*
X81767191Y-57387191D01*
X81626843Y-57597235D01*
X81577560Y-57845000D01*
X77894748Y-57845000D01*
X77874005Y-57776136D01*
X77815552Y-57755126D01*
X77932862Y-57706534D01*
X78336534Y-57302862D01*
X78555000Y-56775439D01*
X78555000Y-56204561D01*
X78336534Y-55677138D01*
X77932862Y-55273466D01*
X77405439Y-55055000D01*
X76834561Y-55055000D01*
X76307138Y-55273466D01*
X75903466Y-55677138D01*
X75685000Y-56204561D01*
X63314689Y-56204561D01*
X63315000Y-56204250D01*
X63315000Y-55563691D01*
X63218327Y-55330302D01*
X63039699Y-55151673D01*
X62806310Y-55055000D01*
X62165750Y-55055000D01*
X62007000Y-55213750D01*
X61753000Y-55213750D01*
X61594250Y-55055000D01*
X60953690Y-55055000D01*
X60720301Y-55151673D01*
X60541673Y-55330302D01*
X60445000Y-55563691D01*
X59110000Y-55563691D01*
X59110000Y-55054801D01*
X60474802Y-53690000D01*
X80370199Y-53690000D01*
X81577560Y-54897362D01*
X81577560Y-55635000D01*
X81626843Y-55882765D01*
X81767191Y-56092809D01*
X81977235Y-56233157D01*
X82225000Y-56282440D01*
X83825000Y-56282440D01*
X84072765Y-56233157D01*
X84282809Y-56092809D01*
X84370377Y-55961756D01*
X84477235Y-56033157D01*
X84725000Y-56082440D01*
X86325000Y-56082440D01*
X86572765Y-56033157D01*
X86782809Y-55892809D01*
X86923157Y-55682765D01*
X86925000Y-55673500D01*
X86926843Y-55682765D01*
X87067191Y-55892809D01*
X87277235Y-56033157D01*
X87525000Y-56082440D01*
X89125000Y-56082440D01*
X89372765Y-56033157D01*
X89582809Y-55892809D01*
X89689965Y-55732440D01*
X89693044Y-55732440D01*
X90012138Y-56051534D01*
X90539561Y-56270000D01*
X91110439Y-56270000D01*
X91637862Y-56051534D01*
X92041534Y-55647862D01*
X92260000Y-55120439D01*
X92260000Y-54549561D01*
X92041534Y-54022138D01*
X91637862Y-53618466D01*
X91110439Y-53400000D01*
X90539561Y-53400000D01*
X90012138Y-53618466D01*
X89693044Y-53937560D01*
X89689965Y-53937560D01*
X89582809Y-53777191D01*
X89372765Y-53636843D01*
X89125000Y-53587560D01*
X87525000Y-53587560D01*
X87277235Y-53636843D01*
X87067191Y-53777191D01*
X86926843Y-53987235D01*
X86925000Y-53996500D01*
X86923157Y-53987235D01*
X86782809Y-53777191D01*
X86572765Y-53636843D01*
X86325000Y-53587560D01*
X84725000Y-53587560D01*
X84477235Y-53636843D01*
X84370377Y-53708244D01*
X84282809Y-53577191D01*
X84072765Y-53436843D01*
X83825000Y-53387560D01*
X82225000Y-53387560D01*
X82218629Y-53388827D01*
X81275331Y-52445530D01*
X81258272Y-52420000D01*
X94865199Y-52420000D01*
X96494670Y-54049472D01*
X96494670Y-54049472D01*
G37*
X96494670Y-54049472D02*
X96537071Y-54112929D01*
X96600527Y-54155329D01*
X96788462Y-54280904D01*
X96836605Y-54290480D01*
X97010148Y-54325000D01*
X97010152Y-54325000D01*
X97085000Y-54339888D01*
X97159848Y-54325000D01*
X112010199Y-54325000D01*
X115100000Y-57414802D01*
X115100000Y-57580874D01*
X115257569Y-57961280D01*
X115548720Y-58252431D01*
X115929126Y-58410000D01*
X116095199Y-58410000D01*
X117014721Y-59329523D01*
X116852235Y-59361843D01*
X116642191Y-59502191D01*
X116501843Y-59712235D01*
X116452560Y-59960000D01*
X116452560Y-61960000D01*
X116501843Y-62207765D01*
X116642191Y-62417809D01*
X116852235Y-62558157D01*
X117100000Y-62607440D01*
X117340000Y-62607440D01*
X117340001Y-65552560D01*
X115900000Y-65552560D01*
X115652235Y-65601843D01*
X115530000Y-65683518D01*
X115530000Y-63158709D01*
X115647431Y-63041278D01*
X115805000Y-62660872D01*
X115805000Y-62249124D01*
X115647431Y-61868718D01*
X115530000Y-61751287D01*
X115530000Y-59989846D01*
X115544888Y-59914999D01*
X115530000Y-59840152D01*
X115530000Y-59840148D01*
X115485904Y-59618463D01*
X115317929Y-59367071D01*
X115254473Y-59324671D01*
X113865331Y-57935530D01*
X113822929Y-57872071D01*
X113571537Y-57704096D01*
X113349852Y-57660000D01*
X113349847Y-57660000D01*
X113275000Y-57645112D01*
X113200153Y-57660000D01*
X113197440Y-57660000D01*
X113197440Y-57420000D01*
X113148157Y-57172235D01*
X113007809Y-56962191D01*
X112797765Y-56821843D01*
X112550000Y-56772560D01*
X110550000Y-56772560D01*
X110302235Y-56821843D01*
X110092191Y-56962191D01*
X110075907Y-56986561D01*
X109699380Y-56610034D01*
X108914678Y-56285000D01*
X108065322Y-56285000D01*
X107280620Y-56610034D01*
X106680034Y-57210620D01*
X106355000Y-57995322D01*
X106355000Y-58844678D01*
X106680034Y-59629380D01*
X107280620Y-60229966D01*
X107682526Y-60396441D01*
X107625000Y-60535322D01*
X107625000Y-61384678D01*
X107670162Y-61493709D01*
X107442608Y-61266155D01*
X106474134Y-60865000D01*
X105425866Y-60865000D01*
X104457392Y-61266155D01*
X104229838Y-61493709D01*
X104275000Y-61384678D01*
X104275000Y-60535322D01*
X104217474Y-60396441D01*
X104619380Y-60229966D01*
X105219966Y-59629380D01*
X105545000Y-58844678D01*
X105545000Y-57995322D01*
X105219966Y-57210620D01*
X104619380Y-56610034D01*
X103834678Y-56285000D01*
X102985322Y-56285000D01*
X102200620Y-56610034D01*
X101600034Y-57210620D01*
X101275000Y-57995322D01*
X101275000Y-58844678D01*
X101332526Y-58983559D01*
X100930620Y-59150034D01*
X100536109Y-59544545D01*
X100507809Y-59502191D01*
X100297765Y-59361843D01*
X100050000Y-59312560D01*
X99819423Y-59312560D01*
X99810000Y-59265186D01*
X99810000Y-59265182D01*
X99765904Y-59043497D01*
X99597929Y-58792105D01*
X99534473Y-58749705D01*
X98120000Y-57335233D01*
X98120000Y-57169160D01*
X97962431Y-56788754D01*
X97671280Y-56497603D01*
X97290874Y-56340034D01*
X96879126Y-56340034D01*
X96498720Y-56497603D01*
X96207569Y-56788754D01*
X96050000Y-57169160D01*
X96050000Y-57580908D01*
X96207569Y-57961314D01*
X96498720Y-58252465D01*
X96879126Y-58410034D01*
X97045199Y-58410034D01*
X97964693Y-59329528D01*
X97802235Y-59361843D01*
X97592191Y-59502191D01*
X97451843Y-59712235D01*
X97402560Y-59960000D01*
X97402560Y-61602639D01*
X96505530Y-62499669D01*
X96442071Y-62542071D01*
X96274096Y-62793464D01*
X96230000Y-63015149D01*
X96230000Y-63015153D01*
X96215112Y-63090000D01*
X96230000Y-63164847D01*
X96230001Y-66062044D01*
X96202560Y-66200000D01*
X96202560Y-68200000D01*
X96251843Y-68447765D01*
X96392191Y-68657809D01*
X96602235Y-68798157D01*
X96850000Y-68847440D01*
X97090000Y-68847440D01*
X97090001Y-72170197D01*
X96600529Y-72659669D01*
X96537071Y-72702071D01*
X96369096Y-72953464D01*
X96325000Y-73175149D01*
X96325000Y-73175153D01*
X96310112Y-73250000D01*
X96325000Y-73324847D01*
X96325001Y-75721306D01*
X96207587Y-75838720D01*
X96050018Y-76219126D01*
X96050018Y-76630874D01*
X96207587Y-77011280D01*
X96498738Y-77302431D01*
X96879144Y-77460000D01*
X97045217Y-77460000D01*
X97964736Y-78379520D01*
X97802235Y-78411843D01*
X97592191Y-78552191D01*
X97451843Y-78762235D01*
X97402560Y-79010000D01*
X97402560Y-81010000D01*
X97451843Y-81257765D01*
X97592191Y-81467809D01*
X97802235Y-81608157D01*
X98050000Y-81657440D01*
X98290000Y-81657440D01*
X98290001Y-84602560D01*
X96850000Y-84602560D01*
X96602235Y-84651843D01*
X96392191Y-84792191D01*
X96251843Y-85002235D01*
X96202560Y-85250000D01*
X96202560Y-87250000D01*
X96251843Y-87497765D01*
X96392191Y-87707809D01*
X96602235Y-87848157D01*
X96850000Y-87897440D01*
X98850000Y-87897440D01*
X99097765Y-87848157D01*
X99307809Y-87707809D01*
X99340115Y-87659461D01*
X99740620Y-88059966D01*
X100525322Y-88385000D01*
X101374678Y-88385000D01*
X102159380Y-88059966D01*
X102759966Y-87459380D01*
X103085000Y-86674678D01*
X103085000Y-85825322D01*
X102759966Y-85040620D01*
X102159380Y-84440034D01*
X101374678Y-84115000D01*
X100813560Y-84115000D01*
X101006697Y-84035000D01*
X101165385Y-84035000D01*
X101711185Y-83808922D01*
X102128922Y-83391185D01*
X102355000Y-82845385D01*
X102355000Y-82254615D01*
X102309596Y-82145000D01*
X102564678Y-82145000D01*
X103349380Y-81819966D01*
X103436283Y-81733063D01*
X103315000Y-82025866D01*
X103315000Y-83074134D01*
X103716155Y-84042608D01*
X104457392Y-84783845D01*
X105425866Y-85185000D01*
X106474134Y-85185000D01*
X107442608Y-84783845D01*
X108183845Y-84042608D01*
X108585000Y-83074134D01*
X108585000Y-82025866D01*
X108463717Y-81733063D01*
X108550620Y-81819966D01*
X109335322Y-82145000D01*
X109590404Y-82145000D01*
X109545000Y-82254615D01*
X109545000Y-82845385D01*
X109771078Y-83391185D01*
X110188815Y-83808922D01*
X110734615Y-84035000D01*
X110893303Y-84035000D01*
X111086440Y-84115000D01*
X110525322Y-84115000D01*
X109740620Y-84440034D01*
X109140034Y-85040620D01*
X108815000Y-85825322D01*
X108815000Y-86674678D01*
X108867970Y-86802560D01*
X107800000Y-86802560D01*
X107552235Y-86851843D01*
X107443706Y-86924360D01*
X107159380Y-86640034D01*
X106374678Y-86315000D01*
X105525322Y-86315000D01*
X104740620Y-86640034D01*
X104140034Y-87240620D01*
X103815000Y-88025322D01*
X103815000Y-88874678D01*
X104140034Y-89659380D01*
X104353654Y-89873000D01*
X95002802Y-89873000D01*
X88290000Y-83160199D01*
X88290000Y-77834846D01*
X88304888Y-77759999D01*
X88290000Y-77685152D01*
X88290000Y-77685148D01*
X88245904Y-77463463D01*
X88077929Y-77212071D01*
X88014473Y-77169671D01*
X81875000Y-71030199D01*
X81875000Y-68179846D01*
X81889888Y-68104999D01*
X81875000Y-68030152D01*
X81875000Y-68030148D01*
X81830904Y-67808463D01*
X81662929Y-67557071D01*
X81599473Y-67514671D01*
X78533103Y-64448302D01*
X78555000Y-64395439D01*
X78555000Y-63824561D01*
X78336534Y-63297138D01*
X77932862Y-62893466D01*
X77803784Y-62840000D01*
X77932862Y-62786534D01*
X78336534Y-62382862D01*
X78555000Y-61855439D01*
X78555000Y-61655000D01*
X81577560Y-61655000D01*
X81577560Y-63255000D01*
X81626843Y-63502765D01*
X81767191Y-63712809D01*
X81977235Y-63853157D01*
X82225000Y-63902440D01*
X82265000Y-63902440D01*
X82265000Y-64817560D01*
X82225000Y-64817560D01*
X81977235Y-64866843D01*
X81767191Y-65007191D01*
X81626843Y-65217235D01*
X81577560Y-65465000D01*
X81577560Y-67065000D01*
X81626843Y-67312765D01*
X81767191Y-67522809D01*
X81977235Y-67663157D01*
X82225000Y-67712440D01*
X83825000Y-67712440D01*
X84072765Y-67663157D01*
X84282809Y-67522809D01*
X84370377Y-67391756D01*
X84477235Y-67463157D01*
X84725000Y-67512440D01*
X86325000Y-67512440D01*
X86572765Y-67463157D01*
X86782809Y-67322809D01*
X86923157Y-67112765D01*
X86925000Y-67103500D01*
X86926843Y-67112765D01*
X87067191Y-67322809D01*
X87277235Y-67463157D01*
X87525000Y-67512440D01*
X89125000Y-67512440D01*
X89372765Y-67463157D01*
X89582809Y-67322809D01*
X89689965Y-67162440D01*
X89693044Y-67162440D01*
X90012138Y-67481534D01*
X90539561Y-67700000D01*
X91110439Y-67700000D01*
X91637862Y-67481534D01*
X92041534Y-67077862D01*
X92260000Y-66550439D01*
X92260000Y-65979561D01*
X92041534Y-65452138D01*
X91637862Y-65048466D01*
X91110439Y-64830000D01*
X90539561Y-64830000D01*
X90012138Y-65048466D01*
X89693044Y-65367560D01*
X89689965Y-65367560D01*
X89582809Y-65207191D01*
X89372765Y-65066843D01*
X89125000Y-65017560D01*
X87525000Y-65017560D01*
X87277235Y-65066843D01*
X87067191Y-65207191D01*
X86926843Y-65417235D01*
X86925000Y-65426500D01*
X86923157Y-65417235D01*
X86782809Y-65207191D01*
X86572765Y-65066843D01*
X86325000Y-65017560D01*
X84725000Y-65017560D01*
X84477235Y-65066843D01*
X84370377Y-65138244D01*
X84282809Y-65007191D01*
X84072765Y-64866843D01*
X83825000Y-64817560D01*
X83785000Y-64817560D01*
X83785000Y-63902440D01*
X83825000Y-63902440D01*
X84072765Y-63853157D01*
X84282809Y-63712809D01*
X84370377Y-63581756D01*
X84477235Y-63653157D01*
X84725000Y-63702440D01*
X86325000Y-63702440D01*
X86572765Y-63653157D01*
X86782809Y-63512809D01*
X86923157Y-63302765D01*
X86925000Y-63293500D01*
X86926843Y-63302765D01*
X87067191Y-63512809D01*
X87277235Y-63653157D01*
X87525000Y-63702440D01*
X89125000Y-63702440D01*
X89372765Y-63653157D01*
X89582809Y-63512809D01*
X89689965Y-63352440D01*
X89693044Y-63352440D01*
X90012138Y-63671534D01*
X90539561Y-63890000D01*
X91110439Y-63890000D01*
X91637862Y-63671534D01*
X92041534Y-63267862D01*
X92260000Y-62740439D01*
X92260000Y-62169561D01*
X92041534Y-61642138D01*
X91637862Y-61238466D01*
X91110439Y-61020000D01*
X90539561Y-61020000D01*
X90012138Y-61238466D01*
X89693044Y-61557560D01*
X89689965Y-61557560D01*
X89582809Y-61397191D01*
X89372765Y-61256843D01*
X89125000Y-61207560D01*
X87525000Y-61207560D01*
X87277235Y-61256843D01*
X87067191Y-61397191D01*
X86926843Y-61607235D01*
X86925000Y-61616500D01*
X86923157Y-61607235D01*
X86782809Y-61397191D01*
X86572765Y-61256843D01*
X86325000Y-61207560D01*
X84725000Y-61207560D01*
X84477235Y-61256843D01*
X84370377Y-61328244D01*
X84282809Y-61197191D01*
X84072765Y-61056843D01*
X83825000Y-61007560D01*
X82225000Y-61007560D01*
X81977235Y-61056843D01*
X81767191Y-61197191D01*
X81626843Y-61407235D01*
X81577560Y-61655000D01*
X78555000Y-61655000D01*
X78555000Y-61284561D01*
X78336534Y-60757138D01*
X77932862Y-60353466D01*
X77819417Y-60306475D01*
X77874005Y-60283864D01*
X77948139Y-60037745D01*
X77120000Y-59209605D01*
X76291861Y-60037745D01*
X76365995Y-60283864D01*
X76424448Y-60304874D01*
X76307138Y-60353466D01*
X75903466Y-60757138D01*
X75685000Y-61284561D01*
X75685000Y-61855439D01*
X75903466Y-62382862D01*
X76307138Y-62786534D01*
X76436216Y-62840000D01*
X76307138Y-62893466D01*
X75903466Y-63297138D01*
X75850000Y-63426216D01*
X75796534Y-63297138D01*
X75392862Y-62893466D01*
X74865439Y-62675000D01*
X74294561Y-62675000D01*
X73767138Y-62893466D01*
X73363466Y-63297138D01*
X73145000Y-63824561D01*
X73145000Y-64395439D01*
X73363466Y-64922862D01*
X73767138Y-65326534D01*
X73896216Y-65380000D01*
X73767138Y-65433466D01*
X73363466Y-65837138D01*
X73145000Y-66364561D01*
X73145000Y-66935439D01*
X73363466Y-67462862D01*
X73767138Y-67866534D01*
X73896216Y-67920000D01*
X73767138Y-67973466D01*
X73363466Y-68377138D01*
X73145000Y-68904561D01*
X73145000Y-69475439D01*
X73363466Y-70002862D01*
X73767138Y-70406534D01*
X74294561Y-70625000D01*
X74865439Y-70625000D01*
X75392862Y-70406534D01*
X75796534Y-70002862D01*
X75850000Y-69873784D01*
X75903466Y-70002862D01*
X76307138Y-70406534D01*
X76436216Y-70460000D01*
X76307138Y-70513466D01*
X75903466Y-70917138D01*
X75685000Y-71444561D01*
X75685000Y-72015439D01*
X75903466Y-72542862D01*
X76307138Y-72946534D01*
X76436216Y-73000000D01*
X76307138Y-73053466D01*
X75903466Y-73457138D01*
X75685000Y-73984561D01*
X75685000Y-74555439D01*
X75903466Y-75082862D01*
X76307138Y-75486534D01*
X76436216Y-75540000D01*
X76307138Y-75593466D01*
X75903466Y-75997138D01*
X75685000Y-76524561D01*
X75685000Y-77095439D01*
X75903466Y-77622862D01*
X76307138Y-78026534D01*
X76436216Y-78080000D01*
X76307138Y-78133466D01*
X75903466Y-78537138D01*
X75685000Y-79064561D01*
X75685000Y-79635439D01*
X75903466Y-80162862D01*
X76307138Y-80566534D01*
X76436216Y-80620000D01*
X76307138Y-80673466D01*
X75903466Y-81077138D01*
X75685000Y-81604561D01*
X75685000Y-82175439D01*
X75903466Y-82702862D01*
X76307138Y-83106534D01*
X76436216Y-83160000D01*
X76307138Y-83213466D01*
X75903466Y-83617138D01*
X75685000Y-84144561D01*
X75685000Y-84715439D01*
X75903466Y-85242862D01*
X76307138Y-85646534D01*
X76436216Y-85700000D01*
X76307138Y-85753466D01*
X75903466Y-86157138D01*
X75685000Y-86684561D01*
X75685000Y-87255439D01*
X75903466Y-87782862D01*
X76307138Y-88186534D01*
X76436216Y-88240000D01*
X76307138Y-88293466D01*
X75903466Y-88697138D01*
X75850000Y-88826216D01*
X75796534Y-88697138D01*
X75392862Y-88293466D01*
X74865439Y-88075000D01*
X74294561Y-88075000D01*
X73767138Y-88293466D01*
X73363466Y-88697138D01*
X73310000Y-88826216D01*
X73256534Y-88697138D01*
X72852862Y-88293466D01*
X72723784Y-88240000D01*
X72852862Y-88186534D01*
X73256534Y-87782862D01*
X73475000Y-87255439D01*
X73475000Y-86684561D01*
X73256534Y-86157138D01*
X72852862Y-85753466D01*
X72723784Y-85700000D01*
X72852862Y-85646534D01*
X73256534Y-85242862D01*
X73475000Y-84715439D01*
X73475000Y-84144561D01*
X73256534Y-83617138D01*
X72852862Y-83213466D01*
X72723784Y-83160000D01*
X72852862Y-83106534D01*
X73256534Y-82702862D01*
X73475000Y-82175439D01*
X73475000Y-81604561D01*
X73256534Y-81077138D01*
X72852862Y-80673466D01*
X72723784Y-80620000D01*
X72852862Y-80566534D01*
X73256534Y-80162862D01*
X73475000Y-79635439D01*
X73475000Y-79064561D01*
X73256534Y-78537138D01*
X72852862Y-78133466D01*
X72723784Y-78080000D01*
X72852862Y-78026534D01*
X73256534Y-77622862D01*
X73475000Y-77095439D01*
X73475000Y-76524561D01*
X73256534Y-75997138D01*
X72852862Y-75593466D01*
X72723784Y-75540000D01*
X72852862Y-75486534D01*
X73256534Y-75082862D01*
X73475000Y-74555439D01*
X73475000Y-73984561D01*
X73256534Y-73457138D01*
X72852862Y-73053466D01*
X72723784Y-73000000D01*
X72852862Y-72946534D01*
X73256534Y-72542862D01*
X73475000Y-72015439D01*
X73475000Y-71444561D01*
X73256534Y-70917138D01*
X72852862Y-70513466D01*
X72325439Y-70295000D01*
X71754561Y-70295000D01*
X71227138Y-70513466D01*
X70823466Y-70917138D01*
X70770000Y-71046216D01*
X70716534Y-70917138D01*
X70312862Y-70513466D01*
X69785439Y-70295000D01*
X69214561Y-70295000D01*
X68687138Y-70513466D01*
X68283466Y-70917138D01*
X68065000Y-71444561D01*
X68065000Y-72015439D01*
X68283466Y-72542862D01*
X68687138Y-72946534D01*
X68816216Y-73000000D01*
X68687138Y-73053466D01*
X68283466Y-73457138D01*
X68065000Y-73984561D01*
X68065000Y-74555439D01*
X68283466Y-75082862D01*
X68687138Y-75486534D01*
X68816216Y-75540000D01*
X68687138Y-75593466D01*
X68283466Y-75997138D01*
X68065000Y-76524561D01*
X68065000Y-77095439D01*
X68283466Y-77622862D01*
X68687138Y-78026534D01*
X68816216Y-78080000D01*
X68687138Y-78133466D01*
X68283466Y-78537138D01*
X68065000Y-79064561D01*
X68065000Y-79635439D01*
X68283466Y-80162862D01*
X68687138Y-80566534D01*
X68816216Y-80620000D01*
X68687138Y-80673466D01*
X68283466Y-81077138D01*
X68065000Y-81604561D01*
X68065000Y-82175439D01*
X68283466Y-82702862D01*
X68687138Y-83106534D01*
X68816216Y-83160000D01*
X68687138Y-83213466D01*
X68283466Y-83617138D01*
X68065000Y-84144561D01*
X68065000Y-84715439D01*
X68283466Y-85242862D01*
X68687138Y-85646534D01*
X68816216Y-85700000D01*
X68687138Y-85753466D01*
X68283466Y-86157138D01*
X68065000Y-86684561D01*
X68065000Y-87255439D01*
X68283466Y-87782862D01*
X68687138Y-88186534D01*
X68800583Y-88233525D01*
X68745995Y-88256136D01*
X68671861Y-88502255D01*
X69500000Y-89330395D01*
X70328139Y-88502255D01*
X70254005Y-88256136D01*
X70195552Y-88235126D01*
X70312862Y-88186534D01*
X70716534Y-87782862D01*
X70770000Y-87653784D01*
X70823466Y-87782862D01*
X71227138Y-88186534D01*
X71356216Y-88240000D01*
X71227138Y-88293466D01*
X70823466Y-88697138D01*
X70776475Y-88810583D01*
X70753864Y-88755995D01*
X70507745Y-88681861D01*
X69679605Y-89510000D01*
X70507745Y-90338139D01*
X70753864Y-90264005D01*
X70774874Y-90205552D01*
X70823466Y-90322862D01*
X71227138Y-90726534D01*
X71754561Y-90945000D01*
X72325439Y-90945000D01*
X72852862Y-90726534D01*
X73256534Y-90322862D01*
X73310000Y-90193784D01*
X73363466Y-90322862D01*
X73767138Y-90726534D01*
X74294561Y-90945000D01*
X74865439Y-90945000D01*
X75392862Y-90726534D01*
X75796534Y-90322862D01*
X75850000Y-90193784D01*
X75903466Y-90322862D01*
X76307138Y-90726534D01*
X76834561Y-90945000D01*
X77405439Y-90945000D01*
X77932862Y-90726534D01*
X78336534Y-90322862D01*
X78555000Y-89795439D01*
X78555000Y-89224561D01*
X78336534Y-88697138D01*
X77932862Y-88293466D01*
X77803784Y-88240000D01*
X77932862Y-88186534D01*
X78336534Y-87782862D01*
X78555000Y-87255439D01*
X78555000Y-86684561D01*
X78336534Y-86157138D01*
X77932862Y-85753466D01*
X77803784Y-85700000D01*
X77932862Y-85646534D01*
X78336534Y-85242862D01*
X78555000Y-84715439D01*
X78555000Y-84399801D01*
X85075526Y-90920329D01*
X85075531Y-90920332D01*
X89873000Y-95717802D01*
X89873000Y-104290000D01*
X76456553Y-104290000D01*
X76546982Y-104199571D01*
X76735000Y-103745657D01*
X76735000Y-103254343D01*
X76546982Y-102800429D01*
X76199571Y-102453018D01*
X75745657Y-102265000D01*
X75254343Y-102265000D01*
X74847773Y-102433407D01*
X74885000Y-102246256D01*
X74885000Y-101153745D01*
X74798839Y-100720582D01*
X74470625Y-100229375D01*
X74426662Y-100200000D01*
X74470625Y-100170625D01*
X74798839Y-99679418D01*
X74842484Y-99460000D01*
X81137560Y-99460000D01*
X81137560Y-100115000D01*
X81186843Y-100362765D01*
X81327191Y-100572809D01*
X81487560Y-100679965D01*
X81487560Y-100783044D01*
X81168466Y-101102138D01*
X80950000Y-101629561D01*
X80950000Y-102200439D01*
X81168466Y-102727862D01*
X81572138Y-103131534D01*
X82099561Y-103350000D01*
X82670439Y-103350000D01*
X83197862Y-103131534D01*
X83601534Y-102727862D01*
X83820000Y-102200439D01*
X83820000Y-101629561D01*
X83601534Y-101102138D01*
X83282440Y-100783044D01*
X83282440Y-100679965D01*
X83442809Y-100572809D01*
X83583157Y-100362765D01*
X83632440Y-100115000D01*
X83632440Y-98615000D01*
X83583157Y-98367235D01*
X83442809Y-98157191D01*
X83232765Y-98016843D01*
X83223500Y-98015000D01*
X83232765Y-98013157D01*
X83442809Y-97872809D01*
X83583157Y-97662765D01*
X83632440Y-97415000D01*
X83632440Y-95915000D01*
X83583157Y-95667235D01*
X83442809Y-95457191D01*
X83282440Y-95350035D01*
X83282440Y-95246956D01*
X83601534Y-94927862D01*
X83820000Y-94400439D01*
X83820000Y-93829561D01*
X83601534Y-93302138D01*
X83197862Y-92898466D01*
X82670439Y-92680000D01*
X82099561Y-92680000D01*
X81572138Y-92898466D01*
X81168466Y-93302138D01*
X80950000Y-93829561D01*
X80950000Y-94400439D01*
X81168466Y-94927862D01*
X81487560Y-95246956D01*
X81487560Y-95350035D01*
X81327191Y-95457191D01*
X81298494Y-95500139D01*
X80629517Y-94831162D01*
X80573169Y-94746831D01*
X80239082Y-94523601D01*
X79944476Y-94465000D01*
X79944471Y-94465000D01*
X79845000Y-94445214D01*
X79745529Y-94465000D01*
X78779966Y-94465000D01*
X78923360Y-94285618D01*
X79085000Y-93727000D01*
X79085000Y-93327000D01*
X77727000Y-93327000D01*
X77727000Y-93347000D01*
X77473000Y-93347000D01*
X77473000Y-93327000D01*
X76115000Y-93327000D01*
X76115000Y-93713974D01*
X75994476Y-93690000D01*
X75994471Y-93690000D01*
X75895000Y-93670214D01*
X75795529Y-93690000D01*
X74778405Y-93690000D01*
X74470625Y-93229375D01*
X73979418Y-92901161D01*
X73400000Y-92785908D01*
X72820583Y-92901161D01*
X72469057Y-93136043D01*
X72405918Y-93148602D01*
X72071831Y-93371831D01*
X71848602Y-93705918D01*
X71770214Y-94100000D01*
X71848602Y-94494082D01*
X71915000Y-94593454D01*
X71915000Y-95246255D01*
X72001161Y-95679417D01*
X72329375Y-96170625D01*
X72820582Y-96498839D01*
X73400000Y-96614092D01*
X73979417Y-96498839D01*
X74265000Y-96308019D01*
X74265000Y-96745657D01*
X74453018Y-97199571D01*
X74800429Y-97546982D01*
X75254343Y-97735000D01*
X75745657Y-97735000D01*
X76199571Y-97546982D01*
X76546982Y-97199571D01*
X76735000Y-96745657D01*
X76735000Y-96491857D01*
X76769472Y-96485000D01*
X79426645Y-96485000D01*
X80250482Y-97308837D01*
X80306831Y-97393169D01*
X80640918Y-97616399D01*
X80935524Y-97675000D01*
X80935528Y-97675000D01*
X81034999Y-97694786D01*
X81134470Y-97675000D01*
X81195018Y-97675000D01*
X81327191Y-97872809D01*
X81427749Y-97940000D01*
X74842484Y-97940000D01*
X74798839Y-97720582D01*
X74470625Y-97229375D01*
X73979418Y-96901161D01*
X73400000Y-96785908D01*
X72820583Y-96901161D01*
X72329375Y-97229375D01*
X72001161Y-97720582D01*
X71915000Y-98153744D01*
X71915000Y-99246255D01*
X72001161Y-99679417D01*
X72329375Y-100170625D01*
X72373338Y-100200000D01*
X72329375Y-100229375D01*
X72001161Y-100720582D01*
X71917734Y-101140000D01*
X70738430Y-101140000D01*
X70716534Y-101087138D01*
X70397440Y-100768044D01*
X70397440Y-100664965D01*
X70557809Y-100557809D01*
X70698157Y-100347765D01*
X70747440Y-100100000D01*
X70747440Y-98600000D01*
X70698157Y-98352235D01*
X70557809Y-98142191D01*
X70347765Y-98001843D01*
X70338500Y-98000000D01*
X70347765Y-97998157D01*
X70557809Y-97857809D01*
X70698157Y-97647765D01*
X70747440Y-97400000D01*
X70747440Y-95900000D01*
X70698157Y-95652235D01*
X70557809Y-95442191D01*
X70397440Y-95335035D01*
X70397440Y-95231956D01*
X70716534Y-94912862D01*
X70935000Y-94385439D01*
X70935000Y-93814561D01*
X70716534Y-93287138D01*
X70312862Y-92883466D01*
X69804753Y-92673000D01*
X76115000Y-92673000D01*
X76115000Y-93073000D01*
X77473000Y-93073000D01*
X77473000Y-91479845D01*
X77727000Y-91479845D01*
X77727000Y-93073000D01*
X79085000Y-93073000D01*
X79085000Y-92673000D01*
X78923360Y-92114382D01*
X78560251Y-91660144D01*
X78050952Y-91379438D01*
X77956890Y-91358524D01*
X77727000Y-91479845D01*
X77473000Y-91479845D01*
X77243110Y-91358524D01*
X77149048Y-91379438D01*
X76639749Y-91660144D01*
X76276640Y-92114382D01*
X76115000Y-92673000D01*
X69804753Y-92673000D01*
X69785439Y-92665000D01*
X69493356Y-92665000D01*
X67970000Y-91141645D01*
X67970000Y-90529396D01*
X67981651Y-90517745D01*
X68671861Y-90517745D01*
X68745995Y-90763864D01*
X69283223Y-90956965D01*
X69853454Y-90929778D01*
X70254005Y-90763864D01*
X70328139Y-90517745D01*
X69500000Y-89689605D01*
X68671861Y-90517745D01*
X67981651Y-90517745D01*
X68176534Y-90322862D01*
X68223525Y-90209417D01*
X68246136Y-90264005D01*
X68492255Y-90338139D01*
X69320395Y-89510000D01*
X68492255Y-88681861D01*
X68246136Y-88755995D01*
X68225126Y-88814448D01*
X68176534Y-88697138D01*
X67772862Y-88293466D01*
X67245439Y-88075000D01*
X66674561Y-88075000D01*
X66147138Y-88293466D01*
X65743466Y-88697138D01*
X65690000Y-88826216D01*
X65636534Y-88697138D01*
X65232862Y-88293466D01*
X64705439Y-88075000D01*
X64134561Y-88075000D01*
X63607138Y-88293466D01*
X63203466Y-88697138D01*
X63150000Y-88826216D01*
X63096534Y-88697138D01*
X62692862Y-88293466D01*
X62563784Y-88240000D01*
X62692862Y-88186534D01*
X63096534Y-87782862D01*
X63315000Y-87255439D01*
X63315000Y-86684561D01*
X63096534Y-86157138D01*
X62692862Y-85753466D01*
X62563784Y-85700000D01*
X62692862Y-85646534D01*
X63096534Y-85242862D01*
X63315000Y-84715439D01*
X63315000Y-84144561D01*
X63096534Y-83617138D01*
X62692862Y-83213466D01*
X62563784Y-83160000D01*
X62692862Y-83106534D01*
X63096534Y-82702862D01*
X63315000Y-82175439D01*
X63315000Y-81604561D01*
X63096534Y-81077138D01*
X62692862Y-80673466D01*
X62563784Y-80620000D01*
X62692862Y-80566534D01*
X63096534Y-80162862D01*
X63315000Y-79635439D01*
X63315000Y-79064561D01*
X63096534Y-78537138D01*
X62692862Y-78133466D01*
X62563784Y-78080000D01*
X62692862Y-78026534D01*
X63096534Y-77622862D01*
X63315000Y-77095439D01*
X63315000Y-76524561D01*
X63096534Y-75997138D01*
X62692862Y-75593466D01*
X62563784Y-75540000D01*
X62692862Y-75486534D01*
X63096534Y-75082862D01*
X63315000Y-74555439D01*
X63315000Y-73984561D01*
X63096534Y-73457138D01*
X62692862Y-73053466D01*
X62563784Y-73000000D01*
X62692862Y-72946534D01*
X63096534Y-72542862D01*
X63315000Y-72015439D01*
X63315000Y-71444561D01*
X63096534Y-70917138D01*
X62692862Y-70513466D01*
X62563784Y-70460000D01*
X62692862Y-70406534D01*
X63096534Y-70002862D01*
X63315000Y-69475439D01*
X63315000Y-68904561D01*
X63096534Y-68377138D01*
X62692862Y-67973466D01*
X62563784Y-67920000D01*
X62692862Y-67866534D01*
X63096534Y-67462862D01*
X63315000Y-66935439D01*
X63315000Y-66364561D01*
X63302642Y-66334724D01*
X67915000Y-66334724D01*
X67915000Y-66965276D01*
X68156302Y-67547830D01*
X68602170Y-67993698D01*
X69184724Y-68235000D01*
X69815276Y-68235000D01*
X70397830Y-67993698D01*
X70843698Y-67547830D01*
X71085000Y-66965276D01*
X71085000Y-66334724D01*
X70843698Y-65752170D01*
X70397830Y-65306302D01*
X69815276Y-65065000D01*
X69184724Y-65065000D01*
X68602170Y-65306302D01*
X68156302Y-65752170D01*
X67915000Y-66334724D01*
X63302642Y-66334724D01*
X63096534Y-65837138D01*
X62692862Y-65433466D01*
X62563784Y-65380000D01*
X62692862Y-65326534D01*
X63096534Y-64922862D01*
X63315000Y-64395439D01*
X63315000Y-63824561D01*
X63096534Y-63297138D01*
X62692862Y-62893466D01*
X62563784Y-62840000D01*
X62692862Y-62786534D01*
X62954672Y-62524724D01*
X67915000Y-62524724D01*
X67915000Y-63155276D01*
X68156302Y-63737830D01*
X68602170Y-64183698D01*
X69184724Y-64425000D01*
X69815276Y-64425000D01*
X70397830Y-64183698D01*
X70843698Y-63737830D01*
X71085000Y-63155276D01*
X71085000Y-62524724D01*
X70843698Y-61942170D01*
X70397830Y-61496302D01*
X69815276Y-61255000D01*
X69184724Y-61255000D01*
X68602170Y-61496302D01*
X68156302Y-61942170D01*
X67915000Y-62524724D01*
X62954672Y-62524724D01*
X63096534Y-62382862D01*
X63315000Y-61855439D01*
X63315000Y-61284561D01*
X63096534Y-60757138D01*
X62692862Y-60353466D01*
X62563784Y-60300000D01*
X62692862Y-60246534D01*
X63096534Y-59842862D01*
X63315000Y-59315439D01*
X63315000Y-58744561D01*
X73145000Y-58744561D01*
X73145000Y-59315439D01*
X73363466Y-59842862D01*
X73767138Y-60246534D01*
X74294561Y-60465000D01*
X74865439Y-60465000D01*
X75392862Y-60246534D01*
X75796534Y-59842862D01*
X75843525Y-59729417D01*
X75866136Y-59784005D01*
X76112255Y-59858139D01*
X76940395Y-59030000D01*
X77299605Y-59030000D01*
X78127745Y-59858139D01*
X78373864Y-59784005D01*
X78566965Y-59246777D01*
X78539778Y-58676546D01*
X78373864Y-58275995D01*
X78127745Y-58201861D01*
X77299605Y-59030000D01*
X76940395Y-59030000D01*
X76112255Y-58201861D01*
X75866136Y-58275995D01*
X75845126Y-58334448D01*
X75796534Y-58217138D01*
X75392862Y-57813466D01*
X74865439Y-57595000D01*
X74294561Y-57595000D01*
X73767138Y-57813466D01*
X73363466Y-58217138D01*
X73145000Y-58744561D01*
X63315000Y-58744561D01*
X63096534Y-58217138D01*
X62804396Y-57925000D01*
X62806310Y-57925000D01*
X63039699Y-57828327D01*
X63218327Y-57649698D01*
X63315000Y-57416309D01*
X63315000Y-56775750D01*
X63156250Y-56617000D01*
X62007000Y-56617000D01*
X62007000Y-56637000D01*
X61753000Y-56637000D01*
X61753000Y-56617000D01*
X60603750Y-56617000D01*
X60445000Y-56775750D01*
X60445000Y-57416309D01*
X60541673Y-57649698D01*
X60720301Y-57828327D01*
X60953690Y-57925000D01*
X60955604Y-57925000D01*
X60663466Y-58217138D01*
X60445000Y-58744561D01*
X60445000Y-59315439D01*
X60663466Y-59842862D01*
X61067138Y-60246534D01*
X61196216Y-60300000D01*
X61067138Y-60353466D01*
X60663466Y-60757138D01*
X60445000Y-61284561D01*
X60445000Y-61855439D01*
X60663466Y-62382862D01*
X61067138Y-62786534D01*
X61196216Y-62840000D01*
X61067138Y-62893466D01*
X60663466Y-63297138D01*
X60445000Y-63824561D01*
X60445000Y-64140199D01*
X59110000Y-62805199D01*
X59110000Y-55563691D01*
X60445000Y-55563691D01*
X60445000Y-56204250D01*
X60603750Y-56363000D01*
X61753000Y-56363000D01*
X61753000Y-55213750D01*
X62007000Y-55213750D01*
X62007000Y-56363000D01*
X63156250Y-56363000D01*
X63314689Y-56204561D01*
X75685000Y-56204561D01*
X75685000Y-56775439D01*
X75903466Y-57302862D01*
X76307138Y-57706534D01*
X76420583Y-57753525D01*
X76365995Y-57776136D01*
X76291861Y-58022255D01*
X77120000Y-58850395D01*
X77948139Y-58022255D01*
X77894748Y-57845000D01*
X81577560Y-57845000D01*
X81577560Y-59445000D01*
X81626843Y-59692765D01*
X81767191Y-59902809D01*
X81977235Y-60043157D01*
X82225000Y-60092440D01*
X83825000Y-60092440D01*
X84072765Y-60043157D01*
X84282809Y-59902809D01*
X84370377Y-59771756D01*
X84477235Y-59843157D01*
X84725000Y-59892440D01*
X86325000Y-59892440D01*
X86572765Y-59843157D01*
X86782809Y-59702809D01*
X86923157Y-59492765D01*
X86925000Y-59483500D01*
X86926843Y-59492765D01*
X87067191Y-59702809D01*
X87277235Y-59843157D01*
X87525000Y-59892440D01*
X89125000Y-59892440D01*
X89372765Y-59843157D01*
X89582809Y-59702809D01*
X89689965Y-59542440D01*
X89693044Y-59542440D01*
X90012138Y-59861534D01*
X90539561Y-60080000D01*
X91110439Y-60080000D01*
X91637862Y-59861534D01*
X92041534Y-59457862D01*
X92260000Y-58930439D01*
X92260000Y-58359561D01*
X92041534Y-57832138D01*
X91637862Y-57428466D01*
X91110439Y-57210000D01*
X90539561Y-57210000D01*
X90012138Y-57428466D01*
X89693044Y-57747560D01*
X89689965Y-57747560D01*
X89582809Y-57587191D01*
X89372765Y-57446843D01*
X89125000Y-57397560D01*
X87525000Y-57397560D01*
X87277235Y-57446843D01*
X87067191Y-57587191D01*
X86926843Y-57797235D01*
X86925000Y-57806500D01*
X86923157Y-57797235D01*
X86782809Y-57587191D01*
X86572765Y-57446843D01*
X86325000Y-57397560D01*
X84725000Y-57397560D01*
X84477235Y-57446843D01*
X84370377Y-57518244D01*
X84282809Y-57387191D01*
X84072765Y-57246843D01*
X83825000Y-57197560D01*
X82225000Y-57197560D01*
X81977235Y-57246843D01*
X81767191Y-57387191D01*
X81626843Y-57597235D01*
X81577560Y-57845000D01*
X77894748Y-57845000D01*
X77874005Y-57776136D01*
X77815552Y-57755126D01*
X77932862Y-57706534D01*
X78336534Y-57302862D01*
X78555000Y-56775439D01*
X78555000Y-56204561D01*
X78336534Y-55677138D01*
X77932862Y-55273466D01*
X77405439Y-55055000D01*
X76834561Y-55055000D01*
X76307138Y-55273466D01*
X75903466Y-55677138D01*
X75685000Y-56204561D01*
X63314689Y-56204561D01*
X63315000Y-56204250D01*
X63315000Y-55563691D01*
X63218327Y-55330302D01*
X63039699Y-55151673D01*
X62806310Y-55055000D01*
X62165750Y-55055000D01*
X62007000Y-55213750D01*
X61753000Y-55213750D01*
X61594250Y-55055000D01*
X60953690Y-55055000D01*
X60720301Y-55151673D01*
X60541673Y-55330302D01*
X60445000Y-55563691D01*
X59110000Y-55563691D01*
X59110000Y-55054801D01*
X60474802Y-53690000D01*
X80370199Y-53690000D01*
X81577560Y-54897362D01*
X81577560Y-55635000D01*
X81626843Y-55882765D01*
X81767191Y-56092809D01*
X81977235Y-56233157D01*
X82225000Y-56282440D01*
X83825000Y-56282440D01*
X84072765Y-56233157D01*
X84282809Y-56092809D01*
X84370377Y-55961756D01*
X84477235Y-56033157D01*
X84725000Y-56082440D01*
X86325000Y-56082440D01*
X86572765Y-56033157D01*
X86782809Y-55892809D01*
X86923157Y-55682765D01*
X86925000Y-55673500D01*
X86926843Y-55682765D01*
X87067191Y-55892809D01*
X87277235Y-56033157D01*
X87525000Y-56082440D01*
X89125000Y-56082440D01*
X89372765Y-56033157D01*
X89582809Y-55892809D01*
X89689965Y-55732440D01*
X89693044Y-55732440D01*
X90012138Y-56051534D01*
X90539561Y-56270000D01*
X91110439Y-56270000D01*
X91637862Y-56051534D01*
X92041534Y-55647862D01*
X92260000Y-55120439D01*
X92260000Y-54549561D01*
X92041534Y-54022138D01*
X91637862Y-53618466D01*
X91110439Y-53400000D01*
X90539561Y-53400000D01*
X90012138Y-53618466D01*
X89693044Y-53937560D01*
X89689965Y-53937560D01*
X89582809Y-53777191D01*
X89372765Y-53636843D01*
X89125000Y-53587560D01*
X87525000Y-53587560D01*
X87277235Y-53636843D01*
X87067191Y-53777191D01*
X86926843Y-53987235D01*
X86925000Y-53996500D01*
X86923157Y-53987235D01*
X86782809Y-53777191D01*
X86572765Y-53636843D01*
X86325000Y-53587560D01*
X84725000Y-53587560D01*
X84477235Y-53636843D01*
X84370377Y-53708244D01*
X84282809Y-53577191D01*
X84072765Y-53436843D01*
X83825000Y-53387560D01*
X82225000Y-53387560D01*
X82218629Y-53388827D01*
X81275331Y-52445530D01*
X81258272Y-52420000D01*
X94865199Y-52420000D01*
X96494670Y-54049472D01*
G36*
X136759192Y-50780578D02*
X137494389Y-50981705D01*
X138182351Y-51309846D01*
X138801331Y-51754628D01*
X139331761Y-52301988D01*
X139756884Y-52934639D01*
X140063251Y-53632561D01*
X140242499Y-54379183D01*
X140290001Y-55026044D01*
X140290000Y-89873000D01*
X129231068Y-89873000D01*
X129348157Y-89697765D01*
X129397440Y-89450000D01*
X129397440Y-89210000D01*
X132610153Y-89210000D01*
X132685000Y-89224888D01*
X132759847Y-89210000D01*
X132759852Y-89210000D01*
X132981537Y-89165904D01*
X133232929Y-88997929D01*
X133275331Y-88934470D01*
X134364463Y-87845339D01*
X134427919Y-87802939D01*
X134595894Y-87551547D01*
X134639990Y-87329862D01*
X134639990Y-87329858D01*
X134654878Y-87255011D01*
X134639990Y-87180164D01*
X134639990Y-82203711D01*
X134757421Y-82086280D01*
X134914990Y-81705874D01*
X134914990Y-81294126D01*
X134757421Y-80913720D01*
X134639990Y-80796289D01*
X134639990Y-79004838D01*
X134654878Y-78929990D01*
X134639990Y-78855142D01*
X134639990Y-78855138D01*
X134595894Y-78633453D01*
X134595894Y-78633452D01*
X134470319Y-78445517D01*
X134427919Y-78382061D01*
X134364463Y-78339661D01*
X133010331Y-76985530D01*
X132967929Y-76922071D01*
X132716537Y-76754096D01*
X132494852Y-76710000D01*
X132494847Y-76710000D01*
X132420000Y-76695112D01*
X132345153Y-76710000D01*
X132247440Y-76710000D01*
X132247440Y-76470000D01*
X132198157Y-76222235D01*
X132057809Y-76012191D01*
X131847765Y-75871843D01*
X131600000Y-75822560D01*
X129600000Y-75822560D01*
X129352235Y-75871843D01*
X129142191Y-76012191D01*
X129125907Y-76036561D01*
X128749380Y-75660034D01*
X127964678Y-75335000D01*
X127115322Y-75335000D01*
X126330620Y-75660034D01*
X125730034Y-76260620D01*
X125405000Y-77045322D01*
X125405000Y-77894678D01*
X125730034Y-78679380D01*
X126330620Y-79279966D01*
X126732526Y-79446441D01*
X126675000Y-79585322D01*
X126675000Y-80434678D01*
X126720162Y-80543709D01*
X126492608Y-80316155D01*
X125524134Y-79915000D01*
X124475866Y-79915000D01*
X123507392Y-80316155D01*
X123279838Y-80543709D01*
X123325000Y-80434678D01*
X123325000Y-79585322D01*
X123267474Y-79446441D01*
X123669380Y-79279966D01*
X124269966Y-78679380D01*
X124595000Y-77894678D01*
X124595000Y-77045322D01*
X124269966Y-76260620D01*
X123669380Y-75660034D01*
X122884678Y-75335000D01*
X122035322Y-75335000D01*
X121250620Y-75660034D01*
X120650034Y-76260620D01*
X120325000Y-77045322D01*
X120325000Y-77894678D01*
X120382526Y-78033559D01*
X119980620Y-78200034D01*
X119586109Y-78594545D01*
X119557809Y-78552191D01*
X119347765Y-78411843D01*
X119100000Y-78362560D01*
X118869430Y-78362560D01*
X118860000Y-78315152D01*
X118860000Y-78315148D01*
X118815904Y-78093463D01*
X118647929Y-77842071D01*
X118584473Y-77799671D01*
X117170000Y-76385199D01*
X117170000Y-76219126D01*
X117012431Y-75838720D01*
X116895000Y-75721289D01*
X116895000Y-73564802D01*
X117384475Y-73075327D01*
X117447929Y-73032929D01*
X117490327Y-72969476D01*
X117490329Y-72969474D01*
X117615903Y-72781538D01*
X117615904Y-72781537D01*
X117660000Y-72559852D01*
X117660000Y-72559848D01*
X117674888Y-72485001D01*
X117660000Y-72410154D01*
X117660000Y-68847440D01*
X117900000Y-68847440D01*
X118147765Y-68798157D01*
X118357809Y-68657809D01*
X118390115Y-68609461D01*
X118790620Y-69009966D01*
X119575322Y-69335000D01*
X120424678Y-69335000D01*
X121209380Y-69009966D01*
X121809966Y-68409380D01*
X122135000Y-67624678D01*
X122135000Y-66775322D01*
X121809966Y-65990620D01*
X121209380Y-65390034D01*
X120424678Y-65065000D01*
X119863560Y-65065000D01*
X120056697Y-64985000D01*
X120215385Y-64985000D01*
X120761185Y-64758922D01*
X121178922Y-64341185D01*
X121405000Y-63795385D01*
X121405000Y-63204615D01*
X121359596Y-63095000D01*
X121614678Y-63095000D01*
X122399380Y-62769966D01*
X122486283Y-62683063D01*
X122365000Y-62975866D01*
X122365000Y-64024134D01*
X122766155Y-64992608D01*
X123507392Y-65733845D01*
X124475866Y-66135000D01*
X125524134Y-66135000D01*
X126492608Y-65733845D01*
X127233845Y-64992608D01*
X127635000Y-64024134D01*
X127635000Y-62975866D01*
X127513717Y-62683063D01*
X127600620Y-62769966D01*
X128385322Y-63095000D01*
X128640404Y-63095000D01*
X128595000Y-63204615D01*
X128595000Y-63795385D01*
X128821078Y-64341185D01*
X129238815Y-64758922D01*
X129784615Y-64985000D01*
X129943303Y-64985000D01*
X130136440Y-65065000D01*
X129575322Y-65065000D01*
X128790620Y-65390034D01*
X128190034Y-65990620D01*
X127865000Y-66775322D01*
X127865000Y-67624678D01*
X127917970Y-67752560D01*
X126850000Y-67752560D01*
X126602235Y-67801843D01*
X126493706Y-67874360D01*
X126209380Y-67590034D01*
X125424678Y-67265000D01*
X124575322Y-67265000D01*
X123790620Y-67590034D01*
X123190034Y-68190620D01*
X122865000Y-68975322D01*
X122865000Y-69824678D01*
X123190034Y-70609380D01*
X123790620Y-71209966D01*
X124575322Y-71535000D01*
X124625143Y-71535000D01*
X124413732Y-71622569D01*
X124122581Y-71913720D01*
X123965012Y-72294126D01*
X123965012Y-72705874D01*
X124122581Y-73086280D01*
X124413732Y-73377431D01*
X124794138Y-73535000D01*
X125205886Y-73535000D01*
X125586292Y-73377431D01*
X125703723Y-73260000D01*
X126335153Y-73260000D01*
X126410000Y-73274888D01*
X126484847Y-73260000D01*
X126484852Y-73260000D01*
X126706537Y-73215904D01*
X126957929Y-73047929D01*
X127000331Y-72984470D01*
X128284473Y-71700329D01*
X128347929Y-71657929D01*
X128430068Y-71535000D01*
X128515904Y-71406538D01*
X128525480Y-71358395D01*
X128560000Y-71184852D01*
X128560000Y-71184848D01*
X128574888Y-71110000D01*
X128562444Y-71047440D01*
X128750000Y-71047440D01*
X128997765Y-70998157D01*
X129207809Y-70857809D01*
X129348157Y-70647765D01*
X129397440Y-70400000D01*
X129397440Y-70160000D01*
X132610153Y-70160000D01*
X132685000Y-70174888D01*
X132759847Y-70160000D01*
X132759852Y-70160000D01*
X132981537Y-70115904D01*
X133232929Y-69947929D01*
X133275331Y-69884470D01*
X134484473Y-68675329D01*
X134547929Y-68632929D01*
X134674526Y-68443464D01*
X134715904Y-68381538D01*
X134725480Y-68333395D01*
X134760000Y-68159852D01*
X134760000Y-68159848D01*
X134774888Y-68085000D01*
X134760000Y-68010152D01*
X134760000Y-63203753D01*
X134877431Y-63086322D01*
X135035000Y-62705916D01*
X135035000Y-62294168D01*
X134877431Y-61913762D01*
X134760000Y-61796331D01*
X134760000Y-60074846D01*
X134774888Y-59999999D01*
X134760000Y-59925152D01*
X134760000Y-59925148D01*
X134715904Y-59703463D01*
X134666403Y-59629380D01*
X134590329Y-59515526D01*
X134590327Y-59515524D01*
X134547929Y-59452071D01*
X134484476Y-59409673D01*
X133010331Y-57935530D01*
X132967929Y-57872071D01*
X132716537Y-57704096D01*
X132494852Y-57660000D01*
X132494847Y-57660000D01*
X132420000Y-57645112D01*
X132345153Y-57660000D01*
X132247440Y-57660000D01*
X132247440Y-57420000D01*
X132198157Y-57172235D01*
X132057809Y-56962191D01*
X131847765Y-56821843D01*
X131600000Y-56772560D01*
X129600000Y-56772560D01*
X129352235Y-56821843D01*
X129142191Y-56962191D01*
X129125907Y-56986561D01*
X128749380Y-56610034D01*
X127964678Y-56285000D01*
X127115322Y-56285000D01*
X126330620Y-56610034D01*
X125730034Y-57210620D01*
X125405000Y-57995322D01*
X125405000Y-58844678D01*
X125730034Y-59629380D01*
X126330620Y-60229966D01*
X126732526Y-60396441D01*
X126675000Y-60535322D01*
X126675000Y-61384678D01*
X126720162Y-61493709D01*
X126492608Y-61266155D01*
X125524134Y-60865000D01*
X124475866Y-60865000D01*
X123507392Y-61266155D01*
X123279838Y-61493709D01*
X123325000Y-61384678D01*
X123325000Y-60535322D01*
X123267474Y-60396441D01*
X123669380Y-60229966D01*
X124269966Y-59629380D01*
X124595000Y-58844678D01*
X124595000Y-57995322D01*
X124269966Y-57210620D01*
X123669380Y-56610034D01*
X122884678Y-56285000D01*
X122035322Y-56285000D01*
X121250620Y-56610034D01*
X120650034Y-57210620D01*
X120325000Y-57995322D01*
X120325000Y-58844678D01*
X120382526Y-58983559D01*
X119980620Y-59150034D01*
X119586109Y-59544545D01*
X119557809Y-59502191D01*
X119347765Y-59361843D01*
X119100000Y-59312560D01*
X118869430Y-59312560D01*
X118860000Y-59265152D01*
X118860000Y-59265148D01*
X118815904Y-59043463D01*
X118647929Y-58792071D01*
X118584473Y-58749671D01*
X117170000Y-57335199D01*
X117170000Y-57169126D01*
X117012431Y-56788720D01*
X116721280Y-56497569D01*
X116340874Y-56340000D01*
X116174802Y-56340000D01*
X112915331Y-53080530D01*
X112872929Y-53017071D01*
X112621537Y-52849096D01*
X112399852Y-52805000D01*
X112399847Y-52805000D01*
X112325000Y-52790112D01*
X112250153Y-52805000D01*
X97399802Y-52805000D01*
X95770331Y-51175530D01*
X95727929Y-51112071D01*
X95476537Y-50944096D01*
X95254852Y-50900000D01*
X95254847Y-50900000D01*
X95180000Y-50885112D01*
X95105153Y-50900000D01*
X58329846Y-50900000D01*
X58254999Y-50885112D01*
X58180152Y-50900000D01*
X58180148Y-50900000D01*
X57958463Y-50944096D01*
X57707071Y-51112071D01*
X57664671Y-51175527D01*
X55325528Y-53514671D01*
X55262072Y-53557071D01*
X55219672Y-53620527D01*
X55219671Y-53620528D01*
X55094097Y-53808463D01*
X55035112Y-54105000D01*
X55050001Y-54179852D01*
X55050000Y-65585153D01*
X55035112Y-65660000D01*
X55050000Y-65734847D01*
X55050000Y-65734851D01*
X55094096Y-65956536D01*
X55262071Y-66207929D01*
X55325530Y-66250331D01*
X60466896Y-71391699D01*
X60445000Y-71444561D01*
X60445000Y-72015439D01*
X60663466Y-72542862D01*
X61067138Y-72946534D01*
X61196216Y-73000000D01*
X61067138Y-73053466D01*
X60663466Y-73457138D01*
X60445000Y-73984561D01*
X60445000Y-74555439D01*
X60663466Y-75082862D01*
X61067138Y-75486534D01*
X61196216Y-75540000D01*
X61067138Y-75593466D01*
X60663466Y-75997138D01*
X60641570Y-76050000D01*
X59374848Y-76050000D01*
X59300000Y-76035112D01*
X59225152Y-76050000D01*
X59225148Y-76050000D01*
X59051605Y-76084520D01*
X59003462Y-76094096D01*
X58816418Y-76219076D01*
X58752071Y-76262071D01*
X58709671Y-76325527D01*
X58161395Y-76873803D01*
X58251476Y-76703110D01*
X58081645Y-76293076D01*
X57691358Y-75864817D01*
X57166892Y-75618514D01*
X56937000Y-75739181D01*
X56937000Y-76933000D01*
X56957000Y-76933000D01*
X56957000Y-77187000D01*
X56937000Y-77187000D01*
X56937000Y-77207000D01*
X56683000Y-77207000D01*
X56683000Y-77187000D01*
X55489845Y-77187000D01*
X55368524Y-77416890D01*
X55538355Y-77826924D01*
X55928642Y-78255183D01*
X56058478Y-78316157D01*
X55739375Y-78529375D01*
X55411161Y-79020582D01*
X55295908Y-79600000D01*
X55411161Y-80179418D01*
X55739375Y-80670625D01*
X56037761Y-80870000D01*
X55739375Y-81069375D01*
X55411161Y-81560582D01*
X55295908Y-82140000D01*
X55411161Y-82719418D01*
X55739375Y-83210625D01*
X56037761Y-83410000D01*
X55739375Y-83609375D01*
X55411161Y-84100582D01*
X55295908Y-84680000D01*
X55411161Y-85259418D01*
X55739375Y-85750625D01*
X56037761Y-85950000D01*
X55739375Y-86149375D01*
X55411161Y-86640582D01*
X55295908Y-87220000D01*
X55411161Y-87799418D01*
X55739375Y-88290625D01*
X56037761Y-88490000D01*
X55739375Y-88689375D01*
X55411161Y-89180582D01*
X55295908Y-89760000D01*
X55411161Y-90339418D01*
X55739375Y-90830625D01*
X56037761Y-91030000D01*
X55739375Y-91229375D01*
X55411161Y-91720582D01*
X55295908Y-92300000D01*
X55411161Y-92879418D01*
X55739375Y-93370625D01*
X55757619Y-93382816D01*
X55712235Y-93391843D01*
X55502191Y-93532191D01*
X55361843Y-93742235D01*
X55312560Y-93990000D01*
X55312560Y-95690000D01*
X55361843Y-95937765D01*
X55502191Y-96147809D01*
X55712235Y-96288157D01*
X55960000Y-96337440D01*
X57660000Y-96337440D01*
X57907765Y-96288157D01*
X58117809Y-96147809D01*
X58258157Y-95937765D01*
X58307440Y-95690000D01*
X58307440Y-93990000D01*
X58258157Y-93742235D01*
X58117809Y-93532191D01*
X57907765Y-93391843D01*
X57862381Y-93382816D01*
X57880625Y-93370625D01*
X58208839Y-92879418D01*
X58324092Y-92300000D01*
X58208839Y-91720582D01*
X57880625Y-91229375D01*
X57582239Y-91030000D01*
X57880625Y-90830625D01*
X58208839Y-90339418D01*
X58324092Y-89760000D01*
X58208839Y-89180582D01*
X57880625Y-88689375D01*
X57582239Y-88490000D01*
X57880625Y-88290625D01*
X58208839Y-87799418D01*
X58324092Y-87220000D01*
X58208839Y-86640582D01*
X57880625Y-86149375D01*
X57582239Y-85950000D01*
X57880625Y-85750625D01*
X58208839Y-85259418D01*
X58324092Y-84680000D01*
X58208839Y-84100582D01*
X57880625Y-83609375D01*
X57582239Y-83410000D01*
X57880625Y-83210625D01*
X58208839Y-82719418D01*
X58324092Y-82140000D01*
X58208839Y-81560582D01*
X57880625Y-81069375D01*
X57582239Y-80870000D01*
X57880625Y-80670625D01*
X58208839Y-80179418D01*
X58324092Y-79600000D01*
X58208839Y-79020582D01*
X58190967Y-78993834D01*
X59614802Y-77570000D01*
X60641570Y-77570000D01*
X60663466Y-77622862D01*
X61067138Y-78026534D01*
X61196216Y-78080000D01*
X61067138Y-78133466D01*
X60663466Y-78537138D01*
X60445000Y-79064561D01*
X60445000Y-79635439D01*
X60663466Y-80162862D01*
X61067138Y-80566534D01*
X61196216Y-80620000D01*
X61067138Y-80673466D01*
X60663466Y-81077138D01*
X60445000Y-81604561D01*
X60445000Y-82175439D01*
X60466896Y-82228302D01*
X59515530Y-83179669D01*
X59452071Y-83222071D01*
X59284096Y-83473464D01*
X59240000Y-83695149D01*
X59240000Y-83695153D01*
X59225112Y-83770000D01*
X59240000Y-83844847D01*
X59240001Y-96939328D01*
X59225643Y-97028679D01*
X59257350Y-97162071D01*
X59284097Y-97296537D01*
X59292192Y-97308652D01*
X59295562Y-97322830D01*
X59375902Y-97433932D01*
X59452072Y-97547929D01*
X59527319Y-97598208D01*
X59947832Y-97988684D01*
X59915000Y-98153744D01*
X59915000Y-99246255D01*
X60001161Y-99679417D01*
X60329375Y-100170625D01*
X60373338Y-100200000D01*
X60329375Y-100229375D01*
X60001161Y-100720582D01*
X59915000Y-101153744D01*
X59915000Y-102246255D01*
X60001161Y-102679417D01*
X60329375Y-103170625D01*
X60820582Y-103498839D01*
X61400000Y-103614092D01*
X61979417Y-103498839D01*
X62265000Y-103308019D01*
X62265000Y-103745657D01*
X62453018Y-104199571D01*
X62543447Y-104290000D01*
X55031618Y-104290000D01*
X54240807Y-104219422D01*
X53505611Y-104018295D01*
X52817645Y-103690152D01*
X52198672Y-103245374D01*
X51668239Y-102698012D01*
X51243117Y-102065362D01*
X50936749Y-101367439D01*
X50757501Y-100620819D01*
X50710000Y-99973970D01*
X50710000Y-76703110D01*
X55368524Y-76703110D01*
X55489845Y-76933000D01*
X56683000Y-76933000D01*
X56683000Y-75739181D01*
X56453108Y-75618514D01*
X55928642Y-75864817D01*
X55538355Y-76293076D01*
X55368524Y-76703110D01*
X50710000Y-76703110D01*
X50710000Y-55031618D01*
X50780578Y-54240808D01*
X50981705Y-53505611D01*
X51309846Y-52817649D01*
X51754628Y-52198669D01*
X52301988Y-51668239D01*
X52934639Y-51243116D01*
X53632561Y-50936749D01*
X54379183Y-50757501D01*
X55026030Y-50710000D01*
X135968382Y-50710000D01*
X136759192Y-50780578D01*
X136759192Y-50780578D01*
G37*
X136759192Y-50780578D02*
X137494389Y-50981705D01*
X138182351Y-51309846D01*
X138801331Y-51754628D01*
X139331761Y-52301988D01*
X139756884Y-52934639D01*
X140063251Y-53632561D01*
X140242499Y-54379183D01*
X140290001Y-55026044D01*
X140290000Y-89873000D01*
X129231068Y-89873000D01*
X129348157Y-89697765D01*
X129397440Y-89450000D01*
X129397440Y-89210000D01*
X132610153Y-89210000D01*
X132685000Y-89224888D01*
X132759847Y-89210000D01*
X132759852Y-89210000D01*
X132981537Y-89165904D01*
X133232929Y-88997929D01*
X133275331Y-88934470D01*
X134364463Y-87845339D01*
X134427919Y-87802939D01*
X134595894Y-87551547D01*
X134639990Y-87329862D01*
X134639990Y-87329858D01*
X134654878Y-87255011D01*
X134639990Y-87180164D01*
X134639990Y-82203711D01*
X134757421Y-82086280D01*
X134914990Y-81705874D01*
X134914990Y-81294126D01*
X134757421Y-80913720D01*
X134639990Y-80796289D01*
X134639990Y-79004838D01*
X134654878Y-78929990D01*
X134639990Y-78855142D01*
X134639990Y-78855138D01*
X134595894Y-78633453D01*
X134595894Y-78633452D01*
X134470319Y-78445517D01*
X134427919Y-78382061D01*
X134364463Y-78339661D01*
X133010331Y-76985530D01*
X132967929Y-76922071D01*
X132716537Y-76754096D01*
X132494852Y-76710000D01*
X132494847Y-76710000D01*
X132420000Y-76695112D01*
X132345153Y-76710000D01*
X132247440Y-76710000D01*
X132247440Y-76470000D01*
X132198157Y-76222235D01*
X132057809Y-76012191D01*
X131847765Y-75871843D01*
X131600000Y-75822560D01*
X129600000Y-75822560D01*
X129352235Y-75871843D01*
X129142191Y-76012191D01*
X129125907Y-76036561D01*
X128749380Y-75660034D01*
X127964678Y-75335000D01*
X127115322Y-75335000D01*
X126330620Y-75660034D01*
X125730034Y-76260620D01*
X125405000Y-77045322D01*
X125405000Y-77894678D01*
X125730034Y-78679380D01*
X126330620Y-79279966D01*
X126732526Y-79446441D01*
X126675000Y-79585322D01*
X126675000Y-80434678D01*
X126720162Y-80543709D01*
X126492608Y-80316155D01*
X125524134Y-79915000D01*
X124475866Y-79915000D01*
X123507392Y-80316155D01*
X123279838Y-80543709D01*
X123325000Y-80434678D01*
X123325000Y-79585322D01*
X123267474Y-79446441D01*
X123669380Y-79279966D01*
X124269966Y-78679380D01*
X124595000Y-77894678D01*
X124595000Y-77045322D01*
X124269966Y-76260620D01*
X123669380Y-75660034D01*
X122884678Y-75335000D01*
X122035322Y-75335000D01*
X121250620Y-75660034D01*
X120650034Y-76260620D01*
X120325000Y-77045322D01*
X120325000Y-77894678D01*
X120382526Y-78033559D01*
X119980620Y-78200034D01*
X119586109Y-78594545D01*
X119557809Y-78552191D01*
X119347765Y-78411843D01*
X119100000Y-78362560D01*
X118869430Y-78362560D01*
X118860000Y-78315152D01*
X118860000Y-78315148D01*
X118815904Y-78093463D01*
X118647929Y-77842071D01*
X118584473Y-77799671D01*
X117170000Y-76385199D01*
X117170000Y-76219126D01*
X117012431Y-75838720D01*
X116895000Y-75721289D01*
X116895000Y-73564802D01*
X117384475Y-73075327D01*
X117447929Y-73032929D01*
X117490327Y-72969476D01*
X117490329Y-72969474D01*
X117615903Y-72781538D01*
X117615904Y-72781537D01*
X117660000Y-72559852D01*
X117660000Y-72559848D01*
X117674888Y-72485001D01*
X117660000Y-72410154D01*
X117660000Y-68847440D01*
X117900000Y-68847440D01*
X118147765Y-68798157D01*
X118357809Y-68657809D01*
X118390115Y-68609461D01*
X118790620Y-69009966D01*
X119575322Y-69335000D01*
X120424678Y-69335000D01*
X121209380Y-69009966D01*
X121809966Y-68409380D01*
X122135000Y-67624678D01*
X122135000Y-66775322D01*
X121809966Y-65990620D01*
X121209380Y-65390034D01*
X120424678Y-65065000D01*
X119863560Y-65065000D01*
X120056697Y-64985000D01*
X120215385Y-64985000D01*
X120761185Y-64758922D01*
X121178922Y-64341185D01*
X121405000Y-63795385D01*
X121405000Y-63204615D01*
X121359596Y-63095000D01*
X121614678Y-63095000D01*
X122399380Y-62769966D01*
X122486283Y-62683063D01*
X122365000Y-62975866D01*
X122365000Y-64024134D01*
X122766155Y-64992608D01*
X123507392Y-65733845D01*
X124475866Y-66135000D01*
X125524134Y-66135000D01*
X126492608Y-65733845D01*
X127233845Y-64992608D01*
X127635000Y-64024134D01*
X127635000Y-62975866D01*
X127513717Y-62683063D01*
X127600620Y-62769966D01*
X128385322Y-63095000D01*
X128640404Y-63095000D01*
X128595000Y-63204615D01*
X128595000Y-63795385D01*
X128821078Y-64341185D01*
X129238815Y-64758922D01*
X129784615Y-64985000D01*
X129943303Y-64985000D01*
X130136440Y-65065000D01*
X129575322Y-65065000D01*
X128790620Y-65390034D01*
X128190034Y-65990620D01*
X127865000Y-66775322D01*
X127865000Y-67624678D01*
X127917970Y-67752560D01*
X126850000Y-67752560D01*
X126602235Y-67801843D01*
X126493706Y-67874360D01*
X126209380Y-67590034D01*
X125424678Y-67265000D01*
X124575322Y-67265000D01*
X123790620Y-67590034D01*
X123190034Y-68190620D01*
X122865000Y-68975322D01*
X122865000Y-69824678D01*
X123190034Y-70609380D01*
X123790620Y-71209966D01*
X124575322Y-71535000D01*
X124625143Y-71535000D01*
X124413732Y-71622569D01*
X124122581Y-71913720D01*
X123965012Y-72294126D01*
X123965012Y-72705874D01*
X124122581Y-73086280D01*
X124413732Y-73377431D01*
X124794138Y-73535000D01*
X125205886Y-73535000D01*
X125586292Y-73377431D01*
X125703723Y-73260000D01*
X126335153Y-73260000D01*
X126410000Y-73274888D01*
X126484847Y-73260000D01*
X126484852Y-73260000D01*
X126706537Y-73215904D01*
X126957929Y-73047929D01*
X127000331Y-72984470D01*
X128284473Y-71700329D01*
X128347929Y-71657929D01*
X128430068Y-71535000D01*
X128515904Y-71406538D01*
X128525480Y-71358395D01*
X128560000Y-71184852D01*
X128560000Y-71184848D01*
X128574888Y-71110000D01*
X128562444Y-71047440D01*
X128750000Y-71047440D01*
X128997765Y-70998157D01*
X129207809Y-70857809D01*
X129348157Y-70647765D01*
X129397440Y-70400000D01*
X129397440Y-70160000D01*
X132610153Y-70160000D01*
X132685000Y-70174888D01*
X132759847Y-70160000D01*
X132759852Y-70160000D01*
X132981537Y-70115904D01*
X133232929Y-69947929D01*
X133275331Y-69884470D01*
X134484473Y-68675329D01*
X134547929Y-68632929D01*
X134674526Y-68443464D01*
X134715904Y-68381538D01*
X134725480Y-68333395D01*
X134760000Y-68159852D01*
X134760000Y-68159848D01*
X134774888Y-68085000D01*
X134760000Y-68010152D01*
X134760000Y-63203753D01*
X134877431Y-63086322D01*
X135035000Y-62705916D01*
X135035000Y-62294168D01*
X134877431Y-61913762D01*
X134760000Y-61796331D01*
X134760000Y-60074846D01*
X134774888Y-59999999D01*
X134760000Y-59925152D01*
X134760000Y-59925148D01*
X134715904Y-59703463D01*
X134666403Y-59629380D01*
X134590329Y-59515526D01*
X134590327Y-59515524D01*
X134547929Y-59452071D01*
X134484476Y-59409673D01*
X133010331Y-57935530D01*
X132967929Y-57872071D01*
X132716537Y-57704096D01*
X132494852Y-57660000D01*
X132494847Y-57660000D01*
X132420000Y-57645112D01*
X132345153Y-57660000D01*
X132247440Y-57660000D01*
X132247440Y-57420000D01*
X132198157Y-57172235D01*
X132057809Y-56962191D01*
X131847765Y-56821843D01*
X131600000Y-56772560D01*
X129600000Y-56772560D01*
X129352235Y-56821843D01*
X129142191Y-56962191D01*
X129125907Y-56986561D01*
X128749380Y-56610034D01*
X127964678Y-56285000D01*
X127115322Y-56285000D01*
X126330620Y-56610034D01*
X125730034Y-57210620D01*
X125405000Y-57995322D01*
X125405000Y-58844678D01*
X125730034Y-59629380D01*
X126330620Y-60229966D01*
X126732526Y-60396441D01*
X126675000Y-60535322D01*
X126675000Y-61384678D01*
X126720162Y-61493709D01*
X126492608Y-61266155D01*
X125524134Y-60865000D01*
X124475866Y-60865000D01*
X123507392Y-61266155D01*
X123279838Y-61493709D01*
X123325000Y-61384678D01*
X123325000Y-60535322D01*
X123267474Y-60396441D01*
X123669380Y-60229966D01*
X124269966Y-59629380D01*
X124595000Y-58844678D01*
X124595000Y-57995322D01*
X124269966Y-57210620D01*
X123669380Y-56610034D01*
X122884678Y-56285000D01*
X122035322Y-56285000D01*
X121250620Y-56610034D01*
X120650034Y-57210620D01*
X120325000Y-57995322D01*
X120325000Y-58844678D01*
X120382526Y-58983559D01*
X119980620Y-59150034D01*
X119586109Y-59544545D01*
X119557809Y-59502191D01*
X119347765Y-59361843D01*
X119100000Y-59312560D01*
X118869430Y-59312560D01*
X118860000Y-59265152D01*
X118860000Y-59265148D01*
X118815904Y-59043463D01*
X118647929Y-58792071D01*
X118584473Y-58749671D01*
X117170000Y-57335199D01*
X117170000Y-57169126D01*
X117012431Y-56788720D01*
X116721280Y-56497569D01*
X116340874Y-56340000D01*
X116174802Y-56340000D01*
X112915331Y-53080530D01*
X112872929Y-53017071D01*
X112621537Y-52849096D01*
X112399852Y-52805000D01*
X112399847Y-52805000D01*
X112325000Y-52790112D01*
X112250153Y-52805000D01*
X97399802Y-52805000D01*
X95770331Y-51175530D01*
X95727929Y-51112071D01*
X95476537Y-50944096D01*
X95254852Y-50900000D01*
X95254847Y-50900000D01*
X95180000Y-50885112D01*
X95105153Y-50900000D01*
X58329846Y-50900000D01*
X58254999Y-50885112D01*
X58180152Y-50900000D01*
X58180148Y-50900000D01*
X57958463Y-50944096D01*
X57707071Y-51112071D01*
X57664671Y-51175527D01*
X55325528Y-53514671D01*
X55262072Y-53557071D01*
X55219672Y-53620527D01*
X55219671Y-53620528D01*
X55094097Y-53808463D01*
X55035112Y-54105000D01*
X55050001Y-54179852D01*
X55050000Y-65585153D01*
X55035112Y-65660000D01*
X55050000Y-65734847D01*
X55050000Y-65734851D01*
X55094096Y-65956536D01*
X55262071Y-66207929D01*
X55325530Y-66250331D01*
X60466896Y-71391699D01*
X60445000Y-71444561D01*
X60445000Y-72015439D01*
X60663466Y-72542862D01*
X61067138Y-72946534D01*
X61196216Y-73000000D01*
X61067138Y-73053466D01*
X60663466Y-73457138D01*
X60445000Y-73984561D01*
X60445000Y-74555439D01*
X60663466Y-75082862D01*
X61067138Y-75486534D01*
X61196216Y-75540000D01*
X61067138Y-75593466D01*
X60663466Y-75997138D01*
X60641570Y-76050000D01*
X59374848Y-76050000D01*
X59300000Y-76035112D01*
X59225152Y-76050000D01*
X59225148Y-76050000D01*
X59051605Y-76084520D01*
X59003462Y-76094096D01*
X58816418Y-76219076D01*
X58752071Y-76262071D01*
X58709671Y-76325527D01*
X58161395Y-76873803D01*
X58251476Y-76703110D01*
X58081645Y-76293076D01*
X57691358Y-75864817D01*
X57166892Y-75618514D01*
X56937000Y-75739181D01*
X56937000Y-76933000D01*
X56957000Y-76933000D01*
X56957000Y-77187000D01*
X56937000Y-77187000D01*
X56937000Y-77207000D01*
X56683000Y-77207000D01*
X56683000Y-77187000D01*
X55489845Y-77187000D01*
X55368524Y-77416890D01*
X55538355Y-77826924D01*
X55928642Y-78255183D01*
X56058478Y-78316157D01*
X55739375Y-78529375D01*
X55411161Y-79020582D01*
X55295908Y-79600000D01*
X55411161Y-80179418D01*
X55739375Y-80670625D01*
X56037761Y-80870000D01*
X55739375Y-81069375D01*
X55411161Y-81560582D01*
X55295908Y-82140000D01*
X55411161Y-82719418D01*
X55739375Y-83210625D01*
X56037761Y-83410000D01*
X55739375Y-83609375D01*
X55411161Y-84100582D01*
X55295908Y-84680000D01*
X55411161Y-85259418D01*
X55739375Y-85750625D01*
X56037761Y-85950000D01*
X55739375Y-86149375D01*
X55411161Y-86640582D01*
X55295908Y-87220000D01*
X55411161Y-87799418D01*
X55739375Y-88290625D01*
X56037761Y-88490000D01*
X55739375Y-88689375D01*
X55411161Y-89180582D01*
X55295908Y-89760000D01*
X55411161Y-90339418D01*
X55739375Y-90830625D01*
X56037761Y-91030000D01*
X55739375Y-91229375D01*
X55411161Y-91720582D01*
X55295908Y-92300000D01*
X55411161Y-92879418D01*
X55739375Y-93370625D01*
X55757619Y-93382816D01*
X55712235Y-93391843D01*
X55502191Y-93532191D01*
X55361843Y-93742235D01*
X55312560Y-93990000D01*
X55312560Y-95690000D01*
X55361843Y-95937765D01*
X55502191Y-96147809D01*
X55712235Y-96288157D01*
X55960000Y-96337440D01*
X57660000Y-96337440D01*
X57907765Y-96288157D01*
X58117809Y-96147809D01*
X58258157Y-95937765D01*
X58307440Y-95690000D01*
X58307440Y-93990000D01*
X58258157Y-93742235D01*
X58117809Y-93532191D01*
X57907765Y-93391843D01*
X57862381Y-93382816D01*
X57880625Y-93370625D01*
X58208839Y-92879418D01*
X58324092Y-92300000D01*
X58208839Y-91720582D01*
X57880625Y-91229375D01*
X57582239Y-91030000D01*
X57880625Y-90830625D01*
X58208839Y-90339418D01*
X58324092Y-89760000D01*
X58208839Y-89180582D01*
X57880625Y-88689375D01*
X57582239Y-88490000D01*
X57880625Y-88290625D01*
X58208839Y-87799418D01*
X58324092Y-87220000D01*
X58208839Y-86640582D01*
X57880625Y-86149375D01*
X57582239Y-85950000D01*
X57880625Y-85750625D01*
X58208839Y-85259418D01*
X58324092Y-84680000D01*
X58208839Y-84100582D01*
X57880625Y-83609375D01*
X57582239Y-83410000D01*
X57880625Y-83210625D01*
X58208839Y-82719418D01*
X58324092Y-82140000D01*
X58208839Y-81560582D01*
X57880625Y-81069375D01*
X57582239Y-80870000D01*
X57880625Y-80670625D01*
X58208839Y-80179418D01*
X58324092Y-79600000D01*
X58208839Y-79020582D01*
X58190967Y-78993834D01*
X59614802Y-77570000D01*
X60641570Y-77570000D01*
X60663466Y-77622862D01*
X61067138Y-78026534D01*
X61196216Y-78080000D01*
X61067138Y-78133466D01*
X60663466Y-78537138D01*
X60445000Y-79064561D01*
X60445000Y-79635439D01*
X60663466Y-80162862D01*
X61067138Y-80566534D01*
X61196216Y-80620000D01*
X61067138Y-80673466D01*
X60663466Y-81077138D01*
X60445000Y-81604561D01*
X60445000Y-82175439D01*
X60466896Y-82228302D01*
X59515530Y-83179669D01*
X59452071Y-83222071D01*
X59284096Y-83473464D01*
X59240000Y-83695149D01*
X59240000Y-83695153D01*
X59225112Y-83770000D01*
X59240000Y-83844847D01*
X59240001Y-96939328D01*
X59225643Y-97028679D01*
X59257350Y-97162071D01*
X59284097Y-97296537D01*
X59292192Y-97308652D01*
X59295562Y-97322830D01*
X59375902Y-97433932D01*
X59452072Y-97547929D01*
X59527319Y-97598208D01*
X59947832Y-97988684D01*
X59915000Y-98153744D01*
X59915000Y-99246255D01*
X60001161Y-99679417D01*
X60329375Y-100170625D01*
X60373338Y-100200000D01*
X60329375Y-100229375D01*
X60001161Y-100720582D01*
X59915000Y-101153744D01*
X59915000Y-102246255D01*
X60001161Y-102679417D01*
X60329375Y-103170625D01*
X60820582Y-103498839D01*
X61400000Y-103614092D01*
X61979417Y-103498839D01*
X62265000Y-103308019D01*
X62265000Y-103745657D01*
X62453018Y-104199571D01*
X62543447Y-104290000D01*
X55031618Y-104290000D01*
X54240807Y-104219422D01*
X53505611Y-104018295D01*
X52817645Y-103690152D01*
X52198672Y-103245374D01*
X51668239Y-102698012D01*
X51243117Y-102065362D01*
X50936749Y-101367439D01*
X50757501Y-100620819D01*
X50710000Y-99973970D01*
X50710000Y-76703110D01*
X55368524Y-76703110D01*
X55489845Y-76933000D01*
X56683000Y-76933000D01*
X56683000Y-75739181D01*
X56453108Y-75618514D01*
X55928642Y-75864817D01*
X55538355Y-76293076D01*
X55368524Y-76703110D01*
X50710000Y-76703110D01*
X50710000Y-55031618D01*
X50780578Y-54240808D01*
X50981705Y-53505611D01*
X51309846Y-52817649D01*
X51754628Y-52198669D01*
X52301988Y-51668239D01*
X52934639Y-51243116D01*
X53632561Y-50936749D01*
X54379183Y-50757501D01*
X55026030Y-50710000D01*
X135968382Y-50710000D01*
X136759192Y-50780578D01*
G36*
X78494097Y-72276537D02*
X78662072Y-72527929D01*
X78725528Y-72570329D01*
X83530000Y-77374802D01*
X83530001Y-83970148D01*
X83515112Y-84045000D01*
X83574097Y-84341537D01*
X83681363Y-84502071D01*
X83742072Y-84592929D01*
X83805528Y-84635329D01*
X89873000Y-90702801D01*
X89873000Y-93568198D01*
X86150332Y-89845531D01*
X86150329Y-89845526D01*
X78533103Y-82228302D01*
X78555000Y-82175439D01*
X78555000Y-81604561D01*
X78336534Y-81077138D01*
X77932862Y-80673466D01*
X77803784Y-80620000D01*
X77932862Y-80566534D01*
X78336534Y-80162862D01*
X78555000Y-79635439D01*
X78555000Y-79064561D01*
X78336534Y-78537138D01*
X77932862Y-78133466D01*
X77803784Y-78080000D01*
X77932862Y-78026534D01*
X78336534Y-77622862D01*
X78555000Y-77095439D01*
X78555000Y-76524561D01*
X78336534Y-75997138D01*
X77932862Y-75593466D01*
X77803784Y-75540000D01*
X77932862Y-75486534D01*
X78336534Y-75082862D01*
X78555000Y-74555439D01*
X78555000Y-73984561D01*
X78336534Y-73457138D01*
X77932862Y-73053466D01*
X77803784Y-73000000D01*
X77932862Y-72946534D01*
X78336534Y-72542862D01*
X78478769Y-72199477D01*
X78494097Y-72276537D01*
X78494097Y-72276537D01*
G37*
X78494097Y-72276537D02*
X78662072Y-72527929D01*
X78725528Y-72570329D01*
X83530000Y-77374802D01*
X83530001Y-83970148D01*
X83515112Y-84045000D01*
X83574097Y-84341537D01*
X83681363Y-84502071D01*
X83742072Y-84592929D01*
X83805528Y-84635329D01*
X89873000Y-90702801D01*
X89873000Y-93568198D01*
X86150332Y-89845531D01*
X86150329Y-89845526D01*
X78533103Y-82228302D01*
X78555000Y-82175439D01*
X78555000Y-81604561D01*
X78336534Y-81077138D01*
X77932862Y-80673466D01*
X77803784Y-80620000D01*
X77932862Y-80566534D01*
X78336534Y-80162862D01*
X78555000Y-79635439D01*
X78555000Y-79064561D01*
X78336534Y-78537138D01*
X77932862Y-78133466D01*
X77803784Y-78080000D01*
X77932862Y-78026534D01*
X78336534Y-77622862D01*
X78555000Y-77095439D01*
X78555000Y-76524561D01*
X78336534Y-75997138D01*
X77932862Y-75593466D01*
X77803784Y-75540000D01*
X77932862Y-75486534D01*
X78336534Y-75082862D01*
X78555000Y-74555439D01*
X78555000Y-73984561D01*
X78336534Y-73457138D01*
X77932862Y-73053466D01*
X77803784Y-73000000D01*
X77932862Y-72946534D01*
X78336534Y-72542862D01*
X78478769Y-72199477D01*
X78494097Y-72276537D01*
G36*
X127600620Y-81819966D02*
X128385322Y-82145000D01*
X128640404Y-82145000D01*
X128595000Y-82254615D01*
X128595000Y-82845385D01*
X128821078Y-83391185D01*
X129238815Y-83808922D01*
X129784615Y-84035000D01*
X129943303Y-84035000D01*
X130136440Y-84115000D01*
X129575322Y-84115000D01*
X128790620Y-84440034D01*
X128190034Y-85040620D01*
X127865000Y-85825322D01*
X127865000Y-86674678D01*
X127917970Y-86802560D01*
X126850000Y-86802560D01*
X126602235Y-86851843D01*
X126493706Y-86924360D01*
X126209380Y-86640034D01*
X125424678Y-86315000D01*
X124575322Y-86315000D01*
X123790620Y-86640034D01*
X123190034Y-87240620D01*
X122865000Y-88025322D01*
X122865000Y-88874678D01*
X123190034Y-89659380D01*
X123403654Y-89873000D01*
X110181068Y-89873000D01*
X110298157Y-89697765D01*
X110347440Y-89450000D01*
X110347440Y-89210000D01*
X113560153Y-89210000D01*
X113635000Y-89224888D01*
X113709847Y-89210000D01*
X113709852Y-89210000D01*
X113931537Y-89165904D01*
X114182929Y-88997929D01*
X114225331Y-88934470D01*
X115254476Y-87905327D01*
X115317929Y-87862929D01*
X115360327Y-87799476D01*
X115360329Y-87799474D01*
X115431884Y-87692384D01*
X115442191Y-87707809D01*
X115652235Y-87848157D01*
X115900000Y-87897440D01*
X117900000Y-87897440D01*
X118147765Y-87848157D01*
X118357809Y-87707809D01*
X118390115Y-87659461D01*
X118790620Y-88059966D01*
X119575322Y-88385000D01*
X120424678Y-88385000D01*
X121209380Y-88059966D01*
X121809966Y-87459380D01*
X122135000Y-86674678D01*
X122135000Y-85825322D01*
X121809966Y-85040620D01*
X121209380Y-84440034D01*
X120424678Y-84115000D01*
X119863560Y-84115000D01*
X120056697Y-84035000D01*
X120215385Y-84035000D01*
X120761185Y-83808922D01*
X121178922Y-83391185D01*
X121405000Y-82845385D01*
X121405000Y-82254615D01*
X121359596Y-82145000D01*
X121614678Y-82145000D01*
X122399380Y-81819966D01*
X122486283Y-81733063D01*
X122365000Y-82025866D01*
X122365000Y-83074134D01*
X122766155Y-84042608D01*
X123507392Y-84783845D01*
X124475866Y-85185000D01*
X125524134Y-85185000D01*
X126492608Y-84783845D01*
X127233845Y-84042608D01*
X127635000Y-83074134D01*
X127635000Y-82025866D01*
X127513717Y-81733063D01*
X127600620Y-81819966D01*
X127600620Y-81819966D01*
G37*
X127600620Y-81819966D02*
X128385322Y-82145000D01*
X128640404Y-82145000D01*
X128595000Y-82254615D01*
X128595000Y-82845385D01*
X128821078Y-83391185D01*
X129238815Y-83808922D01*
X129784615Y-84035000D01*
X129943303Y-84035000D01*
X130136440Y-84115000D01*
X129575322Y-84115000D01*
X128790620Y-84440034D01*
X128190034Y-85040620D01*
X127865000Y-85825322D01*
X127865000Y-86674678D01*
X127917970Y-86802560D01*
X126850000Y-86802560D01*
X126602235Y-86851843D01*
X126493706Y-86924360D01*
X126209380Y-86640034D01*
X125424678Y-86315000D01*
X124575322Y-86315000D01*
X123790620Y-86640034D01*
X123190034Y-87240620D01*
X122865000Y-88025322D01*
X122865000Y-88874678D01*
X123190034Y-89659380D01*
X123403654Y-89873000D01*
X110181068Y-89873000D01*
X110298157Y-89697765D01*
X110347440Y-89450000D01*
X110347440Y-89210000D01*
X113560153Y-89210000D01*
X113635000Y-89224888D01*
X113709847Y-89210000D01*
X113709852Y-89210000D01*
X113931537Y-89165904D01*
X114182929Y-88997929D01*
X114225331Y-88934470D01*
X115254476Y-87905327D01*
X115317929Y-87862929D01*
X115360327Y-87799476D01*
X115360329Y-87799474D01*
X115431884Y-87692384D01*
X115442191Y-87707809D01*
X115652235Y-87848157D01*
X115900000Y-87897440D01*
X117900000Y-87897440D01*
X118147765Y-87848157D01*
X118357809Y-87707809D01*
X118390115Y-87659461D01*
X118790620Y-88059966D01*
X119575322Y-88385000D01*
X120424678Y-88385000D01*
X121209380Y-88059966D01*
X121809966Y-87459380D01*
X122135000Y-86674678D01*
X122135000Y-85825322D01*
X121809966Y-85040620D01*
X121209380Y-84440034D01*
X120424678Y-84115000D01*
X119863560Y-84115000D01*
X120056697Y-84035000D01*
X120215385Y-84035000D01*
X120761185Y-83808922D01*
X121178922Y-83391185D01*
X121405000Y-82845385D01*
X121405000Y-82254615D01*
X121359596Y-82145000D01*
X121614678Y-82145000D01*
X122399380Y-81819966D01*
X122486283Y-81733063D01*
X122365000Y-82025866D01*
X122365000Y-83074134D01*
X122766155Y-84042608D01*
X123507392Y-84783845D01*
X124475866Y-85185000D01*
X125524134Y-85185000D01*
X126492608Y-84783845D01*
X127233845Y-84042608D01*
X127635000Y-83074134D01*
X127635000Y-82025866D01*
X127513717Y-81733063D01*
X127600620Y-81819966D01*
G36*
X80355000Y-68419802D02*
X80355001Y-71270148D01*
X80340112Y-71345000D01*
X80399097Y-71641537D01*
X80458206Y-71729999D01*
X80567072Y-71892929D01*
X80630528Y-71935329D01*
X86770000Y-78074802D01*
X86770001Y-83400148D01*
X86755112Y-83475000D01*
X86770001Y-83549852D01*
X86814097Y-83771537D01*
X86982072Y-84022929D01*
X87045528Y-84065329D01*
X92853198Y-89873000D01*
X91192801Y-89873000D01*
X85050000Y-83730199D01*
X85050000Y-77134847D01*
X85064888Y-77060000D01*
X85050000Y-76985153D01*
X85050000Y-76985148D01*
X85005904Y-76763463D01*
X84837929Y-76512071D01*
X84774473Y-76469671D01*
X79970000Y-71665199D01*
X79970000Y-68814846D01*
X79984888Y-68739999D01*
X79970000Y-68665152D01*
X79970000Y-68665148D01*
X79925904Y-68443463D01*
X79856673Y-68339851D01*
X79800329Y-68255526D01*
X79800327Y-68255524D01*
X79757929Y-68192071D01*
X79694476Y-68149673D01*
X78533104Y-66988302D01*
X78555000Y-66935439D01*
X78555000Y-66619801D01*
X80355000Y-68419802D01*
X80355000Y-68419802D01*
G37*
X80355000Y-68419802D02*
X80355001Y-71270148D01*
X80340112Y-71345000D01*
X80399097Y-71641537D01*
X80458206Y-71729999D01*
X80567072Y-71892929D01*
X80630528Y-71935329D01*
X86770000Y-78074802D01*
X86770001Y-83400148D01*
X86755112Y-83475000D01*
X86770001Y-83549852D01*
X86814097Y-83771537D01*
X86982072Y-84022929D01*
X87045528Y-84065329D01*
X92853198Y-89873000D01*
X91192801Y-89873000D01*
X85050000Y-83730199D01*
X85050000Y-77134847D01*
X85064888Y-77060000D01*
X85050000Y-76985153D01*
X85050000Y-76985148D01*
X85005904Y-76763463D01*
X84837929Y-76512071D01*
X84774473Y-76469671D01*
X79970000Y-71665199D01*
X79970000Y-68814846D01*
X79984888Y-68739999D01*
X79970000Y-68665152D01*
X79970000Y-68665148D01*
X79925904Y-68443463D01*
X79856673Y-68339851D01*
X79800329Y-68255526D01*
X79800327Y-68255524D01*
X79757929Y-68192071D01*
X79694476Y-68149673D01*
X78533104Y-66988302D01*
X78555000Y-66935439D01*
X78555000Y-66619801D01*
X80355000Y-68419802D01*
G36*
X133119990Y-79244792D02*
X133119991Y-80796288D01*
X133002559Y-80913720D01*
X132844990Y-81294126D01*
X132844990Y-81705874D01*
X133002559Y-82086280D01*
X133119991Y-82203712D01*
X133119990Y-86940208D01*
X132370199Y-87690000D01*
X131579346Y-87690000D01*
X131809966Y-87459380D01*
X132135000Y-86674678D01*
X132135000Y-85825322D01*
X131809966Y-85040620D01*
X131209380Y-84440034D01*
X130472962Y-84135000D01*
X130815276Y-84135000D01*
X131397830Y-83893698D01*
X131843698Y-83447830D01*
X132085000Y-82865276D01*
X132085000Y-82234724D01*
X131843698Y-81652170D01*
X131397830Y-81206302D01*
X130815276Y-80965000D01*
X130725334Y-80965000D01*
X130945000Y-80434678D01*
X130945000Y-79585322D01*
X130751197Y-79117440D01*
X131600000Y-79117440D01*
X131847765Y-79068157D01*
X132057809Y-78927809D01*
X132198157Y-78717765D01*
X132247440Y-78470000D01*
X132247440Y-78372241D01*
X133119990Y-79244792D01*
X133119990Y-79244792D01*
G37*
X133119990Y-79244792D02*
X133119991Y-80796288D01*
X133002559Y-80913720D01*
X132844990Y-81294126D01*
X132844990Y-81705874D01*
X133002559Y-82086280D01*
X133119991Y-82203712D01*
X133119990Y-86940208D01*
X132370199Y-87690000D01*
X131579346Y-87690000D01*
X131809966Y-87459380D01*
X132135000Y-86674678D01*
X132135000Y-85825322D01*
X131809966Y-85040620D01*
X131209380Y-84440034D01*
X130472962Y-84135000D01*
X130815276Y-84135000D01*
X131397830Y-83893698D01*
X131843698Y-83447830D01*
X132085000Y-82865276D01*
X132085000Y-82234724D01*
X131843698Y-81652170D01*
X131397830Y-81206302D01*
X130815276Y-80965000D01*
X130725334Y-80965000D01*
X130945000Y-80434678D01*
X130945000Y-79585322D01*
X130751197Y-79117440D01*
X131600000Y-79117440D01*
X131847765Y-79068157D01*
X132057809Y-78927809D01*
X132198157Y-78717765D01*
X132247440Y-78470000D01*
X132247440Y-78372241D01*
X133119990Y-79244792D01*
G36*
X114010000Y-79914802D02*
X114010001Y-80801288D01*
X113892569Y-80918720D01*
X113735000Y-81299126D01*
X113735000Y-81710874D01*
X113892569Y-82091280D01*
X114010001Y-82208712D01*
X114010000Y-87000197D01*
X113320199Y-87690000D01*
X112529346Y-87690000D01*
X112759966Y-87459380D01*
X113085000Y-86674678D01*
X113085000Y-85825322D01*
X112759966Y-85040620D01*
X112159380Y-84440034D01*
X111422962Y-84135000D01*
X111765276Y-84135000D01*
X112347830Y-83893698D01*
X112793698Y-83447830D01*
X113035000Y-82865276D01*
X113035000Y-82234724D01*
X112793698Y-81652170D01*
X112347830Y-81206302D01*
X111765276Y-80965000D01*
X111675334Y-80965000D01*
X111895000Y-80434678D01*
X111895000Y-79585322D01*
X111701197Y-79117440D01*
X112550000Y-79117440D01*
X112797765Y-79068157D01*
X113007809Y-78927809D01*
X113013897Y-78918698D01*
X114010000Y-79914802D01*
X114010000Y-79914802D01*
G37*
X114010000Y-79914802D02*
X114010001Y-80801288D01*
X113892569Y-80918720D01*
X113735000Y-81299126D01*
X113735000Y-81710874D01*
X113892569Y-82091280D01*
X114010001Y-82208712D01*
X114010000Y-87000197D01*
X113320199Y-87690000D01*
X112529346Y-87690000D01*
X112759966Y-87459380D01*
X113085000Y-86674678D01*
X113085000Y-85825322D01*
X112759966Y-85040620D01*
X112159380Y-84440034D01*
X111422962Y-84135000D01*
X111765276Y-84135000D01*
X112347830Y-83893698D01*
X112793698Y-83447830D01*
X113035000Y-82865276D01*
X113035000Y-82234724D01*
X112793698Y-81652170D01*
X112347830Y-81206302D01*
X111765276Y-80965000D01*
X111675334Y-80965000D01*
X111895000Y-80434678D01*
X111895000Y-79585322D01*
X111701197Y-79117440D01*
X112550000Y-79117440D01*
X112797765Y-79068157D01*
X113007809Y-78927809D01*
X113013897Y-78918698D01*
X114010000Y-79914802D01*
G36*
X108550620Y-62769966D02*
X109335322Y-63095000D01*
X109590404Y-63095000D01*
X109545000Y-63204615D01*
X109545000Y-63795385D01*
X109771078Y-64341185D01*
X110188815Y-64758922D01*
X110734615Y-64985000D01*
X110893303Y-64985000D01*
X111086440Y-65065000D01*
X110525322Y-65065000D01*
X109740620Y-65390034D01*
X109140034Y-65990620D01*
X108815000Y-66775322D01*
X108815000Y-67624678D01*
X108867970Y-67752560D01*
X107800000Y-67752560D01*
X107552235Y-67801843D01*
X107443706Y-67874360D01*
X107159380Y-67590034D01*
X106374678Y-67265000D01*
X105525322Y-67265000D01*
X104740620Y-67590034D01*
X104140034Y-68190620D01*
X103815000Y-68975322D01*
X103815000Y-69824678D01*
X104140034Y-70609380D01*
X104740620Y-71209966D01*
X105525322Y-71535000D01*
X105625125Y-71535000D01*
X105413714Y-71622569D01*
X105122563Y-71913720D01*
X104964994Y-72294126D01*
X104964994Y-72705874D01*
X105122563Y-73086280D01*
X105413714Y-73377431D01*
X105794120Y-73535000D01*
X106205868Y-73535000D01*
X106586274Y-73377431D01*
X106703705Y-73260000D01*
X107285153Y-73260000D01*
X107360000Y-73274888D01*
X107434847Y-73260000D01*
X107434852Y-73260000D01*
X107656537Y-73215904D01*
X107907929Y-73047929D01*
X107950331Y-72984470D01*
X109234473Y-71700329D01*
X109297929Y-71657929D01*
X109380068Y-71535000D01*
X109465904Y-71406538D01*
X109475480Y-71358395D01*
X109510000Y-71184852D01*
X109510000Y-71184848D01*
X109524888Y-71110000D01*
X109512444Y-71047440D01*
X109700000Y-71047440D01*
X109947765Y-70998157D01*
X110157809Y-70857809D01*
X110298157Y-70647765D01*
X110347440Y-70400000D01*
X110347440Y-70160000D01*
X113560153Y-70160000D01*
X113635000Y-70174888D01*
X113709847Y-70160000D01*
X113709852Y-70160000D01*
X113931537Y-70115904D01*
X114182929Y-69947929D01*
X114225331Y-69884470D01*
X115254476Y-68855327D01*
X115317929Y-68812929D01*
X115360327Y-68749476D01*
X115360329Y-68749474D01*
X115431884Y-68642384D01*
X115442191Y-68657809D01*
X115652235Y-68798157D01*
X115900000Y-68847440D01*
X116140000Y-68847440D01*
X116140001Y-72170197D01*
X115650529Y-72659669D01*
X115587071Y-72702071D01*
X115419096Y-72953464D01*
X115375000Y-73175149D01*
X115375000Y-73175153D01*
X115360112Y-73250000D01*
X115375000Y-73324847D01*
X115375001Y-75721288D01*
X115257569Y-75838720D01*
X115100000Y-76219126D01*
X115100000Y-76630874D01*
X115257569Y-77011280D01*
X115548720Y-77302431D01*
X115929126Y-77460000D01*
X116095199Y-77460000D01*
X117014721Y-78379523D01*
X116852235Y-78411843D01*
X116642191Y-78552191D01*
X116501843Y-78762235D01*
X116452560Y-79010000D01*
X116452560Y-81010000D01*
X116501843Y-81257765D01*
X116642191Y-81467809D01*
X116852235Y-81608157D01*
X117100000Y-81657440D01*
X117340000Y-81657440D01*
X117340001Y-84602560D01*
X115900000Y-84602560D01*
X115652235Y-84651843D01*
X115530000Y-84733518D01*
X115530000Y-82208711D01*
X115647431Y-82091280D01*
X115805000Y-81710874D01*
X115805000Y-81299126D01*
X115647431Y-80918720D01*
X115530000Y-80801289D01*
X115530000Y-79674847D01*
X115544888Y-79600000D01*
X115530000Y-79525153D01*
X115530000Y-79525148D01*
X115485904Y-79303463D01*
X115317929Y-79052071D01*
X115254473Y-79009671D01*
X113230331Y-76985530D01*
X113197440Y-76936305D01*
X113197440Y-76470000D01*
X113148157Y-76222235D01*
X113007809Y-76012191D01*
X112797765Y-75871843D01*
X112550000Y-75822560D01*
X110550000Y-75822560D01*
X110302235Y-75871843D01*
X110092191Y-76012191D01*
X110075907Y-76036561D01*
X109699380Y-75660034D01*
X108914678Y-75335000D01*
X108065322Y-75335000D01*
X107280620Y-75660034D01*
X106680034Y-76260620D01*
X106355000Y-77045322D01*
X106355000Y-77894678D01*
X106680034Y-78679380D01*
X107280620Y-79279966D01*
X107682526Y-79446441D01*
X107625000Y-79585322D01*
X107625000Y-80434678D01*
X107670162Y-80543709D01*
X107442608Y-80316155D01*
X106474134Y-79915000D01*
X105425866Y-79915000D01*
X104457392Y-80316155D01*
X104229838Y-80543709D01*
X104275000Y-80434678D01*
X104275000Y-79585322D01*
X104217474Y-79446441D01*
X104619380Y-79279966D01*
X105219966Y-78679380D01*
X105545000Y-77894678D01*
X105545000Y-77045322D01*
X105219966Y-76260620D01*
X104619380Y-75660034D01*
X103834678Y-75335000D01*
X102985322Y-75335000D01*
X102200620Y-75660034D01*
X101600034Y-76260620D01*
X101275000Y-77045322D01*
X101275000Y-77894678D01*
X101332526Y-78033559D01*
X100930620Y-78200034D01*
X100536109Y-78594545D01*
X100507809Y-78552191D01*
X100297765Y-78411843D01*
X100050000Y-78362560D01*
X99819434Y-78362560D01*
X99810000Y-78315134D01*
X99810000Y-78315130D01*
X99765904Y-78093445D01*
X99597929Y-77842053D01*
X99534473Y-77799653D01*
X98120018Y-76385199D01*
X98120018Y-76219126D01*
X97962449Y-75838720D01*
X97845000Y-75721271D01*
X97845000Y-73564802D01*
X98334475Y-73075327D01*
X98397929Y-73032929D01*
X98440327Y-72969476D01*
X98440329Y-72969474D01*
X98565903Y-72781538D01*
X98565904Y-72781537D01*
X98610000Y-72559852D01*
X98610000Y-72559848D01*
X98624888Y-72485001D01*
X98610000Y-72410154D01*
X98610000Y-68847440D01*
X98850000Y-68847440D01*
X99097765Y-68798157D01*
X99307809Y-68657809D01*
X99340115Y-68609461D01*
X99740620Y-69009966D01*
X100525322Y-69335000D01*
X101374678Y-69335000D01*
X102159380Y-69009966D01*
X102759966Y-68409380D01*
X103085000Y-67624678D01*
X103085000Y-66775322D01*
X102759966Y-65990620D01*
X102159380Y-65390034D01*
X101374678Y-65065000D01*
X100813560Y-65065000D01*
X101006697Y-64985000D01*
X101165385Y-64985000D01*
X101711185Y-64758922D01*
X102128922Y-64341185D01*
X102355000Y-63795385D01*
X102355000Y-63204615D01*
X102309596Y-63095000D01*
X102564678Y-63095000D01*
X103349380Y-62769966D01*
X103436283Y-62683063D01*
X103315000Y-62975866D01*
X103315000Y-64024134D01*
X103716155Y-64992608D01*
X104457392Y-65733845D01*
X105425866Y-66135000D01*
X106474134Y-66135000D01*
X107442608Y-65733845D01*
X108183845Y-64992608D01*
X108585000Y-64024134D01*
X108585000Y-62975866D01*
X108463717Y-62683063D01*
X108550620Y-62769966D01*
X108550620Y-62769966D01*
G37*
X108550620Y-62769966D02*
X109335322Y-63095000D01*
X109590404Y-63095000D01*
X109545000Y-63204615D01*
X109545000Y-63795385D01*
X109771078Y-64341185D01*
X110188815Y-64758922D01*
X110734615Y-64985000D01*
X110893303Y-64985000D01*
X111086440Y-65065000D01*
X110525322Y-65065000D01*
X109740620Y-65390034D01*
X109140034Y-65990620D01*
X108815000Y-66775322D01*
X108815000Y-67624678D01*
X108867970Y-67752560D01*
X107800000Y-67752560D01*
X107552235Y-67801843D01*
X107443706Y-67874360D01*
X107159380Y-67590034D01*
X106374678Y-67265000D01*
X105525322Y-67265000D01*
X104740620Y-67590034D01*
X104140034Y-68190620D01*
X103815000Y-68975322D01*
X103815000Y-69824678D01*
X104140034Y-70609380D01*
X104740620Y-71209966D01*
X105525322Y-71535000D01*
X105625125Y-71535000D01*
X105413714Y-71622569D01*
X105122563Y-71913720D01*
X104964994Y-72294126D01*
X104964994Y-72705874D01*
X105122563Y-73086280D01*
X105413714Y-73377431D01*
X105794120Y-73535000D01*
X106205868Y-73535000D01*
X106586274Y-73377431D01*
X106703705Y-73260000D01*
X107285153Y-73260000D01*
X107360000Y-73274888D01*
X107434847Y-73260000D01*
X107434852Y-73260000D01*
X107656537Y-73215904D01*
X107907929Y-73047929D01*
X107950331Y-72984470D01*
X109234473Y-71700329D01*
X109297929Y-71657929D01*
X109380068Y-71535000D01*
X109465904Y-71406538D01*
X109475480Y-71358395D01*
X109510000Y-71184852D01*
X109510000Y-71184848D01*
X109524888Y-71110000D01*
X109512444Y-71047440D01*
X109700000Y-71047440D01*
X109947765Y-70998157D01*
X110157809Y-70857809D01*
X110298157Y-70647765D01*
X110347440Y-70400000D01*
X110347440Y-70160000D01*
X113560153Y-70160000D01*
X113635000Y-70174888D01*
X113709847Y-70160000D01*
X113709852Y-70160000D01*
X113931537Y-70115904D01*
X114182929Y-69947929D01*
X114225331Y-69884470D01*
X115254476Y-68855327D01*
X115317929Y-68812929D01*
X115360327Y-68749476D01*
X115360329Y-68749474D01*
X115431884Y-68642384D01*
X115442191Y-68657809D01*
X115652235Y-68798157D01*
X115900000Y-68847440D01*
X116140000Y-68847440D01*
X116140001Y-72170197D01*
X115650529Y-72659669D01*
X115587071Y-72702071D01*
X115419096Y-72953464D01*
X115375000Y-73175149D01*
X115375000Y-73175153D01*
X115360112Y-73250000D01*
X115375000Y-73324847D01*
X115375001Y-75721288D01*
X115257569Y-75838720D01*
X115100000Y-76219126D01*
X115100000Y-76630874D01*
X115257569Y-77011280D01*
X115548720Y-77302431D01*
X115929126Y-77460000D01*
X116095199Y-77460000D01*
X117014721Y-78379523D01*
X116852235Y-78411843D01*
X116642191Y-78552191D01*
X116501843Y-78762235D01*
X116452560Y-79010000D01*
X116452560Y-81010000D01*
X116501843Y-81257765D01*
X116642191Y-81467809D01*
X116852235Y-81608157D01*
X117100000Y-81657440D01*
X117340000Y-81657440D01*
X117340001Y-84602560D01*
X115900000Y-84602560D01*
X115652235Y-84651843D01*
X115530000Y-84733518D01*
X115530000Y-82208711D01*
X115647431Y-82091280D01*
X115805000Y-81710874D01*
X115805000Y-81299126D01*
X115647431Y-80918720D01*
X115530000Y-80801289D01*
X115530000Y-79674847D01*
X115544888Y-79600000D01*
X115530000Y-79525153D01*
X115530000Y-79525148D01*
X115485904Y-79303463D01*
X115317929Y-79052071D01*
X115254473Y-79009671D01*
X113230331Y-76985530D01*
X113197440Y-76936305D01*
X113197440Y-76470000D01*
X113148157Y-76222235D01*
X113007809Y-76012191D01*
X112797765Y-75871843D01*
X112550000Y-75822560D01*
X110550000Y-75822560D01*
X110302235Y-75871843D01*
X110092191Y-76012191D01*
X110075907Y-76036561D01*
X109699380Y-75660034D01*
X108914678Y-75335000D01*
X108065322Y-75335000D01*
X107280620Y-75660034D01*
X106680034Y-76260620D01*
X106355000Y-77045322D01*
X106355000Y-77894678D01*
X106680034Y-78679380D01*
X107280620Y-79279966D01*
X107682526Y-79446441D01*
X107625000Y-79585322D01*
X107625000Y-80434678D01*
X107670162Y-80543709D01*
X107442608Y-80316155D01*
X106474134Y-79915000D01*
X105425866Y-79915000D01*
X104457392Y-80316155D01*
X104229838Y-80543709D01*
X104275000Y-80434678D01*
X104275000Y-79585322D01*
X104217474Y-79446441D01*
X104619380Y-79279966D01*
X105219966Y-78679380D01*
X105545000Y-77894678D01*
X105545000Y-77045322D01*
X105219966Y-76260620D01*
X104619380Y-75660034D01*
X103834678Y-75335000D01*
X102985322Y-75335000D01*
X102200620Y-75660034D01*
X101600034Y-76260620D01*
X101275000Y-77045322D01*
X101275000Y-77894678D01*
X101332526Y-78033559D01*
X100930620Y-78200034D01*
X100536109Y-78594545D01*
X100507809Y-78552191D01*
X100297765Y-78411843D01*
X100050000Y-78362560D01*
X99819434Y-78362560D01*
X99810000Y-78315134D01*
X99810000Y-78315130D01*
X99765904Y-78093445D01*
X99597929Y-77842053D01*
X99534473Y-77799653D01*
X98120018Y-76385199D01*
X98120018Y-76219126D01*
X97962449Y-75838720D01*
X97845000Y-75721271D01*
X97845000Y-73564802D01*
X98334475Y-73075327D01*
X98397929Y-73032929D01*
X98440327Y-72969476D01*
X98440329Y-72969474D01*
X98565903Y-72781538D01*
X98565904Y-72781537D01*
X98610000Y-72559852D01*
X98610000Y-72559848D01*
X98624888Y-72485001D01*
X98610000Y-72410154D01*
X98610000Y-68847440D01*
X98850000Y-68847440D01*
X99097765Y-68798157D01*
X99307809Y-68657809D01*
X99340115Y-68609461D01*
X99740620Y-69009966D01*
X100525322Y-69335000D01*
X101374678Y-69335000D01*
X102159380Y-69009966D01*
X102759966Y-68409380D01*
X103085000Y-67624678D01*
X103085000Y-66775322D01*
X102759966Y-65990620D01*
X102159380Y-65390034D01*
X101374678Y-65065000D01*
X100813560Y-65065000D01*
X101006697Y-64985000D01*
X101165385Y-64985000D01*
X101711185Y-64758922D01*
X102128922Y-64341185D01*
X102355000Y-63795385D01*
X102355000Y-63204615D01*
X102309596Y-63095000D01*
X102564678Y-63095000D01*
X103349380Y-62769966D01*
X103436283Y-62683063D01*
X103315000Y-62975866D01*
X103315000Y-64024134D01*
X103716155Y-64992608D01*
X104457392Y-65733845D01*
X105425866Y-66135000D01*
X106474134Y-66135000D01*
X107442608Y-65733845D01*
X108183845Y-64992608D01*
X108585000Y-64024134D01*
X108585000Y-62975866D01*
X108463717Y-62683063D01*
X108550620Y-62769966D01*
G36*
X59569671Y-52445527D02*
X57865528Y-54149671D01*
X57802072Y-54192071D01*
X57759672Y-54255527D01*
X57759671Y-54255528D01*
X57634097Y-54443463D01*
X57575112Y-54740000D01*
X57590001Y-54814852D01*
X57590000Y-63045153D01*
X57575112Y-63120000D01*
X57590000Y-63194847D01*
X57590000Y-63194851D01*
X57634096Y-63416536D01*
X57802071Y-63667929D01*
X57865530Y-63710331D01*
X60466896Y-66311698D01*
X60445000Y-66364561D01*
X60445000Y-66935439D01*
X60663466Y-67462862D01*
X61067138Y-67866534D01*
X61196216Y-67920000D01*
X61067138Y-67973466D01*
X60663466Y-68377138D01*
X60445000Y-68904561D01*
X60445000Y-69220198D01*
X56570000Y-65345199D01*
X56570000Y-54419801D01*
X58569802Y-52420000D01*
X59586728Y-52420000D01*
X59569671Y-52445527D01*
X59569671Y-52445527D01*
G37*
X59569671Y-52445527D02*
X57865528Y-54149671D01*
X57802072Y-54192071D01*
X57759672Y-54255527D01*
X57759671Y-54255528D01*
X57634097Y-54443463D01*
X57575112Y-54740000D01*
X57590001Y-54814852D01*
X57590000Y-63045153D01*
X57575112Y-63120000D01*
X57590000Y-63194847D01*
X57590000Y-63194851D01*
X57634096Y-63416536D01*
X57802071Y-63667929D01*
X57865530Y-63710331D01*
X60466896Y-66311698D01*
X60445000Y-66364561D01*
X60445000Y-66935439D01*
X60663466Y-67462862D01*
X61067138Y-67866534D01*
X61196216Y-67920000D01*
X61067138Y-67973466D01*
X60663466Y-68377138D01*
X60445000Y-68904561D01*
X60445000Y-69220198D01*
X56570000Y-65345199D01*
X56570000Y-54419801D01*
X58569802Y-52420000D01*
X59586728Y-52420000D01*
X59569671Y-52445527D01*
G36*
X114010000Y-60229802D02*
X114010001Y-61751286D01*
X113892569Y-61868718D01*
X113735000Y-62249124D01*
X113735000Y-62660872D01*
X113892569Y-63041278D01*
X114010001Y-63158710D01*
X114010000Y-67950197D01*
X113320199Y-68640000D01*
X112529346Y-68640000D01*
X112759966Y-68409380D01*
X113085000Y-67624678D01*
X113085000Y-66775322D01*
X112759966Y-65990620D01*
X112159380Y-65390034D01*
X111422962Y-65085000D01*
X111765276Y-65085000D01*
X112347830Y-64843698D01*
X112793698Y-64397830D01*
X113035000Y-63815276D01*
X113035000Y-63184724D01*
X112793698Y-62602170D01*
X112347830Y-62156302D01*
X111765276Y-61915000D01*
X111675334Y-61915000D01*
X111895000Y-61384678D01*
X111895000Y-60535322D01*
X111701197Y-60067440D01*
X112550000Y-60067440D01*
X112797765Y-60018157D01*
X113007809Y-59877809D01*
X113148157Y-59667765D01*
X113197440Y-59420000D01*
X113197440Y-59417241D01*
X114010000Y-60229802D01*
X114010000Y-60229802D01*
G37*
X114010000Y-60229802D02*
X114010001Y-61751286D01*
X113892569Y-61868718D01*
X113735000Y-62249124D01*
X113735000Y-62660872D01*
X113892569Y-63041278D01*
X114010001Y-63158710D01*
X114010000Y-67950197D01*
X113320199Y-68640000D01*
X112529346Y-68640000D01*
X112759966Y-68409380D01*
X113085000Y-67624678D01*
X113085000Y-66775322D01*
X112759966Y-65990620D01*
X112159380Y-65390034D01*
X111422962Y-65085000D01*
X111765276Y-65085000D01*
X112347830Y-64843698D01*
X112793698Y-64397830D01*
X113035000Y-63815276D01*
X113035000Y-63184724D01*
X112793698Y-62602170D01*
X112347830Y-62156302D01*
X111765276Y-61915000D01*
X111675334Y-61915000D01*
X111895000Y-61384678D01*
X111895000Y-60535322D01*
X111701197Y-60067440D01*
X112550000Y-60067440D01*
X112797765Y-60018157D01*
X113007809Y-59877809D01*
X113148157Y-59667765D01*
X113197440Y-59420000D01*
X113197440Y-59417241D01*
X114010000Y-60229802D01*
G36*
X133240000Y-60314803D02*
X133240001Y-61796330D01*
X133122569Y-61913762D01*
X132965000Y-62294168D01*
X132965000Y-62705916D01*
X133122569Y-63086322D01*
X133240001Y-63203754D01*
X133240000Y-67770198D01*
X132370199Y-68640000D01*
X131579346Y-68640000D01*
X131809966Y-68409380D01*
X132135000Y-67624678D01*
X132135000Y-66775322D01*
X131809966Y-65990620D01*
X131209380Y-65390034D01*
X130472962Y-65085000D01*
X130815276Y-65085000D01*
X131397830Y-64843698D01*
X131843698Y-64397830D01*
X132085000Y-63815276D01*
X132085000Y-63184724D01*
X131843698Y-62602170D01*
X131397830Y-62156302D01*
X130815276Y-61915000D01*
X130725334Y-61915000D01*
X130945000Y-61384678D01*
X130945000Y-60535322D01*
X130751197Y-60067440D01*
X131600000Y-60067440D01*
X131847765Y-60018157D01*
X132057809Y-59877809D01*
X132198157Y-59667765D01*
X132247440Y-59420000D01*
X132247440Y-59322241D01*
X133240000Y-60314803D01*
X133240000Y-60314803D01*
G37*
X133240000Y-60314803D02*
X133240001Y-61796330D01*
X133122569Y-61913762D01*
X132965000Y-62294168D01*
X132965000Y-62705916D01*
X133122569Y-63086322D01*
X133240001Y-63203754D01*
X133240000Y-67770198D01*
X132370199Y-68640000D01*
X131579346Y-68640000D01*
X131809966Y-68409380D01*
X132135000Y-67624678D01*
X132135000Y-66775322D01*
X131809966Y-65990620D01*
X131209380Y-65390034D01*
X130472962Y-65085000D01*
X130815276Y-65085000D01*
X131397830Y-64843698D01*
X131843698Y-64397830D01*
X132085000Y-63815276D01*
X132085000Y-63184724D01*
X131843698Y-62602170D01*
X131397830Y-62156302D01*
X130815276Y-61915000D01*
X130725334Y-61915000D01*
X130945000Y-61384678D01*
X130945000Y-60535322D01*
X130751197Y-60067440D01*
X131600000Y-60067440D01*
X131847765Y-60018157D01*
X132057809Y-59877809D01*
X132198157Y-59667765D01*
X132247440Y-59420000D01*
X132247440Y-59322241D01*
X133240000Y-60314803D01*
G36*
X98865000Y-63184724D02*
X98865000Y-63815276D01*
X99106302Y-64397830D01*
X99552170Y-64843698D01*
X100134724Y-65085000D01*
X100477038Y-65085000D01*
X99740620Y-65390034D01*
X99340115Y-65790539D01*
X99307809Y-65742191D01*
X99097765Y-65601843D01*
X98850000Y-65552560D01*
X97750000Y-65552560D01*
X97750000Y-63404801D01*
X98547361Y-62607440D01*
X99104119Y-62607440D01*
X98865000Y-63184724D01*
X98865000Y-63184724D01*
G37*
X98865000Y-63184724D02*
X98865000Y-63815276D01*
X99106302Y-64397830D01*
X99552170Y-64843698D01*
X100134724Y-65085000D01*
X100477038Y-65085000D01*
X99740620Y-65390034D01*
X99340115Y-65790539D01*
X99307809Y-65742191D01*
X99097765Y-65601843D01*
X98850000Y-65552560D01*
X97750000Y-65552560D01*
X97750000Y-63404801D01*
X98547361Y-62607440D01*
X99104119Y-62607440D01*
X98865000Y-63184724D01*
G04 #@! TD*
M02*
