M48
;DRILL file {KiCad (5.0.2)-1} date 2019/04/07 10:51:21
;FORMAT={-:-/ absolute / metric / decimal}
FMAT,2
METRIC,TZ
T1C1.200
T2C1.700
T3C1.900
T4C3.000
T5C4.000
%
G90
G05
T1
X77.86Y-96.5
X77.86Y-103.5
X65.86Y-96.5
X65.86Y-103.5
T2
X118.47Y-63.5
X128.63Y-63.5
X118.47Y-82.55
X128.63Y-82.55
X99.42Y-63.5
X109.58Y-63.5
X99.42Y-82.55
X109.58Y-82.55
T3
X118.05Y-63.5
X129.05Y-63.5
X118.05Y-82.55
X129.05Y-82.55
X99.Y-63.5
X110.Y-63.5
X99.Y-82.55
X110.Y-82.55
T4
X118.55Y-67.2
X119.74Y-60.96
X123.55Y-69.4
X126.09Y-58.42
X118.55Y-86.25
X119.74Y-80.01
X123.55Y-88.45
X126.09Y-77.47
X99.5Y-67.2
X100.69Y-60.96
X104.5Y-69.4
X107.04Y-58.42
X99.5Y-86.25
X100.69Y-80.01
X104.5Y-88.45
X107.04Y-77.47
T5
X123.55Y-63.5
X123.55Y-82.55
X104.5Y-63.5
X104.5Y-82.55
T0
M30
