G04 #@! TF.GenerationSoftware,KiCad,Pcbnew,(5.0.2)-1*
G04 #@! TF.CreationDate,2019-03-22T22:23:13+09:00*
G04 #@! TF.ProjectId,mitcard,6d697463-6172-4642-9e6b-696361645f70,rev?*
G04 #@! TF.SameCoordinates,Original*
G04 #@! TF.FileFunction,Legend,Bot*
G04 #@! TF.FilePolarity,Positive*
%FSLAX46Y46*%
G04 Gerber Fmt 4.6, Leading zero omitted, Abs format (unit mm)*
G04 Created by KiCad (PCBNEW (5.0.2)-1) date 2019/03/22 22:23:13*
%MOMM*%
%LPD*%
G01*
G04 APERTURE LIST*
%ADD10C,0.300000*%
%ADD11C,0.150000*%
G04 APERTURE END LIST*
D10*
X122619285Y-98688571D02*
X122619285Y-97688571D01*
X122619285Y-97831428D02*
X122547857Y-97760000D01*
X122405000Y-97688571D01*
X122190714Y-97688571D01*
X122047857Y-97760000D01*
X121976428Y-97902857D01*
X121976428Y-98688571D01*
X121976428Y-97902857D02*
X121905000Y-97760000D01*
X121762142Y-97688571D01*
X121547857Y-97688571D01*
X121405000Y-97760000D01*
X121333571Y-97902857D01*
X121333571Y-98688571D01*
X120619285Y-98688571D02*
X120619285Y-97688571D01*
X120619285Y-97188571D02*
X120690714Y-97260000D01*
X120619285Y-97331428D01*
X120547857Y-97260000D01*
X120619285Y-97188571D01*
X120619285Y-97331428D01*
X120119285Y-97688571D02*
X119547857Y-97688571D01*
X119905000Y-97188571D02*
X119905000Y-98474285D01*
X119833571Y-98617142D01*
X119690714Y-98688571D01*
X119547857Y-98688571D01*
X118405000Y-98617142D02*
X118547857Y-98688571D01*
X118833571Y-98688571D01*
X118976428Y-98617142D01*
X119047857Y-98545714D01*
X119119285Y-98402857D01*
X119119285Y-97974285D01*
X119047857Y-97831428D01*
X118976428Y-97760000D01*
X118833571Y-97688571D01*
X118547857Y-97688571D01*
X118405000Y-97760000D01*
X117119285Y-98688571D02*
X117119285Y-97902857D01*
X117190714Y-97760000D01*
X117333571Y-97688571D01*
X117619285Y-97688571D01*
X117762142Y-97760000D01*
X117119285Y-98617142D02*
X117262142Y-98688571D01*
X117619285Y-98688571D01*
X117762142Y-98617142D01*
X117833571Y-98474285D01*
X117833571Y-98331428D01*
X117762142Y-98188571D01*
X117619285Y-98117142D01*
X117262142Y-98117142D01*
X117119285Y-98045714D01*
X116405000Y-98688571D02*
X116405000Y-97688571D01*
X116405000Y-97974285D02*
X116333571Y-97831428D01*
X116262142Y-97760000D01*
X116119285Y-97688571D01*
X115976428Y-97688571D01*
X114833571Y-98688571D02*
X114833571Y-97188571D01*
X114833571Y-98617142D02*
X114976428Y-98688571D01*
X115262142Y-98688571D01*
X115405000Y-98617142D01*
X115476428Y-98545714D01*
X115547857Y-98402857D01*
X115547857Y-97974285D01*
X115476428Y-97831428D01*
X115405000Y-97760000D01*
X115262142Y-97688571D01*
X114976428Y-97688571D01*
X114833571Y-97760000D01*
X112976428Y-98688571D02*
X112976428Y-97688571D01*
X112976428Y-97974285D02*
X112905000Y-97831428D01*
X112833571Y-97760000D01*
X112690714Y-97688571D01*
X112547857Y-97688571D01*
X111476428Y-98617142D02*
X111619285Y-98688571D01*
X111905000Y-98688571D01*
X112047857Y-98617142D01*
X112119285Y-98474285D01*
X112119285Y-97902857D01*
X112047857Y-97760000D01*
X111905000Y-97688571D01*
X111619285Y-97688571D01*
X111476428Y-97760000D01*
X111405000Y-97902857D01*
X111405000Y-98045714D01*
X112119285Y-98188571D01*
X110905000Y-97688571D02*
X110547857Y-98688571D01*
X110190714Y-97688571D01*
X109619285Y-98545714D02*
X109547857Y-98617142D01*
X109619285Y-98688571D01*
X109690714Y-98617142D01*
X109619285Y-98545714D01*
X109619285Y-98688571D01*
X108119285Y-98688571D02*
X108976428Y-98688571D01*
X108547857Y-98688571D02*
X108547857Y-97188571D01*
X108690714Y-97402857D01*
X108833571Y-97545714D01*
X108976428Y-97617142D01*
X130619285Y-101238571D02*
X130619285Y-99738571D01*
X130262142Y-99738571D01*
X130047857Y-99810000D01*
X129905000Y-99952857D01*
X129833571Y-100095714D01*
X129762142Y-100381428D01*
X129762142Y-100595714D01*
X129833571Y-100881428D01*
X129905000Y-101024285D01*
X130047857Y-101167142D01*
X130262142Y-101238571D01*
X130619285Y-101238571D01*
X128547857Y-101167142D02*
X128690714Y-101238571D01*
X128976428Y-101238571D01*
X129119285Y-101167142D01*
X129190714Y-101024285D01*
X129190714Y-100452857D01*
X129119285Y-100310000D01*
X128976428Y-100238571D01*
X128690714Y-100238571D01*
X128547857Y-100310000D01*
X128476428Y-100452857D01*
X128476428Y-100595714D01*
X129190714Y-100738571D01*
X127905000Y-101167142D02*
X127762142Y-101238571D01*
X127476428Y-101238571D01*
X127333571Y-101167142D01*
X127262142Y-101024285D01*
X127262142Y-100952857D01*
X127333571Y-100810000D01*
X127476428Y-100738571D01*
X127690714Y-100738571D01*
X127833571Y-100667142D01*
X127905000Y-100524285D01*
X127905000Y-100452857D01*
X127833571Y-100310000D01*
X127690714Y-100238571D01*
X127476428Y-100238571D01*
X127333571Y-100310000D01*
X126619285Y-101238571D02*
X126619285Y-100238571D01*
X126619285Y-99738571D02*
X126690714Y-99810000D01*
X126619285Y-99881428D01*
X126547857Y-99810000D01*
X126619285Y-99738571D01*
X126619285Y-99881428D01*
X125262142Y-100238571D02*
X125262142Y-101452857D01*
X125333571Y-101595714D01*
X125405000Y-101667142D01*
X125547857Y-101738571D01*
X125762142Y-101738571D01*
X125905000Y-101667142D01*
X125262142Y-101167142D02*
X125405000Y-101238571D01*
X125690714Y-101238571D01*
X125833571Y-101167142D01*
X125905000Y-101095714D01*
X125976428Y-100952857D01*
X125976428Y-100524285D01*
X125905000Y-100381428D01*
X125833571Y-100310000D01*
X125690714Y-100238571D01*
X125405000Y-100238571D01*
X125262142Y-100310000D01*
X124547857Y-100238571D02*
X124547857Y-101238571D01*
X124547857Y-100381428D02*
X124476428Y-100310000D01*
X124333571Y-100238571D01*
X124119285Y-100238571D01*
X123976428Y-100310000D01*
X123905000Y-100452857D01*
X123905000Y-101238571D01*
X122619285Y-101167142D02*
X122762142Y-101238571D01*
X123047857Y-101238571D01*
X123190714Y-101167142D01*
X123262142Y-101024285D01*
X123262142Y-100452857D01*
X123190714Y-100310000D01*
X123047857Y-100238571D01*
X122762142Y-100238571D01*
X122619285Y-100310000D01*
X122547857Y-100452857D01*
X122547857Y-100595714D01*
X123262142Y-100738571D01*
X121262142Y-101238571D02*
X121262142Y-99738571D01*
X121262142Y-101167142D02*
X121405000Y-101238571D01*
X121690714Y-101238571D01*
X121833571Y-101167142D01*
X121905000Y-101095714D01*
X121976428Y-100952857D01*
X121976428Y-100524285D01*
X121905000Y-100381428D01*
X121833571Y-100310000D01*
X121690714Y-100238571D01*
X121405000Y-100238571D01*
X121262142Y-100310000D01*
X119405000Y-101238571D02*
X119405000Y-99738571D01*
X119405000Y-100310000D02*
X119262142Y-100238571D01*
X118976428Y-100238571D01*
X118833571Y-100310000D01*
X118762142Y-100381428D01*
X118690714Y-100524285D01*
X118690714Y-100952857D01*
X118762142Y-101095714D01*
X118833571Y-101167142D01*
X118976428Y-101238571D01*
X119262142Y-101238571D01*
X119405000Y-101167142D01*
X118190714Y-100238571D02*
X117833571Y-101238571D01*
X117476428Y-100238571D02*
X117833571Y-101238571D01*
X117976428Y-101595714D01*
X118047857Y-101667142D01*
X118190714Y-101738571D01*
X115762142Y-101238571D02*
X115762142Y-100238571D01*
X115762142Y-100381428D02*
X115690714Y-100310000D01*
X115547857Y-100238571D01*
X115333571Y-100238571D01*
X115190714Y-100310000D01*
X115119285Y-100452857D01*
X115119285Y-101238571D01*
X115119285Y-100452857D02*
X115047857Y-100310000D01*
X114905000Y-100238571D01*
X114690714Y-100238571D01*
X114547857Y-100310000D01*
X114476428Y-100452857D01*
X114476428Y-101238571D01*
X113762142Y-101238571D02*
X113762142Y-100238571D01*
X113762142Y-99738571D02*
X113833571Y-99810000D01*
X113762142Y-99881428D01*
X113690714Y-99810000D01*
X113762142Y-99738571D01*
X113762142Y-99881428D01*
X113262142Y-100238571D02*
X112690714Y-100238571D01*
X113047857Y-99738571D02*
X113047857Y-101024285D01*
X112976428Y-101167142D01*
X112833571Y-101238571D01*
X112690714Y-101238571D01*
X111547857Y-101238571D02*
X111547857Y-100452857D01*
X111619285Y-100310000D01*
X111762142Y-100238571D01*
X112047857Y-100238571D01*
X112190714Y-100310000D01*
X111547857Y-101167142D02*
X111690714Y-101238571D01*
X112047857Y-101238571D01*
X112190714Y-101167142D01*
X112262142Y-101024285D01*
X112262142Y-100881428D01*
X112190714Y-100738571D01*
X112047857Y-100667142D01*
X111690714Y-100667142D01*
X111547857Y-100595714D01*
X110833571Y-101238571D02*
X110833571Y-100238571D01*
X110833571Y-100524285D02*
X110762142Y-100381428D01*
X110690714Y-100310000D01*
X110547857Y-100238571D01*
X110405000Y-100238571D01*
X109690714Y-101238571D02*
X109833571Y-101167142D01*
X109905000Y-101095714D01*
X109976428Y-100952857D01*
X109976428Y-100524285D01*
X109905000Y-100381428D01*
X109833571Y-100310000D01*
X109690714Y-100238571D01*
X109476428Y-100238571D01*
X109333571Y-100310000D01*
X109262142Y-100381428D01*
X109190714Y-100524285D01*
X109190714Y-100952857D01*
X109262142Y-101095714D01*
X109333571Y-101167142D01*
X109476428Y-101238571D01*
X109690714Y-101238571D01*
X108762142Y-99738571D02*
X107905000Y-99738571D01*
X108333571Y-101238571D02*
X108333571Y-99738571D01*
X107405000Y-101238571D02*
X107405000Y-99738571D01*
X106762142Y-101238571D02*
X106762142Y-100452857D01*
X106833571Y-100310000D01*
X106976428Y-100238571D01*
X107190714Y-100238571D01*
X107333571Y-100310000D01*
X107405000Y-100381428D01*
X105405000Y-101238571D02*
X105405000Y-100452857D01*
X105476428Y-100310000D01*
X105619285Y-100238571D01*
X105905000Y-100238571D01*
X106047857Y-100310000D01*
X105405000Y-101167142D02*
X105547857Y-101238571D01*
X105905000Y-101238571D01*
X106047857Y-101167142D01*
X106119285Y-101024285D01*
X106119285Y-100881428D01*
X106047857Y-100738571D01*
X105905000Y-100667142D01*
X105547857Y-100667142D01*
X105405000Y-100595714D01*
X104690714Y-100238571D02*
X104690714Y-101238571D01*
X104690714Y-100381428D02*
X104619285Y-100310000D01*
X104476428Y-100238571D01*
X104262142Y-100238571D01*
X104119285Y-100310000D01*
X104047857Y-100452857D01*
X104047857Y-101238571D01*
X103333571Y-101238571D02*
X103333571Y-99738571D01*
X103190714Y-100667142D02*
X102762142Y-101238571D01*
X102762142Y-100238571D02*
X103333571Y-100810000D01*
X101547857Y-101167142D02*
X101690714Y-101238571D01*
X101976428Y-101238571D01*
X102119285Y-101167142D01*
X102190714Y-101024285D01*
X102190714Y-100452857D01*
X102119285Y-100310000D01*
X101976428Y-100238571D01*
X101690714Y-100238571D01*
X101547857Y-100310000D01*
X101476428Y-100452857D01*
X101476428Y-100595714D01*
X102190714Y-100738571D01*
X100833571Y-100238571D02*
X100833571Y-101238571D01*
X100833571Y-100381428D02*
X100762142Y-100310000D01*
X100619285Y-100238571D01*
X100405000Y-100238571D01*
X100262142Y-100310000D01*
X100190714Y-100452857D01*
X100190714Y-101238571D01*
D11*
G04 #@! TO.C,SW1*
X99850000Y-62604000D02*
X103460000Y-62604000D01*
X99850000Y-58650000D02*
X99850000Y-62595000D01*
X110750000Y-56696000D02*
X102125000Y-56696000D01*
X110750000Y-60604000D02*
X110750000Y-56696000D01*
X110750000Y-60650000D02*
X105700000Y-60696000D01*
X99861000Y-58580000D02*
G75*
G02X102125000Y-56696000I2074000J-190000D01*
G01*
X103465000Y-62580000D02*
G75*
G02X105725000Y-60700000I2070000J-190000D01*
G01*
X108225000Y-71725000D02*
X103675000Y-71725000D01*
X108225000Y-67075000D02*
X105675000Y-67075000D01*
X103375000Y-64875000D02*
X98675000Y-64875000D01*
X102450000Y-69525000D02*
X98675000Y-69525000D01*
X108250000Y-67100000D02*
X108250000Y-71700000D01*
X98675000Y-64900000D02*
X98650000Y-69500000D01*
X103380000Y-64900000D02*
G75*
G03X105750000Y-67070000I2270000J100000D01*
G01*
X103670000Y-70950000D02*
G75*
G03X102450000Y-69530000I-1320000J100000D01*
G01*
X103670000Y-71000000D02*
X103670000Y-71700000D01*
G04 #@! TO.C,SW4*
X122720000Y-90050000D02*
X122720000Y-90750000D01*
X122720000Y-90000000D02*
G75*
G03X121500000Y-88580000I-1320000J100000D01*
G01*
X122430000Y-83950000D02*
G75*
G03X124800000Y-86120000I2270000J100000D01*
G01*
X117725000Y-83950000D02*
X117700000Y-88550000D01*
X127300000Y-86150000D02*
X127300000Y-90750000D01*
X121500000Y-88575000D02*
X117725000Y-88575000D01*
X122425000Y-83925000D02*
X117725000Y-83925000D01*
X127275000Y-86125000D02*
X124725000Y-86125000D01*
X127275000Y-90775000D02*
X122725000Y-90775000D01*
X122515000Y-81630000D02*
G75*
G02X124775000Y-79750000I2070000J-190000D01*
G01*
X118911000Y-77630000D02*
G75*
G02X121175000Y-75746000I2074000J-190000D01*
G01*
X129800000Y-79700000D02*
X124750000Y-79746000D01*
X129800000Y-79654000D02*
X129800000Y-75746000D01*
X129800000Y-75746000D02*
X121175000Y-75746000D01*
X118900000Y-77700000D02*
X118900000Y-81645000D01*
X118900000Y-81654000D02*
X122510000Y-81654000D01*
G04 #@! TO.C,SW2*
X103670000Y-90050000D02*
X103670000Y-90750000D01*
X103670000Y-90000000D02*
G75*
G03X102450000Y-88580000I-1320000J100000D01*
G01*
X103380000Y-83950000D02*
G75*
G03X105750000Y-86120000I2270000J100000D01*
G01*
X98675000Y-83950000D02*
X98650000Y-88550000D01*
X108250000Y-86150000D02*
X108250000Y-90750000D01*
X102450000Y-88575000D02*
X98675000Y-88575000D01*
X103375000Y-83925000D02*
X98675000Y-83925000D01*
X108225000Y-86125000D02*
X105675000Y-86125000D01*
X108225000Y-90775000D02*
X103675000Y-90775000D01*
X103465000Y-81630000D02*
G75*
G02X105725000Y-79750000I2070000J-190000D01*
G01*
X99861000Y-77630000D02*
G75*
G02X102125000Y-75746000I2074000J-190000D01*
G01*
X110750000Y-79700000D02*
X105700000Y-79746000D01*
X110750000Y-79654000D02*
X110750000Y-75746000D01*
X110750000Y-75746000D02*
X102125000Y-75746000D01*
X99850000Y-77700000D02*
X99850000Y-81645000D01*
X99850000Y-81654000D02*
X103460000Y-81654000D01*
G04 #@! TO.C,SW3*
X118900000Y-62604000D02*
X122510000Y-62604000D01*
X118900000Y-58650000D02*
X118900000Y-62595000D01*
X129800000Y-56696000D02*
X121175000Y-56696000D01*
X129800000Y-60604000D02*
X129800000Y-56696000D01*
X129800000Y-60650000D02*
X124750000Y-60696000D01*
X118911000Y-58580000D02*
G75*
G02X121175000Y-56696000I2074000J-190000D01*
G01*
X122515000Y-62580000D02*
G75*
G02X124775000Y-60700000I2070000J-190000D01*
G01*
X127275000Y-71725000D02*
X122725000Y-71725000D01*
X127275000Y-67075000D02*
X124725000Y-67075000D01*
X122425000Y-64875000D02*
X117725000Y-64875000D01*
X121500000Y-69525000D02*
X117725000Y-69525000D01*
X127300000Y-67100000D02*
X127300000Y-71700000D01*
X117725000Y-64900000D02*
X117700000Y-69500000D01*
X122430000Y-64900000D02*
G75*
G03X124800000Y-67070000I2270000J100000D01*
G01*
X122720000Y-70950000D02*
G75*
G03X121500000Y-69530000I-1320000J100000D01*
G01*
X122720000Y-71000000D02*
X122720000Y-71700000D01*
G04 #@! TD*
M02*
